<svg xmlns="http://www.w3.org/2000/svg" viewBox="0 0 446.95 117.21"><defs><style>.cls-1{fill:#fff;}.cls-2{fill:#b30909;}</style></defs><title>Asset 1</title><g id="Layer_2" data-name="Layer 2"><g id="Layer_1-2" data-name="Layer 1"><path class="cls-1" d="M140,33.68c-14,0-21.46,8.93-21.46,21.53v6.36c0,13.05,8.5,20.74,21.63,20.74,10.29,0,18.6-6.16,20.23-14.65H149.7c-1.16,3.22-4.39,5.9-9.58,5.9-7.06,0-9.83-4.75-9.83-10.2V62.2h30.4V54.06C160.69,42.88,153.72,33.68,140,33.68Zm9.56,19.94H130.29v-.46c0-6.25,2.69-10.92,9.67-10.92,6.52,0,9.56,4.4,9.56,10.2Z"/><path class="cls-1" d="M194.59,27.68c9.29,0,13.77,6.17,14.58,13.24h11.62c-.61-12.78-10.37-23.51-26.2-23.51-18.85,0-27.35,12.05-27.35,28.07V54.4c0,16,8.5,28.1,27.35,28.1,15.83,0,25.59-10.74,26.2-23.54H209.17c-.81,7.08-5.29,13.24-14.58,13.24-10.45,0-14.92-7.15-14.92-17.15V44.86C179.67,34.84,184.14,27.68,194.59,27.68Z"/><path class="cls-1" d="M248.64,33.68c-14,0-21.91,9.1-21.91,21v6.61c0,11.89,8,21,21.91,21s21.9-9.12,21.9-21V54.68C270.55,42.78,262.59,33.68,248.64,33.68Zm10.1,28.43c0,6.07-3.23,10.64-10.1,10.64s-10.1-4.57-10.1-10.64V53.89c0-6.1,3.23-10.65,10.1-10.65s10.1,4.55,10.1,10.65Z"/><path class="cls-1" d="M288.44,43.77v-9H276.9v46.5h12.16V59.78c0-9.4,4.27-13.32,12.24-13.32h2.5V34.39h-1.43C295.39,34.39,289.94,36.8,288.44,43.77Z"/><path class="cls-1" d="M335.95,33.68c-6.63,0-11.37,2.31-13.69,6.61V34.74H310.63v46.5H322.8V53.7c0-6.25,3.49-9.47,8.94-9.47,5.89,0,8.48,3.85,8.48,9.22V81.24h12.16V51.47C352.38,40.29,346,33.68,335.95,33.68Z"/><path class="cls-1" d="M379.74,33.68c-13.94,0-21.45,8.93-21.45,21.53v6.36c0,13.05,8.49,20.74,21.64,20.74,10.26,0,18.58-6.16,20.19-14.65H389.5c-1.18,3.22-4.39,5.9-9.57,5.9-7.08,0-9.84-4.75-9.84-10.2V62.2h30.38V54.06C400.48,42.88,393.52,33.68,379.74,33.68Zm9.58,19.94H370.09v-.46c0-6.25,2.68-10.92,9.65-10.92,6.53,0,9.58,4.4,9.58,10.2Z"/><path class="cls-1" d="M418,66.12V12.9H406.72V66.77c0,11.5,8,15.59,15.48,15.59H425V72.71h-.83C419.83,72.71,418,70.8,418,66.12Z"/><path class="cls-1" d="M446.12,72.71c-4.37,0-6.15-1.91-6.15-6.59V12.9H428.64V66.77c0,11.5,8,15.59,15.48,15.59h2.83V72.71Z"/><path class="cls-2" d="M92.62,0H.92A.91.91,0,0,0,0,.91C0,9,0,68.53,0,69.18c.12,4-.25,15.75,11,25.55,0,0,8.39,7.77,25.95,17.41,3,1.65,6.27,3.35,9.81,5.08,3.54-1.73,6.81-3.43,9.81-5.08,17.56-9.64,25.95-17.41,25.95-17.41,11.24-9.8,10.88-21.53,11-25.55,0-.64,0-60.16,0-68.26A.91.91,0,0,0,92.62,0ZM72.9,84.66s-2.52,3-13.85,10.19c-.46.28-11.47,7-12.28,7s-11.83-6.69-12.28-7C23.15,87.64,20.63,84.66,20.63,84.66,12.93,78,13.32,72.53,13.32,67.79V14a.46.46,0,0,1,.46-.46h66a.46.46,0,0,1,.46.46V67.79C80.21,72.53,80.61,78,72.9,84.66Z"/></g></g></svg>