<svg width="629" height="187" viewBox="0 0 629 187" fill="none" xmlns="http://www.w3.org/2000/svg">
<path d="M540.805 52.9158C540.805 75.8007 524.1 95.7902 503.529 95.7902C484.038 96.2809 466.448 76.8912 466.203 52.9158C466.203 30.0309 482.912 14 503.529 14C524.1 14.0055 540.805 30.0309 540.805 52.9158Z" fill="#00AEEF"/>
<path d="M568.956 162.204C568.905 163.452 567.87 173 566.869 173H440.148C438.957 173 438.177 163.24 438.142 161.757C438.037 157.307 437.882 148.501 438.222 145.088C438.632 140.431 440.783 136.342 440.783 136.342C443.21 130.207 449.018 124.956 455.092 120.9C462.211 114.733 472.226 110.038 483.918 107.492C490.066 106.183 496.63 106.423 503.514 106.423C510.433 106.423 517.111 106.183 523.28 107.535C533.346 109.727 542.175 113.582 548.944 118.517C550.87 119.711 552.911 121.02 555.093 122.53C567.68 131.282 568.956 142.541 568.956 142.541C568.956 142.541 569.056 158.616 568.956 162.204Z" fill="#00AEEF"/>
<path d="M515.791 52.9158C515.791 75.8007 499.086 95.7902 478.515 95.7902C459.024 96.2809 441.434 76.8912 441.189 52.9158C441.189 30.0309 457.898 14 478.515 14C499.086 14.0055 515.791 30.0309 515.791 52.9158Z" fill="#2B3990"/>
<path d="M543.942 162.204C543.892 163.452 542.856 173 541.855 173H415.134C413.944 173 413.163 163.24 413.128 161.757C413.023 157.307 412.868 148.501 413.208 145.088C413.618 140.431 415.77 136.342 415.77 136.342C418.196 130.207 424.004 124.956 430.078 120.9C437.197 114.733 447.212 110.038 458.904 107.492C465.052 106.183 471.616 106.423 478.5 106.423C485.419 106.423 492.097 106.183 498.266 107.535C508.332 109.727 517.162 113.582 523.93 118.517C525.856 119.711 527.898 121.02 530.079 122.53C542.666 131.282 543.942 142.541 543.942 142.541C543.942 142.541 544.042 158.616 543.942 162.204Z" fill="#2B3990"/>
<path d="M203.454 27.9306C206.82 21.7979 229.873 19.5999 235.474 23.9959C241.074 28.3919 279.571 108.931 285.172 109.148C290.772 109.365 328.138 27.9306 332.183 24.6471C336.227 21.3637 360.157 21.3637 364.4 26.1667C368.643 30.9698 369.095 152.701 365.079 159.132C361.062 165.564 342.45 165.482 338.886 159.132C335.718 153.542 338.434 80.7641 334.643 80.4385C330.853 80.1128 298.607 144.371 295.92 148.522C293.233 152.674 278.015 151.806 274.197 148.957C270.378 146.107 235.474 76.0696 233.013 76.938C230.552 77.8063 234.342 150.503 231.004 158.346C227.667 166.188 209.734 167.11 204.586 158.346C199.692 149.906 200.003 34.2261 203.454 27.9306Z" fill="#191919"/>
<path d="M219.16 185.993C212.604 186.196 206.111 184.704 200.352 181.671C194.593 178.639 189.778 174.176 186.404 168.745C183.599 163.925 180.094 157.914 179.869 92.4398C179.645 27.8323 182.674 22.4167 184.974 18.0572C189.517 9.71729 198.379 4.19343 211.279 1.64813C217.309 0.456707 237.978 -2.63016 250.738 7.41568C256.347 11.8564 259.881 18.0031 277.016 50.4964C279.484 55.1808 282.625 60.8942 285.43 66.743C289.3 59.1883 293.142 51.4982 296.031 45.7307C310.726 16.4326 312.857 12.5334 317.765 8.44465C326.936 0.917034 342.276 0.321325 353.55 1.29612C366.731 2.32508 375.593 5.89933 381.371 12.4792C386.643 18.4634 389.784 22.0918 390.092 92.1148C390.401 160.324 387.288 165.225 384.091 170.342C377.893 180.199 365.357 185.831 350.437 185.479C336.106 185.127 324.72 179.251 319.195 169.395C317.401 166.128 316.304 162.546 315.97 158.862L315.409 159.782C313.146 163.118 310.162 165.941 306.662 168.058C303.162 170.175 299.229 171.537 295.133 172.048C287.898 173.294 271.463 173.592 261.059 165.766C258.523 163.889 256.389 161.553 254.777 158.889C254.429 161.422 253.761 163.905 252.786 166.281C248.018 177.518 236.183 185.019 221.936 185.912C221.02 185.966 220.095 185.993 219.16 185.993ZM339.303 59.1883C341.239 59.5188 343.123 60.0828 344.912 60.8672C344.912 56.5618 344.632 52.5272 344.464 48.9259C342.809 52.0127 341.042 55.6141 339.275 59.08L339.303 59.1883ZM225.386 48.3572C225.386 51.065 225.19 53.9623 225.105 57.1034L226.311 56.643C227.309 56.2878 228.33 55.9983 229.368 55.7765C227.826 53.0688 226.592 50.5505 225.358 48.276L225.386 48.3572Z" fill="#191919"/>
<path d="M89.2914 54.6206C97.795 47.5397 125.97 22.8786 134.105 22.8786H150.206C154.542 22.8786 158.482 22.8786 158.482 29.444V135.251C158.437 136.068 158.572 136.886 158.88 137.65C159.188 138.414 159.662 139.107 160.269 139.684C160.877 140.26 161.605 140.707 162.406 140.995C163.207 141.283 164.063 141.406 164.917 141.355H179.996C184.759 141.355 184.759 164.578 179.996 164.578H100.006C95.7258 164.578 95.414 141.382 99.6941 141.382H119.706C120.543 141.49 121.395 141.412 122.194 141.152C122.994 140.893 123.72 140.46 124.316 139.887C124.912 139.314 125.361 138.617 125.628 137.85C125.896 137.084 125.974 136.268 125.857 135.468C125.857 131.805 125.857 70.3559 125.857 65.364C125.857 60.3721 123.674 58.8257 119.819 62.1356C115.463 66.3366 110.782 70.2181 105.817 73.7471C99.2973 78.0608 80.7878 61.7015 89.2914 54.6206Z" fill="#191919"/>
<path d="M179.732 186.012H100.204C94.1165 186.012 74.3049 183.575 74.3049 152.175C74.2726 147.943 74.7359 143.721 75.6858 139.588C79.3494 124.809 91.0166 119.558 99.922 119.558H103.388C103.388 115.037 103.388 109.921 103.388 104.67C103.388 101.963 103.388 98.9581 103.388 96.1159C92.7075 96.1159 81.3503 90.5398 73.0367 80.3889C61.5105 66.2861 62.1868 49.0703 74.7276 38.5405L77.5458 36.1043C109.504 9.03549 121.65 1.48328 134.106 1.48328H150.17C156.044 1.20423 161.886 2.45762 167.079 5.11049C171.51 7.60072 175.149 11.2063 177.602 15.538C180.056 19.8696 181.231 24.7627 181 29.689V119.612C187.257 119.991 205.828 123.564 205.828 152.798C205.869 157.357 205.32 161.903 204.194 166.332C200.164 180.896 188.468 186.012 179.732 186.012Z" fill="#191919"/>
<path d="M203.454 27.9306C206.82 21.7979 229.873 19.5999 235.474 23.9959C241.074 28.3919 279.571 108.931 285.172 109.148C290.772 109.365 328.138 27.9306 332.183 24.6471C336.227 21.3637 360.157 21.3637 364.4 26.1667C368.643 30.9698 369.095 152.701 365.079 159.132C361.062 165.564 342.45 165.482 338.886 159.132C335.718 153.542 338.434 80.7641 334.643 80.4385C330.853 80.1128 298.607 144.371 295.92 148.522C293.233 152.674 278.015 151.806 274.197 148.957C270.378 146.107 235.474 76.0696 233.013 76.938C230.552 77.8063 234.342 150.503 231.004 158.346C227.667 166.188 209.734 167.11 204.586 158.346C199.692 149.906 200.003 34.2261 203.454 27.9306Z" fill="#00B0FF"/>
<path d="M89.2914 54.6206C97.795 47.5397 125.97 22.8786 134.105 22.8786H150.206C154.542 22.8786 158.482 22.8786 158.482 29.444V135.251C158.437 136.068 158.572 136.886 158.88 137.65C159.188 138.414 159.662 139.107 160.269 139.684C160.877 140.26 161.605 140.707 162.406 140.995C163.207 141.283 164.063 141.406 164.917 141.355H179.996C184.759 141.355 184.759 164.578 179.996 164.578H100.006C95.7258 164.578 95.414 141.382 99.6941 141.382H119.706C120.543 141.49 121.395 141.412 122.194 141.152C122.994 140.893 123.72 140.46 124.316 139.887C124.912 139.314 125.361 138.617 125.628 137.85C125.896 137.084 125.974 136.268 125.857 135.468C125.857 131.805 125.857 70.3559 125.857 65.364C125.857 60.3721 123.674 58.8257 119.819 62.1356C115.463 66.3366 110.782 70.2181 105.817 73.7471C99.2973 78.0608 80.7878 61.7015 89.2914 54.6206Z" fill="white"/>
<path d="M51.802 60.1985C49.1772 58.6088 32.2786 55.3813 28.6776 56.1039C25.0766 56.8265 24.1004 72.9642 25.8359 74.7948C27.5713 76.6253 45.7064 79.612 48.9603 78.8894C52.2142 78.1669 54.5136 61.6919 51.802 60.1985Z" fill="#191919"/>
<path d="M48.3489 126C45.4582 126 29.7061 131.167 26.8155 133.589C23.9248 136.011 29.4757 150.175 31.717 150.936C33.9583 151.697 50.6949 145.469 53.2505 143.347C55.806 141.225 51.2396 126.161 48.3489 126Z" fill="#191919"/>
<path d="M45.159 95.638C50.3043 97.7835 50.4138 111.764 44.6773 113.509C38.9408 115.254 8.17836 115.607 3.75558 113.816C-0.667206 112.024 -1.9809 98.3729 4.23727 95.9445C10.4554 93.5161 39.5101 93.3039 45.159 95.638Z" fill="#191919"/>
<path d="M581.161 61.1985C583.79 59.6088 600.711 56.3813 604.317 57.1039C607.923 57.8265 608.901 73.9642 607.163 75.7948C605.425 77.6253 587.265 80.612 584.007 79.8894C580.748 79.1669 578.533 62.6919 581.161 61.1985Z" fill="#191919"/>
<path d="M585.653 127C588.543 127 604.294 132.167 607.185 134.589C610.075 137.011 604.525 151.175 602.283 151.936C600.042 152.697 583.307 146.469 580.752 144.347C578.196 142.225 582.741 127.161 585.653 127Z" fill="#191919"/>
<path d="M583.841 97.638C578.696 99.7835 578.586 113.764 584.323 115.509C590.059 117.254 620.822 117.607 625.244 115.816C629.667 114.024 630.981 100.373 624.763 97.9445C618.545 95.5161 589.49 95.3039 583.841 97.638Z" fill="#191919"/>
</svg>
