<?xml version='1.0' encoding='utf-8'?>
<svg xmlns="http://www.w3.org/2000/svg" id="Ebene_1" data-name="Ebene 1" viewBox="0 0 800 800"><defs><clipPath id="clip-path"><circle cx="400" cy="400" r="400" style="fill:none"/></clipPath><linearGradient id="Unbenannter_Verlauf_5" x1="456.7432" y1="359.9098" x2="168.6596" y2="647.9933" gradientUnits="userSpaceOnUse"><stop offset="0"/><stop offset="1" stop-opacity="0"/></linearGradient></defs><title>car</title><circle cx="400" cy="400" r="400" style="fill:#1c8adb"/><g style="clip-path:url(#clip-path)"><path d="M272.7343,785.401,524.8628,533.2725a20.0022,20.0022,0,0,0,7.3037-15.4738v-3.6682l28.2428-27.3393V399.9972a37.3025,37.3025,0,0,0-23.3519-34.5928L503.0955,281.621a31.047,31.047,0,0,0-28.8914-19.4631H325.796a31.0267,31.0267,0,0,0-23.3083,10.4758L20.894,554.2274C69.0817,686.9611,153.7374,762.9153,272.7343,785.401Z" style="opacity:0.42;fill:url(#Unbenannter_Verlauf_5)"/><path d="M537.0573,365.4044,503.0954,281.621a31.047,31.047,0,0,0-28.8914-19.4631H325.796a31.0469,31.0469,0,0,0-28.8911,19.4631l-33.9625,83.7835a37.3025,37.3025,0,0,0-23.3517,34.5927v86.7941h28.2428v31.0075a20.0433,20.0433,0,0,0,20.0433,20.0433h0A20.0433,20.0433,0,0,0,307.92,517.7988V486.7914H492.08v31.0075a20.0433,20.0433,0,0,0,20.0433,20.0433h0a20.0433,20.0433,0,0,0,20.0433-20.0433V486.7914h28.2428V399.9972A37.3025,37.3025,0,0,0,537.0573,365.4044ZM316.2663,289.4693a10.2406,10.2406,0,0,1,9.53-6.42H474.204a10.2413,10.2413,0,0,1,9.53,6.42l25.45,62.7836H290.8163ZM290.233,431.2246A20.6167,20.6167,0,1,1,310.85,410.6079,20.6167,20.6167,0,0,1,290.233,431.2246ZM489.15,410.6079a20.6166,20.6166,0,1,1,20.6166,20.6167A20.6166,20.6166,0,0,1,489.15,410.6079Z" style="fill:#fff"/></g></svg>