<?xml version="1.0" encoding="UTF-8"?>
<!DOCTYPE svg  PUBLIC '-//W3C//DTD SVG 1.1//EN'  'http://www.w3.org/Graphics/SVG/1.1/DTD/svg11.dtd'>
<svg width="330.3" height="377.27" enable-background="new 0 0 330.303 377.273" version="1.1" viewBox="0 0 330.303 377.273" xmlns="http://www.w3.org/2000/svg">
 <g fill="#131113">
  <path d="m148.64 99.66c-3.533-0.376-7.112-0.241-10.66-0.241-2.399 0.129-4.825-0.118-7.203 0.211-3.5 0.013-7.006 0.25-10.462 0.725-2.81 0.279-5.624 0.578-8.379 1.127-3.108 0.516-6.02 1.544-8.935 2.499-3.629 1.118-6.925 2.762-10.393 4.128-5.223 1.857-10.099 4.302-14.479 7.166-1.525 0.876-2.891 1.88-4.221 2.917-3.44 2.461-6.528 5.199-9.862 7.746-6.401 5.559-12.806 11.164-18.163 17.371-4.099 4.65-8.455 9.192-11.89 14.185-3.118 3.759-5.336 7.908-7.572 12.003-1.402 2.434-2.429 4.983-3.401 7.548-2.45 6.186-5.041 12.388-6.177 18.819-0.431 1.77-0.435 3.565-0.773 5.353-0.119 2.784-0.063 5.556-0.077 8.335 0.123 3.229-0.257 6.482 0.347 9.688 0.394 2.426 0.579 4.897 1.475 7.264 0.355 0.912 0.578 1.871 1.051 2.762-0.375-1.938-1.402-3.785-1.77-5.736-0.68-3.803-0.625-7.64-0.811-11.454-0.093-0.905 0.224-1.779 0.604-2.624 0.169-2.408-0.075-4.834 0.254-7.226-9e-3 -2.285 0.426-4.524 0.95-6.755 1.107-5.646 3.397-11.091 5.243-16.599 0.372-0.897 0.951-1.728 1.306-2.618 2.088-5.706 5.404-11.09 8.894-16.35 1.01-1.6 2.354-3.064 3.494-4.61 2.058-2.729 4.335-5.346 6.646-7.949 2.548-2.848 4.919-5.791 7.661-8.532 6.05-5.973 12.552-11.677 19.507-17.036 2.041-1.481 3.845-3.154 6.063-4.485 1.78-1.077 3.39-2.301 5.248-3.292 3.026-1.6 6.106-3.143 9.363-4.44 2.652-0.955 5.044-2.288 7.677-3.262 2.561-0.936 4.96-2.155 7.671-2.81 2.038-0.506 4.037-1.138 6.161-1.413 5.701-0.742 11.464-1.132 17.189-1.665 4.068-0.056 8.124-0.413 12.192-0.255 2.543 0.137 5.101 0.2 7.58 0.65 2.063 0.37 4.209 0.327 6.291 0.615 2.104 0.296 4.242 0.542 6.258 1.134 4.363 1.212 9.075 1.675 13.225 3.333 3.957 1.3 7.997 2.514 11.598 4.347 1.504 0.757 3.134 1.348 4.551 2.208 2.318 1.388 5.116 2.238 7.296 3.771 2.083 1.304 4.196 2.567 6.105 4.012 3.309 2.401 6.81 4.667 9.925 7.218 1.547 1.479 3.13 2.934 4.605 4.467 2.382 2.594 4.681 5.243 7.137 7.792 2.453 3.04 5.694 5.692 7.663 8.958 0.734 1.285 2.192 2.22 2.823 3.556 1.009 1.932 2.552 3.658 4.055 5.389 0.622 0.716 1.466 1.32 2.46 1.726 2.369 0.963 5.026 1.437 7.694 1.618 2.712 0.292 5.449 0.52 8.176 0.823 2.999 0.501 6.066 0.854 8.909 1.769 2.426 0.776 4.927 1.425 7.178 2.484 2.793 1.01 5.372 2.352 7.737 3.868 1.035 0.812 2.048 1.663 3.257 2.341 2.522 1.387 4.609 3.175 6.726 4.907 2.527 1.903 4.791 4.02 6.688 6.321 1.048 1.238 2.455 2.283 3.317 3.606 1.027 1.582 2.285 3.103 3.059 4.779 0.494 1.048 0.799 2.129 1.271 3.19 0.529 1.143 1.357 2.18 1.853 3.335 0.997 2.381 1.635 4.831 2.576 7.219 0.507 1.537 0.98 3.097 1.378 4.668 0.229 2.535 0.753 5.05 0.714 7.594 3e-3 1.588 0.385 3.163 0.169 4.744-0.22 1.34-0.109 2.695-0.503 4.005-0.236 0.884-0.503 1.749-0.675 2.637-0.613 3.803-2.451 7.503-5.329 10.617-2.947 3.216-7.676 5.142-12.494 6.207-1.789 0.364-3.519 0.93-5.355 1.148-2.468 0.31-4.726 1.353-7.284 1.251-0.233-1.199-0.731-2.331-1.261-3.456-0.441-0.878 0.349-1.816-0.037-2.695-0.776-1.817-2.776-3.177-3.313-5.074-0.43-1.36-1.513-2.514-2.142-3.824-0.411-0.895-1.26-1.588-1.906-2.374-1.757-2.139-4.353-3.757-7.021-5.172-1.475-0.786-2.835-1.694-4.415-2.357-3.012-1.302-5.805-3.075-9.263-3.633-1.664-0.305-3.29-0.728-4.954-1.027-1.99-0.347-3.896-1.006-5.953-1.106-3.887-0.203-7.809-0.039-11.663 0.431-2.603 0.545-5.259 0.892-7.832 1.513-4.432 0.862-8.679 2.353-12.304 4.516-1.229 0.731-2.627 1.369-3.455 2.417-0.942 1.141-2.18 2.104-3.339 3.114-3.342 3.363-6.046 7.128-7.859 11.129-0.569 1.602-1.24 3.198-1.278 4.862-0.084 1.433 0.05 2.861-0.018 4.302-1.201-0.105-2.404-0.237-3.604-0.105-2.836 0.278-5.653 0.646-8.502 0.841-3.121 0.291-6.269 0.406-9.388 0.748-1.905 0.207-3.84-0.018-5.758 0.147-2.281 0.194-4.581 0.287-6.866 0.481-3.104 0.313-6.257 0.017-9.375 0.263-1.369 0.084-2.742 0.079-4.115 0.104-0.646-3.438-2.265-6.7-4.306-9.78-1.225-1.682-1.82-3.65-3.48-5.142-1.699-1.534-3.06-3.262-4.936-4.669-3.102-2.375-6.334-4.715-10.174-6.38-3.71-1.602-7.733-2.764-11.895-3.423-1.834-0.261-3.666-0.658-5.542-0.638-3.744 0.064-7.586-0.189-11.198 0.689-2.54 0.845-5.269 1.275-7.77 2.196-3.963 1.398-7.728 3.14-11.276 5.083-4.36 2.775-8.116 6.151-10.863 9.975-0.448 0.601-0.925 1.209-1.061 1.911-0.477 2.775-1.606 5.44-2.564 8.137-0.317 0.93-0.317 1.918-0.389 2.882-6.941-1.284-14.209-1.936-20.647-4.471-2.696-0.799-4.947-2.209-7.364-3.38-2.281-0.879-3.916-2.442-5.56-3.896-1.872-2.01-3.904-3.938-5.522-6.076-1.576-1.799-2.315-3.92-3.765-5.767 3.364 6.869 8.843 13.296 16.583 17.687 2.464 1.28 5.244 2.116 7.892 3.105 4.763 1.63 9.934 2.345 14.961 3.271 0.622 0.27 1.369 0.354 1.944 0.662 1.048 1.382 0.883 3.046 1.196 4.568 0.764 5.108 2.298 10.287 5.826 14.703 2.717 3.705 6.612 6.818 10.956 9.413 4.902 3.186 10.702 5.565 16.875 6.92 4.563 1.115 9.388 1.041 14.107 0.912 7.205-0.261 13.986-2.567 19.931-5.593 3.109-1.598 5.827-3.579 8.442-5.62 2.366-1.783 4.431-3.811 6.176-5.974 1.91-2.375 2.684-5.146 3.017-7.884 0.591-3.346 0.27-6.743 0.261-10.115-0.033-0.696 0.537-1.284 0.813-1.923 1.292-0.021 2.568-0.198 3.835-0.367 2.962-0.11 5.925-0.236 8.877-0.38 1.653-0.278 3.359-0.025 5.004-0.338 1.292-0.187 2.624-9e-3 3.921-0.203 1.309-0.16 2.645-0.016 3.957-0.169 1.314-0.194 2.663-0.075 3.984-0.143 4.268-0.466 8.585-0.613 12.854-1.078 1.24-0.161 2.53-0.021 3.657 0.427 0.439 1.386 1.191 2.713 1.566 4.114 1.399 4.407 2.818 8.982 6.313 12.738 4.509 4.775 10.213 8.883 16.65 12.08 2.561 1.213 5.269 2.264 8.159 2.907 4.644 0.996 9.431 1.885 14.285 1.555 3.697-0.346 7.445-0.651 10.98-1.631 4.711-1.212 8.865-3.389 12.823-5.652 1.031-0.563 1.843-1.311 2.75-1.979 1.78-1.381 3.677-2.695 5.058-4.351 2.219-2.258 4.153-4.669 5.899-7.157 1.825-3.287 3.332-6.719 3.993-10.264 0.087-1.466 0.633-2.869 1.135-4.263 0.77-0.246 1.468-0.601 2.282-0.776 5.073-1.193 10.449-1.855 15.121-3.904 3.54-1.488 6.68-3.651 8.742-6.338 3.287-4.445 4.098-9.6 5.146-14.548 0.094-2.658 0.123-5.311-0.063-7.973-0.795-6.202-2.323-12.37-4.81-18.319-0.967-2.614-2.381-5.117-3.849-7.597-2.285-3.965-5.641-7.484-9.12-10.867-2.414-2.106-4.75-4.276-7.539-6.095-3.152-2.398-6.554-4.639-10.174-6.625-2.231-0.95-4.352-2.053-6.7-2.825-4.622-1.725-9.57-2.917-14.666-3.468-4.365-0.634-9.004-0.427-13.11-1.918-2.648-0.941-4.187-2.975-5.543-4.865-1.936-2.474-3.79-4.98-5.801-7.418-2.007-2.752-4.142-5.462-6.63-7.972-2.129-2.252-4.207-4.54-6.324-6.792-3.358-3.333-7.222-6.329-11.112-9.284-2.171-1.371-4.098-2.975-6.354-4.28-2.979-1.929-6.034-3.796-9.325-5.392-3.085-1.48-6.103-3.033-9.372-4.252-3.41-1.597-7.139-2.735-10.714-4.093-2.648-0.994-5.531-1.483-8.371-2.016-2.789-0.671-5.695-0.998-8.484-1.681-2.73-0.69-5.59-0.826-8.41-0.81z"/>
  <path d="m94.356 293.64c-6.688-1.457-13.031-4.06-18.206-7.439-5.248-3.144-9.325-6.655-12.012-10.327-3.452-4.326-5.531-9.515-6.528-16.173-0.102-0.524-0.161-1.045-0.224-1.58-0.029-0.254-0.058-0.542-0.102-0.785-0.824-0.161-1.66-0.3-2.492-0.448-4.195-0.735-8.53-1.501-12.814-2.967-0.693-0.253-1.382-0.499-2.088-0.753-2.074-0.726-4.221-1.494-6.435-2.644-2.632-1.491-5.083-3.219-7.33-5.188l-9.135-11.011c-0.591-1.019-1.149-2.045-1.673-3.11h0.017l-0.203-0.388c-0.456-0.854-0.718-1.665-0.959-2.383-0.088-0.263-0.177-0.524-0.266-0.77-0.824-2.18-1.125-4.284-1.42-6.32-0.076-0.528-0.147-1.065-0.224-1.521-0.456-2.445-0.418-4.799-0.388-7.076 0.013-1.022 0.03-2.05-0.013-3.215l3e-3 -2.469c-8e-3 -1.994-8e-3 -3.997 0.076-5.99l0.056-0.466c0.135-0.688 0.203-1.387 0.275-2.076 0.114-1.103 0.236-2.239 0.489-3.246 1.116-6.262 3.495-12.243 5.793-18.026l0.549-1.388c0.989-2.588 2.079-5.333 3.595-7.975l0.233-0.41c2.188-4.02 4.444-8.168 7.622-12.032 2.806-4.052 6.168-7.8 9.422-11.429 0.883-0.982 1.774-1.973 2.624-2.942 5.623-6.509 12.489-12.477 18.743-17.913 1.326-1.016 2.619-2.055 3.895-3.101 1.939-1.565 3.933-3.19 5.932-4.604 1.301-1.03 2.886-2.226 4.5-3.133 4.737-3.097 9.912-5.661 15.257-7.564 1.162-0.463 2.299-0.947 3.443-1.431 2.294-0.991 4.677-2.007 7.203-2.786l1.006-0.339c2.713-0.884 5.502-1.812 8.447-2.294 3.003-0.604 6.008-0.918 8.653-1.174 3.536-0.495 7.161-0.752 10.787-0.767 1.327-0.161 2.603-0.189 3.692-0.189l1.889 9e-3c0.558 0 1.116 0 1.66-0.038l4.71-0.02c1.897 0 4.149 0.024 6.448 0.263h0.084c3.726 0 6.557 0.278 9.181 0.916 1.311 0.324 2.65 0.555 3.993 0.791 1.501 0.265 3 0.529 4.226 0.832l0.649 0.129c2.789 0.512 5.671 1.046 8.502 2.109 1.128 0.424 2.269 0.826 3.417 1.236 2.452 0.871 4.989 1.774 7.441 2.915 2.822 1.06 5.424 2.326 7.943 3.556l1.621 0.79c3.693 1.772 7.026 3.853 9.617 5.543 1.449 0.839 2.716 1.743 3.946 2.615 0.832 0.587 1.664 1.186 2.553 1.743l0.285 0.201c4.057 3.082 7.985 6.132 11.594 9.722 0.964 1.033 1.922 2.062 2.883 3.095 1.135 1.229 2.276 2.474 3.379 3.629 2.283 2.313 4.438 4.899 6.85 8.225 1.423 1.717 2.776 3.483 4.124 5.237l1.838 2.383c1.174 1.631 2.183 2.919 3.621 3.443 2.167 0.789 4.758 0.989 7.495 1.207 1.588 0.126 3.177 0.25 4.549 0.46 5.383 0.581 10.686 1.836 15.604 3.675 1.838 0.605 3.478 1.342 5.062 2.063 0.658 0.301 1.326 0.61 1.994 0.897l0.375 0.178c3.633 1.992 7.19 4.301 10.585 6.876 2.514 1.654 4.63 3.514 6.671 5.311l1.327 1.177c3.564 3.448 7.215 7.261 9.743 11.641 1.414 2.378 3.012 5.176 4.059 8.02 2.461 5.891 4.157 12.334 5.059 19.364 0.206 2.983 0.151 5.86 0.074 8.299l-0.366 1.994c-0.958 4.605-2.036 9.823-5.493 14.492-2.375 3.101-5.965 5.721-10.325 7.571-3.807 1.668-7.842 2.479-11.753 3.266-1.37 0.275-2.739 0.553-4.129 0.878-0.194 0.621-0.342 1.205-0.377 1.729l-0.042 0.381c-0.649 3.481-2.078 7.175-4.368 11.288l-0.195 0.306c-2.002 2.855-4.021 5.314-6.185 7.533-1.394 1.635-3.114 2.945-4.635 4.102l-0.998 0.771c-0.236 0.165-0.464 0.349-0.696 0.522-0.705 0.567-1.509 1.191-2.459 1.702-4.142 2.38-8.699 4.758-13.83 6.073-3.656 1.018-7.371 1.369-10.963 1.711l-0.929 0.084c-5.488 0.385-10.97-0.672-15.608-1.66-2.902-0.643-5.877-1.698-9.169-3.257-7.018-3.482-13.004-7.848-17.82-12.951-3.996-4.284-5.614-9.384-7.039-13.87l-0.102-0.343c-0.169-0.603-0.413-1.183-0.664-1.766h-0.042c-2.196 0.24-4.411 0.4-6.629 0.557-2.074 0.156-4.152 0.288-6.476 0.547-0.517 0.023-1.036 0.023-1.56 0.023v-1.051c-0.102 8e-3 -0.212 0.017-0.317 0.032l-0.117 1.019c-0.533 0-1.063-3e-3 -1.687 0.09-0.823 0.105-1.66 0.109-2.498 0.109-0.478 0.018-0.967 0-1.342 0.047-1.007 0.147-1.91 0.156-2.696 0.147-0.406 0-0.804-9e-3 -1.039 0.029-1.243 0.229-2.38 0.25-3.377 0.262-0.649 9e-3 -1.267 9e-3 -1.711 0.08l-0.549 0.067c-2.897 0.138-5.8 0.255-8.703 0.365-0.292 0.042-0.592 0.085-0.904 0.127 0.012 0.345 0.021 0.693 0.029 1.038 0.067 2.624 0.139 5.356-0.326 8.003-0.502 3.987-1.697 7.038-3.765 9.59-1.994 2.493-4.305 4.72-6.819 6.617-2.696 2.096-5.67 4.284-9.1 6.043-7.441 3.776-14.78 5.821-21.861 6.083-1.432 0.029-2.87 0.063-4.311 0.063-4.45 0.01-7.85-0.34-10.874-1.08zm48.994-40.54c-0.489-2.627-1.732-5.416-3.713-8.407-0.532-0.739-0.976-1.508-1.408-2.295-0.511-0.93-0.95-1.724-1.546-2.251-0.721-0.66-1.394-1.335-2.057-2.02-0.875-0.905-1.702-1.758-2.629-2.451-2.784-2.138-5.792-4.347-9.277-5.855-3.401-1.471-7.042-2.518-10.753-3.102-0.46-0.067-0.934-0.14-1.399-0.219-1.187-0.195-2.303-0.373-3.401-0.373h-0.013c-0.574 0.01-1.153 0.018-1.735 0.018l-1.509-8e-3c-2.396 0-4.714 0.038-6.773 0.515-1.208 0.397-2.468 0.71-3.726 1.026-1.327 0.334-2.59 0.639-3.765 1.078-3.485 1.233-7.017 2.822-10.508 4.72-3.988 2.563-7.325 5.644-9.802 9.07-0.123 0.161-0.27 0.338-0.372 0.507-0.439 2.451-1.272 4.707-2.087 6.896l-0.575 1.572c-0.114 0.35-0.147 0.912-0.181 1.504l-0.317 4.767-0.152-0.03c0.021 0.231 0.059 0.486 0.123 0.812 0.833 5.607 2.458 9.751 5.192 13.194 2.181 2.975 5.481 5.784 9.946 8.454 4.445 2.903 9.777 5.083 15.545 6.352 2.39 0.582 5.107 0.853 8.812 0.853 1.354 0 2.71-0.042 4.016-0.08 5.702-0.198 11.766-1.922 18.035-5.107 2.654-1.348 5.025-3.052 7.826-5.232 2.041-1.541 3.887-3.332 5.505-5.326 1.213-1.501 1.931-3.462 2.289-6.317 0.377-2.172 0.321-4.444 0.263-6.865-0.026-0.896-0.051-1.779-0.051-2.515-0.039-0.776 0.135-1.461 0.358-2.02l-0.17-0.86zm135.2 0.47c0.097-1.136 0.372-2.192 0.688-3.176l-0.257-1.298c-0.164-0.803-0.523-1.651-0.972-2.61-0.634-1.256-0.527-2.408-0.372-3.3-0.202-0.301-0.502-0.659-0.79-1.015-0.861-1.019-1.931-2.315-2.399-3.942-0.106-0.362-0.44-0.873-0.798-1.428-0.423-0.643-0.834-1.292-1.167-1.985-0.076-0.135-0.402-0.486-0.616-0.71-0.284-0.305-0.563-0.601-0.819-0.917-1.446-1.745-3.866-3.15-5.836-4.195-0.517-0.274-1.015-0.558-1.513-0.858-0.879-0.502-1.697-0.983-2.568-1.348-0.866-0.363-1.719-0.785-2.573-1.199-1.917-0.93-3.752-1.817-5.717-2.13-0.866-0.169-1.719-0.351-2.573-0.532-0.79-0.183-1.57-0.354-2.348-0.489-0.79-0.136-1.564-0.321-2.346-0.499-1.095-0.263-2.122-0.498-3.047-0.545-3.484-0.182-7.019-0.056-10.676 0.38-1.023 0.198-2.063 0.385-3.102 0.58-1.479 0.252-2.953 0.51-4.598 0.898-4.068 0.794-7.828 2.167-10.865 3.977l-0.871 0.489c-0.558 0.321-1.323 0.761-1.563 1.057-0.964 1.174-2.117 2.146-3.123 2.996l-0.558 0.478c-3.059 3.117-5.398 6.431-6.967 9.86l-0.161 0.457c-0.438 1.182-0.85 2.298-0.874 3.371-0.042 0.668-0.021 1.335-0.012 2.003 0.012 0.743 0.024 1.487-6e-3 2.231l-0.27 2.335c0.312 0.723 0.642 1.539 0.895 2.464 1.327 4.157 2.57 8.104 5.448 11.179 4.089 4.344 9.454 8.24 15.42 11.214 2.623 1.233 4.99 2.079 7.184 2.574 3.617 0.763 7.461 1.516 11.209 1.516 0.595 0 1.196-0.018 1.673-0.042l0.812-0.084c3.341-0.314 6.493-0.609 9.456-1.428 3.966-1.024 7.554-2.823 11.813-5.266 0.414-0.22 0.861-0.564 1.376-0.979 0.297-0.229 0.594-0.466 0.816-0.625l0.98-0.753c1.351-1.03 2.615-1.999 3.48-3.026l0.207-0.228c1.863-1.9 3.638-4.038 5.4-6.531 1.84-3.31 2.98-6.23 3.51-8.91zm-173.14-34.73c0.535 0 1.069-8e-3 1.841-0.013 1.747 0 3.365 0.267 4.792 0.486l1.311 0.202c4.52 0.723 8.88 1.978 12.976 3.739 4.384 1.901 8.01 4.559 11.03 6.875 1.39 1.048 2.519 2.209 3.512 3.228 0.552 0.57 1.098 1.141 1.685 1.665 1.525 1.359 2.387 2.919 3.08 4.165 0.292 0.541 0.579 1.077 1.018 1.699 1.834 2.745 3.157 5.349 4.014 7.9 0.17-4e-3 0.33-0.017 0.492-0.025 1.271-0.098 2.546-0.122 3.822-0.122l1.885 4e-3c1.179 0 2.412-0.018 3.645-0.136 1.188-0.102 2.38-0.186 3.571-0.252 1.103-0.068 2.201-0.136 3.278-0.229 0.757-0.066 1.505-0.084 2.265-0.084l1.762 0.013c0.541 0 1.082-0.013 1.631-0.063 1.801-0.203 3.62-0.329 5.441-0.456 1.34-0.093 2.683-0.179 4.141-0.321 1.835-0.118 3.651-0.313 5.473-0.516 0.949-0.109 1.896-0.207 2.814-0.301 3e-3 -0.223 0.015-0.427 0.029-0.629 0.036-2.011 0.692-3.793 1.275-5.366l0.291-0.794c1.935-4.284 4.821-8.383 8.586-12.181l0.946-0.823c0.835-0.71 1.63-1.383 2.111-1.969 1.129-1.434 2.638-2.291 3.842-2.958l0.7-0.415c3.893-2.314 8.641-4.064 13.533-5.01 1.624-0.382 3.27-0.677 4.927-0.964 1.015-0.182 2.035-0.372 3.051-0.574l0.368-0.06c4.241-0.516 8.434-0.668 12.446-0.452 1.749 0.08 3.309 0.452 4.682 0.766 0.611 0.15 1.225 0.295 1.867 0.404 0.909 0.161 1.805 0.355 2.699 0.563 0.761 0.16 1.509 0.324 2.182 0.451 3.171 0.524 5.783 1.783 8.085 2.902 0.745 0.359 1.488 0.719 2.189 1.022 1.322 0.553 2.477 1.221 3.499 1.813 0.43 0.237 0.856 0.487 1.274 0.719 2.607 1.377 5.904 3.329 8.234 6.152 0.158 0.177 0.327 0.354 0.498 0.53 0.609 0.66 1.369 1.472 1.882 2.57 0.19 0.396 0.456 0.777 0.701 1.158 0.542 0.827 1.218 1.867 1.632 3.202 0.097 0.329 0.607 0.946 1.063 1.49 0.693 0.834 1.56 1.864 2.107 3.144 0.521 1.213 0.398 2.295 0.237 3.145 0.038 0.088 0.081 0.168 0.119 0.258 0.131-0.038 0.271-0.068 0.409-0.11 1.005-0.244 2.143-0.533 3.393-0.68 0.857-0.106 1.788-0.342 2.776-0.588 0.738-0.182 1.486-0.363 2.155-0.499 3.273-0.727 7.719-2.18 10.291-4.977 2.393-2.577 3.925-5.628 4.462-8.928 0.147-0.773 0.359-1.537 0.57-2.303l0.183-0.634c0.127-0.439 0.165-1.018 0.207-1.702 0.042-0.625 0.093-1.272 0.187-1.829 0.084-0.588 0.012-1.323-0.063-2.156-0.069-0.704-0.137-1.418-0.137-2.17 0.018-1.438-0.178-2.933-0.379-4.505-0.111-0.836-0.22-1.665-0.306-2.493-0.325-1.275-0.729-2.641-1.189-4.038-0.441-1.134-0.829-2.282-1.209-3.432-0.406-1.233-0.82-2.475-1.318-3.682-0.195-0.452-0.465-0.872-0.728-1.311-0.394-0.638-0.78-1.283-1.09-1.953-0.255-0.576-0.482-1.158-0.696-1.745-0.17-0.464-0.339-0.94-0.579-1.433-0.39-0.842-1.015-1.736-1.675-2.688-0.396-0.545-0.775-1.099-1.127-1.642-0.3-0.455-0.858-0.989-1.437-1.553-0.559-0.549-1.111-1.096-1.644-1.717-1.65-2.02-3.688-3.934-6.165-5.811l-0.57-0.471c-1.832-1.507-3.564-2.94-5.555-4.026-1.327-0.743-2.405-1.601-3.356-2.351l-0.272-0.224c-2.273-1.441-4.476-2.519-6.711-3.336l-0.38-0.154c-1.486-0.693-3.195-1.212-5.003-1.765l-1.659-0.506c-1.89-0.617-4.015-0.949-6.257-1.299l-1.751-0.283c-1.372-0.159-2.759-0.294-4.141-0.432-1.343-0.116-2.69-0.249-3.827-0.374-3.431-0.23-6.493-0.883-9.102-1.943-1.598-0.653-2.982-1.625-4.008-2.81l-0.234-0.264c-1.546-1.783-3.15-3.621-4.362-5.955-0.099-0.195-0.516-0.638-0.825-0.958-0.587-0.614-1.306-1.371-1.838-2.283-1.005-1.671-2.519-3.266-4.119-4.944-1.057-1.106-2.143-2.247-3.152-3.489-1.588-1.65-3.113-3.336-4.631-5.028-0.815-0.908-1.625-1.812-2.391-2.643-1.006-1.056-2.083-2.068-3.155-3.071l-1.222-1.17c-1.919-1.565-3.997-3.025-6.194-4.553-1.153-0.812-2.308-1.616-3.481-2.474-1.504-1.136-3.168-2.163-4.93-3.257l-1.09-0.681c-0.889-0.638-2.09-1.185-3.355-1.753-1.208-0.553-2.451-1.123-3.673-1.851-0.663-0.407-1.486-0.77-2.354-1.164-0.648-0.281-1.297-0.572-1.948-0.902-2.906-1.481-6.197-2.54-9.674-3.663l-1.581-0.511c-2.18-0.883-4.681-1.401-7.329-1.946-1.771-0.366-3.596-0.737-5.481-1.257-1.415-0.414-3.024-0.64-4.728-0.885l-0.848-0.114c-0.816-0.11-1.636-0.161-2.455-0.213-1.289-0.091-2.629-0.169-4.032-0.438-1.787-0.318-3.704-0.412-5.754-0.511l-1.187-0.055c-2.425-0.097-4.854 0.011-7.28 0.107-1.496 0.063-2.991 0.126-4.482 0.15-1.58 0.14-3.156 0.279-4.729 0.414-3.996 0.344-8.124 0.691-12.122 1.213-1.279 0.161-2.594 0.509-3.993 0.885-0.547 0.148-1.093 0.289-1.673 0.427-1.465 0.361-2.933 0.959-4.474 1.599-0.9 0.369-1.787 0.735-2.692 1.064-1.187 0.439-2.324 0.959-3.456 1.475-1.335 0.614-2.729 1.252-4.119 1.747-3.249 1.291-6.343 2.865-8.931 4.24-0.943 0.503-1.864 1.115-2.843 1.756-0.72 0.483-1.454 0.958-2.215 1.421-1.17 0.71-2.269 1.572-3.435 2.511-0.764 0.598-1.529 1.204-2.235 1.716-6.697 5.161-13.136 10.782-19.127 16.704-1.787 1.779-3.401 3.644-5.112 5.628-0.79 0.91-1.584 1.832-2.391 2.739-2.159 2.417-4.441 5.039-6.436 7.679-0.464 0.637-0.966 1.257-1.465 1.876-0.709 0.88-1.373 1.704-1.927 2.583-3.77 5.689-6.65 10.518-8.552 15.706-0.237 0.6-0.549 1.181-0.866 1.76-0.165 0.307-0.342 0.604-0.384 0.693-0.511 1.523-1.057 3.047-1.602 4.567-1.423 3.991-2.771 7.762-3.557 11.75-0.452 1.926-0.871 3.984-0.858 5.995l-0.038 0.447c-0.165 1.175-0.161 2.426-0.152 3.752 4e-3 1.091 4e-3 2.176-0.076 3.263l-0.043 0.582-0.24 0.541c-0.305 0.668-0.333 0.887-0.313 1.107 0.042 0.955 0.071 1.918 0.105 2.873 0.088 2.855 0.181 5.543 0.659 8.162 0.127 0.702 0.426 1.505 0.735 2.357 0.313 0.838 0.659 1.771 0.896 2.785 0.667 0.921 1.195 1.838 1.665 2.675 0.536 0.938 1.043 1.829 1.656 2.525l0.165 0.198c1.031 1.366 2.293 2.675 3.632 4.07 0.516 0.523 1.023 1.056 1.518 1.588l0.295 0.262c1.335 1.192 2.489 2.215 3.849 2.742l0.347 0.14c0.701 0.347 1.39 0.705 2.079 1.073 1.588 0.819 3.08 1.602 4.634 2.063l0.339 0.118c4.347 1.714 9.21 2.483 14.356 3.315 0.397 0.063 0.798 0.132 1.192 0.191l0.494-1.361c0.756-2.062 1.474-3.997 1.816-5.949 0.267-1.419 1.069-2.5 1.657-3.273 2.969-4.133 6.979-7.821 11.927-10.977l0.241-0.14c3.934-2.172 7.943-3.964 11.863-5.357 1.573-0.575 3.127-0.963 4.635-1.34 1.095-0.274 2.193-0.545 3.254-0.899l0.372-0.106c3.083-0.748 6.193-0.814 9.112-0.814l1.49-0.03z"/>
 </g>
 <path d="m142.4 100.16c-4.068-0.157-8.124 0.2-12.192 0.255-5.725 0.532-11.488 0.923-17.189 1.665-2.124 0.274-4.123 0.906-6.161 1.413-2.711 0.655-5.11 1.874-7.671 2.81-2.633 0.974-5.024 2.307-7.677 3.262-3.257 1.297-6.337 2.84-9.363 4.44-1.858 0.991-3.468 2.214-5.248 3.292-2.218 1.332-4.022 3.004-6.063 4.485-6.955 5.359-13.457 11.063-19.507 17.036-2.742 2.741-5.112 5.685-7.661 8.532-2.311 2.603-4.587 5.22-6.646 7.949-1.141 1.546-2.484 3.01-3.494 4.61-3.49 5.26-6.806 10.644-8.894 16.35-0.354 0.89-0.934 1.72-1.306 2.618-1.846 5.507-4.136 10.953-5.243 16.599-0.524 2.23-0.959 4.47-0.95 6.755-0.329 2.392-0.084 4.817-0.254 7.226 1.513 0.085 3.047 0.05 4.538 0.271 1.631 0.296 2.843 1.242 4.141 2.002 2.007 1.184 3.814 2.565 5.721 3.845 1.698 1.133 3.081 2.51 4.719 3.681 2.813 2.032 5.433 4.226 7.956 6.468 2.382 2.113 3.384 5.021 2.953 7.77-0.278 1.628-1.437 3.06-2.505 4.454-1.191 1.56-3.131 2.64-4.85 3.837-1.847 1.268-3.723 2.496-5.607 3.722 2.417 1.171 4.668 2.581 7.364 3.38 6.438 2.535 13.707 3.187 20.647 4.471 0.072-0.964 0.072-1.952 0.389-2.882 0.958-2.696 2.087-5.361 2.564-8.137 0.135-0.702 0.613-1.311 1.061-1.911 2.747-3.823 6.502-7.199 10.863-9.975 3.549-1.943 7.313-3.685 11.276-5.083 2.501-0.921 5.23-1.352 7.77-2.196 3.612-0.879 7.454-0.625 11.198-0.689 1.876-0.021 3.708 0.377 5.542 0.638 4.161 0.659 8.184 1.821 11.895 3.423 3.84 1.665 7.072 4.005 10.174 6.38 1.876 1.407 3.236 3.135 4.936 4.669 1.66 1.491 2.255 3.46 3.48 5.142 2.041 3.08 3.659 6.342 4.306 9.78 1.374-0.025 2.746-0.021 4.115-0.104 3.119-0.246 6.271 0.051 9.375-0.263 2.285-0.194 4.584-0.287 6.866-0.481 1.918-0.165 3.853 0.06 5.758-0.147 3.119-0.342 6.267-0.457 9.388-0.748 2.849-0.194 5.666-0.563 8.502-0.841 1.199-0.132 2.402 0 3.604 0.105 0.067-1.44-0.066-2.869 0.018-4.302 0.038-1.664 0.709-3.261 1.278-4.862 1.813-4.001 4.518-7.766 7.859-11.129 1.159-1.01 2.396-1.974 3.339-3.114 0.828-1.048 2.226-1.686 3.455-2.417 3.625-2.163 7.872-3.653 12.304-4.516 2.573-0.621 5.229-0.968 7.832-1.513 3.854-0.47 7.776-0.634 11.663-0.431 2.058 0.101 3.963 0.76 5.953 1.106 1.664 0.3 3.29 0.723 4.954 1.027 3.458 0.558 6.251 2.331 9.263 3.633 1.58 0.663 2.94 1.571 4.415 2.357 2.669 1.415 5.265 3.033 7.021 5.172 0.646 0.786 1.495 1.479 1.906 2.374 0.629 1.311 1.712 2.464 2.142 3.824 0.536 1.897 2.536 3.257 3.313 5.074 0.386 0.879-0.404 1.817 0.037 2.695 0.529 1.125 1.027 2.257 1.261 3.456 2.559 0.102 4.816-0.941 7.284-1.251 1.837-0.219 3.566-0.784 5.355-1.148 4.818-1.065 9.547-2.991 12.494-6.207 2.878-3.114 4.716-6.814 5.329-10.617 0.172-0.888 0.438-1.753 0.675-2.637 0.394-1.31 0.283-2.665 0.503-4.005 0.216-1.581-0.166-3.156-0.169-4.744 0.039-2.544-0.485-5.059-0.714-7.594-0.397-1.571-0.871-3.131-1.378-4.668-0.941-2.388-1.579-4.838-2.576-7.219-0.495-1.155-1.323-2.192-1.853-3.335-0.472-1.061-0.776-2.143-1.271-3.19-0.773-1.676-2.031-3.197-3.059-4.779-0.862-1.323-2.27-2.368-3.317-3.606-1.897-2.301-4.161-4.417-6.688-6.321-2.116-1.732-4.203-3.52-6.726-4.907-1.209-0.678-2.222-1.529-3.257-2.341-2.365-1.516-4.944-2.858-7.737-3.868-2.251-1.059-4.752-1.708-7.178-2.484-2.843-0.915-5.91-1.268-8.909-1.769-2.727-0.304-5.464-0.532-8.176-0.823-2.668-0.182-5.325-0.655-7.694-1.618-0.994-0.406-1.838-1.01-2.46-1.726-1.503-1.73-3.046-3.457-4.055-5.389-0.631-1.336-2.089-2.271-2.823-3.556-1.969-3.266-5.21-5.918-7.663-8.958-2.456-2.549-4.755-5.198-7.137-7.792-1.476-1.534-3.059-2.988-4.605-4.467-3.115-2.552-6.616-4.817-9.925-7.218-1.909-1.445-4.022-2.708-6.105-4.012-2.18-1.533-4.978-2.383-7.296-3.771-1.417-0.86-3.047-1.451-4.551-2.208-3.601-1.833-7.641-3.047-11.598-4.347-4.149-1.658-8.861-2.121-13.225-3.333-2.017-0.592-4.154-0.838-6.258-1.134-2.082-0.288-4.228-0.245-6.291-0.615-2.47-0.44-5.02-0.51-7.57-0.64z" fill="#095888"/>
 <g fill="#f0eeee">
  <path d="m128.36 117.62c-3.333-0.311-6.683 0.129-10.013 0.182-6.727 1.012-13.158 2.918-19.418 5.032-1.653 0.625-3.356 1.173-4.94 1.897-3.489 1.756-7.145 3.323-10.58 5.144-1.301 0.704-2.813 1.137-3.996 1.969-1.64 1.168-3.313 2.323-4.859 3.582-1.229 0.958-2.607 1.834-3.574 2.975-1.741 2.054-4.061 3.759-5.928 5.734-0.934 1.605-1.778 3.257-2.551 4.922-0.605 1.554-1.648 2.992-2.084 4.584-0.291 1.043-0.871 2.051-0.811 3.123 0.042 1.037 0.846 1.908 1.53 2.756 0.827 1.014 1.981 1.84 3.181 2.583 1.428 0.884 3.346 0.911 5.041 1.255 2.26 0.469 4.601 0.619 6.87 1.056 3.709 0.62 7.533 0.585 11.285 0.955 3.423 0.573 6.954 0.462 10.394 0.918 3.122 0.138 6.236 0.277 9.349 0.381 1.467 0.208 2.938 0.046 4.398 0.027 4.437 0.488 8.819-0.42 13.221-0.617 2.002-0.048 4.098-0.644 5.109-2.057 0.844-1.272 2.205-2.296 2.981-3.59 0.604-1.548 0.988-3.158 1.327-4.757 0.583-4.633 0.63-9.327 1.792-13.898 0.258-1.324 0.756-2.61 0.856-3.953 0.128-1.605 0.567-3.2 0.58-4.806 0.081-1.914-0.021-3.826 0-5.727 0.017-1.357-0.177-2.747-0.853-4.012-0.816-1.428-2.197-2.589-3.527-3.741-1.23-1.04-2.98-1.68-4.79-1.9z"/>
  <path d="m166.03 118.91c-1.736-0.052-3.549-0.127-5.188 0.405-1.508 0.503-2.982 1.141-4.144 2.047-1.446 1.303-2.696 2.871-2.873 4.616-0.089 1.055-0.629 2.068-0.566 3.137 0.093 2.831-0.166 5.657-0.063 8.484 0.081 1.925-0.672 3.801-0.571 5.728 0.114 4.358-0.195 8.712 0.126 13.072 0.393 2.022 0.609 4.141 1.808 5.996 0.978 1.383 2.435 2.56 4.171 3.4 1.868 0.808 3.835 1.589 6.008 1.726 2.593 0.38 5.256 0.408 7.842 0.805 1.513 0.182 3.041 0.055 4.558 0.072 2.768 0.015 5.544 0.051 8.312 0.084 2.962 0.25 5.939 0.081 8.906 0.138 2.678-0.025 5.366 0.126 8.032-0.12 1.414-0.15 2.834-6e-3 4.237 0.105 1.951 0.044 3.896 0.025 5.844 0.108 1.837 0.139 3.722 0.331 5.53-0.02 2.18-0.395 4.453-0.765 6.273-1.819 2.46-1.404 3.91-3.774 3.837-6.135 0.046-1.529-0.406-3.033-0.659-4.54-0.094-0.931-0.934-1.63-1.475-2.417-1.268-1.952-2.449-3.938-3.635-5.923-1.381-2.185-3.399-4.057-5.353-5.954-3.853-4.096-8.927-7.37-14.078-10.453-1.771-1.122-3.789-1.957-5.67-2.962-1.56-0.851-3.236-1.586-5.048-2.049-3.866-1.048-7.04-3.173-10.897-4.244-3.08-1.306-6.493-2.07-9.925-2.615-1.74-0.35-3.51-0.68-5.33-0.71z"/>
 </g>
 <path d="m146.16 182.06c-3.266-0.245-6.561-0.074-9.802 0.283-2.276 0.239-4.549 0.745-6.498 1.719-1.826 0.894-2.629 2.764-1.978 4.341 0.507 1.228 1.648 2.289 3.077 2.937 2.078 0.728 4.351 1.229 6.662 1.216 2.468-0.057 4.978 0.113 7.398-0.36 2.167-0.453 4.488-0.78 6.28-1.897 1.777-1 3.354-2.658 2.831-4.437-0.36-0.852-0.968-1.672-1.818-2.282-1.841-0.912-4.005-1.338-6.152-1.52z" fill="#131113" stroke="#131113" stroke-miterlimit="10"/>
 <path d="m280.28 189.08c-1.883-0.359-3.844-0.264-5.767-0.287-1.25-0.034-2.759 0.262-3.321 1.24-1.634 2.578-2.78 5.339-3.528 8.144-0.27 1.575-0.146 3.165-0.107 4.754 0 1.614 1.098 3.05 1.489 4.597 0.57 2.708 2.738 4.959 4.555 7.241 3.086-0.346 6.229-0.633 9.119-1.589 1.786-0.396 3.435-1.11 4.828-2.053 0.621-0.52 1.161-1.09 1.774-1.614 1.365-1.191 2.029-2.737 2.849-4.165 0.735-1.276 0.6-2.687 0.658-4.04-0.033-1.014 0.105-2.058-0.21-3.042-0.728-1.115-1.268-2.298-2.051-3.398-1.444-1.528-2.853-3.175-5.032-4.131-1.65-0.71-3.38-1.37-5.26-1.65z" fill="#f0eeee"/>
 <path d="m22.04 209.72c-1.487-0.221-3.013-0.186-4.529-0.271-0.381 0.845-0.693 1.719-0.609 2.624 0.183 3.814 0.14 7.651 0.82 11.454 0.36 1.951 1.391 3.798 1.758 5.736 0.063 0.128 0.189 0.368 0.249 0.495 1.44 1.847 2.18 3.968 3.756 5.767 1.627 2.138 3.658 4.066 5.522 6.076 1.647 1.453 3.278 3.017 5.564 3.896 1.888-1.226 3.772-2.454 5.611-3.722 1.714-1.197 3.663-2.277 4.841-3.837 1.082-1.395 2.235-2.826 2.51-4.454 0.431-2.749-0.566-5.656-2.957-7.77-2.523-2.242-5.134-4.436-7.957-6.468-1.639-1.171-3.021-2.548-4.714-3.681-1.906-1.279-3.714-2.661-5.722-3.845-1.287-0.78-2.495-1.72-4.143-2.02z" fill="#131113" stroke="#131113" stroke-miterlimit="10"/>
 <g fill="#f0eeee">
  <path d="m243.06 237.86c-1.847 0.028-3.761-0.596-5.553-0.034-1.403 0.389-2.867 0.578-4.318 0.849-1.984 0.533-3.737 1.453-5.415 2.404-1.149 0.875-2.261 1.788-3.098 2.844-0.607 0.803-1.706 1.33-2.12 2.222-1.023 2.083-1.648 4.281-2.143 6.481-0.232 2.721 0.693 5.477 2.362 7.876 1.584 2.182 3.632 4.284 6.463 5.58 1.915 0.934 3.854 1.957 6.106 2.287 2.26 0.304 4.542 0.523 6.824 0.613 1.766 0.096 3.341-0.598 5.005-0.884 1.713-0.32 3.274-0.989 4.767-1.699 1.356-0.607 2.293-1.626 3.305-2.534 2.045-1.767 3.181-4.013 4.236-6.211 0.735-1.563 0.85-3.262 1.162-4.893 0.147-0.757 0.047-1.513-0.169-2.247-0.435-1.56-1.005-3.118-1.965-4.551-1.49-2.176-3.759-3.935-6.134-5.556-0.909-0.566-1.994-0.904-2.979-1.378-1.89-0.91-4.16-1.24-6.35-1.17z"/>
  <path d="m105.47 243.05c-2.708-0.283-5.527-0.334-8.181 0.223-0.904 0.127-1.846 0.144-2.7 0.453-2.095 0.696-4.144 1.601-5.698 2.911-1.513 1.031-2.341 2.467-3.415 3.739-0.841 0.976-1.199 2.111-1.64 3.211-1.685 3.168-1.004 6.718 0 9.94 1.666 2.156 3.179 4.429 5.536 6.206 0.892 0.867 2.134 1.435 3.356 2.009 3.215 1.689 7.245 2.17 11.072 2.104 2.257 0.03 4.461-0.447 6.71-0.507 2.506-0.945 4.25-2.771 6.781-3.692 0.634-0.697 1.444-1.276 2.171-1.909 0.735-0.931 1.831-1.675 2.414-2.685 0.708-1.11 1.156-2.311 1.63-3.497 0.096-1.369 0.026-2.744 0.089-4.104 0.139-1.514-1.113-2.796-1.69-4.191-0.414-1.021-1.261-1.876-1.939-2.788-1.936-3.202-5.852-5.438-10.027-6.692-1.4-0.52-2.94-0.63-4.46-0.72z"/>
 </g>
 <path d="m260.29 248.77c-0.485-0.964-0.689-2.1-1.779-2.81 0.96 1.433 1.53 2.991 1.965 4.551 0.216 0.734 0.316 1.49 0.169 2.247-0.313 1.631-0.427 3.329-1.162 4.893-1.056 2.198-2.191 4.444-4.236 6.211-1.012 0.908-1.948 1.927-3.305 2.534-1.492 0.71-3.054 1.379-4.767 1.699-1.664 0.286-3.239 0.979-5.005 0.884-2.282-0.09-4.564-0.31-6.824-0.613 1.615 0.676 3.493 0.663 5.269 0.802 1.39 0.069 2.826 0.31 4.179-0.045 0.908-0.216 1.805-0.444 2.729-0.612 1.563-0.255 2.96-0.889 4.329-1.505 1.18-0.513 1.897-1.437 2.908-2.104 1.077-0.718 1.951-1.589 2.751-2.486 0.934-1.174 1.393-2.5 2.02-3.776 0.376-0.895 1.22-1.626 1.664-2.5 0.258-1.044 0.161-2.113 0.123-3.169 0.24-6e-3 0.474-6e-3 0.714-6e-3 -0.84-1.31-1.02-2.8-1.73-4.18z" fill="#353663"/>
</svg>
