<?xml version="1.0" encoding="UTF-8"?>
<svg width="699px" height="500px" viewBox="0 0 699 500" version="1.1" xmlns="http://www.w3.org/2000/svg" xmlns:xlink="http://www.w3.org/1999/xlink">
    <!-- Generator: Sketch 61 (89581) - https://sketch.com -->
    <title>undraw_teaching_f1cm (1)</title>
    <desc>Created with Sketch.</desc>
    <g id="Page-1" stroke="none" stroke-width="1" fill="none" fill-rule="evenodd">
        <g id="For-Educators" transform="translate(-714.000000, -189.000000)" fill-rule="nonzero">
            <g id="undraw_teaching_f1cm-(1)" transform="translate(714.000000, 189.000000)">
                <rect id="Rectangle" fill="#2185D0" opacity="0.1" x="143.204871" y="86" width="63.0902579" height="17" rx="4.90105541"></rect>
                <rect id="Rectangle" fill="#2185D0" opacity="0.1" x="209.299427" y="103" width="63.0902579" height="17" rx="4.90105541"></rect>
                <rect id="Rectangle" fill="#2185D0" opacity="0.1" x="275.393983" y="120" width="63.0902579" height="17" rx="4.90105541"></rect>
                <rect id="Rectangle" fill="#2185D0" opacity="0.1" x="143.204871" y="60" width="63.0902579" height="17" rx="4.90105541"></rect>
                <rect id="Rectangle" fill="#2185D0" opacity="0.1" x="209.299427" y="77" width="63.0902579" height="17" rx="4.90105541"></rect>
                <rect id="Rectangle" fill="#2185D0" opacity="0.1" x="275.393983" y="94" width="63.0902579" height="17" rx="4.90105541"></rect>
                <rect id="Rectangle" fill="#2185D0" opacity="0.1" x="349.5" y="86" width="63.0902579" height="17" rx="4.90105541"></rect>
                <rect id="Rectangle" fill="#2185D0" opacity="0.1" x="415.594556" y="103" width="63.0902579" height="17" rx="4.90105541"></rect>
                <rect id="Rectangle" fill="#2185D0" opacity="0.1" x="481.689112" y="120" width="63.0902579" height="17" rx="4.90105541"></rect>
                <rect id="Rectangle" fill="#2185D0" opacity="0.1" x="349.5" y="60" width="63.0902579" height="17" rx="4.90105541"></rect>
                <rect id="Rectangle" fill="#2185D0" opacity="0.1" x="415.594556" y="77" width="63.0902579" height="17" rx="4.90105541"></rect>
                <rect id="Rectangle" fill="#2185D0" opacity="0.1" x="481.689112" y="94" width="63.0902579" height="17" rx="4.90105541"></rect>
                <rect id="Rectangle" fill="#2185D0" opacity="0.1" x="143.204871" y="26" width="63.0902579" height="17" rx="4.90105541"></rect>
                <rect id="Rectangle" fill="#2185D0" opacity="0.1" x="209.299427" y="43" width="63.0902579" height="17" rx="4.90105541"></rect>
                <rect id="Rectangle" fill="#2185D0" opacity="0.1" x="275.393983" y="60" width="63.0902579" height="17" rx="4.90105541"></rect>
                <rect id="Rectangle" fill="#2185D0" opacity="0.1" x="143.204871" y="0" width="63.0902579" height="17" rx="4.90105541"></rect>
                <rect id="Rectangle" fill="#2185D0" opacity="0.1" x="209.299427" y="17" width="63.0902579" height="17" rx="4.90105541"></rect>
                <rect id="Rectangle" fill="#2185D0" opacity="0.1" x="275.393983" y="34" width="63.0902579" height="17" rx="4.90105541"></rect>
                <rect id="Rectangle" fill="#2185D0" opacity="0.1" x="349.5" y="26" width="63.0902579" height="17" rx="4.90105541"></rect>
                <rect id="Rectangle" fill="#2185D0" opacity="0.1" x="415.594556" y="43" width="63.0902579" height="17" rx="4.90105541"></rect>
                <rect id="Rectangle" fill="#2185D0" opacity="0.1" x="481.689112" y="60" width="63.0902579" height="17" rx="4.90105541"></rect>
                <rect id="Rectangle" fill="#2185D0" opacity="0.1" x="349.5" y="0" width="63.0902579" height="17" rx="4.90105541"></rect>
                <rect id="Rectangle" fill="#2185D0" opacity="0.1" x="415.594556" y="17" width="63.0902579" height="17" rx="4.90105541"></rect>
                <rect id="Rectangle" fill="#2185D0" opacity="0.1" x="481.689112" y="34" width="63.0902579" height="17" rx="4.90105541"></rect>
                <rect id="Rectangle" fill="#2185D0" opacity="0.1" x="143.204871" y="391" width="63.0902579" height="17" rx="4.90105541"></rect>
                <rect id="Rectangle" fill="#2185D0" opacity="0.1" x="209.299427" y="408" width="63.0902579" height="17" rx="4.90105541"></rect>
                <rect id="Rectangle" fill="#2185D0" opacity="0.1" x="275.393983" y="426" width="63.0902579" height="17" rx="4.90105541"></rect>
                <rect id="Rectangle" fill="#2185D0" opacity="0.1" x="143.204871" y="366" width="63.0902579" height="17" rx="4.90105541"></rect>
                <rect id="Rectangle" fill="#2185D0" opacity="0.1" x="209.299427" y="383" width="63.0902579" height="17" rx="4.90105541"></rect>
                <rect id="Rectangle" fill="#2185D0" opacity="0.1" x="275.393983" y="400" width="63.0902579" height="17" rx="4.90105541"></rect>
                <rect id="Rectangle" fill="#2185D0" opacity="0.1" x="349.5" y="391" width="63.0902579" height="17" rx="4.90105541"></rect>
                <rect id="Rectangle" fill="#2185D0" opacity="0.1" x="415.594556" y="408" width="63.0902579" height="17" rx="4.90105541"></rect>
                <rect id="Rectangle" fill="#2185D0" opacity="0.1" x="481.689112" y="426" width="63.0902579" height="17" rx="4.90105541"></rect>
                <rect id="Rectangle" fill="#2185D0" opacity="0.1" x="349.5" y="366" width="63.0902579" height="17" rx="4.90105541"></rect>
                <rect id="Rectangle" fill="#2185D0" opacity="0.1" x="415.594556" y="383" width="63.0902579" height="17" rx="4.90105541"></rect>
                <rect id="Rectangle" fill="#2185D0" opacity="0.1" x="481.689112" y="400" width="63.0902579" height="17" rx="4.90105541"></rect>
                <rect id="Rectangle" fill="#2185D0" opacity="0.1" x="143.204871" y="331" width="63.0902579" height="17" rx="4.90105541"></rect>
                <rect id="Rectangle" fill="#2185D0" opacity="0.1" x="209.299427" y="348" width="63.0902579" height="17" rx="4.90105541"></rect>
                <rect id="Rectangle" fill="#2185D0" opacity="0.1" x="275.393983" y="366" width="63.0902579" height="17" rx="4.90105541"></rect>
                <rect id="Rectangle" fill="#2185D0" opacity="0.1" x="143.204871" y="305" width="63.0902579" height="17" rx="4.90105541"></rect>
                <rect id="Rectangle" fill="#2185D0" opacity="0.1" x="209.299427" y="323" width="63.0902579" height="17" rx="4.90105541"></rect>
                <rect id="Rectangle" fill="#2185D0" opacity="0.1" x="275.393983" y="340" width="63.0902579" height="17" rx="4.90105541"></rect>
                <rect id="Rectangle" fill="#2185D0" opacity="0.1" x="349.5" y="331" width="63.0902579" height="17" rx="4.90105541"></rect>
                <rect id="Rectangle" fill="#2185D0" opacity="0.1" x="415.594556" y="348" width="63.0902579" height="17" rx="4.90105541"></rect>
                <rect id="Rectangle" fill="#2185D0" opacity="0.1" x="481.689112" y="366" width="63.0902579" height="17" rx="4.90105541"></rect>
                <rect id="Rectangle" fill="#2185D0" opacity="0.1" x="349.5" y="305" width="63.0902579" height="17" rx="4.90105541"></rect>
                <rect id="Rectangle" fill="#2185D0" opacity="0.1" x="415.594556" y="323" width="63.0902579" height="17" rx="4.90105541"></rect>
                <rect id="Rectangle" fill="#2185D0" opacity="0.1" x="481.689112" y="340" width="63.0902579" height="17" rx="4.90105541"></rect>
                <ellipse id="Oval" fill="#2185D0" opacity="0.1" cx="355.00788" cy="476.5" rx="322.962034" ry="23.5"></ellipse>
                <path d="M62.2652261,123.685301 C92.6806673,135.461756 110.157593,159.829555 110.157593,159.829555 C110.157593,159.829555 78.3151639,165.086901 47.892367,153.317018 C17.4695702,141.547134 0,117.172764 0,117.172764 C0,117.172764 31.8424293,111.908846 62.2652261,123.685301 Z" id="Path" fill="#2185D0"></path>
                <path d="M155.860935,77.4458515 C165.252678,63.595436 181.245812,57 181.245812,57 C181.245812,57 181.980115,72.7894737 172.617744,86.6003166 C163.255372,100.411159 147.225524,107 147.225524,107 C147.225524,107 146.461848,91.2171218 155.860935,77.4458515 Z" id="Path" fill="#2185D0"></path>
                <path d="M86.9236665,92.2901099 C93.7184966,113.824176 112.446979,128 112.446979,128 C112.446979,128 120.162639,107.250549 113.367808,85.7098901 C106.572978,64.1692308 87.8370699,50 87.8370699,50 C87.8370699,50 80.1214103,70.7494505 86.9236665,92.2901099 Z" id="Path" fill="#46455B"></path>
                <rect id="Rectangle" fill="#3F3D56" x="88.1260745" y="92" width="536.767908" height="241" rx="4.75593668"></rect>
                <path d="M88.1260745,318 L624.893983,318 L624.893983,328.084091 C624.893983,330.799073 622.517163,333 619.585208,333 L93.434849,333 C90.5028938,333 88.1260745,330.799073 88.1260745,328.084091 L88.1260745,318 Z" id="Path" fill="#000000" opacity="0.1"></path>
                <rect id="Rectangle" fill="#2185D0" x="140.200573" y="300" width="40.0573066" height="18" rx="1.64907652"></rect>
                <rect id="Rectangle" fill="#2185D0" x="191.273639" y="315" width="27.0386819" height="3" rx="1.31926121"></rect>
                <path d="M166.883547,138.318957 C186.341101,141.529824 206.189429,138.318957 225.56588,136.143216 L284.45466,129.55006 C286.836164,129.27974 290.301511,128.007261 291.702396,130.611558 C292.491316,132.068645 291.960454,135.226767 292.019439,136.901429 C292.174273,141.516638 292.159527,146.131847 292.019439,150.747056 C291.754008,159.568698 291.031446,168.370561 290.109811,177.152645 C288.318153,194.341002 285.781814,211.437055 284.513645,228.691344 C283.864814,237.473428 283.540398,246.281884 283.827948,255.063967 C283.894306,257.160591 283.990156,259.257215 284.130245,261.347245 C284.285079,263.687815 285.457399,267.162408 282.604017,268.724986 C280.974567,269.621655 277.767278,269.575503 275.901889,269.83923 C272.952657,270.254598 270.003426,270.584256 266.99521,270.854576 C247.169001,272.628135 227.084734,271.889701 207.184795,271.784211 L147.094203,271.507298 L132.436523,271.434773 C131.109369,271.434773 126.324241,272.146834 125.505829,270.735899 C125.159294,270.135922 126.080929,267.327237 126.243137,266.575617 C126.469244,265.336104 126.715014,264.098789 126.980445,262.863671 C128.690999,254.193671 130.711222,245.576416 132.746192,236.965755 C137.118428,218.504918 141.593887,199.951778 143.392918,181.095352 C144.28506,171.634173 143.695214,162.087284 144.78643,152.645885 C145.295172,148.261436 145.899765,138.477193 152.424939,138.088197 C157.954748,137.758539 163.646765,138.088197 169.19132,138.088197 C169.802126,138.088197 170.297282,137.645418 170.297282,137.099223 C170.297282,136.553028 169.802126,136.11025 169.19132,136.11025 C163.956434,136.11025 158.714175,135.98498 153.47929,136.077284 C149.999196,136.136622 147.580827,136.875056 145.921884,139.736486 C141.682364,147.081261 142.117375,156.878691 141.98466,164.895968 C141.667617,184.088645 138.371851,202.872546 134.080719,221.64326 C131.920407,231.091253 129.590514,240.506279 127.444949,249.960865 C126.434837,254.477177 125.468963,259.006675 124.584194,263.549359 C124.171302,265.711914 122.08472,270.478766 123.920617,272.463306 C125.756514,274.447846 131.404292,273.379754 133.933258,273.392941 L151.525424,273.485245 L185.23514,273.656667 C207.015214,273.76875 228.869019,274.315982 250.641721,273.742378 C261.037762,273.465465 272.023649,273.083062 282.146886,270.861169 C285.162476,270.201853 286.614972,268.96234 286.732941,266.087724 C286.909895,261.630751 286.098857,257.035321 285.995633,252.558568 C285.258326,214.252333 295.322578,176.480143 294.290347,138.160721 C294.223989,135.556425 295.322578,128.989642 292.137408,127.413877 C290.707031,126.701816 288.849015,127.090813 287.344907,127.249048 C284.469406,127.54574 281.601279,127.908364 278.725778,128.211649 L241.381134,132.378524 C229.44412,133.697155 217.514478,135.121276 205.555345,136.334417 C192.895768,137.653048 180.11085,138.437634 167.495512,136.334417 C166.102,136.103657 165.504781,138.009079 166.905666,138.239839 L166.883547,138.318957 Z" id="Path" fill="#2185D0"></path>
                <path d="M143.266149,161.99876 L290.348675,155.875879 C291.7693,155.813401 291.77666,153.939049 290.348675,154.001528 L143.266149,160.124409 C141.852884,160.180639 141.845524,162.05499 143.266149,161.99876 Z" id="Path" fill="#2185D0"></path>
                <path d="M188.272887,145.335188 C187.43662,146.12319 187.09248,147.227788 187.353533,148.286064 C187.614587,149.34434 188.447083,150.219476 189.577506,150.623943 C191.560232,151.430036 193.889383,150.755015 195.857367,150.315924 C198.805659,149.660564 201.753951,149.077294 204.783321,148.598881 C211.376675,147.561025 218.0551,147.008649 224.750626,146.947373 C227.802108,146.914605 230.831478,147.039124 233.88296,147.157089 C236.094179,147.235732 238.474924,147.393018 240.347089,146.174048 C242.484601,144.784685 243.177449,142.071494 241.084162,140.380665 C238.135871,137.988601 231.782302,139.377964 228.377025,139.627001 C216.020617,140.539689 203.744375,142.168443 191.626569,144.50288 C190.240872,144.765024 190.823159,146.665568 192.216227,146.396871 C200.211011,144.863328 208.267219,143.631251 216.384848,142.70064 C220.37487,142.263733 224.372262,141.894547 228.377025,141.593082 C230.263932,141.455456 232.150838,141.330937 234.037745,141.232633 C234.774818,141.193312 235.556115,141.121222 236.30793,141.140883 C238.644451,141.186758 238.917168,140.813203 237.516729,143.323232 C236.271076,145.544903 236.669096,145.289312 234.509472,145.217223 C233.595501,145.217223 232.681531,145.125472 231.767561,145.086151 C229.895395,145.016246 228.02323,144.979109 226.151065,144.974739 C222.165957,144.974739 218.190677,145.145133 214.225225,145.48592 C210.864172,145.774279 207.51049,146.180602 204.186291,146.70489 C202.107746,147.03257 200.043942,147.412679 197.987508,147.832109 C197.080908,148.022164 196.166938,148.218772 195.260338,148.421933 C194.825465,148.526791 194.383221,148.618541 193.948348,148.716845 C192.336616,149.214919 190.963203,148.559559 189.828111,146.750765 C190.815788,145.839815 189.260565,144.443898 188.265516,145.361402 L188.272887,145.335188 Z" id="Path" fill="#2185D0"></path>
                <path d="M215.478368,173.52943 C204.788105,173.158659 193.240849,175.747436 186.200199,183.460797 C180.68884,189.492447 177.548991,199.84093 183.385416,206.633985 C189.657727,213.916987 203.41396,212.63253 211.710549,209.527323 C220.487351,206.216868 230.091595,199.390708 232.729068,190.849733 C236.016675,180.183446 225.341188,172.119176 214.222429,172 C212.796568,172 212.796568,173.986273 214.222429,173.986273 C220.56123,174.052482 226.781825,176.488978 229.736977,181.779085 C232.832499,187.353892 230.165474,193.206778 226.043037,197.669272 C219.438272,204.773509 209.110015,210.129826 198.589674,209.977545 C192.273036,209.891473 185.29149,207.951546 183.333701,201.979485 C181.723143,197.139599 182.949532,191.849491 185.756926,187.559141 C191.829764,178.289865 204.189687,175.151554 215.522695,175.548808 C216.948556,175.595155 216.948556,173.608881 215.522695,173.562535 L215.478368,173.52943 Z" id="Path" fill="#2185D0"></path>
                <path d="M204.305958,188.388811 C203.346859,188.092493 202.272546,188.226554 201.459526,188.744012 C200.646505,189.261471 200.208162,190.090161 200.298117,190.939658 C200.527574,193.426734 203.816451,194.128217 206.286933,193.981543 C208.420878,193.828492 210.914306,193.171649 210.164748,190.946035 C209.88567,190.148946 209.204469,189.492529 208.298501,189.147688 C207.614085,188.921297 206.871639,188.844467 206.14161,188.924489 C205.858614,188.924489 203.265755,189.715252 204.367146,188.765061 L202.562088,188.56737 C202.96785,188.901035 203.170361,189.370056 203.112784,189.842794 C203.119819,190.181862 203.340247,190.49285 203.693098,190.661522 C204.045949,190.830195 204.479201,190.831684 204.833708,190.665442 C205.368967,190.478633 205.984915,190.560414 206.424106,190.876601 C206.863297,191.192789 207.050111,191.688943 206.906465,192.157687 C206.779275,192.613748 207.063979,193.079989 207.581124,193.262532 C208.09827,193.445075 208.697945,193.291004 209.002168,192.897433 C209.767023,191.749552 210.692498,189.466544 209.545215,188.267646 C208.78036,187.457752 207.30419,187.700083 206.386364,188.171989 C205.819881,188.50622 205.292357,188.884134 204.810762,189.300739 C203.885288,189.98309 203.281052,190.301946 203.625237,188.994637 C204.198878,186.615973 206.921762,184.721969 209.407541,183.771778 L207.72486,182.694046 C206.84268,185.458132 205.265307,188.034112 203.097487,190.250929 L205.055516,190.926904 C204.941707,189.132871 206.190044,187.472145 208.176125,186.775401 L207.051788,186.775401 L207.648375,187.591672 C207.426567,188.796947 209.636998,189.313493 209.858806,188.095464 C210.149451,186.520316 208.956277,184.473261 206.745846,185.244892 C204.107096,186.163197 202.738005,188.682159 202.791545,190.926904 C202.791545,191.692158 204.091799,192.28523 204.757222,191.609255 C207.189655,189.145385 208.965218,186.278047 209.965885,183.197838 C210.074529,182.824421 209.908366,182.432749 209.542282,182.199338 C209.176198,181.965927 208.679311,181.934847 208.275556,182.120105 C205.98433,182.983627 204.048041,184.389588 202.707411,186.163197 C201.774288,187.438621 200.604059,189.428281 201.55248,190.895018 C201.866481,191.369022 202.394807,191.718633 203.019763,191.86597 C203.644719,192.013306 204.314392,191.946129 204.879599,191.679404 C205.586757,191.329806 206.232762,190.900629 206.799385,190.40398 C207.082382,190.193535 207.395972,189.83004 207.770751,189.766268 C208.107288,189.574955 208.091991,189.683366 207.717212,190.104256 C207.712243,190.765085 207.481414,191.411037 207.051788,191.966374 L209.147491,192.699742 C209.533243,191.483331 209.024978,190.191522 207.849986,189.401998 C206.674995,188.612475 205.053012,188.472886 203.709371,189.045654 L205.437943,189.874679 C205.474124,189.063161 205.168334,188.266699 204.573657,187.623557 C204.390828,187.372348 204.081197,187.203848 203.731798,187.165419 C203.382399,187.126989 203.030953,187.222781 202.776248,187.425866 C201.613668,188.439828 201.39186,190.193535 202.852733,191.130972 C203.946476,191.826077 204.481875,191.130972 205.682697,190.971544 C209.759375,190.531523 207.380675,192.062031 205.942748,192.113048 C205.299729,192.170535 204.649562,192.13166 204.022962,191.998259 C202.426964,191.54761 202.327533,190.967292 203.724668,190.257306 C205.093759,190.722836 205.682697,188.873472 204.336552,188.41432 L204.305958,188.388811 Z" id="Path" fill="#2185D0"></path>
                <path d="M202.995905,192.209635 C203.880062,194.830528 200.228421,195.695423 198.496049,196.599631 C197.28036,197.221071 196.22027,198.066854 195.383529,199.082927 C193.572086,201.297582 192.896388,204.115042 192.299762,206.768696 C192.026608,208.007068 194.104017,208.531246 194.38436,207.292874 C194.713214,205.342929 195.324773,203.44144 196.202992,201.638298 C197.49688,199.292598 199.351453,198.50633 201.766711,197.30072 C204.181969,196.095109 205.928718,194.227722 205.073314,191.685456 C204.670771,190.479845 202.586173,190.997472 202.995905,192.209635 L202.995905,192.209635 Z" id="Path" fill="#2185D0"></path>
                <path d="M206.386518,191 C205.263966,191.138837 204.443948,192.019028 204.493705,193.031708 C204.493705,193.837618 205.091834,194.352318 205.500681,194.995692 C206.471181,196.31202 207.21158,197.753039 207.696344,199.26905 C208.059764,200.725107 208.415613,203.332465 207.567633,204.686937 C206.000384,207.199482 203.168736,206.718645 200.753507,206.718645 C198.482132,206.718645 196.725602,207.39588 196.801315,204.565035 C196.846742,202.97353 198.088427,201.361709 199.07269,200.108822 L196.998167,199.865018 C197.43579,201.932942 197.666365,204.031656 197.687151,206.136222 C197.687151,207.07758 199.299827,207.599051 199.79953,206.644149 C201.016736,204.35378 201.982805,201.96324 202.684176,199.506083 L200.450657,199.235188 L200.844362,204.382181 C200.857793,204.833197 201.200074,205.223046 201.686739,205.341626 C202.173405,205.460207 202.689442,205.279494 202.956741,204.89688 C203.221919,204.635119 203.416212,204.322294 203.524585,203.982612 C203.600298,203.664311 202.903742,201.517473 202.623606,202.28275 L204.849554,202.553644 L205.00855,197.664001 L202.737175,197.934895 C203.217297,199.313727 203.361866,200.768518 203.161165,202.201481 C203.017311,203.332465 205.144833,203.589815 205.43254,202.472376 L206.855935,195.903188 L204.781413,196.14022 C205.274304,197.048843 205.410341,198.079569 205.167546,199.065879 C205.000979,200.366172 207.272354,200.352627 207.438921,199.065879 C207.63184,197.717305 207.390179,196.347496 206.742366,195.117594 C206.507189,194.771167 206.065478,194.581665 205.616234,194.634462 C205.16699,194.687259 204.794997,194.97239 204.667844,195.361399 L203.236878,201.930587 L205.470396,202.201481 C205.697535,200.587046 205.524341,198.947676 204.963123,197.399879 C204.806362,196.917924 204.279581,196.610627 203.723306,196.676633 C203.16703,196.742638 202.748037,197.162157 202.737175,197.664001 L202.578179,202.553644 C202.578179,203.738807 204.417993,203.908116 204.811698,202.824538 L204.932838,202.492693 C205.039463,202.140787 204.930026,201.764684 204.64513,201.503928 C202.290471,199.214871 201.813482,202.8584 200.995787,203.867482 L203.115737,204.382181 L202.722032,199.235188 C202.638749,198.138066 200.821649,197.799448 200.488514,198.964294 C199.848619,201.25498 198.961127,203.484555 197.838576,205.621522 L199.958526,206.136222 C199.934095,203.849558 199.680707,201.569448 199.201401,199.323229 C199.004549,198.388643 197.634152,198.429278 197.126878,199.079424 C195.612628,201.029863 192.992976,205.289677 195.0145,207.626141 C196.778601,209.657848 202.328327,208.872255 204.698129,208.74358 C208.438326,208.553954 209.79358,206.434206 210.202428,203.278286 C210.397198,201.767027 210.302462,200.237125 209.922292,198.754351 C209.717868,197.955212 207.650916,192.889488 207.030074,192.991073 C208.468611,192.754041 207.85534,190.790057 206.424374,191.027089 L206.386518,191 Z" id="Path" fill="#2185D0"></path>
                <path d="M202.537352,195.715905 L196.72313,202.823656 L198.561816,203.816506 L202.821319,198.109264 L200.876146,197.346545 L198.753493,204.848807 C198.635439,205.319031 198.899693,205.799751 199.379693,205.987963 C199.859693,206.176175 200.416295,206.01732 200.698666,205.611526 C201.664568,204.129171 202.749045,202.715938 203.942988,201.383696 L202.168195,200.423722 C201.69155,202.122347 200.772606,203.686863 199.491807,204.98031 L201.273699,205.940284 C201.382759,205.031724 201.643819,204.144418 202.047509,203.310218 C202.594145,202.172715 200.861947,201.166715 200.208824,202.310794 C199.608164,203.352856 198.922274,204.350812 198.157163,205.295918 L200.102336,205.532624 L200.535385,203.658702 L198.590213,203.421996 L198.902576,205.065787 C199.006885,205.402244 199.294785,205.662963 199.66031,205.751983 C200.025835,205.841003 200.414962,205.745166 200.684468,205.499748 C202.485025,203.774019 203.928724,201.757172 204.943971,199.549225 L203.112385,199.549225 C203.593906,200.371456 203.931754,201.259145 204.113368,202.17929 C204.368938,203.36282 206.06564,202.922284 206.200524,201.916284 C206.505457,199.713806 206.661942,197.495871 206.66907,195.275369 L204.539318,195.275369 L204.539318,199.411147 C204.539318,200.482898 206.434797,200.798506 206.633574,199.674153 C206.774175,198.676642 207.129009,197.715305 207.677152,196.846833 L205.81007,196.846833 C206.260039,197.519092 206.505337,198.291545 206.519987,199.082389 C206.519987,199.627093 206.996748,200.068663 207.584863,200.068663 C208.172977,200.068663 208.649738,199.627093 208.649738,199.082389 L208.919507,197.767356 L206.867846,197.767356 C207.073722,198.93116 207.854631,205.486597 205.078855,204.717303 C204.61031,204.612101 204.475426,204.638401 204.674202,204.78963 L205.306029,203.540349 L206.789755,200.627552 L204.801987,200.127839 C204.929773,201.482323 205.064657,203.415421 204.18436,204.57265 C203.474442,205.512898 201.287898,205.887682 200.173328,205.335369 C199.437531,204.84953 198.808645,204.238053 198.320444,203.533774 L196.865114,204.848807 C198.043576,205.644401 199.953253,207.597225 201.472476,207.709003 C202.629641,207.79448 203.602227,206.906833 204.361839,206.196715 C206.716451,203.943085 207.971094,200.894231 207.833334,197.760781 C207.833334,197.216076 207.356573,196.774506 206.768458,196.774506 C206.180343,196.774506 205.703582,197.216076 205.703582,197.760781 L205.703582,200.009487 C205.703582,200.554191 206.180343,200.995761 206.768458,200.995761 C207.356573,200.995761 207.833334,200.554191 207.833334,200.009487 L207.833334,194.492925 C207.833334,193.94822 207.356573,193.50665 206.768458,193.50665 C206.180343,193.50665 205.703582,193.94822 205.703582,194.492925 C205.699717,195.815199 205.576233,197.134848 205.334425,198.438023 L207.428681,198.701029 C207.261932,197.130024 207.183735,195.552034 207.194408,193.973487 C207.187531,193.485093 206.795729,193.074926 206.273181,193.009078 C205.750634,192.943231 205.254759,193.24154 205.107252,193.71048 C204.787789,194.966336 204.397335,196.202467 204.021079,197.432023 L205.966252,197.195317 L205.817169,196.669304 C205.717781,195.413447 203.588029,195.406872 203.687418,196.669304 C203.710793,197.201636 203.861105,197.722576 204.127566,198.194741 C204.539318,198.996911 205.824268,198.714179 206.072739,197.958036 C206.477392,196.721905 206.83945,195.485774 207.158912,194.236493 L205.064657,193.973487 C205.053984,195.552034 205.132181,197.130024 205.298929,198.701029 C205.405417,199.713604 207.166012,200.147565 207.386086,198.964036 C207.669648,197.478989 207.819247,195.974658 207.833334,194.466624 L205.703582,194.466624 L205.703582,199.983186 L207.833334,199.983186 L207.833334,197.73448 L205.703582,197.73448 C205.828827,200.214908 204.898446,202.641853 203.112385,204.493748 C202.835737,204.785056 202.536799,205.057534 202.217889,205.309068 C201.713848,205.756179 201.252402,205.690428 200.847749,205.105238 C199.839667,204.717303 198.796088,203.717879 197.915791,203.132689 C197.035494,202.5475 195.828635,203.704728 196.453362,204.480598 C198.086171,206.492597 200.521187,208.734728 203.552533,207.768179 C206.740061,206.722728 207.173111,202.725029 206.931739,200.094964 C206.853648,199.220467 205.440913,198.628702 204.95107,199.601826 C204.241153,200.989186 203.531236,202.36997 202.821319,203.763905 C202.572848,204.250467 202.111401,204.921133 202.182393,205.499748 C202.416666,206.97916 204.35474,206.735878 205.5474,206.650401 C210.168961,206.328218 209.437746,200.259343 208.905308,197.208467 C208.727829,196.195892 207.137615,196.353696 206.853648,197.208467 C206.628064,197.809071 206.510546,198.439921 206.505789,199.075813 L208.63554,199.075813 C208.558368,197.945218 208.216825,196.843662 207.634557,195.847408 C207.440856,195.548241 207.09185,195.365172 206.715214,195.365172 C206.338578,195.365172 205.989572,195.548241 205.795871,195.847408 C205.161035,196.862435 204.732723,197.976754 204.532219,199.13499 L206.66197,199.397996 L206.66197,195.262219 C206.66197,194.717514 206.185209,194.275944 205.597095,194.275944 C205.00898,194.275944 204.532219,194.717514 204.532219,195.262219 C204.525091,197.482721 204.368606,199.700655 204.063674,201.903134 L206.157929,201.640127 C205.916974,200.565189 205.508016,199.528551 204.943971,198.562951 C204.75027,198.263783 204.401264,198.080714 204.024628,198.080714 C203.647992,198.080714 203.298986,198.263783 203.105285,198.562951 C202.179462,200.622194 200.848213,202.504002 199.179444,204.112388 L200.961336,204.546349 L200.648972,202.902558 C200.485691,202.028062 199.151047,202.001761 198.703799,202.665852 C197.990618,203.665179 197.756704,204.893643 198.057775,206.058637 C198.235254,206.99231 199.513105,206.893682 200.002948,206.295343 C200.768003,205.352506 201.453899,204.356739 202.054608,203.316794 L200.215923,202.317369 C199.725012,203.299841 199.390246,204.342959 199.222039,205.414271 C199.094254,206.282192 200.208824,207.189565 201.003931,206.374245 C202.530091,204.827552 203.635117,202.965485 204.226955,200.94316 C204.489624,200.048938 203.15498,199.200741 202.445063,199.983186 C201.139,201.432832 199.952461,202.971373 198.895477,204.5858 L200.84065,205.348519 L203.005897,197.872558 C203.123951,197.402334 202.859697,196.921614 202.379697,196.733402 C201.899698,196.54519 201.343095,196.704045 201.060724,197.10984 L196.801221,202.823656 C196.006114,203.882258 197.830601,204.796205 198.639907,203.816506 L204.432831,196.71533 C205.256334,195.702755 203.41055,194.742781 202.594145,195.715905 L202.537352,195.715905 Z" id="Path" fill="#2185D0"></path>
                <path d="M296.083382,218.848487 C304.89522,213.99063 311.900631,206.743556 319.68442,200.681163 C328.129098,194.109158 336.992338,187.9872 346.119933,182.18954 C363.846414,170.938374 382.461421,160.87189 401.061741,150.831879 C401.562722,150.546239 401.723019,149.954472 401.424442,149.492898 C401.125866,149.031323 400.475522,148.865517 399.952918,149.117731 C381.352598,159.157742 362.730247,169.204371 345.003767,180.475392 C336.639865,185.770059 328.474229,191.382405 320.646379,197.338905 C312.12827,203.824871 304.542746,211.899237 294.945186,217.134338 C293.733559,217.796172 294.842381,219.516938 296.054009,218.848487 L296.083382,218.848487 Z" id="Path" fill="#2185D0"></path>
                <path d="M430.069022,120.00576 C420.521052,120.884496 410.238623,123.087993 404.362949,130.657103 C399.287836,137.167736 399.398005,148.52473 404.164645,155.208447 C409.57761,162.804186 420.638566,163.077126 429.231739,160.620661 C437.824912,158.164195 446.719213,153.857058 446.638422,144.550448 C446.594355,139.557631 444.60397,134.358444 442.407937,129.831624 C440.513032,125.923913 437.156554,122.508826 432.074096,122.941537 C430.671279,123.061364 430.65659,125.058491 432.074096,124.938663 C438.882533,124.366154 441.071221,131.695609 442.687032,136.322286 C444.15595,140.642736 445.5147,145.755381 443.208498,150.049203 C440.902296,154.343026 435.342439,156.533208 430.590488,158.104281 C425.449274,159.795181 419.801282,160.82703 414.432385,159.435699 C403.797416,156.739578 400.859579,144.523819 403.922274,135.856289 C407.447678,125.870656 419.933485,122.93488 430.105745,122.002887 C431.501218,121.876402 431.515907,119.879276 430.105745,120.00576 L430.069022,120.00576 Z" id="Path" fill="#2185D0"></path>
                <path d="M445.090512,197.00576 C435.542542,197.884496 425.260113,200.087993 419.384439,207.657103 C414.309326,214.167736 414.419495,225.52473 419.186135,232.208447 C424.5991,239.804186 435.660056,240.077126 444.253229,237.620661 C452.846402,235.164195 461.740703,230.857058 461.659912,221.550448 C461.615845,216.557631 459.62546,211.358444 457.429427,206.831624 C455.534522,202.923913 452.178044,199.508826 447.095586,199.941537 C445.692769,200.061364 445.67808,202.058491 447.095586,201.938663 C453.904023,201.366154 456.092711,208.695609 457.708522,213.322286 C459.17744,217.642736 460.53619,222.755381 458.229988,227.049203 C455.923786,231.343026 450.363929,233.533208 445.611978,235.104281 C440.470764,236.795181 434.822772,237.82703 429.453875,236.435699 C418.818906,233.739578 415.881069,221.523819 418.943764,212.856289 C422.469168,202.870656 434.954975,199.93488 445.127235,199.002887 C446.522708,198.876402 446.537397,196.879276 445.127235,197.00576 L445.090512,197.00576 Z" id="Path" fill="#2185D0"></path>
                <path d="M414.862425,139.622329 L421.90144,146.72162 C422.184866,146.963517 422.590934,147.056319 422.971395,146.966146 C423.351857,146.875973 423.651026,146.616024 423.75968,146.281201 C425.246273,142.823583 424.96382,139.241071 425.31317,135.605971 C425.698373,131.848853 426.765023,128.17108 428.472178,124.713817 C431.901505,117.701513 437.715878,111.8082 445.107148,107.853 C446.333587,107.195659 445.211209,105.48657 443.984771,106.150485 C436.696823,110.031521 430.850251,115.711506 427.163977,122.492002 C425.359483,125.791491 424.107538,129.305652 423.447496,132.924016 C422.7042,137.190164 423.380599,141.660088 421.596688,145.755328 L423.462362,145.314909 L416.460512,138.228764 C415.509092,137.275619 413.940737,138.675757 414.884724,139.622329 L414.862425,139.622329 Z" id="Path" fill="#2185D0"></path>
                <path d="M299.496111,226.999409 C337.496488,225.952237 375.506688,225.730378 413.526711,226.333833 C414.948594,226.333833 414.948594,224.337107 413.526711,224.337107 C375.516511,223.724777 337.506311,223.946636 299.496111,225.002682 C298.074228,225.042617 298.066861,227.039343 299.496111,226.999409 Z" id="Path" fill="#2185D0"></path>
                <path d="M421.313352,206.987591 C434.431172,211.570968 447.04937,217.215315 459.00953,223.84977 C460.229616,224.512071 461.352987,222.809958 460.132902,222.134411 C448.015192,215.418032 435.229906,209.70707 421.938274,205.073541 C420.606595,204.603307 420.026311,206.52398 421.35055,206.987591 L421.313352,206.987591 Z" id="Path" fill="#2185D0"></path>
                <path d="M444.833108,198.3239 C431.928334,211.952492 424.452968,229.114133 423.607152,247.053586 C423.549414,248.315471 425.714591,248.315471 425.772329,247.053586 C426.592189,229.629188 433.842854,212.958067 446.363166,199.710012 C447.265324,198.755425 445.742482,197.362775 444.833108,198.3239 Z" id="Path" fill="#2185D0"></path>
                <path d="M150.306953,219.239683 L232.470917,218.257239 L241.917163,218.142844 C243.615282,218.142844 245.313401,218.089012 247.01152,218.082283 C249.400649,218.082283 251.010554,219.899132 250.966447,222.119725 C250.856179,226.830073 247.621667,226.661847 243.387396,226.830073 L233.176629,227.254005 L191.598443,228.929543 C184.151714,229.232351 176.697633,229.60245 169.250903,229.837967 C162.531939,230.026381 149.755615,228.021119 152.740188,219.071456 C153.151853,217.826578 151.027367,217.294982 150.60835,218.53313 C149.138118,222.933942 151.74043,227.402044 155.930594,229.710115 C161.877685,232.980443 169.714027,231.870146 176.278617,231.600984 L227.325102,229.481327 L239.719165,228.976646 C242.894868,228.842065 247.312918,229.434223 250.23133,228.08168 C253.656973,226.500349 254.259768,220.222127 252.098526,217.577603 C250.9885,216.231789 249.430053,216.110665 247.687827,216.050104 C243.115403,215.888606 238.462116,216.164498 233.882341,216.21833 L208.43261,216.527868 L150.277548,217.200775 C148.858773,217.200775 148.858773,219.219495 150.277548,219.219495 L150.306953,219.239683 Z" id="Path" fill="#2185D0"></path>
                <g id="b30eccf6-7cfe-48df-9caa-415a128bd568" transform="translate(472.676218, 148.000000)">
                    <path d="M11.0249393,314.313984 C9.17151386,315.356201 7.05331338,315.943272 5.14104907,316.860158 C3.22878475,317.777045 1.36800447,319.155673 0.823744629,321.055409 C0.620664347,321.645097 0.654497172,322.279975 0.919357844,322.849604 C1.39518568,323.537553 2.12336437,324.055349 2.97871942,324.313984 C10.8299525,327.441224 19.7703511,327.531881 27.6984131,324.564644 C29.0787981,323.969575 30.5042777,323.4626 31.9642335,323.047493 C33.7627885,322.718532 35.5933282,322.550601 37.4288966,322.546174 C39.3582528,322.445078 41.2775289,322.224677 43.1730444,321.886544 C44.1259161,321.79141 45.0289431,321.455099 45.7766658,320.916887 C46.4588997,320.211841 46.8690556,319.328066 46.946089,318.397098 C47.8165015,313.258046 46.5041132,308.013188 43.2686576,303.700528 C42.8610832,303.096146 42.3144713,302.576675 41.6652975,302.176781 C40.8737802,301.809822 40.0032084,301.600563 39.1131601,301.563325 C35.4357288,301.16095 31.5817807,300.422164 27.867575,300.343008 C25.2051147,300.290237 23.8665296,301.424802 21.9836848,303.067282 C18.0929624,306.556728 15.8203098,311.629288 11.0249393,314.313984 Z" id="Path" fill="#323444"></path>
                    <path d="M65.2229229,313.825858 C65.2229229,317.058047 65.6568598,320.48153 67.8412541,323.060686 C68.8402066,324.175937 70.0501348,325.124877 71.4157174,325.864116 C76.0345712,328.502639 82.153817,329.472296 87.0227361,327.236148 C87.8092575,326.91953 88.4816919,326.412393 88.9644199,325.771768 C89.6999062,324.624011 89.3100984,323.192612 88.8982261,321.926121 L81.8522676,300.026385 C77.2996076,300.653034 70.6066825,301.094987 66.5615079,303.166227 C63.6269177,304.663588 65.2229229,310.936675 65.2229229,313.825858 Z" id="Path" fill="#323444"></path>
                    <path d="M6.8915064,178.977573 C6.46492436,180.184697 4.92040318,180.745383 4.07459397,181.761214 C3.08168749,182.955145 3.18465557,184.610818 3.54504385,186.062005 C3.99022499,188.201893 5.11085134,190.182228 6.7738286,191.76781 C8.48626427,193.361429 10.9525838,194.113493 13.3932051,193.78628 C15.7614709,193.383905 17.8061227,191.503958 17.8870262,189.346966 C17.8443591,188.36599 17.6103686,187.399306 17.1956691,186.490765 L12.1796527,173.48285 C12.1382845,173.296866 12.0096636,173.135849 11.8266193,173.040897 C11.6373329,173.003147 11.4390827,173.033966 11.2750046,173.126649 C10.0908717,173.627968 7.71525103,174.155673 7.02389393,175.257256 C6.33253683,176.358839 7.39163707,177.783641 6.8915064,178.977573 Z" id="Path" fill="#FBB3B2"></path>
                    <path d="M4.54530518,178.324538 C6.37666601,178.067282 7.98002609,177.104222 9.69370911,176.470976 C11.4073921,175.837731 13.5550121,175.593668 14.9965652,176.649077 C15.4084375,176.952507 15.8056001,177.368074 16.342505,177.361478 C15.6121611,174.136004 14.5078327,170.987846 13.0475265,167.968338 C12.996169,167.823657 12.8959301,167.696874 12.7606869,167.605541 C12.5602409,167.532569 12.3359695,167.532569 12.1355235,167.605541 L7.18570091,168.766491 C5.35434009,169.195251 5.14104907,169.063325 5.28079146,170.67942 C5.31756577,171.398417 5.72943809,178.324538 4.54530518,178.324538 Z" id="Path" fill="#323444"></path>
                    <path d="M4.00104534,84.3931398 C3.26555906,85.408971 3.26555906,86.6754617 3.26555906,87.8693931 C3.26555906,93.707124 3.33175283,99.5778364 4.29523985,105.356201 C4.52324059,106.741425 4.81008024,108.126649 4.9571775,109.525066 C5.12388422,111.471691 5.15827054,113.425615 5.06014558,115.375989 L4.3246593,140.771768 C4.23640095,143.878628 4.05988424,147.216359 1.91961918,149.656992 C1.27064217,150.475153 0.965774458,151.473036 1.05910024,152.473615 C1.61806981,158.845646 2.79484785,165.164908 3.96427103,171.46438 C7.78362431,169.919294 12.1970172,170.108131 15.8350195,171.972296 C19.5458465,161.50774 21.5983158,150.627351 21.9322007,139.650396 C22.1013626,134.248021 21.8439424,128.812665 22.7706551,123.476253 C24.3225311,114.492084 23.6900129,105.277045 22.5500092,96.2401055 C22.1896209,93.3773087 21.4247152,90.4287599 19.3800634,88.2124011 C17.4445126,86.2731497 14.8667481,84.9414941 12.0252006,84.4129288 C9.30390139,83.7730871 6.86944181,84.4327177 4.00104534,84.3931398 Z" id="Path" fill="#5B5583"></path>
                    <path d="M4.00104534,84.3931398 C3.26555906,85.408971 3.26555906,86.6754617 3.26555906,87.8693931 C3.26555906,93.707124 3.33175283,99.5778364 4.29523985,105.356201 C4.52324059,106.741425 4.81008024,108.126649 4.9571775,109.525066 C5.12388422,111.471691 5.15827054,113.425615 5.06014558,115.375989 L4.3246593,140.771768 C4.23640095,143.878628 4.05988424,147.216359 1.91961918,149.656992 C1.27064217,150.475153 0.965774458,151.473036 1.05910024,152.473615 C1.61806981,158.845646 2.79484785,165.164908 3.96427103,171.46438 C7.78362431,169.919294 12.1970172,170.108131 15.8350195,171.972296 C19.5458465,161.50774 21.5983158,150.627351 21.9322007,139.650396 C22.1013626,134.248021 21.8439424,128.812665 22.7706551,123.476253 C24.3225311,114.492084 23.6900129,105.277045 22.5500092,96.2401055 C22.1896209,93.3773087 21.4247152,90.4287599 19.3800634,88.2124011 C17.4445126,86.2731497 14.8667481,84.9414941 12.0252006,84.4129288 C9.30390139,83.7730871 6.86944181,84.4327177 4.00104534,84.3931398 Z" id="Path" fill="#000000" opacity="0.1"></path>
                    <path d="M12.9886876,158.040897 C8.05596047,180.711935 10.7491333,204.186393 20.7260032,225.48153 C21.5879562,227.057939 22.1923521,228.737438 22.5205898,230.468338 C22.9251072,233.700528 21.2629082,236.807388 20.3141309,239.934037 C18.1076721,247.044855 19.3800634,254.617414 20.792197,261.89314 C21.380586,264.927441 21.9861364,267.959543 22.6088481,270.989446 C23.2193017,273.944591 23.8076907,277.156992 22.2778793,279.835092 C23.5943997,284.755937 24.3740152,289.630607 25.6905356,294.551451 C25.830117,294.940788 25.8727971,295.352841 25.8155683,295.758575 C25.550291,296.402514 25.0828278,296.963805 24.4696284,297.37467 C22.4732473,299.189992 21.6931794,301.815426 22.4176217,304.281003 C25.778794,302.117414 30.4638415,302.875989 34.3030799,304.281003 C38.1423183,305.686016 41.9227177,307.579156 46.0708603,307.579156 C45.4677616,303.212401 44.8867274,298.627968 46.6813139,294.531662 C47.7257044,292.156992 49.5644201,289.914248 49.5129361,287.37467 C49.461452,285.098945 47.909576,283.067282 47.534478,280.817942 C47.3950714,279.418462 47.4543847,278.008769 47.7109947,276.622691 C48.6965463,268.548813 47.5786072,260.395778 46.460668,252.335092 C46.3342683,250.745548 45.9168085,249.18553 45.2250511,247.717678 C44.7028558,246.76781 43.9232404,245.85752 43.9379501,244.795515 C43.9379501,243.562005 45.0485344,242.559367 45.4604067,241.385224 C46.195893,239.221636 44.8425982,236.279683 46.8798952,234.940633 C52.248945,231.405013 50.1895834,222.961741 50.0719056,216.992084 C49.978744,211.842568 49.733582,206.697449 49.3364194,201.556728 C52.7168526,210.08152 54.0989814,219.140339 53.3963036,228.166227 C53.160948,231.121372 52.7270111,234.228232 54.0141121,236.959103 C54.9996637,239.056728 56.9560572,240.78496 57.4856073,243.007916 C57.8165761,244.379947 57.5812205,245.798153 57.6547691,247.19657 C57.7283178,248.594987 58.2578679,250.118734 59.6038078,250.824538 C59.7067758,257.183377 60.339294,263.984169 60.449617,270.343008 C60.3780598,273.593632 60.6737631,276.842399 61.3322005,280.039578 C61.6623091,281.056561 61.8452292,282.107395 61.8764604,283.166227 C61.7105673,284.493848 61.3186565,285.790803 60.714392,287.011873 C58.1118198,293.923055 59.4885399,301.541337 64.3918234,307.361478 C66.127571,304.597625 69.7461635,303.133245 73.2764976,302.902375 C76.8068318,302.671504 80.2930367,303.469657 83.7130479,304.274406 C83.1901529,300.420334 84.045167,296.516889 86.1548623,293.126649 C86.7204576,292.362634 87.1543689,291.526497 87.4419633,290.646438 C87.8391259,288.970976 86.9124132,287.302111 86.4122825,285.646438 C85.5958927,283.007916 85.8827324,280.164908 86.0739588,277.407652 C86.7157567,268.173224 86.2596368,258.903758 84.7133092,249.755937 C84.4745354,247.954059 84.0031144,246.183168 83.3085304,244.478892 C83.0437554,243.872032 82.7201414,243.291557 82.4994955,242.6781 C82.1523973,241.577697 81.9548356,240.443708 81.9111065,239.300792 L81.0652973,228.746702 C80.4695534,221.352243 83.1761429,214.050132 85.0663426,206.833773 C85.9121518,203.601583 86.8315097,200.375989 87.3978341,197.091029 C88.1700947,192.618734 88.2951274,188.047493 89.4277762,183.634565 C90.4427473,179.676781 92.2741081,175.817942 92.656561,171.761214 C93.24495,165.474934 90.3324244,159.399736 87.5081571,153.634565 C86.331379,151.259894 81.8816871,151.497361 79.0206454,151.075198 C58.7285791,148.087071 37.3553479,148.067282 18.217995,154.802111 C16.2388782,155.537483 14.4564574,156.64143 12.9886876,158.040897 Z" id="Path" fill="#3C354C"></path>
                    <path d="M27.6175096,40.9630607 L29.8680977,48.8126649 C30.4799326,50.6129157 30.8188464,52.4788266 30.8757138,54.3601583 C30.8989574,55.0464025 30.7295077,55.7268793 30.382938,56.3390501 C30.0125506,56.8417533 29.5381895,57.2761468 28.9855141,57.6187335 C27.4483478,58.6675462 26.3818927,61.1147757 24.6240805,61.8403694 C25.5287286,63.2519789 26.7790553,62.3350923 28.4118348,63.0408971 C31.2875862,64.2941953 33.920627,66.0949868 37.0390888,66.7150396 C39.9810339,67.2955145 43.0700763,66.7480211 45.9899568,66.055409 C50.1307445,65.0461741 54.2494677,63.6543536 57.5812205,61.2203166 C60.9129733,58.7862797 62.8105279,56.6358839 62.7959031,52.7902375 C59.1183868,53.1794195 55.8454729,49.848285 54.2200482,46.853562 C53.6564809,45.715193 53.241845,44.5221048 52.9844313,43.298153 L51.0133281,35.5211082 C48.8657081,35.9432718 47.1152508,37.3218997 45.0632441,38.0408971 C43.0112374,38.7598945 40.5841327,38.8258575 38.3041252,38.9182058 C34.2568793,39.083304 30.2320578,39.5510665 26.2715698,40.3166227 C25.7273099,40.4155673 25.0433077,40.7255937 25.1756952,41.2005277" id="Path" fill="#FBB3B2"></path>
                    <path d="M27.6175096,40.9630607 L29.8680977,48.8126649 C30.4799326,50.6129157 30.8188464,52.4788266 30.8757138,54.3601583 C30.8989574,55.0464025 30.7295077,55.7268793 30.382938,56.3390501 C30.0125506,56.8417533 29.5381895,57.2761468 28.9855141,57.6187335 C27.4483478,58.6675462 26.3818927,61.1147757 24.6240805,61.8403694 C25.5287286,63.2519789 26.7790553,62.3350923 28.4118348,63.0408971 C31.2875862,64.2941953 33.920627,66.0949868 37.0390888,66.7150396 C39.9810339,67.2955145 43.0700763,66.7480211 45.9899568,66.055409 C50.1307445,65.0461741 54.2494677,63.6543536 57.5812205,61.2203166 C60.9129733,58.7862797 62.8105279,56.6358839 62.7959031,52.7902375 C59.1183868,53.1794195 55.8454729,49.848285 54.2200482,46.853562 C53.6564809,45.715193 53.241845,44.5221048 52.9844313,43.298153 L51.0133281,35.5211082 C48.8657081,35.9432718 47.1152508,37.3218997 45.0632441,38.0408971 C43.0112374,38.7598945 40.5841327,38.8258575 38.3041252,38.9182058 C34.2568793,39.083304 30.2320578,39.5510665 26.2715698,40.3166227 C25.7273099,40.4155673 25.0433077,40.7255937 25.1756952,41.2005277" id="Path" fill="#000000" opacity="0.1"></path>
                    <ellipse id="Oval" fill="#FBB3B2" cx="37.2817993" cy="27.823219" rx="19.4756766" ry="17.4670185"></ellipse>
                    <path d="M42.6434943,56.616095 C43.6850136,54.5986975 45.1886205,52.8006579 47.0564119,51.3390501 C49.7997757,49.182058 53.5507557,47.4340369 54.1979836,44.2150396 L60.1407128,50.4221636 C60.4636741,50.7099817 60.7144217,51.0563065 60.876199,51.4379947 C61.0277862,52.1620936 60.8240931,52.9096591 60.3172295,53.4894459 C58.8462569,55.5936675 56.5294751,57.0976253 54.337726,58.621372 C49.3141105,62.1901704 44.5046562,65.994966 39.9295499,70.0197889 C39.7279493,70.2297534 39.457754,70.3774582 39.1572893,70.4419525 C38.8730322,70.4489371 38.5932247,70.3775663 38.3556093,70.237467 C34.4082122,68.3786038 30.914877,65.8309031 28.080866,62.7440633 C27.867575,62.5131926 27.6027999,62.2493404 27.2571214,62.2691293 C27.048694,62.3034563 26.856541,62.3930705 26.7055067,62.5263852 C24.7270486,63.9775726 22.5647189,65.7124011 20.0272913,65.4881266 C23.3149149,63.3707124 25.1756952,59.8350923 25.8670523,56.2532982 C26.0037643,55.0274026 26.2848157,53.8179344 26.7055067,52.6451187 C27.1481187,51.4535399 28.2238558,50.5382272 29.5739031,50.2044855 C27.9705431,52.4010554 29.0664176,55.5145119 31.2213924,57.2889182 C33.315144,58.8828078 35.8253988,59.9744427 38.5174163,60.4617414 C41.0180696,60.883905 41.7535559,58.3443272 42.6434943,56.616095 Z" id="Path" fill="#323444"></path>
                    <path d="M17.3059921,159.835092 C20.0787753,160.448549 22.7044613,161.490765 25.3963411,162.262533 C30.3024824,163.640516 35.4657756,164.127139 40.5841327,163.693931 C42.1595199,163.662934 43.6915926,163.225525 44.9970503,162.434037 C45.3427289,162.183377 45.658988,161.886544 46.0267311,161.655673 C46.6418643,161.324576 47.3087154,161.077787 48.0051892,160.923483 C54.7495984,159.030343 60.3981329,154.94723 65.8775057,150.949868 C66.0540224,150.817942 66.2526037,150.653034 66.237894,150.441953 C66.2125962,150.298227 66.1350215,150.166037 66.0172481,150.065963 L63.1341419,147.097625 C55.573343,148.251979 47.8286725,147.816623 40.1575506,147.645119 C38.5826328,147.582395 37.0047383,147.619868 35.4357288,147.757256 C33.920627,147.915567 32.4275899,148.258575 30.9345528,148.548813 C25.2639536,149.656992 19.4683217,150.079156 13.7241739,150.804749 C13.3223065,150.831337 12.9324585,150.939613 12.5841702,151.121372 C12.3419551,151.289384 12.1352128,151.494909 11.9737166,151.728232 L9.95848417,154.26781 C9.17626895,155.122052 8.60024898,156.112597 8.26686574,157.176781 C7.79615452,159.155673 8.78170613,159.815303 10.6571961,159.558047 C12.8727661,159.267181 15.1300369,159.361238 17.3059921,159.835092 L17.3059921,159.835092 Z" id="Path" fill="#323444"></path>
                    <path d="M39.8486464,66.9986807 C37.5987132,64.9309598 35.0481002,63.1448506 32.2657829,61.6886544 C31.1417079,61.0483357 29.8947186,60.6009842 28.5883515,60.3693931 C27.2578538,60.1338343 25.8793167,60.4380946 24.8226618,61.2005277 C24.168079,61.7216359 23.7562067,62.4472296 23.1236885,62.994723 C22.327683,63.5944978 21.4151119,64.0573924 20.4318087,64.3601583 C17.0837955,65.64317 13.9103884,67.2654097 10.9734552,69.1952507 C9.3725235,70.1996466 7.9301902,71.3933752 6.68557024,72.7440633 C3.35381742,76.5699208 2.85368675,81.7744063 2.9419451,86.6292876 C3.00813887,90.0065963 6.61937648,92.5131926 9.10532009,95.0395778 C11.4369095,97.5256658 13.5469043,100.172347 15.4157923,102.955145 C16.7543774,104.854881 18.1518013,106.912929 17.9826394,109.175462 C17.842897,111.029024 16.6366996,112.770449 16.827926,114.617414 C16.8941197,115.277045 17.1294754,115.883905 17.1956691,116.523747 C17.3280567,117.843008 16.7470225,119.162269 16.5999252,120.48153 C16.4013439,122.348285 17.0779913,124.201847 17.1147656,126.081794 C17.0877683,127.36878 16.9052823,128.649349 16.5705058,129.901055 C15.1583721,135.930079 13.3858502,141.992084 13.7462385,148.146438 L9.67164452,148.806069 C10.4544527,149.494142 10.8250738,150.475451 10.6696584,151.44855 C10.514243,152.421649 9.85137372,153.270188 8.88467421,153.733509 C15.2466305,155.639842 22.1234272,154.676781 28.8678363,154.670185 C34.4501771,154.670185 40.0104534,155.329815 45.5854394,155.237467 C51.1604253,155.145119 56.911928,154.241425 61.5087172,151.411609 C62.7590439,150.646438 63.9064025,149.74934 65.2229229,149.083113 C66.9863488,148.263532 68.8866353,147.706572 70.8493929,147.434037 C74.4850657,146.812162 78.1806788,146.516071 81.8816871,146.550132 C83.6909833,146.550132 85.6620865,146.616095 87.1036396,145.639842 C88.69229,144.558047 89.0968074,142.598945 89.3100984,140.824538 C89.5233895,138.951187 89.655777,137.07124 89.6925513,135.191293 C89.7542078,133.727336 89.6680498,132.261377 89.4351311,130.811346 C89.2143508,129.751052 88.9270547,128.702773 88.5746122,127.671504 L85.8018289,118.911609 C84.6544703,115.296834 86.2504755,111.332454 86.5887992,107.585752 C86.6697027,106.701847 86.6844124,105.672823 85.9268616,105.105541 C85.6547317,104.901055 85.2796337,104.762533 85.1913753,104.44591 C85.1112771,104.142063 85.1751877,103.822032 85.367892,103.562005 C86.8388646,100.923483 89.0453234,98.5949868 91.0605558,96.2137203 C94.4452828,92.0367889 97.5875321,87.7060575 100.47478,83.2387863 C99.5706129,73.8907893 95.1815516,65.0885243 88.0156426,58.2519789 C86.54467,56.8205805 84.8604065,55.4485488 82.8010449,54.8021108 C81.4552743,54.4334873 80.0596488,54.231531 78.6529023,54.201847 C72.8866899,53.8522427 66.8851219,53.5422164 61.8617506,50.9432718 C61.5012413,50.7193067 61.093141,50.5643699 60.662908,50.4881266 C59.5523237,50.3759894 58.7432888,51.3588391 58.0225123,52.1372032 C56.1690869,54.116095 53.4404328,55.2506596 51.0427475,56.7084433 C46.570991,59.4327177 43.0774312,63.1794195 39.8486464,66.9986807 Z" id="Path" fill="#5B5583"></path>
                    <path d="M100.974911,85.9366755 C102.122269,89.1952507 102.011946,92.6781003 102.387044,96.0751979 C102.609196,98.1252292 103.010036,100.156507 103.585887,102.150396 C103.848803,103.246311 104.321615,104.293039 104.983311,105.244063 C105.645249,106.114776 106.594026,106.82058 107.013253,107.80343 C107.242412,108.469294 107.344366,109.165121 107.314802,109.861478 L107.403061,114.412929 C107.591865,116.824838 107.182438,119.244303 106.204218,121.497361 L103.034272,130.145119 C101.320589,134.828496 99.5627771,139.584433 96.4737348,143.66095 C96.0385303,144.350882 95.379157,144.905433 94.583535,145.25066 C93.9606499,145.398326 93.3221607,145.486764 92.6786256,145.514512 C90.3656316,145.884514 88.6713299,147.675322 88.6408059,149.782322 C87.9048032,148.817767 86.9863068,147.976142 85.9268616,147.295515 L79.4766469,142.6781 C77.2701881,141.068602 74.9681161,139.432718 72.290946,138.502639 C79.6474864,136.442158 84.9583334,130.686095 85.8386032,123.819261 C85.8362541,122.818635 86.0877629,121.830643 86.5740895,120.930079 C87.1109945,120.151715 88.1039009,119.558047 88.1774496,118.641161 C88.2657079,117.486807 86.8094451,116.616095 86.8094451,115.461741 C86.8094451,114.69657 87.4419633,114.063325 87.7214481,113.344327 C87.9826693,112.455817 87.9826693,111.521755 87.7214481,110.633245 L86.8315097,106.200528 C86.7790454,105.756382 86.6290653,105.325945 86.3902179,104.934037 C86.0572239,104.558319 85.6880609,104.209573 85.2869885,103.891821 C83.7571771,102.354881 84.4338244,99.9340369 85.2869885,98.0408971 C87.246166,93.8386819 89.7704209,89.8668685 92.8036583,86.2137203 C93.8833393,84.9869863 94.8828254,83.705153 95.7970874,82.3746702 C96.5767028,81.1609499 96.7532195,79.4788918 97.5769642,78.4168865 C98.6360644,80.9102902 100.070263,83.3707124 100.974911,85.9366755 Z" id="Path" fill="#5B5583"></path>
                    <path d="M72.0629453,138.773087 C71.7346606,138.991606 71.4509943,139.259406 71.2244909,139.564644 C70.3579378,140.540328 69.2036415,141.278483 67.8927381,141.695251 C68.6282244,142.170185 69.2975169,142.638522 69.988874,143.120053 C75.1041755,146.663123 79.7882042,150.680541 83.9631132,155.105541 C84.4264696,153.621372 87.1992528,153.726913 87.8759002,152.308707 C88.0352495,151.902782 88.0856451,151.468881 88.0229975,151.042216 C87.8824663,148.820193 87.5281149,146.613215 86.9638972,144.44591 C86.7411974,143.330089 86.2381608,142.274386 85.4929247,141.358839 C84.4632439,140.244063 82.8598838,139.709763 81.3300724,139.248021 C79.0132906,138.522427 74.4165014,137.5 72.0629453,138.773087 Z" id="Path" fill="#323444"></path>
                    <path d="M62.8693668,143.957784 C60.662908,145.422164 58.7285791,147.255937 56.2499904,148.258575 C54.499533,148.970976 52.5063652,149.281003 50.9765538,150.343008 C51.8076533,151.985488 53.9699829,152.836412 55.9778604,152.770449 C57.9875711,152.593394 59.9138439,151.960015 61.574911,150.930079 C62.8914314,150.204485 64.4359526,149.360158 65.8701508,149.868074 C66.0907967,150.870712 65.1346646,151.813984 65.1346646,152.829815 C65.1346646,153.845646 66.076087,154.584433 67.0027997,155.118734 C71.4157174,157.671504 77.0936714,157.460422 82.3523983,157.163588 C82.6540732,157.173643 82.9511284,157.094876 83.1982075,156.939314 C83.4284761,156.698313 83.5422765,156.385002 83.5144666,156.068602 C83.5806604,155.026385 83.6100798,153.990765 83.6174347,152.948549 C83.9209449,151.232911 83.089307,149.514848 81.4845245,148.542216 C78.6308166,146.342136 75.5527391,144.387621 72.290946,142.704485 C69.0548064,141.022427 65.7745376,142.01847 62.8693668,143.957784 Z" id="Path" fill="#FBB3B2"></path>
                    <path d="M44.1218217,20.5211082 C40.8562626,20.8707124 38.4806419,23.1596306 38.8116108,25.646438 C39.1425796,28.1332454 42.0551052,29.848285 45.3206643,29.4920844 C48.5862234,29.1358839 50.961844,26.853562 50.6308752,24.3733509 C50.2999064,21.8931398 47.3873807,20.171504 44.1218217,20.5211082 Z M45.2324059,28.8060686 C42.4669776,29.1029024 40.0030985,27.6451187 39.7162589,25.5474934 C39.4294192,23.4498681 41.4520065,21.5105541 44.21008,21.2137203 C46.9681536,20.9168865 49.4393874,22.3746702 49.7262271,24.4722955 C50.0130667,26.5699208 47.9904795,28.5092348 45.2324059,28.8060686 L45.2324059,28.8060686 Z" id="Shape" fill="#3C354C"></path>
                    <path d="M28.2058987,22.2361478 C24.9403396,22.585752 22.5647189,24.8746702 22.8956878,27.3548813 C23.2266566,29.8350923 26.1391822,31.5567282 29.4047413,31.207124 C32.6703004,30.8575198 35.045921,28.5686016 34.7149522,26.0817942 C34.3839834,23.5949868 31.4714577,21.8865435 28.2058987,22.2361478 Z M29.3164829,30.5145119 C26.5510545,30.8113456 24.0871755,29.353562 23.8076907,27.262533 C23.528206,25.171504 25.5360835,23.2255937 28.3015119,22.9221636 C31.0669403,22.6187335 33.5308193,24.0831135 33.8103041,26.1807388 C34.0897889,28.2783641 32.0745565,30.2176781 29.3164829,30.5145119 Z" id="Shape" fill="#3C354C"></path>
                    <polygon id="Path" fill="#3C354C" points="16.3866342 23.5092348 23.4840768 24.8680739 22.7853648 26.5435356 16.0924397 24.7823219"></polygon>
                    <polygon id="Path" fill="#3C354C" points="55.948441 19.2480211 49.4026131 22.0778364 50.5279071 23.555409 56.5662495 20.4221636"></polygon>
                    <polygon id="Path" fill="#3C354C" points="34.0603694 24.4459103 39.0396115 23.9116095 38.7821913 25.0197889 34.509016 25.2770449"></polygon>
                    <path d="M24.4034346,22.9485488 C24.8719531,22.0447843 25.1225741,21.0625276 25.1389209,20.0659631 C25.1563625,19.4694829 25.2703271,18.8784387 25.4772446,18.3113456 C25.8387811,17.5911089 26.3888089,16.9597757 27.0806047,16.4709763 C29.3753218,14.7295515 32.6629455,13.8324538 35.90644,13.707124 C39.4430938,13.561197 42.961219,14.2431733 46.1149895,15.6860158 C47.0783512,16.0908246 47.9412289,16.6650684 48.6524171,17.3746702 C49.6820979,18.5026385 49.9027438,19.9604222 50.9397794,21.0751979 C52.379278,22.4509707 54.5161483,23.0514346 56.5736043,22.6583113 C56.9339926,21.5105541 56.4632814,20.2968338 56.6471529,19.1226913 C56.9369567,18.116606 57.328383,17.1362992 57.8165761,16.1939314 C58.9565798,13.1794195 57.2943809,9.68337731 53.8670148,7.88258575 C52.6681722,7.22295515 51.2486837,6.79419525 50.3513904,5.90369393 C49.4540972,5.01319261 49.2408061,4.08970976 48.6229977,3.19920844 C46.9828633,0.844327177 42.7391075,-0.257255937 39.5103227,0.831134565 C38.4953517,1.17414248 37.5980584,1.69525066 36.5683776,2.0646438 C34.6561133,2.77044855 32.4790739,2.89577836 30.3755832,3.13324538 C28.3022324,3.30516155 26.27459,3.78207681 24.3740152,4.54485488 C22.5573641,5.34960422 21.0349075,6.64248021 20.6156803,8.18601583 C20.417099,8.89841689 20.4612282,9.63720317 20.2626469,10.3430079 C19.2476758,13.9248021 12.6944931,15.6662269 12.32675,19.3205805 C12.1943624,20.6398417 12.9960425,21.9063325 13.9963038,22.9815303 C14.6876609,23.7137203 16.342505,25.6728232 17.5119282,25.9564644 C18.6813514,26.2401055 19.5712898,25.2440633 20.6892289,24.9010554 C22.454396,24.4063325 23.5208511,24.3007916 24.4034346,22.9485488 Z" id="Path" fill="#CBCEDA"></path>
                </g>
                <path d="M579.829513,403 C579.829513,436.161716 603.121526,463 631.904011,463" id="Path" fill="#46455B"></path>
                <path d="M631.904011,463 C631.904011,429.28144 657.884473,402 689.987106,402" id="Path" fill="#2185D0"></path>
                <path d="M598.856734,406 C598.856734,437.506775 613.640849,463 631.904011,463" id="Path" fill="#2185D0"></path>
                <path d="M631.904011,463 C631.904011,420.442193 661.916365,386 699,386" id="Path" fill="#46455B"></path>
                <ellipse id="Oval" fill="#2185D0" opacity="0.1" cx="628.899713" cy="473" rx="13.0186246" ry="2"></ellipse>
                <path d="M620.888252,463.431419 C620.888252,463.431419 628.162359,463.234413 630.344591,461.874438 C632.526823,460.514462 641.524893,458.881221 642.070451,461.067349 C642.616009,463.253478 652.981611,471.940799 644.783693,471.997994 C636.585774,472.055189 625.710985,470.87951 623.528753,469.71654 C621.346521,468.55357 620.888252,463.431419 620.888252,463.431419 Z" id="Path" fill="#A8A8A8"></path>
                <path d="M644.929247,471.203569 C636.726512,471.263644 625.869523,470.02877 623.680673,468.807246 C622.015401,467.879421 621.353656,464.535249 621.128226,463 L620.888252,463 C620.888252,463 621.346384,468.380046 623.535234,469.60157 C625.724084,470.823094 636.581073,472.057968 644.783808,471.997893 C647.154457,471.997893 647.968913,471.203569 647.925281,470.062145 C647.598045,470.756344 646.732685,471.190219 644.929247,471.203569 Z" id="Path" fill="#000000" opacity="0.2"></path>
                <path d="M17.0243553,422 C17.0243553,448.548673 35.3858001,470 58.0830946,470" id="Path" fill="#46455B"></path>
                <path d="M58.0830946,470 C58.0830946,443.469711 78.6975307,422 104.148997,422" id="Path" fill="#2185D0"></path>
                <path d="M32.0458453,425 C32.0458453,449.89083 43.6988799,470 58.0830946,470" id="Path" fill="#2185D0"></path>
                <path d="M58.0830946,470 C58.0830946,435.732477 81.8248863,408 111.159026,408" id="Path" fill="#46455B"></path>
                <ellipse id="Oval" fill="#2185D0" opacity="0.1" cx="55.5795129" cy="477.5" rx="10.515043" ry="1.5"></ellipse>
                <path d="M49.0702006,470.896868 C49.0702006,470.896868 54.9887759,470.730634 56.7680709,469.566994 C58.5473658,468.403353 65.8804435,467.073478 66.3196836,468.902056 C66.7589238,470.730634 75.2161585,477.951855 68.5531083,477.998401 C61.8900581,478.044946 53.0233622,477.067488 51.2440672,476.103329 C49.4647723,475.13917 49.0702006,470.896868 49.0702006,470.896868 Z" id="Path" fill="#A8A8A8"></path>
                <path d="M68.65744,476.384752 C61.9545824,476.430451 53.1217056,475.47078 51.3417245,474.517637 C49.9862578,473.799515 49.4500292,471.194693 49.2638387,470 L49.0702006,470 C49.0702006,470 49.4425815,474.184689 51.2225626,475.137832 C53.0025437,476.090975 61.8577633,477.044118 68.538278,476.99842 C70.4672115,476.99842 71.1374973,476.384752 71.1002592,475.490365 C70.8321449,476.012635 70.0948305,476.345582 68.65744,476.384752 Z" id="Path" fill="#000000" opacity="0.2"></path>
            </g>
        </g>
    </g>
</svg>