<?xml version="1.0" encoding="UTF-8"?>
<svg width="626px" height="500px" viewBox="0 0 626 500" version="1.1" xmlns="http://www.w3.org/2000/svg" xmlns:xlink="http://www.w3.org/1999/xlink">
    <!-- Generator: Sketch 61 (89581) - https://sketch.com -->
    <title>educators-1</title>
    <desc>Created with Sketch.</desc>
    <g id="Assets" stroke="none" stroke-width="1" fill="none" fill-rule="evenodd">
        <g id="educators-1" fill-rule="nonzero">
            <rect id="Rectangle" fill="#0093EC" opacity="0.1" x="127.882586" y="85.7519789" width="56.7282322" height="17.1503958" rx="7.43"></rect>
            <rect id="Rectangle" fill="#0093EC" opacity="0.1" x="187.24934" y="102.902375" width="56.7282322" height="17.1503958" rx="7.43"></rect>
            <rect id="Rectangle" fill="#0093EC" opacity="0.1" x="246.616095" y="120.05277" width="56.7282322" height="17.1503958" rx="7.43"></rect>
            <rect id="Rectangle" fill="#0093EC" opacity="0.1" x="127.882586" y="60.0263852" width="56.7282322" height="17.1503958" rx="7.43"></rect>
            <rect id="Rectangle" fill="#0093EC" opacity="0.1" x="187.24934" y="77.176781" width="56.7282322" height="17.1503958" rx="7.43"></rect>
            <rect id="Rectangle" fill="#0093EC" opacity="0.1" x="246.616095" y="94.3271768" width="56.7282322" height="17.1503958" rx="7.43"></rect>
            <rect id="Rectangle" fill="#0093EC" opacity="0.1" x="312.579156" y="85.7519789" width="56.7282322" height="17.1503958" rx="7.43"></rect>
            <rect id="Rectangle" fill="#0093EC" opacity="0.1" x="371.94591" y="102.902375" width="56.7282322" height="17.1503958" rx="7.43"></rect>
            <rect id="Rectangle" fill="#0093EC" opacity="0.1" x="431.312665" y="120.05277" width="56.7282322" height="17.1503958" rx="7.43"></rect>
            <rect id="Rectangle" fill="#0093EC" opacity="0.1" x="312.579156" y="60.0263852" width="56.7282322" height="17.1503958" rx="7.43"></rect>
            <rect id="Rectangle" fill="#0093EC" opacity="0.1" x="371.94591" y="77.176781" width="56.7282322" height="17.1503958" rx="7.43"></rect>
            <rect id="Rectangle" fill="#0093EC" opacity="0.1" x="431.312665" y="94.3271768" width="56.7282322" height="17.1503958" rx="7.43"></rect>
            <rect id="Rectangle" fill="#0093EC" opacity="0.1" x="127.882586" y="25.7255937" width="56.7282322" height="17.1503958" rx="7.43"></rect>
            <rect id="Rectangle" fill="#0093EC" opacity="0.1" x="187.24934" y="42.8759894" width="56.7282322" height="17.1503958" rx="7.43"></rect>
            <rect id="Rectangle" fill="#0093EC" opacity="0.1" x="246.616095" y="60.0263852" width="56.7282322" height="17.1503958" rx="7.43"></rect>
            <rect id="Rectangle" fill="#0093EC" opacity="0.1" x="127.882586" y="0" width="56.7282322" height="17.1503958" rx="7.43"></rect>
            <rect id="Rectangle" fill="#0093EC" opacity="0.1" x="187.24934" y="17.1503958" width="56.7282322" height="17.1503958" rx="7.43"></rect>
            <rect id="Rectangle" fill="#0093EC" opacity="0.1" x="246.616095" y="34.3007916" width="56.7282322" height="17.1503958" rx="7.43"></rect>
            <rect id="Rectangle" fill="#0093EC" opacity="0.1" x="312.579156" y="25.7255937" width="56.7282322" height="17.1503958" rx="7.43"></rect>
            <rect id="Rectangle" fill="#0093EC" opacity="0.1" x="371.94591" y="42.8759894" width="56.7282322" height="17.1503958" rx="7.43"></rect>
            <rect id="Rectangle" fill="#0093EC" opacity="0.1" x="431.312665" y="60.0263852" width="56.7282322" height="17.1503958" rx="7.43"></rect>
            <rect id="Rectangle" fill="#0093EC" opacity="0.1" x="312.579156" y="0" width="56.7282322" height="17.1503958" rx="7.43"></rect>
            <rect id="Rectangle" fill="#0093EC" opacity="0.1" x="371.94591" y="17.1503958" width="56.7282322" height="17.1503958" rx="7.43"></rect>
            <rect id="Rectangle" fill="#0093EC" opacity="0.1" x="431.312665" y="34.3007916" width="56.7282322" height="17.1503958" rx="7.43"></rect>
            <rect id="Rectangle" fill="#0093EC" opacity="0.1" x="127.882586" y="391.16095" width="56.7282322" height="17.1503958" rx="7.43"></rect>
            <rect id="Rectangle" fill="#0093EC" opacity="0.1" x="187.24934" y="408.311346" width="56.7282322" height="17.1503958" rx="7.43"></rect>
            <rect id="Rectangle" fill="#0093EC" opacity="0.1" x="246.616095" y="425.461741" width="56.7282322" height="17.1503958" rx="7.43"></rect>
            <rect id="Rectangle" fill="#0093EC" opacity="0.1" x="127.882586" y="365.435356" width="56.7282322" height="17.1503958" rx="7.43"></rect>
            <rect id="Rectangle" fill="#0093EC" opacity="0.1" x="187.24934" y="382.585752" width="56.7282322" height="17.1503958" rx="7.43"></rect>
            <rect id="Rectangle" fill="#0093EC" opacity="0.1" x="246.616095" y="399.736148" width="56.7282322" height="17.1503958" rx="7.43"></rect>
            <rect id="Rectangle" fill="#0093EC" opacity="0.1" x="312.579156" y="391.16095" width="56.7282322" height="17.1503958" rx="7.43"></rect>
            <rect id="Rectangle" fill="#0093EC" opacity="0.1" x="371.94591" y="408.311346" width="56.7282322" height="17.1503958" rx="7.43"></rect>
            <rect id="Rectangle" fill="#0093EC" opacity="0.1" x="431.312665" y="425.461741" width="56.7282322" height="17.1503958" rx="7.43"></rect>
            <rect id="Rectangle" fill="#0093EC" opacity="0.1" x="312.579156" y="365.435356" width="56.7282322" height="17.1503958" rx="7.43"></rect>
            <rect id="Rectangle" fill="#0093EC" opacity="0.1" x="371.94591" y="382.585752" width="56.7282322" height="17.1503958" rx="7.43"></rect>
            <rect id="Rectangle" fill="#0093EC" opacity="0.1" x="431.312665" y="399.736148" width="56.7282322" height="17.1503958" rx="7.43"></rect>
            <rect id="Rectangle" fill="#0093EC" opacity="0.1" x="127.882586" y="331.134565" width="56.7282322" height="17.1503958" rx="7.43"></rect>
            <rect id="Rectangle" fill="#0093EC" opacity="0.1" x="187.24934" y="348.28496" width="56.7282322" height="17.1503958" rx="7.43"></rect>
            <rect id="Rectangle" fill="#0093EC" opacity="0.1" x="246.616095" y="365.435356" width="56.7282322" height="17.1503958" rx="7.43"></rect>
            <rect id="Rectangle" fill="#0093EC" opacity="0.1" x="127.882586" y="305.408971" width="56.7282322" height="17.1503958" rx="7.43"></rect>
            <rect id="Rectangle" fill="#0093EC" opacity="0.1" x="187.24934" y="322.559367" width="56.7282322" height="17.1503958" rx="7.43"></rect>
            <rect id="Rectangle" fill="#0093EC" opacity="0.1" x="246.616095" y="339.709763" width="56.7282322" height="17.1503958" rx="7.43"></rect>
            <rect id="Rectangle" fill="#0093EC" opacity="0.1" x="312.579156" y="331.134565" width="56.7282322" height="17.1503958" rx="7.43"></rect>
            <rect id="Rectangle" fill="#0093EC" opacity="0.1" x="371.94591" y="348.28496" width="56.7282322" height="17.1503958" rx="7.43"></rect>
            <rect id="Rectangle" fill="#0093EC" opacity="0.1" x="431.312665" y="365.435356" width="56.7282322" height="17.1503958" rx="7.43"></rect>
            <rect id="Rectangle" fill="#0093EC" opacity="0.1" x="312.579156" y="305.408971" width="56.7282322" height="17.1503958" rx="7.43"></rect>
            <rect id="Rectangle" fill="#0093EC" opacity="0.1" x="371.94591" y="322.559367" width="56.7282322" height="17.1503958" rx="7.43"></rect>
            <rect id="Rectangle" fill="#0093EC" opacity="0.1" x="431.312665" y="339.709763" width="56.7282322" height="17.1503958" rx="7.43"></rect>
            <ellipse id="Oval" fill="#0093EC" opacity="0.1" cx="318.186016" cy="476.253298" rx="289.248021" ry="23.7467018"></ellipse>
            <path d="M55.8377309,123.218997 C83.1134565,135.039578 98.7862797,159.498681 98.7862797,159.498681 C98.7862797,159.498681 70.2308707,164.775726 42.9485488,152.961741 C15.6662269,141.147757 -9.37391472e-15,116.682058 -9.37391472e-15,116.682058 C-9.37391472e-15,116.682058 28.555409,111.398417 55.8377309,123.218997 Z" id="Path" fill="#0093EC"></path>
            <path d="M139.544855,77.8364116 C147.98153,63.9841689 162.348285,57.3878628 162.348285,57.3878628 C162.348285,57.3878628 163.007916,73.1794195 154.597625,86.9920844 C146.187335,100.804749 131.787599,107.394459 131.787599,107.394459 C131.787599,107.394459 131.101583,91.6094987 139.544855,77.8364116 Z" id="Path" fill="#0093EC"></path>
            <path d="M77.5263852,92.6583113 C83.5620053,114.201847 100.197889,128.383905 100.197889,128.383905 C100.197889,128.383905 107.051451,107.62533 101.015831,86.0751979 C94.9802111,64.525066 78.3377309,50.3496042 78.3377309,50.3496042 C78.3377309,50.3496042 71.4841689,71.1081794 77.5263852,92.6583113 Z" id="Path" fill="#46455B"></path>
            <rect id="Rectangle" fill="#3F3D56" x="78.4102902" y="91.6886544" width="480.870712" height="240.765172" rx="7.21"></rect>
            <path d="M78.4102902,317.941953 L559.281003,317.941953 L559.281003,327.697889 C559.281003,330.32452 557.151697,332.453826 554.525066,332.453826 L83.1662269,332.453826 C80.5395956,332.453826 78.4102902,330.32452 78.4102902,327.697889 L78.4102902,317.941953 Z" id="Path" fill="#000000" opacity="0.1"></path>
            <rect id="Rectangle" fill="#0093EC" x="125.244063" y="300.131926" width="35.6200528" height="17.8100264" rx="2.5"></rect>
            <rect id="Rectangle" fill="#0093EC" x="170.758575" y="315.30343" width="24.4063325" height="2.63852243" rx="1.31926121"></rect>
            <path d="M149.08971,138.773087 C166.497361,141.985488 184.254617,138.773087 201.58971,136.596306 L254.274406,130 C256.405013,129.729551 259.505277,128.456464 260.758575,131.062005 C261.46438,132.519789 260.989446,135.67942 261.042216,137.354881 C261.180739,141.972296 261.167546,146.58971 261.042216,151.207124 C260.804749,160.032982 260.158311,168.83905 259.333773,177.62533 C257.730871,194.8219 255.461741,211.926121 254.327177,229.188654 C253.746702,237.974934 253.456464,246.787599 253.71372,255.573879 C253.773087,257.671504 253.858839,259.769129 253.984169,261.860158 C254.122691,264.201847 255.171504,267.6781 252.618734,269.241425 C251.16095,270.138522 248.291557,270.092348 246.622691,270.356201 C243.984169,270.771768 241.345646,271.101583 238.654354,271.372032 C220.916887,273.146438 202.948549,272.407652 185.145119,272.302111 L131.385224,272.025066 L118.271768,271.952507 C117.084433,271.952507 112.80343,272.664908 112.07124,271.253298 C111.761214,270.653034 112.585752,267.843008 112.730871,267.091029 C112.933157,265.850923 113.153034,264.613017 113.390501,263.377309 C114.920844,254.703166 116.728232,246.081794 118.548813,237.467018 C122.460422,218.997361 126.46438,200.435356 128.073879,181.569921 C128.872032,172.104222 128.344327,162.55277 129.32058,153.10686 C129.775726,148.720317 130.316623,138.931398 136.154354,138.542216 C141.101583,138.212401 146.193931,138.542216 151.154354,138.542216 C151.700809,138.542216 152.143799,138.099226 152.143799,137.55277 C152.143799,137.006315 151.700809,136.563325 151.154354,136.563325 C146.470976,136.563325 141.781003,136.437995 137.097625,136.530343 C133.984169,136.58971 131.82058,137.328496 130.336412,140.191293 C126.543536,147.539578 126.932718,157.341689 126.813984,165.362797 C126.530343,184.564644 123.581794,203.35752 119.742744,222.137203 C117.810026,231.58971 115.725594,241.009235 113.806069,250.468338 C112.902375,254.986807 112.038259,259.51847 111.246702,264.063325 C110.877309,266.226913 109.010554,270.996042 110.653034,272.98153 C112.295515,274.967018 117.348285,273.898417 119.610818,273.911609 L135.349604,274.003958 L165.507916,274.175462 C184.993404,274.287599 204.544855,274.835092 224.023747,274.261214 C233.324538,273.984169 243.153034,273.601583 252.209763,271.378628 C254.907652,270.718997 256.207124,269.478892 256.312665,266.602902 C256.470976,262.143799 255.745383,257.546174 255.653034,253.067282 C254.993404,214.742744 263.997361,176.952507 263.073879,138.614776 C263.014512,136.009235 263.997361,129.439314 261.147757,127.862797 C259.868074,127.150396 258.205805,127.539578 256.860158,127.697889 C254.287599,127.994723 251.721636,128.35752 249.149077,128.66095 L215.738786,132.829815 C205.059367,134.149077 194.386544,135.573879 183.687335,136.787599 C172.361478,138.10686 160.923483,138.891821 149.637203,136.787599 C148.390501,136.556728 147.856201,138.463061 149.109499,138.693931 L149.08971,138.773087 Z" id="Path" fill="#0093EC"></path>
            <path d="M128.087071,162.091029 L259.894459,155.626649 C261.167546,155.560686 261.174142,153.581794 259.894459,153.647757 L128.087071,160.112137 C126.82058,160.171504 126.813984,162.150396 128.087071,162.091029 Z" id="Path" fill="#0093EC"></path>
            <path d="M168.693931,145.778364 C167.945529,146.571502 167.637547,147.683297 167.871172,148.74847 C168.104797,149.813642 168.849826,150.69448 169.861478,151.101583 C171.635884,151.912929 173.720317,151.233509 175.48153,150.791557 C178.120053,150.131926 180.758575,149.544855 183.469657,149.063325 C189.370265,148.018706 195.347005,147.46273 201.33905,147.401055 C204.069921,147.368074 206.781003,147.493404 209.511873,147.612137 C211.490765,147.691293 213.621372,147.849604 215.296834,146.622691 C217.209763,145.224274 217.829815,142.493404 215.956464,140.791557 C213.317942,138.383905 207.631926,139.782322 204.584433,140.032982 C193.52628,140.951616 182.53987,142.590984 171.695251,144.940633 C170.455145,145.204485 170.976253,147.117414 172.222955,146.846966 C179.377748,145.30343 186.587511,144.063325 193.852243,143.126649 C197.423043,142.686895 201.00044,142.315303 204.584433,142.011873 C206.273087,141.873351 207.961741,141.748021 209.650396,141.649077 C210.310026,141.609499 211.009235,141.536939 211.682058,141.556728 C213.773087,141.602902 214.01715,141.226913 212.763852,143.753298 C211.649077,145.989446 212.005277,145.73219 210.072559,145.659631 C209.254617,145.659631 208.436675,145.567282 207.618734,145.527704 C205.943272,145.457344 204.26781,145.419965 202.592348,145.415567 C199.025945,145.415567 195.468338,145.587071 191.919525,145.930079 C188.911609,146.220317 185.91029,146.629288 182.935356,147.156992 C181.075198,147.486807 179.228232,147.869393 177.387863,148.291557 C176.576517,148.48285 175.758575,148.680739 174.94723,148.885224 C174.558047,148.990765 174.162269,149.083113 173.773087,149.182058 C172.330695,149.683377 171.101583,149.023747 170.085752,147.203166 C170.969657,146.28628 169.577836,144.881266 168.687335,145.804749 L168.693931,145.778364 Z" id="Path" fill="#0093EC"></path>
            <path d="M192.585752,173.931398 C183.040897,173.562005 172.730871,176.141161 166.444591,183.825858 C161.523747,189.835092 158.720317,200.145119 163.931398,206.912929 C169.531662,214.168865 181.813984,212.889182 189.221636,209.795515 C197.058047,206.497361 205.633245,199.69657 207.988127,191.187335 C210.923483,180.560686 201.391821,172.526385 191.46438,172.407652 C190.191293,172.407652 190.191293,174.386544 191.46438,174.386544 C197.124011,174.452507 202.6781,176.879947 205.316623,182.150396 C208.080475,187.704485 205.699208,193.53562 202.01847,197.98153 C196.121372,205.059367 186.899736,210.395778 177.506596,210.244063 C171.866755,210.158311 165.633245,208.225594 163.885224,202.275726 C162.44723,197.453826 163.542216,192.183377 166.048813,187.908971 C171.470976,178.674142 182.506596,175.547493 192.62533,175.943272 C193.898417,175.989446 193.898417,174.010554 192.62533,173.96438 L192.585752,173.931398 Z" id="Path" fill="#0093EC"></path>
            <path d="M183.10686,188.588391 C182.279708,188.281887 181.353193,188.420557 180.652024,188.9558 C179.950854,189.491044 179.572816,190.348217 179.650396,191.226913 C179.848285,193.799472 182.684697,194.525066 184.815303,194.373351 C186.655673,194.21504 188.806069,193.53562 188.159631,191.233509 C187.918947,190.409023 187.331462,189.730044 186.550132,189.373351 C185.959873,189.139178 185.319569,189.059708 184.689974,189.14248 C184.44591,189.14248 182.209763,189.960422 183.159631,188.977573 L181.602902,188.773087 C181.952841,189.11822 182.127492,189.603361 182.077836,190.092348 C182.083904,190.443071 182.274006,190.764747 182.578314,190.939217 C182.882622,191.113687 183.256269,191.115227 183.562005,190.943272 C184.023626,190.750042 184.554836,190.834633 184.933606,191.161689 C185.312375,191.488745 185.473488,192.001952 185.349604,192.486807 C185.239912,192.958544 185.485448,193.440809 185.931447,193.629627 C186.377447,193.818444 186.894622,193.659078 187.156992,193.251979 C187.816623,192.064644 188.614776,189.703166 187.62533,188.463061 C186.965699,187.62533 185.692612,187.875989 184.901055,188.364116 C184.412506,188.709835 183.957556,189.100739 183.542216,189.531662 C182.744063,190.237467 182.222955,190.567282 182.519789,189.21504 C183.014512,186.754617 185.362797,184.795515 187.506596,183.812665 L186.055409,182.697889 C185.294594,185.556981 183.934228,188.2215 182.064644,190.514512 L183.753298,191.21372 C183.655147,189.358024 184.731744,187.640218 186.444591,186.919525 L185.474934,186.919525 L185.989446,187.763852 C185.798153,189.010554 187.704485,189.544855 187.895778,188.28496 C188.146438,186.655673 187.117414,184.538259 185.211082,185.336412 C182.935356,186.28628 181.754617,188.891821 181.800792,191.21372 C181.800792,192.005277 182.922164,192.618734 183.496042,191.919525 C185.593835,189.370969 187.125125,186.405077 187.988127,183.218997 C188.081824,182.832746 187.938521,182.427611 187.6228,182.186178 C187.30708,181.944745 186.878552,181.912596 186.530343,182.104222 C184.554331,182.997424 182.884426,184.451709 181.728232,186.28628 C180.923483,187.605541 179.914248,189.663588 180.73219,191.180739 C181.002992,191.671034 181.458634,192.032662 181.997613,192.185063 C182.536591,192.337464 183.114134,192.267978 183.601583,191.992084 C184.211454,191.630471 184.768585,191.186542 185.257256,190.672823 C185.501319,190.455145 185.771768,190.079156 186.094987,190.013193 C186.385224,189.815303 186.372032,189.927441 186.048813,190.362797 C186.044528,191.046339 185.845454,191.714494 185.474934,192.288918 L187.282322,193.047493 C187.615005,191.789272 187.176664,190.453062 186.163321,189.636402 C185.149978,188.819742 183.751139,188.675355 182.592348,189.26781 L184.083113,190.12533 C184.114317,189.285919 183.850595,188.462082 183.337731,187.796834 C183.180054,187.536991 182.913021,187.362699 182.61169,187.322949 C182.310359,187.283198 182.007264,187.382282 181.787599,187.592348 C180.78496,188.641161 180.593668,190.455145 181.853562,191.424802 C182.796834,192.143799 183.258575,191.424802 184.294195,191.259894 C187.810026,190.804749 185.758575,192.387863 184.51847,192.440633 C183.963914,192.500097 183.403193,192.459885 182.862797,192.3219 C181.486368,191.855761 181.400616,191.255497 182.605541,190.521108 C183.78628,191.002639 184.294195,189.08971 183.133245,188.614776 L183.10686,188.588391 Z" id="Path" fill="#0093EC"></path>
            <path d="M181.51715,192.203166 C182.328496,194.841689 178.977573,195.712401 177.387863,196.622691 C176.272287,197.248312 175.299497,198.099784 174.531662,199.122691 C172.869393,201.352243 172.24934,204.188654 171.701847,206.860158 C171.451187,208.10686 173.35752,208.634565 173.614776,207.387863 C173.916548,205.424801 174.477744,203.510522 175.283641,201.695251 C176.470976,199.333773 178.172823,198.542216 180.389182,197.328496 C182.605541,196.114776 184.208443,194.234828 183.423483,191.675462 C183.05409,190.461741 181.141161,190.98285 181.51715,192.203166 L181.51715,192.203166 Z" id="Path" fill="#0093EC"></path>
            <path d="M184.815303,190.877309 C183.837302,191.012537 183.122877,191.869846 183.166227,192.856201 C183.166227,193.641161 183.687335,194.14248 184.043536,194.769129 C184.889064,196.051239 185.534123,197.454797 185.956464,198.931398 C186.273087,200.349604 186.583113,202.889182 185.844327,204.208443 C184.478892,206.655673 182.011873,206.187335 179.907652,206.187335 C177.92876,206.187335 176.398417,206.846966 176.46438,204.08971 C176.503958,202.539578 177.585752,200.969657 178.443272,199.74934 L176.635884,199.511873 C177.017154,201.52604 177.218038,203.570197 177.236148,205.620053 C177.236148,206.536939 178.641161,207.044855 179.076517,206.114776 C180.136985,203.883947 180.978654,201.555551 181.58971,199.162269 L179.643799,198.898417 L179.986807,203.911609 C179.998508,204.350901 180.296714,204.730616 180.720712,204.846114 C181.14471,204.961611 181.594297,204.785596 181.827177,204.412929 C182.058208,204.157972 182.227481,203.85328 182.3219,203.522427 C182.387863,203.212401 181.781003,201.121372 181.536939,201.866755 L183.476253,202.130607 L183.614776,197.368074 L181.635884,197.631926 C182.054181,198.974914 182.180134,200.391887 182.005277,201.787599 C181.879947,202.889182 183.733509,203.139842 183.984169,202.051451 L185.224274,195.653034 L183.416887,195.883905 C183.846309,196.768908 183.964828,197.772839 183.753298,198.733509 C183.608179,200 185.587071,199.986807 185.73219,198.733509 C185.900267,197.419992 185.689724,196.085793 185.12533,194.887863 C184.920436,194.550442 184.535604,194.365866 184.144209,194.41729 C183.752814,194.468714 183.428721,194.746433 183.317942,195.12533 L182.07124,201.523747 L184.01715,201.787599 C184.215041,200.215132 184.064149,198.618379 183.575198,197.110818 C183.438623,196.641392 182.979676,196.342083 182.495031,196.406373 C182.010387,196.470662 181.645347,196.879275 181.635884,197.368074 L181.497361,202.130607 C181.497361,203.28496 183.100264,203.449868 183.443272,202.394459 L183.548813,202.07124 C183.641708,201.728482 183.546363,201.362156 183.298153,201.108179 C181.246702,198.878628 180.831135,202.427441 180.118734,203.41029 L181.965699,203.911609 L181.622691,198.898417 C181.550132,197.829815 179.967018,197.5 179.676781,198.634565 C179.119285,200.865702 178.346075,203.037318 177.368074,205.118734 L179.21504,205.620053 C179.193754,203.392832 178.972995,201.171996 178.555409,198.984169 C178.383905,198.073879 177.189974,198.113456 176.748021,198.746702 C175.42876,200.646438 173.146438,204.795515 174.907652,207.07124 C176.444591,209.050132 181.279683,208.28496 183.344327,208.159631 C186.602902,207.974934 187.783641,205.91029 188.139842,202.836412 C188.309532,201.364438 188.226994,199.874308 187.895778,198.430079 C187.717678,197.651715 185.916887,192.717678 185.375989,192.816623 C186.629288,192.585752 186.094987,190.672823 184.848285,190.903694 L184.815303,190.877309 Z" id="Path" fill="#0093EC"></path>
            <path d="M180.98285,195.323219 L175.580475,202.453826 L177.288918,203.449868 L181.246702,197.724274 L179.439314,196.959103 L177.467018,204.485488 C177.357326,204.957224 177.602862,205.43949 178.048862,205.628307 C178.494861,205.817125 179.012037,205.657759 179.274406,205.25066 C180.171889,203.763538 181.179548,202.345761 182.288918,201.009235 L180.639842,200.046174 C180.196959,201.750262 179.343108,203.319808 178.153034,204.617414 L179.808707,205.580475 C179.910041,204.668993 180.15261,203.778834 180.527704,202.941953 C181.03562,201.800792 179.426121,200.791557 178.819261,201.939314 C178.261149,202.984728 177.623844,203.985892 176.912929,204.934037 L178.720317,205.171504 L179.122691,203.291557 L177.315303,203.05409 L177.605541,204.703166 C177.702461,205.040705 177.969968,205.302263 178.309601,205.391569 C178.649234,205.480875 179.010798,205.38473 179.261214,205.138522 C180.934229,203.407244 182.275665,201.383912 183.218997,199.168865 L181.51715,199.168865 C181.964564,199.99374 182.27848,200.884284 182.44723,201.807388 C182.684697,202.994723 184.261214,202.55277 184.386544,201.543536 C184.669876,199.333975 184.815277,197.108909 184.8219,194.881266 L182.843008,194.881266 L182.843008,199.030343 C182.843008,200.105541 184.604222,200.422164 184.788918,199.294195 C184.91956,198.293477 185.24926,197.329048 185.758575,196.457784 L184.023747,196.457784 C184.441843,197.132204 184.669766,197.907141 184.683377,198.700528 C184.683377,199.246984 185.126367,199.689974 185.672823,199.689974 C186.219279,199.689974 186.662269,199.246984 186.662269,198.700528 L186.912929,197.381266 L185.006596,197.381266 C185.197889,198.548813 185.923483,205.12533 183.344327,204.353562 C182.908971,204.248021 182.783641,204.274406 182.968338,204.426121 L183.555409,203.172823 L184.934037,200.25066 L183.087071,199.74934 C183.205805,201.108179 183.331135,203.047493 182.513193,204.208443 C181.853562,205.151715 179.8219,205.527704 178.78628,204.973615 C178.102602,204.486214 177.518263,203.87277 177.064644,203.166227 L175.712401,204.485488 C176.807388,205.283641 178.581794,207.242744 179.993404,207.354881 C181.068602,207.440633 181.972296,206.550132 182.6781,205.837731 C184.865925,203.576854 186.031696,200.518196 185.903694,197.37467 C185.903694,196.828214 185.460704,196.385224 184.914248,196.385224 C184.367792,196.385224 183.924802,196.828214 183.924802,197.37467 L183.924802,199.630607 C183.924802,200.177063 184.367792,200.620053 184.914248,200.620053 C185.460704,200.620053 185.903694,200.177063 185.903694,199.630607 L185.903694,194.096306 C185.903694,193.54985 185.460704,193.10686 184.914248,193.10686 C184.367792,193.10686 183.924802,193.54985 183.924802,194.096306 C183.921211,195.422832 183.806474,196.746725 183.581794,198.05409 L185.527704,198.317942 C185.372767,196.741885 185.300109,195.158821 185.310026,193.575198 C185.303636,193.085233 184.939587,192.673747 184.454054,192.607688 C183.968521,192.54163 183.507771,192.840898 183.370712,193.311346 C183.073879,194.57124 182.711082,195.811346 182.361478,197.044855 L184.168865,196.807388 L184.030343,196.279683 C183.937995,195.019789 181.959103,195.013193 182.051451,196.279683 C182.073171,196.813728 182.212836,197.336343 182.460422,197.810026 C182.843008,198.614776 184.036939,198.331135 184.26781,197.572559 C184.643799,196.332454 184.980211,195.092348 185.277045,193.83905 L183.331135,193.575198 C183.321218,195.158821 183.393876,196.741885 183.548813,198.317942 C183.647757,199.333773 185.283641,199.769129 185.488127,198.581794 C185.751603,197.091973 185.890605,195.582804 185.903694,194.069921 L183.924802,194.069921 L183.924802,199.604222 L185.903694,199.604222 L185.903694,197.348285 L183.924802,197.348285 C184.041175,199.836689 183.176697,202.271438 181.51715,204.129288 C181.260099,204.421533 180.982336,204.694887 180.686016,204.94723 C180.217678,205.395778 179.788918,205.329815 179.412929,204.742744 C178.476253,204.353562 177.506596,203.350923 176.688654,202.763852 C175.870712,202.176781 174.74934,203.337731 175.329815,204.116095 C176.846966,206.134565 179.109499,208.383905 181.926121,207.414248 C184.887863,206.365435 185.290237,202.354881 185.065963,199.716359 C184.993404,198.83905 183.680739,198.245383 183.225594,199.221636 C182.565963,200.613456 181.906332,201.998681 181.246702,203.397098 C181.015831,203.885224 180.587071,204.558047 180.653034,205.138522 C180.870712,206.622691 182.671504,206.378628 183.779683,206.292876 C188.073879,205.969657 187.394459,199.881266 186.899736,196.82058 C186.734828,195.804749 185.257256,195.963061 184.993404,196.82058 C184.783798,197.423116 184.674605,198.055994 184.670185,198.693931 L186.649077,198.693931 C186.577371,197.5597 186.260021,196.454602 185.718997,195.455145 C185.539017,195.155016 185.214733,194.971358 184.864776,194.971358 C184.514818,194.971358 184.190534,195.155016 184.010554,195.455145 C183.420686,196.473436 183.022713,197.591338 182.836412,198.753298 L184.815303,199.01715 L184.815303,194.868074 C184.815303,194.321618 184.372313,193.878628 183.825858,193.878628 C183.279402,193.878628 182.836412,194.321618 182.836412,194.868074 C182.829789,197.095716 182.684388,199.320783 182.401055,201.530343 L184.346966,201.266491 C184.123078,200.188096 183.743089,199.148124 183.218997,198.17942 C183.039017,197.87929 182.714733,197.695633 182.364776,197.695633 C182.014818,197.695633 181.690534,197.87929 181.510554,198.17942 C180.650311,200.245284 179.41336,202.133144 177.862797,203.746702 L179.51847,204.182058 L179.228232,202.532982 C179.076517,201.655673 177.836412,201.629288 177.420844,202.295515 C176.758181,203.298054 176.540836,204.530469 176.82058,205.699208 C176.985488,206.635884 178.172823,206.536939 178.627968,205.936675 C179.338832,204.990807 179.976143,203.991838 180.534301,202.948549 L178.825858,201.94591 C178.36972,202.931542 178.058667,203.978013 177.902375,205.05277 C177.783641,205.923483 178.819261,206.833773 179.558047,206.015831 C180.976103,204.464165 182.002855,202.59611 182.55277,200.567282 C182.796834,199.670185 181.556728,198.819261 180.897098,199.604222 C179.68355,201.05853 178.581058,202.602018 177.598945,204.221636 L179.406332,204.986807 L181.418206,197.486807 C181.527898,197.015071 181.282362,196.532805 180.836363,196.343988 C180.390363,196.155171 179.873188,196.314537 179.610818,196.721636 L175.653034,202.453826 C174.914248,203.515831 176.609499,204.432718 177.361478,203.449868 L182.744063,196.325858 C183.509235,195.310026 181.794195,194.346966 181.03562,195.323219 L180.98285,195.323219 Z" id="Path" fill="#0093EC"></path>
            <path d="M265.138522,219.129288 C273.05409,214.287599 279.346966,207.064644 286.33905,201.022427 C293.924802,194.472296 301.886544,188.370712 310.085752,182.592348 C326.009235,171.378628 342.730871,161.345646 359.439314,151.33905 C359.889339,151.054361 360.033332,150.464564 359.765124,150.004525 C359.496916,149.544487 358.91272,149.379233 358.443272,149.630607 C341.734828,159.637203 325.006596,169.650396 309.083113,180.883905 C301.569921,186.16095 294.234828,191.754617 287.203166,197.691293 C279.551451,204.155673 272.737467,212.203166 264.116095,217.420844 C263.027704,218.080475 264.023747,219.795515 265.112137,219.129288 L265.138522,219.129288 Z" id="Path" fill="#0093EC"></path>
            <path d="M384.986807,120.613456 C376.411609,121.484169 367.176781,123.667546 361.899736,131.167546 C357.341689,137.618734 357.440633,148.872032 361.721636,155.494723 C366.583113,163.021108 376.51715,163.291557 384.234828,160.85752 C391.952507,158.423483 399.940633,154.155673 399.868074,144.934037 C399.828496,139.986807 398.040897,134.835092 396.068602,130.349604 C394.366755,126.477573 391.352243,123.093668 386.787599,123.522427 C385.527704,123.641161 385.514512,125.620053 386.787599,125.501319 C392.902375,124.934037 394.868074,132.19657 396.319261,136.781003 C397.638522,141.062005 398.858839,146.127968 396.787599,150.382586 C394.716359,154.637203 389.722955,156.807388 385.455145,158.364116 C380.837731,160.039578 375.765172,161.062005 370.943272,159.683377 C361.391821,157.011873 358.753298,144.907652 361.503958,136.319261 C364.670185,126.424802 375.883905,123.515831 385.019789,122.592348 C386.273087,122.467018 386.28628,120.488127 385.019789,120.613456 L384.986807,120.613456 Z" id="Path" fill="#0093EC"></path>
            <path d="M398.17942,197.130607 C389.604222,198.001319 380.369393,200.184697 375.092348,207.684697 C370.534301,214.135884 370.633245,225.389182 374.914248,232.011873 C379.775726,239.538259 389.709763,239.808707 397.427441,237.37467 C405.145119,234.940633 413.133245,230.672823 413.060686,221.451187 C413.021108,216.503958 411.233509,211.352243 409.261214,206.866755 C407.559367,202.994723 404.544855,199.610818 399.980211,200.039578 C398.720317,200.158311 398.707124,202.137203 399.980211,202.01847 C406.094987,201.451187 408.060686,208.71372 409.511873,213.298153 C410.831135,217.579156 412.051451,222.645119 409.980211,226.899736 C407.908971,231.154354 402.915567,233.324538 398.647757,234.881266 C394.030343,236.556728 388.957784,237.579156 384.135884,236.200528 C374.584433,233.529024 371.94591,221.424802 374.69657,212.836412 C377.862797,202.941953 389.076517,200.032982 398.212401,199.109499 C399.465699,198.984169 399.478892,197.005277 398.212401,197.130607 L398.17942,197.130607 Z" id="Path" fill="#0093EC"></path>
            <path d="M372.051451,139.881266 L378.298153,147.005277 C378.549677,147.248016 378.910037,147.341141 379.247674,147.250655 C379.585311,147.160168 379.850805,146.899314 379.94723,146.563325 C381.266491,143.093668 381.015831,139.498681 381.325858,135.850923 C381.667702,132.080724 382.61429,128.390145 384.129288,124.920844 C387.172608,117.884124 392.332514,111.970291 398.891821,108.001319 C399.980211,107.341689 398.984169,105.626649 397.895778,106.292876 C391.428164,110.187426 386.239684,115.887188 382.968338,122.691293 C381.366958,126.002271 380.255932,129.528668 379.670185,133.159631 C379.010554,137.440633 379.610818,141.926121 378.027704,146.03562 L379.683377,145.593668 L373.469657,138.48285 C372.62533,137.526385 371.233509,138.931398 372.07124,139.881266 L372.051451,139.881266 Z" id="Path" fill="#0093EC"></path>
            <path d="M268.324538,226.840369 C302.348285,225.802551 336.380827,225.582674 370.422164,226.180739 C371.695251,226.180739 371.695251,224.201847 370.422164,224.201847 C336.389622,223.594987 302.35708,223.814864 268.324538,224.861478 C267.051451,224.901055 267.044855,226.879947 268.324538,226.840369 Z" id="Path" fill="#0093EC"></path>
            <path d="M377.532982,207.328496 C389.163954,211.893394 400.351935,217.514985 410.956464,224.122691 C412.038259,224.782322 413.034301,223.087071 411.952507,222.414248 C401.208286,215.724948 389.872155,210.037011 378.087071,205.422164 C376.906332,204.953826 376.391821,206.866755 377.565963,207.328496 L377.532982,207.328496 Z" id="Path" fill="#0093EC"></path>
            <path d="M398.654354,198.364116 C386.859869,212.113692 380.027662,229.427681 379.254617,247.526385 C379.201847,248.799472 381.180739,248.799472 381.233509,247.526385 C381.982831,229.947308 388.609669,213.128193 400.05277,199.762533 C400.877309,198.799472 399.485488,197.394459 398.654354,198.364116 Z" id="Path" fill="#0093EC"></path>
            <path d="M134.835092,219.656992 L208.562005,218.693931 L217.038259,218.581794 C218.562005,218.581794 220.085752,218.529024 221.609499,218.522427 C223.753298,218.522427 225.197889,220.30343 225.158311,222.480211 C225.059367,227.097625 222.156992,226.932718 218.35752,227.097625 L209.195251,227.513193 L171.886544,229.155673 C165.204485,229.452507 158.515831,229.815303 151.833773,230.046174 C145.804749,230.230871 134.340369,228.265172 137.01847,219.492084 C137.387863,218.271768 135.48153,217.75066 135.105541,218.96438 C133.78628,223.278364 136.121372,227.658311 139.881266,229.920844 C145.217678,233.126649 152.24934,232.038259 158.139842,231.774406 L203.944591,229.69657 L215.065963,229.201847 C217.915567,229.069921 221.879947,229.650396 224.498681,228.324538 C227.572559,226.774406 228.113456,220.620053 226.174142,218.027704 C225.1781,216.708443 223.779683,216.58971 222.216359,216.530343 C218.113456,216.372032 213.937995,216.64248 209.828496,216.695251 L186.992084,216.998681 L134.808707,217.658311 C133.53562,217.658311 133.53562,219.637203 134.808707,219.637203 L134.835092,219.656992 Z" id="Path" fill="#0093EC"></path>
            <g id="b30eccf6-7cfe-48df-9caa-415a128bd568" transform="translate(422.823219, 147.757256)">
                <path d="M9.8878628,314.313984 C8.22559367,315.356201 6.32585752,315.943272 4.61081794,316.860158 C2.89577836,317.777045 1.22691293,319.155673 0.73878628,321.055409 C0.556651039,321.645097 0.586994457,322.279975 0.824538259,322.849604 C1.25129076,323.537553 1.90436746,324.055349 2.67150396,324.313984 C9.7129863,327.441224 17.7313012,327.531881 24.8416887,324.564644 C26.0797052,323.969575 27.3581655,323.4626 28.6675462,323.047493 C30.280604,322.718532 31.9223478,322.550601 33.5686016,322.546174 C35.2989702,322.445078 37.0202985,322.224677 38.7203166,321.886544 C39.5749123,321.79141 40.3848039,321.455099 41.055409,320.916887 C41.6672795,320.211841 42.0351333,319.328066 42.1042216,318.397098 C42.8848626,313.258046 41.7078298,308.013188 38.8060686,303.700528 C38.4405301,303.096146 37.950294,302.576675 37.3680739,302.176781 C36.6581911,301.809822 35.8774072,301.600563 35.0791557,301.563325 C31.7810026,301.16095 28.3245383,300.422164 24.9934037,300.343008 C22.6055409,300.290237 21.4050132,301.424802 19.7163588,303.067282 C16.2269129,306.556728 14.1886544,311.629288 9.8878628,314.313984 Z" id="Path" fill="#323444"></path>
                <path d="M58.4960422,313.825858 C58.4960422,317.058047 58.8852243,320.48153 60.8443272,323.060686 C61.740251,324.175937 62.8253911,325.124877 64.0501319,325.864116 C68.1926121,328.502639 73.6807388,329.472296 78.0474934,327.236148 C78.7528955,326.91953 79.3559772,326.412393 79.7889182,325.771768 C80.4485488,324.624011 80.0989446,323.192612 79.7295515,321.926121 L73.4102902,300.026385 C69.3271768,300.653034 63.3245383,301.094987 59.6965699,303.166227 C57.0646438,304.663588 58.4960422,310.936675 58.4960422,313.825858 Z" id="Path" fill="#323444"></path>
                <path d="M6.18073879,178.977573 C5.79815303,180.184697 4.41292876,180.745383 3.65435356,181.761214 C2.76385224,182.955145 2.85620053,184.610818 3.17941953,186.062005 C3.57868613,188.201893 4.58373471,190.182228 6.07519789,191.76781 C7.6110185,193.361429 9.82296981,194.113493 12.0118734,193.78628 C14.1358839,193.383905 15.969657,191.503958 16.0422164,189.346966 C16.0039498,188.36599 15.7940923,187.399306 15.4221636,186.490765 L10.9234828,173.48285 C10.8863812,173.296866 10.7710258,173.135849 10.6068602,173.040897 C10.4370962,173.003147 10.2592928,173.033966 10.1121372,173.126649 C9.05013193,173.627968 6.91952507,174.155673 6.2994723,175.257256 C5.67941953,176.358839 6.6292876,177.783641 6.18073879,178.977573 Z" id="Path" fill="#FBB3B2"></path>
                <path d="M4.07651715,178.324538 C5.71899736,178.067282 7.15699208,177.104222 8.6939314,176.470976 C10.2308707,175.837731 12.1569921,175.593668 13.4498681,176.649077 C13.8192612,176.952507 14.1754617,177.368074 14.6569921,177.361478 C14.0019735,174.136004 13.0115419,170.987846 11.701847,167.968338 C11.6557863,167.823657 11.5658857,167.696874 11.444591,167.605541 C11.2648184,167.532569 11.0636776,167.532569 10.883905,167.605541 L6.44459103,168.766491 C4.80211082,169.195251 4.61081794,169.063325 4.73614776,170.67942 C4.76912929,171.398417 5.13852243,178.324538 4.07651715,178.324538 Z" id="Path" fill="#323444"></path>
                <path d="M3.5883905,84.3931398 C2.92875989,85.408971 2.92875989,86.6754617 2.92875989,87.8693931 C2.92875989,93.707124 2.98812665,99.5778364 3.85224274,105.356201 C4.05672823,106.741425 4.31398417,108.126649 4.44591029,109.525066 C4.59542342,111.471691 4.62626325,113.425615 4.53825858,115.375989 L3.87862797,140.771768 C3.7994723,143.878628 3.64116095,147.216359 1.72163588,149.656992 C1.13959225,150.475153 0.866167613,151.473036 0.949868074,152.473615 C1.45118734,158.845646 2.50659631,165.164908 3.55540897,171.46438 C6.98084655,169.919294 10.9390564,170.108131 14.201847,171.972296 C17.5299513,161.50774 19.3707355,150.627351 19.6701847,139.650396 C19.8218997,134.248021 19.591029,128.812665 20.4221636,123.476253 C21.8139842,114.492084 21.2467018,105.277045 20.2242744,96.2401055 C19.9010554,93.3773087 19.2150396,90.4287599 17.3812665,88.2124011 C15.6453421,86.2731497 13.3334399,84.9414941 10.7849604,84.4129288 C8.34432718,83.7730871 6.16094987,84.4327177 3.5883905,84.3931398 Z" id="Path" fill="#5B5583"></path>
                <path d="M3.5883905,84.3931398 C2.92875989,85.408971 2.92875989,86.6754617 2.92875989,87.8693931 C2.92875989,93.707124 2.98812665,99.5778364 3.85224274,105.356201 C4.05672823,106.741425 4.31398417,108.126649 4.44591029,109.525066 C4.59542342,111.471691 4.62626325,113.425615 4.53825858,115.375989 L3.87862797,140.771768 C3.7994723,143.878628 3.64116095,147.216359 1.72163588,149.656992 C1.13959225,150.475153 0.866167613,151.473036 0.949868074,152.473615 C1.45118734,158.845646 2.50659631,165.164908 3.55540897,171.46438 C6.98084655,169.919294 10.9390564,170.108131 14.201847,171.972296 C17.5299513,161.50774 19.3707355,150.627351 19.6701847,139.650396 C19.8218997,134.248021 19.591029,128.812665 20.4221636,123.476253 C21.8139842,114.492084 21.2467018,105.277045 20.2242744,96.2401055 C19.9010554,93.3773087 19.2150396,90.4287599 17.3812665,88.2124011 C15.6453421,86.2731497 13.3334399,84.9414941 10.7849604,84.4129288 C8.34432718,83.7730871 6.16094987,84.4327177 3.5883905,84.3931398 Z" id="Path" fill="#000000" opacity="0.1"></path>
                <path d="M11.6490765,158.040897 C7.22509484,180.711935 9.6405026,204.186393 18.5883905,225.48153 C19.3614444,227.057939 19.9035049,228.737438 20.1978892,230.468338 C20.560686,233.700528 19.0699208,236.807388 18.2189974,239.934037 C16.2401055,247.044855 17.3812665,254.617414 18.6477573,261.89314 C19.1754617,264.927441 19.7185576,267.959543 20.2770449,270.989446 C20.8245383,273.944591 21.3522427,277.156992 19.9802111,279.835092 C21.1609499,284.755937 21.8601583,289.630607 23.0408971,294.551451 C23.1660825,294.940788 23.2043607,295.352841 23.1530343,295.758575 C22.9151169,296.402514 22.4958663,296.963805 21.9459103,297.37467 C20.1554295,299.189992 19.4558153,301.815426 20.1055409,304.281003 C23.1200528,302.117414 27.3218997,302.875989 30.7651715,304.281003 C34.2084433,305.686016 37.5989446,307.579156 41.3192612,307.579156 C40.7783641,303.212401 40.2572559,298.627968 41.8667546,294.531662 C42.8034301,292.156992 44.4525066,289.914248 44.4063325,287.37467 C44.3601583,285.098945 42.9683377,283.067282 42.6319261,280.817942 C42.5068975,279.418462 42.5600934,278.008769 42.7902375,276.622691 C43.6741425,268.548813 42.671504,260.395778 41.6688654,252.335092 C41.5555022,250.745548 41.1810978,249.18553 40.560686,247.717678 C40.0923483,246.76781 39.3931398,245.85752 39.4063325,244.795515 C39.4063325,243.562005 40.4023747,242.559367 40.7717678,241.385224 C41.4313984,239.221636 40.2176781,236.279683 42.0448549,234.940633 C46.8601583,231.405013 45.0131926,222.961741 44.9076517,216.992084 C44.8240985,211.842568 44.6042216,206.697449 44.2480211,201.556728 C47.2798074,210.08152 48.5193879,219.140339 47.8891821,228.166227 C47.6781003,231.121372 47.2889182,234.228232 48.4432718,236.959103 C49.3271768,239.056728 51.0817942,240.78496 51.5567282,243.007916 C51.853562,244.379947 51.6424802,245.798153 51.7084433,247.19657 C51.7744063,248.594987 52.2493404,250.118734 53.4564644,250.824538 C53.5488127,257.183377 54.116095,263.984169 54.2150396,270.343008 C54.1508626,273.593632 54.416068,276.842399 55.0065963,280.039578 C55.3026586,281.056561 55.4667128,282.107395 55.494723,283.166227 C55.3459396,284.493848 54.9944492,285.790803 54.4525066,287.011873 C52.1183552,293.923055 53.3530848,301.541337 57.7506596,307.361478 C59.3073879,304.597625 62.5527704,303.133245 65.7189974,302.902375 C68.8852243,302.671504 72.0118734,303.469657 75.0791557,304.274406 C74.6101903,300.420334 75.3770211,296.516889 77.2691293,293.126649 C77.7763909,292.362634 78.16555,291.526497 78.4234828,290.646438 C78.7796834,288.970976 77.9485488,287.302111 77.5,285.646438 C76.76781,283.007916 77.025066,280.164908 77.1965699,277.407652 C77.7721748,268.173224 77.3630977,258.903758 75.9762533,249.755937 C75.7621058,247.954059 75.3393057,246.183168 74.7163588,244.478892 C74.4788918,243.872032 74.1886544,243.291557 73.9907652,242.6781 C73.6794655,241.577697 73.5022797,240.443708 73.4630607,239.300792 L72.7044855,228.746702 C72.1701847,221.352243 74.5976253,214.050132 76.292876,206.833773 C77.0514512,203.601583 77.8759894,200.375989 78.383905,197.091029 C79.0765172,192.618734 79.1886544,188.047493 80.2044855,183.634565 C81.1147757,179.676781 82.7572559,175.817942 83.1002639,171.761214 C83.6279683,165.474934 81.0158311,159.399736 78.4828496,153.634565 C77.4274406,151.259894 73.4366755,151.497361 70.8707124,151.075198 C52.671504,148.087071 33.5026385,148.067282 16.3390501,154.802111 C14.564053,155.537483 12.9654653,156.64143 11.6490765,158.040897 Z" id="Path" fill="#3C354C"></path>
                <path d="M24.7691293,40.9630607 L26.7875989,48.8126649 C27.3363312,50.6129157 27.6402905,52.4788266 27.6912929,54.3601583 C27.7121391,55.0464025 27.560166,55.7268793 27.2493404,56.3390501 C26.9171534,56.8417533 26.4917165,57.2761468 25.9960422,57.6187335 C24.6174142,58.6675462 23.6609499,61.1147757 22.0844327,61.8403694 C22.8957784,63.2519789 24.0171504,62.3350923 25.4815303,63.0408971 C28.060686,64.2941953 30.4221636,66.0949868 33.2189974,66.7150396 C35.8575198,67.2955145 38.6279683,66.7480211 41.2467018,66.055409 C44.9604222,65.0461741 48.6543536,63.6543536 51.6424802,61.2203166 C54.6306069,58.7862797 56.3324538,56.6358839 56.3193373,52.7902375 C53.0211082,53.1794195 50.085752,49.848285 48.6279683,46.853562 C48.1225255,45.715193 47.7506538,44.5221048 47.5197889,43.298153 L45.7519789,35.5211082 C43.8258575,35.9432718 42.2559367,37.3218997 40.4155673,38.0408971 C38.5751979,38.7598945 36.3984169,38.8258575 34.353562,38.9182058 C30.7237359,39.083304 27.1140214,39.5510665 23.5620053,40.3166227 C23.0738786,40.4155673 22.4604222,40.7255937 22.5791557,41.2005277" id="Path" fill="#FBB3B2"></path>
                <path d="M24.7691293,40.9630607 L26.7875989,48.8126649 C27.3363312,50.6129157 27.6402905,52.4788266 27.6912929,54.3601583 C27.7121391,55.0464025 27.560166,55.7268793 27.2493404,56.3390501 C26.9171534,56.8417533 26.4917165,57.2761468 25.9960422,57.6187335 C24.6174142,58.6675462 23.6609499,61.1147757 22.0844327,61.8403694 C22.8957784,63.2519789 24.0171504,62.3350923 25.4815303,63.0408971 C28.060686,64.2941953 30.4221636,66.0949868 33.2189974,66.7150396 C35.8575198,67.2955145 38.6279683,66.7480211 41.2467018,66.055409 C44.9604222,65.0461741 48.6543536,63.6543536 51.6424802,61.2203166 C54.6306069,58.7862797 56.3324538,56.6358839 56.3193373,52.7902375 C53.0211082,53.1794195 50.085752,49.848285 48.6279683,46.853562 C48.1225255,45.715193 47.7506538,44.5221048 47.5197889,43.298153 L45.7519789,35.5211082 C43.8258575,35.9432718 42.2559367,37.3218997 40.4155673,38.0408971 C38.5751979,38.7598945 36.3984169,38.8258575 34.353562,38.9182058 C30.7237359,39.083304 27.1140214,39.5510665 23.5620053,40.3166227 C23.0738786,40.4155673 22.4604222,40.7255937 22.5791557,41.2005277" id="Path" fill="#000000" opacity="0.1"></path>
                <circle id="Oval" fill="#FBB3B2" cx="33.4366755" cy="27.823219" r="17.4670185"></circle>
                <path d="M38.2453826,56.616095 C39.179483,54.5986975 40.5280127,52.8006579 42.2031662,51.3390501 C44.6635884,49.182058 48.0277045,47.4340369 48.6081794,44.2150396 L53.9379947,50.4221636 C54.2276469,50.7099817 54.4525332,51.0563065 54.5976253,51.4379947 C54.7335783,52.1620936 54.5508935,52.9096591 54.0963061,53.4894459 C52.7770449,55.5936675 50.6992084,57.0976253 48.7335092,58.621372 C44.2280131,62.1901704 39.9145903,65.994966 35.8113456,70.0197889 C35.6305374,70.2297534 35.3882093,70.3774582 35.1187335,70.4419525 C34.8637937,70.4489371 34.6128447,70.3775663 34.3997361,70.237467 C30.8594608,68.3786038 27.7264169,65.8309031 25.1846966,62.7440633 C24.9934037,62.5131926 24.7559367,62.2493404 24.4459103,62.2691293 C24.2589795,62.3034563 24.0866445,62.3930705 23.9511873,62.5263852 C22.176781,63.9775726 20.237467,65.7124011 17.9617414,65.4881266 C20.9102902,63.3707124 22.5791557,59.8350923 23.1992084,56.2532982 C23.3218204,55.0274026 23.5738851,53.8179344 23.9511873,52.6451187 C24.3481498,51.4535399 25.3129389,50.5382272 26.5237467,50.2044855 C25.085752,52.4010554 26.0686016,55.5145119 28.0013193,57.2889182 C29.8791281,58.8828078 32.1304833,59.9744427 34.5448549,60.4617414 C36.7875989,60.883905 37.4472296,58.3443272 38.2453826,56.616095 Z" id="Path" fill="#323444"></path>
                <path d="M15.5211082,159.835092 C18.0079156,160.448549 20.3627968,161.490765 22.7770449,162.262533 C27.1771826,163.640516 31.8079506,164.127139 36.3984169,163.693931 C37.8113238,163.662934 39.1853834,163.225525 40.3562005,162.434037 C40.6662269,162.183377 40.9498681,161.886544 41.2796834,161.655673 C41.8313737,161.324576 42.429448,161.077787 43.0540897,160.923483 C49.1029024,159.030343 54.1688654,154.94723 59.0831135,150.949868 C59.2414248,150.817942 59.4195251,150.653034 59.4063325,150.441953 C59.3836438,150.298227 59.3140699,150.166037 59.2084433,150.065963 L56.6226913,147.097625 C49.8416887,148.251979 42.8957784,147.816623 36.0158311,147.645119 C34.6033452,147.582395 33.1881897,147.619868 31.7810026,147.757256 C30.4221636,147.915567 29.0831135,148.258575 27.7440633,148.548813 C22.6583113,149.656992 17.4604222,150.079156 12.3087071,150.804749 C11.9482871,150.831337 11.5986466,150.939613 11.2862797,151.121372 C11.0690458,151.289384 10.8836264,151.494909 10.7387863,151.728232 L8.93139842,154.26781 C8.22985834,155.122052 7.7132472,156.112597 7.41424802,157.176781 C6.99208443,159.155673 7.87598945,159.815303 9.55804749,159.558047 C11.5451108,159.267181 13.569574,159.361238 15.5211082,159.835092 L15.5211082,159.835092 Z" id="Path" fill="#323444"></path>
                <path d="M35.7387863,66.9986807 C33.7209039,64.9309598 31.4333528,63.1448506 28.9379947,61.6886544 C27.9298532,61.0483357 26.8114743,60.6009842 25.6398417,60.3693931 C24.4465672,60.1338343 23.2102079,60.4380946 22.262533,61.2005277 C21.6754617,61.7216359 21.3060686,62.4472296 20.7387863,62.994723 C20.0248782,63.5944978 19.2064268,64.0573924 18.3245383,64.3601583 C15.3218282,65.64317 12.4757161,67.2654097 9.84168865,69.1952507 C8.40587182,70.1996466 7.1122961,71.3933752 5.99604222,72.7440633 C3.00791557,76.5699208 2.55936675,81.7744063 2.63852243,86.6292876 C2.69788918,90.0065963 5.93667546,92.5131926 8.16622691,95.0395778 C10.2573437,97.5256658 12.1497205,100.172347 13.8258575,102.955145 C15.0263852,104.854881 16.2796834,106.912929 16.1279683,109.175462 C16.0026385,111.029024 14.9208443,112.770449 15.0923483,114.617414 C15.151715,115.277045 15.3627968,115.883905 15.4221636,116.523747 C15.5408971,117.843008 15.0197889,119.162269 14.8878628,120.48153 C14.7097625,122.348285 15.3166227,124.201847 15.3496042,126.081794 C15.3253913,127.36878 15.1617263,128.649349 14.8614776,129.901055 C13.5949868,135.930079 12.005277,141.992084 12.328496,148.146438 L8.67414248,148.806069 C9.3762144,149.494142 9.70861081,150.475451 9.56922446,151.44855 C9.4298381,152.421649 8.83533499,153.270188 7.96833773,153.733509 C13.6741425,155.639842 19.8416887,154.676781 25.8905013,154.670185 C30.8970976,154.670185 35.883905,155.329815 40.883905,155.237467 C45.883905,155.145119 51.0422164,154.241425 55.1649077,151.411609 C56.2862797,150.646438 57.3153034,149.74934 58.4960422,149.083113 C60.0775941,148.263532 61.7818912,147.706572 63.5422164,147.434037 C66.8029176,146.812162 70.1173772,146.516071 73.4366755,146.550132 C75.0593668,146.550132 76.8271768,146.616095 78.1200528,145.639842 C79.5448549,144.558047 79.9076517,142.598945 80.0989446,140.824538 C80.2902375,138.951187 80.408971,137.07124 80.4419525,135.191293 C80.4972499,133.727336 80.419978,132.261377 80.2110818,130.811346 C80.0130721,129.751052 79.7554068,128.702773 79.439314,127.671504 L76.9525066,118.911609 C75.9234828,115.296834 77.3548813,111.332454 77.6583113,107.585752 C77.7308707,106.701847 77.7440633,105.672823 77.0646438,105.105541 C76.8205805,104.901055 76.4841689,104.762533 76.4050132,104.44591 C76.333176,104.142063 76.3904951,103.822032 76.5633245,103.562005 C77.8825858,100.923483 79.8614776,98.5949868 81.6688654,96.2137203 C84.7045027,92.0367889 87.5226706,87.7060575 90.1121372,83.2387863 C89.3012229,73.8907893 85.3648351,65.0885243 78.9379947,58.2519789 C77.6187335,56.8205805 76.1081794,55.4485488 74.2612137,54.8021108 C73.0542415,54.4334873 71.8025563,54.231531 70.5408971,54.201847 C65.3693931,53.8522427 59.9868074,53.5422164 55.4815303,50.9432718 C55.1582027,50.7193067 54.7921926,50.5643699 54.4063325,50.4881266 C53.4102902,50.3759894 52.6846966,51.3588391 52.0382586,52.1372032 C50.3759894,54.116095 47.9287599,55.2506596 45.7783641,56.7084433 C41.76781,59.4327177 38.6345646,63.1794195 35.7387863,66.9986807 Z" id="Path" fill="#5B5583"></path>
                <path d="M90.560686,85.9366755 C91.5897098,89.1952507 91.4907652,92.6781003 91.8271768,96.0751979 C92.0264165,98.1252292 92.3859151,100.156507 92.9023747,102.150396 C93.1381745,103.246311 93.5622219,104.293039 94.1556728,105.244063 C94.7493404,106.114776 95.6002639,106.82058 95.9762533,107.80343 C96.1817778,108.469294 96.2732165,109.165121 96.2467018,109.861478 L96.3258575,114.412929 C96.4951892,116.824838 96.1279891,119.244303 95.2506596,121.497361 L92.4076517,130.145119 C90.8707124,134.828496 89.2941953,139.584433 86.5237467,143.66095 C86.1334278,144.350882 85.5420601,144.905433 84.828496,145.25066 C84.2698533,145.398326 83.6972157,145.486764 83.1200528,145.514512 C81.0456135,145.884514 79.5260565,147.675322 79.4986807,149.782322 C78.8385869,148.817767 78.0148213,147.976142 77.0646438,147.295515 L71.2796834,142.6781 C69.3007916,141.068602 67.2361478,139.432718 64.8350923,138.502639 C71.432903,136.442158 76.1960065,130.686095 76.9854881,123.819261 C76.9833813,122.818635 77.2089503,121.830643 77.6451187,120.930079 C78.1266491,120.151715 79.0171504,119.558047 79.0831135,118.641161 C79.1622691,117.486807 77.8562005,116.616095 77.8562005,115.461741 C77.8562005,114.69657 78.4234828,114.063325 78.6741425,113.344327 C78.9084222,112.455817 78.9084222,111.521755 78.6741425,110.633245 L77.8759894,106.200528 C77.8289362,105.756382 77.6944245,105.325945 77.4802111,104.934037 C77.181561,104.558319 76.8504722,104.209573 76.4907652,103.891821 C75.1187335,102.354881 75.7255937,99.9340369 76.4907652,98.0408971 C78.2478794,93.8386819 80.5117909,89.8668685 83.23219,86.2137203 C84.2005162,84.9869863 85.0969186,83.705153 85.9168865,82.3746702 C86.616095,81.1609499 86.7744063,79.4788918 87.5131926,78.4168865 C88.4630607,80.9102902 89.7493404,83.3707124 90.560686,85.9366755 Z" id="Path" fill="#5B5583"></path>
                <path d="M64.6306069,138.773087 C64.3361804,138.991606 64.0817705,139.259406 63.878628,139.564644 C63.1014483,140.540328 62.0662024,141.278483 60.8905013,141.695251 C61.5501319,142.170185 62.1503958,142.638522 62.7704485,143.120053 C67.3581745,146.663123 71.5591076,150.680541 75.3034301,155.105541 C75.7189974,153.621372 78.2058047,153.726913 78.8126649,152.308707 C78.9555794,151.902782 79.0007774,151.468881 78.944591,151.042216 C78.8185538,148.820193 78.5007491,146.613215 77.994723,144.44591 C77.7949917,143.330089 77.3438366,142.274386 76.6754617,141.358839 C75.7519789,140.244063 74.3139842,139.709763 72.9419525,139.248021 C70.8641161,138.522427 66.7414248,137.5 64.6306069,138.773087 Z" id="Path" fill="#323444"></path>
                <path d="M56.3852243,143.957784 C54.4063325,145.422164 52.671504,147.255937 50.4485488,148.258575 C48.878628,148.970976 47.091029,149.281003 45.7189974,150.343008 C46.4643799,151.985488 48.4036939,152.836412 50.2044855,152.770449 C52.0069211,152.593394 53.7345244,151.960015 55.2242744,150.930079 C56.4050132,150.204485 57.7902375,149.360158 59.0765172,149.868074 C59.2744063,150.870712 58.4168865,151.813984 58.4168865,152.829815 C58.4168865,153.845646 59.2612137,154.584433 60.0923483,155.118734 C64.0501319,157.671504 69.1424802,157.460422 73.8588391,157.163588 C74.1294002,157.173643 74.3958181,157.094876 74.6174142,156.939314 C74.8239337,156.698313 74.9259971,156.385002 74.9010554,156.068602 C74.9604222,155.026385 74.9868074,153.990765 74.9934037,152.948549 C75.2656109,151.232911 74.5197454,149.514848 73.0804749,148.542216 C70.5210893,146.342136 67.7604747,144.387621 64.8350923,142.704485 C61.9327177,141.022427 58.9907652,142.01847 56.3852243,143.957784 Z" id="Path" fill="#FBB3B2"></path>
                <path d="M39.5712401,20.5211082 C36.6424802,20.8707124 34.5118734,23.1596306 34.8087071,25.646438 C35.1055409,28.1332454 37.7176781,29.848285 40.646438,29.4920844 C43.5751979,29.1358839 45.7058047,26.853562 45.408971,24.3733509 C45.1121372,21.8931398 42.5,20.171504 39.5712401,20.5211082 Z M40.5672823,28.8060686 C38.0870712,29.1029024 35.8773087,27.6451187 35.6200528,25.5474934 C35.3627968,23.4498681 37.176781,21.5105541 39.6503958,21.2137203 C42.1240106,20.9168865 44.3403694,22.3746702 44.5976253,24.4722955 C44.8548813,26.5699208 43.0408971,28.5092348 40.5672823,28.8060686 L40.5672823,28.8060686 Z" id="Shape" fill="#3C354C"></path>
                <path d="M25.2968338,22.2361478 C22.3680739,22.585752 20.237467,24.8746702 20.5343008,27.3548813 C20.8311346,29.8350923 23.4432718,31.5567282 26.3720317,31.207124 C29.3007916,30.8575198 31.4313984,28.5686016 31.1345646,26.0817942 C30.8377309,23.5949868 28.2255937,21.8865435 25.2968338,22.2361478 Z M26.292876,30.5145119 C23.8126649,30.8113456 21.6029024,29.353562 21.3522427,27.262533 C21.1015831,25.171504 22.9023747,23.2255937 25.3825858,22.9221636 C27.8627968,22.6187335 30.0725594,24.0831135 30.323219,26.1807388 C30.5738786,28.2783641 28.7664908,30.2176781 26.292876,30.5145119 Z" id="Shape" fill="#3C354C"></path>
                <polygon id="Path" fill="#3C354C" points="14.6965699 23.5092348 21.0620053 24.8680739 20.4353562 26.5435356 14.4327177 24.7823219"></polygon>
                <polygon id="Path" fill="#3C354C" points="50.1781003 19.2480211 44.3073879 22.0778364 45.3166227 23.555409 50.73219 20.4221636"></polygon>
                <polygon id="Path" fill="#3C354C" points="30.5474934 24.4459103 35.0131926 23.9116095 34.7823219 25.0197889 30.9498681 25.2770449"></polygon>
                <path d="M21.8865435,22.9485488 C22.3067406,22.0447843 22.5315133,21.0625276 22.5461741,20.0659631 C22.5618169,19.4694829 22.6640276,18.8784387 22.8496042,18.3113456 C23.173853,17.5911089 23.6671528,16.9597757 24.2875989,16.4709763 C26.3456464,14.7295515 29.2941953,13.8324538 32.2031662,13.707124 C35.375061,13.561197 38.5303382,14.2431733 41.3588391,15.6860158 C42.2228428,16.0908246 42.9967261,16.6650684 43.6345646,17.3746702 C44.5580475,18.5026385 44.7559367,19.9604222 45.6860158,21.0751979 C46.9770492,22.4509707 48.8935296,23.0514346 50.7387863,22.6583113 C51.0620053,21.5105541 50.6398417,20.2968338 50.8047493,19.1226913 C51.0646637,18.116606 51.4157195,17.1362992 51.853562,16.1939314 C52.8759894,13.1794195 51.3852243,9.68337731 48.3113456,7.88258575 C47.2361478,7.22295515 45.9630607,6.79419525 45.1583113,5.90369393 C44.353562,5.01319261 44.1622691,4.08970976 43.6081794,3.19920844 C42.1372032,0.844327177 38.3311346,-0.257255937 35.4353562,0.831134565 C34.525066,1.17414248 33.7203166,1.69525066 32.7968338,2.0646438 C31.0817942,2.77044855 29.1292876,2.89577836 27.2427441,3.13324538 C25.383232,3.30516155 23.564714,3.78207681 21.8601583,4.54485488 C20.2308707,5.34960422 18.8654354,6.64248021 18.4894459,8.18601583 C18.3113456,8.89841689 18.3509235,9.63720317 18.1728232,10.3430079 C17.262533,13.9248021 11.3852243,15.6662269 11.055409,19.3205805 C10.9366755,20.6398417 11.6556728,21.9063325 12.5527704,22.9815303 C13.1728232,23.7137203 14.6569921,25.6728232 15.7058047,25.9564644 C16.7546174,26.2401055 17.5527704,25.2440633 18.555409,24.9010554 C20.1385224,24.4063325 21.0949868,24.3007916 21.8865435,22.9485488 Z" id="Path" fill="#CBCEDA"></path>
            </g>
            <path d="M519.122691,403.034301 C519.122691,436.174142 539.914248,462.994723 565.60686,462.994723" id="Path" fill="#46455B"></path>
            <path d="M565.60686,463.001319 C565.60686,429.485488 588.812665,402.368074 617.486807,402.368074" id="Path" fill="#0093EC"></path>
            <path d="M535.969657,406.042216 C535.969657,437.526385 549.228232,463.001319 565.60686,463.001319" id="Path" fill="#0093EC"></path>
            <path d="M565.60686,463.001319 C565.60686,420.1781 592.427441,385.521108 625.567282,385.521108" id="Path" fill="#46455B"></path>
            <ellipse id="Oval" fill="#0093EC" opacity="0.1" cx="563.594987" cy="472.5" rx="11.5567282" ry="1.9525066"></ellipse>
            <path d="M555.831135,463.423483 C555.831135,463.423483 562.427441,463.218997 564.406332,461.807388 C566.385224,460.395778 574.544855,458.700528 575.039578,460.969657 C575.534301,463.238786 584.934037,472.255937 577.5,472.315303 C570.065963,472.37467 560.204485,471.154354 558.225594,469.94723 C556.246702,468.740106 555.831135,463.423483 555.831135,463.423483 Z" id="Path" fill="#A8A8A8"></path>
            <path d="M577.638522,471.523747 C570.197889,471.583113 560.349604,470.362797 558.364116,469.155673 C556.853562,468.238786 556.253298,464.934037 556.048813,463.416887 L555.831135,463.416887 C555.831135,463.416887 556.246702,468.733509 558.23219,469.940633 C560.217678,471.147757 570.065963,472.368074 577.506596,472.308707 C579.656992,472.308707 580.395778,471.523747 580.356201,470.395778 C580.059367,471.081794 579.274406,471.510554 577.638522,471.523747 Z" id="Path" fill="#000000" opacity="0.2"></path>
            <path d="M14.8350923,422.401055 C14.8350923,448.78628 31.3720317,470.105541 51.8139842,470.105541" id="Path" fill="#46455B"></path>
            <path d="M51.8139842,470.105541 C51.8139842,443.443272 70.2836412,421.866755 93.0870712,421.866755" id="Path" fill="#0093EC"></path>
            <path d="M28.23219,424.802111 C28.23219,449.868074 38.7862797,470.118734 51.8139842,470.118734" id="Path" fill="#0093EC"></path>
            <path d="M51.8139842,470.105541 C51.8139842,436.03562 73.1530343,408.463061 99.5184697,408.463061" id="Path" fill="#46455B"></path>
            <ellipse id="Oval" fill="#0093EC" opacity="0.1" cx="50.2110818" cy="477.664908" rx="9.19525066" ry="1.55672823"></ellipse>
            <path d="M44.0369393,470.441953 C44.0369393,470.441953 49.2810026,470.277045 50.8575198,469.122691 C52.4340369,467.968338 58.9313984,466.649077 59.3205805,468.463061 C59.7097625,470.277045 67.2031662,477.440633 61.2994723,477.486807 C55.3957784,477.532982 47.5395778,476.563325 45.9630607,475.60686 C44.3865435,474.650396 44.0369393,470.441953 44.0369393,470.441953 Z" id="Path" fill="#A8A8A8"></path>
            <path d="M61.3852243,476.912929 C55.4485488,476.959103 47.6253298,475.989446 46.0488127,475.026385 C44.848285,474.300792 44.3733509,471.668865 44.2084433,470.461741 L44.0369393,470.461741 C44.0369393,470.461741 44.3667546,474.689974 45.9432718,475.653034 C47.5197889,476.616095 55.3627968,477.579156 61.2796834,477.532982 C62.9881266,477.532982 63.5817942,476.912929 63.5488127,476.009235 C63.3113456,476.536939 62.6583113,476.873351 61.3852243,476.912929 Z" id="Path" fill="#000000" opacity="0.2"></path>
        </g>
    </g>
</svg>