<?xml version="1.0" encoding="UTF-8"?>
<svg width="287px" height="240px" viewBox="0 0 287 240" version="1.1" xmlns="http://www.w3.org/2000/svg" xmlns:xlink="http://www.w3.org/1999/xlink">
    <!-- Generator: Sketch 61 (89581) - https://sketch.com -->
    <title>safety</title>
    <desc>Created with Sketch.</desc>
    <defs>
        <linearGradient x1="-6.23138374e-05%" y1="50.0001575%" x2="100.000106%" y2="50.0001575%" id="linearGradient-1">
            <stop stop-color="#808080" stop-opacity="0.25" offset="0%"></stop>
            <stop stop-color="#808080" stop-opacity="0.12" offset="53.514%"></stop>
            <stop stop-color="#808080" stop-opacity="0.1" offset="100%"></stop>
        </linearGradient>
    </defs>
    <g id="Page-1" stroke="none" stroke-width="1" fill="none" fill-rule="evenodd">
        <g id="safety" fill-rule="nonzero">
            <g id="SPARKLE" opacity="0.5">
                <path d="M55.1075921,15.9854675 C54.5369789,15.7370094 54.2433648,15.1003018 54.4249433,14.5051313 C54.4391363,14.4610541 54.4480779,14.4154566 54.4515827,14.3692844 L54.4515827,14.3692844 C54.4680519,14.0988131 54.3052863,13.8495102 54.0510028,13.7557289 C53.7967193,13.6619476 53.51101,13.7458502 53.347848,13.9622203 L53.347848,13.9622203 C53.3205221,13.9996074 53.2977037,14.0400873 53.2798659,14.0828205 C53.0313506,14.6533038 52.3945009,14.9468523 51.7991954,14.7653185 C51.7551083,14.7511276 51.7095005,14.7421868 51.6633178,14.7386818 L51.6633178,14.7386818 C51.3927854,14.7222163 51.1434262,14.8849452 51.0496238,15.1391712 C50.9558213,15.3933973 51.0397428,15.6790421 51.2561617,15.8421672 L51.2561617,15.8421672 C51.2935565,15.8694882 51.3340457,15.8923016 51.3767892,15.910134 C51.9474023,16.1585921 52.2410165,16.7952998 52.059438,17.3904702 C52.045245,17.4345486 52.0363034,17.4801472 52.0327986,17.5263205 L52.0327986,17.5263205 C52.0163294,17.7967917 52.179095,18.0460946 52.4333785,18.1398759 C52.6876619,18.2336572 52.9733712,18.1497546 53.1365332,17.9333846 L53.1365332,17.9333846 C53.1638585,17.895997 53.1866768,17.8555172 53.2045154,17.8127844 C53.4530284,17.2422988 54.0898801,16.9487493 54.6851859,17.1302864 C54.729273,17.1444762 54.7748809,17.1534158 54.8210635,17.1569198 L54.8210635,17.1569198 C55.091594,17.173383 55.3409504,17.0106547 55.4347525,16.7564306 C55.5285545,16.5022065 55.4446353,16.2165637 55.2282195,16.0534376 L55.2282195,16.0534376 C55.1908241,16.0261167 55.1503351,16.0033023 55.1075921,15.9854675 L55.1075921,15.9854675 Z" id="Path" fill="#4D8AF0"></path>
                <path d="M6.42984084,124.31901 C5.85922772,124.070552 5.56561353,123.433844 5.74719206,122.838674 C5.76138506,122.794596 5.77032667,122.748999 5.77383146,122.702827 L5.77383146,122.702827 C5.79030063,122.432355 5.62753504,122.183053 5.37325157,122.089271 C5.11896811,121.99549 4.83325879,122.079393 4.67009679,122.295763 L4.67009679,122.295763 C4.64277087,122.33315 4.61995243,122.37363 4.60211464,122.416363 C4.35359935,122.986846 3.71674966,123.280395 3.12144414,123.098861 C3.07735712,123.08467 3.0317493,123.075729 2.98556653,123.072224 L2.98556653,123.072224 C2.71503418,123.055759 2.465675,123.218487 2.37187252,123.472714 C2.27807004,123.72694 2.36199157,124.012584 2.57841048,124.17571 L2.57841048,124.17571 C2.61580531,124.20303 2.65629448,124.225844 2.69903795,124.243676 C3.26965108,124.492134 3.56326526,125.128842 3.38168673,125.724013 C3.36749381,125.768091 3.3585522,125.81369 3.35504733,125.859863 L3.35504733,125.859863 C3.33857816,126.130334 3.50134375,126.379637 3.75562722,126.473418 C4.00991068,126.5672 4.29562001,126.483297 4.458782,126.266927 L4.458782,126.266927 C4.48610722,126.229539 4.50892561,126.189059 4.52676415,126.146327 C4.77527713,125.575841 5.41212891,125.282292 6.00743465,125.463829 C6.05152181,125.478018 6.09712963,125.486958 6.14331226,125.490462 L6.14331226,125.490462 C6.41384274,125.506925 6.66319921,125.344197 6.75700125,125.089973 C6.85080329,124.835749 6.76688402,124.550106 6.55046831,124.38698 L6.55046831,124.38698 C6.51307287,124.359659 6.47258384,124.336845 6.42984084,124.31901 L6.42984084,124.31901 Z" id="Path" fill="#4D8AF0"></path>
                <ellipse id="Oval" fill="#F55F44" cx="249.521696" cy="84.66683" rx="2.00045553" ry="2.00000386"></ellipse>
                <ellipse id="Oval" fill="#F55F44" cx="40.4740932" cy="227.667106" rx="2.00045553" ry="2.00000386"></ellipse>
                <ellipse id="Oval" fill="#F55F44" cx="283.52944" cy="161.666979" rx="2.00045553" ry="2.00000386"></ellipse>
                <path d="M234.815181,25.6521528 C234.244567,25.4036947 233.950953,24.7669871 234.132532,24.1718166 C234.146725,24.1277394 234.155666,24.0821419 234.159171,24.0359697 L234.159171,24.0359697 C234.17564,23.7654984 234.012875,23.5161956 233.758591,23.4224143 C233.504308,23.328633 233.218598,23.4125355 233.055436,23.6289056 L233.055436,23.6289056 C233.028111,23.6662927 233.005292,23.7067726 232.987454,23.7495058 C232.738939,24.3199891 232.102089,24.6135377 231.506784,24.4320038 C231.462697,24.4178129 231.417089,24.4088722 231.370906,24.4053671 L231.370906,24.4053671 C231.100374,24.3889016 230.851015,24.5516305 230.757212,24.8058565 C230.66341,25.0600826 230.747331,25.3457274 230.96375,25.5088525 L230.96375,25.5088525 C231.001145,25.5361735 231.041634,25.5589869 231.084378,25.5768193 C231.654991,25.8252774 231.948605,26.4619851 231.767026,27.0571555 C231.752833,27.1012339 231.743892,27.1468325 231.740387,27.1930058 L231.740387,27.1930058 C231.723918,27.4634771 231.886683,27.7127799 232.140967,27.8065612 C232.39525,27.9003425 232.68096,27.81644 232.844122,27.6000699 L232.844122,27.6000699 C232.871447,27.5626823 232.894265,27.5222025 232.912104,27.4794697 C233.160617,26.9089841 233.797469,26.6154346 234.392774,26.7969717 C234.436861,26.8111615 234.482469,26.8201011 234.528652,26.8236051 L234.528652,26.8236051 C234.799182,26.8400683 235.048539,26.67734 235.142341,26.4231159 C235.236143,26.1688918 235.152224,25.883249 234.935808,25.7201229 L234.935808,25.7201229 C234.898413,25.692802 234.857924,25.6699876 234.815181,25.6521528 L234.815181,25.6521528 Z" id="Path" fill="#4D8AF0"></path>
                <path d="M268.156106,234.98589 C267.585493,234.737432 267.291879,234.100724 267.473457,233.505554 C267.48765,233.461477 267.496592,233.415879 267.500097,233.369707 L267.500097,233.369707 C267.516566,233.099236 267.3538,232.849933 267.099517,232.756151 C266.845233,232.66237 266.559524,232.746273 266.396362,232.962643 L266.396362,232.962643 C266.369036,233.00003 266.346218,233.04051 266.32838,233.083243 C266.079865,233.653726 265.443015,233.947275 264.847709,233.765741 C264.803622,233.75155 264.758014,233.742609 264.711832,233.739104 L264.711832,233.739104 C264.441299,233.722639 264.19194,233.885368 264.098138,234.139594 C264.004335,234.39382 264.088257,234.679465 264.304676,234.84259 L264.304676,234.84259 C264.342071,234.869911 264.38256,234.892724 264.425303,234.910556 C264.995916,235.159015 265.28953,235.795722 265.107952,236.390893 C265.093759,236.434971 265.084817,236.48057 265.081313,236.526743 L265.081313,236.526743 C265.064843,236.797214 265.227609,237.046517 265.481892,237.140298 C265.736176,237.23408 266.021885,237.150177 266.185047,236.933807 L266.185047,236.933807 C266.212372,236.896419 266.235191,236.85594 266.253029,236.813207 C266.501542,236.242721 267.138394,235.949172 267.7337,236.130709 C267.777787,236.144899 267.823395,236.153838 267.869577,236.157342 L267.869577,236.157342 C268.140108,236.173805 268.389464,236.011077 268.483266,235.756853 C268.577068,235.502629 268.493149,235.216986 268.276733,235.05386 L268.276733,235.05386 C268.239338,235.026539 268.198849,235.003725 268.156106,234.98589 Z" id="Path" fill="#4D8AF0"></path>
                <path d="M4.09597605,60.9855543 C3.52536293,60.7370962 3.23174874,60.1003886 3.41332727,59.5052181 C3.42752027,59.4611409 3.43646189,59.4155434 3.43996667,59.3693712 L3.43996667,59.3693712 C3.45643585,59.0988999 3.29367025,58.849597 3.03938679,58.7558157 C2.78510332,58.6620344 2.499394,58.745937 2.336232,58.9623071 L2.336232,58.9623071 C2.30890608,58.9996942 2.28608764,59.0401741 2.26824986,59.0829073 C2.01973456,59.6533906 1.38288488,59.9469392 0.787579355,59.7654053 C0.743492331,59.7512144 0.697884514,59.7422736 0.651701747,59.7387686 L0.651701747,59.7387686 C0.381169398,59.7223031 0.131810219,59.885032 0.0380077381,60.139258 C-0.055794743,60.3934841 0.0281267808,60.6791289 0.244545699,60.842254 L0.244545699,60.842254 C0.28194053,60.869575 0.322429696,60.8923884 0.365173167,60.9102208 C0.935786291,61.1586789 1.22940048,61.7953866 1.04782195,62.390557 C1.03362902,62.4346354 1.02468741,62.480234 1.02118255,62.5264073 L1.02118255,62.5264073 C1.00471337,62.7968785 1.16747897,63.0461814 1.42176243,63.1399627 C1.6760459,63.233744 1.96175522,63.1498415 2.12491722,62.9334714 L2.12491722,62.9334714 C2.15224243,62.8960838 2.17506082,62.855604 2.19289936,62.8128712 C2.44141235,62.2423856 3.07826412,61.9488361 3.67356987,62.1303732 C3.71765703,62.144563 3.76326484,62.1535026 3.80944747,62.1570066 L3.80944747,62.1570066 C4.07997795,62.1734698 4.32933443,62.0107415 4.42313646,61.7565174 C4.5169385,61.5022933 4.43301924,61.2166505 4.21660352,61.0535244 L4.21660352,61.0535244 C4.17920808,61.0262035 4.13871906,61.0033891 4.09597605,60.9855543 L4.09597605,60.9855543 Z" id="Path" fill="#4D8AF0"></path>
                <ellipse id="Oval" fill="#47E6B1" cx="26.4709045" cy="94.6668493" rx="2.00045553" ry="2.00000386"></ellipse>
                <ellipse id="Oval" fill="#47E6B1" cx="284.529668" cy="110.66688" rx="2.00045553" ry="2.00000386"></ellipse>
                <g id="Group" transform="translate(192.042217, 0.000000)" fill="#47E6B1">
                    <rect id="Rectangle" x="2.46695176" y="0" width="1.00022777" height="5.6666776"></rect>
                    <polygon id="Rectangle" transform="translate(2.967066, 2.833338) rotate(90.000000) translate(-2.967066, -2.833338) " points="2.46706564 -0.000640833252 3.46706757 -0.000640833252 3.46706757 5.6673165 2.46706564 5.6673165"></polygon>
                </g>
                <g id="Group" transform="translate(195.709719, 222.000428)" fill="#47E6B1">
                    <rect id="Rectangle" x="2.46695176" y="0" width="1.00022777" height="5.6666776"></rect>
                    <polygon id="Rectangle" transform="translate(2.967066, 2.833338) rotate(90.000000) translate(-2.967066, -2.833338) " points="2.46706564 -0.000640833252 3.46706757 -0.000640833252 3.46706757 5.6673165 2.46706564 5.6673165"></polygon>
                </g>
                <g id="Group" transform="translate(6.333262, 234.000451)" fill="#47E6B1">
                    <rect id="Rectangle" x="2.46695176" y="0" width="1.00022777" height="5.6666776"></rect>
                    <polygon id="Rectangle" transform="translate(2.967066, 2.833338) rotate(90.000000) translate(-2.967066, -2.833338) " points="2.46706564 -0.000640833252 3.46706757 -0.000640833252 3.46706757 5.6673165 2.46706564 5.6673165"></polygon>
                </g>
                <g id="Group" transform="translate(234.051783, 132.000255)" fill="#47E6B1">
                    <rect id="Rectangle" x="2.46695176" y="0" width="1.00022777" height="5.6666776"></rect>
                    <polygon id="Rectangle" transform="translate(2.967066, 2.833338) rotate(90.000000) translate(-2.967066, -2.833338) " points="2.46706564 -0.000640833252 3.46706757 -0.000640833252 3.46706757 5.6673165 2.46706564 5.6673165"></polygon>
                </g>
                <polygon id="Path" fill="#47E6B1" points="265.26089 41.0060791 267.409046 42.9747496 270.452406 38.5000743 271.52665 39.395076 267.409046 44.764753 264.365686 41.3640798"></polygon>
            </g>
            <g id="Group-3" transform="translate(53.000000, 4.000000)">
                <path d="M90.0257224,1.13686838e-13 L9.47390314e-14,55.4004417 C9.47390314e-14,55.4004417 9.47390314e-14,169.663858 90.0257224,231.989371 C180.051441,169.663874 180.051441,55.4004417 180.051441,55.4004417 L90.0257224,1.13686838e-13 Z" id="Path" fill="#14A1F6"></path>
                <path d="M90.5632323,5.68434189e-14 L89.0243316,0.947018637 L89.0243316,230.908653 C89.5353747,231.269968 90.0462576,231.631447 90.5632323,231.989354 C180.588951,169.663858 180.588951,55.400425 180.588951,55.400425 L90.5632323,5.68434189e-14 Z" id="Path" fill="#000000" opacity="0.201683"></path>
                <g id="Group" opacity="0.7" transform="translate(60.852144, 97.219591)" fill="url(#linearGradient-1)">
                    <polygon id="Path" points="7.37891516 15.0435605 24.350153 30.6005007 45.3887065 0.250347705 53.8744924 7.32183588 24.350153 44.7434771 0.307426982 17.8721558"></polygon>
                </g>
                <polygon id="Path" fill="#FFFFFF" points="72.236622 113.197782 86.0034092 125.81731 105.506497 97.1361413 112.390057 102.872442 86.0034092 137.28991 66.5003216 115.492303"></polygon>
            </g>
        </g>
    </g>
</svg>