<?xml version="1.0" encoding="UTF-8"?>
<svg width="697px" height="500px" viewBox="0 0 697 500" version="1.1" xmlns="http://www.w3.org/2000/svg" xmlns:xlink="http://www.w3.org/1999/xlink">
    <!-- Generator: Sketch 61 (89581) - https://sketch.com -->
    <title>undraw_social_influencer_sgsv</title>
    <desc>Created with Sketch.</desc>
    <g id="Page-1" stroke="none" stroke-width="1" fill="none" fill-rule="evenodd">
        <g id="undraw_social_influencer_sgsv">
            <path d="M696.176605,300.389666 C696.176605,387.63358 644.311484,418.095895 580.332621,418.095895 C516.353757,418.095895 464.488636,387.633601 464.488636,300.389666 C464.488636,213.145732 580.332621,102.15777 580.332621,102.15777 C580.332621,102.15777 696.176605,213.145781 696.176605,300.389666 Z" id="Path" fill="#F2F2F2" fill-rule="nonzero"></path>
            <polygon id="Path" fill="#3F3D56" fill-rule="nonzero" points="576.112926 404.75 577.299006 331.735085 626.674716 241.40483 577.485085 320.28125 578.018466 287.450284 612.047585 222.097301 578.159091 278.762074 578.159091 278.762784 579.118608 219.714489 615.558239 167.685369 579.269176 210.429688 579.868608 102.15767 576.102273 245.490057 576.411932 239.577415 539.363636 182.869318 575.817472 250.928267 572.365767 316.87358 572.262784 315.12358 529.552557 255.446023 572.133523 321.306818 571.701705 329.553977 571.62429 329.678267 571.659801 330.355114 562.901989 497.665483 574.602983 497.665483 576.007102 411.246449 618.483665 345.546875"></polygon>
            <path d="M62.6538778,444.927308 C62.6538778,468.520114 48.6283097,476.757841 31.3269389,476.757841 C14.0255682,476.757841 0,468.520114 0,444.927308 C0,421.334503 31.3269389,391.320703 31.3269389,391.320703 C31.3269389,391.320703 62.6538778,421.334474 62.6538778,444.927308 Z" id="Path" fill="#F2F2F2" fill-rule="nonzero"></path>
            <polygon id="Path" fill="#3F3D56" fill-rule="nonzero" points="30.1860795 473.149148 30.506392 453.404119 43.8586648 428.976563 30.5568182 450.306108 30.7009943 441.428267 39.9034091 423.754972 30.7393466 439.078835 30.7393466 439.078835 30.9985795 423.110795 40.852983 409.041193 31.0397727 420.600142 31.2017045 391.321023 30.1832386 430.080966 30.2663352 428.482244 20.2478693 413.147017 30.1058239 431.551847 29.1725852 449.384943 29.1448864 448.911932 17.5951705 432.773438 29.109375 450.583807 28.9928977 452.81392 28.9723011 452.847301 28.9815341 453.03054 26.6129261 498.275568 29.7776989 498.275568 30.1569602 474.90554 41.6441761 457.139205"></polygon>
            <line x1="4.41524148" y1="498.357166" x2="635.09706" y2="498.357166" id="Path" stroke="#3F3D56" stroke-width="1.42045455"></line>
            <path d="M635.433224,477.129297 C635.433224,493.087074 625.947116,498.658942 614.244389,498.658942 C613.973291,498.658942 613.702621,498.65593 613.432379,498.649908 C612.890156,498.638281 612.353104,498.612472 611.822514,498.576321 C601.26103,497.828842 593.055561,491.970384 593.055561,477.129297 C593.055561,461.770526 612.682315,442.390362 614.156598,440.956072 L614.159183,440.953501 C614.216001,440.89799 614.244411,440.870874 614.244411,440.870874 C614.244411,440.870874 635.433224,461.171513 635.433224,477.129297 Z" id="Path" fill="#14A1F6" fill-rule="nonzero"></path>
            <path d="M613.472393,496.217699 L621.222124,485.388956 L613.453026,497.406712 L613.432379,498.649929 C612.890156,498.638303 612.353104,498.612493 611.822514,498.576342 L612.657791,482.61081 L612.651328,482.486875 L612.665533,482.463636 L612.744283,480.955774 L604.955795,468.908345 L612.7688,479.824858 L612.786889,480.145014 L613.418161,468.082124 L606.75027,455.63321 L613.499496,465.964886 L614.156598,440.956044 L614.159183,440.870817 L614.159183,440.953445 L614.049453,460.674432 L620.68767,452.85625 L614.022351,462.373338 L613.846776,473.173665 L620.044766,462.808402 L613.820966,474.762862 L613.722848,480.767202 L622.720959,466.340511 L613.689283,482.862464 L613.472393,496.217699 Z" id="Path" fill="#3F3D56" fill-rule="nonzero"></path>
            <rect id="Rectangle" fill="#3F3D56" fill-rule="nonzero" x="403.816903" y="112.999126" width="7.3237571" height="60.3836435" rx="1.62759943"></rect>
            <rect id="Rectangle" fill="#3F3D56" fill-rule="nonzero" x="160.33929" y="65.6936222" width="4.11026989" height="19.8787713" rx="1.06766335"></rect>
            <rect id="Rectangle" fill="#3F3D56" fill-rule="nonzero" x="160.189822" y="102.088224" width="4.63340199" height="34.6010227" rx="1.20355114"></rect>
            <rect id="Rectangle" fill="#3F3D56" fill-rule="nonzero" x="160.26456" y="148.795866" width="4.40920455" height="34.8999503" rx="1.1453125"></rect>
            <rect id="Rectangle" fill="#3F3D56" fill-rule="nonzero" x="162.667273" y="0" width="245.1025" height="498.134794" rx="25.3508168"></rect>
            <rect id="Rectangle" fill="#E6E8EC" fill-rule="nonzero" x="261.575114" y="14.8757031" width="34.2273651" height="6.95009943" rx="1.8053196"></rect>
            <circle id="Oval" fill="#E6E8EC" fill-rule="nonzero" cx="304.919808" cy="18.3507528" r="3.94212358"></circle>
            <path d="M392.633693,32.4431818 L392.633693,465.696023 C392.63154,476.445491 383.915832,485.15625 373.166364,485.15625 L197.271477,485.15625 C186.522009,485.15625 177.806301,476.445491 177.804148,465.696023 L177.804148,32.4431818 C177.804148,27.2799887 179.854577,22.3281389 183.505506,18.6772101 C187.156434,15.0262812 192.108284,12.9758522 197.271477,12.9758522 L223.5925,12.9758522 L223.5925,16.3565341 C223.59504,25.208512 230.770352,32.3838233 239.62233,32.3863636 L329.075455,32.3863636 C337.928475,32.3863401 345.105261,25.2095547 345.105284,16.3565341 L345.105284,12.9758522 L373.166364,12.9758522 C378.329557,12.9758522 383.281407,15.0262812 386.932335,18.6772101 C390.583264,22.3281389 392.633693,27.2799887 392.633693,32.4431818 L392.633693,32.4431818 Z" id="Path" fill="#FFFFFF" fill-rule="nonzero"></path>
            <rect id="Rectangle" fill="#F2F2F2" fill-rule="nonzero" x="177.555561" y="113.413984" width="215.198864" height="247.159091"></rect>
            <path d="M193.180561,394.773253 L192.047599,393.751236 C188.024233,390.057308 185.368061,387.659773 185.368061,384.673182 C185.347932,383.525145 185.793314,382.417838 186.602761,381.603473 C187.412208,380.789109 188.516798,380.33703 189.664936,380.350206 C191.022354,380.357436 192.307958,380.961052 193.180561,382.000859 C194.053144,380.961027 195.338761,380.357405 196.696186,380.350206 C197.844324,380.33703 198.948914,380.789109 199.758361,381.603473 C200.567808,382.417838 201.01319,383.525145 200.993061,384.673182 C200.993061,387.659815 198.336811,390.057351 194.313523,393.751236 L193.180561,394.773253 Z" id="Path" fill="#FF6584" fill-rule="nonzero"></path>
            <path d="M234.255369,390.994482 L236.445234,391.620156 C237.238873,389.317887 239.116096,387.554607 241.463489,386.906496 C243.810883,386.258385 246.326887,386.808704 248.189354,388.377628 L244.845362,391.620156 L253.194794,391.620156 L253.194794,383.503303 L249.829666,386.72892 C247.386134,384.585682 244.029661,383.812715 240.894833,384.671304 C237.760005,385.529892 235.265825,387.905277 234.255369,390.99451 L234.255369,390.994482 Z" id="Path" fill="#F2F2F2" fill-rule="nonzero"></path>
            <circle id="Oval" fill="#14A1F6" fill-rule="nonzero" cx="191.760107" cy="85.0048935" r="9.94318182"></circle>
            <rect id="Rectangle" fill="#14A1F6" fill-rule="nonzero" x="209.515788" y="79.3230753" width="92.3295455" height="11.3636364"></rect>
            <rect id="Rectangle" fill="#F2F2F2" fill-rule="nonzero" x="185.368061" y="411.709439" width="92.3295455" height="11.3636364"></rect>
            <rect id="Rectangle" fill="#F2F2F2" fill-rule="nonzero" x="185.368061" y="436.482259" width="195.3125" height="11.3636364"></rect>
            <path d="M225.140788,394.054538 L222.694162,389.772919 C223.90376,386.86827 222.791066,383.516285 220.084585,381.911581 C217.378104,380.306877 213.903268,380.938862 211.935127,383.393762 C209.966985,385.848662 210.105789,389.377773 212.260661,391.67051 C214.415532,393.963247 217.929271,394.320363 220.501357,392.508047 L225.140788,394.054538 Z" id="Path" fill="#F2F2F2" fill-rule="nonzero"></path>
            <path d="M266.946697,171.379865 L266.946598,171.379865 C259.565028,172.890431 253.085858,177.271446 248.934431,183.559136 C244.783004,189.846825 243.299384,197.526136 244.80995,204.907706 L250.673089,233.558643 L257.237955,232.215206 L257.701193,229.178984 L259.075696,231.839155 L298.986392,223.671818 L299.449631,220.635597 L300.824134,223.295767 L306.33767,222.167472 L300.474538,193.516534 C298.963977,186.13496 294.582965,179.655784 288.295274,175.504353 C282.007584,171.352922 274.328271,169.869299 266.946697,171.379865 L266.946697,171.379865 Z" id="Path" fill="#2F2E41" fill-rule="nonzero"></path>
            <polygon id="Path" fill="#9F616A" fill-rule="nonzero" points="316.40483 259.28054 350.495739 279.877131 346.234375 289.820312 314.274148 274.90554"></polygon>
            <path d="M273.081129,282.718054 C273.081129,282.718054 204.189084,282.718054 192.825447,300.473736 C181.461811,318.229418 190.694766,343.087372 226.206129,348.76919 C261.717493,354.451009 369.672038,357.291918 378.194766,335.985099 C386.717493,314.678281 380.325447,302.604418 380.325447,302.604418 C380.325447,302.604418 343.393629,277.036236 273.081129,282.718054 Z" id="Path" fill="#14A1F6" fill-rule="nonzero"></path>
            <path d="M334.160675,299.763509 L371.80272,313.968054 C371.80272,313.968054 387.42772,302.604418 379.61522,289.820327 C371.80272,277.036236 336.291357,203.172599 336.291357,203.172599 C336.291357,203.172599 326.348175,188.968054 339.132266,181.155554 C351.916357,173.343054 356.887947,186.127145 356.887947,186.127145 C356.887947,186.127145 356.17772,188.968054 361.149311,186.837372 C366.120902,184.70669 375.353857,191.808963 370.382266,203.172599 C365.410675,214.536236 361.859538,217.377145 372.512947,216.666918 C376.360007,216.410447 379.743999,213.653423 382.497699,210.235156 C387.775724,203.68343 385.419411,198.406357 385.020121,190.002592 C384.336122,175.606534 383.217663,166.219922 379.61522,160.558963 C374.643629,152.746463 367.541357,146.354418 349.075447,149.905554 C330.609538,153.45669 303.620902,171.212372 310.012947,196.780554 C316.404993,222.348736 330.609538,250.757827 330.609538,250.757827 C330.609538,250.757827 340.55272,290.530554 334.160675,299.763509 Z" id="Path" fill="#14A1F6" fill-rule="nonzero"></path>
            <path d="M334.160675,299.763509 C328.024311,301.453849 320.318345,302.277713 312.02294,302.533395 C297.548423,302.980838 281.255852,301.702429 268.244439,300.253565 C254.189098,298.683963 243.961811,296.922599 243.961811,296.922599 C248.713189,292.490781 256.014368,290.73652 264.593949,290.097315 C275.247358,289.301818 287.875199,290.210952 300.069801,289.820327 C304.565328,289.663013 309.064508,290.001226 313.485994,290.828849 C326.937734,293.392749 334.160675,299.763509 334.160675,299.763509 Z" id="Path" fill="#000000" fill-rule="nonzero" opacity="0.1"></path>
            <circle id="Oval" fill="#9F616A" fill-rule="nonzero" cx="272.726016" cy="203.527713" r="19.8863636"></circle>
            <path d="M270.24022,219.507827 C270.24022,219.507827 273.791357,233.002145 270.24022,233.712372 C266.689084,234.422599 258.166357,237.973736 258.166357,237.973736 L268.819766,242.235099 L288.706129,260.701009 L305.751584,269.223736 L314.274311,266.382827 L314.274311,250.757827 L301.49022,230.871463 C301.49022,230.871463 292.967493,233.712372 290.836811,224.479418 C288.706129,215.246463 284.444766,211.695327 284.444766,211.695327 L270.24022,219.507827 Z" id="Path" fill="#9F616A" fill-rule="nonzero"></path>
            <path d="M265.268629,238.683963 L256.745902,238.683963 C256.745902,238.683963 241.831129,243.655554 233.308402,255.01919 C224.785675,266.382827 211.291357,277.746463 211.291357,277.746463 C211.291357,277.746463 202.058402,290.530554 207.029993,308.286236 C212.001584,326.041918 219.103857,338.826009 225.495902,335.274872 C231.887947,331.723736 216.262947,306.155554 216.262947,306.155554 L220.524311,290.530554 C220.524311,290.530554 242.541357,264.962372 251.774311,265.672599 C261.007266,266.382827 261.717493,274.195327 261.717493,274.195327 L281.603857,279.877145 L287.995902,266.382827 L284.444766,252.178281 L265.268629,238.683963 Z" id="Path" fill="#9F616A" fill-rule="nonzero"></path>
            <path d="M316.404993,283.428281 C315.061947,285.732655 314.077653,288.228117 313.485959,290.828849 C312.599354,294.670076 312.109113,298.592118 312.022933,302.533395 C297.548416,302.980838 281.255845,301.702429 268.244432,300.253565 C267.093956,297.185384 265.82973,293.655554 264.593942,290.097315 C261.262926,280.480838 258.166385,270.665497 258.166385,269.223736 C258.166385,266.382827 273.081158,271.354418 276.632294,270.64419 C280.18343,269.933963 281.603885,258.570327 276.632294,252.888509 C271.660703,247.20669 257.101044,237.618622 257.101044,237.618622 L262.072635,236.198168 C262.072635,236.198168 273.081158,244.365781 295.80843,257.860099 C318.535703,271.354418 309.302749,250.047599 309.302749,250.047599 L296.163544,229.806122 L301.845362,229.806122 C301.845362,229.806122 312.853885,248.627145 318.535703,257.149872 C324.217521,265.672599 322.086811,274.195327 316.404993,283.428281 Z" id="Path" fill="#3F3D56" fill-rule="nonzero"></path>
            <rect id="Rectangle" fill="#2F2E41" fill-rule="nonzero" transform="translate(271.050844, 191.435488) rotate(-11.565350) translate(-271.050844, -191.435488) " x="252.668489" y="180.155407" width="36.7647088" height="22.5601634"></rect>
            <circle id="Oval" fill="#3F3D56" fill-rule="nonzero" cx="364.345334" cy="168.726577" r="10.6534091"></circle>
            <circle id="Oval" fill="#FFFFFF" fill-rule="nonzero" cx="364.345334" cy="168.726577" r="5.68181818"></circle>
            <path d="M51.6589134,291.69875 L50.9330256,297.303409 C50.6872869,299.200788 50.4414134,301.099517 50.309098,303.008161 C49.8689418,309.35733 50.6894886,315.732024 50.4735298,322.092763 C50.3072514,326.990064 49.5270241,331.883601 49.9039276,336.769212 C50.2372798,341.090412 51.4672514,345.285547 52.6901989,349.443452 L54.4382315,355.386591 C54.4672128,355.746579 54.662409,356.072462 54.9661135,356.267898 C55.2698181,356.463334 55.6472885,356.505965 55.9869318,356.383189 L63.7225426,355.682024 C63.2271378,353.410717 62.6761648,351.043111 62.4099219,348.733679 C62.1993537,346.907237 62.0728267,345.072308 61.940767,343.238523 C61.5291051,337.522322 61.0630611,331.810199 60.597017,326.098175 L59.7783168,316.063757 C59.4232031,311.71108 59.0638281,307.332855 57.9679901,303.10544 C56.8759617,298.825874 54.7036044,294.898293 51.6589134,291.69875 L51.6589134,291.69875 Z" id="Path" fill="#14A1F6" fill-rule="nonzero"></path>
            <path d="M51.6589134,291.69875 L50.9330256,297.303409 C50.6872869,299.200788 50.4414134,301.099517 50.309098,303.008161 C49.8689418,309.35733 50.6894886,315.732024 50.4735298,322.092763 C50.3072514,326.990064 49.5270241,331.883601 49.9039276,336.769212 C50.2372798,341.090412 51.4672514,345.285547 52.6901989,349.443452 L54.4382315,355.386591 C54.4672128,355.746579 54.662409,356.072462 54.9661135,356.267898 C55.2698181,356.463334 55.6472885,356.505965 55.9869318,356.383189 L63.7225426,355.682024 C63.2271378,353.410717 62.6761648,351.043111 62.4099219,348.733679 C62.1993537,346.907237 62.0728267,345.072308 61.940767,343.238523 C61.5291051,337.522322 61.0630611,331.810199 60.597017,326.098175 L59.7783168,316.063757 C59.4232031,311.71108 59.0638281,307.332855 57.9679901,303.10544 C56.8759617,298.825874 54.7036044,294.898293 51.6589134,291.69875 L51.6589134,291.69875 Z" id="Path" fill="#000000" fill-rule="nonzero" opacity="0.1"></path>
            <path d="M65.4397798,483.878082 C64.984282,484.770553 64.5878523,485.691958 64.2530469,486.636357 C63.3648864,489.243679 63.2306605,492.038345 63.1042969,494.789915 C63.0436611,495.320883 63.0929333,495.85865 63.2490483,496.369759 C63.6286577,497.358814 64.7230469,497.859957 65.7461009,498.135085 C70.0305185,499.287266 74.5480398,498.202834 78.9670313,497.807521 C83.3043892,497.41951 87.7227131,497.700149 91.9709872,496.743516 C92.5988483,496.625108 93.205705,496.414342 93.7717969,496.118082 C94.8487522,495.417935 95.6521622,494.368714 96.0472443,493.146442 C96.1764678,492.833833 96.2633744,492.50537 96.3056605,492.169759 C96.4459233,490.722095 95.1841406,489.464212 93.8097443,488.988366 C92.435348,488.512521 90.9410014,488.591129 89.4941761,488.442457 C83.3752796,487.813695 78.4392239,483.157926 77.454233,477.086186 C77.4029545,476.770135 70.3001776,476.956619 69.5525923,477.366726 C68.6775497,477.846783 68.1479332,479.045142 67.6549787,479.854702 C66.8584872,481.162741 66.1200876,482.503868 65.4397798,483.878082 Z" id="Path" fill="#3F3D56" fill-rule="nonzero"></path>
            <path d="M65.4397798,483.878082 C64.984282,484.770553 64.5878523,485.691958 64.2530469,486.636357 C63.3648864,489.243679 63.2306605,492.038345 63.1042969,494.789915 C63.0436611,495.320883 63.0929333,495.85865 63.2490483,496.369759 C63.6286577,497.358814 64.7230469,497.859957 65.7461009,498.135085 C70.0305185,499.287266 74.5480398,498.202834 78.9670313,497.807521 C83.3043892,497.41951 87.7227131,497.700149 91.9709872,496.743516 C92.5988483,496.625108 93.205705,496.414342 93.7717969,496.118082 C94.8487522,495.417935 95.6521622,494.368714 96.0472443,493.146442 C96.1764678,492.833833 96.2633744,492.50537 96.3056605,492.169759 C96.4459233,490.722095 95.1841406,489.464212 93.8097443,488.988366 C92.435348,488.512521 90.9410014,488.591129 89.4941761,488.442457 C83.3752796,487.813695 78.4392239,483.157926 77.454233,477.086186 C77.4029545,476.770135 70.3001776,476.956619 69.5525923,477.366726 C68.6775497,477.846783 68.1479332,479.045142 67.6549787,479.854702 C66.8584872,481.162741 66.1200876,482.503868 65.4397798,483.878082 Z" id="Path" fill="#000000" fill-rule="nonzero" opacity="0.1"></path>
            <path d="M77.2163849,484.551243 C76.7608901,485.443715 76.3644604,486.36512 76.029652,487.309517 C75.1414986,489.916847 75.0072656,492.711506 74.880902,495.463075 C74.8202656,495.994044 74.8695379,496.53181 75.0256534,497.042919 C75.4052628,498.031982 76.499652,498.533118 77.522706,498.808246 C81.8071236,499.960426 86.3246449,498.876001 90.7436364,498.480682 C95.0809943,498.09267 99.4993182,498.373317 103.747592,497.416676 C104.375455,497.298275 104.982313,497.087509 105.548402,496.791243 C106.625357,496.091098 107.428767,495.04188 107.823849,493.819609 C107.953079,493.507 108.039986,493.178534 108.082266,492.842919 C108.222528,491.395263 106.960746,490.137379 105.586349,489.661534 C104.211953,489.185689 102.717607,489.264297 101.270781,489.115625 C95.1518814,488.486864 90.2158238,483.831091 89.2308381,477.759347 C89.1795597,477.443295 82.0767827,477.629787 81.3291974,478.039886 C80.4541548,478.51995 79.9245384,479.71831 79.4315838,480.527862 C78.6350923,481.835902 77.8966927,483.177029 77.2163849,484.551243 Z" id="Path" fill="#3F3D56" fill-rule="nonzero"></path>
            <path d="M107.932642,414.441513 C108.024197,428.704297 103.876257,442.645178 99.0111861,456.052187 C97.0850497,461.359517 95.04116,466.620606 92.879517,471.835455 C91.5997585,474.926158 90.1578054,478.354467 91.5291264,481.405909 C87.5826634,479.903778 83.5419602,479.01657 79.3756463,479.710085 C80.9615838,476.478054 80.8123935,472.714773 80.883054,469.116335 C81.0207985,464.230361 81.546733,459.363067 82.4558878,454.560447 C83.8515357,447.252834 86.2458736,440.171961 89.5715625,433.516974 C90.2458169,432.113787 90.7104933,430.619243 90.9507386,429.081115 C91.3825538,425.660493 91.1838699,422.189696 90.3645312,418.840696 C88.8442922,411.421763 85.9584324,404.349995 81.8539631,397.985639 C81.8408949,398.126974 81.8278338,398.270902 81.8121165,398.412216 C81.5638826,400.533277 81.2066128,402.640152 80.7417259,404.724474 C79.8100852,409.14201 78.7240128,413.562166 78.8862997,418.003246 C79.060949,422.713704 78.7690294,427.429885 78.0148082,432.082848 C77.7752947,433.910994 77.2993857,435.700296 76.5990199,437.405866 C76.1436293,438.426513 75.5495952,439.386953 75.1910298,440.444219 C74.8353488,441.666509 74.6495438,442.931928 74.6388423,444.204872 C74.1075923,454.945135 74.6310298,468.688537 76.826669,479.216854 C73.1266073,479.046572 69.4497438,479.884151 66.1884943,481.640199 C63.5348011,474.152905 61.8442116,463.518501 60.5801989,455.633409 C59.1488183,446.318571 59.4397609,436.820089 61.4385582,427.61032 C62.0602501,424.537416 62.2932599,421.398559 62.1321094,418.267543 C61.8494389,412.031186 60.3158807,405.930895 58.7927841,399.877727 C58.0181629,396.805327 57.2435133,393.732064 56.4688352,390.65794 C55.3670833,386.279664 54.2635795,381.900511 53.1583239,377.520483 C52.4255469,374.607749 51.6849432,371.63218 51.9152415,368.635703 C52.0770706,366.992935 52.4220371,365.373406 52.9437145,363.807287 C54.5923456,358.477708 57.0571918,353.435906 60.2504545,348.86147 C72.9665625,349.575916 85.8371023,348.38517 98.5348651,347.409013 C99.1522895,347.286857 99.7930757,347.395829 100.335412,347.715213 C100.766485,348.154853 101.023171,348.73612 101.057713,349.350866 C102.648859,358.361283 104.239136,367.3717 105.828544,376.382116 C106.602556,380.144775 107.056915,383.966162 107.186761,387.805412 C107.210341,391.631499 106.590071,395.444503 106.734027,399.267969 C106.927678,404.418288 107.901207,409.288565 107.932642,414.441513 Z" id="Path" fill="#2F2E41" fill-rule="nonzero"></path>
            <path d="M81.8121165,398.412216 C81.5638826,400.533277 81.2066128,402.640152 80.7417259,404.724474 C77.9755469,399.940561 74.9947514,395.277031 72.448402,390.372727 C71.791527,389.1087 71.1660866,387.82897 70.5379616,386.551861 C69.9125213,385.274754 69.2870478,383.997652 68.6615412,382.720554 C68.3108381,382.003473 67.9575781,381.283764 67.6408949,380.548409 C67.1236142,379.489136 66.7268415,378.375157 66.4580256,377.227386 C67.3844318,377.057287 69.6664702,379.55392 70.3521307,380.205561 C71.7586206,381.592491 73.0866382,383.05681 74.3299929,384.59169 C75.8343882,386.294189 77.215327,388.101911 78.4622798,390.001072 C80.0558731,392.590488 81.1892158,395.436211 81.8121165,398.412216 L81.8121165,398.412216 Z" id="Path" fill="#000000" fill-rule="nonzero" opacity="0.1"></path>
            <path d="M92.4084375,267.126619 C92.4084375,267.126619 85.3424787,278.379822 86.6509872,280.735142 C87.9594957,283.090462 64.4062855,278.64152 64.4062855,278.64152 C64.4062855,278.64152 77.2297017,267.388324 75.9212003,262.677678 C74.6126989,257.967031 92.4084375,267.126619 92.4084375,267.126619 Z" id="Path" fill="#EFB7B9" fill-rule="nonzero"></path>
            <circle id="Oval" fill="#EFB7B9" fill-rule="nonzero" cx="86.1275852" cy="254.564901" r="15.9638423"></circle>
            <path d="M92.6450426,278.9263 C90.9363672,276.548638 88.6167242,274.677095 85.9315696,273.509709 C84.3858647,272.956467 82.7878251,272.562114 81.1621946,272.332756 L74.7931676,271.213068 C73.2322017,270.938651 71.5615767,270.676136 70.1134801,271.320256 C69.3732967,271.693929 68.6994403,272.186518 68.1187642,272.778395 C65.9049858,274.828331 63.7597727,277.083082 60.9843395,278.266321 C60.2244744,278.590263 59.429794,278.827401 58.6711293,279.154105 C55.5657528,280.4913 53.2439631,283.283253 51.9247727,286.396293 C50.5408594,289.662074 50.500767,293.201953 50.6100142,296.747145 C50.6065601,297.970535 50.7268478,299.191138 50.9690412,300.39032 C51.290368,301.531563 51.6941063,302.647979 52.1770739,303.730767 C53.0566362,306.043367 53.793261,308.40783 54.3827841,310.810788 C56.0327888,317.127038 57.4045478,323.507375 58.4980611,329.951797 C58.5933843,330.878228 58.8658432,331.777712 59.3006179,332.601321 C59.9152065,333.420947 60.6588566,334.135295 61.5025142,334.716456 C62.1705612,335.269913 62.7880515,335.881699 63.3476847,336.544581 C63.6207368,336.827557 63.8208554,337.172706 63.9307812,337.550263 C64.1374006,338.503026 63.2953764,339.319339 62.6119673,340.014609 C61.1922837,341.462909 60.166086,343.249849 59.6306889,345.205973 C59.2971167,345.607116 59.1278989,346.119736 59.1571023,346.640632 C59.2938225,347.001367 59.3447385,347.388963 59.3058239,347.77277 C59.1747455,348.123153 58.9700398,348.441346 58.7055185,348.705881 C58.0896415,349.507846 57.8483688,350.535927 58.0431818,351.528146 C62.9914773,353.678098 68.2870312,354.917768 73.6754545,355.187607 C74.9949574,355.249091 76.3196307,355.249624 77.6307102,355.411193 C78.5657244,355.526428 79.4894247,355.723111 80.4251563,355.832315 C81.7864121,355.959918 83.1547678,355.994835 84.5207599,355.936825 C91.6261932,355.796051 98.9400994,355.612045 105.464744,352.794943 C106.079396,349.448523 104.755227,346.038693 103.924659,342.739233 C102.603686,337.491839 102.270852,332.049709 101.288026,326.72858 C100.615348,323.086634 99.6382955,319.50255 99.0780824,315.841612 C98.5178693,312.180675 98.3864631,308.385078 99.3929048,304.820902 C100.284759,301.662521 100.55397,298.446903 101.478381,295.297919 C102.402791,292.148935 103.050618,288.734943 102.007053,285.623416 C100.713054,281.765426 96.7087855,278.713239 92.6450426,278.9263 Z" id="Path" fill="#14A1F6" fill-rule="nonzero"></path>
            <path d="M100.484844,246.102024 C101.261122,243.267287 99.734517,240.316761 97.9080753,238.014055 C95.9456392,235.539886 93.4100213,233.30745 90.3138139,232.686058 C87.7976136,232.181087 85.1903551,232.790717 82.6319957,232.587805 C80.3643466,232.407955 78.1914986,231.594787 75.9355256,231.303004 C73.8948298,231.083878 71.8331342,231.162077 69.8149006,231.535156 C67.8963227,231.815031 66.0213305,232.338725 64.2354048,233.093537 C57.4398509,236.104545 53.4581037,243.541023 52.5342045,250.916122 C51.6103054,258.291222 53.2303764,265.72152 54.8408452,272.977706 L56.2966122,279.536839 C57.8118253,286.363828 59.3321236,293.226406 59.7375355,300.207756 C60.1429474,307.189105 59.3864986,314.35608 56.5146236,320.73228 C65.7999994,315.744756 72.994345,307.599443 76.7968111,297.769141 C77.8294815,295.069347 78.5939418,292.268168 79.737777,289.613558 C80.7218892,287.329624 81.9817685,285.166413 82.8540625,282.837479 C83.8377914,280.206404 84.310142,277.411706 84.2457457,274.60348 C84.1961293,272.493033 83.8429616,270.3925 83.904517,268.282365 C83.9660724,266.17223 84.5027699,263.970078 85.9614986,262.444112 C87.2581534,261.087685 89.100625,260.435973 90.7715412,259.58201 C93.3992152,258.232711 95.6947615,256.317176 97.4926776,253.973509 C98.5447514,252.60272 98.6007955,252.017337 98.8683878,250.436122 C99.1286719,248.897869 100.07608,247.594695 100.484844,246.102024 Z" id="Path" fill="#2F2E41" fill-rule="nonzero"></path>
            <path d="M100.506918,366.030021 C100.668643,367.671257 100.370511,369.353501 100.729439,370.963161 C100.999197,372.172898 101.626009,373.272188 101.994531,374.455582 C102.360536,375.826956 102.548791,377.239679 102.554673,378.659041 C102.60794,379.849339 102.516598,381.296598 101.4638,381.854496 C101.001442,382.099524 100.446754,382.104169 99.9655256,382.309709 C99.4842969,382.515249 99.0713494,383.098672 99.3469176,383.543516 C99.578679,383.917578 100.104638,383.922067 100.535696,384.010526 C100.966754,384.098984 101.441094,384.545632 101.190938,384.907656 C101.090447,385.025948 100.956591,385.111153 100.806882,385.152124 C100.366146,385.284714 99.9488731,385.485457 99.570206,385.747067 C99.1874695,386.019784 98.9906738,386.4846 99.0612287,386.949233 C99.1136881,387.171493 99.2655472,387.357229 99.4729528,387.452804 C99.6803584,387.548379 99.9202157,387.543151 100.12326,387.438629 C99.9301074,387.851145 99.8246092,388.299236 99.8134304,388.754595 C101.497955,389.47892 103.394162,388.531903 104.979545,387.610589 C105.667049,387.229419 106.330805,386.806908 106.967159,386.345384 C109.559123,384.343884 110.993381,381.189958 110.798182,377.920987 C110.72471,377.110666 110.600448,376.305754 110.426129,375.511001 C110.180329,374.128945 109.855864,372.76204 109.454318,371.416953 C109.001143,369.998132 108.378232,368.640348 107.843963,367.25005 C106.705561,364.287599 105.972706,361.18598 104.947656,358.182415 C104.917944,357.892298 104.768652,357.627694 104.535692,357.452251 C104.302732,357.276809 104.007188,357.206405 103.720149,357.257976 C102.565053,357.197846 101.407317,357.304397 100.282599,357.574347 C99.6029119,357.772777 98.4880043,358.209453 98.1833452,358.921349 C97.9088423,359.562791 98.3689347,360.137173 98.6608239,360.686612 C99.6167013,362.33126 100.243699,364.146067 100.506918,366.030021 Z" id="Path" fill="#EFB7B9" fill-rule="nonzero"></path>
            <path d="M99.4269389,285.830597 C99.7676033,286.176954 100.05284,286.573756 100.272599,287.007024 C102.54076,291.129318 102.569531,296.063608 102.676136,300.767486 C102.796165,306.062493 103.085937,311.352003 103.37571,316.64044 L104.242273,332.456165 C104.325064,333.967159 104.408061,335.480369 104.619979,336.978722 C105.639368,337.235952 105.68152,338.553075 105.563409,339.597763 C104.833665,346.052003 103.017955,352.696129 104.91951,358.906918 C104.992157,359.226902 105.145176,359.523086 105.364112,359.767493 C104.405724,359.465007 103.379531,359.451108 102.413303,359.727528 C101.465447,359.927337 100.554084,360.27402 99.6095668,360.489041 C98.4077344,360.762642 97.045277,360.880078 96.2252912,361.800334 C95.2987884,359.009395 94.5609998,356.159316 94.0169176,353.269382 C93.5667401,350.643068 93.4441974,347.912351 92.3741619,345.472024 C91.9420526,344.48657 91.3647727,343.57304 90.8379972,342.634773 C88.0666051,337.69853 86.7097443,332.115199 85.383608,326.611705 C84.7882228,324.002111 84.6454943,321.30964 84.9616477,318.651726 C85.1499927,317.439008 85.2605854,316.215486 85.2927486,314.988651 C85.2083207,313.69433 85.038711,312.406978 84.7850213,311.134957 C84.2251721,307.403883 84.4874062,303.595537 85.5533736,299.976413 C86.5464702,296.615412 87.4172301,293.079545 89.4941051,290.256577 C91.5709801,287.433608 95.9226136,285.878224 99.4269389,285.830597 Z" id="Path" fill="#000000" fill-rule="nonzero" opacity="0.1"></path>
            <path d="M100.212045,285.307187 C100.552708,285.653546 100.837944,286.050348 101.057706,286.483615 C103.325866,290.605909 103.354638,295.540206 103.461243,300.244084 C103.581271,305.539084 103.871044,310.828601 104.160817,316.117031 L105.027379,331.932756 C105.11017,333.443757 105.193168,334.956967 105.405085,336.45532 C106.424474,336.71255 106.466626,338.029673 106.348516,339.074361 C105.618771,345.528594 103.803061,352.17272 105.704624,358.383509 C105.777265,358.703495 105.930284,358.999681 106.149226,359.244084 C105.190837,358.9416 104.164644,358.927704 103.198416,359.204126 C102.250561,359.403928 101.339197,359.750618 100.39468,359.965639 C99.192848,360.239233 97.8303906,360.356669 97.0104048,361.276932 C96.083902,358.485991 95.3461134,355.635909 94.8020313,352.745973 C94.3518537,350.119666 94.2293111,347.388942 93.1592756,344.948622 C92.7271662,343.963168 92.1498864,343.049638 91.6231108,342.111371 C88.8517188,337.175121 87.494858,331.591797 86.1687216,326.088303 C85.5733364,323.478707 85.430608,320.786234 85.7467614,318.128317 C85.9351102,316.915599 86.0457029,315.692077 86.0778622,314.465241 C85.9934342,313.170921 85.8238245,311.883569 85.5701349,310.611548 C85.0102892,306.880474 85.2725233,303.072129 86.3384872,299.453004 C87.3315909,296.092003 88.2023438,292.556136 90.2792188,289.733168 C92.3560938,286.910199 96.7077202,285.354815 100.212045,285.307187 Z" id="Path" fill="#14A1F6" fill-rule="nonzero"></path>
            <g id="Group" opacity="0.1" transform="translate(56.107955, 230.823864)" fill="#000000" fill-rule="nonzero">
                <path d="M41.8001349,7.19019176 C39.8376847,4.71602983 37.3020597,2.48358665 34.2058452,1.8622017 C31.6896449,1.35723011 29.0823935,1.9668608 26.5240838,1.76395597 C24.2564276,1.58409801 22.0835795,0.770923295 19.8276136,0.47915483 C17.7869205,0.26002052 15.7252262,0.338219561 13.7069957,0.711306818 C11.7884011,0.991174453 9.9133919,1.51486673 8.12745028,2.2696804 C7.1624048,2.69937839 6.24137621,3.22179314 5.37733665,3.82956676 C6.9694614,3.22691796 8.6212909,2.79570106 10.3048295,2.54322443 C12.32306,2.17013717 14.3847544,2.09193813 16.4254474,2.31107244 C18.6814134,2.60284801 20.8542614,3.41602273 23.1219176,3.59587358 C25.6802273,3.79877841 28.2874787,3.18911932 30.803679,3.69411932 C33.8998935,4.31550426 36.4355185,6.54794744 38.3979688,9.02210227 C40.2243892,11.3248295 41.7510298,14.2753551 40.9747372,17.1100852 C40.5659517,18.6027557 39.6185582,19.9059162 39.3582599,21.4441832 C39.0906747,23.0253835 39.0346449,23.6107813 37.9825923,24.9815554 C36.6284876,26.74451 34.9905299,28.2699132 33.1357955,29.4952983 C33.647642,29.2515199 34.1632457,29.0138423 34.6635866,28.7581463 C37.2912498,27.408828 39.5867926,25.4932931 41.384723,23.1496378 C42.4367756,21.7788991 42.4928054,21.1934659 42.7603906,19.6122656 C43.0206818,18.0739986 43.9680753,16.7708381 44.3768679,15.2781747 C45.153196,12.4434375 43.6265554,9.49291193 41.8001349,7.19019176 Z" id="Path"></path>
                <path d="M29.8535724,31.6202415 C30.1279229,31.3363847 30.4265856,31.077079 30.7461435,30.8452912 C29.2207173,31.5837429 27.6160653,32.2338636 26.4514418,33.4521591 C24.9927202,34.978125 24.4560227,37.1802841 24.3944318,39.290419 C24.3328409,41.400554 24.6860369,43.5010866 24.7356818,45.611527 C24.8000838,48.4197519 24.327728,51.2144496 23.3439844,53.8455185 C22.4717259,56.1744673 21.2118395,58.3376634 20.227706,60.6216051 C19.0839062,63.2762074 18.3194389,66.0773864 17.2867472,68.7771449 C13.9882471,77.2979983 8.13072229,84.5875696 0.51984375,89.6432173 C0.481122159,89.7312429 0.446242898,89.8206605 0.406690341,89.9083807 C9.6920785,84.920869 16.8864284,76.7755489 20.6888778,66.9452344 C21.7215483,64.2454332 22.4860369,61.4442614 23.6298366,58.789652 C24.6139702,56.5057102 25.8738565,54.3425142 26.7461151,52.0135653 C27.7298592,49.3824966 28.2022151,46.5877988 28.1378125,43.7795739 C28.0881676,41.6691335 27.7350355,39.5686009 27.7965625,37.4584659 C27.8580895,35.348331 28.3948509,33.1462074 29.8535724,31.6202415 Z" id="Path"></path>
            </g>
            <path d="M436.552124,497.078537 C435.792244,497.995767 434.491044,498.180334 433.313778,498.301399 C431.792782,498.521929 430.250177,498.551393 428.721868,498.389105 C426.906129,498.118814 425.818459,499.151129 424.15956,498.357145 C423.156307,497.876967 421.611676,498.837315 420.608423,498.357145 C419.233097,497.698885 414.483587,497.562642 413.646314,496.277912 C412.809041,494.993182 412.894183,492.963423 414.218175,492.20517 C414.593582,492.026816 414.981112,491.875189 415.377876,491.75142 C417.594496,490.869318 422.084673,484.215092 424.44282,483.874347 C425.612882,483.819972 426.774846,484.09377 427.797536,484.66483 C430.122678,485.696974 434.228643,486.512237 435.243139,489.131875 C436.033487,491.172756 438.196151,495.083686 436.552124,497.078537 Z" id="Path" fill="#2F2E41" fill-rule="nonzero"></path>
            <path d="M453.256328,496.551974 C454.0162,497.469205 455.317408,497.653771 456.494666,497.77483 C458.015665,497.995363 459.558273,498.024827 461.086584,497.862536 C462.902322,497.592251 465.114339,499.151129 466.773196,498.357173 C467.776449,497.876996 469.32108,498.127116 470.324332,497.646946 C471.699659,496.988686 478.165774,498.456562 479.003047,497.171804 C479.84032,495.887045 479.755178,493.857315 478.431179,493.099055 C478.055776,492.920699 477.668248,492.769075 477.271484,492.645312 C475.054865,491.76321 467.723778,483.68853 465.365625,483.347784 C464.195564,483.293402 463.0336,483.5672 462.010916,484.138267 C459.685767,485.170405 455.579808,485.985675 454.565313,488.605305 C453.774964,490.646186 451.612294,494.557124 453.256328,496.551974 Z" id="Path" fill="#2F2E41" fill-rule="nonzero"></path>
            <path d="M460.600206,351.526598 C461.326907,352.922761 461.961632,354.364904 462.500327,355.843814 C468.94772,372.90017 469.487543,391.538991 469.753828,409.771307 C469.731641,412.73578 469.900937,415.698592 470.260661,418.641243 C470.530852,420.507173 470.9575,422.393324 470.682244,424.258509 C470.444247,425.871257 469.685447,427.461868 469.988068,429.063743 C470.123814,429.782301 470.468232,430.448587 470.603651,431.167202 C470.708526,431.954999 470.68688,432.754493 470.539531,433.535462 L469.675185,439.967017 C469.182791,443.630788 468.046378,447.159538 468.108239,450.855732 C468.150433,453.376946 468.192905,455.902678 468.473651,458.408565 C468.758714,460.952983 469.289311,463.477862 469.316506,466.038054 C469.336882,467.95532 469.074318,469.862578 468.904801,471.772429 C468.665434,474.46951 468.611143,477.179822 468.742308,479.884325 C468.843423,481.968082 469.082443,484.132003 470.18745,485.901534 C468.949347,487.677102 467.723672,489.267812 465.741257,490.137081 C461.712983,491.903416 457.090909,491.304233 452.738026,490.67223 C452.97924,489.868793 453.352557,488.958636 453.004524,488.195376 C452.799588,487.825955 452.548397,487.484164 452.257024,487.178267 C451.306932,485.826881 450.647406,484.293152 450.320107,482.673956 C449.79326,480.753778 449.265717,478.686818 450.347805,476.843942 C450.720603,476.187776 450.885123,475.433785 450.819545,474.681967 C449.918338,462.590824 447.228246,450.081016 449.705597,438.214638 C449.970028,436.94804 450.285014,435.688771 450.432777,434.403324 C450.565981,432.554304 450.588109,430.698957 450.499041,428.847287 L450.447322,426.269673 C450.318324,423.519212 450.429943,420.700384 449.878295,417.979801 C449.483224,416.031385 448.745483,414.073665 449.654766,412.08831 C450.05683,411.165545 450.007038,410.1083 449.520028,409.227408 C447.607846,405.877412 446.069903,402.327272 444.933935,398.641016 C444.698138,397.610834 444.375115,396.602583 443.968359,395.627173 C443.413646,394.599347 442.776098,393.618432 442.062045,392.694169 C439.905085,389.566094 438.615121,385.936449 437.348857,382.35402 C437.483651,382.025185 437.380107,381.568132 437.027876,381.615426 C436.679737,381.70412 436.380975,381.927245 436.197095,382.235881 C434.462195,384.567812 434.316506,387.678601 434.238544,390.584062 C434.106862,393.283608 434.152998,395.988894 434.376655,398.682379 C434.525092,400.093501 434.771072,401.493544 434.897599,402.906811 C435.063789,405.543682 435.021969,408.189549 434.772528,410.819851 L433.886705,423.762962 C433.76659,424.833031 433.831093,425.915779 434.077401,426.96402 C434.646044,428.77795 434.923013,430.670677 434.897962,432.571484 C434.664894,440.389872 435.340843,448.208869 436.912216,455.871264 C437.344744,457.986783 437.844943,460.089077 438.212038,462.216925 C439.077152,467.231527 439.195661,472.341044 439.312088,477.428395 C439.383679,480.556584 439.434787,483.796839 438.2025,486.672976 C437.721013,487.55959 437.367526,488.509929 437.152571,489.495682 C437.148208,490.004012 437.080627,490.509825 436.951385,491.00147 C436.589695,491.932337 435.504368,492.328842 434.52858,492.541349 C432.695149,492.940177 430.814018,493.074149 428.942571,492.939176 C428.503178,492.931893 428.069817,492.835655 427.668643,492.656271 C426.970646,492.294638 426.600043,491.528139 426.069212,490.948331 C424.924119,489.697621 423.020561,489.31456 421.977337,487.977699 C420.672912,486.306115 421.220625,483.883658 421.997053,481.910618 C422.77348,479.937578 423.734666,477.794787 423.0663,475.782578 C422.278494,473.410803 419.486044,472.133793 418.736399,469.749688 C420.875966,460.134986 415.621697,450.190859 416.07201,440.35125 C416.176896,438.059396 416.574695,435.78392 416.582663,433.489688 C416.603182,427.579801 414.043352,421.829432 414.464432,415.934531 C415.534503,400.954084 410.432358,385.999162 408.270888,371.136896 C407.861083,368.918506 407.708087,366.660304 407.814922,364.406911 C408.135696,360.68679 409.862777,357.224553 411.939737,354.121584 C413.427876,351.89831 415.217436,349.722244 417.682393,348.682251 C419.712308,347.825803 421.986861,347.829425 424.189986,347.846491 C429.686733,347.88907 435.183594,347.931648 440.679624,348.030476 C444.419815,347.977834 448.155424,348.312129 451.826839,349.028026 C454.799787,349.708189 457.58125,351.094396 460.600206,351.526598 Z" id="Path" fill="#2F2E41" fill-rule="nonzero"></path>
            <path d="M371.789297,283.233835 C371.257053,280.628104 372.263104,277.840653 371.476087,275.300234 C371.192301,274.384169 370.495085,273.432067 369.536456,273.458615 C368.604908,273.484425 367.97473,274.396293 367.148956,274.828182 C365.817919,275.524325 364.201193,274.892067 362.87098,274.194347 C361.540767,273.496626 360.05777,272.707131 358.615064,273.125341 C358.445284,274.029084 359.055256,274.890724 359.719311,275.526818 C360.454607,276.082425 361.063256,276.788138 361.504822,277.597074 C361.721087,278.471618 361.803312,279.37393 361.748686,280.273161 C361.899737,282.337372 363.207131,284.11456 364.51321,285.720156 C366.617702,288.307208 368.852494,290.78548 371.208913,293.145355 C371.204943,293.141371 374.783764,288.712514 374.715043,287.938892 C374.650227,287.209325 373.446094,286.526626 373.008665,285.938366 C372.40966,285.136674 371.993458,284.213547 371.789297,283.233835 L371.789297,283.233835 Z" id="Path" fill="#A1616A" fill-rule="nonzero"></path>
            <path d="M478.366669,337.779041 C478.685742,338.607055 478.924834,339.463707 479.080675,340.33728 C480.003885,344.812138 480.585895,349.349354 481.159638,353.882315 C481.312756,355.09206 481.465504,356.303693 481.512763,357.522173 C481.675067,360.415409 481.079857,363.300942 479.785916,365.893793 C478.470152,368.493199 476.233057,370.509094 473.511179,371.548097 C472.672763,371.846094 471.500859,371.900313 471.134759,371.089332 C471.004422,370.7142 471.007324,370.305615 471.142976,369.932372 C471.473842,368.725163 472.147401,367.641889 472.584332,366.468913 C473.232621,364.716651 473.340752,362.810283 472.894766,360.995952 C472.722621,360.30228 472.359645,359.528104 471.658445,359.389751 C472.008396,360.989619 471.713659,362.662947 470.838132,364.04696 C470.638788,364.432641 470.295166,364.723967 469.882067,364.857521 C469.285083,364.917267 468.726043,364.556487 468.53456,363.987898 C468.363425,363.429982 468.326173,362.83959 468.425824,362.264588 C468.650707,359.356842 469.093396,356.470061 469.750163,353.628544 C470.531854,350.509531 471.770938,347.432365 471.691428,344.217869 C471.619368,341.304801 470.458849,338.444972 470.783899,335.549197 C470.788385,335.370248 470.846088,335.196693 470.949645,335.050682 C471.051507,334.94891 471.175758,334.87237 471.312472,334.827173 C472.125804,334.490914 472.96241,334.213971 473.815732,333.998516 C474.319759,333.871207 476.041541,333.273374 476.524482,333.540767 C476.915817,333.757386 477.036449,335.054851 477.231868,335.494048 C477.577784,336.271598 478.038828,336.992528 478.366669,337.779041 Z" id="Path" fill="#A1616A" fill-rule="nonzero"></path>
            <circle id="Oval" fill="#A1616A" fill-rule="nonzero" cx="420.886001" cy="239.593146" r="11.894375"></circle>
            <path d="M431.543558,248.201122 C431.542054,248.959126 431.602248,249.715995 431.723544,250.464233 C431.887509,251.221149 432.11961,251.961681 432.41701,252.676776 C432.814677,253.839539 433.375536,254.939903 434.08277,255.944879 C434.801572,256.956173 435.877341,257.657036 437.092841,257.905938 C428.962892,261.716464 420.284229,264.224652 411.374943,265.338572 C412.778628,264.404717 413.946495,263.15791 414.786676,261.696229 C415.232272,260.757707 415.536659,259.75846 415.689964,258.730902 C416.448802,254.430999 416.063414,250.007143 414.572472,245.903232 C414.424744,245.49853 414.280362,245.001911 414.560014,244.67419 C414.679044,244.553068 414.823109,244.459424 414.982124,244.399815 C418.51475,242.904231 422.329756,242.192738 426.163999,242.314411 C427.143885,242.3212 428.123366,242.364538 429.100661,242.435078 C429.626278,242.473018 430.787337,242.362479 431.20517,242.74745 C431.703928,243.206967 431.453977,244.632891 431.469616,245.255938 L431.543558,248.201122 Z" id="Path" fill="#A1616A" fill-rule="nonzero"></path>
            <path d="M437.836591,256.854418 C434.236639,252.240286 427.95457,250.674998 422.610518,253.060575 C416.948871,255.763288 414.161264,262.253139 409.181939,266.069574 C408.049363,266.916919 406.842613,267.660303 405.576378,268.290675 C404.828926,268.703663 404.031626,269.019152 403.203963,269.229432 C402.273196,269.434624 401.301527,269.406108 400.374865,269.629105 C398.609338,270.147681 397.105353,271.314971 396.164893,272.896598 C395.698728,273.723556 395.181987,274.520966 394.617614,275.284283 C394.097195,275.901946 393.450881,276.401016 392.900646,276.992273 C390.920611,279.119936 390.383026,282.174858 389.931612,285.046044 C388.38232,286.677178 386.691783,288.168073 384.879766,289.5013 C384.31011,289.939651 383.677605,290.289587 383.003587,290.539304 C381.261349,291.103828 379.340646,290.385518 377.855916,289.313303 C376.371186,288.241087 375.161818,286.827578 373.698246,285.726612 C372.353004,287.649126 370.947493,289.578054 369.514155,291.435817 C369.297672,291.789482 368.968162,292.059734 368.57897,292.20282 C368.30968,293.108295 368.955391,294.046314 369.438459,294.858125 L372.032145,299.216655 C372.889469,300.803087 373.941063,302.276551 375.162642,303.603018 C376.401918,304.936878 378.094466,305.760109 379.908871,305.911513 C381.054223,305.901042 382.188284,305.683947 383.256527,305.270668 C388.198686,303.608352 392.736357,300.955504 397.437898,298.700803 C398.289527,298.214077 399.243622,297.934302 400.223239,297.884041 C401.22963,297.857253 402.130148,298.505457 402.424183,299.46831 C402.963473,302.190938 403.499091,304.903679 404.240369,307.578352 C404.93947,310.100857 405.588913,312.636425 406.1887,315.185057 C406.589262,316.744549 406.875402,318.331212 407.044837,319.932386 C407.122351,320.841555 407.130675,321.755043 407.138949,322.667472 L407.238963,333.694134 C407.24973,334.881236 406.572955,335.621754 406.052102,336.688551 C405.253849,338.343899 405.133563,340.24553 405.716875,341.988267 C406.009411,342.848352 406.467131,343.643047 406.791286,344.49169 C407.575007,346.54348 407.544695,348.802955 407.503871,350.998942 L407.410334,356.030774 C407.386481,356.239066 407.424143,356.449784 407.518672,356.636918 C407.825852,357.116697 408.566051,356.83571 409.034297,356.511207 L411.387138,354.880589 C414.535012,355.314541 417.715193,355.468207 420.890241,355.33978 C429.920213,355.209141 438.952408,355.568395 447.961264,356.199048 C450.967074,356.40946 454.074091,356.637464 456.915483,355.634652 C458.357244,355.125803 459.685639,354.312401 461.159205,353.904602 C461.767453,353.809711 462.344569,353.572072 462.843274,353.211151 C463.667898,352.448366 463.448778,351.109453 463.1125,350.037656 C462.818291,349.099943 462.484228,348.175999 462.110312,347.265824 C461.725311,346.429146 461.411509,345.561509 461.172237,344.672124 C460.720909,342.664915 461.159915,340.345909 459.910334,338.711541 C457.113324,335.053232 459.093054,329.424751 457.919304,324.971797 C457.539524,323.530966 456.978253,322.141875 456.622315,320.694964 C456.398892,319.786676 456.257635,318.860511 456.116634,317.935831 C455.748543,315.935661 455.565921,313.905776 455.571094,311.872024 C455.605185,310.854411 455.733239,309.842557 455.861186,308.832436 L456.74968,301.817813 C457.860664,303.892088 458.632744,306.130701 459.036669,308.448835 C459.845317,311.911195 460.841063,315.327173 462.019524,318.681733 C462.689432,320.704737 463.359432,322.728026 464.082969,324.732472 C464.541239,325.873329 464.894123,327.053739 465.137202,328.258928 C465.297322,329.231044 465.301797,330.221896 465.414276,331.200689 C465.657757,333.29944 466.392118,335.311342 467.557884,337.073452 C467.773444,337.481996 468.12997,337.79841 468.561229,337.963913 C468.852473,338.017846 469.152112,338.005667 469.438018,337.928274 C472.578068,337.30828 475.617249,336.25686 478.469134,334.803913 C479.076497,334.553181 479.603845,334.141323 479.994254,333.612798 C480.76201,332.364872 479.903658,330.805362 479.530476,329.388509 C479.130469,327.86973 479.223658,326.042429 478.027635,325.024567 C473.862365,321.479957 475.929964,314.283274 473.845241,309.226825 C473.479325,308.339304 473.052926,307.475831 472.737386,306.569155 C472.496151,305.875973 472.321229,305.161882 472.14517,304.449382 C470.689886,298.559884 469.132311,292.696934 467.472443,286.860533 C465.75142,280.809183 465.935646,274.50608 463.769077,268.599581 C463.361781,267.361577 462.829897,266.168105 462.181598,265.037507 C461.448411,263.856221 460.468779,262.847193 459.30968,262.079411 C456.165298,260.000355 452.991214,258.229709 449.297898,257.475391 C445.604581,256.721072 441.606122,256.837777 437.836591,256.854418 Z" id="Path" fill="#D0CDE1" fill-rule="nonzero"></path>
            <path d="M410.077067,242.504013 C408.478146,241.642798 408.899375,239.304609 408.627642,237.508942 C408.068587,233.814545 403.893651,231.622834 402.913551,228.017216 C404.039512,228.155574 405.182039,227.993817 406.225341,227.548338 C406.426702,226.351171 406.189703,225.121538 405.557812,224.084972 C408.991442,222.690085 411.770291,219.952926 415.256733,218.695838 C419.641108,217.114979 424.523722,218.085206 428.946562,219.555021 C431.153281,220.288366 433.449702,221.240312 434.783835,223.144915 C436.249226,225.236896 436.227017,227.990298 436.148295,230.543253 C436.02483,234.54718 435.866868,238.694716 434.08419,242.28201 C431.814446,246.849418 425.388466,251.07983 420.079219,249.842507 C417.871122,249.327919 417.221264,247.941527 416.290575,246.022699 C415.711314,244.828409 415.4937,243.441946 414.189439,242.820788 C412.914822,242.213736 411.370767,243.20081 410.077067,242.504013 Z" id="Path" fill="#2F2E41" fill-rule="nonzero"></path>
            <g id="Group" opacity="0.1" transform="translate(404.829545, 327.414773)" fill="#000000" fill-rule="nonzero">
                <path d="M53.4791761,0.370852273 C53.4939536,0.686766098 53.5028243,1.00468277 53.5057884,1.32460227 C53.4907884,1.00947443 53.4827628,0.691178977 53.4791761,0.370852273 Z" id="Path"></path>
                <path d="M1.96176847,12.3191619 C2.74550426,14.3709517 2.71519886,16.6304261 2.67433239,18.8264062 C2.66366477,19.3996354 2.65299953,19.9728646 2.64233665,20.5460937 C2.59239773,19.3619161 2.36292587,18.1921877 1.96176847,17.0769105 C1.63758523,16.2282599 1.17993608,15.433544 0.887322443,14.5734872 C0.385379901,13.0702472 0.403754152,11.4418508 0.939488636,9.9503196 C1.23230824,10.7585511 1.65480114,11.5154972 1.96176847,12.3191619 Z" id="Path"></path>
            </g>
            <g id="Group" opacity="0.1" transform="translate(405.539773, 223.721591)" fill="#000000" fill-rule="nonzero">
                <path d="M0.685546875,2.09664062 L0.674034091,2.10112926 C0.565700544,1.48602363 0.343216076,0.896622862 0.0180681818,0.363359375 C0.219772727,0.281413352 0.418700284,0.1940625 0.616164773,0.103416193 C0.772543355,0.75647336 0.796137477,1.43429053 0.685546875,2.09664063 L0.685546875,2.09664062 Z" id="Path"></path>
            </g>
            <path d="M31.4038778,201.570774 L28.6004759,199.041811 C18.6450497,189.901555 12.0726065,183.969084 12.0726065,176.579055 C12.0227886,173.738348 13.1248346,170.998418 15.1277289,168.983346 C17.1306232,166.968274 19.8638225,165.84964 22.7047798,165.882237 C26.0635774,165.900126 29.244681,167.393716 31.4038494,169.966619 C33.5629833,167.393667 36.744113,165.900066 40.1029261,165.882237 C42.9438834,165.849632 45.6770856,166.968259 47.6799853,168.983326 C49.6828849,170.998392 50.7849381,173.738319 50.7351278,176.579027 C50.7351278,183.969148 44.1625852,189.901619 34.2072585,199.041783 L31.4038778,201.570774 Z" id="Path" fill="#FF6584" fill-rule="nonzero"></path>
            <path d="M36.3754687,195.178729 L33.5720668,192.649766 C23.6166406,183.50951 17.0441974,177.577038 17.0441974,170.18701 C16.9943796,167.346302 18.0964255,164.606373 20.0993198,162.5913 C22.1022141,160.576228 24.8354134,159.457594 27.6763707,159.490192 C31.0351683,159.50808 34.2162719,161.00167 36.3754403,163.574574 C38.5345742,161.001621 41.7157039,159.50802 45.074517,159.490192 C47.9154743,159.457587 50.6486765,160.576213 52.6515762,162.59128 C54.6544758,164.606347 55.756529,167.346274 55.7067187,170.186982 C55.7067187,177.577102 49.1341761,183.509574 39.1788494,192.649737 L36.3754687,195.178729 Z" id="Path" stroke="#3F3D56" stroke-width="1.42045455"></path>
        </g>
    </g>
</svg>