<?xml version="1.0" encoding="UTF-8"?>
<svg width="287px" height="240px" viewBox="0 0 287 240" version="1.1" xmlns="http://www.w3.org/2000/svg" xmlns:xlink="http://www.w3.org/1999/xlink">
    <!-- Generator: Sketch 61 (89581) - https://sketch.com -->
    <title>cost</title>
    <desc>Created with Sketch.</desc>
    <g id="Page-1" stroke="none" stroke-width="1" fill="none" fill-rule="evenodd">
        <g id="cost" fill-rule="nonzero">
            <g id="Group-2" transform="translate(7.333333, 28.666667)">
                <ellipse id="Oval" fill="#14A1F6" cx="169.158346" cy="160.004704" rx="14.4172399" ry="15.303405"></ellipse>
                <ellipse id="Oval" fill="#000000" opacity="0.1" cx="169.158346" cy="160.004704" rx="14.4172399" ry="15.303405"></ellipse>
                <ellipse id="Oval" fill="#14A1F6" cx="171.646496" cy="160.345537" rx="14.4172399" ry="14.962572"></ellipse>
                <path d="M177.485997,173.905034 L175.986331,173.069994 C175.986331,173.069994 175.284884,175.997196 175.514181,178.083146 C175.56047,178.516533 175.872291,178.874982 176.295095,178.980831 C179.744999,179.837572 196.187794,183.487725 207.494803,178.346535 C207.828373,178.194318 208.056832,177.877342 208.095748,177.512754 C208.234435,176.230762 207.743456,173.585391 207.547475,173.070006 C207.125705,171.960789 177.485997,173.905034 177.485997,173.905034 Z" id="Path" fill="#14A1F6"></path>
                <path d="M177.485997,173.905034 L175.986331,173.069994 C175.986331,173.069994 175.284884,175.997196 175.514181,178.083146 C175.56047,178.516533 175.872291,178.874982 176.295095,178.980831 C179.744999,179.837572 196.187794,183.487725 207.494803,178.346535 C207.828373,178.194318 208.056832,177.877342 208.095748,177.512754 C208.234435,176.230762 207.743456,173.585391 207.547475,173.070006 C207.125705,171.960789 177.485997,173.905034 177.485997,173.905034 Z" id="Path" fill="#000000" opacity="0.1"></path>
                <ellipse id="Oval" fill="#14A1F6" cx="191.766903" cy="173.069994" rx="15.780572" ry="3.55715163"></ellipse>
                <path d="M183.515049,168.656785 L182.015383,167.821745 C182.015383,167.821745 181.313932,170.748946 181.543214,172.834896 C181.589501,173.268286 181.901325,173.626737 182.324131,173.732585 C185.774036,174.589322 202.21683,178.239476 213.523836,173.098286 C213.857406,172.946069 214.085867,172.629093 214.124784,172.264505 C214.263467,170.982512 213.772492,168.337142 213.576512,167.821756 C213.154746,166.712539 183.515049,168.656785 183.515049,168.656785 Z" id="Path" fill="#14A1F6"></path>
                <path d="M183.515049,168.656785 L182.015383,167.821745 C182.015383,167.821745 181.313932,170.748946 181.543214,172.834896 C181.589501,173.268286 181.901325,173.626737 182.324131,173.732585 C185.774036,174.589322 202.21683,178.239476 213.523836,173.098286 C213.857406,172.946069 214.085867,172.629093 214.124784,172.264505 C214.263467,170.982512 213.772492,168.337142 213.576512,167.821756 C213.154746,166.712539 183.515049,168.656785 183.515049,168.656785 Z" id="Path" fill="#000000" opacity="0.1"></path>
                <ellipse id="Oval" fill="#14A1F6" cx="197.795955" cy="167.821745" rx="15.780572" ry="3.55715163"></ellipse>
                <path d="M188.845041,161.758977 L187.345375,160.923937 C187.345375,160.923937 186.643924,163.851138 186.873206,165.937088 C186.919495,166.370476 187.231319,166.728926 187.654124,166.834773 C191.104028,167.691514 207.546819,171.341668 218.853828,166.200478 C219.187399,166.04826 219.415859,165.731285 219.454776,165.366697 C219.59346,164.084708 219.102481,161.439338 218.906504,160.923952 C218.484738,159.814731 188.845041,161.758977 188.845041,161.758977 Z" id="Path" fill="#14A1F6"></path>
                <path d="M188.845041,161.758977 L187.345375,160.923937 C187.345375,160.923937 186.643924,163.851138 186.873206,165.937088 C186.919495,166.370476 187.231319,166.728926 187.654124,166.834773 C191.104028,167.691514 207.546819,171.341668 218.853828,166.200478 C219.187399,166.04826 219.415859,165.731285 219.454776,165.366697 C219.59346,164.084708 219.102481,161.439338 218.906504,160.923952 C218.484738,159.814731 188.845041,161.758977 188.845041,161.758977 Z" id="Path" fill="#000000" opacity="0.1"></path>
                <ellipse id="Oval" fill="#14A1F6" cx="203.125947" cy="160.923937" rx="15.780572" ry="3.55715163"></ellipse>
                <path d="M182.94245,154.57842 L181.442788,153.743395 C181.442788,153.743395 180.741341,156.670597 180.970619,158.756547 C181.016906,159.189936 181.32873,159.548388 181.751536,159.654236 C185.201441,160.510977 201.644231,164.161127 212.951241,159.01994 C213.28481,158.867722 213.51327,158.550747 213.552189,158.186159 C213.690872,156.904167 213.199893,154.2588 213.003917,153.743411 C212.582135,152.634175 182.94245,154.57842 182.94245,154.57842 Z" id="Path" fill="#14A1F6"></path>
                <path d="M182.94245,154.57842 L181.442788,153.743395 C181.442788,153.743395 180.741341,156.670597 180.970619,158.756547 C181.016906,159.189936 181.32873,159.548388 181.751536,159.654236 C185.201441,160.510977 201.644231,164.161127 212.951241,159.01994 C213.28481,158.867722 213.51327,158.550747 213.552189,158.186159 C213.690872,156.904167 213.199893,154.2588 213.003917,153.743411 C212.582135,152.634175 182.94245,154.57842 182.94245,154.57842 Z" id="Path" fill="#000000" opacity="0.1"></path>
                <ellipse id="Oval" fill="#14A1F6" cx="197.22336" cy="153.74338" rx="15.780572" ry="3.55715163"></ellipse>
                <path d="M196.221179,148.815948 L194.721513,147.980908 C194.721513,147.980908 194.020066,150.908109 194.249345,152.994059 C194.295633,153.427448 194.607457,153.785897 195.030262,153.891745 C198.480166,154.748485 214.922957,158.398639 226.229966,153.257449 C226.563537,153.105232 226.791996,152.788256 226.830911,152.423668 C226.969598,151.141679 226.478619,148.496309 226.282638,147.980923 C225.860876,146.871691 196.221179,148.815948 196.221179,148.815948 Z" id="Path" fill="#14A1F6"></path>
                <path d="M196.221179,148.815948 L194.721513,147.980908 C194.721513,147.980908 194.020066,150.908109 194.249345,152.994059 C194.295633,153.427448 194.607457,153.785897 195.030262,153.891745 C198.480166,154.748485 214.922957,158.398639 226.229966,153.257449 C226.563537,153.105232 226.791996,152.788256 226.830911,152.423668 C226.969598,151.141679 226.478619,148.496309 226.282638,147.980923 C225.860876,146.871691 196.221179,148.815948 196.221179,148.815948 Z" id="Path" fill="#000000" opacity="0.1"></path>
                <ellipse id="Oval" fill="#14A1F6" cx="210.502085" cy="147.9809" rx="15.780572" ry="3.55715163"></ellipse>
                <path d="M187.249471,144.942796 L185.749805,144.107756 C185.749805,144.107756 185.048354,147.034958 185.277636,149.120908 C185.323925,149.554296 185.635749,149.912745 186.058554,150.018593 C189.508458,150.875334 205.951249,154.525487 217.258258,149.384297 C217.591829,149.23208 217.820289,148.915105 217.859206,148.550516 C217.99789,147.268528 217.506911,144.623157 217.310934,144.107771 C216.889168,142.998551 187.249471,144.942796 187.249471,144.942796 Z" id="Path" fill="#14A1F6"></path>
                <path d="M187.249471,144.942796 L185.749805,144.107756 C185.749805,144.107756 185.048354,147.034958 185.277636,149.120908 C185.323925,149.554296 185.635749,149.912745 186.058554,150.018593 C189.508458,150.875334 205.951249,154.525487 217.258258,149.384297 C217.591829,149.23208 217.820289,148.915105 217.859206,148.550516 C217.99789,147.268528 217.506911,144.623157 217.310934,144.107771 C216.889168,142.998551 187.249471,144.942796 187.249471,144.942796 Z" id="Path" fill="#000000" opacity="0.1"></path>
                <ellipse id="Oval" fill="#14A1F6" cx="201.530377" cy="144.107756" rx="15.780572" ry="3.55715163"></ellipse>
                <path d="M193.239375,137.46561 L191.739709,136.63057 C191.739709,136.63057 191.038262,139.557771 191.26754,141.643722 C191.313829,142.077109 191.62565,142.435558 192.048454,142.541407 C195.498358,143.398148 211.941153,147.048301 223.248162,141.907111 C223.581732,141.754893 223.81019,141.437918 223.849107,141.07333 C223.987794,139.791342 223.496815,137.145971 223.300834,136.630585 C222.879072,135.521365 193.239375,137.46561 193.239375,137.46561 Z" id="Path" fill="#14A1F6"></path>
                <path d="M193.239375,137.46561 L191.739709,136.63057 C191.739709,136.63057 191.038262,139.557771 191.26754,141.643722 C191.313829,142.077109 191.62565,142.435558 192.048454,142.541407 C195.498358,143.398148 211.941153,147.048301 223.248162,141.907111 C223.581732,141.754893 223.81019,141.437918 223.849107,141.07333 C223.987794,139.791342 223.496815,137.145971 223.300834,136.630585 C222.879072,135.521365 193.239375,137.46561 193.239375,137.46561 Z" id="Path" fill="#000000" opacity="0.1"></path>
                <ellipse id="Oval" fill="#14A1F6" cx="207.520281" cy="136.63057" rx="15.780572" ry="3.55715163"></ellipse>
                <path d="M196.193986,128.590374 L194.69432,127.755334 C194.69432,127.755334 193.992872,130.682535 194.222151,132.768485 C194.268439,133.201873 194.580261,133.560321 195.003064,133.666171 C198.452968,134.522912 214.895763,138.173065 226.202773,133.031875 C226.536342,132.879657 226.764801,132.562682 226.803717,132.198094 C226.942404,130.916105 226.451425,128.270735 226.255444,127.755349 C225.833682,126.646128 196.193986,128.590374 196.193986,128.590374 Z" id="Path" fill="#14A1F6"></path>
                <path d="M196.193986,128.590374 L194.69432,127.755334 C194.69432,127.755334 193.992872,130.682535 194.222151,132.768485 C194.268439,133.201873 194.580261,133.560321 195.003064,133.666171 C198.452968,134.522912 214.895763,138.173065 226.202773,133.031875 C226.536342,132.879657 226.764801,132.562682 226.803717,132.198094 C226.942404,130.916105 226.451425,128.270735 226.255444,127.755349 C225.833682,126.646128 196.193986,128.590374 196.193986,128.590374 Z" id="Path" fill="#000000" opacity="0.1"></path>
                <ellipse id="Oval" fill="#14A1F6" cx="210.474892" cy="127.755334" rx="15.780572" ry="3.55715163"></ellipse>
                <path d="M222.833014,175.963449 L221.333348,175.128409 C221.333348,175.128409 220.631901,178.05561 220.861179,180.14156 C220.907468,180.574948 221.219292,180.933398 221.642097,181.039246 C225.092001,181.895986 241.534792,185.54614 252.841801,180.40495 C253.175372,180.252733 253.403832,179.935757 253.44275,179.571169 C253.581433,178.28918 253.090454,175.64381 252.894477,175.128424 C252.47273,174.019203 222.833014,175.963449 222.833014,175.963449 Z" id="Path" fill="#14A1F6"></path>
                <path d="M222.833014,175.963449 L221.333348,175.128409 C221.333348,175.128409 220.631901,178.05561 220.861179,180.14156 C220.907468,180.574948 221.219292,180.933398 221.642097,181.039246 C225.092001,181.895986 241.534792,185.54614 252.841801,180.40495 C253.175372,180.252733 253.403832,179.935757 253.44275,179.571169 C253.581433,178.28918 253.090454,175.64381 252.894477,175.128424 C252.47273,174.019203 222.833014,175.963449 222.833014,175.963449 Z" id="Path" fill="#000000" opacity="0.1"></path>
                <ellipse id="Oval" fill="#14A1F6" cx="237.113924" cy="175.128409" rx="15.780572" ry="3.55715163"></ellipse>
                <path d="M228.163007,169.065641 L226.663341,168.230597 C226.663341,168.230597 225.961893,171.157798 226.191191,173.243748 C226.237478,173.677138 226.549302,174.035589 226.972108,174.141437 C230.422012,174.998178 246.864803,178.648328 258.171813,173.507142 C258.505382,173.354924 258.733841,173.037949 258.772757,172.673361 C258.911444,171.391368 258.420465,168.746002 258.224485,168.230612 C257.802703,167.121391 228.163007,169.065641 228.163007,169.065641 Z" id="Path" fill="#14A1F6"></path>
                <path d="M228.163007,169.065641 L226.663341,168.230597 C226.663341,168.230597 225.961893,171.157798 226.191191,173.243748 C226.237478,173.677138 226.549302,174.035589 226.972108,174.141437 C230.422012,174.998178 246.864803,178.648328 258.171813,173.507142 C258.505382,173.354924 258.733841,173.037949 258.772757,172.673361 C258.911444,171.391368 258.420465,168.746002 258.224485,168.230612 C257.802703,167.121391 228.163007,169.065641 228.163007,169.065641 Z" id="Path" fill="#000000" opacity="0.1"></path>
                <ellipse id="Oval" fill="#14A1F6" cx="242.443913" cy="168.230601" rx="15.780572" ry="3.55715163"></ellipse>
                <path d="M222.260419,161.885084 L220.760753,161.050044 C220.760753,161.050044 220.059306,163.977246 220.288584,166.063196 C220.334873,166.496583 220.646694,166.855032 221.069498,166.960881 C224.519402,167.817622 240.962197,171.467775 252.269206,166.326585 C252.602776,166.174368 252.831235,165.857392 252.870151,165.492804 C253.008838,164.210816 252.517859,161.565445 252.321878,161.050059 C251.900116,159.940839 222.260419,161.885084 222.260419,161.885084 Z" id="Path" fill="#14A1F6"></path>
                <path d="M222.260419,161.885084 L220.760753,161.050044 C220.760753,161.050044 220.059306,163.977246 220.288584,166.063196 C220.334873,166.496583 220.646694,166.855032 221.069498,166.960881 C224.519402,167.817622 240.962197,171.467775 252.269206,166.326585 C252.602776,166.174368 252.831235,165.857392 252.870151,165.492804 C253.008838,164.210816 252.517859,161.565445 252.321878,161.050059 C251.900116,159.940839 222.260419,161.885084 222.260419,161.885084 Z" id="Path" fill="#000000" opacity="0.1"></path>
                <ellipse id="Oval" fill="#14A1F6" cx="236.541325" cy="161.050044" rx="15.780572" ry="3.55715163"></ellipse>
                <path d="M235.539141,156.122601 L234.039475,155.28756 C234.039475,155.28756 233.338024,158.214762 233.567306,160.300712 C233.613594,160.734102 233.925417,161.092553 234.348224,161.198401 C237.798128,162.055142 254.240922,165.705292 265.547928,160.564105 C265.881498,160.411887 266.109957,160.094912 266.148876,159.730324 C266.28756,158.448332 265.796584,155.802965 265.600604,155.287576 C265.178845,154.178355 235.539141,156.122601 235.539141,156.122601 Z" id="Path" fill="#14A1F6"></path>
                <path d="M235.539141,156.122601 L234.039475,155.28756 C234.039475,155.28756 233.338024,158.214762 233.567306,160.300712 C233.613594,160.734102 233.925417,161.092553 234.348224,161.198401 C237.798128,162.055142 254.240922,165.705292 265.547928,160.564105 C265.881498,160.411887 266.109957,160.094912 266.148876,159.730324 C266.28756,158.448332 265.796584,155.802965 265.600604,155.287576 C265.178845,154.178355 235.539141,156.122601 235.539141,156.122601 Z" id="Path" fill="#000000" opacity="0.1"></path>
                <ellipse id="Oval" fill="#14A1F6" cx="249.820055" cy="155.28756" rx="15.780572" ry="3.55715163"></ellipse>
                <path d="M226.567437,152.249457 L225.067771,151.414416 C225.067771,151.414416 224.366323,154.341618 224.595602,156.427568 C224.641889,156.860958 224.953713,157.219409 225.376519,157.325257 C228.826423,158.181998 245.269214,161.832148 256.576224,156.690961 C256.909793,156.538743 257.138253,156.221768 257.177172,155.85718 C257.315855,154.575188 256.824876,151.929821 256.628899,151.414432 C256.207133,150.305211 226.567437,152.249457 226.567437,152.249457 Z" id="Path" fill="#14A1F6"></path>
                <path d="M226.567437,152.249457 L225.067771,151.414416 C225.067771,151.414416 224.366323,154.341618 224.595602,156.427568 C224.641889,156.860958 224.953713,157.219409 225.376519,157.325257 C228.826423,158.181998 245.269214,161.832148 256.576224,156.690961 C256.909793,156.538743 257.138253,156.221768 257.177172,155.85718 C257.315855,154.575188 256.824876,151.929821 256.628899,151.414432 C256.207133,150.305211 226.567437,152.249457 226.567437,152.249457 Z" id="Path" fill="#000000" opacity="0.1"></path>
                <ellipse id="Oval" fill="#14A1F6" cx="240.848346" cy="151.414416" rx="15.780572" ry="3.55715163"></ellipse>
                <path d="M232.557345,144.772274 L231.057679,143.93723 C231.057679,143.93723 230.356227,146.864436 230.58551,148.950386 C230.631798,149.383774 230.943622,149.742223 231.366427,149.848071 C234.816331,150.704812 251.259122,154.354961 262.566131,149.213775 C262.899701,149.061557 263.128161,148.744582 263.16708,148.379994 C263.305763,147.098006 262.814784,144.452635 262.618807,143.937246 C262.197041,142.828025 232.557345,144.772274 232.557345,144.772274 Z" id="Path" fill="#14A1F6"></path>
                <path d="M232.557345,144.772274 L231.057679,143.93723 C231.057679,143.93723 230.356227,146.864436 230.58551,148.950386 C230.631798,149.383774 230.943622,149.742223 231.366427,149.848071 C234.816331,150.704812 251.259122,154.354961 262.566131,149.213775 C262.899701,149.061557 263.128161,148.744582 263.16708,148.379994 C263.305763,147.098006 262.814784,144.452635 262.618807,143.937246 C262.197041,142.828025 232.557345,144.772274 232.557345,144.772274 Z" id="Path" fill="#000000" opacity="0.1"></path>
                <ellipse id="Oval" fill="#14A1F6" cx="246.83825" cy="143.937234" rx="15.780572" ry="3.55715163"></ellipse>
                <path d="M235.511955,135.897038 L234.012289,135.061998 C234.012289,135.061998 233.310838,137.989199 233.54012,140.07515 C233.586409,140.508538 233.898232,140.866987 234.321037,140.972835 C237.770941,141.829576 254.213736,145.479729 265.520742,140.338539 C265.854312,140.186322 266.082772,139.869347 266.12169,139.504758 C266.260373,138.22277 265.769398,135.577399 265.573417,135.062013 C265.151652,133.952793 235.511955,135.897038 235.511955,135.897038 Z" id="Path" fill="#14A1F6"></path>
                <path d="M235.511955,135.897038 L234.012289,135.061998 C234.012289,135.061998 233.310838,137.989199 233.54012,140.07515 C233.586409,140.508538 233.898232,140.866987 234.321037,140.972835 C237.770941,141.829576 254.213736,145.479729 265.520742,140.338539 C265.854312,140.186322 266.082772,139.869347 266.12169,139.504758 C266.260373,138.22277 265.769398,135.577399 265.573417,135.062013 C265.151652,133.952793 235.511955,135.897038 235.511955,135.897038 Z" id="Path" fill="#000000" opacity="0.1"></path>
                <ellipse id="Oval" fill="#14A1F6" cx="249.792861" cy="135.061998" rx="15.780572" ry="3.55715163"></ellipse>
                <path d="M271.728485,133.94386 C271.728485,133.94386 264.512565,137.34685 263.89845,138.831111 C263.284335,140.315372 271.728485,133.94386 271.728485,133.94386 Z" id="Path" fill="#000000" opacity="0.1"></path>
                <path d="M271.267893,138.319468 C271.267893,138.319468 264.75574,141.083 263.8665,141.773898 C262.97726,142.464796 271.267893,138.319468 271.267893,138.319468 Z" id="Path" fill="#000000" opacity="0.1"></path>
                <path d="M268.274055,144.230382 C268.274055,144.230382 265.389909,146.379802 263.799759,144.690969 C262.209609,143.002136 268.274055,144.230382 268.274055,144.230382 Z" id="Path" fill="#000000" opacity="0.1"></path>
                <ellipse id="Oval" fill="#14A1F6" cx="201.909064" cy="181.838551" rx="14.4172399" ry="15.303405"></ellipse>
                <ellipse id="Oval" fill="#000000" opacity="0.1" cx="201.909064" cy="181.838551" rx="14.4172399" ry="15.303405"></ellipse>
                <ellipse id="Oval" fill="#14A1F6" cx="204.397214" cy="182.179384" rx="14.4172399" ry="14.962572"></ellipse>
                <path d="M156.512773,167.609526 C157.306052,168.695685 157.954798,169.88034 158.442711,171.133725 C158.571671,171.457783 158.69789,171.79827 158.81731,172.155484 C160.735667,177.888758 157.695974,184.763929 156.826957,184.022336 C155.95794,183.280743 153.249897,181.904754 152.726274,183.83834 C152.20265,185.771925 150.268369,187.748244 150.268369,187.748244 C146.744312,191.292758 143.554446,187.4631 141.460623,183.506217 C140.77651,182.200679 140.168273,180.856767 139.638941,179.481176 C139.174066,178.265983 138.907057,177.426132 138.907057,177.426132 L153.585298,164.919902 C153.585298,164.919902 155.0043,165.571372 156.512773,167.609526 Z" id="Path" fill="#14A1F6"></path>
                <path d="M133.378796,175.606466 C134.172074,176.692626 134.820822,177.877281 135.308738,179.130666 C135.437694,179.454727 135.563913,179.795211 135.683337,180.152424 C137.60169,185.885699 134.561997,192.760869 133.692991,192.019276 C132.823986,191.277683 130.115932,189.901695 129.592308,191.83528 C129.068684,193.768866 127.134408,195.745184 127.134408,195.745184 C123.610346,199.289699 120.420481,195.46004 118.326657,191.503161 C117.642547,190.197627 117.03431,188.85372 116.504976,187.478136 C116.040101,186.262938 115.773095,185.423088 115.773095,185.423088 L130.451333,172.916858 C130.451333,172.916858 131.870323,173.56829 133.378796,175.606466 Z" id="Path" fill="#14A1F6"></path>
                <path d="M86.9283695,186.654297 C86.8459242,187.996768 86.5893452,189.322829 86.1650797,190.599161 C86.057548,190.93095 85.9374213,191.273633 85.8013983,191.624881 C83.6193752,197.263077 76.8915441,200.616217 76.695763,199.490685 C76.4999818,198.365153 75.2932793,195.577572 73.656166,196.732013 C72.0190528,197.886455 69.2686152,198.173545 69.2686152,198.173545 C64.2934405,198.653391 64.281667,193.669242 65.1949568,189.286662 C65.5014537,187.844968 65.8908554,186.422153 66.3612217,185.025307 C66.7788493,183.7931 67.1092716,182.976094 67.1092716,182.976094 L86.3910989,182.715342 C86.3910989,182.715342 87.0677668,184.122474 86.9283695,186.654297 Z" id="Path" fill="#14A1F6"></path>
                <path d="M62.0152179,180.371004 C61.932771,181.713473 61.6761921,183.039533 61.251928,184.315864 C61.144404,184.647656 61.0242889,184.990336 60.8882428,185.341583 C58.7062236,190.979779 51.9783695,194.332919 51.7825921,193.207388 C51.5868148,192.081856 50.3801084,189.29427 48.7429914,190.448716 C47.1058743,191.603161 44.3554405,191.890247 44.3554405,191.890247 C39.3802658,192.370094 39.3684923,187.385944 40.2817783,183.003365 C40.588277,181.561671 40.9776786,180.138856 41.4480432,178.742009 C41.8656747,177.509802 42.1960893,176.692796 42.1960893,176.692796 L61.4779127,176.432044 C61.4779127,176.432044 62.1546152,177.839157 62.0152179,180.371004 Z" id="Path" fill="#14A1F6"></path>
                <path d="M156.512773,167.609526 C157.306052,168.695685 157.954798,169.88034 158.442711,171.133725 C158.571671,171.457783 158.69789,171.79827 158.81731,172.155484 C160.735667,177.888758 157.695974,184.763929 156.826957,184.022336 C155.95794,183.280743 153.249897,181.904754 152.726274,183.83834 C152.20265,185.771925 150.268369,187.748244 150.268369,187.748244 C146.744312,191.292758 143.554446,187.4631 141.460623,183.506217 C140.77651,182.200679 140.168273,180.856767 139.638941,179.481176 C139.174066,178.265983 138.907057,177.426132 138.907057,177.426132 L153.585298,164.919902 C153.585298,164.919902 155.0043,165.571372 156.512773,167.609526 Z" id="Path" fill="#000000" opacity="0.2"></path>
                <path d="M133.378796,175.606466 C134.172074,176.692626 134.820822,177.877281 135.308738,179.130666 C135.437694,179.454727 135.563913,179.795211 135.683337,180.152424 C137.60169,185.885699 134.561997,192.760869 133.692991,192.019276 C132.823986,191.277683 130.115932,189.901695 129.592308,191.83528 C129.068684,193.768866 127.134408,195.745184 127.134408,195.745184 C123.610346,199.289699 120.420481,195.46004 118.326657,191.503161 C117.642547,190.197627 117.03431,188.85372 116.504976,187.478136 C116.040101,186.262938 115.773095,185.423088 115.773095,185.423088 L130.451333,172.916858 C130.451333,172.916858 131.870323,173.56829 133.378796,175.606466 Z" id="Path" fill="#000000" opacity="0.2"></path>
                <path d="M86.9283695,186.654297 C86.8459242,187.996768 86.5893452,189.322829 86.1650797,190.599161 C86.057548,190.93095 85.9374213,191.273633 85.8013983,191.624881 C83.6193752,197.263077 76.8915441,200.616217 76.695763,199.490685 C76.4999818,198.365153 75.2932793,195.577572 73.656166,196.732013 C72.0190528,197.886455 69.2686152,198.173545 69.2686152,198.173545 C64.2934405,198.653391 64.281667,193.669242 65.1949568,189.286662 C65.5014537,187.844968 65.8908554,186.422153 66.3612217,185.025307 C66.7788493,183.7931 67.1092716,182.976094 67.1092716,182.976094 L86.3910989,182.715342 C86.3910989,182.715342 87.0677668,184.122474 86.9283695,186.654297 Z" id="Path" fill="#000000" opacity="0.2"></path>
                <path d="M62.0152179,180.371004 C61.932771,181.713473 61.6761921,183.039533 61.251928,184.315864 C61.144404,184.647656 61.0242889,184.990336 60.8882428,185.341583 C58.7062236,190.979779 51.9783695,194.332919 51.7825921,193.207388 C51.5868148,192.081856 50.3801084,189.29427 48.7429914,190.448716 C47.1058743,191.603161 44.3554405,191.890247 44.3554405,191.890247 C39.3802658,192.370094 39.3684923,187.385944 40.2817783,183.003365 C40.588277,181.561671 40.9776786,180.138856 41.4480432,178.742009 C41.8656747,177.509802 42.1960893,176.692796 42.1960893,176.692796 L61.4779127,176.432044 C61.4779127,176.432044 62.1546152,177.839157 62.0152179,180.371004 Z" id="Path" fill="#000000" opacity="0.2"></path>
                <path d="M195.666204,95.8666697 C195.666204,147.367173 178.244323,189.116604 97.8465998,189.116604 C43.8223196,189.116604 2.02621977,175.693188 0.0269913648,95.8666697 C-1.26245201,44.3822858 43.8222965,2.61672347 97.8465691,2.61672347 C151.870842,2.61672347 195.666204,44.36614 195.666204,95.8666697 Z" id="Path" fill="#14A1F6"></path>
                <path d="M79.4964808,4.24466205 L79.5079127,4.24466205 C79.5052791,4.24618842 79.5023603,4.24715789 79.4993369,4.24751042 L79.4964808,4.24466205 Z" id="Path" fill="#000000" opacity="0.2"></path>
                <path d="M79.6878551,4.2132609 C79.9363311,4.17328777 80.4275633,4.10473115 81.141571,4.05045476 L79.5507418,4.23896147 C79.5735851,4.23324682 79.602143,4.22753473 79.6364155,4.2218252 C79.6535672,4.21896147 79.6678589,4.21610159 79.6878551,4.2132609 Z" id="Path" fill="#000000" opacity="0.2"></path>
                <path d="M151.968677,42.3157561 L144.828561,44.8861976 C141.188757,40.0050442 137.272417,35.3363306 133.098776,30.9029845 C128.543464,26.0442845 123.573217,21.5919912 118.244492,17.5966774 C99.9629299,4.04758719 85.822642,3.70200562 81.1529952,4.05042021 L91.886024,2.78805936 C102.030052,4.53346528 111.785281,8.05981399 120.700684,13.204067 C126.937918,16.799617 132.747131,21.0911322 138.016895,25.9962974 C147.361878,34.67014 151.968677,42.3157561 151.968677,42.3157561 Z" id="Path" fill="#000000" opacity="0.2"></path>
                <path d="M87.4220163,47.1710536 C87.4220163,47.1710536 77.9970643,15.7545469 85.9939933,7.18640869 C85.9939933,7.18640869 98.560596,2.90233959 107.985548,27.1787311 L87.4220163,47.1710536 Z" id="Path" fill="#000000" opacity="0.2"></path>
                <path d="M135.1464,17.8280901 C135.1464,17.8280901 160.140473,-3.41156828 171.197513,0.47503441 C171.197513,0.47503441 180.16427,10.2663741 161.710212,28.6408501 L135.1464,17.8280901 Z" id="Path" fill="#14A1F6"></path>
                <path d="M135.1464,17.8280901 C135.1464,17.8280901 160.140473,-3.41156828 171.197513,0.47503441 C171.197513,0.47503441 180.16427,10.2663741 161.710212,28.6408501 L135.1464,17.8280901 Z" id="Path" fill="#000000" opacity="0.2"></path>
                <path d="M213.088085,119.571856 C213.088085,147.254389 193.223053,169.124255 174.531464,169.124255 C155.839874,169.124255 145.399794,147.254363 145.399794,119.571856 C145.399794,91.8893492 160.583671,70.5299903 179.24394,69.4482283 C208.804016,67.734593 213.088085,91.8893338 213.088085,119.571856 Z" id="Path" fill="#1080C4"></path>
                <path d="M213.088085,119.571856 C213.088085,147.254389 193.223053,169.124255 174.531464,169.124255 C155.839874,169.124255 145.399794,147.254363 145.399794,119.571856 C145.399794,91.8893492 160.583671,70.5299903 179.24394,69.4482283 C208.804016,67.734593 213.088085,91.8893338 213.088085,119.571856 Z" id="Path" fill="#000000" opacity="0.2"></path>
                <ellipse id="Oval" fill="#14A1F6" cx="173.389026" cy="123.713111" rx="6.28330518" ry="7.9969405"></ellipse>
                <ellipse id="Oval" fill="#14A1F6" cx="195.666193" cy="116.858616" rx="6.28329367" ry="7.9969405"></ellipse>
                <path d="M139.236471,20.8382935 C139.240725,22.6295603 138.822923,24.3966387 138.016892,25.9963166 C136.95296,28.1219148 135.226841,29.8440212 133.098773,30.9030037 C128.54346,26.0443036 123.573213,21.5920104 118.244488,17.5966966 C118.719205,15.9650493 119.559161,14.4628915 120.70068,13.2040978 C122.690957,10.9852317 125.528415,9.71387471 128.509103,9.70544132 C134.432561,9.70544132 139.236471,14.6892187 139.236471,20.8382935 Z" id="Path" fill="#0C669C"></path>
            </g>
            <g id="SPARKLE-Copy-2" opacity="0.5">
                <path d="M55.1075921,15.9854675 C54.5369789,15.7370094 54.2433648,15.1003018 54.4249433,14.5051313 C54.4391363,14.4610541 54.4480779,14.4154566 54.4515827,14.3692844 L54.4515827,14.3692844 C54.4680519,14.0988131 54.3052863,13.8495102 54.0510028,13.7557289 C53.7967193,13.6619476 53.51101,13.7458502 53.347848,13.9622203 L53.347848,13.9622203 C53.3205221,13.9996074 53.2977037,14.0400873 53.2798659,14.0828205 C53.0313506,14.6533038 52.3945009,14.9468523 51.7991954,14.7653185 C51.7551083,14.7511276 51.7095005,14.7421868 51.6633178,14.7386818 L51.6633178,14.7386818 C51.3927854,14.7222163 51.1434262,14.8849452 51.0496238,15.1391712 C50.9558213,15.3933973 51.0397428,15.6790421 51.2561617,15.8421672 L51.2561617,15.8421672 C51.2935565,15.8694882 51.3340457,15.8923016 51.3767892,15.910134 C51.9474023,16.1585921 52.2410165,16.7952998 52.059438,17.3904702 C52.045245,17.4345486 52.0363034,17.4801472 52.0327986,17.5263205 L52.0327986,17.5263205 C52.0163294,17.7967917 52.179095,18.0460946 52.4333785,18.1398759 C52.6876619,18.2336572 52.9733712,18.1497546 53.1365332,17.9333846 L53.1365332,17.9333846 C53.1638585,17.895997 53.1866768,17.8555172 53.2045154,17.8127844 C53.4530284,17.2422988 54.0898801,16.9487493 54.6851859,17.1302864 C54.729273,17.1444762 54.7748809,17.1534158 54.8210635,17.1569198 L54.8210635,17.1569198 C55.091594,17.173383 55.3409504,17.0106547 55.4347525,16.7564306 C55.5285545,16.5022065 55.4446353,16.2165637 55.2282195,16.0534376 L55.2282195,16.0534376 C55.1908241,16.0261167 55.1503351,16.0033023 55.1075921,15.9854675 L55.1075921,15.9854675 Z" id="Path" fill="#4D8AF0"></path>
                <path d="M6.42984084,124.31901 C5.85922772,124.070552 5.56561353,123.433844 5.74719206,122.838674 C5.76138506,122.794596 5.77032667,122.748999 5.77383146,122.702827 L5.77383146,122.702827 C5.79030063,122.432355 5.62753504,122.183053 5.37325157,122.089271 C5.11896811,121.99549 4.83325879,122.079393 4.67009679,122.295763 L4.67009679,122.295763 C4.64277087,122.33315 4.61995243,122.37363 4.60211464,122.416363 C4.35359935,122.986846 3.71674966,123.280395 3.12144414,123.098861 C3.07735712,123.08467 3.0317493,123.075729 2.98556653,123.072224 L2.98556653,123.072224 C2.71503418,123.055759 2.465675,123.218487 2.37187252,123.472714 C2.27807004,123.72694 2.36199157,124.012584 2.57841048,124.17571 L2.57841048,124.17571 C2.61580531,124.20303 2.65629448,124.225844 2.69903795,124.243676 C3.26965108,124.492134 3.56326526,125.128842 3.38168673,125.724013 C3.36749381,125.768091 3.3585522,125.81369 3.35504733,125.859863 L3.35504733,125.859863 C3.33857816,126.130334 3.50134375,126.379637 3.75562722,126.473418 C4.00991068,126.5672 4.29562001,126.483297 4.458782,126.266927 L4.458782,126.266927 C4.48610722,126.229539 4.50892561,126.189059 4.52676415,126.146327 C4.77527713,125.575841 5.41212891,125.282292 6.00743465,125.463829 C6.05152181,125.478018 6.09712963,125.486958 6.14331226,125.490462 L6.14331226,125.490462 C6.41384274,125.506925 6.66319921,125.344197 6.75700125,125.089973 C6.85080329,124.835749 6.76688402,124.550106 6.55046831,124.38698 L6.55046831,124.38698 C6.51307287,124.359659 6.47258384,124.336845 6.42984084,124.31901 L6.42984084,124.31901 Z" id="Path" fill="#4D8AF0"></path>
                <ellipse id="Oval" fill="#F55F44" cx="249.521696" cy="84.66683" rx="2.00045553" ry="2.00000386"></ellipse>
                <ellipse id="Oval" fill="#F55F44" cx="40.4740932" cy="227.667106" rx="2.00045553" ry="2.00000386"></ellipse>
                <ellipse id="Oval" fill="#F55F44" cx="283.52944" cy="161.666979" rx="2.00045553" ry="2.00000386"></ellipse>
                <path d="M234.815181,25.6521528 C234.244567,25.4036947 233.950953,24.7669871 234.132532,24.1718166 C234.146725,24.1277394 234.155666,24.0821419 234.159171,24.0359697 L234.159171,24.0359697 C234.17564,23.7654984 234.012875,23.5161956 233.758591,23.4224143 C233.504308,23.328633 233.218598,23.4125355 233.055436,23.6289056 L233.055436,23.6289056 C233.028111,23.6662927 233.005292,23.7067726 232.987454,23.7495058 C232.738939,24.3199891 232.102089,24.6135377 231.506784,24.4320038 C231.462697,24.4178129 231.417089,24.4088722 231.370906,24.4053671 L231.370906,24.4053671 C231.100374,24.3889016 230.851015,24.5516305 230.757212,24.8058565 C230.66341,25.0600826 230.747331,25.3457274 230.96375,25.5088525 L230.96375,25.5088525 C231.001145,25.5361735 231.041634,25.5589869 231.084378,25.5768193 C231.654991,25.8252774 231.948605,26.4619851 231.767026,27.0571555 C231.752833,27.1012339 231.743892,27.1468325 231.740387,27.1930058 L231.740387,27.1930058 C231.723918,27.4634771 231.886683,27.7127799 232.140967,27.8065612 C232.39525,27.9003425 232.68096,27.81644 232.844122,27.6000699 L232.844122,27.6000699 C232.871447,27.5626823 232.894265,27.5222025 232.912104,27.4794697 C233.160617,26.9089841 233.797469,26.6154346 234.392774,26.7969717 C234.436861,26.8111615 234.482469,26.8201011 234.528652,26.8236051 L234.528652,26.8236051 C234.799182,26.8400683 235.048539,26.67734 235.142341,26.4231159 C235.236143,26.1688918 235.152224,25.883249 234.935808,25.7201229 L234.935808,25.7201229 C234.898413,25.692802 234.857924,25.6699876 234.815181,25.6521528 L234.815181,25.6521528 Z" id="Path" fill="#4D8AF0"></path>
                <path d="M268.156106,234.98589 C267.585493,234.737432 267.291879,234.100724 267.473457,233.505554 C267.48765,233.461477 267.496592,233.415879 267.500097,233.369707 L267.500097,233.369707 C267.516566,233.099236 267.3538,232.849933 267.099517,232.756151 C266.845233,232.66237 266.559524,232.746273 266.396362,232.962643 L266.396362,232.962643 C266.369036,233.00003 266.346218,233.04051 266.32838,233.083243 C266.079865,233.653726 265.443015,233.947275 264.847709,233.765741 C264.803622,233.75155 264.758014,233.742609 264.711832,233.739104 L264.711832,233.739104 C264.441299,233.722639 264.19194,233.885368 264.098138,234.139594 C264.004335,234.39382 264.088257,234.679465 264.304676,234.84259 L264.304676,234.84259 C264.342071,234.869911 264.38256,234.892724 264.425303,234.910556 C264.995916,235.159015 265.28953,235.795722 265.107952,236.390893 C265.093759,236.434971 265.084817,236.48057 265.081313,236.526743 L265.081313,236.526743 C265.064843,236.797214 265.227609,237.046517 265.481892,237.140298 C265.736176,237.23408 266.021885,237.150177 266.185047,236.933807 L266.185047,236.933807 C266.212372,236.896419 266.235191,236.85594 266.253029,236.813207 C266.501542,236.242721 267.138394,235.949172 267.7337,236.130709 C267.777787,236.144899 267.823395,236.153838 267.869577,236.157342 L267.869577,236.157342 C268.140108,236.173805 268.389464,236.011077 268.483266,235.756853 C268.577068,235.502629 268.493149,235.216986 268.276733,235.05386 L268.276733,235.05386 C268.239338,235.026539 268.198849,235.003725 268.156106,234.98589 Z" id="Path" fill="#4D8AF0"></path>
                <path d="M4.09597605,60.9855543 C3.52536293,60.7370962 3.23174874,60.1003886 3.41332727,59.5052181 C3.42752027,59.4611409 3.43646189,59.4155434 3.43996667,59.3693712 L3.43996667,59.3693712 C3.45643585,59.0988999 3.29367025,58.849597 3.03938679,58.7558157 C2.78510332,58.6620344 2.499394,58.745937 2.336232,58.9623071 L2.336232,58.9623071 C2.30890608,58.9996942 2.28608764,59.0401741 2.26824986,59.0829073 C2.01973456,59.6533906 1.38288488,59.9469392 0.787579355,59.7654053 C0.743492331,59.7512144 0.697884514,59.7422736 0.651701747,59.7387686 L0.651701747,59.7387686 C0.381169398,59.7223031 0.131810219,59.885032 0.0380077381,60.139258 C-0.055794743,60.3934841 0.0281267808,60.6791289 0.244545699,60.842254 L0.244545699,60.842254 C0.28194053,60.869575 0.322429696,60.8923884 0.365173167,60.9102208 C0.935786291,61.1586789 1.22940048,61.7953866 1.04782195,62.390557 C1.03362902,62.4346354 1.02468741,62.480234 1.02118255,62.5264073 L1.02118255,62.5264073 C1.00471337,62.7968785 1.16747897,63.0461814 1.42176243,63.1399627 C1.6760459,63.233744 1.96175522,63.1498415 2.12491722,62.9334714 L2.12491722,62.9334714 C2.15224243,62.8960838 2.17506082,62.855604 2.19289936,62.8128712 C2.44141235,62.2423856 3.07826412,61.9488361 3.67356987,62.1303732 C3.71765703,62.144563 3.76326484,62.1535026 3.80944747,62.1570066 L3.80944747,62.1570066 C4.07997795,62.1734698 4.32933443,62.0107415 4.42313646,61.7565174 C4.5169385,61.5022933 4.43301924,61.2166505 4.21660352,61.0535244 L4.21660352,61.0535244 C4.17920808,61.0262035 4.13871906,61.0033891 4.09597605,60.9855543 L4.09597605,60.9855543 Z" id="Path" fill="#4D8AF0"></path>
                <ellipse id="Oval" fill="#47E6B1" cx="26.4709045" cy="94.6668493" rx="2.00045553" ry="2.00000386"></ellipse>
                <ellipse id="Oval" fill="#47E6B1" cx="284.529668" cy="110.66688" rx="2.00045553" ry="2.00000386"></ellipse>
                <g id="Group" transform="translate(192.042217, 0.000000)" fill="#47E6B1">
                    <rect id="Rectangle" x="2.46695176" y="0" width="1.00022777" height="5.6666776"></rect>
                    <polygon id="Rectangle" transform="translate(2.967066, 2.833338) rotate(90.000000) translate(-2.967066, -2.833338) " points="2.46706564 -0.000640833252 3.46706757 -0.000640833252 3.46706757 5.6673165 2.46706564 5.6673165"></polygon>
                </g>
                <g id="Group" transform="translate(195.709719, 222.000428)" fill="#47E6B1">
                    <rect id="Rectangle" x="2.46695176" y="0" width="1.00022777" height="5.6666776"></rect>
                    <polygon id="Rectangle" transform="translate(2.967066, 2.833338) rotate(90.000000) translate(-2.967066, -2.833338) " points="2.46706564 -0.000640833252 3.46706757 -0.000640833252 3.46706757 5.6673165 2.46706564 5.6673165"></polygon>
                </g>
                <g id="Group" transform="translate(6.333262, 234.000451)" fill="#47E6B1">
                    <rect id="Rectangle" x="2.46695176" y="0" width="1.00022777" height="5.6666776"></rect>
                    <polygon id="Rectangle" transform="translate(2.967066, 2.833338) rotate(90.000000) translate(-2.967066, -2.833338) " points="2.46706564 -0.000640833252 3.46706757 -0.000640833252 3.46706757 5.6673165 2.46706564 5.6673165"></polygon>
                </g>
                <g id="Group" transform="translate(234.051783, 132.000255)" fill="#47E6B1">
                    <rect id="Rectangle" x="2.46695176" y="0" width="1.00022777" height="5.6666776"></rect>
                    <polygon id="Rectangle" transform="translate(2.967066, 2.833338) rotate(90.000000) translate(-2.967066, -2.833338) " points="2.46706564 -0.000640833252 3.46706757 -0.000640833252 3.46706757 5.6673165 2.46706564 5.6673165"></polygon>
                </g>
                <polygon id="Path" fill="#47E6B1" points="265.26089 41.0060791 267.409046 42.9747496 270.452406 38.5000743 271.52665 39.395076 267.409046 44.764753 264.365686 41.3640798"></polygon>
            </g>
        </g>
    </g>
</svg>