<?xml version="1.0" encoding="UTF-8"?>
<svg width="747px" height="500px" viewBox="0 0 747 500" version="1.1" xmlns="http://www.w3.org/2000/svg" xmlns:xlink="http://www.w3.org/1999/xlink">
    <!-- Generator: Sketch 61 (89581) - https://sketch.com -->
    <title>home-2</title>
    <desc>Created with Sketch.</desc>
    <defs>
        <linearGradient x1="50.0042246%" y1="100.010209%" x2="50.0042246%" y2="0.0138757895%" id="linearGradient-1">
            <stop stop-color="#808080" stop-opacity="0.25" offset="0%"></stop>
            <stop stop-color="#808080" stop-opacity="0.12" offset="54%"></stop>
            <stop stop-color="#808080" stop-opacity="0.1" offset="100%"></stop>
        </linearGradient>
        <linearGradient x1="49.992764%" y1="99.9962314%" x2="49.992764%" y2="0.0101905373%" id="linearGradient-2">
            <stop stop-color="#808080" stop-opacity="0.25" offset="0%"></stop>
            <stop stop-color="#808080" stop-opacity="0.12" offset="54%"></stop>
            <stop stop-color="#808080" stop-opacity="0.1" offset="100%"></stop>
        </linearGradient>
    </defs>
    <g id="Assets" stroke="none" stroke-width="1" fill="none" fill-rule="evenodd">
        <g id="home-2" fill-rule="nonzero">
            <g id="Group" opacity="0.2" transform="translate(122.758621, 64.137931)">
                <path d="M135.551724,395.462069 C135.926409,396.99858 136.424581,398.502319 137.041379,399.958621 C146.627586,396.193103 156.31954,392.583908 166.117241,389.131034 C166.034483,388.724138 165.951724,388.296552 165.848276,387.875862 C164.861241,383.537203 162.754486,379.532941 159.737931,376.262069 C155.82069,372.124138 150.772414,370.124138 145.862069,371.344828 C140.951724,372.565517 137.386207,376.744828 135.758621,382.241379 C134.541769,386.555392 134.470459,391.112092 135.551724,395.462069 Z" id="Path" fill="#3F3D56"></path>
                <ellipse id="Oval" fill="#3F3D56" transform="translate(144.771950, 366.847698) rotate(-12.590000) translate(-144.771950, -366.847698) " cx="144.77195" cy="366.847698" rx="15.6137931" ry="20.8896552"></ellipse>
                <ellipse id="Oval" fill="#3F3D56" transform="translate(138.866338, 342.009005) rotate(-12.590000) translate(-138.866338, -342.009005) " cx="138.866338" cy="342.009005" rx="15.6137931" ry="20.8896552"></ellipse>
                <ellipse id="Oval" fill="#3F3D56" transform="translate(132.948602, 317.185442) rotate(-12.590000) translate(-132.948602, -317.185442) " cx="132.948602" cy="317.185442" rx="15.6137931" ry="20.8896552"></ellipse>
                <ellipse id="Oval" fill="#3F3D56" transform="translate(127.030866, 292.354982) rotate(-12.590000) translate(-127.030866, -292.354982) " cx="127.030866" cy="292.354982" rx="15.6137931" ry="20.8896552"></ellipse>
                <path d="M143.268966,108.234483 C144.703821,105.015701 145.91587,101.702154 146.896552,98.3172414 L105.517241,101.572414 L148.648276,91.137931 C150.709107,80.2914637 150.448204,69.1314164 147.882759,58.3931034 C145.633453,48.8866874 141.601258,39.8932313 136,31.8896552 L85.5172414,77.0275862 L129.22069,23.6 C111.37931,4.55172414 84.3931034,-4.51034483 57.5724138,2.22068966 C17.4965517,12.2413793 -7.06206897,53.6482759 2.71724138,94.7034483 C6.60453165,111.286421 15.9236349,126.094061 29.1931034,136.772414 C26.9638131,141.784818 25.2693837,147.018363 24.137931,152.386207 L82.3586207,166.965517 L22.7586207,161.8 C22.0457601,170.121466 22.6697484,178.503398 24.6068966,186.627586 C28.5009632,203.209428 37.8216289,218.015694 51.0896552,228.696552 C44.1169238,244.352927 42.5072093,261.873118 46.5103448,278.537931 C56.2896552,319.593103 96.7034483,344.744828 136.77931,334.731034 C176.855172,324.717241 201.413793,283.310345 191.634483,242.255172 C187.740416,225.67333 178.41975,210.867064 165.151724,200.186207 C172.124456,184.529831 173.73417,167.00964 169.731034,150.344828 C165.854397,133.749331 156.53985,118.926651 143.268966,108.234483 L143.268966,108.234483 Z" id="Path" fill="#0093EC"></path>
                <path d="M24.6206897,186.6 C28.5147563,203.181842 37.835422,217.988108 51.1034483,228.668966 C44.1307169,244.325341 42.5210024,261.845532 46.5241379,278.510345 C56.3034483,319.565517 96.7172414,344.717241 136.793103,334.703448 C176.868966,324.689655 201.427586,283.282759 191.648276,242.227586 C187.754209,225.645744 178.433544,210.839478 165.165517,200.158621 C171.882759,185.082759 22.6344828,178.275862 24.6206897,186.6 Z" id="Path" fill="#000000" opacity="0.1"></path>
            </g>
            <g id="Group" opacity="0.2" transform="translate(395.862069, 0.000000)">
                <path d="M48.4413793,452.02069 C48.1902136,453.816026 48.091011,455.629358 48.1448276,457.441379 C60.1678161,457.634483 72.2367816,458.03908 84.3517241,458.655172 C84.4344828,458.17931 84.5172414,457.696552 84.5862069,457.206897 C85.3671538,452.150152 84.7838492,446.976597 82.8965517,442.22069 C80.4,436.137931 75.7448276,431.786207 69.9172414,430.944828 C64.0896552,430.103448 58.4068966,432.972414 54.3034483,438.089655 C51.1434664,442.128307 49.1196835,446.937768 48.4413793,452.02069 L48.4413793,452.02069 Z" id="Path" fill="#3F3D56"></path>
                <ellipse id="Oval" fill="#3F3D56" transform="translate(70.694110, 425.715207) rotate(-81.820000) translate(-70.694110, -425.715207) " cx="70.6941097" cy="425.715207" rx="23.9034483" ry="18.262069"></ellipse>
                <ellipse id="Oval" fill="#3F3D56" transform="translate(74.848983, 396.794797) rotate(-81.820000) translate(-74.848983, -396.794797) " cx="74.8489833" cy="396.794797" rx="23.9034483" ry="18.262069"></ellipse>
                <ellipse id="Oval" fill="#3F3D56" transform="translate(79.002876, 367.881213) rotate(-81.820000) translate(-79.002876, -367.881213) " cx="79.0028756" cy="367.881213" rx="23.9034483" ry="18.262069"></ellipse>
                <ellipse id="Oval" fill="#3F3D56" transform="translate(83.164576, 338.961785) rotate(-81.820000) translate(-83.164576, -338.961785) " cx="83.1645756" cy="338.961785" rx="23.9034483" ry="18.262069"></ellipse>
                <path d="M179.241379,150.772414 C182.165031,147.978306 184.888965,144.982439 187.393103,141.806897 L141.027586,127.241379 L192.331034,135 C205.399217,114.763947 209.562086,90.0411387 203.841379,66.6413793 L129.8,92.462069 L200.062069,54.8758621 C187.864264,24.5005089 159.727392,3.47772743 127.140222,0.391481247 C94.553053,-2.69476494 62.969814,12.67208 45.2864859,40.2174686 C27.6031577,67.7628572 26.7794606,102.876422 43.1517241,131.22069 C38.60942,135.561039 34.546989,140.377228 31.0344828,145.586207 L88.0758621,186.468966 L25.5172414,154.965517 C12.1474418,181.332906 12.9930727,212.667941 27.7655172,238.275862 C-5.25165592,269.754526 -8.52965487,321.323176 20.2359501,356.729108 C49.0015551,392.135039 100.14876,399.485846 137.721136,373.613919 C175.293512,347.741993 186.670971,297.337386 163.855172,257.834483 C193.076454,229.974171 199.434313,185.734189 179.241379,150.772414 Z" id="Path" fill="#0093EC"></path>
                <path d="M16.9310345,182.082759 C14.1111171,201.499436 17.9287288,221.2995 27.7655172,238.275862 C-5.25165592,269.754526 -8.52965487,321.323176 20.2359501,356.729108 C49.0015551,392.135039 100.14876,399.485846 137.721136,373.613919 C175.293512,347.741993 186.670971,297.337386 163.855172,257.834483 C177.57931,244.765517 18.3310345,172.365517 16.9310345,182.082759 Z" id="Path" fill="#000000" opacity="0.1"></path>
            </g>
            <ellipse id="Oval" fill="#0093EC" opacity="0.1" cx="373.103448" cy="478.62069" rx="373.103448" ry="21.3793103"></ellipse>
            <ellipse id="Oval" fill="#0093EC" cx="617.034483" cy="466.648276" rx="17.4482759" ry="3.35862069"></ellipse>
            <ellipse id="Oval" fill="#3F3D56" cx="616.744828" cy="465.227586" rx="2.03448276" ry="2.66206897"></ellipse>
            <ellipse id="Oval" fill="#3F3D56" cx="616.744828" cy="461.972414" rx="2.03448276" ry="2.66206897"></ellipse>
            <ellipse id="Oval" fill="#3F3D56" cx="616.744828" cy="458.724138" rx="2.03448276" ry="2.66206897"></ellipse>
            <ellipse id="Oval" fill="#3F3D56" cx="616.744828" cy="455.475862" rx="2.03448276" ry="2.66206897"></ellipse>
            <ellipse id="Oval" fill="#3F3D56" cx="616.744828" cy="452.22069" rx="2.03448276" ry="2.66206897"></ellipse>
            <ellipse id="Oval" fill="#3F3D56" cx="616.744828" cy="448.972414" rx="2.03448276" ry="2.66206897"></ellipse>
            <ellipse id="Oval" fill="#3F3D56" cx="616.744828" cy="445.724138" rx="2.03448276" ry="2.66206897"></ellipse>
            <path d="M624.344828,423.482759 C624.624257,423.129085 624.877789,422.755701 625.103448,422.365517 L619.765517,421.489655 L625.537931,421.531034 C626.65527,419.09533 626.722597,416.307491 625.724138,413.82069 L617.97931,417.841379 L625.124138,412.586207 C623.306983,409.416038 619.86802,407.529965 616.218017,407.701712 C612.568013,407.873459 609.321347,410.074116 607.809899,413.400908 C606.29845,416.7277 606.776631,420.620653 609.048276,423.482759 C608.616933,424.032923 608.244764,424.627008 607.937931,425.255172 L614.834483,428.855172 L607.448276,426.372414 C606.396817,429.494819 606.999125,432.937326 609.048276,435.517241 C605.910206,439.506484 606.365301,445.237657 610.093623,448.68166 C613.821945,452.125663 619.571158,452.125663 623.29948,448.68166 C627.027803,445.237657 627.482898,439.506484 624.344828,435.517241 C627.121623,431.988853 627.121623,427.018044 624.344828,423.489655 L624.344828,423.482759 Z" id="Path" fill="#0093EC"></path>
            <path d="M606.965517,429.496552 C606.958944,431.67683 607.687881,433.795608 609.034483,435.510345 C605.896413,439.499588 606.351508,445.230761 610.07983,448.674764 C613.808152,452.118767 619.557365,452.118767 623.285687,448.674764 C627.014009,445.230761 627.469105,439.499588 624.331034,435.510345 C625.648276,433.855172 606.965517,428.406897 606.965517,429.496552 Z" id="Path" fill="#000000" opacity="0.1"></path>
            <ellipse id="Oval" fill="#0093EC" cx="216.344828" cy="492.537931" rx="23.3103448" ry="4.48275862"></ellipse>
            <ellipse id="Oval" fill="#3F3D56" cx="215.951724" cy="490.634483" rx="2.71724138" ry="3.55172414"></ellipse>
            <ellipse id="Oval" fill="#3F3D56" cx="215.951724" cy="486.289655" rx="2.71724138" ry="3.55172414"></ellipse>
            <ellipse id="Oval" fill="#3F3D56" cx="215.951724" cy="481.944828" rx="2.71724138" ry="3.55172414"></ellipse>
            <ellipse id="Oval" fill="#3F3D56" cx="215.951724" cy="477.606897" rx="2.71724138" ry="3.55172414"></ellipse>
            <ellipse id="Oval" fill="#3F3D56" cx="215.951724" cy="473.262069" rx="2.71724138" ry="3.55172414"></ellipse>
            <ellipse id="Oval" fill="#3F3D56" cx="215.951724" cy="468.917241" rx="2.71724138" ry="3.55172414"></ellipse>
            <ellipse id="Oval" fill="#3F3D56" cx="215.951724" cy="464.57931" rx="2.71724138" ry="3.55172414"></ellipse>
            <path d="M226.117241,434.862069 C226.485011,434.388014 226.821362,433.890399 227.124138,433.372414 L220,432.2 L227.710345,432.262069 C229.209968,429.008672 229.299804,425.280471 227.958621,421.958621 L217.613793,427.324138 L227.151724,420.344828 C224.704925,416.154143 220.127737,413.675116 215.281003,413.915586 C210.434268,414.156056 206.124949,417.075986 204.104986,421.488289 C202.085023,425.900591 202.690731,431.070633 205.675862,434.896552 C205.0996,435.633044 204.6026,436.428245 204.193103,437.268966 L213.455172,442.096552 L203.57931,438.786207 C202.167856,442.943842 202.94564,447.532772 205.648276,450.993103 C201.45889,456.32307 202.068705,463.977616 207.049135,468.577051 C212.029566,473.176486 219.708365,473.176486 224.688796,468.577051 C229.669226,463.977616 230.279041,456.32307 226.089655,450.993103 C229.795022,446.275027 229.795022,439.635317 226.089655,434.917241 L226.117241,434.862069 Z" id="Path" fill="#0093EC"></path>
            <path d="M202.896552,442.896552 C202.887817,445.810603 203.859447,448.642906 205.655172,450.937931 C201.465787,456.267897 202.075601,463.922444 207.056032,468.521879 C212.036463,473.121313 219.715262,473.121313 224.695692,468.521879 C229.676123,463.922444 230.285937,456.267897 226.096552,450.937931 C227.855172,448.724138 202.896552,441.441379 202.896552,442.896552 Z" id="Path" fill="#000000" opacity="0.1"></path>
            <path d="M339.075862,295.124138 C337.317241,285.924138 335.351724,276.703448 335.027586,267.344828 C334.834483,261.827586 335.22069,256.213793 334.510345,250.710345 C334.158621,248.006897 333.544828,245.351724 332.937931,242.696552 L330.496552,232.068966 C330.773365,230.031699 330.694024,227.961823 330.262069,225.951724 C330.017536,224.891713 329.692453,223.851911 329.289655,222.841379 C331.568627,219.633917 333.446928,216.159872 334.882759,212.496552 C335.531034,210.841379 336.089655,209.082759 335.834483,207.331034 C335.337931,203.972414 332.082759,201.758621 329.055172,200.103448 C327.22069,199.103448 325.289655,198.137931 323.193103,197.97931 C320.221201,197.859586 317.363999,199.135123 315.468966,201.427586 C314.95944,198.708692 315.130018,195.905999 315.965517,193.268966 C314.165517,192.462069 312.351724,191.703448 310.524138,190.965517 C310.260003,188.582136 310.16781,186.18283 310.248276,183.786207 C310.289655,180.910345 310.337931,178.006897 310.503448,175.124138 C320.547705,171.458407 327.253399,161.933461 327.317241,151.241379 C327.317241,150.944828 327.317241,150.655172 327.317241,150.365517 C330.017209,145.511888 330.65814,139.778283 329.096552,134.448276 C327.075862,127.551724 321.793103,121.868966 315.427586,118.358621 C309.062069,114.848276 301.682759,113.365517 294.37931,113.103448 C291.928227,112.959987 289.468792,113.115149 287.055172,113.565517 C284.471907,114.201243 281.968692,115.126646 279.593103,116.324138 C275.944828,118.006897 272.268966,119.848276 269.537931,122.751724 C264.8,127.806897 263.737931,135.234483 264.255172,142.062069 C264.944828,151.027586 267.937931,159.703448 271.4,168.048276 C272.551724,170.806897 273.77931,173.606897 275.675862,175.958621 C277.144828,177.772414 279.696552,177.882759 281.724138,176.613793 C281.563152,178.816777 281.512514,181.026437 281.572414,183.234483 C277.827586,183.103448 274.17931,183.717241 271.172414,185.827586 C269.793103,186.813793 268.482759,188.365517 268.786207,190.034483 C270.687898,190.085039 272.277275,191.496849 272.551724,193.37931 C272.703448,194.848276 271.965517,196.248276 271.248276,197.517241 C270.937931,198.082759 270.627586,198.655172 270.310345,199.22069 C267.344828,202.393103 264.303448,206.365517 264.034483,210.303448 C263.550602,210.349356 263.069476,210.420719 262.593103,210.517241 C259.903448,211.013793 257.227586,211.931034 254.586207,212.62069 L235.468966,217.655172 L230.744828,218.965517 L223.158621,220.965517 C218.331034,222.234483 213.413793,223.537931 209.131034,226.089655 C204.848276,228.641379 201.213793,232.648276 200.351724,237.475862 C199.924138,239.875862 200.186207,242.372414 199.662069,244.751724 C199.662069,244.862069 199.62069,244.965517 199.593103,245.068966 C199.155024,246.575091 198.565822,248.033076 197.834483,249.42069 C193.551724,258.448276 190.503448,268.289655 191.075862,278.227586 C191.427586,284.331034 193.144828,290.282759 194.813793,296.158621 C196.565517,302.167816 198.294253,308.177011 200,314.186207 C201.124763,318.488158 202.551285,322.7055 204.268966,326.806897 C207.211537,333.377007 211.576367,339.211698 217.048276,343.889655 C218.583826,345.266932 220.300967,346.427162 222.151724,347.337931 C224.97357,348.558097 228.054337,349.05813 231.117241,348.793103 C231.944828,348.737931 232.758621,348.648276 233.565517,348.517241 C239.489655,347.57931 245.013793,344.724138 250.082759,341.510345 C252.202299,340.167816 254.271264,338.754023 256.289655,337.268966 C256.546007,339.585758 257.00759,341.87521 257.668966,344.110345 C258.117241,345.648276 258.668966,347.227586 258.489655,348.82069 C258.241379,351.041379 256.627586,352.862069 255.793103,354.944828 C254.02069,359.344828 255.841379,364.248276 256.137931,368.965517 C256.42069,373.386207 255.344828,377.772414 254.482759,382.124138 C253.043097,389.381573 252.192053,396.743446 251.937931,404.137931 C251.930216,406.937559 251.745942,409.733914 251.386207,412.510345 C250.744828,416.427586 249.241379,420.206897 248.97931,424.165517 C248.57931,430.331034 251.241379,436.365517 251,442.537931 C250.717241,449.786207 246.462069,456.827586 247.944828,463.917241 C248.131034,464.806897 248.634483,465.834483 249.448276,466.062069 L249.048276,466.427586 C247.827586,467.558621 246.641379,469.648276 248.027586,470.565517 C248.346509,470.755072 248.700953,470.877132 249.068966,470.924138 C251.213793,471.372414 253.372414,471.77931 255.531034,472.158621 C255.483559,474.152568 255.734613,476.1424 256.275862,478.062069 C256.668966,478.344828 257.068966,478.6 257.468966,478.841379 C257.165517,479.655172 257.186207,480.441379 257.903448,480.910345 C258.222371,481.099899 258.576815,481.221959 258.944828,481.268966 C276.709984,484.934408 294.853,486.439572 312.97931,485.751724 C316.22069,485.627586 319.606897,485.393103 322.372414,483.737931 C325.137931,482.082759 327.006897,478.558621 325.689655,475.655172 C324.524138,473.089655 321.475862,471.97931 318.737931,471.124138 L315.524138,470.131034 C316.358411,468.652145 316.46525,466.871482 315.813793,465.303448 C314.648276,462.737931 311.6,461.627586 308.862069,460.772414 L301.462069,458.475862 C300.488122,458.245025 299.57241,457.815344 298.772414,457.213793 C298.242357,456.686527 297.753565,456.119343 297.310345,455.517241 C296.242579,454.296461 294.839646,453.416331 293.275862,452.986207 C293.192654,451.41801 293.227234,449.84578 293.37931,448.282759 L295.448276,423.310345 C295.910345,417.655172 296.365517,411.889655 295.048276,406.365517 C294.517241,404.124138 293.668966,401.827586 294.186207,399.57931 C294.993103,395.910345 298.855172,393.868966 301.489655,391.144828 C305.462069,387.006897 306.696552,381.124138 307.606897,375.524138 C311.376631,352.414871 312.560942,328.957646 311.137931,305.586207 C319.416911,303.252315 327.937723,301.882321 336.531034,301.503448 C337.993103,301.441379 338.710345,300.751724 339.165517,299.386207 C339.62069,298.02069 339.344828,296.537931 339.075862,295.124138 Z M297.8,296.344828 C297.848276,296.103448 297.903448,295.862069 297.944828,295.62069 L298.517241,296.351724 L297.8,296.344828 Z" id="Shape" fill="url(#linearGradient-1)"></path>
            <path d="M284.351724,169.758621 C284.172414,172.158621 283.324138,174.462069 283.013793,176.855172 C282.662069,179.489655 282.972414,182.172414 282.8,184.827586 C282.627586,187.482759 281.862069,190.275862 279.841379,192.006897 C291.586004,193.024029 303.154185,195.52676 314.268966,199.455172 C310.910345,195.317241 310.82069,189.537931 310.903448,184.227586 C311.013793,176.372414 311.151724,168.365517 313.717241,160.951724 C306.065499,159.241361 298.142018,159.138031 290.448276,160.648276 C288.77931,160.97931 283.724138,160.772414 282.972414,162.331034 C282.427586,163.475862 284.475862,168.02069 284.351724,169.758621 Z" id="Path" fill="#A1616A"></path>
            <path d="M284.351724,169.758621 C284.172414,172.158621 283.324138,174.462069 283.013793,176.855172 C282.662069,179.489655 282.972414,182.172414 282.8,184.827586 C282.627586,187.482759 281.862069,190.275862 279.841379,192.006897 C291.586004,193.024029 303.154185,195.52676 314.268966,199.455172 C310.910345,195.317241 310.82069,189.537931 310.903448,184.227586 C311.013793,176.372414 311.151724,168.365517 313.717241,160.951724 C306.065499,159.241361 298.142018,159.138031 290.448276,160.648276 C288.77931,160.97931 283.724138,160.772414 282.972414,162.331034 C282.427586,163.475862 284.475862,168.02069 284.351724,169.758621 Z" id="Path" fill="#000000" opacity="0.1"></path>
            <path d="M298.255172,455.551724 C298.669608,456.163447 299.130754,456.742186 299.634483,457.282759 C300.411089,457.884774 301.306716,458.314957 302.262069,458.544828 L309.489655,460.841379 C312.172414,461.696552 315.151724,462.8 316.289655,465.365517 C317.572414,468.262069 315.744828,471.786207 313.041379,473.434483 C310.337931,475.082759 307.027586,475.324138 303.862069,475.448276 C286.138174,476.131179 268.397653,474.627902 251.041379,470.972414 C250.683195,470.920534 250.33872,470.798679 250.027586,470.613793 C248.648276,469.682759 249.827586,467.6 251.02069,466.475862 C255.675862,462.062069 260.737931,457.434483 267.075862,456.413793 C270.406897,455.868966 273.751724,456.089655 277.062069,455.296552 C279.441379,454.724138 281.689655,453.737931 284.062069,453.151724 C288.482759,452.068966 295.096552,451.682759 298.255172,455.551724 Z" id="Path" fill="#46455B"></path>
            <path d="M298.255172,455.551724 C298.669608,456.163447 299.130754,456.742186 299.634483,457.282759 C300.411089,457.884774 301.306716,458.314957 302.262069,458.544828 L309.489655,460.841379 C312.172414,461.696552 315.151724,462.8 316.289655,465.365517 C317.572414,468.262069 315.744828,471.786207 313.041379,473.434483 C310.337931,475.082759 307.027586,475.324138 303.862069,475.448276 C286.138174,476.131179 268.397653,474.627902 251.041379,470.972414 C250.683195,470.920534 250.33872,470.798679 250.027586,470.613793 C248.648276,469.682759 249.827586,467.6 251.02069,466.475862 C255.675862,462.062069 260.737931,457.434483 267.075862,456.413793 C270.406897,455.868966 273.751724,456.089655 277.062069,455.296552 C279.441379,454.724138 281.689655,453.737931 284.062069,453.151724 C288.482759,452.068966 295.096552,451.682759 298.255172,455.551724 Z" id="Path" fill="#000000" opacity="0.1"></path>
            <path d="M261.965517,299.565517 C258.399118,308.976893 258.179952,319.328872 261.344828,328.882759 C258.937931,328.62069 257.896552,331.875862 257.958621,334.303448 C258.044303,337.683068 258.556399,341.038343 259.482759,344.289655 C259.924138,345.834483 260.462069,347.406897 260.289655,348.993103 C260.041379,351.213793 258.468966,353.034483 257.648276,355.110345 C255.924138,359.503448 257.696552,364.4 257.993103,369.110345 C258.268966,373.531034 257.213793,377.910345 256.365517,382.255172 C254.960296,389.504778 254.130126,396.854088 253.882759,404.234483 C253.877794,407.031689 253.695821,409.825779 253.337931,412.6 C252.717241,416.517241 251.268966,420.289655 250.993103,424.241379 C250.6,430.393103 253.2,436.427586 252.965517,442.593103 C252.689655,449.827586 248.524138,456.862069 249.97931,463.972414 C250.186207,464.972414 250.744828,466.151724 251.772414,466.165517 C262.172414,466.296552 271.889655,463.406897 282.17931,464.917241 C283.227586,441.110345 284.248276,417.193103 288.937931,393.82069 C293.075862,373.013793 300.089655,352.441379 299.434483,331.227586 C299.055172,319.096552 296.172414,307.2 294.42069,295.186207 C283.425539,292.744855 271.920383,294.297293 261.965517,299.565517 Z" id="Path" fill="#BBBDC8"></path>
            <path d="M261.965517,299.565517 C258.399118,308.976893 258.179952,319.328872 261.344828,328.882759 C258.937931,328.62069 257.896552,331.875862 257.958621,334.303448 C258.044303,337.683068 258.556399,341.038343 259.482759,344.289655 C259.924138,345.834483 260.462069,347.406897 260.289655,348.993103 C260.041379,351.213793 258.468966,353.034483 257.648276,355.110345 C255.924138,359.503448 257.696552,364.4 257.993103,369.110345 C258.268966,373.531034 257.213793,377.910345 256.365517,382.255172 C254.960296,389.504778 254.130126,396.854088 253.882759,404.234483 C253.877794,407.031689 253.695821,409.825779 253.337931,412.6 C252.717241,416.517241 251.268966,420.289655 250.993103,424.241379 C250.6,430.393103 253.2,436.427586 252.965517,442.593103 C252.689655,449.827586 248.524138,456.862069 249.97931,463.972414 C250.186207,464.972414 250.744828,466.151724 251.772414,466.165517 C262.172414,466.296552 271.889655,463.406897 282.17931,464.917241 C283.227586,441.110345 284.248276,417.193103 288.937931,393.82069 C293.075862,373.013793 300.089655,352.441379 299.434483,331.227586 C299.055172,319.096552 296.172414,307.2 294.42069,295.186207 C283.425539,292.744855 271.920383,294.297293 261.965517,299.565517 Z" id="Path" fill="#000000" opacity="0.1"></path>
            <path d="M307.910345,465.896552 C308.32478,466.508275 308.785927,467.087013 309.289655,467.627586 C310.066261,468.229602 310.961888,468.659785 311.917241,468.889655 L319.144828,471.186207 C321.827586,472.041379 324.806897,473.144828 325.944828,475.710345 C327.227586,478.606897 325.4,482.131034 322.696552,483.77931 C319.993103,485.427586 316.682759,485.668966 313.517241,485.793103 C295.793346,486.476006 278.052825,484.97273 260.696552,481.317241 C260.338368,481.265362 259.993893,481.143507 259.682759,480.958621 C258.303448,480.027586 259.482759,477.944828 260.675862,476.82069 C265.331034,472.406897 270.393103,467.77931 276.731034,466.758621 C280.062069,466.213793 283.406897,466.434483 286.717241,465.641379 C289.096552,465.068966 291.344828,464.082759 293.717241,463.496552 C298.137931,462.413793 304.751724,462.027586 307.910345,465.896552 Z" id="Path" fill="#46455B"></path>
            <path d="M265.551724,300.248276 C262.889655,303.696552 262.103448,308.248276 262.462069,312.565517 C262.82069,316.882759 264.275862,321.027586 265.703448,325.117241 C263.806897,326.862069 264.2,329.868966 264.448276,332.434483 C265.351724,341.965517 262.041379,351.475862 262.524138,361.034483 C262.724138,365.055172 263.6,369.02069 263.806897,373.041379 C264.034483,377.434483 263.475862,381.827586 262.951724,386.193103 C259.603641,414.140486 257.761898,442.24779 257.434055,470.393103 C257.434055,472.986207 257.393103,475.62069 258.124138,478.103448 C263.137931,481.793103 269.434483,482.289655 275.503448,480.910345 C281.572414,479.531034 287.110345,476.455172 292.551724,473.42069 C295.532784,471.87788 298.359448,470.053481 300.993103,467.972414 C301.798778,467.402305 302.394854,466.583307 302.689655,465.641379 C303.268966,462.882759 299.434483,461.634483 297.234483,459.848276 C294.034483,457.248276 294.082759,452.434483 294.413793,448.324138 L296.413793,423.386207 C296.868966,417.737931 297.310345,411.97931 296.027586,406.462069 C295.503448,404.227586 294.696552,401.931034 295.17931,399.682759 C295.965517,396.027586 299.744828,393.986207 302.317241,391.262069 C306.206897,387.124138 307.406897,381.255172 308.303448,375.668966 C312.528813,349.167317 313.427724,322.241693 310.97931,295.517241 C305.910345,297.275862 299.903448,296.317241 294.558621,296.731034 C289.213793,297.144828 283.903448,298.931034 278.489655,299.075862 C273.97931,299.17931 268.324138,296.689655 265.551724,300.248276 Z" id="Path" fill="#BBBDC8"></path>
            <circle id="Oval" fill="#A1616A" cx="302.068966" cy="151.724138" r="25.5172414"></circle>
            <path d="M316.489655,193.696552 C308.312924,189.940974 299.786888,186.998094 291.034483,184.910345 C284.868966,183.441379 277.827586,182.558621 272.675862,186.248276 C271.296552,187.234483 270.048276,188.786207 270.344828,190.455172 C272.222329,190.517197 273.778452,191.930261 274.02069,193.793103 C274.172414,195.255172 273.455172,196.655172 272.751724,197.931034 L266.8,208.965517 C265.659618,210.953316 264.679503,213.028855 263.868966,215.172414 C262.668966,218.675862 262.406897,222.427586 262.151724,226.124138 L261.462069,236.137931 C261.034483,242.448276 260.6,248.786207 261.172414,255.082759 C261.6,259.834483 262.593103,264.606897 261.917241,269.331034 C261.372414,273.131034 259.765517,276.696552 258.862069,280.434483 C257.165517,287.468966 257.937931,295.17931 254.648276,301.634483 C255.984276,301.017778 257.492254,300.881353 258.917241,301.248276 C268.903448,303.089655 276.758621,310.972414 286.455172,313.986207 C288.903448,310.413793 292.22069,307.77931 294.958621,304.455172 C296.994835,301.963296 298.343002,298.981637 298.868966,295.806897 C300.937931,298.565517 302.696552,300.717241 303.931034,303.917241 C304.150708,304.661718 304.526923,305.350662 305.034483,305.937931 C306.337931,307.206897 308.482759,306.717241 310.227586,306.186207 C318.781669,303.60597 327.625168,302.106954 336.551724,301.724138 C337.986207,301.662069 338.682759,300.972414 339.131034,299.606897 C339.57931,298.241379 339.331034,296.765517 339.062069,295.358621 C337.344828,286.165517 335.427586,276.958621 335.110345,267.613793 C334.917241,262.096552 335.296552,256.503448 334.6,251 C334.255172,248.303448 333.655172,245.648276 333.062069,243 L328.137931,221.117241 C327.862069,219.896552 326.551724,219.096552 325.993103,217.972414 C323.731034,213.393103 319.406897,210.082759 317.172414,205.489655 C315.48455,201.780715 315.24109,197.575496 316.489655,193.696552 L316.489655,193.696552 Z" id="Path" fill="#46455B"></path>
            <path d="M280.689655,161.937931 C280.659807,161.58071 280.74434,161.223253 280.931034,160.917241 C281.203867,160.630756 281.545887,160.419369 281.924138,160.303448 C284.0369,159.300191 285.227721,157.017081 284.841379,154.710345 L287.255172,154.206897 L287.331034,145.8 C290.917241,143.813793 295.806897,145.317241 299.17931,142.97931 C301.075862,141.655172 302.048276,139.406897 303.206897,137.406897 C304.365517,135.406897 306.089655,133.393103 308.393103,133.227586 C306.789489,137.306679 307.080038,141.887256 309.186207,145.731034 C311.601189,144.508817 313.61787,142.623711 315,140.296552 L316.2,147.193103 C316.224228,147.618285 316.406209,148.019134 316.710345,148.317241 C317.337931,148.77931 318.186207,148.2 318.737931,147.627586 L321.862069,144.558621 C323.176889,147.85771 324.078002,151.306959 324.544828,154.827586 C329.675862,149.848276 331.268966,141.848276 329.296552,134.97931 C327.324138,128.110345 322.158621,122.42069 315.937931,118.910345 C309.717241,115.4 302.503448,113.924138 295.365517,113.662069 C292.96939,113.521846 290.565113,113.677035 288.206897,114.124138 C285.676896,114.760584 283.22859,115.68622 280.910345,116.882759 C277.344828,118.558621 273.744828,120.4 271.082759,123.296552 C266.448276,128.344828 265.406897,135.765517 265.917241,142.606897 C266.606897,151.572414 269.517241,160.227586 272.903448,168.558621 C274.027586,171.317241 275.227586,174.110345 277.082759,176.462069 C279.875862,180 286.737931,177.062069 285.862069,170.068966 C285.255172,165.075862 280.689655,167 280.689655,161.937931 Z" id="Path" fill="#3F3D56"></path>
            <path d="M290.344828,298.551724 C281.73818,316.137155 268.521572,331.057978 252.103448,341.724138 C247.144828,344.931034 241.758621,347.786207 235.958621,348.724138 C235.165517,348.855172 234.372414,348.944828 233.565517,349 C230.574559,349.247672 227.56941,348.737722 224.827586,347.517241 C223.012381,346.603208 221.332134,345.442817 219.834483,344.068966 C214.467633,339.371623 210.203087,333.548198 207.344828,327.013793 C205.664799,322.912802 204.270662,318.700435 203.172414,314.406897 C201.48046,308.402299 199.793103,302.395402 198.110345,296.386207 C196.462069,290.510345 194.8,284.565517 194.455172,278.455172 C193.896552,268.531034 196.875862,258.703448 201.062069,249.689655 C201.776037,248.301405 202.351239,246.846075 202.77931,245.344828 C202.77931,245.241379 202.827586,245.137931 202.848276,245.027586 C203.344828,242.648276 203.089655,240.158621 203.537931,237.758621 C204.37931,232.931034 207.937931,228.931034 212.117241,226.386207 C216.296552,223.841379 221.082759,222.537931 225.834483,221.268966 L233.234483,219.275862 L237.827586,218.041379 L256.510345,213.013793 C259.096552,212.324138 261.710345,211.406897 264.337931,210.944828 C267.268966,210.393103 267.248276,210.682759 267.475862,213.551724 C267.896552,218.751724 267.758621,223.862069 268.855172,229.013793 C269.896552,233.931034 271.731034,238.668966 273.110345,243.496552 C276.593103,255.682759 277.172414,268.510345 279.917241,280.889655 C280.544828,283.710345 281.413793,286.717241 283.682759,288.475862 C286.282759,290.544828 290.662069,291.055172 291.351724,294.296552 C291.606897,295.737931 290.965517,297.213793 290.344828,298.551724 Z" id="Path" fill="#0093EC"></path>
            <path d="M235.958621,348.696552 C235.165517,348.827586 234.372414,348.917241 233.565517,348.972414 C230.576892,349.228736 227.571842,348.728289 224.827586,347.517241 C223.012381,346.603208 221.332134,345.442817 219.834483,344.068966 C214.467633,339.371623 210.203087,333.548198 207.344828,327.013793 C205.664799,322.912802 204.270662,318.700435 203.172414,314.406897 C201.48046,308.402299 199.793103,302.395402 198.110345,296.386207 C196.462069,290.510345 194.8,284.565517 194.455172,278.455172 C193.896552,268.531034 196.875862,258.703448 201.062069,249.689655 C201.776037,248.301405 202.351239,246.846075 202.77931,245.344828 C202.77931,245.241379 202.827586,245.137931 202.848276,245.027586 C214.103448,247.006897 227.606897,268.537931 234.572414,296.751724 C239.703448,317.848276 239.924138,337.275862 235.958621,348.696552 Z" id="Path" fill="#000000" opacity="0.1"></path>
            <path d="M256.303448,274.462069 L254.42069,274.786207 C252.482759,269.696552 250.551724,264.6 248.282759,259.648276 C247.103448,257.062069 245.827586,254.510345 244.834483,251.841379 C241.110345,241.593103 241.744828,229.434483 234.841379,220.993103 C234.348618,220.366115 233.786412,219.796969 233.165517,219.296552 L237.758621,218.062069 C241.780745,224.421402 244.617365,231.456873 246.131034,238.827586 C246.875862,242.427586 247.296552,246.110345 248.510345,249.572414 C249.54278,252.198451 250.724004,254.763527 252.048276,257.255172 C254.668966,262.627586 256.641379,268.496552 256.303448,274.462069 Z" id="Path" fill="#000000" opacity="0.1"></path>
            <path d="M274.634483,196.758621 C279.593103,192.510345 286.358621,190.17931 292.77931,191.241379 C296.558621,191.855172 300.068966,193.558621 303.455172,195.37931 C310.055172,198.882759 316.558621,202.917241 321.317241,208.675862 C324.170673,212.307816 326.539943,216.295238 328.365517,220.537931 C329.26077,222.391643 329.9544,224.33612 330.434483,226.337931 C332.117241,234.131034 327.986207,241.875862 324.006897,248.786207 L316.351724,262.068966 C312.834483,268.172414 309.289655,274.317241 304.710345,279.675862 C302.6,282.144828 300.282759,284.427586 297.972414,286.710345 L287.827586,296.724138 C287.645126,296.939278 287.406301,297.099291 287.137931,297.186207 C286.689702,297.210152 286.253544,297.036193 285.944828,296.710345 L282.593103,294.041379 C285.680295,291.908456 288.54938,289.475971 291.158621,286.77931 C295.544828,282.241379 299.151724,277.02069 302.737931,271.82069 L313.896552,255.641379 C317.158621,250.903448 320.565517,245.689655 320.2,239.951724 C320.027586,237.193103 318.993103,234.6 317.910345,232.068966 C315.993103,227.567816 313.910345,223.137931 311.662069,218.77931 C309.137931,213.889655 306.37931,209.062069 302.744828,204.931034 C299.110345,200.8 294.517241,197.344828 289.227586,195.848276 C287.649944,195.332839 285.977831,195.172693 284.331034,195.37931 C280.703448,195.97931 278.124138,199.096552 275.827586,201.993103 L268.834483,210.958621 C267.241379,212.993103 265.77931,215.351724 265.682759,211.489655 C265.517241,205.97931 271.089655,200.303448 274.634483,196.758621 Z" id="Path" fill="#0093EC"></path>
            <path d="M276.8,257.241379 C278.17931,262.551724 280.213793,268.57931 285.324138,270.593103 C288.944828,272.02069 293.186207,270.862069 296.317241,268.524138 C299.448276,266.186207 301.668966,262.889655 303.710345,259.558621 C305.438173,256.565224 307.342692,253.677356 309.413793,250.910345 C313.503448,245.77931 319.068966,241.710345 321.827586,235.737931 C322.641379,233.958621 323.206897,232.055172 324.131034,230.344828 C325.118603,228.767883 326.235061,227.275427 327.468966,225.882759 C330.64428,221.948741 333.183155,217.541198 334.993103,212.82069 C335.627586,211.172414 336.172414,209.406897 335.924138,207.662069 C335.434483,204.303448 332.255172,202.096552 329.296552,200.448276 C327.496552,199.448276 325.613793,198.475862 323.565517,198.324138 C320.572414,198.089655 317.627586,199.703448 315.786207,202.068966 C314.013553,204.515699 313.022996,207.441688 312.944828,210.462069 C312.737931,214.137931 313.455172,217.958621 312.255172,221.434483 C311.620545,223.056028 310.743933,224.572079 309.655172,225.931034 C305.781278,231.113857 300.986444,235.539318 295.510345,238.986207 C295.360192,236.377535 294.794449,233.809574 293.834483,231.37931 C293.310345,230.041379 283.034483,231.37931 281.696552,231.6 C279.048276,231.986207 273.917241,232.289655 272.248276,234.813793 C270.57931,237.337931 272.648276,241.57931 273.324138,244.124138 L276.8,257.241379 Z" id="Path" fill="#A1616A"></path>
            <path d="M276.551724,199.289655 C275.025173,200.550822 273.604344,201.934747 272.303448,203.427586 C269.241379,207.117241 267.744836,211.917241 267.358621,216.696552 C266.972414,221.475862 267.627586,226.275862 268.448276,231 C269.193103,235.23908 270.073563,239.448276 271.089655,243.627586 C271.372414,240.475862 273.924138,237.868966 276.882759,236.731034 C279.841379,235.593103 283.089655,235.717241 286.241379,236.17931 C290.297886,236.780165 294.255181,237.923744 298.006897,239.57931 L299.462069,219.186207 C299.768402,216.435124 299.7522,213.657667 299.413793,210.910345 C298.486677,205.753122 295.386561,201.243634 290.903448,198.531034 C285.372414,195.165517 281.517241,194.951724 276.551724,199.289655 Z" id="Path" fill="#46455B"></path>
            <path d="M537.089655,298.524138 C536.435157,292.98987 534.825055,287.611195 532.331034,282.627586 C530.806897,279.593103 528.951724,276.689655 527.993103,273.441379 C527.213793,270.8 527.062069,268.02069 526.441379,265.337931 C525.82069,262.655172 524.724138,260.089655 523.841379,257.468966 C517.6,238.848276 522.289655,218.475862 520.275862,198.958621 C519.524138,191.758621 517.317241,183.862069 511.075862,180.110345 C507.365517,177.882759 502.910345,177.537931 498.544828,177.351724 L496.551724,177.262069 L493.351724,177.103448 C488.717241,176.875862 484.068966,176.703448 479.558621,177.675862 C474.041379,178.882759 467.503448,182.765517 465.765517,188.4 C464.813793,187.910345 463.855172,187.475862 462.972414,187.068966 C459.419842,185.493002 455.695947,184.335794 451.875862,183.62069 C455.152727,182.795267 458.316416,181.572407 461.296552,179.97931 C468.193103,175.965517 469.793103,164.241379 471.2,156.4 C472.606897,148.558621 471.324138,140.455172 468.986207,132.834483 C468.213997,130.130336 467.162351,127.513933 465.848276,125.027586 C462.178613,118.407341 455.919323,113.61294 448.571748,111.794363 C441.224174,109.975786 433.4512,111.297101 427.117241,115.441379 C420.682759,119.655172 414.703448,125.786207 409.793103,131.710345 C409.103448,132.524138 406.22069,135.406897 407.17931,136.62069 C407.717241,137.310345 409.489655,136.758621 411.351724,135.931034 C409.919217,139.167193 409.181492,142.667861 409.186207,146.206897 C409.194508,155.250409 413.973675,163.618538 421.758621,168.22069 L422.448276,174.565517 L422.448276,174.613793 C422.524138,176.731034 422.558621,178.848276 422.586207,180.958621 C422.586207,182.441379 422.586207,183.958621 422.544828,185.475862 C419.683151,188.713786 416.178985,191.320774 412.255172,193.131034 C415.496552,193.668966 418.586207,192.910345 421.593103,191.613793 C421.104306,193.307794 420.283826,194.887804 419.17931,196.262069 C420.006897,195.972414 420.834483,195.710345 421.662069,195.434483 C421.229537,196.129391 420.844742,196.852898 420.510345,197.6 C420.00011,198.780902 419.627541,200.016625 419.4,201.282759 C417.643953,203.848698 416.122852,206.567753 414.855172,209.406897 L414.855172,209.406897 C414.275862,210.696552 413.758621,212.006897 413.289655,213.337931 L413.289655,213.427586 C412.829885,214.751724 412.422989,216.094253 412.068966,217.455172 L412.068966,217.455172 C411.903448,218.108046 411.751724,218.763218 411.613793,219.42069 C411.613793,219.468966 411.613793,219.517241 411.613793,219.565517 C411.337931,220.896552 411.110345,222.234483 410.924138,223.586207 C410.924138,223.675862 410.924138,223.765517 410.924138,223.862069 C410.848276,224.489655 410.77931,225.124138 410.731034,225.758621 C410.731034,225.758621 410.731034,225.82069 410.731034,225.855172 C410.675862,226.544828 410.634483,227.2 410.613793,227.875862 C410.613793,227.965517 410.613793,228.048276 410.613793,228.137931 C410.613793,228.710345 410.613793,229.289655 410.613793,229.862069 L410.613793,230.255172 C410.613793,231.551724 410.696552,232.855172 410.82069,234.158621 C410.82069,234.317241 410.82069,234.482759 410.868966,234.641379 C410.924138,235.172414 410.986207,235.703448 411.062069,236.241379 C411.062069,236.365517 411.062069,236.489655 411.110345,236.606897 C411.2,237.248276 411.303448,237.882759 411.42069,238.517241 C411.42069,238.655172 411.482759,238.8 411.510345,238.937931 C411.606897,239.448276 411.710345,239.951724 411.827586,240.462069 L411.951724,240.986207 C412.103448,241.62069 412.262069,242.248276 412.441379,242.882759 C412.544828,243.241379 412.648276,243.572414 412.758621,243.951724 C413.087907,245.259003 413.318441,246.589189 413.448276,247.931034 L409.675862,248.055172 C401.602299,248.285057 393.535632,248.650575 385.475862,249.151724 C384.468966,245.268966 381.034483,243.027586 376.710345,242.496552 C376.023791,242.413851 375.332896,242.372397 374.641379,242.372414 L374.641379,242.372414 C375.387263,241.744131 376.05007,241.023387 376.613793,240.227586 C377.364128,239.195389 377.898898,238.022648 378.186207,236.77931 C377.07476,237.411817 376.103393,238.263523 375.331034,239.282759 C375.075862,239.627586 374.848276,239.972414 374.641379,240.289655 L374.641379,238.22069 C374.64328,238.132325 374.609014,238.047016 374.546516,237.984518 C374.484019,237.92202 374.39871,237.887754 374.310345,237.889655 L373.62069,237.889655 C373.532325,237.887754 373.447016,237.92202 373.384518,237.984518 C373.32202,238.047016 373.287754,238.132325 373.289655,238.22069 L373.289655,242.434483 L373.151724,242.434483 L372.917241,242.434483 C372.462069,242.475862 372.02069,242.531034 371.586207,242.613793 C366.889655,243.489655 363.448276,246.503448 363.448276,251.57931 C363.450915,254.814088 364.872817,257.884792 367.337931,259.97931 C367.540233,261.560171 367.898296,263.117165 368.406897,264.627586 C368.882759,266.124138 369.503448,267.751724 370.896552,268.496552 C371.74776,268.882757 372.681009,269.0533 373.613793,268.993103 C381.282759,268.993103 388.537931,265.455172 396.172414,264.855172 C400.889655,264.475862 405.627586,265.206897 410.358621,265.062069 C411.048276,265.062069 411.737931,264.993103 412.427586,264.937931 C405.958621,296.972414 398.131034,329.413793 402.22069,361.772414 C402.489655,363.924138 402.910345,366.255172 404.517241,367.717241 C406.648276,369.662069 409.931034,369.344828 412.793103,369.096552 C420.647178,368.380226 428.565912,369.012326 436.206897,370.965517 C437.281364,371.262471 438.4106,371.302632 439.503448,371.082759 C439.737055,371.029669 439.967338,370.962887 440.193103,370.882759 L440.386207,370.806897 C440.531034,370.751724 440.668966,370.696552 440.8,370.634483 L441,370.531034 L441.337931,370.324138 C441.393103,370.282759 441.455172,370.248276 441.503448,370.206897 C441.623412,370.124293 441.736431,370.032032 441.841379,369.931034 L441.937931,369.848276 C442.067029,369.721762 442.189054,369.588226 442.303448,369.448276 L442.386207,369.324138 C442.46602,369.220482 442.539709,369.112252 442.606897,369 C442.641379,368.944828 442.675862,368.889655 442.703448,368.834483 C442.731034,368.77931 442.813793,368.627586 442.862069,368.524138 C442.910345,368.42069 442.917241,368.4 442.937931,368.337931 C442.958621,368.275862 443.027586,368.110345 443.068966,367.993103 C443.110345,367.875862 443.068966,367.882759 443.124138,367.82069 C443.17931,367.758621 443.22069,367.475862 443.255172,367.303448 L443.255172,367.193103 C443.255172,367.048276 443.310345,366.896552 443.331034,366.751724 C443.351724,366.606897 443.331034,366.6 443.331034,366.524138 C443.331034,366.448276 443.331034,366.296552 443.331034,366.186207 L443.331034,365.937931 C443.331034,365.827586 443.331034,365.717241 443.331034,365.606897 L443.331034,364.993103 C443.331034,364.924138 443.331034,364.848276 443.331034,364.772414 L443.331034,364.772414 C443.331034,364.158621 443.262069,363.537931 443.2,362.944828 C443.692906,363.088083 444.195302,363.196398 444.703448,363.268966 L444.703448,363.268966 C445.177784,363.344294 445.657695,363.378902 446.137931,363.372414 L446.206897,363.372414 C446.434483,363.372414 446.662069,363.372414 446.896552,363.317241 L446.896552,363.317241 C447.096329,363.286491 447.294315,363.245053 447.489655,363.193103 L447.57931,363.193103 C447.759791,363.139753 447.935189,363.070517 448.103448,362.986207 L448.186207,362.937931 C448.329646,362.858054 448.4658,362.765746 448.593103,362.662069 L448.655172,362.613793 C448.78448,362.493551 448.900122,362.359405 449,362.213793 L449.062069,362.110345 C449.164318,361.94407 449.245405,361.765679 449.303448,361.57931 C449.696552,360.248276 448.8,358.744828 450.234483,357.524138 C451.613793,361.944828 452.993103,366.372414 453.22069,370.944828 C453.296552,372.613793 453.22069,374.393103 454.2,375.772414 C454.83733,376.52532 455.528826,377.230646 456.268966,377.882759 C458.37931,380.165517 458.427586,383.606897 458.282759,386.696552 C458.22069,387.944828 458.151724,389.193103 458.062069,390.441379 C456.922661,407.099033 453.535642,423.526071 447.993103,439.275862 C447.452912,440.951598 446.745921,442.568896 445.882759,444.103448 C444.483092,446.27555 442.732915,448.200512 440.703448,449.8 C437.828058,452.24187 434.747711,454.431569 431.496552,456.344828 C429.835836,457.222891 428.267109,458.264859 426.813793,459.455172 C426.758621,459.296552 426.696552,459.144828 426.655172,458.97931 C426.57931,458.662069 426.475862,458.289655 426.165517,458.172414 C425.929999,458.119041 425.68297,458.158565 425.475862,458.282759 C422.241379,459.703448 419.006897,461.124138 415.896552,462.786207 C414.326373,463.501737 412.943141,464.571027 411.855172,465.910345 C410.862069,467.289655 410.565517,469.358621 411.593103,470.737931 C412.496552,471.944828 414.117241,472.344828 415.613793,472.613793 C417.531034,472.951724 419.455172,473.193103 421.37931,473.372414 C420.390486,473.951685 419.525691,474.720392 418.834483,475.634483 C417.841379,477.013793 417.544828,479.082759 418.572414,480.462069 C419.475862,481.668966 421.096552,482.068966 422.593103,482.337931 C434.82069,484.496552 447.358621,483.027586 459.772414,482.662069 C463.806897,482.531034 467.931034,482.503448 471.751724,481.193103 C472.5053,480.970337 473.208111,480.602532 473.82069,480.110345 C475.558621,478.57931 475.386207,475.889655 475.082759,473.606897 L473.82069,464.282759 C473.634483,464.282759 473.455172,464.344828 473.275862,464.386207 C474.3332,455.627079 476.229259,446.989732 478.937931,438.593103 C483.144828,425.524138 489.406897,412.648276 489.324138,398.972414 C489.324138,398.641379 489.324138,398.282759 489.324138,397.97931 C489.206897,393.696552 488.441379,389.462069 487.944828,385.2 C487.165517,378.068966 487.255172,370.875862 487.303448,363.710345 C487.243205,360.900638 487.439421,358.091294 487.889655,355.317241 C487.889655,355.22069 487.931034,355.131034 487.951724,355.034483 L499.406897,354.731034 C500.676181,354.795217 501.942695,354.558927 503.103448,354.041379 C504.240416,353.542443 504.817642,352.266 504.441379,351.082759 C509.324138,353.296552 515.855172,350.282759 517.296552,345.151724 C517.396685,344.790817 517.477262,344.424767 517.537931,344.055172 C517.534609,344.027686 517.534609,343.9999 517.537931,343.972414 C517.586207,343.627586 517.62069,343.282759 517.634483,342.944828 C517.634483,342.889655 517.634483,342.827586 517.634483,342.772414 L517.634483,342.772414 C517.705897,340.403689 517.33881,338.042171 516.551724,335.806897 C514.206897,329.165517 510.482759,323.117241 506.97931,317 C505.172414,313.834483 503.42069,310.627586 501.717241,307.406897 L503.213793,309.331034 C503.73901,310.115772 504.42848,310.777005 505.234483,311.268966 C508.027586,312.710345 510.951724,309.806897 513.793103,308.468966 C517.565517,306.689655 521.97931,307.737931 526.144828,308.034483 C530.310345,308.331034 535.331034,307.255172 536.82069,303.393103 C537.303508,301.815878 537.395811,300.144947 537.089655,298.524138 L537.089655,298.524138 Z M465.275862,194.875862 C465.275862,196.351724 465.372414,197.848276 465.489655,199.351724 C464.089848,197.063937 462.473207,194.916114 460.662069,192.937931 L465.275862,194.875862 Z" id="Shape" fill="url(#linearGradient-2)"></path>
            <path d="M375.172414,240.524138 C375.93596,239.513296 376.895261,238.666578 377.993103,238.034483 C377.713143,239.276606 377.185364,240.449447 376.441379,241.482759 C375.241379,243.117241 373.97931,244.241379 373.627586,243.972414 C373.275862,243.703448 373.958621,242.158621 375.172414,240.524138 Z" id="Path" fill="#99D55C"></path>
            <path d="M375.324138,240.648276 C375.882047,239.897069 376.585731,239.266098 377.393103,238.793103 C377.18315,239.711954 376.791564,240.579541 376.241379,241.344828 C375.344828,242.558621 374.406897,243.413793 374.172414,243.2 C373.937931,242.986207 374.427586,241.862069 375.324138,240.648276 Z" id="Path" fill="#000000" opacity="0.1"></path>
            <path d="M373.496552,239.151724 L374.186207,239.151724 C374.274003,239.151724 374.358203,239.186601 374.420284,239.248682 C374.482365,239.310763 374.517241,239.394963 374.517241,239.482759 L374.517241,247.296552 L373.206886,247.296552 L373.206886,239.482759 C373.205581,239.314945 373.330048,239.172696 373.496552,239.151724 Z" id="Path" fill="#F6987E"></path>
            <path d="M385.517241,252.813793 C385.517241,258.90797 380.576935,263.848276 374.482759,263.848276 C368.388582,263.848276 363.448276,258.90797 363.448276,252.813793 C363.448276,247.758621 366.848276,244.765517 371.489655,243.889655 C372.476878,243.707534 373.478882,243.617492 374.482759,243.620607 C375.174302,243.61976 375.865253,243.661217 376.551724,243.744828 C381.655172,244.37931 385.517241,247.427586 385.517241,252.813793 Z" id="Path" fill="#FC4A4A"></path>
            <path d="M376.551724,243.744828 C376.351724,244.124138 375.268966,244.434483 373.958621,244.434483 C373.103413,244.496989 372.247862,244.317753 371.489655,243.917241 C372.476878,243.73512 373.478882,243.645078 374.482759,243.648276 C375.173738,243.638189 375.864687,243.670433 376.551724,243.744828 Z" id="Path" fill="#000000" opacity="0.1"></path>
            <path d="M376.324138,263.586207 C370.229961,263.586207 365.289655,258.645901 365.289655,252.551724 C365.289655,247.586207 368.565517,244.613793 373.075862,243.682759 C372.543798,243.723225 372.014297,243.792291 371.489655,243.889655 C366.848276,244.765517 363.448276,247.758621 363.448276,252.813793 C363.448276,258.90797 368.388582,263.848293 374.482759,263.848293 C375.316185,263.849746 376.146987,263.754864 376.958621,263.565517 C376.744828,263.57931 376.551724,263.586207 376.324138,263.586207 Z" id="Path" fill="#000000" opacity="0.1"></path>
            <path d="M424.965517,467.827586 C426.489655,469.206897 428.82069,469.172414 430.889655,469.02069 L440.317241,468.331034 C447.806897,467.77931 455.551724,467.158621 462.158621,463.593103 C462.857877,463.273284 463.477387,462.802174 463.972414,462.213793 C464.497627,461.311653 464.771492,460.285251 464.765517,459.241379 C465.657899,449.026434 467.68889,438.943187 470.82069,429.17931 C474.958621,416.17931 481.165517,403.365517 481.082759,389.758621 C481.082759,389.427586 481.082759,389.068966 481.082759,388.772414 C480.965517,384.510345 480.213793,380.296552 479.751724,376.055172 C478.986207,368.958621 479.062069,361.806897 479.117241,354.675862 C479.058254,351.880184 479.252147,349.084898 479.696552,346.324138 C480.131034,344.082759 481.765517,341.834483 480.765517,339.862069 C478.827586,336.034483 471.8,334.627586 468.02069,334.489655 C462.931034,334.310345 457.924138,335.641379 453.006897,336.965517 C451.510345,337.372414 449.944828,337.806897 448.813793,338.862069 C447.296552,340.282759 446.862069,342.510345 446.806897,344.586207 C446.544828,353.793103 451.848276,362.358621 452.268966,371.551724 C452.344828,373.206897 452.268966,375 453.234483,376.37931 C453.871409,377.130443 454.562946,377.833505 455.303448,378.482759 C457.372414,380.751724 457.434483,384.172414 457.289655,387.248276 C457.227586,388.489655 457.158621,389.731034 457.075862,390.972414 C455.949271,407.540383 452.602097,423.881925 447.124138,439.558621 C446.596069,441.232367 445.90301,442.849505 445.055172,444.386207 C443.671475,446.543415 441.942695,448.458586 439.937931,450.055172 C437.097244,452.481098 434.053931,454.659178 430.841379,456.565517 C428.696552,457.834483 426.406897,459.048276 424.937931,461.062069 C423.468966,463.075862 423.144828,466.131034 424.965517,467.827586 Z" id="Path" fill="#FDA8A8"></path>
            <path d="M424.965517,467.827586 C426.489655,469.206897 428.82069,469.172414 430.889655,469.02069 L440.317241,468.331034 C447.806897,467.77931 455.551724,467.158621 462.158621,463.593103 C462.857877,463.273284 463.477387,462.802174 463.972414,462.213793 C464.497627,461.311653 464.771492,460.285251 464.765517,459.241379 C465.657899,449.026434 467.68889,438.943187 470.82069,429.17931 C474.958621,416.17931 481.165517,403.365517 481.082759,389.758621 C481.082759,389.427586 481.082759,389.068966 481.082759,388.772414 C480.965517,384.510345 480.213793,380.296552 479.751724,376.055172 C478.986207,368.958621 479.062069,361.806897 479.117241,354.675862 C479.058254,351.880184 479.252147,349.084898 479.696552,346.324138 C480.131034,344.082759 481.765517,341.834483 480.765517,339.862069 C478.827586,336.034483 471.8,334.627586 468.02069,334.489655 C462.931034,334.310345 457.924138,335.641379 453.006897,336.965517 C451.510345,337.372414 449.944828,337.806897 448.813793,338.862069 C447.296552,340.282759 446.862069,342.510345 446.806897,344.586207 C446.544828,353.793103 451.848276,362.358621 452.268966,371.551724 C452.344828,373.206897 452.268966,375 453.234483,376.37931 C453.871409,377.130443 454.562946,377.833505 455.303448,378.482759 C457.372414,380.751724 457.434483,384.172414 457.289655,387.248276 C457.227586,388.489655 457.158621,389.731034 457.075862,390.972414 C455.949271,407.540383 452.602097,423.881925 447.124138,439.558621 C446.596069,441.232367 445.90301,442.849505 445.055172,444.386207 C443.671475,446.543415 441.942695,448.458586 439.937931,450.055172 C437.097244,452.481098 434.053931,454.659178 430.841379,456.565517 C428.696552,457.834483 426.406897,459.048276 424.937931,461.062069 C423.468966,463.075862 423.144828,466.131034 424.965517,467.827586 Z" id="Path" fill="#000000" opacity="0.1"></path>
            <path d="M424.965517,467.827586 C426.489655,469.206897 428.82069,469.172414 430.889655,469.02069 L440.317241,468.331034 C447.806897,467.77931 455.551724,467.158621 462.158621,463.593103 C462.857877,463.273284 463.477387,462.802174 463.972414,462.213793 C464.497627,461.311653 464.771492,460.285251 464.765517,459.241379 C465.657899,449.026434 467.68889,438.943187 470.82069,429.17931 C474.958621,416.17931 481.165517,403.365517 481.082759,389.758621 C473.111879,390.639995 465.094802,391.036127 457.075862,390.944828 C455.949271,407.512797 452.602097,423.854339 447.124138,439.531034 C446.596069,441.20478 445.90301,442.821919 445.055172,444.358621 C443.671475,446.515829 441.942695,448.431 439.937931,450.027586 C437.097244,452.453512 434.053931,454.631592 430.841379,456.537931 C428.696552,457.806897 426.406897,459.02069 424.937931,461.034483 C423.468966,463.048276 423.144828,466.131034 424.965517,467.827586 Z" id="Path" fill="#EEEFF3"></path>
            <path d="M424.965517,467.827586 C426.489655,469.206897 428.82069,469.172414 430.889655,469.02069 L440.317241,468.331034 C447.806897,467.77931 455.551724,467.158621 462.158621,463.593103 C462.857877,463.273284 463.477387,462.802174 463.972414,462.213793 C464.497627,461.311653 464.771492,460.285251 464.765517,459.241379 C465.657899,449.026434 467.68889,438.943187 470.82069,429.17931 C474.958621,416.17931 481.165517,403.365517 481.082759,389.758621 C473.111879,390.639995 465.094802,391.036127 457.075862,390.944828 C455.949271,407.512797 452.602097,423.854339 447.124138,439.531034 C446.596069,441.20478 445.90301,442.821919 445.055172,444.358621 C443.671475,446.515829 441.942695,448.431 439.937931,450.027586 C437.097244,452.453512 434.053931,454.631592 430.841379,456.537931 C428.696552,457.806897 426.406897,459.02069 424.937931,461.034483 C423.468966,463.048276 423.144828,466.131034 424.965517,467.827586 Z" id="Path" fill="#000000" opacity="0.1"></path>
            <path d="M445.793103,464.917241 C448.058152,464.105484 450.23485,463.06566 452.289655,461.813793 L462.682759,455.951724 C463.621737,455.343615 464.667977,454.91997 465.765517,454.703448 L467.006897,463.97931 C467.317241,466.255172 467.482759,468.931034 465.765517,470.455172 C465.152277,470.944756 464.449533,471.310184 463.696552,471.531034 C459.924138,472.834483 455.855172,472.862069 451.862069,472.986207 C439.6,473.37931 427.213793,474.813793 415.131034,472.662069 C413.655172,472.4 412.055172,471.972414 411.165517,470.8 C410.151724,469.42069 410.441379,467.42069 411.42069,466.02069 C412.494161,464.689954 413.860788,463.625448 415.413793,462.910345 C418.489655,461.255172 421.682759,459.848276 424.875862,458.434483 C425.073022,458.317754 425.306516,458.278428 425.531034,458.324138 C425.841379,458.427586 425.937931,458.806897 426.02069,459.124138 C426.57931,461.386207 428.4,463.172414 430.475862,464.241379 C430.503448,464.241379 441.2,466.37931 445.793103,464.917241 Z" id="Path" fill="#BBBDC8"></path>
            <path d="M445.793103,464.917241 C448.058152,464.105484 450.23485,463.06566 452.289655,461.813793 L462.682759,455.951724 C463.621737,455.343615 464.667977,454.91997 465.765517,454.703448 L467.006897,463.97931 C467.317241,466.255172 467.482759,468.931034 465.765517,470.455172 C465.152277,470.944756 464.449533,471.310184 463.696552,471.531034 C459.924138,472.834483 455.855172,472.862069 451.862069,472.986207 C439.6,473.37931 427.213793,474.813793 415.131034,472.662069 C413.655172,472.4 412.055172,471.972414 411.165517,470.8 C410.151724,469.42069 410.441379,467.42069 411.42069,466.02069 C412.494161,464.689954 413.860788,463.625448 415.413793,462.910345 C418.489655,461.255172 421.682759,459.848276 424.875862,458.434483 C425.073022,458.317754 425.306516,458.278428 425.531034,458.324138 C425.841379,458.427586 425.937931,458.806897 426.02069,459.124138 C426.57931,461.386207 428.4,463.172414 430.475862,464.241379 C430.503448,464.241379 441.2,466.37931 445.793103,464.917241 Z" id="Path" fill="#000000" opacity="0.1"></path>
            <path d="M431.862069,477.482759 C433.386207,478.862069 435.717241,478.827586 437.786207,478.675862 L447.213793,477.986207 C454.703448,477.434483 462.448276,476.813793 469.055172,473.248276 C469.754429,472.928457 470.373938,472.457347 470.868966,471.868966 C471.394178,470.966826 471.668044,469.940424 471.662069,468.896552 C472.554451,458.681607 474.585442,448.598359 477.717241,438.834483 C481.855172,425.834483 488.062069,413.02069 487.97931,399.413793 C487.97931,399.082759 487.97931,398.724138 487.97931,398.427586 C487.862069,394.165517 487.110345,389.951724 486.648276,385.710345 C485.882759,378.613793 485.958621,371.462069 486.013793,364.331034 C485.954806,361.535357 486.148699,358.740071 486.593103,355.97931 C487.027586,353.737931 488.662069,351.489655 487.662069,349.517241 C485.724138,345.689655 478.696552,344.282759 474.917241,344.144828 C469.827586,343.965517 464.82069,345.296552 459.903448,346.62069 C458.406897,347.027586 456.841379,347.462069 455.710345,348.517241 C454.193103,349.937931 453.758621,352.165517 453.703448,354.241379 C453.441379,363.448276 458.744828,372.013793 459.165517,381.206897 C459.241379,382.862069 459.165517,384.655172 460.131034,386.034483 C460.767961,386.785615 461.459497,387.488677 462.2,388.137931 C464.268966,390.406897 464.331034,393.827586 464.186207,396.903448 C464.124138,398.144828 464.055172,399.386207 463.972414,400.627586 C462.845823,417.195555 459.498648,433.537098 454.02069,449.213793 C453.492621,450.887539 452.799562,452.504677 451.951724,454.041379 C450.568026,456.198588 448.839247,458.113758 446.834483,459.710345 C443.993796,462.13627 440.950483,464.314351 437.737931,466.22069 C435.593103,467.489655 433.303448,468.703448 431.834483,470.717241 C430.365517,472.731034 430.041379,475.786207 431.862069,477.482759 Z" id="Path" fill="#FDA8A8"></path>
            <path d="M431.862069,477.482759 C433.386207,478.862069 435.717241,478.827586 437.786207,478.675862 L447.213793,477.986207 C454.703448,477.434483 462.448276,476.813793 469.055172,473.248276 C469.754429,472.928457 470.373938,472.457347 470.868966,471.868966 C471.394178,470.966826 471.668044,469.940424 471.662069,468.896552 C472.554451,458.681607 474.585442,448.598359 477.717241,438.834483 C481.855172,425.834483 488.062069,413.02069 487.97931,399.413793 C480.008431,400.295167 471.991354,400.6913 463.972414,400.6 C462.845823,417.167969 459.498648,433.509512 454.02069,449.186207 C453.492621,450.859953 452.799562,452.477091 451.951724,454.013793 C450.568026,456.171002 448.839247,458.086172 446.834483,459.682759 C443.993796,462.108684 440.950483,464.286764 437.737931,466.193103 C435.593103,467.462069 433.303448,468.675862 431.834483,470.689655 C430.365517,472.703448 430.041379,475.786207 431.862069,477.482759 Z" id="Path" fill="#EEEFF3"></path>
            <path d="M452.689655,474.572414 C454.954704,473.760656 457.131402,472.720832 459.186207,471.468966 L469.57931,465.606897 C470.518289,464.998788 471.564528,464.575143 472.662069,464.358621 L473.903448,473.634483 C474.213793,475.910345 474.37931,478.586207 472.662069,480.110345 C472.048829,480.599929 471.346085,480.965356 470.593103,481.186207 C466.82069,482.489655 462.751724,482.517241 458.758621,482.641379 C446.496552,483.034483 434.110345,484.468966 422.027586,482.317241 C420.551724,482.055172 418.951724,481.627586 418.062069,480.455172 C417.048276,479.075862 417.337931,477.075862 418.317241,475.675862 C419.390712,474.345126 420.75734,473.28062 422.310345,472.565517 C425.386207,470.910345 428.57931,469.503448 431.772414,468.089655 C431.969574,467.972926 432.203068,467.933601 432.427586,467.97931 C432.737931,468.082759 432.834483,468.462069 432.917241,468.77931 C433.475862,471.041379 435.296552,472.827586 437.372414,473.896552 C437.4,473.896552 448.096552,476.034483 452.689655,474.572414 Z" id="Path" fill="#BBBDC8"></path>
            <path d="M418.489655,197.731034 C421.848276,193.593103 421.937931,187.813793 421.855172,182.503448 C421.855172,180.434483 421.793103,178.296552 421.717241,176.193103 L421.717241,176.144828 C421.624055,172.27895 421.215806,168.427108 420.496552,164.627586 L420.496552,164.627586 C420.133791,162.80431 419.649961,161.007227 419.048276,159.248276 C419.503448,159.144828 419.958621,159.048276 420.427586,158.965517 C427.65663,157.537919 435.095094,157.537919 442.324138,158.965517 C443.572414,159.213793 446.731034,159.158621 448.531034,159.772414 C449.043465,159.894789 449.489909,160.20804 449.77931,160.648276 C450.131034,161.386207 449.406897,163.524138 448.882759,165.42069 L448.882759,165.42069 C448.594587,166.27545 448.431974,167.167503 448.4,168.068966 C448.469755,168.91604 448.598807,169.757182 448.786207,170.586207 C449.110345,172.110345 449.537931,173.62069 449.737931,175.165517 C450.089655,177.8 449.77931,180.482759 449.951724,183.137931 C450.124138,185.793103 450.889655,188.586207 452.910345,190.317241 C441.169557,191.323809 429.603767,193.814938 418.489655,197.731034 L418.489655,197.731034 Z" id="Path" fill="#FDA8A8"></path>
            <path d="M451.537931,170.282759 C450.62069,170.358621 449.710345,170.448276 448.77931,170.551724 C439.593054,171.532459 430.527504,173.426891 421.717241,176.206897 L421.717241,176.158621 L420.496552,164.641379 L420.496552,164.641379 C420.496552,163.951724 420.496552,163.262069 420.496552,162.537931 C420.496552,161.358621 420.462069,160.165517 420.434483,158.97931 C427.663527,157.551712 435.101991,157.551712 442.331034,158.97931 C443.57931,159.227586 446.737931,159.172414 448.537931,159.786207 C448.537931,160.910345 448.537931,162.034483 448.57931,163.158621 C448.624599,163.924043 448.72835,164.684881 448.889655,165.434483 L448.889655,165.434483 C449.219592,167.296302 450.149672,168.999027 451.537931,170.282759 Z" id="Path" fill="#000000" opacity="0.1"></path>
            <circle id="Oval" fill="#FDA8A8" cx="434.137931" cy="147.931034" r="25.5172414"></circle>
            <path d="M411.724138,244.144828 C407.193103,228.110345 411.331034,210.889655 422.151724,198.227586 C424.558621,195.406897 426.97931,192.510345 430.137931,190.82069 C433.896552,188.82069 438.344828,188.751724 442.6,188.710345 C446.358621,188.710345 450.234483,188.710345 453.689655,190.206897 C458.358621,192.2 461.57931,196.531034 464.296552,200.827586 C467.193103,205.406897 469.813793,210.365517 470.255172,215.772414 C470.489655,218.97931 469.924138,222.234483 470.4,225.427586 C471.006897,229.475862 473.262069,233.103448 474.186207,237.089655 C474.689655,239.241379 474.793103,241.468966 475.117241,243.662069 C475.605643,246.662197 476.315632,249.622022 477.241379,252.517241 C484.093761,275.269334 493.476556,297.181028 505.213793,317.841379 C508.662069,323.931034 512.351724,329.951724 514.668966,336.551724 C515.717241,339.537931 516.475862,342.758621 515.62069,345.834483 C514.193103,350.937931 507.744828,353.937931 502.924138,351.737931 C503.293445,352.911437 502.723812,354.175311 501.6,354.675862 C500.453827,355.193267 499.200734,355.4297 497.944828,355.365517 L455.351724,356.496552 C454.232952,356.524728 453.120606,356.675045 452.034483,356.944828 C447.027586,358.227586 448.910345,360.393103 448.372414,362.2 C447.717241,364.406897 444.551724,364.227586 442.344828,363.57931 C442.682759,366.8 442.758621,370.737931 438.6,371.675862 C437.521273,371.894501 436.406272,371.856704 435.344828,371.565517 C427.798538,369.621625 419.973862,368.991731 412.213793,369.703448 C409.372414,369.965517 406.124138,370.282759 404.02069,368.324138 C402.434483,366.868966 402.02069,364.551724 401.751724,362.413793 C397.510345,328.62069 406.234483,294.77931 412.786207,261.393103 C413.668966,256.889655 413.351724,249.593103 412.027586,245.193103 L411.724138,244.144828 Z" id="Path" fill="#F75842"></path>
            <path d="M468.275862,220.855172 C469.275862,223.737931 470.524138,226.572414 470.862069,229.606897 C471.131034,232.034483 470.806897,234.489655 470.951724,236.924138 C471.216197,239.627074 471.773489,242.293286 472.613793,244.875862 C473.941484,249.898837 475.579104,254.834729 477.517241,259.655172 C478.441379,261.827586 479.510345,264.22069 478.765517,266.462069 C478.02069,268.703448 475.710345,270.089655 475.048276,272.317241 C474.358621,274.668966 475.737931,277.144828 477.496552,278.862069 C479.255172,280.57931 481.455172,281.8 483.082759,283.627586 C484.855172,285.62069 485.841379,288.165517 487.089655,290.524138 C488.862174,293.643736 490.894666,296.608267 493.165517,299.386207 L501.503448,310.206897 C502.023302,310.987069 502.705521,311.645763 503.503448,312.137931 C506.262069,313.572414 509.151724,310.682759 511.958621,309.37931 C515.682759,307.606897 520.041379,308.648276 524.158621,308.944828 C528.275862,309.241379 533.234483,308.172414 534.703448,304.324138 C535.189796,302.762336 535.291534,301.106138 535,299.496552 C534.35473,293.993725 532.763508,288.643767 530.296552,283.682759 C528.793103,280.662069 526.958621,277.772414 526.013793,274.537931 C525.241379,271.910345 525.089655,269.144828 524.475862,266.475862 C523.862069,263.806897 522.77931,261.255172 521.910345,258.648276 C515.744828,240.124138 520.37931,219.855172 518.386207,200.434483 C517.648276,193.268966 515.462069,185.413793 509.296552,181.682759 C505.634483,179.468966 501.234483,179.124138 496.882759,178.924138 L494.917241,178.834483 L491.751724,178.675862 C487.172414,178.448276 482.57931,178.275862 478.117241,179.248276 C471.841379,180.627586 464.289655,185.503448 464.041379,192.510345 C463.771514,202.134331 465.205066,211.730253 468.275862,220.855172 L468.275862,220.855172 Z" id="Path" fill="#0093EC"></path>
            <path d="M491.786207,178.648276 C492.632586,183.341055 493.054979,188.100476 493.048276,192.868966 C493.172414,206.482759 494.641379,220.041379 496.117241,233.558621 L497.089655,242.524138 C497.268966,244.17931 497.482759,245.917241 498.468966,247.248276 C499.455172,248.57931 501.524138,249.275862 502.827586,248.248276 C503.627586,245.082759 503.468966,241.758621 503.310345,238.496552 C502.965517,231.558621 502.622989,224.618391 502.282759,217.675862 C501.951724,210.917241 501.593103,204.151724 500.772414,197.434483 C500.12867,192.231575 499.17991,187.070966 497.931034,181.97931 C497.694293,180.924532 497.364259,179.892886 496.944828,178.896552 L494.97931,178.806897 L491.786207,178.648276 Z" id="Path" fill="#000000" opacity="0.1"></path>
            <path d="M446.724138,184.482759 C442.496552,183.875862 438.068966,183.565517 434.055172,185.034483 C430.22069,186.448276 427.158621,189.351724 424.4,192.406897 C422.519116,194.375611 420.963983,196.631485 419.793103,199.089655 C417.441379,204.496552 418.358621,210.731034 419.793103,216.455172 C423.703448,232.22069 431.468966,247.427586 443.931034,257.834483 C447.724654,260.916793 451.763327,263.684587 456.006897,266.110345 C461.524138,269.344828 467.22069,272.317241 473.324138,274.186207 C475.027586,274.710345 476.841379,275.151724 478.586207,274.77931 C480.331034,274.406897 481.97931,272.993103 482.034483,271.206897 C472.034483,265.586207 463.068966,258.324138 454.165517,251.096552 C451.72493,249.213811 449.439427,247.138179 447.331034,244.889655 C444.172414,241.337931 441.944828,237.048276 438.882759,233.413793 C436.124138,230.151724 432.675862,227.4 430.606897,223.668966 C429.308451,221.120827 428.439308,218.375921 428.034483,215.544828 C427.013793,209.772414 426.82069,203.641379 429.110345,198.241379 C431.4,192.841379 436.648276,188.406897 442.510345,188.503448 C445.517241,188.551724 448.37931,189.744828 451.151724,190.910345 L468.6,198.275862 C468.386207,198.17931 469.6,195.151724 469.544828,194.731034 C469.37931,193.413793 469.144828,193.393103 468.165517,192.393103 C466.496552,190.724138 463.903448,189.551724 461.786207,188.57931 C456.98772,186.499201 451.915168,185.119578 446.724138,184.482759 L446.724138,184.482759 Z" id="Path" fill="#0093EC"></path>
            <path d="M411.993103,143.103448 C416.971156,141.997447 421.578087,139.621515 425.365517,136.206897 L421.717241,155.351724 C425.351622,153.683528 428.876005,151.785429 432.268966,149.668966 C432.758621,158.427586 432.048276,167.386207 428.82069,175.537931 C425.593103,183.689655 419.641379,190.986207 411.655172,194.606897 C418.744828,195.793103 425.110345,190.703448 431.42069,187.262069 C435.82069,184.868966 443.337931,187.331034 448.151724,185.882759 C452.234483,184.682759 456.427586,183.634483 460.110345,181.489655 C466.951724,177.496552 468.503448,165.834483 469.889655,158.041379 C471.275862,150.248276 470.013793,142.17931 467.710345,134.593103 C466.943729,131.906438 465.906221,129.304581 464.613793,126.827586 C461.02206,120.251179 454.841102,115.478826 447.569909,113.667907 C440.298716,111.856989 432.601448,113.172915 426.344828,117.296552 C419.986207,121.482759 414.089655,127.641379 409.234483,133.482759 C408.544828,134.289655 405.696552,137.158621 406.641379,138.365517 C407.793103,139.827586 414.551724,135.662069 415.696552,135.096552 C415.365517,136.344828 413.310345,142.77931 411.993103,143.103448 Z" id="Path" fill="#FFD566"></path>
            <g id="Group" opacity="0.1" transform="translate(400.000000, 210.344828)" fill="#000000">
                <path d="M40.6896552,155.813793 C39.6109283,156.032432 38.4959275,155.994635 37.4344828,155.703448 C29.888193,153.759556 22.063517,153.129662 14.3034483,153.841379 C11.462069,154.103448 8.2137931,154.42069 6.11034483,152.462069 C4.52413793,151.006897 4.11034483,148.689655 3.84137931,146.551724 C-0.4,112.758621 8.32413793,78.9172414 14.8758621,45.5310345 C15.7586207,41.0275862 15.4413793,33.7310345 14.1172414,29.3310345 L13.8068966,28.262069 C11.2538587,19.1445283 11.4048042,9.4816247 14.2413793,0.448275862 C9.53616189,10.9311707 8.64566635,22.7296266 11.7241379,33.8 L12.0344828,34.8689655 C13.3586207,39.2689655 13.6758621,46.5931034 12.7931034,51.0689655 C6.26206897,84.4551724 -2.46206897,118.317241 1.75862069,152.089655 C2.02758621,154.227586 2.44827586,156.544828 4.02758621,158 C6.09655172,159.937931 9.37931034,159.62069 12.2206897,159.37931 C19.9807584,158.667593 27.8054344,159.297487 35.3517241,161.241379 C36.4131688,161.532566 37.5281696,161.570363 38.6068966,161.351724 C42,160.586207 42.5724138,157.82069 42.4896552,155.082759 C41.9387844,155.433253 41.3289162,155.680939 40.6896552,155.813793 Z" id="Path"></path>
                <path d="M105.006897,135.875862 C105.376204,137.049368 104.80657,138.313242 103.682759,138.813793 C102.536586,139.331198 101.283493,139.567631 100.027586,139.503448 L57.4344828,140.634483 C56.3157103,140.662659 55.2033643,140.812976 54.1172414,141.082759 C49.1103448,142.365517 50.9931034,144.531034 50.4551724,146.337931 C49.8,148.544828 46.6344828,148.365517 44.4275862,147.717241 C44.6344828,149.682759 44.737931,151.910345 43.8482759,153.565517 C45.7862069,153.855172 47.8689655,153.6 48.3862069,151.855172 C48.9034483,150.110345 47.0413793,147.882759 52.0482759,146.6 C53.1343987,146.330217 54.2467448,146.1799 55.3655172,146.151724 L97.9310345,145.02069 C99.1869411,145.084872 100.440034,144.848439 101.586207,144.331034 C102.710019,143.830483 103.279652,142.56661 102.910345,141.393103 C107.737931,143.593103 114.17931,140.593103 115.606897,135.489655 C115.821945,134.716265 115.942365,133.919639 115.965517,133.117241 C113.386207,136.206897 108.717241,137.586207 105.006897,135.875862 Z" id="Path"></path>
            </g>
            <path d="M447.868966,202.110345 C451.532437,209.899567 454.771657,217.881355 457.572414,226.02069 C459.834483,232.57931 461.827586,239.468966 461.075862,246.365517 C460.324138,253.262069 456.248276,260.227586 449.627586,262.4 C446.813793,263.324138 443.8,263.331034 440.841379,263.4 C433.754799,263.566328 426.683508,264.137373 419.662069,265.110345 C416.394218,265.65084 413.099896,266.016876 409.793103,266.206897 C405.117241,266.358621 400.441379,265.627586 395.77931,266.006897 C388.234483,266.62069 381.068966,270.144828 373.496552,270.144828 C372.572876,270.201877 371.649314,270.031373 370.806897,269.648276 C369.427586,268.903448 368.813793,267.289655 368.344828,265.8 C367.289655,262.434483 366.462069,258.572414 368.248276,255.531034 C370.448276,251.786207 375.448276,251.034483 379.786207,250.703448 C389.551724,250.013793 399.328736,249.531034 409.117241,249.255172 C417.468966,249.02069 426.517241,248.703448 432.993103,243.42069 C433.429955,243.108355 433.786784,242.697174 434.034483,242.22069 C434.278967,241.413304 434.249873,240.547766 433.951724,239.758621 C431.384905,229.728693 430.283828,219.379959 430.682759,209.034483 C430.638403,208.106519 430.879062,207.187203 431.372414,206.4 C431.958487,205.768697 432.719757,205.326824 433.558621,205.131034 C439.340494,203.275816 445.530819,203.103596 451.406897,204.634483" id="Path" fill="#FDA8A8"></path>
            <path d="M430.510345,209.027586 C429.509572,209.37189 428.638297,210.014515 428.013793,210.868966 C428.289655,207.993103 427.917241,205.089655 427.972414,202.193103 C428.027586,199.296552 428.565517,196.275862 430.393103,194.027586 C432.717241,191.158621 436.668966,190.131034 440.365517,190.034483 C445.731034,189.889655 451.282759,191.448276 455.213793,195.103448 C457.744068,197.472472 459.386902,200.636448 459.868966,204.068966 C459.993103,205.013793 460.406897,208.558621 459.42069,209.165517 C458.558621,209.703448 455.282759,207.848276 454.227586,207.551724 C446.39316,205.24917 437.998873,205.771525 430.510345,209.027586 Z" id="Path" fill="#F75842"></path>
            <circle id="Oval" fill="#0093EC" opacity="0.1" cx="326.206897" cy="41.3793103" r="4.82758621"></circle>
            <circle id="Oval" fill="#0093EC" opacity="0.1" cx="358.62069" cy="134.482759" r="4.82758621"></circle>
            <circle id="Oval" fill="#0093EC" opacity="0.1" cx="266.896552" cy="46.2068966" r="4.82758621"></circle>
            <circle id="Oval" fill="#0093EC" opacity="0.1" cx="118.62069" cy="266.206897" r="12.4137931"></circle>
            <circle id="Oval" fill="#0093EC" opacity="0.1" cx="618.62069" cy="68.9655172" r="4.82758621"></circle>
            <circle id="Oval" fill="#0093EC" opacity="0.1" cx="624.137931" cy="134.482759" r="15.862069"></circle>
            <circle id="Oval" fill="#0093EC" opacity="0.1" cx="649.655172" cy="89.6551724" r="4.82758621"></circle>
            <circle id="Oval" fill="#0093EC" opacity="0.1" cx="606.896552" cy="177.931034" r="4.82758621"></circle>
            <circle id="Oval" fill="#0093EC" opacity="0.1" cx="316.551724" cy="80" r="4.82758621"></circle>
            <circle id="Oval" fill="#0093EC" opacity="0.1" cx="135.862069" cy="324.137931" r="4.82758621"></circle>
            <circle id="Oval" fill="#0093EC" opacity="0.1" cx="128.275862" cy="213.793103" r="4.82758621"></circle>
            <circle id="Oval" fill="#0093EC" opacity="0.1" cx="393.103448" cy="36.5517241" r="4.82758621"></circle>
            <circle id="Oval" fill="#0093EC" opacity="0.1" cx="408.965517" cy="80" r="4.82758621"></circle>
        </g>
    </g>
</svg>