<?xml version="1.0" encoding="UTF-8"?>
<svg width="695px" height="500px" viewBox="0 0 695 500" version="1.1" xmlns="http://www.w3.org/2000/svg" xmlns:xlink="http://www.w3.org/1999/xlink">
    <!-- Generator: Sketch 61 (89581) - https://sketch.com -->
    <title>undraw_fatherhood_7i19</title>
    <desc>Created with Sketch.</desc>
    <defs>
        <linearGradient x1="50.0018299%" y1="100.05197%" x2="50.0018299%" y2="0.0067543714%" id="linearGradient-1">
            <stop stop-color="#808080" stop-opacity="0.25" offset="0%"></stop>
            <stop stop-color="#808080" stop-opacity="0.12" offset="54%"></stop>
            <stop stop-color="#808080" stop-opacity="0.1" offset="100%"></stop>
        </linearGradient>
    </defs>
    <g id="Page-1" stroke="none" stroke-width="1" fill="none" fill-rule="evenodd">
        <g id="undraw_fatherhood_7i19">
            <path d="M8.12262958,271.788875 C19.0960809,318.69153 42.3261694,359.235145 79.0328698,378.912769 C155.335019,419.753477 327.402023,398.685209 455.815424,374.48799 C520.705468,362.301591 579.606289,328.631891 623.034134,278.900126 L8.12262958,271.788875 Z" id="Path" fill="#2185D0" fill-rule="nonzero" opacity="0.1"></path>
            <path d="M681.542351,51.0176991 L611.08091,51.0176991 C607.719025,51.0176991 604.993679,48.2923528 604.993679,44.9304678 C604.993679,41.5685827 607.719025,38.8432364 611.08091,38.8432364 L623.261694,38.8432364 C619.974418,38.7373192 617.364376,36.0418261 617.364376,32.7528445 C617.364376,29.4638629 619.974418,26.7683698 623.261694,26.6624526 L614.563843,26.6624526 C611.276568,26.5565354 608.666525,23.8610423 608.666525,20.5720607 C608.666525,17.2830791 611.276568,14.587586 614.563843,14.4816688 L651.340076,14.4816688 C643.17952,10.6890013 633.640961,7.98988622 622.648546,6.57395702 C522.370417,-6.30214918 486.567636,2.21871049 473.938053,10.9987358 C458.356511,21.8078382 440.973451,29.7597977 422.395702,33.5903919 C360.524652,46.3527181 244.816688,61.7130215 139.94311,28.6725664 C87.8192162,12.2376738 49.0834387,40 25.8596713,86.3716814 L693.773704,86.3716814 C692.901391,72.8950695 690.290771,60.4551201 685.499368,49.5575221 C684.398546,50.5037047 682.99392,51.022025 681.542351,51.0176991 Z" id="Path" fill="#2185D0" fill-rule="nonzero" opacity="0.1"></path>
            <path d="M2.14285714,173.893805 C-0.563409778,201.170348 0.354813987,228.685178 4.87357775,255.720607 L623.508217,278.35019 C640.730464,258.539224 655.189776,236.486647 666.491783,212.793932 L2.14285714,173.893805 Z M246.82048,232.262958 L234.639697,232.262958 C238.001582,232.262958 240.726928,234.988305 240.726928,238.35019 C240.726928,241.712075 238.001582,244.437421 234.639697,244.437421 L164.178255,244.437421 C162.003497,244.437421 159.993937,243.277201 158.906558,241.393805 C157.819179,239.510409 157.819179,237.18997 158.906558,235.306574 C159.993937,233.423178 162.003497,232.262958 164.178255,232.262958 L176.359039,232.262958 C173.071763,232.157041 170.461721,229.461548 170.461721,226.172566 C170.461721,222.883585 173.071763,220.188092 176.359039,220.082174 L167.661188,220.082174 C164.373913,219.976257 161.763871,217.280764 161.763871,213.991783 C161.763871,210.702801 164.373913,208.007308 167.661188,207.901391 L238.12263,207.901391 C241.409905,208.007308 244.019947,210.702801 244.019947,213.991783 C244.019947,217.280764 241.409905,219.976257 238.12263,220.082174 L246.82048,220.082174 C250.107756,220.188092 252.717798,222.883585 252.717798,226.172566 C252.717798,229.461548 250.107756,232.157041 246.82048,232.262958 L246.82048,232.262958 Z" id="Shape" fill="#2185D0" fill-rule="nonzero" opacity="0.1"></path>
            <path d="M693.80531,86.7762326 L18.4070796,103.211125 C10.1896334,124.329962 4.77243995,148.192162 2.24399494,172.95196 L681.972187,172.95196 C686.408724,158.414458 689.691142,143.549522 691.788875,128.495575 C693.811631,113.950695 694.620733,99.8798989 693.80531,86.7762326 Z M139.361568,140.606827 L127.180784,140.606827 C129.355542,140.606827 131.365102,141.767046 132.452481,143.650442 C133.53986,145.533838 133.53986,147.854278 132.452481,149.737674 C131.365102,151.62107 129.355542,152.78129 127.180784,152.78129 L56.7193426,152.78129 C53.3574577,152.78129 50.6321116,150.055943 50.6321116,146.694058 C50.6321116,143.332173 53.3574577,140.606827 56.7193426,140.606827 L68.9001264,140.606827 C65.6128507,140.50091 63.0028086,137.805416 63.0028086,134.516435 C63.0028086,131.227453 65.6128507,128.53196 68.9001264,128.426043 L60.2022756,128.426043 C56.9149999,128.320126 54.3049578,125.624633 54.3049578,122.335651 C54.3049578,119.046669 56.9149999,116.351176 60.2022756,116.245259 L130.663717,116.245259 C133.950993,116.351176 136.561035,119.046669 136.561035,122.335651 C136.561035,125.624633 133.950993,128.320126 130.663717,128.426043 L139.361568,128.426043 C142.648843,128.53196 145.258885,131.227453 145.258885,134.516435 C145.258885,137.805416 142.648843,140.50091 139.361568,140.606827 L139.361568,140.606827 Z" id="Shape" fill="#2185D0" fill-rule="nonzero" opacity="0.1"></path>
            <ellipse id="Oval" fill="#2185D0" fill-rule="nonzero" opacity="0.1" cx="356.902655" cy="487.996207" rx="220.499368" ry="11.9342604"></ellipse>
            <path d="M539.955752,400.240202 C539.955752,400.240202 543.426043,404.785082 538.35019,411.618205 C533.274336,418.451327 529.08976,424.26043 530.764855,428.539823 C530.764855,428.539823 538.419722,415.802781 544.671302,415.62579 C550.922882,415.448799 546.807838,407.901391 539.955752,400.240202 Z" id="Path" fill="#2185D0" fill-rule="nonzero"></path>
            <path d="M539.955752,400.240202 C540.255145,400.679987 540.493317,401.158458 540.663717,401.662453 C546.744627,408.811631 549.981037,415.480405 544.140329,415.644753 C538.69153,415.802781 532.16182,425.537295 530.600506,427.996207 C530.650129,428.187282 530.711347,428.375156 530.783818,428.558786 C530.783818,428.558786 538.438685,415.821745 544.690265,415.644753 C550.941846,415.467762 546.807838,407.901391 539.955752,400.240202 Z" id="Path" fill="#000000" fill-rule="nonzero" opacity="0.1"></path>
            <path d="M546.409608,406.030341 C546.409608,407.629583 546.232617,408.925411 546.011378,408.925411 C545.790139,408.925411 545.606827,407.629583 545.606827,406.030341 C545.606827,404.4311 545.834387,405.183312 546.055626,405.183312 C546.276865,405.183312 546.409608,404.4311 546.409608,406.030341 Z" id="Path" fill="#FFD037" fill-rule="nonzero"></path>
            <path d="M548.621997,407.939317 C547.21871,408.704172 545.998736,409.165613 545.891277,408.969659 C545.783818,408.773704 546.839444,407.996207 548.242731,407.231353 C549.646018,406.466498 549.08976,407.022756 549.197219,407.231353 C549.304678,407.439949 550.025284,407.174463 548.621997,407.939317 Z" id="Path" fill="#FFD037" fill-rule="nonzero"></path>
            <path d="M521.611884,400.240202 C521.611884,400.240202 518.141593,404.785082 523.217446,411.618205 C528.2933,418.451327 532.471555,424.26043 530.802781,428.539823 C530.802781,428.539823 523.141593,415.802781 516.896334,415.62579 C510.651075,415.448799 514.753477,407.901391 521.611884,400.240202 Z" id="Path" fill="#2185D0" fill-rule="nonzero"></path>
            <path d="M521.611884,400.240202 C521.30951,400.678235 521.071124,401.157136 520.903919,401.662453 C514.823009,408.811631 511.580278,415.480405 517.427307,415.644753 C522.869785,415.802781 529.437421,425.537295 530.96713,427.996207 C530.916561,428.185841 530.85335,428.369153 530.783818,428.558786 C530.783818,428.558786 523.12263,415.821745 516.87737,415.644753 C510.632111,415.467762 514.753477,407.901391 521.611884,400.240202 Z" id="Path" fill="#000000" fill-rule="nonzero" opacity="0.1"></path>
            <path d="M515.158028,406.030341 C515.158028,407.629583 515.335019,408.925411 515.556258,408.925411 C515.777497,408.925411 515.960809,407.629583 515.960809,406.030341 C515.960809,404.4311 515.733249,405.183312 515.51201,405.183312 C515.290771,405.183312 515.158028,404.4311 515.158028,406.030341 Z" id="Path" fill="#FFD037" fill-rule="nonzero"></path>
            <path d="M512.939317,407.939317 C514.342604,408.704172 515.5689,409.165613 515.676359,408.969659 C515.783818,408.773704 514.728192,407.996207 513.324905,407.231353 C511.921618,406.466498 512.477876,407.022756 512.370417,407.231353 C512.262958,407.439949 511.53603,407.174463 512.939317,407.939317 Z" id="Path" fill="#FFD037" fill-rule="nonzero"></path>
            <path d="M516.264223,427.964602 C516.264223,427.964602 525.973451,427.661188 528.906448,425.581542 C531.839444,423.501896 543.843236,421.005057 544.570164,424.31732 C545.297092,427.629583 559.159292,440.935525 548.198483,441.02402 C537.237674,441.112516 522.730721,439.31732 519.810367,437.541087 C516.890013,435.764855 516.264223,427.964602 516.264223,427.964602 Z" id="Path" fill="#A8A8A8" fill-rule="nonzero"></path>
            <path d="M548.388116,439.892541 C537.427307,439.981037 522.920354,438.185841 520,436.409608 C517.774968,435.050569 516.890013,430.189633 516.59292,427.95196 L516.270544,427.95196 C516.270544,427.95196 516.902655,435.777497 519.804046,437.560051 C522.705436,439.342604 537.231353,441.131479 548.192162,441.042984 C551.352718,441.042984 552.452592,439.892541 552.389381,438.223767 C551.946903,439.247788 550.73957,439.873578 548.388116,439.892541 Z" id="Path" fill="#000000" fill-rule="nonzero" opacity="0.2"></path>
            <path d="M170.815424,431.517067 C171.975545,430.570195 172.821775,429.294239 173.242731,427.857143 C173.552465,426.409608 172.932996,424.696587 171.548673,424.134008 C169.993679,423.539823 168.331226,424.620733 167.067004,425.707965 C165.802781,426.795196 164.367889,428.040455 162.718078,427.806574 C164.444031,426.243745 165.22177,423.888921 164.766119,421.605563 C164.694191,421.140495 164.497592,420.703607 164.197219,420.34134 C163.331226,419.418458 161.769912,419.810367 160.733249,420.537295 C157.446271,422.850822 156.529709,427.319848 156.510746,431.333755 C156.182048,429.88622 156.460177,428.375474 156.453856,426.908976 C156.447535,425.442478 156.036662,423.74842 154.785082,422.970923 C154.008373,422.556104 153.13681,422.351287 152.256637,422.376738 C150.777497,422.319848 149.134008,422.471555 148.12263,423.546144 C146.858407,424.892541 147.193426,427.142857 148.286979,428.603034 C149.380531,430.063211 151.036662,431.011378 152.560051,432.029077 C153.786051,432.757948 154.831818,433.75402 155.619469,434.94311 C155.708961,435.111757 155.785049,435.287182 155.847029,435.467762 L165.107459,435.467762 C167.17958,434.414316 169.09965,433.085365 170.815424,431.517067 L170.815424,431.517067 Z" id="Path" fill="#2185D0" fill-rule="nonzero"></path>
            <path d="M97.2187105,441.491783 C97.2187105,441.491783 88.3312263,411.333755 98.8811631,389.140329 C103.372216,379.857532 104.729707,369.368034 102.749684,359.247788 C101.772852,354.454624 100.357283,349.761451 98.5208597,345.22756" id="Path" stroke="#535461" stroke-width="1.2642225"></path>
            <path d="M105.063211,331.19469 C105.063211,334.892541 98.3754741,345.613148 98.3754741,345.613148 C98.3754741,345.613148 91.6814159,334.867257 91.6814159,331.19469 C91.7925488,327.579454 94.7553694,324.706311 98.3723135,324.706311 C101.989258,324.706311 104.952078,327.579454 105.063211,331.19469 L105.063211,331.19469 Z" id="Path" fill="#2185D0" fill-rule="nonzero"></path>
            <path d="M116.125158,351.668774 C114.121365,354.77244 102.673831,360.132743 102.673831,360.132743 C102.673831,360.132743 102.882427,347.490518 104.892541,344.393173 C106.946367,341.405749 111.005141,340.596205 114.047927,342.567081 C117.090713,344.537957 118.011593,348.572928 116.125158,351.668774 L116.125158,351.668774 Z" id="Path" fill="#2185D0" fill-rule="nonzero"></path>
            <path d="M115.644753,386.656131 C112.345133,388.318584 99.7597977,387.168142 99.7597977,387.168142 C99.7597977,387.168142 106.321113,376.36536 109.620733,374.702908 C111.762725,373.568535 114.350597,373.680667 116.386441,374.996064 C118.422286,376.31146 119.588036,378.624613 119.43417,381.04355 C119.280303,383.462487 117.830858,385.60929 115.644753,386.656131 L115.644753,386.656131 Z" id="Path" fill="#2185D0" fill-rule="nonzero"></path>
            <path d="M109.31732,413.046776 C106.346397,415.246523 93.7484197,416.207332 93.7484197,416.207332 C93.7484197,416.207332 98.3881163,404.456384 101.333755,402.256637 C103.244128,400.690717 105.861616,400.304111 108.143117,401.250887 C110.424619,402.197663 111.999313,404.323938 112.239665,406.782365 C112.480017,409.240792 111.346962,411.631795 109.292035,413.002528 L109.31732,413.046776 Z" id="Path" fill="#2185D0" fill-rule="nonzero"></path>
            <path d="M88.6283186,360.847029 C91.2768647,363.419722 103.628319,366.093552 103.628319,366.093552 C103.628319,366.093552 100.600506,353.824273 97.9393173,351.245259 C96.2381919,349.506641 93.7278276,348.827615 91.3822241,349.471639 C89.0366206,350.115662 87.2249544,351.981371 86.6501364,354.344887 C86.0753185,356.708402 86.8278198,359.197729 88.6156764,360.847029 L88.6283186,360.847029 Z" id="Path" fill="#2185D0" fill-rule="nonzero"></path>
            <path d="M81.6182048,391.801517 C84.9178255,393.46397 97.5031606,392.313527 97.5031606,392.313527 C97.5031606,392.313527 90.9418458,381.517067 87.642225,379.848293 C84.3553694,378.274344 80.4133375,379.618834 78.7732507,382.873193 C77.1331639,386.127552 78.3976731,390.095964 81.6182048,391.801517 L81.6182048,391.801517 Z" id="Path" fill="#2185D0" fill-rule="nonzero"></path>
            <path d="M78.9380531,422.825537 C81.908976,425.018963 94.5006321,425.986094 94.5006321,425.986094 C94.5006321,425.986094 89.8672566,414.235145 86.9152971,412.035398 C83.9461528,410.054838 79.9453233,410.752073 77.8211821,413.620254 C75.6970409,416.488435 76.1967355,420.518705 78.9570164,422.78129 L78.9380531,422.825537 Z" id="Path" fill="#2185D0" fill-rule="nonzero"></path>
            <path d="M105.063211,331.19469 C105.063211,334.892541 98.3754741,345.613148 98.3754741,345.613148 C98.3754741,345.613148 91.6814159,334.867257 91.6814159,331.19469 C91.7925488,327.579454 94.7553694,324.706311 98.3723135,324.706311 C101.989258,324.706311 104.952078,327.579454 105.063211,331.19469 L105.063211,331.19469 Z" id="Path" fill="#2185D0" fill-rule="nonzero"></path>
            <path d="M116.125158,351.668774 C114.121365,354.77244 102.673831,360.132743 102.673831,360.132743 C102.673831,360.132743 102.882427,347.490518 104.892541,344.393173 C106.946367,341.405749 111.005141,340.596205 114.047927,342.567081 C117.090713,344.537957 118.011593,348.572928 116.125158,351.668774 L116.125158,351.668774 Z" id="Path" fill="#2185D0" fill-rule="nonzero"></path>
            <path d="M115.644753,386.656131 C112.345133,388.318584 99.7597977,387.168142 99.7597977,387.168142 C99.7597977,387.168142 106.321113,376.36536 109.620733,374.702908 C111.762725,373.568535 114.350597,373.680667 116.386441,374.996064 C118.422286,376.31146 119.588036,378.624613 119.43417,381.04355 C119.280303,383.462487 117.830858,385.60929 115.644753,386.656131 L115.644753,386.656131 Z" id="Path" fill="#2185D0" fill-rule="nonzero"></path>
            <path d="M109.31732,413.046776 C106.346397,415.246523 93.7484197,416.207332 93.7484197,416.207332 C93.7484197,416.207332 98.3881163,404.456384 101.333755,402.256637 C103.244128,400.690717 105.861616,400.304111 108.143117,401.250887 C110.424619,402.197663 111.999313,404.323938 112.239665,406.782365 C112.480017,409.240792 111.346962,411.631795 109.292035,413.002528 L109.31732,413.046776 Z" id="Path" fill="#2185D0" fill-rule="nonzero"></path>
            <path d="M88.6283186,360.847029 C91.2768647,363.419722 103.628319,366.093552 103.628319,366.093552 C103.628319,366.093552 100.600506,353.824273 97.9393173,351.245259 C96.2381919,349.506641 93.7278276,348.827615 91.3822241,349.471639 C89.0366206,350.115662 87.2249544,351.981371 86.6501364,354.344887 C86.0753185,356.708402 86.8278198,359.197729 88.6156764,360.847029 L88.6283186,360.847029 Z" id="Path" fill="#2185D0" fill-rule="nonzero"></path>
            <path d="M81.6182048,391.801517 C84.9178255,393.46397 97.5031606,392.313527 97.5031606,392.313527 C97.5031606,392.313527 90.9418458,381.517067 87.642225,379.848293 C84.3553694,378.274344 80.4133375,379.618834 78.7732507,382.873193 C77.1331639,386.127552 78.3976731,390.095964 81.6182048,391.801517 L81.6182048,391.801517 Z" id="Path" fill="#2185D0" fill-rule="nonzero"></path>
            <path d="M78.9380531,422.825537 C81.908976,425.018963 94.5006321,425.986094 94.5006321,425.986094 C94.5006321,425.986094 89.8672566,414.235145 86.9152971,412.035398 C83.9461528,410.054838 79.9453233,410.752073 77.8211821,413.620254 C75.6970409,416.488435 76.1967355,420.518705 78.9570164,422.78129 L78.9380531,422.825537 Z" id="Path" fill="#2185D0" fill-rule="nonzero"></path>
            <path d="M76.2010114,439.595449 C76.2010114,439.595449 87.022756,437.446271 89.9051833,434.582807 C92.7876106,431.719343 105.771176,426.7067 107.212389,430.28445 C108.653603,433.8622 126.681416,446.036662 114.418458,448.185841 C102.155499,450.335019 85.5752212,451.049305 81.9721871,449.614412 C78.369153,448.17952 76.2010114,439.595449 76.2010114,439.595449 Z" id="Path" fill="#A8A8A8" fill-rule="nonzero"></path>
            <path d="M114.437421,446.845765 C102.180784,448.994943 85.5941846,449.709229 81.9911504,448.280657 C79.2477876,447.187105 77.3388116,441.959545 76.5865992,439.513274 L76.2010114,439.595449 C76.2010114,439.595449 78.369153,448.185841 81.9721871,449.614412 C85.5752212,451.042984 102.16182,450.328698 114.418458,448.185841 C117.958281,447.553729 118.969659,446.106195 118.590392,444.266751 C118.305942,445.461441 117.073325,446.384324 114.437421,446.845765 Z" id="Path" fill="#000000" fill-rule="nonzero" opacity="0.2"></path>
            <path d="M458.451327,165.600506 C461.845765,161.807838 460.518331,155.897598 460.518331,155.897598 C460.518331,155.897598 444.500632,115.075853 442.724399,114.627054 C440.948167,114.178255 436.491783,103.881163 436.491783,103.881163 C436.491783,103.881163 393.780025,63.2806574 392.243995,63.2806574 C390.707965,63.2806574 375.11378,52.0670038 373.116308,51.8457649 C371.118837,51.6245259 367.996207,50.4993679 364.65866,48.6852086 C361.321113,46.8710493 327.503161,48.9127686 326.169406,50.4804046 C324.835651,52.0480405 318.584071,53.1731985 318.584071,53.1731985 C318.584071,53.1731985 305.903919,53.8432364 304.121365,56.0872314 C302.338812,58.3312263 289.222503,59.5195954 289.222503,59.5195954 C289.222503,59.5195954 282.768647,61.9216182 291.529709,68.2996207 L291.529709,68.2996207 C288.723135,68.7420986 285.442478,69.0834387 282.111252,69.323641 C281.276865,69.380531 280.429836,69.437421 279.582807,69.4816688 L279.083439,69.4816688 C278.524006,67.7902281 277.433195,66.3247281 275.973451,65.3034134 C275.018985,64.7851681 274.033079,64.3270489 273.021492,63.931732 C271.455044,63.0987417 269.987677,62.0915168 268.647282,60.9292035 C262.162071,55.7719885 255.241931,51.1867617 247.964602,47.2250316 C246.841191,46.521676 245.588043,46.0509397 244.279393,45.840708 C241.567636,45.5815424 239.14665,47.4841972 236.491783,48.1226296 C231.826802,49.2414665 227.123894,46.3969659 222.326169,46.3527181 C216.333755,46.2958281 210.878635,50.9608091 209.051833,56.7130215 C208.375474,58.8432364 208.072061,61.2136536 206.611884,62.9013906 C204.71555,65.1074589 201.510746,65.4298357 198.912769,66.7383059 C195.075722,68.739655 192.667509,72.7077748 192.667509,77.0353982 L192.667509,77.0859671 C192.667509,77.4209861 192.667509,77.7560051 192.724399,78.091024 C193.021492,80.7964602 194.273072,83.2932996 195.189633,85.8596713 C196.131534,88.4892626 196.726521,91.2304504 196.959545,94.0139064 C196.962682,94.0433215 196.962682,94.0729869 196.959545,94.102402 C196.997472,94.5638432 197.029077,95.0252845 197.04804,95.4930468 C197.04804,95.5878635 197.04804,95.6890013 197.04804,95.7901391 C197.04804,96.2326169 197.04804,96.6814159 197.04804,97.1302149 C197.04804,99.5448799 196.965866,101.978508 196.972187,104.393173 L196.972187,104.519595 L196.972187,105.613148 C196.972187,105.701643 196.972187,105.790139 196.972187,105.878635 C196.972187,106.201011 196.972187,106.510746 197.010114,106.852086 L197.010114,107.193426 C197.010114,107.490518 197.054362,107.793932 197.085967,108.091024 C197.085967,108.217446 197.085967,108.35019 197.117573,108.476612 C197.117573,108.767383 197.187105,109.051833 197.225032,109.336283 L197.281922,109.740834 C197.326169,110.025284 197.376738,110.309735 197.427307,110.594185 L197.503161,110.986094 C197.566372,111.289507 197.642225,111.618205 197.718078,111.896334 C197.749684,112.003793 197.768647,112.10493 197.793932,112.212389 C197.907712,112.633797 198.034134,113.038348 198.173198,113.426043 C200.093142,118.810195 204.480372,122.945853 209.968394,124.54488 C210.987018,124.825737 212.040919,124.95774 213.097345,124.936789 C214.993679,124.892541 216.807838,124.304678 217.932996,123.00885 C218.211125,123.324905 218.482933,123.640961 218.773704,123.957016 C227.140909,133.056676 239.421693,137.501467 251.674674,135.864883 C263.927654,134.228299 274.611404,126.716222 280.297092,115.73957 C280.960809,115.594185 281.618205,115.461441 282.281922,115.335019 C283.432364,115.120101 284.589128,114.917826 285.752212,114.702908 L286.871049,114.525917 L286.871049,114.525917 L287.313527,114.450063 C293.002528,113.552465 298.527181,112.95196 302.484197,112.553729 L286.845765,114.494311 C286.845765,114.494311 283.053097,132.705436 281.959545,134.721871 C280.865992,136.738306 285.752212,140.101138 285.752212,140.101138 C285.752212,140.101138 289.981037,145.259166 289.981037,146.833123 C289.981037,148.40708 294.873578,152.888748 296.207332,155.353982 C296.376973,155.66667 296.589762,155.953935 296.839444,156.207332 C295.852024,156.58938 294.940277,157.143705 294.14665,157.844501 C291.055626,160.771176 292.085967,165.903919 290.670038,169.924147 C289.785082,172.452592 287.932996,174.500632 286.150442,176.491783 C285.510294,177.141789 284.973133,177.885715 284.557522,178.697851 C284.325775,179.235955 284.18275,179.808054 284.134008,180.391909 L284.134008,180.391909 C284.102316,180.71537 284.089652,181.040414 284.096081,181.36536 L284.096081,181.47914 C284.096081,181.731985 284.096081,181.978508 284.14665,182.225032 C284.14665,182.332491 284.14665,182.439949 284.14665,182.547408 C284.456384,185.189633 285.353982,187.743363 285.62579,190.385588 C285.897598,193.027813 285.5689,195.689001 286.112516,198.261694 C286.300908,199.15876 286.593672,200.030687 286.984829,200.859671 L277.932996,210.973451 C277.932996,210.973451 277.876106,211.472819 277.857143,212.294564 C270.309735,218.558786 258.640961,230.379267 262.806574,240.802781 C263.261694,241.944796 263.683102,243.038348 264.070796,244.083439 C261.005057,246.036662 259.993679,248.356511 264.589128,250.670038 C265.316056,251.036662 266.017699,251.352718 266.7067,251.637168 C269.064475,258.558786 269.987358,260.486726 273.938053,255.385588 C274.361568,254.82933 274.854614,254.121365 275.391909,253.356511 C280.954488,253.242731 284.171934,250.670038 284.171934,250.670038 C284.171934,250.670038 299.740834,249.77244 303.767383,252.243995 C305.783818,253.508217 310.524652,253.761062 314.721871,253.729456 C314.665562,258.251244 314.876634,262.772406 315.353982,267.269279 C315.353982,267.269279 314.683944,286.333755 316.466498,290.372946 C318.249052,294.412137 319.235145,301.36536 319.235145,301.36536 C319.235145,301.36536 316.245259,308.091024 318.021492,311.681416 C319.797724,315.271808 316.466498,320.429836 316.466498,320.429836 L316.466498,333.659924 L317.730721,333.571429 C317.635904,334.462705 317.515803,335.39823 317.357775,336.289507 C316.99115,338.356511 316.441214,340.208597 315.594185,340.809102 C313.369153,342.408344 313.147914,350.922882 313.147914,350.922882 C313.147914,350.922882 309.589128,361.245259 310.252845,363.040455 C310.916561,364.835651 306.030341,368.419722 307.142857,371.112516 C308.255373,373.80531 310.530973,390.847029 312.509482,395.764855 C314.48799,400.68268 308.476612,399.355247 308.476612,399.355247 L310.252845,412.136536 C310.252845,412.136536 312.035398,425.145386 310.701643,426.042984 C309.367889,426.940582 301.694058,433.445006 306.972187,437.256637 C307.383059,437.553729 307.800253,437.825537 308.23641,438.084703 C308.259896,438.67501 308.245116,439.266218 308.192162,439.854614 C308.091024,440.859671 307.83818,441.662453 307.275601,441.750948 C305.707965,441.978508 302.591656,443.546144 301.93426,442.876106 C301.276865,442.206068 297.509482,444.570164 293.716814,445.34134 L293.192162,445.423515 L288.268015,444.159292 C281.143582,441.445174 273.322925,441.156343 266.017699,443.337547 C266.017699,443.337547 262.446271,443.893805 260.714286,446.561315 C259.835651,447.926675 259.450063,449.848293 260.233881,452.528445 C262.610619,460.45512 278.811631,463.185841 278.811631,463.185841 C278.811631,463.185841 284.424779,464.342604 291.169406,465.872314 C290.948167,465.872314 290.720607,465.872314 290.493047,465.872314 C286.634157,465.845638 283.395421,468.773836 283.034313,472.615885 C282.673206,476.457934 285.309609,479.938327 289.105889,480.631148 C292.902168,481.323969 296.598011,478.999211 297.617329,475.277285 C298.636647,471.55536 296.641039,467.671894 293.021492,466.333755 C300.606827,468.078382 309.007585,470.202276 312.420986,471.700379 C314.962402,472.657359 317.566497,473.438799 320.214918,474.039191 C320.48303,477.258741 322.809906,479.931674 325.961819,480.640782 C329.113731,481.34989 332.361163,479.931048 333.982301,477.136536 C344.304678,479.292035 354.247788,481.118837 354.247788,481.118837 L370.85335,481.390645 L370.96713,481.390645 C366.892563,481.418506 363.60811,484.736819 363.622041,488.811458 C363.635971,492.886097 366.943037,496.181875 371.017699,496.181875 C375.092362,496.181875 378.399427,492.886097 378.413358,488.811458 C378.427288,484.736819 375.142835,481.418506 371.068268,481.390645 L396.207332,481.801517 C395.383079,484.595902 396.27018,487.614082 398.475372,489.518055 C400.680563,491.422028 403.795841,491.859521 406.440159,490.636588 C409.084477,489.413655 410.768584,486.756562 410.745891,483.843236 C410.744652,483.23356 410.668222,482.626363 410.518331,482.035398 L432.692794,482.395702 L437.117573,477.528445 C437.36484,477.055512 437.513239,476.537191 437.553729,476.005057 C437.686473,474.405815 436.858407,471.978508 431.19469,470.948167 C430.777497,470.872314 419.222503,471.055626 409.013906,471.226296 L409.013906,467.21871 C409.013906,467.21871 408.729456,465.012642 408.552465,462.414665 C408.501896,461.64981 408.457649,460.85335 408.438685,460.069532 C409.016234,460.465205 409.65777,460.758174 410.335019,460.935525 C414.563843,461.611884 420.347661,449.273072 420.347661,449.273072 C420.347661,449.273072 420.347661,442.319848 421.681416,436.713021 C423.015171,431.106195 425.474083,412.262958 425.474083,412.262958 L430.821745,389.614412 C430.821745,389.614412 433.034134,343.40708 431.921618,341.611884 C430.809102,339.816688 433.261694,336.675095 433.261694,336.675095 C433.261694,336.675095 435.037927,326.807838 432.370417,323.445006 C429.702908,320.082174 433.925411,316.713021 433.925411,316.713021 C433.925411,316.713021 435.037927,305.050569 431.921618,300.5689 C428.80531,296.087231 433.381795,292.945638 433.381795,292.945638 L434.494311,274.778761 C439.165613,270.069532 443.388116,242.035398 443.615676,235.979772 C443.674093,232.571021 444.43139,229.210517 445.840708,226.106195 C445.840708,226.106195 448.950695,221.396966 449.399494,218.255373 C449.848293,215.11378 453.192162,208.615676 453.192162,208.615676 L458.97598,187.079646 C461.30847,178.394437 460.714286,171.972187 459.165613,167.395702 C458.938053,166.750948 458.697851,166.163085 458.451327,165.600506 Z M353.957016,166.864728 C357.515803,169.108723 356.403287,169.778761 357.515803,171.125158 C358.628319,172.471555 357.737042,172.243995 356.845765,174.48799 C355.954488,176.731985 356.624526,176.061947 357.067004,178.527181 C357.509482,180.992415 357.294564,180.992415 357.294564,180.992415 L358.40708,181.150442 L356.858407,191.561315 C354.329962,193.211125 353.173198,196.371681 352.648546,199.633375 C351.156764,197.686473 349.652339,195.663717 348.305942,193.780025 C348.767383,192.749684 348.678887,191.523388 348.69153,190.366625 C348.742099,186.573957 350.158028,182.95196 350.809102,179.216182 C351.474074,175.415917 351.351439,171.519572 350.448799,167.768647 C350.124748,166.357275 349.625734,164.991888 348.963338,163.704172 C350.404551,164.664981 352.231353,165.802781 353.957016,166.890013 L353.957016,166.864728 Z M357.958281,386.668774 C357.958281,386.668774 360.771176,384.77244 363.501896,383.046776 C364.418458,389.702908 365.28445,396.624526 365.897598,402.882427 C364.917826,400.707965 364.235145,399.228824 364.235145,399.228824 C363.231753,398.022735 362.630591,396.53309 362.515803,394.968394 C362.408344,392.528445 357.958281,386.694058 357.958281,386.694058 L357.958281,386.668774 Z M341.276865,156.125158 C341.908976,156.213654 342.806574,157.016435 343.653603,157.977244 C342.869785,157.345133 342.079646,156.713021 341.270544,156.118837 L341.276865,156.125158 Z M300.562579,239.108723 C297.996207,239.917826 289.298357,239.797724 284.127686,239.494311 C286.061947,236.188369 287.983565,232.825537 289.690265,229.810367 C290.696795,230.07097 291.721651,230.25481 292.756005,230.360303 L309.690265,215.486726 C316.060321,217.720889 323.008131,217.676209 329.348925,215.360303 L329.810367,216.08091 C330.006321,216.396966 330.214918,216.713021 330.442478,217.067004 L330.018963,216.378003 C330.018963,216.378003 323.482933,220.271808 324.14665,222.067004 C324.810367,223.8622 323.261694,228.343869 320.815424,233.147914 C320.183312,234.348925 319.633375,235.537295 319.102402,236.731985 C313.565107,237.250316 303.128951,238.299621 300.562579,239.108723 Z M332.692794,446.340076 L332.597977,444.563843 C333.672566,444.329962 334.380531,444.115044 334.380531,444.115044 C334.15838,441.479179 333.786945,438.858032 333.268015,436.264223 C332.597977,433.571429 332.945638,434.469027 335.549937,432.471555 C338.154235,430.474083 335.549937,407.819216 335.549937,407.819216 C335.549937,407.819216 336.814159,406.245259 338.817952,410.28445 C340.821745,414.323641 342.831858,416.788875 343.501896,417.010114 C344.171934,417.231353 340.828066,421.725664 343.501896,425.986094 C345.162071,428.742019 346.291921,431.784253 346.833123,434.955752 C346.833123,434.955752 345.05689,442.079646 347.724399,445.246523 C348.084717,445.615564 348.514336,445.909853 348.988622,446.112516 C348.988622,446.700379 348.988622,447.326169 348.988622,447.914033 C348.988622,449.096081 348.988622,450.107459 348.931732,450.322377 C348.879127,450.630518 348.668933,450.888577 348.377808,451.002439 C348.086682,451.116302 347.757185,451.069322 347.509482,450.878635 C346.82048,450.429836 342.452592,451.434893 342.749684,454.247788 C341.716788,455.468296 340.545888,456.564954 339.26043,457.515803 L333.198483,455.948167 L332.692794,446.340076 Z" id="Shape" fill="url(#linearGradient-1)" fill-rule="nonzero"></path>
            <path d="M278.097345,213.969659 C278.097345,213.969659 275.979772,231.321113 292.774968,233.097345 L295.303413,221.087231 L290.012642,213.969659 L282.433628,211.403287 L278.097345,213.969659 Z" id="Path" fill="#2185D0" fill-rule="nonzero"></path>
            <path d="M282.433628,211.403287 L278.097345,213.963338 C278.097345,213.963338 275.979772,231.314791 292.774968,233.091024" id="Path" fill="#000000" fill-rule="nonzero" opacity="0.1"></path>
            <path d="M308.571429,115.859671 C308.571429,115.859671 297.237674,116.554994 285.872314,118.438685 C284.709229,118.636747 283.552465,118.84745 282.402023,119.070796 C281.731985,119.197219 281.074589,119.329962 280.417193,119.475348 C274.462705,120.701643 269.039191,122.294564 265.878635,124.329962 C262.085967,126.76359 260.821745,120.208597 260.701643,111.099874 C260.651075,107.89507 260.758534,104.380531 260.929204,100.828066 C261.150442,96.7193426 261.472819,92.5600506 261.814159,88.817952 C262.566372,80.5246523 263.432364,74.0771176 263.432364,74.0771176 C263.432364,74.0771176 267.402023,74.0771176 272.705436,73.8938053 L274.412137,73.8305942 C276.074589,73.7673831 277.83818,73.6788875 279.614412,73.5714286 C280.45512,73.5271808 281.302149,73.4766119 282.142857,73.4134008 C285.505689,73.1731985 288.824273,72.8318584 291.624526,72.3893805 C294.608091,71.908976 297.029077,71.3021492 298.343869,70.4930468 C304.348925,66.9152971 308.571429,115.859671 308.571429,115.859671 Z" id="Path" fill="#F8BDC5" fill-rule="nonzero"></path>
            <path d="M359.070796,179.930468 L356.858407,194.614412 C356.858407,194.614412 352.035398,200.619469 352.667509,203.957016 C353.299621,207.294564 358.8622,354.791403 358.8622,354.791403 C358.8622,354.791403 369.766119,417.079646 365.979772,425.088496 C362.193426,433.097345 365.758534,451.788875 365.758534,451.788875 L388.451327,448.230088 L396.036662,175.922882 L359.070796,179.930468 Z" id="Path" fill="#474463" fill-rule="nonzero"></path>
            <path d="M359.070796,179.930468 L356.858407,194.614412 C356.858407,194.614412 352.035398,200.619469 352.667509,203.957016 C353.299621,207.294564 358.8622,354.791403 358.8622,354.791403 C358.8622,354.791403 369.766119,417.079646 365.979772,425.088496 C362.193426,433.097345 365.758534,451.788875 365.758534,451.788875 L388.451327,448.230088 L396.036662,175.922882 L359.070796,179.930468 Z" id="Path" fill="#000000" fill-rule="nonzero" opacity="0.1"></path>
            <path d="M409.127686,455.5689 C408.40708,456.76359 408.46397,460.278129 408.666245,463.268015 C408.843236,465.840708 409.127686,468.027813 409.127686,468.027813 L409.127686,483.154235 C409.127686,483.154235 384.879899,474.702908 371.529709,465.802781 C366.02402,462.130215 364.456384,458.716814 364.759798,455.986094 C365.202276,452.098609 369.437421,449.563843 371.529709,449.563843 C373.527181,449.563843 379.835651,446.08091 385.006321,443.002528 C389.070796,440.594185 392.446271,438.438685 392.446271,438.438685 C392.446271,438.438685 410.461441,453.343869 409.127686,455.5689 Z" id="Path" fill="#575988" fill-rule="nonzero"></path>
            <path d="M409.127686,455.5689 C408.40708,456.76359 408.46397,460.278129 408.666245,463.268015 C403.274336,460.73957 386.580278,444.54488 385.006321,443.002528 C389.070796,440.594185 392.446271,438.438685 392.446271,438.438685 C392.446271,438.438685 410.461441,453.343869 409.127686,455.5689 Z" id="Path" fill="#000000" fill-rule="nonzero" opacity="0.1"></path>
            <path d="M458.963338,190.164349 L453.17952,211.523388 C453.17952,211.523388 449.841972,217.970923 449.386852,221.087231 C448.931732,224.20354 445.828066,228.874842 445.828066,228.874842 C444.423367,231.949492 443.666001,235.280178 443.603034,238.659924 C443.381795,244.671302 439.178255,272.477876 434.481669,277.149178 L433.369153,295.17067 C433.369153,295.17067 428.944374,298.280657 432.035398,302.756005 C435.126422,307.231353 434.039191,318.773704 434.039191,318.773704 C434.039191,318.773704 429.810367,322.111252 432.484197,325.448799 C435.158028,328.786346 433.369153,338.57775 433.369153,338.57775 C433.369153,338.57775 430.922882,341.687737 432.035398,343.470291 C433.147914,345.252845 430.935525,391.08091 430.935525,391.08091 L425.587863,413.546144 C425.587863,413.546144 423.135272,432.237674 421.795196,437.800253 C420.45512,443.362832 420.461441,450.252845 420.461441,450.252845 C420.461441,450.252845 414.677623,462.490518 410.448799,461.826802 C406.219975,461.163085 385.758534,441.131479 385.758534,441.131479 L388.647282,373.495575 C388.647282,373.495575 391.093552,344.797724 389.538559,339.235145 C387.983565,333.672566 386.871049,305.865992 386.871049,305.865992 L383.754741,262.041719 L352.642225,213.097345 C352.642225,213.097345 350.385588,198.855879 356.833123,194.633375 L358.002528,186.940582 L359.058154,179.949431 L395.992415,175.941846 L452.496839,161.264223 C452.496839,161.264223 456.852086,163.950695 459.134008,170.657396 C460.695322,175.176991 461.295828,181.548673 458.963338,190.164349 Z" id="Path" fill="#474463" fill-rule="nonzero"></path>
            <path d="M360.651075,212.667509 C360.651075,212.667509 334.399494,244.905183 335.51201,235.897598 C336.207332,230.240202 332.616941,223.331226 329.823009,218.963338 C328.173198,216.36536 326.807838,214.664981 326.807838,214.664981 C326.807838,214.664981 342.825537,185.303413 343.716814,189.304678 C344.001264,190.5689 345.85335,193.470291 348.23641,196.782554 C353.261694,203.723135 360.651075,212.667509 360.651075,212.667509 Z" id="Path" fill="#FFC1C8" fill-rule="nonzero"></path>
            <path d="M409.127686,480.006321 L409.127686,483.166877 C409.127686,483.166877 384.879899,474.71555 371.529709,465.815424 C366.02402,462.142857 364.456384,458.729456 364.759798,455.998736 C372.130215,459.728192 385.840708,466.839444 389.993679,470.044248 C393.52086,472.762326 402.635904,477.067004 409.127686,480.006321 Z" id="Path" fill="#FFFFFF" fill-rule="nonzero" opacity="0.3"></path>
            <circle id="Oval" fill="#474463" fill-rule="nonzero" cx="403.419722" cy="484.595449" r="7.41466498"></circle>
            <circle id="Oval" fill="#474463" fill-rule="nonzero" cx="327.680152" cy="474.184576" r="7.41466498"></circle>
            <path d="M437.667509,476.82048 C437.625853,477.348388 437.477472,477.862347 437.231353,478.331226 L432.806574,483.154235 L370.960809,482.16182 L354.329962,481.890013 C354.329962,481.890013 319.323641,475.518331 312.503161,472.547408 C305.68268,469.576485 278.868521,464.140329 278.868521,464.140329 C278.868521,464.140329 262.673831,461.42225 260.297092,453.565107 C259.494311,450.903919 259.898862,449.001264 260.777497,447.648546 C262.503161,445 266.08091,444.443742 266.08091,444.443742 C273.388991,442.285092 281.202283,442.573651 288.331226,445.265487 L391.997472,471.93426 L393.603034,472.345133 C393.603034,472.345133 430.556258,471.656131 431.302149,471.788875 C436.972187,472.825537 437.800253,475.233881 437.667509,476.82048 Z" id="Path" fill="#2185D0" fill-rule="nonzero"></path>
            <path d="M437.667509,476.82048 C431.447535,476.011378 420.600506,474.816688 417.806574,475.96713 C417.806574,475.96713 398.078382,473.527181 370.935525,482.16182 L354.329962,481.890013 C354.329962,481.890013 319.323641,475.518331 312.503161,472.547408 C305.68268,469.576485 278.868521,464.140329 278.868521,464.140329 C278.868521,464.140329 262.673831,461.42225 260.297092,453.565107 C259.494311,450.903919 259.898862,449.001264 260.777497,447.648546 C261.883692,450.872314 264.013906,455.543616 267.414665,456.852086 C272.756005,458.906448 294.709229,463.091024 294.709229,463.091024 L338.160556,473.729456 C338.160556,473.729456 363.249052,479.171934 373.015171,475.62579 C377.016435,474.184576 384.525917,472.901391 391.978508,471.896334 L393.584071,472.307206 C393.584071,472.307206 430.537295,471.618205 431.283186,471.750948 C436.972187,472.825537 437.800253,475.233881 437.667509,476.82048 Z" id="Path" fill="#FFFFFF" fill-rule="nonzero" opacity="0.3"></path>
            <path d="M377.661188,468.811631 C377.608489,469.743445 377.492333,470.670584 377.313527,471.586599 C377.313527,471.586599 352.737042,472.465234 339.94311,470.5689 C336.409608,470.044248 334.412137,468.912769 333.419722,467.560051 C332.519285,466.261109 332.345226,464.592049 332.958281,463.135272 C333.099752,462.72319 333.279641,462.325317 333.495575,461.946903 C334.450063,460.278129 335.916561,459.096081 336.719343,459.254109 C338.944374,459.702908 342.762326,455.139064 342.762326,455.139064 C342.458913,452.351454 346.839444,451.346397 347.522124,451.801517 C347.769827,451.992205 348.099325,452.039184 348.39045,451.925322 C348.681575,451.811459 348.891769,451.553401 348.944374,451.245259 C348.988622,451.036662 349.001264,450.031606 349.001264,448.855879 C349.001264,446.896334 348.944374,444.4311 348.944374,444.4311 L373.647282,447.433628 L374.627054,452.155499 C375.524652,456.36536 376.776233,462.149178 377.313527,464.127686 C377.687041,465.659127 377.804516,467.241828 377.661188,468.811631 L377.661188,468.811631 Z" id="Path" fill="#474463" fill-rule="nonzero"></path>
            <path d="M377.661188,468.811631 C377.608489,469.743445 377.492333,470.670584 377.313527,471.586599 C377.313527,471.586599 352.737042,472.465234 339.94311,470.5689 C336.409608,470.044248 334.412137,468.912769 333.419722,467.560051 C336.700379,467.364096 340.96713,467.256637 343.609355,467.901391 C347.376738,468.836915 369.911504,468.836915 377.661188,468.811631 Z" id="Path" fill="#000000" fill-rule="nonzero" opacity="0.1"></path>
            <path d="M333.470291,461.93426 C333.525107,462.399322 333.318364,462.856588 332.932996,463.12263 C329.823009,465.524652 314.898862,462.914033 314.898862,462.914033 C314.898862,462.914033 284.405815,461.017699 279.848293,457.907712 C279.436933,457.637353 279.093092,457.276212 278.843236,456.852086 C276.946903,453.426043 283.811631,447.673831 284.405815,447.673831 C285,447.673831 293.198483,446.554994 293.74842,446.447535 C297.541087,445.68268 301.333755,443.331226 301.965866,444.001264 C302.597977,444.671302 305.758534,443.109987 307.300885,442.888748 C307.863464,442.806574 308.12263,442.010114 308.217446,440.992415 C308.306347,439.615285 308.259768,438.232752 308.078382,436.864728 L332.433628,443.419722 L332.648546,447.300885 L333.35019,460.221239 L333.438685,461.807838 C333.453975,461.848646 333.464578,461.891059 333.470291,461.93426 L333.470291,461.93426 Z" id="Path" fill="#474463" fill-rule="nonzero"></path>
            <path d="M314.924147,462.914033 C314.924147,462.914033 284.4311,461.017699 279.873578,457.907712 C279.462217,457.637353 279.118376,457.276212 278.868521,456.852086 C285.044248,457.357775 295.34134,458.211125 297.199747,458.685209 C299.873578,459.31732 314.898862,460.240202 314.898862,460.240202 L333.375474,460.240202 L333.46397,461.826802 C334.266751,466.302149 314.924147,462.914033 314.924147,462.914033 Z" id="Path" fill="#000000" fill-rule="nonzero" opacity="0.1"></path>
            <circle id="Oval" fill="#474463" fill-rule="nonzero" cx="290.549937" cy="474.184576" r="7.41466498"></circle>
            <circle id="Oval" fill="#474463" fill-rule="nonzero" cx="371.08091" cy="489.576485" r="7.41466498"></circle>
            <path d="M295.670038,221.978508 C295.670038,221.978508 294.266751,224.506953 292.155499,228.261694 C287.098609,237.187105 278.002528,253.00885 274.08976,258.015171 C268.527181,265.132743 268.97598,258.46397 262.964602,243.558786 C258.501896,232.471555 272.237674,219.785082 279.582807,214.020228 C282.111252,212.016435 283.881163,210.859671 283.881163,210.859671 L295.670038,221.978508 Z" id="Path" fill="#F8BDC5" fill-rule="nonzero"></path>
            <path d="M322.585335,239.108723 C322.585335,239.108723 304.121365,240.663717 300.562579,241.776233 C297.003793,242.888748 281.656131,242.21871 280.335019,241.776233 C279.013906,241.333755 252.743363,247.338812 264.759798,253.343869 C276.776233,259.348925 284.355247,253.343869 284.355247,253.343869 C284.355247,253.343869 299.930468,252.452592 303.950695,254.905183 C307.970923,257.357775 322.635904,256.017699 322.635904,256.017699 L322.585335,239.108723 Z" id="Path" fill="#FFC1C8" fill-rule="nonzero"></path>
            <path d="M284.228824,102.958281 C286.504425,108.780025 285.082174,113.849558 282.402023,119.051833 C275.689001,120.316056 269.37421,122.054362 265.859671,124.310999 C255.847029,130.764855 263.413401,74.0328698 263.413401,74.0328698 C263.413401,74.0328698 268.255373,74.0328698 274.393173,73.7863464 C272.534766,82.2692794 279.576485,91.0745891 284.228824,102.958281 Z" id="Path" fill="#000000" fill-rule="nonzero" opacity="0.1"></path>
            <path d="M284.797755,101.694058 C284.773127,120.984514 270.272524,137.183388 251.102487,139.335589 C231.932449,141.48779 214.200849,128.907594 209.899338,110.102825 C205.597828,91.298057 216.096937,72.2602072 234.296251,65.8643292 C252.495566,59.4684513 272.596503,67.752371 281.005057,85.11378 C283.508218,90.2821354 284.805047,95.9514405 284.797755,101.694058 Z" id="Path" fill="#F8BDC5" fill-rule="nonzero"></path>
            <path d="M459.14665,170.638432 C457.945763,172.385906 456.147111,173.63372 454.08976,174.14665 C445.410872,176.59292 384.228824,191.276865 380.22756,190.385588 C376.694058,189.60177 361.529709,187.420986 358.034134,186.921618 L359.08976,179.930468 L396.02402,175.922882 L452.528445,161.245259 C452.528445,161.245259 456.864728,163.931732 459.14665,170.638432 Z" id="Path" fill="#000000" fill-rule="nonzero" opacity="0.1"></path>
            <path d="M308.571429,115.859671 C301.339764,116.293137 294.134888,117.094851 286.984829,118.261694 C287.08642,117.936335 287.073029,117.585936 286.946903,117.269279 L301.738306,115.442478 C301.738306,115.442478 299.576485,80.676359 291.624526,72.3451327 C294.608091,71.8647282 297.029077,71.2579014 298.343869,70.448799 C304.348925,66.9152971 308.571429,115.859671 308.571429,115.859671 Z" id="Path" fill="#000000" fill-rule="nonzero" opacity="0.1"></path>
            <path d="M289.222503,63.6472819 C289.222503,63.6472819 302.351454,62.4652339 304.127686,60.2402023 C305.903919,58.0151707 318.590392,57.3514539 318.590392,57.3514539 C318.590392,57.3514539 324.816688,56.2389381 326.175727,54.6776233 C327.534766,53.1163085 361.321113,51.1188369 364.65866,52.9013906 C367.996207,54.6839444 371.112516,55.7901391 373.116308,56.0176991 C375.120101,56.2452592 390.689001,67.357775 392.243995,67.357775 C393.798989,67.357775 436.491783,107.629583 436.491783,107.629583 C436.491783,107.629583 440.916561,117.863464 442.724399,118.305942 C444.532238,118.74842 460.524652,159.241466 460.524652,159.241466 C460.524652,159.241466 462.749684,169.026549 454.077118,171.47914 C445.404551,173.931732 384.216182,188.609355 380.214918,187.718078 C376.213654,186.826802 357.300885,184.159292 357.300885,184.159292 C357.300885,184.159292 357.522124,184.159292 357.079646,181.713021 C356.637168,179.266751 355.96713,179.930468 356.852086,177.705436 C357.737042,175.480405 358.63464,175.701643 357.522124,174.367889 C356.409608,173.034134 357.522124,172.364096 353.963338,170.139064 C350.404551,167.914033 346.378003,165.467762 346.175727,164.804046 C345.973451,164.140329 342.83818,159.683944 341.283186,159.462705 C339.728192,159.241466 296.118837,147.003793 296.118837,147.003793 L285.884956,143.666245 C285.884956,143.666245 280.992415,140.328698 282.092288,138.331226 C283.192162,136.333755 286.978508,118.261694 286.978508,118.261694 L302.623262,116.333755 C302.623262,116.333755 300.290771,78.6599241 291.529709,72.3388116 C282.768647,66.0176991 289.222503,63.6472819 289.222503,63.6472819 Z" id="Path" fill="#2185D0" fill-rule="nonzero"></path>
            <path d="M295.670038,221.978508 C295.670038,221.978508 294.266751,224.506953 292.155499,228.261694 C291.826802,216.656131 283.710493,214.405815 279.582807,214.020228 C282.111252,212.016435 283.881163,210.859671 283.881163,210.859671 L295.670038,221.978508 Z" id="Path" fill="#000000" fill-rule="nonzero" opacity="0.1"></path>
            <path d="M284.797724,137.661188 L285.872314,143.666245 C285.872314,143.666245 290.101138,148.786346 290.101138,150.34134 C290.101138,151.896334 294.993679,156.346397 296.333755,158.792668 C297.673831,161.238938 302.338812,161.687737 300.556258,165.916561 C298.773704,170.145386 288.546144,202.402023 288.546144,202.402023 L278.091024,213.969659 C278.091024,213.969659 295.442478,212.408344 292.768647,233.097345 L315.240202,213.501896 L332.83818,181.485461 C332.83818,181.485461 315.707965,149.007585 315.044248,146.340076 C314.380531,143.672566 284.797724,137.661188 284.797724,137.661188 Z" id="Path" fill="#2185D0" fill-rule="nonzero"></path>
            <path d="M336.826802,148.786346 C336.826802,148.786346 351.061947,138.773704 351.061947,137.661188 C351.061947,136.548673 336.826802,148.786346 336.826802,148.786346 Z" id="Path" fill="#000000" fill-rule="nonzero" opacity="0.1"></path>
            <path d="M360.651075,161.245259 C360.651075,161.245259 368.23641,159.462705 368.868521,155.461441 C369.500632,151.460177 360.651075,161.245259 360.651075,161.245259 Z" id="Path" fill="#000000" fill-rule="nonzero" opacity="0.1"></path>
            <path d="M366.858407,171.47914 C366.858407,171.47914 377.541087,166.188369 377.092288,165.271808 C376.643489,164.355247 366.858407,171.47914 366.858407,171.47914 Z" id="Path" fill="#000000" fill-rule="nonzero" opacity="0.1"></path>
            <path d="M424.03287,137.591656 C424.03287,137.591656 419.608091,140.480405 420.922882,143.185841 C422.237674,145.891277 424.03287,137.591656 424.03287,137.591656 Z" id="Path" fill="#000000" fill-rule="nonzero" opacity="0.1"></path>
            <path d="M437.136536,138.773704 C437.136536,138.773704 424.532238,150.783818 427.383059,151.011378 C430.233881,151.238938 437.136536,138.773704 437.136536,138.773704 Z" id="Path" fill="#000000" fill-rule="nonzero" opacity="0.1"></path>
            <path d="M408.46397,324.981037 C408.46397,324.981037 424.702908,328.097345 425.145386,329.209861 C425.587863,330.322377 408.46397,324.981037 408.46397,324.981037 Z" id="Path" fill="#000000" fill-rule="nonzero" opacity="0.1"></path>
            <path d="M414.247788,335.657396 C414.247788,335.657396 422.920354,340.998736 423.141593,342.553729 C423.362832,344.108723 414.247788,335.657396 414.247788,335.657396 Z" id="Path" fill="#000000" fill-rule="nonzero" opacity="0.1"></path>
            <path d="M412.243995,347.673831 C412.243995,347.673831 413.57775,353.678887 415.802781,354.570164 C418.027813,355.461441 412.243995,347.673831 412.243995,347.673831 Z" id="Path" fill="#000000" fill-rule="nonzero" opacity="0.1"></path>
            <path d="M281.042984,84.9178255 C281.042984,84.9810367 281.042984,85.0505689 281.011378,85.11378 C280.707965,87.0922882 279.898862,89.2351454 278.040455,89.8925411 C276.917643,90.2083967 275.717706,90.0980834 274.671302,89.5828066 C271.510746,88.1984829 268.697851,84.8735777 265.322377,85.676359 C263.716814,86.0556258 262.591656,87.2756005 261.795196,88.7737042 C261.242993,89.8520707 260.818708,90.9912768 260.530973,92.1681416 C259.898862,94.6460177 259.393173,97.3388116 260.360303,99.6965866 C260.519379,100.082273 260.709643,100.454345 260.929204,100.809102 C261.826802,102.243995 263.091024,103.46397 263.97598,104.911504 C265.075853,106.719343 265.360303,109.4311 263.647282,110.670038 C262.776824,111.242129 261.695427,111.392968 260.701643,111.08091 C259.44675,110.686622 258.240244,110.152282 257.10493,109.48799 C254.867257,108.318584 252.04804,107.591656 249.924147,108.944374 C249.190898,109.399494 248.603034,110.05689 247.901391,110.537295 C246.442983,111.440516 244.712908,111.800855 243.015171,111.554994 C238.994943,111.144121 237.490518,108.596713 234.418458,106.624526 C232.168142,105.17067 227.465234,104.551201 226.125158,107.522124 C225.265487,109.418458 226.542351,111.807838 225.701643,113.742099 C224.860936,115.676359 222.187105,116.270544 220.948167,118.06574 C219.31732,120.429836 220.834387,123.849558 219.639697,126.472819 C219.456707,126.879199 219.21145,127.25455 218.912769,127.585335 C204.991059,112.584201 205.433061,89.2570733 219.913055,74.7940938 C234.39305,60.3311143 257.720681,59.9165405 272.705436,73.8558786 L274.412137,73.7926675 C276.074589,73.7294564 277.83818,73.6409608 279.614412,73.5335019 C280.034384,74.4228218 280.36267,75.3526108 280.594185,76.3084703 C281.281879,79.1247884 281.434121,82.0452688 281.042984,84.9178255 Z" id="Path" fill="#000000" fill-rule="nonzero" opacity="0.1"></path>
            <path d="M225.221239,106.637168 C224.355247,108.533502 225.632111,110.922882 224.797724,112.850822 C223.963338,114.778761 221.270544,115.379267 220.044248,117.174463 C218.40708,119.54488 219.924147,122.964602 218.735777,125.581542 C217.370417,128.571429 213.249052,129.039191 210.088496,128.166877 C204.610735,126.602592 200.22077,122.497292 198.2933,117.136536 C196.150442,111.036662 197.534766,104.323641 196.978508,97.8824273 C196.741652,95.122173 196.146688,92.4044637 195.208597,89.7977244 C194.292035,87.2692794 193.040455,84.7787611 192.743363,82.0922882 C192.308309,77.428616 194.756677,72.9699829 198.925411,70.8343869 C201.529709,69.5701643 204.734513,69.2098609 206.630847,67.0417193 C208.084703,65.3603034 208.394437,63.0151707 209.070796,60.897598 C210.897598,55.2085967 216.352718,50.5689001 222.345133,50.6257901 C227.136536,50.6637168 231.826802,53.4892541 236.510746,52.3767383 C239.159292,51.7446271 241.567636,49.8482933 244.298357,50.1201011 C245.606258,50.3257876 246.859478,50.7922519 247.983565,51.4917826 C255.253816,55.4186664 262.171602,59.9656678 268.659924,65.0821745 C270.002055,66.2380426 271.471746,67.2369235 273.040455,68.0594185 C274.050667,68.4531499 275.036415,68.9069739 275.992415,69.4184576 C278.034134,70.6826802 279.102402,73.091024 279.683944,75.4298357 C280.382029,78.2443492 280.540746,81.1656119 280.151707,84.0391909 C279.873578,86.068268 279.077118,88.3438685 277.149178,89.0202276 C276.022915,89.3344046 274.820139,89.2195328 273.773704,88.6978508 C270.613148,87.3261694 267.806574,84.0012642 264.4311,84.7977244 C261.675095,85.4298357 260.347661,88.5524652 259.627054,91.289507 C258.994943,93.7673831 258.476612,96.460177 259.456384,98.8242731 C260.265487,100.783818 261.984829,102.21871 263.06574,104.03287 C264.14665,105.847029 264.456384,108.558786 262.737042,109.791403 C260.840708,111.163085 258.268015,109.702908 256.188369,108.615676 C253.963338,107.446271 251.131479,106.719343 249.013906,108.06574 C248.286979,108.52086 247.699115,109.178255 246.99115,109.664981 C245.531689,110.559494 243.806009,110.917148 242.111252,110.676359 C238.084703,110.265487 236.580278,107.718078 233.514539,105.745891 C231.257901,104.279393 226.567636,103.659924 225.221239,106.637168 Z" id="Path" fill="#474463" fill-rule="nonzero"></path>
            <path d="M348.242731,196.750948 C348.072061,197.699115 346.769912,197.806574 346.504425,198.729456 C343.97598,207.648546 338.413401,215.670038 329.82933,218.957016 C328.17952,216.359039 326.814159,214.65866 326.814159,214.65866 C326.814159,214.65866 342.831858,185.297092 343.723135,189.298357 C344.007585,190.543616 345.859671,193.438685 348.242731,196.750948 Z" id="Path" fill="#000000" fill-rule="nonzero" opacity="0.1"></path>
            <path d="M348.71699,190.606827 C348.719371,202.485604 341.565736,213.196142 330.591911,217.743725 C319.618085,222.291308 306.985396,219.780276 298.584928,211.381616 C290.18446,202.982956 287.670709,190.350808 292.21593,179.376004 C296.76115,168.4012 307.470148,161.245061 319.348925,161.245061 C327.145434,161.21658 334.630986,164.300608 340.144581,169.813016 C345.658176,175.325424 348.743815,182.810312 348.71699,190.606827 Z" id="Path" fill="#FFC1C8" fill-rule="nonzero"></path>
            <path d="M332.484197,443.438685 L332.699115,447.319848 C330.126422,447.888748 325.233881,448.63464 322.383059,446.890013 C318.697851,444.633375 313.255373,444.083439 308.268015,441.011378 C308.356916,439.634248 308.310337,438.251715 308.128951,436.883692 L332.484197,443.438685 Z" id="Path" fill="#000000" fill-rule="nonzero" opacity="0.1"></path>
            <path d="M374.627054,452.168142 C374.456384,453.034134 374.298357,453.565107 374.298357,453.565107 C374.298357,453.565107 354.671302,451.554994 349.013906,448.843236 C349.013906,446.883692 348.957016,444.418458 348.957016,444.418458 L373.659924,447.420986 L374.627054,452.168142 Z" id="Path" fill="#000000" fill-rule="nonzero" opacity="0.1"></path>
            <path d="M370.195954,363.912769 C368.8622,367.471555 368.192162,368.141593 369.532238,369.917826 C370.872314,371.694058 370.195954,381.042984 368.072061,381.927939 C365.948167,382.812895 357.958281,388.154235 357.958281,388.154235 C357.958281,388.154235 362.383059,393.938053 362.515803,396.371681 C362.632041,397.926533 363.233425,399.405671 364.235145,400.600506 C364.235145,400.600506 371.087231,415.28445 372.452592,419.955752 C373.817952,424.627054 375.069532,431.965866 375.069532,431.965866 C375.069532,431.965866 372.673831,438.640961 374.329962,442.427307 C375.986094,446.213654 374.329962,451.769912 374.329962,451.769912 C374.329962,451.769912 350.429836,449.323641 347.78129,446.182048 C345.132743,443.040455 346.896334,435.973451 346.896334,435.973451 C346.350177,432.824133 345.218083,429.805216 343.558786,427.073325 C340.884956,422.844501 344.190898,418.400759 343.558786,418.173198 C342.926675,417.945638 340.884956,415.505689 338.874842,411.504425 C336.864728,407.503161 335.613148,409.051833 335.613148,409.051833 C335.613148,409.051833 338.217446,431.523388 335.613148,433.527181 C333.00885,435.530973 332.654867,434.639697 333.324905,437.319848 C333.844026,439.892366 334.215472,442.492488 334.437421,445.107459 C334.437421,445.107459 326.428571,447.553729 322.427307,445.107459 C318.426043,442.661188 312.402023,442.212389 307.111252,438.432364 C301.82048,434.652339 309.506953,428.198483 310.840708,427.307206 C312.174463,426.415929 310.39823,413.514539 310.39823,413.514539 L308.615676,400.834387 C308.615676,400.834387 314.620733,402.168142 312.648546,397.275601 C310.676359,392.383059 308.394437,375.474083 307.281922,372.806574 C306.169406,370.139064 311.074589,366.573957 310.39823,364.797724 C309.721871,363.021492 313.286979,352.787611 313.286979,352.787611 C313.286979,352.787611 313.514539,344.336283 315.733249,342.749684 C316.580278,342.155499 317.130215,340.309735 317.496839,338.268015 C317.885819,335.858428 318.115983,333.425876 318.185841,330.986094 C318.185841,330.986094 369.127686,327.427307 377.357775,332.319848 C381.061947,334.519595 380.802781,338.571429 379.254109,342.673831 C377.357775,347.680152 373.46397,352.787611 372.484197,354.639697 C370.644753,358.053097 371.529709,360.353982 370.195954,363.912769 Z" id="Path" fill="#575988" fill-rule="nonzero"></path>
            <path d="M379.190898,342.673831 C372.869785,344.450063 364.450063,347.060683 363.078382,348.558786 C360.85335,351.011378 353.286979,334.766119 353.286979,334.766119 C353.286979,334.766119 353.735777,346.978508 343.723135,341.871049 C335.05689,337.446271 321.068268,338.027813 317.452592,338.268015 C317.841571,335.858428 318.071735,333.425876 318.141593,330.986094 C318.141593,330.986094 369.083439,327.427307 377.313527,332.319848 C381.017699,334.519595 380.758534,338.571429 379.190898,342.673831 Z" id="Path" fill="#000000" fill-rule="nonzero" opacity="0.1"></path>
            <path d="M353.286979,208.185841 C353.286979,208.185841 357.711757,202.844501 358.628319,204.848293 C359.54488,206.852086 364.766119,210.85335 364.766119,210.85335 C364.766119,210.85335 366.264223,215.524652 368.900126,216.19469 C371.53603,216.864728 391.333755,243.558786 391.333755,243.558786 L384.209861,258.015171 L378.426043,293.166877 C378.426043,293.166877 378.678887,298.729456 377.10493,300.752212 C375.530973,302.774968 369.519595,302.307206 372.307206,304.753477 C375.094817,307.199747 379.096081,309.424779 381.321113,320.556258 C383.546144,331.687737 386.213654,338.128951 386.213654,338.128951 C386.213654,338.128951 365.303413,343.470291 363.078382,345.916561 C360.85335,348.362832 353.286979,332.123894 353.286979,332.123894 C353.286979,332.123894 353.735777,344.329962 343.723135,339.228824 C333.710493,334.127686 316.580278,335.68268 316.580278,335.68268 L316.580278,322.534766 C316.580278,322.534766 319.917826,317.414665 318.141593,313.855879 C316.36536,310.297092 319.355247,303.621997 319.355247,303.621997 C319.355247,303.621997 318.362832,296.725664 316.580278,292.724399 C314.797724,288.723135 315.467762,269.810367 315.467762,269.810367 C315.467762,269.810367 314.115044,257.572693 315.347661,251.340076 C316.393667,245.937908 318.240855,240.722317 320.828066,235.865992 C323.274336,231.099874 324.823009,226.64981 324.159292,224.867257 C323.495575,223.084703 330.031606,219.228824 330.031606,219.228824 L333.653603,225.088496 L334.576485,228.590392 C334.576485,228.590392 353.735777,214.860936 353.286979,208.185841 Z" id="Path" fill="#DCE6F2" fill-rule="nonzero"></path>
            <path d="M385.303413,239.108723 C385.303413,239.108723 397.762326,251.340076 399.096081,253.343869 C400.429836,255.347661 404.898862,265.764855 399.115044,268.925411 C393.331226,272.085967 370.670038,276.959545 368.419722,275.278129 C366.169406,273.596713 352.616941,277.174463 352.616941,277.174463 C352.616941,277.174463 329.949431,282.737042 334.841972,273.615676 C339.734513,264.494311 351.30847,266.030341 351.30847,266.030341 C351.30847,266.030341 370.006321,265.998736 372.003793,264.134008 C374.001264,262.269279 389.070796,258.268015 385.657396,250.025284 C382.243995,241.782554 385.303413,239.108723 385.303413,239.108723 Z" id="Path" fill="#FFC1C8" fill-rule="nonzero"></path>
            <path d="M348.716814,293.836915 C348.716814,293.836915 319.696587,318.97598 322.585335,318.97598 C325.474083,318.97598 348.716814,293.836915 348.716814,293.836915 Z" id="Path" fill="#000000" fill-rule="nonzero" opacity="0.1"></path>
            <path d="M368.072061,304.070796 C368.072061,304.070796 358.849558,306.289507 360.632111,307.629583 C362.414665,308.969659 368.072061,304.070796 368.072061,304.070796 Z" id="Path" fill="#000000" fill-rule="nonzero" opacity="0.1"></path>
            <path d="M335.549937,243.109987 C335.549937,243.109987 347.060683,244.140329 345.031606,247.743363 C343.002528,251.346397 335.549937,243.109987 335.549937,243.109987 Z" id="Path" fill="#000000" fill-rule="nonzero" opacity="0.1"></path>
            <path d="M328.375474,351.156764 C328.375474,351.156764 326.814159,355.68268 328.375474,358.109987 C329.936789,360.537295 328.375474,366.327434 328.375474,366.327434 L328.375474,386.554994 C328.375474,386.554994 328.160556,401.238938 333.489254,406.352718 L328.375474,351.156764 Z" id="Path" fill="#000000" fill-rule="nonzero" opacity="0.1"></path>
            <path d="M313.135272,414.190898 C313.135272,414.190898 316.245259,418.74842 316.694058,420.417193 C317.142857,422.085967 313.135272,414.190898 313.135272,414.190898 Z" id="Path" fill="#000000" fill-rule="nonzero" opacity="0.1"></path>
            <path d="M313.912769,405.069532 C313.912769,405.069532 321.144121,403.735777 322.256637,404.513274 C323.369153,405.290771 313.912769,405.069532 313.912769,405.069532 Z" id="Path" fill="#000000" fill-rule="nonzero" opacity="0.1"></path>
            <path d="M311.801517,432.319848 C311.801517,432.319848 309.683944,432.541087 313.912769,434.848293 C318.141593,437.155499 326.371681,440.075853 326.47914,439.077118 C326.586599,438.078382 311.801517,432.319848 311.801517,432.319848 Z" id="Path" fill="#000000" fill-rule="nonzero" opacity="0.1"></path>
            <path d="M342.756005,410.183312 C343.501896,410.183312 352.812895,409.627054 352.275601,411.074589 C351.738306,412.522124 342.756005,410.183312 342.756005,410.183312 Z" id="Path" fill="#000000" fill-rule="nonzero" opacity="0.1"></path>
            <path d="M355.404551,397.168142 C355.404551,397.168142 357.515803,393.501896 358.2933,395.05689 C359.070796,396.611884 355.404551,397.168142 355.404551,397.168142 Z" id="Path" fill="#000000" fill-rule="nonzero" opacity="0.1"></path>
            <path d="M348.716814,190.606827 C348.72016,193.336827 348.341435,196.053864 347.591656,198.678887 C346.36536,199.791403 344.247788,199.804046 342.737042,198.97598 C340.96713,198.002528 339.810367,196.232617 338.659924,194.551201 C337.509482,192.869785 336.201011,191.188369 334.31732,190.467762 C331.93426,189.570164 329.216182,190.467762 327.142857,191.959545 C325.069532,193.451327 323.413401,195.423515 321.453856,197.016435 C319.494311,198.609355 316.997472,199.898862 314.500632,199.506953 C312.888748,199.26043 311.460177,198.35019 310.075853,197.471555 C308.17952,196.276865 306.144121,194.418458 304.064475,193.615676 C301.984829,192.812895 300.271808,194.247788 298.2933,194.247788 C296.719343,194.816688 295.006321,196.112516 295.322377,197.749684 C295.491672,198.357065 295.765464,198.930317 296.131479,199.443742 C297.430395,202.002706 297.063914,205.091617 295.202276,207.275601 C288.012157,196.880676 288.279404,183.051318 295.865761,172.941943 C303.452117,162.832568 316.65573,158.71102 328.645903,162.709521 C340.636077,166.708022 348.723135,177.929586 348.723135,190.5689 L348.716814,190.606827 Z" id="Path" fill="#000000" fill-rule="nonzero" opacity="0.1"></path>
            <path d="M298.286979,193.394437 C296.713021,193.963338 295,195.259166 295.309735,196.902655 C295.485362,197.506832 295.760986,198.077309 296.125158,198.590392 C297.970923,201.883692 296.409608,206.611884 292.964602,208.141593 C292.424655,208.422866 291.807749,208.520505 291.207332,208.419722 C290.731218,208.271863 290.297628,208.011708 289.94311,207.661188 C288.090294,206.005198 286.812838,203.802305 286.295828,201.371681 C285.752212,198.843236 286.087231,196.163085 285.809102,193.565107 C285.530973,190.96713 284.639697,188.40708 284.329962,185.790139 C284.1107,184.496684 284.248384,183.167921 284.728192,181.946903 C285.145104,181.141259 285.68223,180.403776 286.321113,179.759798 C288.097345,177.78129 289.949431,175.758534 290.840708,173.249052 C292.250316,169.254109 291.226296,164.165613 294.310999,161.238938 C295.73957,159.898862 297.737042,159.399494 299.506953,158.552465 C301.173434,157.667718 302.769004,156.65543 304.279393,155.524652 C310,151.59292 316.953224,148.571429 323.754741,149.962073 C326.472204,150.620018 329.074386,151.685613 331.472819,153.12263 C335.927779,155.578429 340.158149,158.421237 344.115044,161.618205 C345.826119,162.883827 347.320468,164.418737 348.539823,166.163085 C349.448214,167.656582 350.101885,169.290761 350.474083,170.998736 C351.382377,174.725163 351.507219,178.599567 350.840708,182.376738 C350.208597,186.08091 348.773704,189.677623 348.716814,193.438685 C348.716814,194.702908 348.817952,196.068268 348.166877,197.155499 C347.123894,198.887484 344.538559,199.051833 342.768647,198.091024 C340.998736,197.130215 339.841972,195.347661 338.697851,193.666245 C337.553729,191.984829 336.238938,190.303413 334.355247,189.589128 C331.972187,188.685209 329.254109,189.589128 327.180784,191.074589 C325.107459,192.560051 323.457649,194.538559 321.491783,196.131479 C319.525917,197.724399 317.067004,199.013906 314.538559,198.621997 C312.926675,198.375474 311.498104,197.471555 310.11378,196.59292 C308.217446,195.391909 306.182048,193.533502 304.108723,192.737042 C302.035398,191.940582 300.259166,193.394437 298.286979,193.394437 Z" id="Path" fill="#794F6A" fill-rule="nonzero"></path>
            <path d="M365.745891,239.108723 C365.745891,239.108723 333.046776,269.361568 339.71555,284.48799 C346.384324,299.614412 375.745891,272.920354 375.745891,272.920354 L386.213654,248.697851 L365.745891,239.108723 Z" id="Path" fill="#F8BDC5" fill-rule="nonzero"></path>
            <g id="Group" opacity="0.1" transform="translate(283.817952, 176.359039)" fill="#000000" fill-rule="nonzero">
                <path d="M9.13400759,29.9873578 C8.596324,30.2685859 7.98142191,30.3662599 7.38305942,30.2654867 C6.90484658,30.1190916 6.47045059,29.856282 6.11883692,29.5006321 C4.26587,27.8463615 2.98645088,25.6461148 2.46523388,23.2174463 C1.92793932,20.6573957 2.26295828,18.0025284 1.98482933,15.4045512 C1.70670038,12.806574 0.809102402,10.2528445 0.505689001,7.62958281 C0.505689001,7.50316056 0.505689001,7.37041719 0.474083439,7.23767383 C0.405590105,7.9614905 0.416187864,8.6906163 0.505689001,9.41213654 C0.809102402,12.0290771 1.70670038,14.5575221 1.98482933,17.1871049 C2.26295828,19.8166877 1.92793932,22.4399494 2.46523388,24.9936789 C2.98479136,27.4247833 4.2643779,29.6275318 6.11883692,31.2831858 C6.47242592,31.6349007 6.90632797,31.8952419 7.38305942,32.0417193 C7.98142191,32.1424925 8.596324,32.0448185 9.13400759,31.7635904 C11.852086,30.5562579 13.3881163,27.3767383 13.0278129,24.4690265 C12.7599253,26.8536772 11.2908897,28.9356059 9.13400759,29.9873578 L9.13400759,29.9873578 Z" id="Path"></path>
                <path d="M66.9785082,4.22882427 C66.346397,7.93299621 64.9115044,11.5297092 64.8609355,15.2907712 C64.8609355,16.5549937 64.9620733,17.920354 64.3046776,19.0075853 C63.2680152,20.7395702 60.6826802,20.9039191 58.9127686,19.94311 C57.1428571,18.9823009 55.9860936,17.2060683 54.8356511,15.5183312 C53.6852086,13.8305942 52.3830594,12.1554994 50.4930468,11.4412137 C48.1163085,10.5436157 45.3982301,11.4412137 43.3249052,12.9329962 C41.2515803,14.4247788 39.5954488,16.3906448 37.6359039,17.9898862 C35.676359,19.5891277 33.1795196,20.8723135 30.6826802,20.4867257 C29.0707965,20.2338812 27.642225,19.3299621 26.2579014,18.4513274 C24.3615676,17.2503161 22.3261694,15.3982301 20.2528445,14.5954488 C18.1795196,13.7926675 16.460177,15.2275601 14.4816688,15.2275601 C12.9077118,15.8027813 11.1946903,17.0922882 11.4981037,18.7420986 C11.5367745,18.9203513 11.5939755,19.0940727 11.6687737,19.2604298 C12.2880485,18.1815588 13.2931733,17.377459 14.4816688,17.0101138 C16.4538559,17.0101138 18.1984829,15.5941846 20.2528445,16.3780025 C22.3072061,17.1618205 24.380531,19.0328698 26.2579014,20.2338812 C27.6295828,21.1125158 29.0581542,22.0164349 30.6826802,22.2629583 C33.2111252,22.6548673 35.6890013,21.3843236 37.6359039,19.7724399 C39.5828066,18.1605563 41.2579014,16.1694058 43.3249052,14.7155499 C45.391909,13.2616941 48.1163085,12.3261694 50.4930468,13.2300885 C52.3893805,13.9443742 53.6915297,15.6447535 54.8356511,17.3072061 C55.9797724,18.9696587 57.1428571,20.7332491 58.9127686,21.7319848 C60.6826802,22.7307206 63.2680152,22.528445 64.3046776,20.7964602 C64.9367889,19.7092288 64.8419722,18.3501896 64.8609355,17.079646 C64.9115044,13.3185841 66.3274336,9.72187105 66.9785082,6.01769912 C67.3120408,4.11520321 67.4476146,2.18327639 67.3830594,0.252844501 C67.3428837,1.58610203 67.2076904,2.91479793 66.9785082,4.22882427 Z" id="Path"></path>
            </g>
            <path d="M326.59292,85.1580278 C326.59292,85.1580278 314.582807,106.959545 331.017699,118.084703 C347.452592,129.209861 349.039191,128.097345 349.039191,128.097345 C349.039191,128.097345 348.811631,130.764855 349.039191,131.434893 C349.266751,132.10493 353.46397,133.653603 353.46397,133.653603 C353.46397,133.653603 358.57775,141.871049 365.916561,145.448799 C373.255373,149.026549 374.595449,157.458913 374.595449,157.458913 C374.595449,157.458913 374.595449,160.353982 378.388116,163.021492 C382.180784,165.689001 385.101138,173.476612 385.101138,173.476612 L385.101138,180.600506 C385.101138,181.713021 386.434893,185.025284 383.546144,185.379267 C380.657396,185.733249 383.097345,192.389381 383.097345,192.389381 C383.097345,192.389381 379.987358,196.182048 380.651075,197.95196 C381.314791,199.721871 379.31732,203.286979 379.31732,203.286979 C379.31732,203.286979 376.871049,206.845765 377.092288,207.515803 C377.313527,208.185841 374.424779,210.632111 375.088496,212.187105 C375.752212,213.742099 371.757269,215.745891 372.420986,217.528445 C373.084703,219.310999 369.576485,220.195954 369.576485,220.195954 L359.962073,242.446271 C359.962073,242.446271 380.189633,246.871049 385.410872,258.015171 L410.91024,211.295828 C410.91024,211.295828 425.145386,176.371681 425.594185,174.14665 C426.042984,171.921618 422.477876,163.912769 422.477876,163.912769 L405.126422,132.307206 L379.096081,95.6005057 C379.096081,95.6005057 358.40708,51.5676359 326.59292,85.1580278 Z" id="Path" fill="#000000" fill-rule="nonzero" opacity="0.1"></path>
            <path d="M352.275601,94.3552465 C352.275601,94.3552465 321.02402,105.322377 337.484197,116.447535 C353.944374,127.572693 355.505689,126.453856 355.505689,126.453856 C355.505689,126.453856 355.28445,129.127686 355.505689,129.791403 C355.726928,130.45512 359.930468,132.016435 359.930468,132.016435 C359.930468,132.016435 365.050569,140.233881 372.389381,143.811631 C379.728192,147.389381 381.068268,155.821745 381.068268,155.821745 C381.068268,155.821745 381.068268,158.716814 384.860936,161.384324 C388.653603,164.051833 391.53603,171.839444 391.53603,171.839444 L391.53603,178.957016 C391.53603,180.069532 392.869785,183.381795 389.974716,183.742099 C387.079646,184.102402 389.532238,190.752212 389.532238,190.752212 C389.532238,190.752212 386.415929,194.54488 387.085967,196.30847 C387.756005,198.072061 385.752212,201.64981 385.752212,201.64981 C385.752212,201.64981 383.305942,205.208597 383.527181,205.878635 C383.74842,206.548673 380.85335,208.994943 381.523388,210.549937 C382.193426,212.10493 378.185841,214.108723 378.855879,215.891277 C379.525917,217.673831 376.005057,218.558786 376.005057,218.558786 L366.396966,240.802781 C366.396966,240.802781 383.059418,241.662453 388.318584,252.812895 L417.338812,209.683944 C417.338812,209.683944 431.580278,174.759798 432.022756,172.534766 C432.465234,170.309735 428.91909,162.275601 428.91909,162.275601 L411.567636,130.670038 L371.984829,107.83818 C371.984829,107.83818 384.08976,60.7585335 352.275601,94.3552465 Z" id="Path" fill="#000000" fill-rule="nonzero" opacity="0.1"></path>
            <path d="M328.375474,85.1580278 C328.375474,85.1580278 316.36536,106.959545 332.800253,118.084703 C349.235145,129.209861 350.821745,128.097345 350.821745,128.097345 C350.821745,128.097345 350.600506,130.764855 350.821745,131.434893 C351.042984,132.10493 355.246523,133.653603 355.246523,133.653603 C355.246523,133.653603 360.366625,141.871049 367.705436,145.448799 C375.044248,149.026549 376.384324,157.458913 376.384324,157.458913 C376.384324,157.458913 376.384324,160.353982 380.176991,163.021492 C383.969659,165.689001 386.883692,173.476612 386.883692,173.476612 L386.883692,180.600506 C386.883692,181.713021 388.217446,185.025284 385.322377,185.379267 C382.427307,185.733249 384.879899,192.389381 384.879899,192.389381 C384.879899,192.389381 381.76359,196.182048 382.433628,197.95196 C383.103666,199.721871 381.099874,203.286979 381.099874,203.286979 C381.099874,203.286979 378.653603,206.845765 378.874842,207.515803 C379.096081,208.185841 376.201011,210.632111 376.871049,212.187105 C377.541087,213.742099 373.533502,215.745891 374.20354,217.528445 C374.873578,219.310999 371.352718,220.195954 371.352718,220.195954 L361.744627,242.446271 C361.744627,242.446271 381.93426,246.871049 387.187105,258.015171 L412.686473,211.295828 C412.686473,211.295828 426.927939,176.371681 427.370417,174.14665 C427.812895,171.921618 424.254109,163.912769 424.254109,163.912769 L406.902655,132.307206 L380.878635,95.6131479 C380.878635,95.6131479 360.183312,51.5676359 328.375474,85.1580278 Z" id="Path" fill="#2185D0" fill-rule="nonzero"></path>
            <g id="Group" opacity="0.1" transform="translate(192.161820, 79.646018)" fill="#000000" fill-rule="nonzero">
                <path d="M4.81668774,16.460177 C4.58287878,13.697405 3.98783692,10.9772137 3.04677623,8.36915297 C2.13021492,5.84070796 0.87863464,3.35018963 0.581542351,0.663716814 C0.581542351,0.581542351 0.581542351,0.505689001 0.581542351,0.423514539 C0.515197907,1.09613451 0.515197907,1.77365057 0.581542351,2.44627054 C0.87863464,5.13274336 2.13021492,7.60429836 3.04677623,10.1517067 C3.98785926,12.7575832 4.58290982,15.4756891 4.81668774,18.2364096 C4.90518331,19.2730721 4.94310999,20.3223767 4.95575221,21.3969659 C4.97471555,19.721871 4.95575221,18.0847029 4.81668774,16.460177 Z" id="Path"></path>
                <path d="M26.573957,44.159292 C25.2149178,47.1428571 21.0872314,47.6169406 17.9266751,46.7383059 C12.4534882,45.1697212 8.06599584,41.0690852 6.13147914,35.7142857 C5.25285279,32.997815 4.82577521,30.1556137 4.86725664,27.300885 C4.82932996,30.783818 4.96207332,34.2225032 6.13147914,37.4905183 C8.06520373,42.8471562 12.4526051,46.9500583 17.9266751,48.5208597 C21.0872314,49.3931732 25.2149178,48.9254109 26.573957,45.9355247 C27.1491783,44.6713021 27.0922882,43.204804 27.0670038,41.7635904 C27.0553253,42.586118 26.8880306,43.3989988 26.573957,44.159292 Z" id="Path"></path>
                <path d="M87.9898862,2.60429836 C87.7180784,4.62705436 86.9152971,6.90265487 84.9873578,7.57901391 C83.8637734,7.89291278 82.6638073,7.7803456 81.6182048,7.26295828 C78.4576485,5.88495575 75.6447535,2.56005057 72.2692794,3.36283186 C69.5132743,3.99494311 68.1921618,7.11125158 67.4652339,9.85461441 C66.9380033,11.588051 66.7092921,13.3985025 66.7888748,15.2085967 C66.9096134,13.9985788 67.1359283,12.8014362 67.4652339,11.630847 C68.1921618,8.89380531 69.5132743,5.79646018 72.2692794,5.13906448 C75.6447535,4.3426043 78.4323641,7.66750948 81.6182048,9.0391909 C82.6623318,9.56104264 83.863216,9.67594901 84.9873578,9.36156764 C86.9152971,8.6852086 87.7180784,6.40960809 87.9898862,4.38053097 C88.163647,3.08822462 88.2270871,1.78347241 88.1795196,0.480404551 C88.147914,1.18836915 88.0847029,1.90265487 87.9898862,2.60429836 Z" id="Path"></path>
                <path d="M70.5752212,28.3565107 C68.6788875,29.7281922 66.1061947,28.2680152 64.0265487,27.1744627 C61.8015171,26.0050569 58.9696587,25.278129 56.852086,26.6245259 C56.125158,27.079646 55.5372946,27.7370417 54.82933,28.2237674 C53.3724799,29.1248539 51.6444046,29.4830042 49.9494311,29.2351454 C45.9228824,28.8242731 44.4184576,26.2768647 41.3527181,24.3046776 C39.102402,22.8571429 34.3994943,22.2376738 33.0594185,25.2085967 C32.7379749,26.0832223 32.6486838,27.0262241 32.8002528,27.9456384 C32.8417934,27.6169637 32.9290241,27.2956993 33.0594185,26.9911504 C34.4058154,24.0139064 39.102402,24.6333755 41.3527181,26.0872314 C44.4184576,28.0594185 45.9228824,30.6068268 49.9494311,31.0176991 C51.645051,31.2603936 53.3720652,30.9002261 54.82933,30 C55.5372946,29.5195954 56.125158,28.8621997 56.852086,28.4070796 C58.988622,27.079646 61.8015171,27.7749684 64.0265487,28.9570164 C66.1061947,30.0442478 68.6662453,31.4854614 70.5752212,30.1327434 C71.687737,29.3362832 71.9532238,27.920354 71.7067004,26.5233881 C71.5769236,27.2562912 71.1722021,27.9119853 70.5752212,28.3565107 Z" id="Path"></path>
                <path d="M32.6359039,31.4285714 C31.7699115,33.4134008 29.1087231,33.9570164 27.8824273,35.7458913 C26.965866,37.0733249 27.0417193,38.7294564 27.0733249,40.391909 C27.0617528,39.3794347 27.3427003,38.3851439 27.8824273,37.528445 C29.1087231,35.7395702 31.7699115,35.1896334 32.6359039,33.204804 C32.9387904,32.3411766 33.0213525,31.4156119 32.8761062,30.5120101 C32.837176,30.826857 32.7563953,31.1350991 32.6359039,31.4285714 Z" id="Path"></path>
            </g>
        </g>
    </g>
</svg>