<svg width="1138" height="889" viewBox="0 0 1138 889" fill="none" xmlns="http://www.w3.org/2000/svg">
<path d="M797 779V223.891C797 216.772 800.949 211 805.82 211H845.18C850.051 211 854 216.772 854 223.891V779L797 779Z" fill="#00B0FF"/>
<path d="M642.074 41L657.674 12.15H640.924V5.75H666.274V11.55L650.624 41H642.074ZM673.555 41V34.65H681.455V14.4L675.405 17.95L672.455 12.3L683.705 5.75H689.205V34.65H696.605V41H673.555ZM712.685 41.55C710.218 41.55 707.868 41.2 705.635 40.5C703.402 39.8 701.568 38.85 700.135 37.65L702.585 31.8C705.552 34 708.818 35.1 712.385 35.1C716.452 35.1 718.485 33.5833 718.485 30.55C718.485 27.75 716.585 26.35 712.785 26.35H706.885V20.1H712.035C713.702 20.1 715.018 19.7167 715.985 18.95C716.952 18.1833 717.435 17.1167 717.435 15.75C717.435 13.0167 715.652 11.65 712.085 11.65C708.752 11.65 705.785 12.7667 703.185 15L700.735 9.3C702.202 8 704.002 7 706.135 6.3C708.268 5.56667 710.485 5.2 712.785 5.2C716.585 5.2 719.552 6.05 721.685 7.75C723.818 9.45 724.885 11.7833 724.885 14.75C724.885 16.5833 724.418 18.2 723.485 19.6C722.552 21 721.252 22.0167 719.585 22.65C721.585 23.2167 723.135 24.2667 724.235 25.8C725.368 27.3 725.935 29.1167 725.935 31.25C725.935 34.45 724.752 36.9667 722.385 38.8C720.018 40.6333 716.785 41.55 712.685 41.55ZM731.416 41V5.75H738.966V26.6H739.066L748.116 16.45H757.066L746.666 28.2L757.566 41H748.466L739.066 30.4H738.966V41H731.416ZM768.696 39V29.25H759.196V24.05H768.696V14.6H774.096V24.05H783.596V29.25H774.096V39H768.696ZM815.243 41.55C808.343 41.55 804.893 38.2 804.893 31.5V22.1H800.243V16.45H804.893V9.25H812.443V16.45H819.693V22.1H812.443V31.2C812.443 32.6 812.76 33.65 813.393 34.35C814.06 35.05 815.11 35.4 816.543 35.4C816.976 35.4 817.426 35.35 817.893 35.25C818.393 35.15 818.926 35.0167 819.493 34.85L820.593 40.35C819.893 40.7167 819.06 41 818.093 41.2C817.126 41.4333 816.176 41.55 815.243 41.55ZM834.964 41.55C832.33 41.55 830.03 41.0333 828.064 40C826.13 38.9333 824.63 37.45 823.564 35.55C822.497 33.6167 821.964 31.3333 821.964 28.7C821.964 26.1 822.497 23.85 823.564 21.95C824.63 20.0167 826.13 18.5333 828.064 17.5C830.03 16.4667 832.33 15.95 834.964 15.95C837.597 15.95 839.88 16.4667 841.814 17.5C843.78 18.5333 845.297 20.0167 846.364 21.95C847.464 23.85 848.014 26.1 848.014 28.7C848.014 31.3333 847.464 33.6167 846.364 35.55C845.297 37.45 843.78 38.9333 841.814 40C839.88 41.0333 837.597 41.55 834.964 41.55ZM834.964 35.9C836.564 35.9 837.864 35.3167 838.864 34.15C839.897 32.9833 840.414 31.1667 840.414 28.7C840.414 26.2667 839.897 24.4833 838.864 23.35C837.864 22.1833 836.564 21.6 834.964 21.6C833.364 21.6 832.064 22.1833 831.064 23.35C830.064 24.4833 829.564 26.2667 829.564 28.7C829.564 31.1667 830.064 32.9833 831.064 34.15C832.064 35.3167 833.364 35.9 834.964 35.9ZM864.413 41.55C857.513 41.55 854.063 38.2 854.063 31.5V22.1H849.413V16.45H854.063V9.25H861.613V16.45H868.863V22.1H861.613V31.2C861.613 32.6 861.93 33.65 862.563 34.35C863.23 35.05 864.28 35.4 865.713 35.4C866.146 35.4 866.596 35.35 867.063 35.25C867.563 35.15 868.096 35.0167 868.663 34.85L869.763 40.35C869.063 40.7167 868.23 41 867.263 41.2C866.296 41.4333 865.346 41.55 864.413 41.55ZM880.878 41.55C879.044 41.55 877.428 41.2 876.028 40.5C874.628 39.8 873.511 38.85 872.678 37.65C871.878 36.45 871.478 35.1 871.478 33.6C871.478 31.8333 871.944 30.4167 872.878 29.35C873.811 28.2833 875.328 27.5333 877.428 27.1C879.528 26.6333 882.311 26.4 885.778 26.4H887.578V25.55C887.578 24.0833 887.244 23.05 886.578 22.45C885.911 21.8167 884.778 21.5 883.178 21.5C881.844 21.5 880.428 21.7167 878.928 22.15C877.461 22.55 875.994 23.1667 874.528 24L872.478 18.95C873.344 18.3833 874.394 17.8667 875.628 17.4C876.894 16.9333 878.211 16.5833 879.578 16.35C880.944 16.0833 882.244 15.95 883.478 15.95C887.278 15.95 890.111 16.8167 891.978 18.55C893.844 20.25 894.778 22.9 894.778 26.5V41H887.728V37.3C887.228 38.6 886.378 39.6333 885.178 40.4C884.011 41.1667 882.578 41.55 880.878 41.55ZM882.578 36.5C883.978 36.5 885.161 36.0167 886.128 35.05C887.094 34.0833 887.578 32.8333 887.578 31.3V30.3H885.828C883.261 30.3 881.444 30.5333 880.378 31C879.311 31.4333 878.778 32.2 878.778 33.3C878.778 34.2333 879.094 35 879.728 35.6C880.394 36.2 881.344 36.5 882.578 36.5ZM909.56 41.55C906.393 41.55 904.076 40.7333 902.61 39.1C901.143 37.4333 900.41 34.9667 900.41 31.7V5.75H907.96V31.4C907.96 34.0667 909.143 35.4 911.51 35.4C911.876 35.4 912.226 35.3833 912.56 35.35C912.926 35.3167 913.276 35.25 913.61 35.15L913.51 41C912.243 41.3667 910.926 41.55 909.56 41.55ZM940.126 41.55C936.96 41.55 934.643 40.7333 933.176 39.1C931.71 37.4333 930.976 34.9667 930.976 31.7V5.75H938.526V31.4C938.526 34.0667 939.71 35.4 942.076 35.4C942.443 35.4 942.793 35.3833 943.126 35.35C943.493 35.3167 943.843 35.25 944.176 35.15L944.076 41C942.81 41.3667 941.493 41.55 940.126 41.55ZM960.132 41.55C957.232 41.55 954.732 41.0333 952.632 40C950.566 38.9333 948.966 37.45 947.832 35.55C946.732 33.6167 946.182 31.35 946.182 28.75C946.182 26.2167 946.716 24 947.782 22.1C948.882 20.1667 950.366 18.6667 952.232 17.6C954.132 16.5 956.316 15.95 958.782 15.95C962.349 15.95 965.182 17.0833 967.282 19.35C969.382 21.5833 970.432 24.6167 970.432 28.45V30.35H953.382C953.649 32.2833 954.349 33.7 955.482 34.6C956.649 35.4667 958.249 35.9 960.282 35.9C961.616 35.9 962.966 35.7 964.332 35.3C965.699 34.9 966.932 34.2833 968.032 33.45L970.032 38.5C968.799 39.4333 967.282 40.1833 965.482 40.75C963.716 41.2833 961.932 41.55 960.132 41.55ZM959.082 20.95C957.482 20.95 956.182 21.4333 955.182 22.4C954.216 23.3667 953.616 24.7167 953.382 26.45H964.182C963.982 22.7833 962.282 20.95 959.082 20.95ZM983.124 41.55C981.29 41.55 979.674 41.2 978.274 40.5C976.874 39.8 975.757 38.85 974.924 37.65C974.124 36.45 973.724 35.1 973.724 33.6C973.724 31.8333 974.19 30.4167 975.124 29.35C976.057 28.2833 977.574 27.5333 979.674 27.1C981.774 26.6333 984.557 26.4 988.024 26.4H989.824V25.55C989.824 24.0833 989.49 23.05 988.824 22.45C988.157 21.8167 987.024 21.5 985.424 21.5C984.09 21.5 982.674 21.7167 981.174 22.15C979.707 22.55 978.24 23.1667 976.774 24L974.724 18.95C975.59 18.3833 976.64 17.8667 977.874 17.4C979.14 16.9333 980.457 16.5833 981.824 16.35C983.19 16.0833 984.49 15.95 985.724 15.95C989.524 15.95 992.357 16.8167 994.224 18.55C996.09 20.25 997.024 22.9 997.024 26.5V41H989.974V37.3C989.474 38.6 988.624 39.6333 987.424 40.4C986.257 41.1667 984.824 41.55 983.124 41.55ZM984.824 36.5C986.224 36.5 987.407 36.0167 988.374 35.05C989.34 34.0833 989.824 32.8333 989.824 31.3V30.3H988.074C985.507 30.3 983.69 30.5333 982.624 31C981.557 31.4333 981.024 32.2 981.024 33.3C981.024 34.2333 981.34 35 981.974 35.6C982.64 36.2 983.59 36.5 984.824 36.5ZM1002.66 41V16.45H1010.06V20.7C1011.22 17.8333 1013.72 16.25 1017.56 15.95L1019.76 15.8L1020.21 22.15L1015.96 22.6C1012.22 22.9667 1010.36 24.8667 1010.36 28.3V41H1002.66ZM1023.26 41V16.45H1030.66V20.05C1031.49 18.7167 1032.61 17.7 1034.01 17C1035.41 16.3 1036.98 15.95 1038.71 15.95C1041.61 15.95 1043.78 16.8 1045.21 18.5C1046.64 20.1667 1047.36 22.75 1047.36 26.25V41H1039.81V26.6C1039.81 24.9 1039.49 23.6833 1038.86 22.95C1038.23 22.1833 1037.29 21.8 1036.06 21.8C1034.46 21.8 1033.18 22.3 1032.21 23.3C1031.28 24.3 1030.81 25.6333 1030.81 27.3V41H1023.26ZM1065.75 41.55C1062.85 41.55 1060.35 41.0333 1058.25 40C1056.18 38.9333 1054.58 37.45 1053.45 35.55C1052.35 33.6167 1051.8 31.35 1051.8 28.75C1051.8 26.2167 1052.33 24 1053.4 22.1C1054.5 20.1667 1055.98 18.6667 1057.85 17.6C1059.75 16.5 1061.93 15.95 1064.4 15.95C1067.96 15.95 1070.8 17.0833 1072.9 19.35C1075 21.5833 1076.05 24.6167 1076.05 28.45V30.35H1059C1059.26 32.2833 1059.96 33.7 1061.1 34.6C1062.26 35.4667 1063.86 35.9 1065.9 35.9C1067.23 35.9 1068.58 35.7 1069.95 35.3C1071.31 34.9 1072.55 34.2833 1073.65 33.45L1075.65 38.5C1074.41 39.4333 1072.9 40.1833 1071.1 40.75C1069.33 41.2833 1067.55 41.55 1065.75 41.55ZM1064.7 20.95C1063.1 20.95 1061.8 21.4333 1060.8 22.4C1059.83 23.3667 1059.23 24.7167 1059 26.45H1069.8C1069.6 22.7833 1067.9 20.95 1064.7 20.95ZM1080.44 41V16.45H1087.84V20.7C1089.01 17.8333 1091.51 16.25 1095.34 15.95L1097.54 15.8L1097.99 22.15L1093.74 22.6C1090.01 22.9667 1088.14 24.8667 1088.14 28.3V41H1080.44ZM1110.2 41.55C1108.03 41.55 1106.02 41.3 1104.15 40.8C1102.28 40.3 1100.73 39.6167 1099.5 38.75L1101.3 33.85C1102.53 34.6167 1103.93 35.2333 1105.5 35.7C1107.1 36.1333 1108.68 36.35 1110.25 36.35C1111.65 36.35 1112.68 36.1333 1113.35 35.7C1114.02 35.2333 1114.35 34.6333 1114.35 33.9C1114.35 32.7333 1113.5 32 1111.8 31.7L1106.55 30.75C1104.45 30.3833 1102.85 29.6333 1101.75 28.5C1100.65 27.3667 1100.1 25.8833 1100.1 24.05C1100.1 22.3833 1100.57 20.95 1101.5 19.75C1102.43 18.55 1103.72 17.6167 1105.35 16.95C1106.98 16.2833 1108.87 15.95 1111 15.95C1112.77 15.95 1114.48 16.1833 1116.15 16.65C1117.82 17.0833 1119.25 17.7833 1120.45 18.75L1118.55 23.6C1117.55 22.8667 1116.35 22.2667 1114.95 21.8C1113.58 21.3333 1112.3 21.1 1111.1 21.1C1109.6 21.1 1108.52 21.35 1107.85 21.85C1107.18 22.3167 1106.85 22.9167 1106.85 23.65C1106.85 24.8167 1107.63 25.55 1109.2 25.85L1114.45 26.8C1116.62 27.1667 1118.27 27.9 1119.4 29C1120.53 30.0667 1121.1 31.5333 1121.1 33.4C1121.1 35.9667 1120.1 37.9667 1118.1 39.4C1116.1 40.8333 1113.47 41.55 1110.2 41.55Z" fill="#0093EC"/>
<path d="M754.903 91.55C752.736 91.55 750.719 91.3 748.853 90.8C746.986 90.3 745.436 89.6167 744.203 88.75L746.003 83.85C747.236 84.6167 748.636 85.2333 750.203 85.7C751.803 86.1333 753.386 86.35 754.953 86.35C756.353 86.35 757.386 86.1333 758.053 85.7C758.719 85.2333 759.053 84.6333 759.053 83.9C759.053 82.7333 758.203 82 756.503 81.7L751.253 80.75C749.153 80.3833 747.553 79.6333 746.453 78.5C745.353 77.3667 744.803 75.8833 744.803 74.05C744.803 72.3833 745.269 70.95 746.203 69.75C747.136 68.55 748.419 67.6167 750.053 66.95C751.686 66.2833 753.569 65.95 755.703 65.95C757.469 65.95 759.186 66.1833 760.853 66.65C762.519 67.0833 763.953 67.7833 765.153 68.75L763.253 73.6C762.253 72.8667 761.053 72.2667 759.653 71.8C758.286 71.3333 757.003 71.1 755.803 71.1C754.303 71.1 753.219 71.35 752.553 71.85C751.886 72.3167 751.553 72.9167 751.553 73.65C751.553 74.8167 752.336 75.55 753.903 75.85L759.153 76.8C761.319 77.1667 762.969 77.9 764.103 79C765.236 80.0667 765.803 81.5333 765.803 83.4C765.803 85.9667 764.803 87.9667 762.803 89.4C760.803 90.8333 758.169 91.55 754.903 91.55ZM769.812 61.7V54.65H777.962V61.7H769.812ZM770.112 91V66.45H777.662V91H770.112ZM783.491 91V66.45H790.891V70.05C791.724 68.7167 792.841 67.7 794.241 67C795.641 66.3 797.207 65.95 798.941 65.95C801.841 65.95 804.007 66.8 805.441 68.5C806.874 70.1667 807.591 72.75 807.591 76.25V91H800.041V76.6C800.041 74.9 799.724 73.6833 799.091 72.95C798.457 72.1833 797.524 71.8 796.291 71.8C794.691 71.8 793.407 72.3 792.441 73.3C791.507 74.3 791.041 75.6333 791.041 77.3V91H783.491ZM825.177 91.55C822.51 91.55 820.177 91.0333 818.177 90C816.21 88.9333 814.694 87.4333 813.627 85.5C812.56 83.5667 812.027 81.2833 812.027 78.65C812.027 76.0167 812.56 73.75 813.627 71.85C814.694 69.95 816.21 68.5 818.177 67.5C820.177 66.4667 822.51 65.95 825.177 65.95C826.744 65.95 828.327 66.1833 829.927 66.65C831.527 67.1167 832.827 67.7833 833.827 68.65L831.727 73.85C830.894 73.1833 829.96 72.6667 828.927 72.3C827.894 71.9 826.894 71.7 825.927 71.7C823.96 71.7 822.427 72.3167 821.327 73.55C820.26 74.75 819.727 76.4667 819.727 78.7C819.727 80.9 820.26 82.6333 821.327 83.9C822.427 85.1333 823.96 85.75 825.927 85.75C826.86 85.75 827.844 85.5667 828.877 85.2C829.944 84.8333 830.894 84.3 831.727 83.6L833.827 88.8C832.827 89.6667 831.527 90.35 829.927 90.85C828.327 91.3167 826.744 91.55 825.177 91.55ZM849.366 91.55C846.466 91.55 843.966 91.0333 841.866 90C839.799 88.9333 838.199 87.45 837.066 85.55C835.966 83.6167 835.416 81.35 835.416 78.75C835.416 76.2167 835.949 74 837.016 72.1C838.116 70.1667 839.599 68.6667 841.466 67.6C843.366 66.5 845.549 65.95 848.016 65.95C851.582 65.95 854.416 67.0833 856.516 69.35C858.616 71.5833 859.666 74.6167 859.666 78.45V80.35H842.616C842.882 82.2833 843.582 83.7 844.716 84.6C845.882 85.4667 847.482 85.9 849.516 85.9C850.849 85.9 852.199 85.7 853.566 85.3C854.932 84.9 856.166 84.2833 857.266 83.45L859.266 88.5C858.032 89.4333 856.516 90.1833 854.716 90.75C852.949 91.2833 851.166 91.55 849.366 91.55ZM848.316 70.95C846.716 70.95 845.416 71.4333 844.416 72.4C843.449 73.3667 842.849 74.7167 842.616 76.45H853.416C853.216 72.7833 851.516 70.95 848.316 70.95ZM887.123 91.55C883.957 91.55 881.64 90.7333 880.173 89.1C878.707 87.4333 877.973 84.9667 877.973 81.7V55.75H885.523V81.4C885.523 84.0667 886.707 85.4 889.073 85.4C889.44 85.4 889.79 85.3833 890.123 85.35C890.49 85.3167 890.84 85.25 891.173 85.15L891.073 91C889.807 91.3667 888.49 91.55 887.123 91.55ZM902.924 91.55C901.09 91.55 899.474 91.2 898.074 90.5C896.674 89.8 895.557 88.85 894.724 87.65C893.924 86.45 893.524 85.1 893.524 83.6C893.524 81.8333 893.99 80.4167 894.924 79.35C895.857 78.2833 897.374 77.5333 899.474 77.1C901.574 76.6333 904.357 76.4 907.824 76.4H909.624V75.55C909.624 74.0833 909.29 73.05 908.624 72.45C907.957 71.8167 906.824 71.5 905.224 71.5C903.89 71.5 902.474 71.7167 900.974 72.15C899.507 72.55 898.04 73.1667 896.574 74L894.524 68.95C895.39 68.3833 896.44 67.8667 897.674 67.4C898.94 66.9333 900.257 66.5833 901.624 66.35C902.99 66.0833 904.29 65.95 905.524 65.95C909.324 65.95 912.157 66.8167 914.024 68.55C915.89 70.25 916.824 72.9 916.824 76.5V91H909.774V87.3C909.274 88.6 908.424 89.6333 907.224 90.4C906.057 91.1667 904.624 91.55 902.924 91.55ZM904.624 86.5C906.024 86.5 907.207 86.0167 908.174 85.05C909.14 84.0833 909.624 82.8333 909.624 81.3V80.3H907.874C905.307 80.3 903.49 80.5333 902.424 81C901.357 81.4333 900.824 82.2 900.824 83.3C900.824 84.2333 901.14 85 901.774 85.6C902.44 86.2 903.39 86.5 904.624 86.5ZM931.506 91.55C928.372 91.55 926.056 90.6833 924.556 88.95C923.089 87.2167 922.356 84.6167 922.356 81.15V66.45H929.906V81.35C929.906 84.25 931.156 85.7 933.656 85.7C935.089 85.7 936.256 85.2 937.156 84.2C938.089 83.1667 938.556 81.8167 938.556 80.15V66.45H946.106V91H938.756V87.65C937.122 90.25 934.706 91.55 931.506 91.55ZM951.948 91V66.45H959.348V70.05C960.181 68.7167 961.298 67.7 962.698 67C964.098 66.3 965.665 65.95 967.398 65.95C970.298 65.95 972.465 66.8 973.898 68.5C975.331 70.1667 976.048 72.75 976.048 76.25V91H968.498V76.6C968.498 74.9 968.181 73.6833 967.548 72.95C966.915 72.1833 965.981 71.8 964.748 71.8C963.148 71.8 961.865 72.3 960.898 73.3C959.965 74.3 959.498 75.6333 959.498 77.3V91H951.948ZM993.634 91.55C990.968 91.55 988.634 91.0333 986.634 90C984.668 88.9333 983.151 87.4333 982.084 85.5C981.018 83.5667 980.484 81.2833 980.484 78.65C980.484 76.0167 981.018 73.75 982.084 71.85C983.151 69.95 984.668 68.5 986.634 67.5C988.634 66.4667 990.968 65.95 993.634 65.95C995.201 65.95 996.784 66.1833 998.384 66.65C999.984 67.1167 1001.28 67.7833 1002.28 68.65L1000.18 73.85C999.351 73.1833 998.418 72.6667 997.384 72.3C996.351 71.9 995.351 71.7 994.384 71.7C992.418 71.7 990.884 72.3167 989.784 73.55C988.718 74.75 988.184 76.4667 988.184 78.7C988.184 80.9 988.718 82.6333 989.784 83.9C990.884 85.1333 992.418 85.75 994.384 85.75C995.318 85.75 996.301 85.5667 997.334 85.2C998.401 84.8333 999.351 84.3 1000.18 83.6L1002.28 88.8C1001.28 89.6667 999.984 90.35 998.384 90.85C996.784 91.3167 995.201 91.55 993.634 91.55ZM1005.56 91V55.75H1013.11V69.8C1013.98 68.5333 1015.09 67.5833 1016.46 66.95C1017.83 66.2833 1019.34 65.95 1021.01 65.95C1026.78 65.95 1029.66 69.3833 1029.66 76.25V91H1022.11V76.6C1022.11 74.9 1021.79 73.6833 1021.16 72.95C1020.53 72.1833 1019.59 71.8 1018.36 71.8C1016.76 71.8 1015.48 72.3 1014.51 73.3C1013.58 74.3 1013.11 75.6333 1013.11 77.3V91H1005.56Z" fill="#3F3D56"/>
<path d="M792.243 817V813.55L798.873 806.59C799.713 805.67 800.313 804.87 800.673 804.19C801.053 803.49 801.243 802.79 801.243 802.09C801.243 800.29 800.133 799.39 797.913 799.39C797.053 799.39 796.193 799.56 795.333 799.9C794.473 800.22 793.633 800.72 792.813 801.4L791.313 797.98C792.193 797.22 793.273 796.62 794.553 796.18C795.853 795.74 797.183 795.52 798.543 795.52C800.903 795.52 802.703 796.05 803.943 797.11C805.203 798.15 805.833 799.64 805.833 801.58C805.833 802.86 805.533 804.09 804.933 805.27C804.353 806.43 803.393 807.69 802.053 809.05L797.973 813.19H806.613V817H792.243ZM817.012 817.33C814.452 817.33 812.492 816.38 811.132 814.48C809.792 812.58 809.122 809.87 809.122 806.35C809.122 802.83 809.792 800.15 811.132 798.31C812.492 796.45 814.452 795.52 817.012 795.52C819.572 795.52 821.522 796.45 822.862 798.31C824.222 800.15 824.902 802.83 824.902 806.35C824.902 809.87 824.222 812.58 822.862 814.48C821.522 816.38 819.572 817.33 817.012 817.33ZM817.012 813.55C818.172 813.55 819.032 812.98 819.592 811.84C820.152 810.68 820.432 808.85 820.432 806.35C820.432 803.85 820.152 802.05 819.592 800.95C819.032 799.85 818.172 799.3 817.012 799.3C815.852 799.3 814.992 799.85 814.432 800.95C813.872 802.05 813.592 803.85 813.592 806.35C813.592 808.85 813.872 810.68 814.432 811.84C814.992 812.98 815.852 813.55 817.012 813.55ZM828.22 817V813.55L834.85 806.59C835.69 805.67 836.29 804.87 836.65 804.19C837.03 803.49 837.22 802.79 837.22 802.09C837.22 800.29 836.11 799.39 833.89 799.39C833.03 799.39 832.17 799.56 831.31 799.9C830.45 800.22 829.61 800.72 828.79 801.4L827.29 797.98C828.17 797.22 829.25 796.62 830.53 796.18C831.83 795.74 833.16 795.52 834.52 795.52C836.88 795.52 838.68 796.05 839.92 797.11C841.18 798.15 841.81 799.64 841.81 801.58C841.81 802.86 841.51 804.09 840.91 805.27C840.33 806.43 839.37 807.69 838.03 809.05L833.95 813.19H842.59V817H828.22ZM852.478 817.33C850.998 817.33 849.588 817.12 848.248 816.7C846.908 816.28 845.808 815.71 844.948 814.99L846.418 811.48C848.198 812.8 850.158 813.46 852.298 813.46C854.738 813.46 855.958 812.55 855.958 810.73C855.958 809.05 854.818 808.21 852.538 808.21H848.998V804.46H852.088C853.088 804.46 853.878 804.23 854.458 803.77C855.038 803.31 855.328 802.67 855.328 801.85C855.328 800.21 854.258 799.39 852.118 799.39C850.118 799.39 848.338 800.06 846.778 801.4L845.308 797.98C846.188 797.2 847.268 796.6 848.548 796.18C849.828 795.74 851.158 795.52 852.538 795.52C854.818 795.52 856.598 796.03 857.878 797.05C859.158 798.07 859.798 799.47 859.798 801.25C859.798 802.35 859.518 803.32 858.958 804.16C858.398 805 857.618 805.61 856.618 805.99C857.818 806.33 858.748 806.96 859.408 807.88C860.088 808.78 860.428 809.87 860.428 811.15C860.428 813.07 859.718 814.58 858.298 815.68C856.878 816.78 854.938 817.33 852.478 817.33Z" fill="#0093EC"/>
<path d="M3.17852 817L12.8985 795.85H16.6485L26.3685 817H21.6885L19.7085 812.41H9.83852L7.88852 817H3.17852ZM14.7285 800.8L11.3985 808.78H18.1785L14.7885 800.8H14.7285ZM33.2364 817.33C31.3564 817.33 29.9664 816.81 29.0664 815.77C28.1864 814.73 27.7464 813.17 27.7464 811.09V802.27H32.2764V811.21C32.2764 812.95 33.0264 813.82 34.5264 813.82C35.3864 813.82 36.0864 813.52 36.6264 812.92C37.1864 812.3 37.4664 811.49 37.4664 810.49V802.27H41.9964V817H37.5864V814.99C36.6064 816.55 35.1564 817.33 33.2364 817.33ZM52.5817 822.73C51.1617 822.73 49.8317 822.58 48.5917 822.28C47.3717 821.98 46.3017 821.51 45.3817 820.87L46.6117 817.78C47.4117 818.28 48.3117 818.66 49.3117 818.92C50.3317 819.2 51.2917 819.34 52.1917 819.34C54.7517 819.34 56.0317 818.16 56.0317 815.8V814.12C55.6317 814.88 55.0017 815.49 54.1417 815.95C53.2817 816.41 52.3417 816.64 51.3217 816.64C50.0017 816.64 48.8517 816.34 47.8717 815.74C46.8917 815.12 46.1317 814.26 45.5917 813.16C45.0517 812.06 44.7817 810.77 44.7817 809.29C44.7817 807.83 45.0517 806.55 45.5917 805.45C46.1317 804.35 46.8917 803.5 47.8717 802.9C48.8517 802.28 50.0017 801.97 51.3217 801.97C52.3817 801.97 53.3317 802.2 54.1717 802.66C55.0117 803.12 55.6317 803.73 56.0317 804.49V802.27H60.4417V815.29C60.4417 817.77 59.7717 819.63 58.4317 820.87C57.0917 822.11 55.1417 822.73 52.5817 822.73ZM52.6717 813.25C53.6717 813.25 54.4717 812.9 55.0717 812.2C55.6917 811.5 56.0017 810.53 56.0017 809.29C56.0017 808.05 55.6917 807.09 55.0717 806.41C54.4717 805.71 53.6717 805.36 52.6717 805.36C51.6517 805.36 50.8417 805.71 50.2417 806.41C49.6417 807.09 49.3417 808.05 49.3417 809.29C49.3417 810.53 49.6417 811.5 50.2417 812.2C50.8417 812.9 51.6517 813.25 52.6717 813.25ZM72.7884 817V813.55L79.4184 806.59C80.2584 805.67 80.8584 804.87 81.2184 804.19C81.5984 803.49 81.7884 802.79 81.7884 802.09C81.7884 800.29 80.6784 799.39 78.4584 799.39C77.5984 799.39 76.7384 799.56 75.8784 799.9C75.0184 800.22 74.1784 800.72 73.3584 801.4L71.8584 797.98C72.7384 797.22 73.8184 796.62 75.0984 796.18C76.3984 795.74 77.7284 795.52 79.0884 795.52C81.4484 795.52 83.2484 796.05 84.4884 797.11C85.7484 798.15 86.3784 799.64 86.3784 801.58C86.3784 802.86 86.0784 804.09 85.4784 805.27C84.8984 806.43 83.9384 807.69 82.5984 809.05L78.5184 813.19H87.1584V817H72.7884ZM97.5566 817.33C94.9966 817.33 93.0366 816.38 91.6766 814.48C90.3366 812.58 89.6666 809.87 89.6666 806.35C89.6666 802.83 90.3366 800.15 91.6766 798.31C93.0366 796.45 94.9966 795.52 97.5566 795.52C100.117 795.52 102.067 796.45 103.407 798.31C104.767 800.15 105.447 802.83 105.447 806.35C105.447 809.87 104.767 812.58 103.407 814.48C102.067 816.38 100.117 817.33 97.5566 817.33ZM97.5566 813.55C98.7166 813.55 99.5766 812.98 100.137 811.84C100.697 810.68 100.977 808.85 100.977 806.35C100.977 803.85 100.697 802.05 100.137 800.95C99.5766 799.85 98.7166 799.3 97.5566 799.3C96.3966 799.3 95.5366 799.85 94.9766 800.95C94.4166 802.05 94.1366 803.85 94.1366 806.35C94.1366 808.85 94.4166 810.68 94.9766 811.84C95.5366 812.98 96.3966 813.55 97.5566 813.55ZM109.545 817V813.19H114.285V801.04L110.655 803.17L108.885 799.78L115.635 795.85H118.935V813.19H123.375V817H109.545ZM131.793 817.33C130.653 817.33 129.523 817.13 128.403 816.73C127.303 816.33 126.333 815.76 125.493 815.02L126.993 811.57C127.713 812.19 128.483 812.66 129.303 812.98C130.143 813.3 130.993 813.46 131.853 813.46C135.153 813.46 136.803 811.31 136.803 807.01V806.44C136.383 807.42 135.733 808.19 134.853 808.75C133.973 809.31 132.953 809.59 131.793 809.59C130.613 809.59 129.553 809.3 128.613 808.72C127.673 808.12 126.933 807.31 126.393 806.29C125.853 805.25 125.583 804.07 125.583 802.75C125.583 801.35 125.883 800.11 126.483 799.03C127.103 797.93 127.943 797.07 129.003 796.45C130.083 795.83 131.323 795.52 132.723 795.52C135.443 795.52 137.533 796.45 138.993 798.31C140.453 800.15 141.183 802.76 141.183 806.14C141.183 808.5 140.803 810.51 140.043 812.17C139.303 813.83 138.233 815.11 136.833 816.01C135.433 816.89 133.753 817.33 131.793 817.33ZM132.993 805.96C133.913 805.96 134.663 805.65 135.243 805.03C135.823 804.39 136.113 803.57 136.113 802.57C136.113 801.55 135.823 800.72 135.243 800.08C134.663 799.44 133.913 799.12 132.993 799.12C132.073 799.12 131.323 799.44 130.743 800.08C130.163 800.72 129.873 801.55 129.873 802.57C129.873 803.57 130.163 804.39 130.743 805.03C131.323 805.65 132.073 805.96 132.993 805.96Z" fill="#0093EC"/>
<path d="M205.44 817.3L205.11 813.52L207.42 813.4C209.02 813.3 209.82 812.46 209.82 810.88V795.85H214.47V810.82C214.47 814.78 212.37 816.9 208.17 817.18L205.44 817.3ZM223.772 817.33C221.892 817.33 220.502 816.81 219.602 815.77C218.722 814.73 218.282 813.17 218.282 811.09V802.27H222.812V811.21C222.812 812.95 223.562 813.82 225.062 813.82C225.922 813.82 226.622 813.52 227.162 812.92C227.722 812.3 228.002 811.49 228.002 810.49V802.27H232.532V817H228.122V814.99C227.142 816.55 225.692 817.33 223.772 817.33ZM241.527 817.33C239.627 817.33 238.237 816.84 237.357 815.86C236.477 814.86 236.037 813.38 236.037 811.42V795.85H240.567V811.24C240.567 812.84 241.277 813.64 242.697 813.64C242.917 813.64 243.127 813.63 243.327 813.61C243.547 813.59 243.757 813.55 243.957 813.49L243.897 817C243.137 817.22 242.347 817.33 241.527 817.33ZM254.857 817V813.55L261.487 806.59C262.327 805.67 262.927 804.87 263.287 804.19C263.667 803.49 263.857 802.79 263.857 802.09C263.857 800.29 262.747 799.39 260.527 799.39C259.667 799.39 258.807 799.56 257.947 799.9C257.087 800.22 256.247 800.72 255.427 801.4L253.927 797.98C254.807 797.22 255.887 796.62 257.167 796.18C258.467 795.74 259.797 795.52 261.157 795.52C263.517 795.52 265.317 796.05 266.557 797.11C267.817 798.15 268.447 799.64 268.447 801.58C268.447 802.86 268.147 804.09 267.547 805.27C266.967 806.43 266.007 807.69 264.667 809.05L260.587 813.19H269.227V817H254.857ZM279.625 817.33C277.065 817.33 275.105 816.38 273.745 814.48C272.405 812.58 271.735 809.87 271.735 806.35C271.735 802.83 272.405 800.15 273.745 798.31C275.105 796.45 277.065 795.52 279.625 795.52C282.185 795.52 284.135 796.45 285.475 798.31C286.835 800.15 287.515 802.83 287.515 806.35C287.515 809.87 286.835 812.58 285.475 814.48C284.135 816.38 282.185 817.33 279.625 817.33ZM279.625 813.55C280.785 813.55 281.645 812.98 282.205 811.84C282.765 810.68 283.045 808.85 283.045 806.35C283.045 803.85 282.765 802.05 282.205 800.95C281.645 799.85 280.785 799.3 279.625 799.3C278.465 799.3 277.605 799.85 277.045 800.95C276.485 802.05 276.205 803.85 276.205 806.35C276.205 808.85 276.485 810.68 277.045 811.84C277.605 812.98 278.465 813.55 279.625 813.55ZM290.833 817V813.55L297.463 806.59C298.303 805.67 298.903 804.87 299.263 804.19C299.643 803.49 299.833 802.79 299.833 802.09C299.833 800.29 298.723 799.39 296.503 799.39C295.643 799.39 294.783 799.56 293.923 799.9C293.063 800.22 292.223 800.72 291.403 801.4L289.903 797.98C290.783 797.22 291.863 796.62 293.143 796.18C294.443 795.74 295.773 795.52 297.133 795.52C299.493 795.52 301.293 796.05 302.533 797.11C303.793 798.15 304.423 799.64 304.423 801.58C304.423 802.86 304.123 804.09 303.523 805.27C302.943 806.43 301.983 807.69 300.643 809.05L296.563 813.19H305.203V817H290.833ZM315.602 817.33C313.042 817.33 311.082 816.38 309.722 814.48C308.382 812.58 307.712 809.87 307.712 806.35C307.712 802.83 308.382 800.15 309.722 798.31C311.082 796.45 313.042 795.52 315.602 795.52C318.162 795.52 320.112 796.45 321.452 798.31C322.812 800.15 323.492 802.83 323.492 806.35C323.492 809.87 322.812 812.58 321.452 814.48C320.112 816.38 318.162 817.33 315.602 817.33ZM315.602 813.55C316.762 813.55 317.622 812.98 318.182 811.84C318.742 810.68 319.022 808.85 319.022 806.35C319.022 803.85 318.742 802.05 318.182 800.95C317.622 799.85 316.762 799.3 315.602 799.3C314.442 799.3 313.582 799.85 313.022 800.95C312.462 802.05 312.182 803.85 312.182 806.35C312.182 808.85 312.462 810.68 313.022 811.84C313.582 812.98 314.442 813.55 315.602 813.55Z" fill="#0093EC"/>
<path d="M184.787 483.33C183.387 483.33 182.017 483.12 180.677 482.7C179.357 482.26 178.287 481.69 177.467 480.99L178.937 477.48C180.737 478.8 182.657 479.46 184.697 479.46C185.837 479.46 186.717 479.18 187.337 478.62C187.977 478.06 188.297 477.31 188.297 476.37C188.297 475.41 187.987 474.64 187.367 474.06C186.767 473.48 185.947 473.19 184.907 473.19C183.407 473.19 182.127 473.76 181.067 474.9H178.067V461.85H191.447V465.66H182.537V470.4C183.517 469.76 184.697 469.44 186.077 469.44C187.417 469.44 188.587 469.73 189.587 470.31C190.587 470.87 191.367 471.66 191.927 472.68C192.487 473.7 192.767 474.88 192.767 476.22C192.767 477.64 192.447 478.88 191.807 479.94C191.167 481 190.247 481.83 189.047 482.43C187.847 483.03 186.427 483.33 184.787 483.33ZM196.745 483V479.19H201.485V467.04L197.855 469.17L196.085 465.78L202.835 461.85H206.135V479.19H210.575V483H196.745ZM213.203 483V478.2H218.063V483H213.203ZM228.556 483.33C227.156 483.33 225.786 483.12 224.446 482.7C223.126 482.26 222.056 481.69 221.236 480.99L222.706 477.48C224.506 478.8 226.426 479.46 228.466 479.46C229.606 479.46 230.486 479.18 231.106 478.62C231.746 478.06 232.066 477.31 232.066 476.37C232.066 475.41 231.756 474.64 231.136 474.06C230.536 473.48 229.716 473.19 228.676 473.19C227.176 473.19 225.896 473.76 224.836 474.9H221.836V461.85H235.216V465.66H226.306V470.4C227.286 469.76 228.466 469.44 229.846 469.44C231.186 469.44 232.356 469.73 233.356 470.31C234.356 470.87 235.136 471.66 235.696 472.68C236.256 473.7 236.536 474.88 236.536 476.22C236.536 477.64 236.216 478.88 235.576 479.94C234.936 481 234.016 481.83 232.816 482.43C231.616 483.03 230.196 483.33 228.556 483.33ZM239.255 483V461.85H243.785V474.36H243.845L249.275 468.27H254.645L248.405 475.32L254.945 483H249.485L243.845 476.64H243.785V483H239.255ZM163.9 513.33C162 513.33 160.61 512.84 159.73 511.86C158.85 510.86 158.41 509.38 158.41 507.42V491.85H162.94V507.24C162.94 508.84 163.65 509.64 165.07 509.64C165.29 509.64 165.5 509.63 165.7 509.61C165.92 509.59 166.13 509.55 166.33 509.49L166.27 513C165.51 513.22 164.72 513.33 163.9 513.33ZM175.904 513.33C174.164 513.33 172.664 513.02 171.404 512.4C170.164 511.76 169.204 510.87 168.524 509.73C167.864 508.57 167.534 507.21 167.534 505.65C167.534 504.13 167.854 502.8 168.494 501.66C169.154 500.5 170.044 499.6 171.164 498.96C172.304 498.3 173.614 497.97 175.094 497.97C177.234 497.97 178.934 498.65 180.194 500.01C181.454 501.35 182.084 503.17 182.084 505.47V506.61H171.854C172.014 507.77 172.434 508.62 173.114 509.16C173.814 509.68 174.774 509.94 175.994 509.94C176.794 509.94 177.604 509.82 178.424 509.58C179.244 509.34 179.984 508.97 180.644 508.47L181.844 511.5C181.104 512.06 180.194 512.51 179.114 512.85C178.054 513.17 176.984 513.33 175.904 513.33ZM175.274 500.97C174.314 500.97 173.534 501.26 172.934 501.84C172.354 502.42 171.994 503.23 171.854 504.27H178.334C178.214 502.07 177.194 500.97 175.274 500.97ZM189.699 513.33C188.599 513.33 187.629 513.12 186.789 512.7C185.949 512.28 185.279 511.71 184.779 510.99C184.299 510.27 184.059 509.46 184.059 508.56C184.059 507.5 184.339 506.65 184.899 506.01C185.459 505.37 186.369 504.92 187.629 504.66C188.889 504.38 190.559 504.24 192.639 504.24H193.719V503.73C193.719 502.85 193.519 502.23 193.119 501.87C192.719 501.49 192.039 501.3 191.079 501.3C190.279 501.3 189.429 501.43 188.529 501.69C187.649 501.93 186.769 502.3 185.889 502.8L184.659 499.77C185.179 499.43 185.809 499.12 186.549 498.84C187.309 498.56 188.099 498.35 188.919 498.21C189.739 498.05 190.519 497.97 191.259 497.97C193.539 497.97 195.239 498.49 196.359 499.53C197.479 500.55 198.039 502.14 198.039 504.3V513H193.809V510.78C193.509 511.56 192.999 512.18 192.279 512.64C191.579 513.1 190.719 513.33 189.699 513.33ZM190.719 510.3C191.559 510.3 192.269 510.01 192.849 509.43C193.429 508.85 193.719 508.1 193.719 507.18V506.58H192.669C191.129 506.58 190.039 506.72 189.399 507C188.759 507.26 188.439 507.72 188.439 508.38C188.439 508.94 188.629 509.4 189.009 509.76C189.409 510.12 189.979 510.3 190.719 510.3ZM201.418 513V498.27H205.858V500.82C206.558 499.1 208.058 498.15 210.358 497.97L211.678 497.88L211.948 501.69L209.398 501.96C207.158 502.18 206.038 503.32 206.038 505.38V513H201.418ZM213.781 513V498.27H218.221V500.43C218.721 499.63 219.391 499.02 220.231 498.6C221.071 498.18 222.011 497.97 223.051 497.97C224.791 497.97 226.091 498.48 226.951 499.5C227.811 500.5 228.241 502.05 228.241 504.15V513H223.711V504.36C223.711 503.34 223.521 502.61 223.141 502.17C222.761 501.71 222.201 501.48 221.461 501.48C220.501 501.48 219.731 501.78 219.151 502.38C218.591 502.98 218.311 503.78 218.311 504.78V513H213.781ZM239.273 513.33C237.533 513.33 236.033 513.02 234.773 512.4C233.533 511.76 232.573 510.87 231.893 509.73C231.233 508.57 230.903 507.21 230.903 505.65C230.903 504.13 231.223 502.8 231.863 501.66C232.523 500.5 233.413 499.6 234.533 498.96C235.673 498.3 236.983 497.97 238.463 497.97C240.603 497.97 242.303 498.65 243.563 500.01C244.823 501.35 245.453 503.17 245.453 505.47V506.61H235.223C235.383 507.77 235.803 508.62 236.483 509.16C237.183 509.68 238.143 509.94 239.363 509.94C240.163 509.94 240.973 509.82 241.793 509.58C242.613 509.34 243.353 508.97 244.013 508.47L245.213 511.5C244.473 512.06 243.563 512.51 242.483 512.85C241.423 513.17 240.353 513.33 239.273 513.33ZM238.643 500.97C237.683 500.97 236.903 501.26 236.303 501.84C235.723 502.42 235.363 503.23 235.223 504.27H241.703C241.583 502.07 240.563 500.97 238.643 500.97ZM248.088 513V498.27H252.528V500.82C253.228 499.1 254.728 498.15 257.028 497.97L258.348 497.88L258.618 501.69L256.068 501.96C253.828 502.18 252.708 503.32 252.708 505.38V513H248.088ZM265.944 513.33C264.644 513.33 263.434 513.18 262.314 512.88C261.194 512.58 260.264 512.17 259.524 511.65L260.604 508.71C261.344 509.17 262.184 509.54 263.124 509.82C264.084 510.08 265.034 510.21 265.974 510.21C266.814 510.21 267.434 510.08 267.834 509.82C268.234 509.54 268.434 509.18 268.434 508.74C268.434 508.04 267.924 507.6 266.904 507.42L263.754 506.85C262.494 506.63 261.534 506.18 260.874 505.5C260.214 504.82 259.884 503.93 259.884 502.83C259.884 501.83 260.164 500.97 260.724 500.25C261.284 499.53 262.054 498.97 263.034 498.57C264.014 498.17 265.144 497.97 266.424 497.97C267.484 497.97 268.514 498.11 269.514 498.39C270.514 498.65 271.374 499.07 272.094 499.65L270.954 502.56C270.354 502.12 269.634 501.76 268.794 501.48C267.974 501.2 267.204 501.06 266.484 501.06C265.584 501.06 264.934 501.21 264.534 501.51C264.134 501.79 263.934 502.15 263.934 502.59C263.934 503.29 264.404 503.73 265.344 503.91L268.494 504.48C269.794 504.7 270.784 505.14 271.464 505.8C272.144 506.44 272.484 507.32 272.484 508.44C272.484 509.98 271.884 511.18 270.684 512.04C269.484 512.9 267.904 513.33 265.944 513.33Z" fill="#0093EC"/>
<path d="M423 779V371.464C423 368.954 423.929 366.547 425.583 364.772C427.237 362.997 429.481 362 431.82 362H471.18C473.519 362 475.763 362.997 477.417 364.772C479.071 366.547 480 368.954 480 371.464V779H423Z" fill="#3F3D56"/>
<path d="M610 779V305.007C610 302.088 610.929 299.288 612.583 297.224C614.237 295.16 616.481 294 618.82 294H658.18C660.519 294 662.763 295.16 664.417 297.224C666.071 299.288 667 302.088 667 305.007V779H610Z" fill="#3F3D56"/>
<path d="M236 779V642.958C236 641.908 236.929 640.901 238.583 640.159C240.237 639.417 242.481 639 244.82 639H284.18C286.519 639 288.763 639.417 290.417 640.159C292.071 640.901 293 641.908 293 642.958V779H236Z" fill="#3F3D56"/>
<path d="M80.276 622.266C79.6967 622.265 79.1297 622.097 78.6437 621.782C78.1578 621.467 77.7735 621.017 77.5373 620.488C77.3012 619.959 77.2233 619.373 77.3131 618.801C77.4029 618.229 77.6565 617.694 78.0432 617.263L266.003 560.506L451.5 273.516L636 224.5L845 127C849.516 125.623 849.516 133.994 845 135.5L639.5 230L456.002 279.014L270.503 564.506L82.5106 621.268C82.2295 621.582 81.8851 621.834 81.5 622.006C81.1149 622.178 80.6978 622.266 80.276 622.266Z" fill="#3F3D56"/>
<path d="M78 647C93.464 647 106 634.464 106 619C106 603.536 93.464 591 78 591C62.536 591 50 603.536 50 619C50 634.464 62.536 647 78 647Z" fill="#00B0FF"/>
<path d="M639 257C654.464 257 667 244.464 667 229C667 213.536 654.464 201 639 201C623.536 201 611 213.536 611 229C611 244.464 623.536 257 639 257Z" fill="#00B0FF"/>
<path d="M265 596C280.464 596 293 583.464 293 568C293 552.536 280.464 540 265 540C249.536 540 237 552.536 237 568C237 583.464 249.536 596 265 596Z" fill="#CCCCCC"/>
<path d="M452 313C467.464 313 480 300.464 480 285C480 269.536 467.464 257 452 257C436.536 257 424 269.536 424 285C424 300.464 436.536 313 452 313Z" fill="#E6E6E6"/>
<path d="M49 779V693.964C49 692.879 52.949 692 57.82 692H97.18C102.051 692 106 692.88 106 693.964V779H49Z" fill="#3F3D56"/>
<path d="M1017.76 781H1.24092C0.911804 781 0.596172 780.895 0.363455 780.707C0.130738 780.52 0 780.265 0 780C0 779.735 0.130738 779.48 0.363455 779.293C0.596172 779.105 0.911804 779 1.24092 779H1017.76C1018.09 779 1018.4 779.105 1018.64 779.293C1018.87 779.48 1019 779.735 1019 780C1019 780.265 1018.87 780.52 1018.64 780.707C1018.4 780.895 1018.09 781 1017.76 781H1017.76Z" fill="#E6E6E6"/>
<path d="M34.3341 858V836.85H38.9841V858H34.3341ZM42.8211 858V843.27H47.2611V845.43C47.7611 844.63 48.4311 844.02 49.2711 843.6C50.1111 843.18 51.0511 842.97 52.0911 842.97C53.8311 842.97 55.1311 843.48 55.9911 844.5C56.8511 845.5 57.2811 847.05 57.2811 849.15V858H52.7511V849.36C52.7511 848.34 52.5611 847.61 52.1811 847.17C51.8011 846.71 51.2411 846.48 50.5011 846.48C49.5411 846.48 48.7711 846.78 48.1911 847.38C47.6311 847.98 47.3511 848.78 47.3511 849.78V858H42.8211ZM60.4829 840.42V836.19H65.3729V840.42H60.4829ZM60.6629 858V843.27H65.1929V858H60.6629ZM75.9202 858.33C71.7802 858.33 69.7102 856.32 69.7102 852.3V846.66H66.9202V843.27H69.7102V838.95H74.2402V843.27H78.5902V846.66H74.2402V852.12C74.2402 852.96 74.4302 853.59 74.8102 854.01C75.2102 854.43 75.8402 854.64 76.7002 854.64C76.9602 854.64 77.2302 854.61 77.5102 854.55C77.8102 854.49 78.1302 854.41 78.4702 854.31L79.1302 857.61C78.7102 857.83 78.2102 858 77.6302 858.12C77.0502 858.26 76.4802 858.33 75.9202 858.33ZM80.6391 840.42V836.19H85.5291V840.42H80.6391ZM80.8191 858V843.27H85.3491V858H80.8191ZM93.8264 858.33C92.7264 858.33 91.7564 858.12 90.9164 857.7C90.0764 857.28 89.4064 856.71 88.9064 855.99C88.4264 855.27 88.1864 854.46 88.1864 853.56C88.1864 852.5 88.4664 851.65 89.0264 851.01C89.5864 850.37 90.4964 849.92 91.7564 849.66C93.0164 849.38 94.6864 849.24 96.7664 849.24H97.8464V848.73C97.8464 847.85 97.6464 847.23 97.2464 846.87C96.8464 846.49 96.1664 846.3 95.2064 846.3C94.4064 846.3 93.5564 846.43 92.6564 846.69C91.7764 846.93 90.8964 847.3 90.0164 847.8L88.7864 844.77C89.3064 844.43 89.9364 844.12 90.6764 843.84C91.4364 843.56 92.2264 843.35 93.0464 843.21C93.8664 843.05 94.6464 842.97 95.3864 842.97C97.6664 842.97 99.3664 843.49 100.486 844.53C101.606 845.55 102.166 847.14 102.166 849.3V858H97.9364V855.78C97.6364 856.56 97.1264 857.18 96.4064 857.64C95.7064 858.1 94.8464 858.33 93.8264 858.33ZM94.8464 855.3C95.6864 855.3 96.3964 855.01 96.9764 854.43C97.5564 853.85 97.8464 853.1 97.8464 852.18V851.58H96.7964C95.2564 851.58 94.1664 851.72 93.5264 852C92.8864 852.26 92.5664 852.72 92.5664 853.38C92.5664 853.94 92.7564 854.4 93.1364 854.76C93.5364 855.12 94.1064 855.3 94.8464 855.3ZM111.036 858.33C109.136 858.33 107.746 857.84 106.866 856.86C105.986 855.86 105.546 854.38 105.546 852.42V836.85H110.076V852.24C110.076 853.84 110.786 854.64 112.206 854.64C112.426 854.64 112.636 854.63 112.836 854.61C113.056 854.59 113.266 854.55 113.466 854.49L113.406 858C112.646 858.22 111.856 858.33 111.036 858.33ZM24.3292 888V866.85H28.9792V884.07H38.7592V888H24.3292ZM46.1165 888.33C45.0165 888.33 44.0465 888.12 43.2065 887.7C42.3665 887.28 41.6965 886.71 41.1965 885.99C40.7165 885.27 40.4765 884.46 40.4765 883.56C40.4765 882.5 40.7565 881.65 41.3165 881.01C41.8765 880.37 42.7865 879.92 44.0465 879.66C45.3065 879.38 46.9765 879.24 49.0565 879.24H50.1365V878.73C50.1365 877.85 49.9365 877.23 49.5365 876.87C49.1365 876.49 48.4565 876.3 47.4965 876.3C46.6965 876.3 45.8465 876.43 44.9465 876.69C44.0665 876.93 43.1865 877.3 42.3065 877.8L41.0765 874.77C41.5965 874.43 42.2265 874.12 42.9665 873.84C43.7265 873.56 44.5165 873.35 45.3365 873.21C46.1565 873.05 46.9365 872.97 47.6765 872.97C49.9565 872.97 51.6565 873.49 52.7765 874.53C53.8965 875.55 54.4565 877.14 54.4565 879.3V888H50.2265V885.78C49.9265 886.56 49.4165 887.18 48.6965 887.64C47.9965 888.1 47.1365 888.33 46.1165 888.33ZM47.1365 885.3C47.9765 885.3 48.6865 885.01 49.2665 884.43C49.8465 883.85 50.1365 883.1 50.1365 882.18V881.58H49.0865C47.5465 881.58 46.4565 881.72 45.8165 882C45.1765 882.26 44.8565 882.72 44.8565 883.38C44.8565 883.94 45.0465 884.4 45.4265 884.76C45.8265 885.12 46.3965 885.3 47.1365 885.3ZM63.2657 888.33C61.3857 888.33 59.9957 887.81 59.0957 886.77C58.2157 885.73 57.7757 884.17 57.7757 882.09V873.27H62.3057V882.21C62.3057 883.95 63.0557 884.82 64.5557 884.82C65.4157 884.82 66.1157 884.52 66.6557 883.92C67.2157 883.3 67.4957 882.49 67.4957 881.49V873.27H72.0257V888H67.6157V885.99C66.6357 887.55 65.1857 888.33 63.2657 888.33ZM75.531 888V873.27H79.971V875.43C80.471 874.63 81.141 874.02 81.981 873.6C82.821 873.18 83.761 872.97 84.801 872.97C86.541 872.97 87.841 873.48 88.701 874.5C89.561 875.5 89.991 877.05 89.991 879.15V888H85.461V879.36C85.461 878.34 85.271 877.61 84.891 877.17C84.511 876.71 83.951 876.48 83.211 876.48C82.251 876.48 81.481 876.78 80.901 877.38C80.341 877.98 80.061 878.78 80.061 879.78V888H75.531ZM100.543 888.33C98.9428 888.33 97.5428 888.02 96.3428 887.4C95.1628 886.76 94.2528 885.86 93.6128 884.7C92.9728 883.54 92.6528 882.17 92.6528 880.59C92.6528 879.01 92.9728 877.65 93.6128 876.51C94.2528 875.37 95.1628 874.5 96.3428 873.9C97.5428 873.28 98.9428 872.97 100.543 872.97C101.483 872.97 102.433 873.11 103.393 873.39C104.353 873.67 105.133 874.07 105.733 874.59L104.473 877.71C103.973 877.31 103.413 877 102.793 876.78C102.173 876.54 101.573 876.42 100.993 876.42C99.8128 876.42 98.8928 876.79 98.2328 877.53C97.5928 878.25 97.2728 879.28 97.2728 880.62C97.2728 881.94 97.5928 882.98 98.2328 883.74C98.8928 884.48 99.8128 884.85 100.993 884.85C101.553 884.85 102.143 884.74 102.763 884.52C103.403 884.3 103.973 883.98 104.473 883.56L105.733 886.68C105.133 887.2 104.353 887.61 103.393 887.91C102.433 888.19 101.483 888.33 100.543 888.33ZM107.699 888V866.85H112.229V875.28C112.749 874.52 113.419 873.95 114.239 873.57C115.059 873.17 115.969 872.97 116.969 872.97C120.429 872.97 122.159 875.03 122.159 879.15V888H117.629V879.36C117.629 878.34 117.439 877.61 117.059 877.17C116.679 876.71 116.119 876.48 115.379 876.48C114.419 876.48 113.649 876.78 113.069 877.38C112.509 877.98 112.229 878.78 112.229 879.78V888H107.699Z" fill="#C0C0C0"/>
<path d="M170.362 858V836.85H180.022C182.382 836.85 184.202 837.42 185.482 838.56C186.762 839.7 187.402 841.29 187.402 843.33C187.402 844.91 186.992 846.23 186.172 847.29C185.372 848.33 184.222 849.04 182.722 849.42C183.782 849.74 184.652 850.51 185.332 851.73L188.752 858H183.622L179.962 851.25C179.662 850.71 179.292 850.34 178.852 850.14C178.412 849.92 177.892 849.81 177.292 849.81H175.012V858H170.362ZM175.012 846.45H179.182C181.682 846.45 182.932 845.45 182.932 843.45C182.932 841.47 181.682 840.48 179.182 840.48H175.012V846.45ZM198.101 858.33C196.361 858.33 194.861 858.02 193.601 857.4C192.361 856.76 191.401 855.87 190.721 854.73C190.061 853.57 189.731 852.21 189.731 850.65C189.731 849.13 190.051 847.8 190.691 846.66C191.351 845.5 192.241 844.6 193.361 843.96C194.501 843.3 195.811 842.97 197.291 842.97C199.431 842.97 201.131 843.65 202.391 845.01C203.651 846.35 204.281 848.17 204.281 850.47V851.61H194.051C194.211 852.77 194.631 853.62 195.311 854.16C196.011 854.68 196.971 854.94 198.191 854.94C198.991 854.94 199.801 854.82 200.621 854.58C201.441 854.34 202.181 853.97 202.841 853.47L204.041 856.5C203.301 857.06 202.391 857.51 201.311 857.85C200.251 858.17 199.181 858.33 198.101 858.33ZM197.471 845.97C196.511 845.97 195.731 846.26 195.131 846.84C194.551 847.42 194.191 848.23 194.051 849.27H200.531C200.411 847.07 199.391 845.97 197.471 845.97ZM212.406 858.33C210.506 858.33 209.116 857.84 208.236 856.86C207.356 855.86 206.916 854.38 206.916 852.42V836.85H211.446V852.24C211.446 853.84 212.156 854.64 213.576 854.64C213.796 854.64 214.006 854.63 214.206 854.61C214.426 854.59 214.636 854.55 214.836 854.49L214.776 858C214.016 858.22 213.226 858.33 212.406 858.33ZM224.41 858.33C222.67 858.33 221.17 858.02 219.91 857.4C218.67 856.76 217.71 855.87 217.03 854.73C216.37 853.57 216.04 852.21 216.04 850.65C216.04 849.13 216.36 847.8 217 846.66C217.66 845.5 218.55 844.6 219.67 843.96C220.81 843.3 222.12 842.97 223.6 842.97C225.74 842.97 227.44 843.65 228.7 845.01C229.96 846.35 230.59 848.17 230.59 850.47V851.61H220.36C220.52 852.77 220.94 853.62 221.62 854.16C222.32 854.68 223.28 854.94 224.5 854.94C225.3 854.94 226.11 854.82 226.93 854.58C227.75 854.34 228.49 853.97 229.15 853.47L230.35 856.5C229.61 857.06 228.7 857.51 227.62 857.85C226.56 858.17 225.49 858.33 224.41 858.33ZM223.78 845.97C222.82 845.97 222.04 846.26 221.44 846.84C220.86 847.42 220.5 848.23 220.36 849.27H226.84C226.72 847.07 225.7 845.97 223.78 845.97ZM238.204 858.33C237.104 858.33 236.134 858.12 235.294 857.7C234.454 857.28 233.784 856.71 233.284 855.99C232.804 855.27 232.564 854.46 232.564 853.56C232.564 852.5 232.844 851.65 233.404 851.01C233.964 850.37 234.874 849.92 236.134 849.66C237.394 849.38 239.064 849.24 241.144 849.24H242.224V848.73C242.224 847.85 242.024 847.23 241.624 846.87C241.224 846.49 240.544 846.3 239.584 846.3C238.784 846.3 237.934 846.43 237.034 846.69C236.154 846.93 235.274 847.3 234.394 847.8L233.164 844.77C233.684 844.43 234.314 844.12 235.054 843.84C235.814 843.56 236.604 843.35 237.424 843.21C238.244 843.05 239.024 842.97 239.764 842.97C242.044 842.97 243.744 843.49 244.864 844.53C245.984 845.55 246.544 847.14 246.544 849.3V858H242.314V855.78C242.014 856.56 241.504 857.18 240.784 857.64C240.084 858.1 239.224 858.33 238.204 858.33ZM239.224 855.3C240.064 855.3 240.774 855.01 241.354 854.43C241.934 853.85 242.224 853.1 242.224 852.18V851.58H241.174C239.634 851.58 238.544 851.72 237.904 852C237.264 852.26 236.944 852.72 236.944 853.38C236.944 853.94 237.134 854.4 237.514 854.76C237.914 855.12 238.484 855.3 239.224 855.3ZM255.564 858.33C254.264 858.33 253.054 858.18 251.934 857.88C250.814 857.58 249.884 857.17 249.144 856.65L250.224 853.71C250.964 854.17 251.804 854.54 252.744 854.82C253.704 855.08 254.654 855.21 255.594 855.21C256.434 855.21 257.054 855.08 257.454 854.82C257.854 854.54 258.054 854.18 258.054 853.74C258.054 853.04 257.544 852.6 256.524 852.42L253.374 851.85C252.114 851.63 251.154 851.18 250.494 850.5C249.834 849.82 249.504 848.93 249.504 847.83C249.504 846.83 249.784 845.97 250.344 845.25C250.904 844.53 251.674 843.97 252.654 843.57C253.634 843.17 254.764 842.97 256.044 842.97C257.104 842.97 258.134 843.11 259.134 843.39C260.134 843.65 260.994 844.07 261.714 844.65L260.574 847.56C259.974 847.12 259.254 846.76 258.414 846.48C257.594 846.2 256.824 846.06 256.104 846.06C255.204 846.06 254.554 846.21 254.154 846.51C253.754 846.79 253.554 847.15 253.554 847.59C253.554 848.29 254.024 848.73 254.964 848.91L258.114 849.48C259.414 849.7 260.404 850.14 261.084 850.8C261.764 851.44 262.104 852.32 262.104 853.44C262.104 854.98 261.504 856.18 260.304 857.04C259.104 857.9 257.524 858.33 255.564 858.33ZM272.339 858.33C270.599 858.33 269.099 858.02 267.839 857.4C266.599 856.76 265.639 855.87 264.959 854.73C264.299 853.57 263.969 852.21 263.969 850.65C263.969 849.13 264.289 847.8 264.929 846.66C265.589 845.5 266.479 844.6 267.599 843.96C268.739 843.3 270.049 842.97 271.529 842.97C273.669 842.97 275.369 843.65 276.629 845.01C277.889 846.35 278.519 848.17 278.519 850.47V851.61H268.289C268.449 852.77 268.869 853.62 269.549 854.16C270.249 854.68 271.209 854.94 272.429 854.94C273.229 854.94 274.039 854.82 274.859 854.58C275.679 854.34 276.419 853.97 277.079 853.47L278.279 856.5C277.539 857.06 276.629 857.51 275.549 857.85C274.489 858.17 273.419 858.33 272.339 858.33ZM271.709 845.97C270.749 845.97 269.969 846.26 269.369 846.84C268.789 847.42 268.429 848.23 268.289 849.27H274.769C274.649 847.07 273.629 845.97 271.709 845.97ZM296.584 858.33C295.004 858.33 293.624 858.02 292.444 857.4C291.284 856.76 290.384 855.87 289.744 854.73C289.104 853.57 288.784 852.2 288.784 850.62C288.784 849.06 289.104 847.71 289.744 846.57C290.384 845.41 291.284 844.52 292.444 843.9C293.624 843.28 295.004 842.97 296.584 842.97C298.164 842.97 299.534 843.28 300.694 843.9C301.874 844.52 302.784 845.41 303.424 846.57C304.084 847.71 304.414 849.06 304.414 850.62C304.414 852.2 304.084 853.57 303.424 854.73C302.784 855.87 301.874 856.76 300.694 857.4C299.534 858.02 298.164 858.33 296.584 858.33ZM296.584 854.94C297.544 854.94 298.324 854.59 298.924 853.89C299.544 853.19 299.854 852.1 299.854 850.62C299.854 849.16 299.544 848.09 298.924 847.41C298.324 846.71 297.544 846.36 296.584 846.36C295.624 846.36 294.844 846.71 294.244 847.41C293.644 848.09 293.344 849.16 293.344 850.62C293.344 852.1 293.644 853.19 294.244 853.89C294.844 854.59 295.624 854.94 296.584 854.94ZM308.163 858V846.66H305.373V843.27H308.163C308.203 841.19 308.803 839.63 309.963 838.59C311.143 837.53 312.933 836.93 315.333 836.79L316.983 836.67L317.253 839.97L315.843 840.06C314.683 840.12 313.863 840.37 313.383 840.81C312.923 841.23 312.693 841.88 312.693 842.76V843.27H316.533V846.66H312.693V858H308.163ZM331.808 858.33C330.708 858.33 329.738 858.12 328.898 857.7C328.058 857.28 327.388 856.71 326.888 855.99C326.408 855.27 326.168 854.46 326.168 853.56C326.168 852.5 326.448 851.65 327.008 851.01C327.568 850.37 328.478 849.92 329.738 849.66C330.998 849.38 332.668 849.24 334.748 849.24H335.828V848.73C335.828 847.85 335.628 847.23 335.228 846.87C334.828 846.49 334.148 846.3 333.188 846.3C332.388 846.3 331.538 846.43 330.638 846.69C329.758 846.93 328.878 847.3 327.998 847.8L326.768 844.77C327.288 844.43 327.918 844.12 328.658 843.84C329.418 843.56 330.208 843.35 331.028 843.21C331.848 843.05 332.628 842.97 333.368 842.97C335.648 842.97 337.348 843.49 338.468 844.53C339.588 845.55 340.148 847.14 340.148 849.3V858H335.918V855.78C335.618 856.56 335.108 857.18 334.388 857.64C333.688 858.1 332.828 858.33 331.808 858.33ZM332.828 855.3C333.668 855.3 334.378 855.01 334.958 854.43C335.538 853.85 335.828 853.1 335.828 852.18V851.58H334.778C333.238 851.58 332.148 851.72 331.508 852C330.868 852.26 330.548 852.72 330.548 853.38C330.548 853.94 330.738 854.4 331.118 854.76C331.518 855.12 332.088 855.3 332.828 855.3ZM349.017 858.33C347.117 858.33 345.727 857.84 344.847 856.86C343.967 855.86 343.527 854.38 343.527 852.42V836.85H348.057V852.24C348.057 853.84 348.767 854.64 350.187 854.64C350.407 854.64 350.617 854.63 350.817 854.61C351.037 854.59 351.247 854.55 351.447 854.49L351.387 858C350.627 858.22 349.837 858.33 349.017 858.33ZM359.007 858.33C357.107 858.33 355.717 857.84 354.837 856.86C353.957 855.86 353.517 854.38 353.517 852.42V836.85H358.047V852.24C358.047 853.84 358.757 854.64 360.177 854.64C360.397 854.64 360.607 854.63 360.807 854.61C361.027 854.59 361.237 854.55 361.437 854.49L361.377 858C360.617 858.22 359.827 858.33 359.007 858.33ZM185.134 888V884.19H189.874V872.04L186.244 874.17L184.474 870.78L191.224 866.85H194.524V884.19H198.964V888H185.134ZM202.342 888V884.55L208.972 877.59C209.812 876.67 210.412 875.87 210.772 875.19C211.152 874.49 211.342 873.79 211.342 873.09C211.342 871.29 210.232 870.39 208.012 870.39C207.152 870.39 206.292 870.56 205.432 870.9C204.572 871.22 203.732 871.72 202.912 872.4L201.412 868.98C202.292 868.22 203.372 867.62 204.652 867.18C205.952 866.74 207.282 866.52 208.642 866.52C211.002 866.52 212.802 867.05 214.042 868.11C215.302 869.15 215.932 870.64 215.932 872.58C215.932 873.86 215.632 875.09 215.032 876.27C214.452 877.43 213.492 878.69 212.152 880.05L208.072 884.19H216.712V888H202.342ZM228.26 888V873.27H232.7V875.4C233.14 874.64 233.74 874.05 234.5 873.63C235.28 873.19 236.18 872.97 237.2 872.97C238.24 872.97 239.12 873.2 239.84 873.66C240.58 874.12 241.14 874.82 241.52 875.76C241.98 874.88 242.64 874.2 243.5 873.72C244.38 873.22 245.35 872.97 246.41 872.97C248.09 872.97 249.34 873.48 250.16 874.5C250.98 875.5 251.39 877.05 251.39 879.15V888H246.86V879.3C246.86 878.32 246.7 877.61 246.38 877.17C246.08 876.71 245.56 876.48 244.82 876.48C243.96 876.48 243.29 876.78 242.81 877.38C242.33 877.98 242.09 878.83 242.09 879.93V888H237.56V879.3C237.56 878.32 237.4 877.61 237.08 877.17C236.76 876.71 236.24 876.48 235.52 876.48C234.66 876.48 233.99 876.78 233.51 877.38C233.03 877.98 232.79 878.83 232.79 879.93V888H228.26ZM261.94 888.33C260.36 888.33 258.98 888.02 257.8 887.4C256.64 886.76 255.74 885.87 255.1 884.73C254.46 883.57 254.14 882.2 254.14 880.62C254.14 879.06 254.46 877.71 255.1 876.57C255.74 875.41 256.64 874.52 257.8 873.9C258.98 873.28 260.36 872.97 261.94 872.97C263.52 872.97 264.89 873.28 266.05 873.9C267.23 874.52 268.14 875.41 268.78 876.57C269.44 877.71 269.77 879.06 269.77 880.62C269.77 882.2 269.44 883.57 268.78 884.73C268.14 885.87 267.23 886.76 266.05 887.4C264.89 888.02 263.52 888.33 261.94 888.33ZM261.94 884.94C262.9 884.94 263.68 884.59 264.28 883.89C264.9 883.19 265.21 882.1 265.21 880.62C265.21 879.16 264.9 878.09 264.28 877.41C263.68 876.71 262.9 876.36 261.94 876.36C260.98 876.36 260.2 876.71 259.6 877.41C259 878.09 258.7 879.16 258.7 880.62C258.7 882.1 259 883.19 259.6 883.89C260.2 884.59 260.98 884.94 261.94 884.94ZM278.256 888.33C276.976 888.33 275.846 888.02 274.866 887.4C273.906 886.76 273.156 885.87 272.616 884.73C272.076 883.57 271.806 882.2 271.806 880.62C271.806 879.04 272.076 877.68 272.616 876.54C273.156 875.4 273.906 874.52 274.866 873.9C275.846 873.28 276.976 872.97 278.256 872.97C279.236 872.97 280.136 873.18 280.956 873.6C281.776 874.02 282.396 874.58 282.816 875.28V866.85H287.346V888H282.906V885.78C282.506 886.56 281.886 887.18 281.046 887.64C280.226 888.1 279.296 888.33 278.256 888.33ZM279.606 884.94C280.566 884.94 281.346 884.59 281.946 883.89C282.566 883.19 282.876 882.1 282.876 880.62C282.876 879.16 282.566 878.09 281.946 877.41C281.346 876.71 280.566 876.36 279.606 876.36C278.646 876.36 277.866 876.71 277.266 877.41C276.666 878.09 276.366 879.16 276.366 880.62C276.366 882.1 276.666 883.19 277.266 883.89C277.866 884.59 278.646 884.94 279.606 884.94ZM296.267 888.33C294.387 888.33 292.997 887.81 292.097 886.77C291.217 885.73 290.777 884.17 290.777 882.09V873.27H295.307V882.21C295.307 883.95 296.057 884.82 297.557 884.82C298.417 884.82 299.117 884.52 299.657 883.92C300.217 883.3 300.497 882.49 300.497 881.49V873.27H305.027V888H300.617V885.99C299.637 887.55 298.187 888.33 296.267 888.33ZM314.022 888.33C312.122 888.33 310.732 887.84 309.852 886.86C308.972 885.86 308.532 884.38 308.532 882.42V866.85H313.062V882.24C313.062 883.84 313.772 884.64 315.192 884.64C315.412 884.64 315.622 884.63 315.822 884.61C316.042 884.59 316.252 884.55 316.452 884.49L316.392 888C315.632 888.22 314.842 888.33 314.022 888.33ZM326.026 888.33C324.286 888.33 322.786 888.02 321.526 887.4C320.286 886.76 319.326 885.87 318.646 884.73C317.986 883.57 317.656 882.21 317.656 880.65C317.656 879.13 317.976 877.8 318.616 876.66C319.276 875.5 320.166 874.6 321.286 873.96C322.426 873.3 323.736 872.97 325.216 872.97C327.356 872.97 329.056 873.65 330.316 875.01C331.576 876.35 332.206 878.17 332.206 880.47V881.61H321.976C322.136 882.77 322.556 883.62 323.236 884.16C323.936 884.68 324.896 884.94 326.116 884.94C326.916 884.94 327.726 884.82 328.546 884.58C329.366 884.34 330.106 883.97 330.766 883.47L331.966 886.5C331.226 887.06 330.316 887.51 329.236 887.85C328.176 888.17 327.106 888.33 326.026 888.33ZM325.396 875.97C324.436 875.97 323.656 876.26 323.056 876.84C322.476 877.42 322.116 878.23 321.976 879.27H328.456C328.336 877.07 327.316 875.97 325.396 875.97ZM340.481 888.33C339.181 888.33 337.971 888.18 336.851 887.88C335.731 887.58 334.801 887.17 334.061 886.65L335.141 883.71C335.881 884.17 336.721 884.54 337.661 884.82C338.621 885.08 339.571 885.21 340.511 885.21C341.351 885.21 341.971 885.08 342.371 884.82C342.771 884.54 342.971 884.18 342.971 883.74C342.971 883.04 342.461 882.6 341.441 882.42L338.291 881.85C337.031 881.63 336.071 881.18 335.411 880.5C334.751 879.82 334.421 878.93 334.421 877.83C334.421 876.83 334.701 875.97 335.261 875.25C335.821 874.53 336.591 873.97 337.571 873.57C338.551 873.17 339.681 872.97 340.961 872.97C342.021 872.97 343.051 873.11 344.051 873.39C345.051 873.65 345.911 874.07 346.631 874.65L345.491 877.56C344.891 877.12 344.171 876.76 343.331 876.48C342.511 876.2 341.741 876.06 341.021 876.06C340.121 876.06 339.471 876.21 339.071 876.51C338.671 876.79 338.471 877.15 338.471 877.59C338.471 878.29 338.941 878.73 339.881 878.91L343.031 879.48C344.331 879.7 345.321 880.14 346.001 880.8C346.681 881.44 347.021 882.32 347.021 883.44C347.021 884.98 346.421 886.18 345.221 887.04C344.021 887.9 342.441 888.33 340.481 888.33Z" fill="#C0C0C0"/>
<path d="M980.998 767L968.802 766.999L963 715H981L980.998 767Z" fill="#9E616A"/>
<path d="M983.999 779L945 778.998V778.463C945 774.097 946.6 769.91 949.446 766.822C952.293 763.735 956.154 762 960.18 762H960.181L984 762.001L983.999 779Z" fill="#2F2E41"/>
<path d="M933.998 767L921.802 766.999L916 715H934L933.998 767Z" fill="#9E616A"/>
<path d="M936.999 779L898 778.998V778.463C898 774.097 899.6 769.91 902.446 766.822C905.293 763.735 909.154 762 913.18 762H913.181L937 762.001L936.999 779Z" fill="#2F2E41"/>
<path d="M943 317C958.464 317 971 304.464 971 289C971 273.536 958.464 261 943 261C927.536 261 915 273.536 915 289C915 304.464 927.536 317 943 317Z" fill="#00B0FF"/>
<path d="M932.669 527.892C943.192 529.26 970.101 518.896 971.559 534.663C985.41 578.68 984.999 747.412 984.999 747.412L963.913 748.496C963.913 748.496 947.063 614.428 939.096 585.747C935.098 620.608 935.798 753.916 935.798 753.916L916.72 755C916.72 755 899.607 641.483 899.51 608.164C897.43 583.759 902.531 547.593 900.348 524C910.782 527.57 921.763 528.892 932.669 527.892L932.669 527.892Z" fill="#3F3D56"/>
<path d="M897.31 400.199C893.062 390.93 887.873 382.186 881.836 374.126C880.575 372.552 879.426 370.878 878.4 369.12C876.227 365.097 875.58 360.372 874.206 355.97C870.365 343.629 860.784 333.716 858.449 320.954C857.6 316.315 850.429 329.797 852.315 335.55C855.68 345.96 856.115 356.984 860.4 367.038C864.685 377.092 869.718 386.737 873.417 397.017C875.52 402.853 877.197 408.883 880.28 414.277C883.362 419.671 888.173 424.191 893.984 425C893.945 421.09 894.502 417.199 895.632 413.479C896.895 409.229 899.139 404.223 897.31 400.199Z" fill="#9E616A"/>
<path d="M960.352 407.621C960.097 399.92 961.192 392.237 963.576 384.989C964.488 382.211 965.559 379.391 965.47 376.439C965.341 373.694 964.151 371.178 963.07 368.695C959.341 360.145 956.723 351.084 954.144 342.044L949.185 324.999C947.569 323.697 957.01 323.245 959.023 326.305C965.609 336.347 970.597 347.881 975.814 358.849C977.145 361.463 978.279 364.191 979.206 367.007C980.48 371.571 981.082 376.328 980.991 381.1C980.991 390.021 979.92 398.908 978.809 407.752C978.105 413.296 977.183 419.33 973.364 423C969.397 417.424 965.41 411.978 960.352 407.621Z" fill="#9E616A"/>
<path d="M934 398C945.598 398 955 387.926 955 375.5C955 363.074 945.598 353 934 353C922.402 353 913 363.074 913 375.5C913 387.926 922.402 398 934 398Z" fill="#9E616A"/>
<path d="M917.223 353.483C916.991 352.793 916.939 352.045 917.072 351.324C917.206 350.604 917.52 349.938 917.978 349.404C918.493 348.956 919.178 348.79 919.73 348.363C920.515 347.635 921.158 346.74 921.619 345.73C923.029 343.557 925.092 342.004 927.442 341.347C929.792 340.69 932.278 340.971 934.457 342.141C937.868 344.107 939.927 348.044 942.96 350.694C944.5 352.068 946.286 353.088 947.835 354.461C950.938 357.413 953.143 361.343 954.154 365.72C955.16 370.067 955.747 374.519 955.906 379.002C956.068 380.347 956.02 381.713 955.765 383.04C955.451 384.153 954.983 385.206 954.377 386.162C951.259 391.364 947.15 396.089 942.002 398.774C936.853 401.459 930.59 401.896 925.512 399.086C925.001 398.858 924.561 398.471 924.246 397.973C923.958 397.213 923.888 396.374 924.048 395.569C924.324 392.389 923.753 389.189 922.404 386.361C921.459 384.28 920.042 382.489 919.287 380.336C918.584 377.925 918.283 375.394 918.398 372.865C918.309 366.313 918.713 359.789 917.223 353.483Z" fill="#2D293D"/>
<path d="M852 332C856.971 332 861 327.747 861 322.5C861 317.253 856.971 313 852 313C847.029 313 843 317.253 843 322.5C843 327.747 847.029 332 852 332Z" fill="#A0616A"/>
<path d="M952 328C956.971 328 961 323.747 961 318.5C961 313.253 956.971 309 952 309C947.029 309 943 313.253 943 318.5C943 323.747 947.029 328 952 328Z" fill="#A0616A"/>
<path d="M974.004 439.387C974.882 438.516 982.042 393.126 982 392.103C981.889 386.511 966.15 380.124 963 382.347C960.028 384.443 954.853 408.499 951.523 412.88L948 406.196H920.001L918.303 409.613C914.629 407.213 911.324 405.001 910.146 404.269C909.741 403.972 909.299 403.736 908.835 403.57C905.924 402.864 903.193 401.473 900.835 399.494C898.535 397.575 887.861 377.479 885.001 378.01C881.771 378.596 870.876 388.808 871.001 398.608C872.373 398.576 890.215 437.252 890.465 438.694C891.835 444.786 896.359 533.636 897.819 537.778C904.545 537.073 899.235 535.816 905.745 537.778C912.755 539.892 920.155 537.604 927.384 536.759C930.395 536.435 933.419 536.291 936.444 536.325C947.444 536.379 963.144 537.04 973.794 540C973.854 532.433 967.724 516.064 965.454 508.92C965.157 506.785 965.167 504.612 965.484 502.48C965.774 499.868 971.63 442.276 974.004 439.387Z" fill="#E6E6E6"/>
</svg>
