<svg width="971" height="775" viewBox="0 0 971 775" fill="none" xmlns="http://www.w3.org/2000/svg">
<path d="M483.674 41.55C481.774 41.55 479.891 41.2167 478.024 40.55C476.191 39.8833 474.574 38.9333 473.174 37.7L475.674 31.95C476.874 32.9833 478.158 33.7667 479.524 34.3C480.924 34.8333 482.341 35.1 483.774 35.1C489.274 35.1 492.024 31.5167 492.024 24.35V23.4C491.324 25.0333 490.241 26.3167 488.774 27.25C487.308 28.1833 485.608 28.65 483.674 28.65C481.708 28.65 479.941 28.1667 478.374 27.2C476.808 26.2 475.574 24.85 474.674 23.15C473.774 21.4167 473.324 19.45 473.324 17.25C473.324 14.9167 473.824 12.85 474.824 11.05C475.858 9.21666 477.258 7.78333 479.024 6.75C480.824 5.71666 482.891 5.2 485.224 5.2C489.758 5.2 493.241 6.75 495.674 9.85C498.108 12.9167 499.324 17.2667 499.324 22.9C499.324 26.8333 498.691 30.1833 497.424 32.95C496.191 35.7167 494.408 37.85 492.074 39.35C489.741 40.8167 486.941 41.55 483.674 41.55ZM485.674 22.6C487.208 22.6 488.458 22.0833 489.424 21.05C490.391 19.9833 490.874 18.6167 490.874 16.95C490.874 15.25 490.391 13.8667 489.424 12.8C488.458 11.7333 487.208 11.2 485.674 11.2C484.141 11.2 482.891 11.7333 481.924 12.8C480.958 13.8667 480.474 15.25 480.474 16.95C480.474 18.6167 480.958 19.9833 481.924 21.05C482.891 22.0833 484.141 22.6 485.674 22.6ZM515.705 41.55C513.238 41.55 510.888 41.2 508.655 40.5C506.421 39.8 504.588 38.85 503.155 37.65L505.605 31.8C508.571 34 511.838 35.1 515.405 35.1C519.471 35.1 521.505 33.5833 521.505 30.55C521.505 27.75 519.605 26.35 515.805 26.35H509.905V20.1H515.055C516.721 20.1 518.038 19.7167 519.005 18.95C519.971 18.1833 520.455 17.1167 520.455 15.75C520.455 13.0167 518.671 11.65 515.105 11.65C511.771 11.65 508.805 12.7667 506.205 15L503.755 9.3C505.221 8 507.021 7 509.155 6.3C511.288 5.56667 513.505 5.2 515.805 5.2C519.605 5.2 522.571 6.05 524.705 7.75C526.838 9.45 527.905 11.7833 527.905 14.75C527.905 16.5833 527.438 18.2 526.505 19.6C525.571 21 524.271 22.0167 522.605 22.65C524.605 23.2167 526.155 24.2667 527.255 25.8C528.388 27.3 528.955 29.1167 528.955 31.25C528.955 34.45 527.771 36.9667 525.405 38.8C523.038 40.6333 519.805 41.55 515.705 41.55ZM536.535 41V34.65H544.435V14.4L538.385 17.95L535.435 12.3L546.685 5.75H552.185V34.65H559.585V41H536.535ZM564.416 41V5.75H571.966V26.6H572.066L581.116 16.45H590.066L579.666 28.2L590.566 41H581.466L572.066 30.4H571.966V41H564.416ZM601.696 39V29.25H592.196V24.05H601.696V14.6H607.096V24.05H616.596V29.25H607.096V39H601.696ZM648.243 41.55C641.343 41.55 637.893 38.2 637.893 31.5V22.1H633.243V16.45H637.893V9.25H645.443V16.45H652.693V22.1H645.443V31.2C645.443 32.6 645.76 33.65 646.393 34.35C647.06 35.05 648.11 35.4 649.543 35.4C649.976 35.4 650.426 35.35 650.893 35.25C651.393 35.15 651.926 35.0167 652.493 34.85L653.593 40.35C652.893 40.7167 652.06 41 651.093 41.2C650.126 41.4333 649.176 41.55 648.243 41.55ZM667.964 41.55C665.33 41.55 663.03 41.0333 661.064 40C659.13 38.9333 657.63 37.45 656.564 35.55C655.497 33.6167 654.964 31.3333 654.964 28.7C654.964 26.1 655.497 23.85 656.564 21.95C657.63 20.0167 659.13 18.5333 661.064 17.5C663.03 16.4667 665.33 15.95 667.964 15.95C670.597 15.95 672.88 16.4667 674.814 17.5C676.78 18.5333 678.297 20.0167 679.364 21.95C680.464 23.85 681.014 26.1 681.014 28.7C681.014 31.3333 680.464 33.6167 679.364 35.55C678.297 37.45 676.78 38.9333 674.814 40C672.88 41.0333 670.597 41.55 667.964 41.55ZM667.964 35.9C669.564 35.9 670.864 35.3167 671.864 34.15C672.897 32.9833 673.414 31.1667 673.414 28.7C673.414 26.2667 672.897 24.4833 671.864 23.35C670.864 22.1833 669.564 21.6 667.964 21.6C666.364 21.6 665.064 22.1833 664.064 23.35C663.064 24.4833 662.564 26.2667 662.564 28.7C662.564 31.1667 663.064 32.9833 664.064 34.15C665.064 35.3167 666.364 35.9 667.964 35.9ZM697.413 41.55C690.513 41.55 687.063 38.2 687.063 31.5V22.1H682.413V16.45H687.063V9.25H694.613V16.45H701.863V22.1H694.613V31.2C694.613 32.6 694.93 33.65 695.563 34.35C696.23 35.05 697.28 35.4 698.713 35.4C699.146 35.4 699.596 35.35 700.063 35.25C700.563 35.15 701.096 35.0167 701.663 34.85L702.763 40.35C702.063 40.7167 701.23 41 700.263 41.2C699.296 41.4333 698.346 41.55 697.413 41.55ZM713.878 41.55C712.044 41.55 710.428 41.2 709.028 40.5C707.628 39.8 706.511 38.85 705.678 37.65C704.878 36.45 704.478 35.1 704.478 33.6C704.478 31.8333 704.944 30.4167 705.878 29.35C706.811 28.2833 708.328 27.5333 710.428 27.1C712.528 26.6333 715.311 26.4 718.778 26.4H720.578V25.55C720.578 24.0833 720.244 23.05 719.578 22.45C718.911 21.8167 717.778 21.5 716.178 21.5C714.844 21.5 713.428 21.7167 711.928 22.15C710.461 22.55 708.994 23.1667 707.528 24L705.478 18.95C706.344 18.3833 707.394 17.8667 708.628 17.4C709.894 16.9333 711.211 16.5833 712.578 16.35C713.944 16.0833 715.244 15.95 716.478 15.95C720.278 15.95 723.111 16.8167 724.978 18.55C726.844 20.25 727.778 22.9 727.778 26.5V41H720.728V37.3C720.228 38.6 719.378 39.6333 718.178 40.4C717.011 41.1667 715.578 41.55 713.878 41.55ZM715.578 36.5C716.978 36.5 718.161 36.0167 719.128 35.05C720.094 34.0833 720.578 32.8333 720.578 31.3V30.3H718.828C716.261 30.3 714.444 30.5333 713.378 31C712.311 31.4333 711.778 32.2 711.778 33.3C711.778 34.2333 712.094 35 712.728 35.6C713.394 36.2 714.344 36.5 715.578 36.5ZM742.56 41.55C739.393 41.55 737.076 40.7333 735.61 39.1C734.143 37.4333 733.41 34.9667 733.41 31.7V5.75H740.96V31.4C740.96 34.0667 742.143 35.4 744.51 35.4C744.876 35.4 745.226 35.3833 745.56 35.35C745.926 35.3167 746.276 35.25 746.61 35.15L746.51 41C745.243 41.3667 743.926 41.55 742.56 41.55ZM773.126 41.55C769.96 41.55 767.643 40.7333 766.176 39.1C764.71 37.4333 763.976 34.9667 763.976 31.7V5.75H771.526V31.4C771.526 34.0667 772.71 35.4 775.076 35.4C775.443 35.4 775.793 35.3833 776.126 35.35C776.493 35.3167 776.843 35.25 777.176 35.15L777.076 41C775.81 41.3667 774.493 41.55 773.126 41.55ZM793.132 41.55C790.232 41.55 787.732 41.0333 785.632 40C783.566 38.9333 781.966 37.45 780.832 35.55C779.732 33.6167 779.182 31.35 779.182 28.75C779.182 26.2167 779.716 24 780.782 22.1C781.882 20.1667 783.366 18.6667 785.232 17.6C787.132 16.5 789.316 15.95 791.782 15.95C795.349 15.95 798.182 17.0833 800.282 19.35C802.382 21.5833 803.432 24.6167 803.432 28.45V30.35H786.382C786.649 32.2833 787.349 33.7 788.482 34.6C789.649 35.4667 791.249 35.9 793.282 35.9C794.616 35.9 795.966 35.7 797.332 35.3C798.699 34.9 799.932 34.2833 801.032 33.45L803.032 38.5C801.799 39.4333 800.282 40.1833 798.482 40.75C796.716 41.2833 794.932 41.55 793.132 41.55ZM792.082 20.95C790.482 20.95 789.182 21.4333 788.182 22.4C787.216 23.3667 786.616 24.7167 786.382 26.45H797.182C796.982 22.7833 795.282 20.95 792.082 20.95ZM816.124 41.55C814.29 41.55 812.674 41.2 811.274 40.5C809.874 39.8 808.757 38.85 807.924 37.65C807.124 36.45 806.724 35.1 806.724 33.6C806.724 31.8333 807.19 30.4167 808.124 29.35C809.057 28.2833 810.574 27.5333 812.674 27.1C814.774 26.6333 817.557 26.4 821.024 26.4H822.824V25.55C822.824 24.0833 822.49 23.05 821.824 22.45C821.157 21.8167 820.024 21.5 818.424 21.5C817.09 21.5 815.674 21.7167 814.174 22.15C812.707 22.55 811.24 23.1667 809.774 24L807.724 18.95C808.59 18.3833 809.64 17.8667 810.874 17.4C812.14 16.9333 813.457 16.5833 814.824 16.35C816.19 16.0833 817.49 15.95 818.724 15.95C822.524 15.95 825.357 16.8167 827.224 18.55C829.09 20.25 830.024 22.9 830.024 26.5V41H822.974V37.3C822.474 38.6 821.624 39.6333 820.424 40.4C819.257 41.1667 817.824 41.55 816.124 41.55ZM817.824 36.5C819.224 36.5 820.407 36.0167 821.374 35.05C822.34 34.0833 822.824 32.8333 822.824 31.3V30.3H821.074C818.507 30.3 816.69 30.5333 815.624 31C814.557 31.4333 814.024 32.2 814.024 33.3C814.024 34.2333 814.34 35 814.974 35.6C815.64 36.2 816.59 36.5 817.824 36.5ZM835.656 41V16.45H843.056V20.7C844.223 17.8333 846.723 16.25 850.556 15.95L852.756 15.8L853.206 22.15L848.956 22.6C845.223 22.9667 843.356 24.8667 843.356 28.3V41H835.656ZM856.261 41V16.45H863.661V20.05C864.495 18.7167 865.611 17.7 867.011 17C868.411 16.3 869.978 15.95 871.711 15.95C874.611 15.95 876.778 16.8 878.211 18.5C879.645 20.1667 880.361 22.75 880.361 26.25V41H872.811V26.6C872.811 24.9 872.495 23.6833 871.861 22.95C871.228 22.1833 870.295 21.8 869.061 21.8C867.461 21.8 866.178 22.3 865.211 23.3C864.278 24.3 863.811 25.6333 863.811 27.3V41H856.261ZM898.748 41.55C895.848 41.55 893.348 41.0333 891.248 40C889.181 38.9333 887.581 37.45 886.448 35.55C885.348 33.6167 884.798 31.35 884.798 28.75C884.798 26.2167 885.331 24 886.398 22.1C887.498 20.1667 888.981 18.6667 890.848 17.6C892.748 16.5 894.931 15.95 897.398 15.95C900.964 15.95 903.798 17.0833 905.898 19.35C907.998 21.5833 909.048 24.6167 909.048 28.45V30.35H891.998C892.264 32.2833 892.964 33.7 894.098 34.6C895.264 35.4667 896.864 35.9 898.898 35.9C900.231 35.9 901.581 35.7 902.948 35.3C904.314 34.9 905.548 34.2833 906.648 33.45L908.648 38.5C907.414 39.4333 905.898 40.1833 904.098 40.75C902.331 41.2833 900.548 41.55 898.748 41.55ZM897.698 20.95C896.098 20.95 894.798 21.4333 893.798 22.4C892.831 23.3667 892.231 24.7167 891.998 26.45H902.798C902.598 22.7833 900.898 20.95 897.698 20.95ZM913.439 41V16.45H920.839V20.7C922.006 17.8333 924.506 16.25 928.339 15.95L930.539 15.8L930.989 22.15L926.739 22.6C923.006 22.9667 921.139 24.8667 921.139 28.3V41H913.439ZM943.2 41.55C941.034 41.55 939.017 41.3 937.15 40.8C935.284 40.3 933.734 39.6167 932.5 38.75L934.3 33.85C935.534 34.6167 936.934 35.2333 938.5 35.7C940.1 36.1333 941.684 36.35 943.25 36.35C944.65 36.35 945.684 36.1333 946.35 35.7C947.017 35.2333 947.35 34.6333 947.35 33.9C947.35 32.7333 946.5 32 944.8 31.7L939.55 30.75C937.45 30.3833 935.85 29.6333 934.75 28.5C933.65 27.3667 933.1 25.8833 933.1 24.05C933.1 22.3833 933.567 20.95 934.5 19.75C935.434 18.55 936.717 17.6167 938.35 16.95C939.984 16.2833 941.867 15.95 944 15.95C945.767 15.95 947.484 16.1833 949.15 16.65C950.817 17.0833 952.25 17.7833 953.45 18.75L951.55 23.6C950.55 22.8667 949.35 22.2667 947.95 21.8C946.584 21.3333 945.3 21.1 944.1 21.1C942.6 21.1 941.517 21.35 940.85 21.85C940.184 22.3167 939.85 22.9167 939.85 23.65C939.85 24.8167 940.634 25.55 942.2 25.85L947.45 26.8C949.617 27.1667 951.267 27.9 952.4 29C953.534 30.0667 954.1 31.5333 954.1 33.4C954.1 35.9667 953.1 37.9667 951.1 39.4C949.1 40.8333 946.467 41.55 943.2 41.55Z" fill="#0093EC"/>
<path d="M550.696 91.55C548.529 91.55 546.512 91.3 544.646 90.8C542.779 90.3 541.229 89.6167 539.996 88.75L541.796 83.85C543.029 84.6167 544.429 85.2333 545.996 85.7C547.596 86.1333 549.179 86.35 550.746 86.35C552.146 86.35 553.179 86.1333 553.846 85.7C554.512 85.2333 554.846 84.6333 554.846 83.9C554.846 82.7333 553.996 82 552.296 81.7L547.046 80.75C544.946 80.3833 543.346 79.6333 542.246 78.5C541.146 77.3667 540.596 75.8833 540.596 74.05C540.596 72.3833 541.062 70.95 541.996 69.75C542.929 68.55 544.212 67.6167 545.846 66.95C547.479 66.2833 549.362 65.95 551.496 65.95C553.262 65.95 554.979 66.1833 556.646 66.65C558.312 67.0833 559.746 67.7833 560.946 68.75L559.046 73.6C558.046 72.8667 556.846 72.2667 555.446 71.8C554.079 71.3333 552.796 71.1 551.596 71.1C550.096 71.1 549.012 71.35 548.346 71.85C547.679 72.3167 547.346 72.9167 547.346 73.65C547.346 74.8167 548.129 75.55 549.696 75.85L554.946 76.8C557.112 77.1667 558.762 77.9 559.896 79C561.029 80.0667 561.596 81.5333 561.596 83.4C561.596 85.9667 560.596 87.9667 558.596 89.4C556.596 90.8333 553.962 91.55 550.696 91.55ZM565.605 61.7V54.65H573.755V61.7H565.605ZM565.905 91V66.45H573.455V91H565.905ZM579.284 91V66.45H586.684V70.05C587.517 68.7167 588.634 67.7 590.034 67C591.434 66.3 593 65.95 594.734 65.95C597.634 65.95 599.8 66.8 601.234 68.5C602.667 70.1667 603.384 72.75 603.384 76.25V91H595.834V76.6C595.834 74.9 595.517 73.6833 594.884 72.95C594.25 72.1833 593.317 71.8 592.084 71.8C590.484 71.8 589.2 72.3 588.234 73.3C587.3 74.3 586.834 75.6333 586.834 77.3V91H579.284ZM620.97 91.55C618.303 91.55 615.97 91.0333 613.97 90C612.003 88.9333 610.487 87.4333 609.42 85.5C608.353 83.5667 607.82 81.2833 607.82 78.65C607.82 76.0167 608.353 73.75 609.42 71.85C610.487 69.95 612.003 68.5 613.97 67.5C615.97 66.4667 618.303 65.95 620.97 65.95C622.537 65.95 624.12 66.1833 625.72 66.65C627.32 67.1167 628.62 67.7833 629.62 68.65L627.52 73.85C626.687 73.1833 625.753 72.6667 624.72 72.3C623.687 71.9 622.687 71.7 621.72 71.7C619.753 71.7 618.22 72.3167 617.12 73.55C616.053 74.75 615.52 76.4667 615.52 78.7C615.52 80.9 616.053 82.6333 617.12 83.9C618.22 85.1333 619.753 85.75 621.72 85.75C622.653 85.75 623.637 85.5667 624.67 85.2C625.737 84.8333 626.687 84.3 627.52 83.6L629.62 88.8C628.62 89.6667 627.32 90.35 625.72 90.85C624.12 91.3167 622.537 91.55 620.97 91.55ZM645.159 91.55C642.259 91.55 639.759 91.0333 637.659 90C635.592 88.9333 633.992 87.45 632.859 85.55C631.759 83.6167 631.209 81.35 631.209 78.75C631.209 76.2167 631.742 74 632.809 72.1C633.909 70.1667 635.392 68.6667 637.259 67.6C639.159 66.5 641.342 65.95 643.809 65.95C647.375 65.95 650.209 67.0833 652.309 69.35C654.409 71.5833 655.459 74.6167 655.459 78.45V80.35H638.409C638.675 82.2833 639.375 83.7 640.509 84.6C641.675 85.4667 643.275 85.9 645.309 85.9C646.642 85.9 647.992 85.7 649.359 85.3C650.725 84.9 651.959 84.2833 653.059 83.45L655.059 88.5C653.825 89.4333 652.309 90.1833 650.509 90.75C648.742 91.2833 646.959 91.55 645.159 91.55ZM644.109 70.95C642.509 70.95 641.209 71.4333 640.209 72.4C639.242 73.3667 638.642 74.7167 638.409 76.45H649.209C649.009 72.7833 647.309 70.95 644.109 70.95ZM670.366 91L686.566 55.75H692.816L709.016 91H701.216L697.916 83.35H681.466L678.216 91H670.366ZM689.616 64L684.066 77.3H695.366L689.716 64H689.616ZM720.463 91.55C717.329 91.55 715.013 90.6833 713.513 88.95C712.046 87.2167 711.313 84.6167 711.313 81.15V66.45H718.863V81.35C718.863 84.25 720.113 85.7 722.613 85.7C724.046 85.7 725.213 85.2 726.113 84.2C727.046 83.1667 727.513 81.8167 727.513 80.15V66.45H735.063V91H727.713V87.65C726.079 90.25 723.663 91.55 720.463 91.55ZM752.705 100.55C750.338 100.55 748.122 100.3 746.055 99.8C744.022 99.3 742.238 98.5167 740.705 97.45L742.755 92.3C744.088 93.1333 745.588 93.7667 747.255 94.2C748.955 94.6667 750.555 94.9 752.055 94.9C756.322 94.9 758.455 92.9333 758.455 89V86.2C757.788 87.4667 756.738 88.4833 755.305 89.25C753.872 90.0167 752.305 90.4 750.605 90.4C748.405 90.4 746.488 89.9 744.855 88.9C743.222 87.8667 741.955 86.4333 741.055 84.6C740.155 82.7667 739.705 80.6167 739.705 78.15C739.705 75.7167 740.155 73.5833 741.055 71.75C741.955 69.9167 743.222 68.5 744.855 67.5C746.488 66.4667 748.405 65.95 750.605 65.95C752.372 65.95 753.955 66.3333 755.355 67.1C756.755 67.8667 757.788 68.8833 758.455 70.15V66.45H765.805V88.15C765.805 92.2833 764.688 95.3833 762.455 97.45C760.222 99.5167 756.972 100.55 752.705 100.55ZM752.855 84.75C754.522 84.75 755.855 84.1667 756.855 83C757.888 81.8333 758.405 80.2167 758.405 78.15C758.405 76.0833 757.888 74.4833 756.855 73.35C755.855 72.1833 754.522 71.6 752.855 71.6C751.155 71.6 749.805 72.1833 748.805 73.35C747.805 74.4833 747.305 76.0833 747.305 78.15C747.305 80.2167 747.805 81.8333 748.805 83C749.805 84.1667 751.155 84.75 752.855 84.75ZM786.383 91V85.25L797.433 73.65C798.833 72.1167 799.833 70.7833 800.433 69.65C801.066 68.4833 801.383 67.3167 801.383 66.15C801.383 63.15 799.533 61.65 795.833 61.65C794.399 61.65 792.966 61.9333 791.533 62.5C790.099 63.0333 788.699 63.8667 787.333 65L784.833 59.3C786.299 58.0333 788.099 57.0333 790.233 56.3C792.399 55.5667 794.616 55.2 796.883 55.2C800.816 55.2 803.816 56.0833 805.883 57.85C807.983 59.5833 809.033 62.0667 809.033 65.3C809.033 67.4333 808.533 69.4833 807.533 71.45C806.566 73.3833 804.966 75.4833 802.733 77.75L795.933 84.65H810.333V91H786.383ZM827.663 91.55C823.396 91.55 820.13 89.9667 817.863 86.8C815.63 83.6333 814.513 79.1167 814.513 73.25C814.513 67.3833 815.63 62.9167 817.863 59.85C820.13 56.75 823.396 55.2 827.663 55.2C831.93 55.2 835.18 56.75 837.413 59.85C839.68 62.9167 840.813 67.3833 840.813 73.25C840.813 79.1167 839.68 83.6333 837.413 86.8C835.18 89.9667 831.93 91.55 827.663 91.55ZM827.663 85.25C829.596 85.25 831.03 84.3 831.963 82.4C832.896 80.4667 833.363 77.4167 833.363 73.25C833.363 69.0833 832.896 66.0833 831.963 64.25C831.03 62.4167 829.596 61.5 827.663 61.5C825.73 61.5 824.296 62.4167 823.363 64.25C822.43 66.0833 821.963 69.0833 821.963 73.25C821.963 77.4167 822.43 80.4667 823.363 82.4C824.296 84.3 825.73 85.25 827.663 85.25ZM847.644 91V84.65H855.544V64.4L849.494 67.95L846.544 62.3L857.794 55.75H863.294V84.65H870.694V91H847.644ZM884.724 91.55C882.824 91.55 880.941 91.2167 879.074 90.55C877.241 89.8833 875.624 88.9333 874.224 87.7L876.724 81.95C877.924 82.9833 879.207 83.7667 880.574 84.3C881.974 84.8333 883.391 85.1 884.824 85.1C890.324 85.1 893.074 81.5167 893.074 74.35V73.4C892.374 75.0333 891.291 76.3167 889.824 77.25C888.357 78.1833 886.657 78.65 884.724 78.65C882.757 78.65 880.991 78.1667 879.424 77.2C877.857 76.2 876.624 74.85 875.724 73.15C874.824 71.4167 874.374 69.45 874.374 67.25C874.374 64.9167 874.874 62.85 875.874 61.05C876.907 59.2167 878.307 57.7833 880.074 56.75C881.874 55.7167 883.941 55.2 886.274 55.2C890.807 55.2 894.291 56.75 896.724 59.85C899.157 62.9167 900.374 67.2667 900.374 72.9C900.374 76.8333 899.741 80.1833 898.474 82.95C897.241 85.7167 895.457 87.85 893.124 89.35C890.791 90.8167 887.991 91.55 884.724 91.55ZM886.724 72.6C888.257 72.6 889.507 72.0833 890.474 71.05C891.441 69.9833 891.924 68.6167 891.924 66.95C891.924 65.25 891.441 63.8667 890.474 62.8C889.507 61.7333 888.257 61.2 886.724 61.2C885.191 61.2 883.941 61.7333 882.974 62.8C882.007 63.8667 881.524 65.25 881.524 66.95C881.524 68.6167 882.007 69.9833 882.974 71.05C883.941 72.0833 885.191 72.6 886.724 72.6Z" fill="#3F3D56"/>
<path d="M587.243 724V720.55L593.873 713.59C594.713 712.67 595.313 711.87 595.673 711.19C596.053 710.49 596.243 709.79 596.243 709.09C596.243 707.29 595.133 706.39 592.913 706.39C592.053 706.39 591.193 706.56 590.333 706.9C589.473 707.22 588.633 707.72 587.813 708.4L586.313 704.98C587.193 704.22 588.273 703.62 589.553 703.18C590.853 702.74 592.183 702.52 593.543 702.52C595.903 702.52 597.703 703.05 598.943 704.11C600.203 705.15 600.833 706.64 600.833 708.58C600.833 709.86 600.533 711.09 599.933 712.27C599.353 713.43 598.393 714.69 597.053 716.05L592.973 720.19H601.613V724H587.243ZM612.012 724.33C609.452 724.33 607.492 723.38 606.132 721.48C604.792 719.58 604.122 716.87 604.122 713.35C604.122 709.83 604.792 707.15 606.132 705.31C607.492 703.45 609.452 702.52 612.012 702.52C614.572 702.52 616.522 703.45 617.862 705.31C619.222 707.15 619.902 709.83 619.902 713.35C619.902 716.87 619.222 719.58 617.862 721.48C616.522 723.38 614.572 724.33 612.012 724.33ZM612.012 720.55C613.172 720.55 614.032 719.98 614.592 718.84C615.152 717.68 615.432 715.85 615.432 713.35C615.432 710.85 615.152 709.05 614.592 707.95C614.032 706.85 613.172 706.3 612.012 706.3C610.852 706.3 609.992 706.85 609.432 707.95C608.872 709.05 608.592 710.85 608.592 713.35C608.592 715.85 608.872 717.68 609.432 718.84C609.992 719.98 610.852 720.55 612.012 720.55ZM623.22 724V720.55L629.85 713.59C630.69 712.67 631.29 711.87 631.65 711.19C632.03 710.49 632.22 709.79 632.22 709.09C632.22 707.29 631.11 706.39 628.89 706.39C628.03 706.39 627.17 706.56 626.31 706.9C625.45 707.22 624.61 707.72 623.79 708.4L622.29 704.98C623.17 704.22 624.25 703.62 625.53 703.18C626.83 702.74 628.16 702.52 629.52 702.52C631.88 702.52 633.68 703.05 634.92 704.11C636.18 705.15 636.81 706.64 636.81 708.58C636.81 709.86 636.51 711.09 635.91 712.27C635.33 713.43 634.37 714.69 633.03 716.05L628.95 720.19H637.59V724H623.22ZM647.478 724.33C645.998 724.33 644.588 724.12 643.248 723.7C641.908 723.28 640.808 722.71 639.948 721.99L641.418 718.48C643.198 719.8 645.158 720.46 647.298 720.46C649.738 720.46 650.958 719.55 650.958 717.73C650.958 716.05 649.818 715.21 647.538 715.21H643.998V711.46H647.088C648.088 711.46 648.878 711.23 649.458 710.77C650.038 710.31 650.328 709.67 650.328 708.85C650.328 707.21 649.258 706.39 647.118 706.39C645.118 706.39 643.338 707.06 641.778 708.4L640.308 704.98C641.188 704.2 642.268 703.6 643.548 703.18C644.828 702.74 646.158 702.52 647.538 702.52C649.818 702.52 651.598 703.03 652.878 704.05C654.158 705.07 654.798 706.47 654.798 708.25C654.798 709.35 654.518 710.32 653.958 711.16C653.398 712 652.618 712.61 651.618 712.99C652.818 713.33 653.748 713.96 654.408 714.88C655.088 715.78 655.428 716.87 655.428 718.15C655.428 720.07 654.718 721.58 653.298 722.68C651.878 723.78 649.938 724.33 647.478 724.33Z" fill="#0093EC"/>
<path d="M781.994 674.556L769.734 674.555L763.902 627.268H781.996L781.994 674.556Z" fill="#9E616A"/>
<path d="M785.121 686.44L745.59 686.438V685.938C745.59 681.858 747.211 677.944 750.097 675.059C752.982 672.174 756.896 670.552 760.976 670.552H760.977L785.121 670.553L785.121 686.44Z" fill="#2F2E41"/>
<path d="M734.994 674.556L722.734 674.555L716.902 627.268H734.996L734.994 674.556Z" fill="#9E616A"/>
<path d="M738.121 686.44L698.59 686.438V685.938C698.59 681.858 700.211 677.944 703.097 675.059C705.982 672.174 709.896 670.552 713.976 670.552H713.977L738.121 670.553L738.121 686.44Z" fill="#2F2E41"/>
<path d="M335 687.083V335.172C335 333.005 335.929 330.926 337.583 329.394C339.237 327.861 341.481 327 343.82 327H383.18C385.519 327 387.763 327.861 389.417 329.394C391.071 330.926 392 333.005 392 335.172V335.172V688L335 687.083Z" fill="#3F3D56"/>
<path d="M205 688V492.704C205 491.191 205.929 489.74 207.583 488.671C209.237 487.601 211.481 487 213.82 487H253.18C255.519 487 257.763 487.601 259.417 488.671C261.071 489.74 262 491.191 262 492.704V687.58L205 688Z" fill="#3F3D56"/>
<path d="M104.391 518.259C103.811 518.258 103.244 518.091 102.758 517.775C102.272 517.46 101.888 517.01 101.652 516.481C101.416 515.952 101.338 515.366 101.428 514.794C101.518 514.222 101.771 513.687 102.158 513.256L229.5 431L363.5 275L493.5 181.5L627.484 130.877C632 129.5 632 134.5 627.484 136.006L493.5 186.623L366.942 279.564L233.5 434L106.625 517.261C106.344 517.575 106 517.827 105.615 517.999C105.23 518.171 104.813 518.259 104.391 518.259Z" fill="#3F3D56"/>
<path d="M104 543C119.464 543 132 530.464 132 515C132 499.536 119.464 487 104 487C88.536 487 76 499.536 76 515C76 530.464 88.536 543 104 543Z" fill="#00B0FF"/>
<path d="M234 462C249.464 462 262 449.464 262 434C262 418.536 249.464 406 234 406C218.536 406 206 418.536 206 434C206 449.464 218.536 462 234 462Z" fill="#CCCCCC"/>
<path d="M364 305C379.464 305 392 292.464 392 277C392 261.536 379.464 249 364 249C348.536 249 336 261.536 336 277C336 292.464 348.536 305 364 305Z" fill="#E6E6E6"/>
<path d="M494 214C509.464 214 522 201.464 522 186C522 170.536 509.464 158 494 158C478.536 158 466 170.536 466 186C466 201.464 478.536 214 494 214Z" fill="#00B0FF"/>
<path d="M743.832 264.535C759.296 264.535 771.832 251.999 771.832 236.535C771.832 221.071 759.296 208.535 743.832 208.535C728.368 208.535 715.832 221.071 715.832 236.535C715.832 251.999 728.368 264.535 743.832 264.535Z" fill="#00B0FF"/>
<path d="M733.932 454.656C744.412 455.918 771.211 446.358 772.663 460.902C786.457 501.507 786.048 657.159 786.048 657.159L765.048 658.159C765.048 658.159 748.267 534.484 740.332 508.026C736.35 540.185 737.048 663.159 737.048 663.159L718.048 664.159C718.048 664.159 701.005 559.441 700.908 528.706C698.836 506.192 703.916 472.83 701.742 451.066C712.133 454.359 723.071 455.579 733.932 454.656L733.932 454.656Z" fill="#3F3D56"/>
<path d="M465 684.92V247.166C465 241.552 468.949 237 473.82 237H513.18C518.051 237 522 241.551 522 247.166V686.066L465 684.92Z" fill="#3F3D56"/>
<path d="M698.282 336.856C694.079 328.263 688.945 320.158 682.972 312.686C681.724 311.227 680.587 309.676 679.572 308.046C677.422 304.316 676.782 299.936 675.422 295.856C671.622 284.416 662.142 275.226 659.832 263.396C658.992 259.096 651.896 271.594 653.762 276.926C657.092 286.576 657.522 296.796 661.762 306.116C666.002 315.436 670.982 324.376 674.642 333.906C676.722 339.316 678.382 344.906 681.432 349.906C684.482 354.906 689.242 359.096 694.992 359.846C694.953 356.221 695.504 352.614 696.622 349.166C697.872 345.226 700.092 340.586 698.282 336.856Z" fill="#9E616A"/>
<path d="M761.192 343.336C760.935 336.265 762.038 329.211 764.442 322.556C765.362 320.006 766.442 317.416 766.352 314.706C766.222 312.186 765.022 309.876 763.932 307.596C760.172 299.746 757.532 291.426 754.932 283.126L749.932 267.476C748.302 266.281 757.822 265.866 759.852 268.676C766.492 277.896 771.522 288.486 776.782 298.556C778.124 300.956 779.267 303.461 780.202 306.046C781.487 310.236 782.094 314.604 782.002 318.986C782.002 327.176 780.922 335.336 779.802 343.456C779.092 348.546 778.162 354.086 774.312 357.456C770.312 352.336 766.292 347.336 761.192 343.336Z" fill="#9E616A"/>
<path d="M734.752 335.234C746.212 335.234 755.502 325.944 755.502 314.484C755.502 303.024 746.212 293.734 734.752 293.734C723.292 293.734 714.002 303.024 714.002 314.484C714.002 325.944 723.292 335.234 734.752 335.234Z" fill="#9E616A"/>
<path d="M717.884 293.782C717.651 293.152 717.599 292.47 717.733 291.812C717.867 291.154 718.183 290.547 718.644 290.059C719.162 289.65 719.85 289.498 720.405 289.108C721.195 288.444 721.841 287.627 722.305 286.705C723.722 284.722 725.797 283.304 728.16 282.704C730.523 282.104 733.022 282.361 735.214 283.428C738.643 285.223 740.713 288.817 743.763 291.237C745.311 292.491 747.107 293.421 748.665 294.675C751.785 297.37 754.003 300.958 755.019 304.953C756.031 308.922 756.621 312.986 756.781 317.078C756.943 318.306 756.895 319.552 756.639 320.764C756.323 321.78 755.853 322.741 755.243 323.614C752.108 328.363 747.977 332.676 742.799 335.127C737.622 337.577 731.325 337.976 726.219 335.412C725.705 335.204 725.263 334.851 724.946 334.395C724.656 333.702 724.587 332.936 724.747 332.201C725.024 329.298 724.45 326.377 723.094 323.795C722.144 321.895 720.719 320.261 719.96 318.295C719.253 316.095 718.95 313.784 719.066 311.476C718.976 305.494 719.382 299.539 717.884 293.782Z" fill="#2D293D"/>
<path d="M75 685.695V568.717C75 567.217 78.949 566 83.82 566H123.18C128.051 566 132 567.218 132 568.717V686L75 685.695Z" fill="#3F3D56"/>
<path d="M846.169 687.802H27C26.7348 687.802 26.4804 687.697 26.2929 687.509C26.1054 687.322 26 687.067 26 686.802C26 686.537 26.1054 686.282 26.2929 686.095C26.4804 685.907 26.7348 685.802 27 685.802H846.168C846.433 685.802 846.688 685.907 846.875 686.095C847.063 686.282 847.168 686.537 847.168 686.802C847.168 687.067 847.063 687.322 846.875 687.509C846.688 687.697 846.433 687.802 846.168 687.802H846.169Z" fill="#E6E6E6"/>
<path d="M592 687.671V177.839C592 171.301 595.949 166 600.82 166H640.18C645.051 166 649 171.301 649 177.839V689L592 687.671Z" fill="#00B0FF"/>
<path d="M653.183 274.365C658.153 274.365 662.183 270.336 662.183 265.365C662.183 260.395 658.153 256.365 653.183 256.365C648.212 256.365 644.183 260.395 644.183 265.365C644.183 270.336 648.212 274.365 653.183 274.365Z" fill="#A0616A"/>
<path d="M753.183 270.365C758.153 270.365 762.183 266.336 762.183 261.365C762.183 256.395 758.153 252.365 753.183 252.365C748.212 252.365 744.183 256.395 744.183 261.365C744.183 266.336 748.212 270.365 753.183 270.365Z" fill="#A0616A"/>
<path d="M775.052 372.776C775.93 371.972 783.09 330.102 783.048 329.159C782.937 324 767.198 318.109 764.048 320.159C761.076 322.093 755.901 344.283 752.571 348.324L749.048 342.159H721.048L719.351 345.31C715.677 343.097 712.372 341.056 711.193 340.381C710.788 340.107 710.347 339.89 709.882 339.736C706.972 339.085 704.24 337.802 701.882 335.976C699.582 334.206 688.908 315.669 686.048 316.159C682.818 316.699 671.923 326.119 672.048 335.159C673.419 335.129 691.262 370.806 691.512 372.136C692.882 377.756 697.406 459.716 698.866 463.536C705.592 462.886 700.282 461.726 706.792 463.536C713.802 465.486 721.202 463.376 728.432 462.596C731.442 462.298 734.467 462.164 737.492 462.196C748.492 462.246 764.192 462.856 774.842 465.586C774.902 458.606 768.772 443.506 766.502 436.916C766.205 434.946 766.215 432.943 766.532 430.976C766.822 428.566 772.678 375.441 775.052 372.776Z" fill="#E6E6E6"/>
</svg>
