<svg width="946" height="733" viewBox="0 0 946 733" fill="none" xmlns="http://www.w3.org/2000/svg">
<path d="M295.651 53.55C292.184 53.55 289.134 52.8 286.501 51.3C283.901 49.7667 281.868 47.65 280.401 44.95C278.968 42.2167 278.251 39.0167 278.251 35.35C278.251 31.6833 278.968 28.5 280.401 25.8C281.868 23.0667 283.901 20.95 286.501 19.45C289.101 17.95 292.151 17.2 295.651 17.2C299.151 17.2 302.201 17.95 304.801 19.45C307.434 20.95 309.468 23.0667 310.901 25.8C312.368 28.5 313.101 31.6667 313.101 35.3C313.101 38.9667 312.368 42.1667 310.901 44.9C309.468 47.6333 307.434 49.7667 304.801 51.3C302.201 52.8 299.151 53.55 295.651 53.55ZM295.651 46.95C298.584 46.95 300.868 45.9333 302.501 43.9C304.168 41.8333 305.001 38.9833 305.001 35.35C305.001 31.6833 304.184 28.85 302.551 26.85C300.918 24.8167 298.618 23.8 295.651 23.8C292.751 23.8 290.468 24.8167 288.801 26.85C287.168 28.85 286.351 31.6833 286.351 35.35C286.351 38.9833 287.168 41.8333 288.801 43.9C290.468 45.9333 292.751 46.95 295.651 46.95ZM325.696 53L314.996 28.45H322.946L329.096 44.05L335.446 28.45H342.896L332.046 53H325.696ZM357.319 53.55C354.419 53.55 351.919 53.0333 349.819 52C347.752 50.9333 346.152 49.45 345.019 47.55C343.919 45.6167 343.369 43.35 343.369 40.75C343.369 38.2167 343.902 36 344.969 34.1C346.069 32.1667 347.552 30.6667 349.419 29.6C351.319 28.5 353.502 27.95 355.969 27.95C359.536 27.95 362.369 29.0833 364.469 31.35C366.569 33.5833 367.619 36.6167 367.619 40.45V42.35H350.569C350.836 44.2833 351.536 45.7 352.669 46.6C353.836 47.4667 355.436 47.9 357.469 47.9C358.802 47.9 360.152 47.7 361.519 47.3C362.886 46.9 364.119 46.2833 365.219 45.45L367.219 50.5C365.986 51.4333 364.469 52.1833 362.669 52.75C360.902 53.2833 359.119 53.55 357.319 53.55ZM356.269 32.95C354.669 32.95 353.369 33.4333 352.369 34.4C351.402 35.3667 350.802 36.7167 350.569 38.45H361.369C361.169 34.7833 359.469 32.95 356.269 32.95ZM372.01 53V28.45H379.41V32.7C380.577 29.8333 383.077 28.25 386.91 27.95L389.11 27.8L389.56 34.15L385.31 34.6C381.577 34.9667 379.71 36.8667 379.71 40.3V53H372.01ZM408.632 53V46.65H416.532V26.4L410.482 29.95L407.532 24.3L418.782 17.75H424.282V46.65H431.682V53H408.632ZM450.528 53V28.45H457.928V32C458.662 30.7333 459.662 29.75 460.928 29.05C462.228 28.3167 463.728 27.95 465.428 27.95C467.162 27.95 468.628 28.3333 469.828 29.1C471.062 29.8667 471.995 31.0333 472.628 32.6C473.395 31.1333 474.495 30 475.928 29.2C477.395 28.3667 479.012 27.95 480.778 27.95C483.578 27.95 485.662 28.8 487.028 30.5C488.395 32.1667 489.078 34.75 489.078 38.25V53H481.528V38.5C481.528 36.8667 481.262 35.6833 480.728 34.95C480.228 34.1833 479.362 33.8 478.128 33.8C476.695 33.8 475.578 34.3 474.778 35.3C473.978 36.3 473.578 37.7167 473.578 39.55V53H466.028V38.5C466.028 36.8667 465.762 35.6833 465.228 34.95C464.695 34.1833 463.828 33.8 462.628 33.8C461.195 33.8 460.078 34.3 459.278 35.3C458.478 36.3 458.078 37.7167 458.078 39.55V53H450.528ZM494.562 23.7V16.65H502.712V23.7H494.562ZM494.862 53V28.45H502.412V53H494.862ZM517.391 53.55C514.224 53.55 511.907 52.7333 510.441 51.1C508.974 49.4333 508.241 46.9667 508.241 43.7V17.75H515.791V43.4C515.791 46.0667 516.974 47.4 519.341 47.4C519.707 47.4 520.057 47.3833 520.391 47.35C520.757 47.3167 521.107 47.25 521.441 47.15L521.341 53C520.074 53.3667 518.757 53.55 517.391 53.55ZM534.041 53.55C530.875 53.55 528.558 52.7333 527.091 51.1C525.625 49.4333 524.891 46.9667 524.891 43.7V17.75H532.441V43.4C532.441 46.0667 533.625 47.4 535.991 47.4C536.358 47.4 536.708 47.3833 537.041 47.35C537.408 47.3167 537.758 47.25 538.091 47.15L537.991 53C536.725 53.3667 535.408 53.55 534.041 53.55ZM541.242 23.7V16.65H549.392V23.7H541.242ZM541.542 53V28.45H549.092V53H541.542ZM566.721 53.55C564.087 53.55 561.787 53.0333 559.821 52C557.887 50.9333 556.387 49.45 555.321 47.55C554.254 45.6167 553.721 43.3333 553.721 40.7C553.721 38.1 554.254 35.85 555.321 33.95C556.387 32.0167 557.887 30.5333 559.821 29.5C561.787 28.4667 564.087 27.95 566.721 27.95C569.354 27.95 571.637 28.4667 573.571 29.5C575.537 30.5333 577.054 32.0167 578.121 33.95C579.221 35.85 579.771 38.1 579.771 40.7C579.771 43.3333 579.221 45.6167 578.121 47.55C577.054 49.45 575.537 50.9333 573.571 52C571.637 53.0333 569.354 53.55 566.721 53.55ZM566.721 47.9C568.321 47.9 569.621 47.3167 570.621 46.15C571.654 44.9833 572.171 43.1667 572.171 40.7C572.171 38.2667 571.654 36.4833 570.621 35.35C569.621 34.1833 568.321 33.6 566.721 33.6C565.121 33.6 563.821 34.1833 562.821 35.35C561.821 36.4833 561.321 38.2667 561.321 40.7C561.321 43.1667 561.821 44.9833 562.821 46.15C563.821 47.3167 565.121 47.9 566.721 47.9ZM584.364 53V28.45H591.764V32.05C592.597 30.7167 593.714 29.7 595.114 29C596.514 28.3 598.081 27.95 599.814 27.95C602.714 27.95 604.881 28.8 606.314 30.5C607.747 32.1667 608.464 34.75 608.464 38.25V53H600.914V38.6C600.914 36.9 600.597 35.6833 599.964 34.95C599.331 34.1833 598.397 33.8 597.164 33.8C595.564 33.8 594.281 34.3 593.314 35.3C592.381 36.3 591.914 37.6333 591.914 39.3V53H584.364ZM640.066 53.55C633.166 53.55 629.716 50.2 629.716 43.5V34.1H625.066V28.45H629.716V21.25H637.266V28.45H644.516V34.1H637.266V43.2C637.266 44.6 637.583 45.65 638.216 46.35C638.883 47.05 639.933 47.4 641.366 47.4C641.8 47.4 642.25 47.35 642.716 47.25C643.216 47.15 643.75 47.0167 644.316 46.85L645.416 52.35C644.716 52.7167 643.883 53 642.916 53.2C641.95 53.4333 641 53.55 640.066 53.55ZM659.787 53.55C657.154 53.55 654.854 53.0333 652.887 52C650.954 50.9333 649.454 49.45 648.387 47.55C647.32 45.6167 646.787 43.3333 646.787 40.7C646.787 38.1 647.32 35.85 648.387 33.95C649.454 32.0167 650.954 30.5333 652.887 29.5C654.854 28.4667 657.154 27.95 659.787 27.95C662.42 27.95 664.704 28.4667 666.637 29.5C668.604 30.5333 670.12 32.0167 671.187 33.95C672.287 35.85 672.837 38.1 672.837 40.7C672.837 43.3333 672.287 45.6167 671.187 47.55C670.12 49.45 668.604 50.9333 666.637 52C664.704 53.0333 662.42 53.55 659.787 53.55ZM659.787 47.9C661.387 47.9 662.687 47.3167 663.687 46.15C664.72 44.9833 665.237 43.1667 665.237 40.7C665.237 38.2667 664.72 36.4833 663.687 35.35C662.687 34.1833 661.387 33.6 659.787 33.6C658.187 33.6 656.887 34.1833 655.887 35.35C654.887 36.4833 654.387 38.2667 654.387 40.7C654.387 43.1667 654.887 44.9833 655.887 46.15C656.887 47.3167 658.187 47.9 659.787 47.9ZM689.236 53.55C682.336 53.55 678.886 50.2 678.886 43.5V34.1H674.236V28.45H678.886V21.25H686.436V28.45H693.686V34.1H686.436V43.2C686.436 44.6 686.753 45.65 687.386 46.35C688.053 47.05 689.103 47.4 690.536 47.4C690.969 47.4 691.419 47.35 691.886 47.25C692.386 47.15 692.919 47.0167 693.486 46.85L694.586 52.35C693.886 52.7167 693.053 53 692.086 53.2C691.119 53.4333 690.169 53.55 689.236 53.55ZM705.701 53.55C703.868 53.55 702.251 53.2 700.851 52.5C699.451 51.8 698.334 50.85 697.501 49.65C696.701 48.45 696.301 47.1 696.301 45.6C696.301 43.8333 696.768 42.4167 697.701 41.35C698.634 40.2833 700.151 39.5333 702.251 39.1C704.351 38.6333 707.134 38.4 710.601 38.4H712.401V37.55C712.401 36.0833 712.068 35.05 711.401 34.45C710.734 33.8167 709.601 33.5 708.001 33.5C706.668 33.5 705.251 33.7167 703.751 34.15C702.284 34.55 700.818 35.1667 699.351 36L697.301 30.95C698.168 30.3833 699.218 29.8667 700.451 29.4C701.718 28.9333 703.034 28.5833 704.401 28.35C705.768 28.0833 707.068 27.95 708.301 27.95C712.101 27.95 714.934 28.8167 716.801 30.55C718.668 32.25 719.601 34.9 719.601 38.5V53H712.551V49.3C712.051 50.6 711.201 51.6333 710.001 52.4C708.834 53.1667 707.401 53.55 705.701 53.55ZM707.401 48.5C708.801 48.5 709.984 48.0167 710.951 47.05C711.918 46.0833 712.401 44.8333 712.401 43.3V42.3H710.651C708.084 42.3 706.268 42.5333 705.201 43C704.134 43.4333 703.601 44.2 703.601 45.3C703.601 46.2333 703.918 47 704.551 47.6C705.218 48.2 706.168 48.5 707.401 48.5ZM734.383 53.55C731.216 53.55 728.9 52.7333 727.433 51.1C725.966 49.4333 725.233 46.9667 725.233 43.7V17.75H732.783V43.4C732.783 46.0667 733.966 47.4 736.333 47.4C736.7 47.4 737.05 47.3833 737.383 47.35C737.75 47.3167 738.1 47.25 738.433 47.15L738.333 53C737.066 53.3667 735.75 53.55 734.383 53.55ZM764.949 53.55C761.783 53.55 759.466 52.7333 757.999 51.1C756.533 49.4333 755.799 46.9667 755.799 43.7V17.75H763.349V43.4C763.349 46.0667 764.533 47.4 766.899 47.4C767.266 47.4 767.616 47.3833 767.949 47.35C768.316 47.3167 768.666 47.25 768.999 47.15L768.899 53C767.633 53.3667 766.316 53.55 764.949 53.55ZM784.956 53.55C782.056 53.55 779.556 53.0333 777.456 52C775.389 50.9333 773.789 49.45 772.656 47.55C771.556 45.6167 771.006 43.35 771.006 40.75C771.006 38.2167 771.539 36 772.606 34.1C773.706 32.1667 775.189 30.6667 777.056 29.6C778.956 28.5 781.139 27.95 783.606 27.95C787.172 27.95 790.006 29.0833 792.106 31.35C794.206 33.5833 795.256 36.6167 795.256 40.45V42.35H778.206C778.472 44.2833 779.172 45.7 780.306 46.6C781.472 47.4667 783.072 47.9 785.106 47.9C786.439 47.9 787.789 47.7 789.156 47.3C790.522 46.9 791.756 46.2833 792.856 45.45L794.856 50.5C793.622 51.4333 792.106 52.1833 790.306 52.75C788.539 53.2833 786.756 53.55 784.956 53.55ZM783.906 32.95C782.306 32.95 781.006 33.4333 780.006 34.4C779.039 35.3667 778.439 36.7167 778.206 38.45H789.006C788.806 34.7833 787.106 32.95 783.906 32.95ZM807.947 53.55C806.114 53.55 804.497 53.2 803.097 52.5C801.697 51.8 800.58 50.85 799.747 49.65C798.947 48.45 798.547 47.1 798.547 45.6C798.547 43.8333 799.014 42.4167 799.947 41.35C800.88 40.2833 802.397 39.5333 804.497 39.1C806.597 38.6333 809.38 38.4 812.847 38.4H814.647V37.55C814.647 36.0833 814.314 35.05 813.647 34.45C812.98 33.8167 811.847 33.5 810.247 33.5C808.914 33.5 807.497 33.7167 805.997 34.15C804.53 34.55 803.064 35.1667 801.597 36L799.547 30.95C800.414 30.3833 801.464 29.8667 802.697 29.4C803.964 28.9333 805.28 28.5833 806.647 28.35C808.014 28.0833 809.314 27.95 810.547 27.95C814.347 27.95 817.18 28.8167 819.047 30.55C820.914 32.25 821.847 34.9 821.847 38.5V53H814.797V49.3C814.297 50.6 813.447 51.6333 812.247 52.4C811.08 53.1667 809.647 53.55 807.947 53.55ZM809.647 48.5C811.047 48.5 812.23 48.0167 813.197 47.05C814.164 46.0833 814.647 44.8333 814.647 43.3V42.3H812.897C810.33 42.3 808.514 42.5333 807.447 43C806.38 43.4333 805.847 44.2 805.847 45.3C805.847 46.2333 806.164 47 806.797 47.6C807.464 48.2 808.414 48.5 809.647 48.5ZM827.479 53V28.45H834.879V32.7C836.046 29.8333 838.546 28.25 842.379 27.95L844.579 27.8L845.029 34.15L840.779 34.6C837.046 34.9667 835.179 36.8667 835.179 40.3V53H827.479ZM848.085 53V28.45H855.485V32.05C856.318 30.7167 857.435 29.7 858.835 29C860.235 28.3 861.801 27.95 863.535 27.95C866.435 27.95 868.601 28.8 870.035 30.5C871.468 32.1667 872.185 34.75 872.185 38.25V53H864.635V38.6C864.635 36.9 864.318 35.6833 863.685 34.95C863.051 34.1833 862.118 33.8 860.885 33.8C859.285 33.8 858.001 34.3 857.035 35.3C856.101 36.3 855.635 37.6333 855.635 39.3V53H848.085ZM890.571 53.55C887.671 53.55 885.171 53.0333 883.071 52C881.004 50.9333 879.404 49.45 878.271 47.55C877.171 45.6167 876.621 43.35 876.621 40.75C876.621 38.2167 877.154 36 878.221 34.1C879.321 32.1667 880.804 30.6667 882.671 29.6C884.571 28.5 886.754 27.95 889.221 27.95C892.788 27.95 895.621 29.0833 897.721 31.35C899.821 33.5833 900.871 36.6167 900.871 40.45V42.35H883.821C884.088 44.2833 884.788 45.7 885.921 46.6C887.088 47.4667 888.688 47.9 890.721 47.9C892.054 47.9 893.404 47.7 894.771 47.3C896.138 46.9 897.371 46.2833 898.471 45.45L900.471 50.5C899.238 51.4333 897.721 52.1833 895.921 52.75C894.154 53.2833 892.371 53.55 890.571 53.55ZM889.521 32.95C887.921 32.95 886.621 33.4333 885.621 34.4C884.654 35.3667 884.054 36.7167 883.821 38.45H894.621C894.421 34.7833 892.721 32.95 889.521 32.95ZM905.262 53V28.45H912.662V32.7C913.829 29.8333 916.329 28.25 920.162 27.95L922.362 27.8L922.812 34.15L918.562 34.6C914.829 34.9667 912.962 36.8667 912.962 40.3V53H905.262ZM935.024 53.55C932.857 53.55 930.84 53.3 928.974 52.8C927.107 52.3 925.557 51.6167 924.324 50.75L926.124 45.85C927.357 46.6167 928.757 47.2333 930.324 47.7C931.924 48.1333 933.507 48.35 935.074 48.35C936.474 48.35 937.507 48.1333 938.174 47.7C938.84 47.2333 939.174 46.6333 939.174 45.9C939.174 44.7333 938.324 44 936.624 43.7L931.374 42.75C929.274 42.3833 927.674 41.6333 926.574 40.5C925.474 39.3667 924.924 37.8833 924.924 36.05C924.924 34.3833 925.39 32.95 926.324 31.75C927.257 30.55 928.54 29.6167 930.174 28.95C931.807 28.2833 933.69 27.95 935.824 27.95C937.59 27.95 939.307 28.1833 940.974 28.65C942.64 29.0833 944.074 29.7833 945.274 30.75L943.374 35.6C942.374 34.8667 941.174 34.2667 939.774 33.8C938.407 33.3333 937.124 33.1 935.924 33.1C934.424 33.1 933.34 33.35 932.674 33.85C932.007 34.3167 931.674 34.9167 931.674 35.65C931.674 36.8167 932.457 37.55 934.024 37.85L939.274 38.8C941.44 39.1667 943.09 39.9 944.224 41C945.357 42.0667 945.924 43.5333 945.924 45.4C945.924 47.9667 944.924 49.9667 942.924 51.4C940.924 52.8333 938.29 53.55 935.024 53.55Z" fill="#0093EC"/>
<path d="M448.696 103.55C446.529 103.55 444.512 103.3 442.646 102.8C440.779 102.3 439.229 101.617 437.996 100.75L439.796 95.85C441.029 96.6167 442.429 97.2333 443.996 97.7C445.596 98.1333 447.179 98.35 448.746 98.35C450.146 98.35 451.179 98.1333 451.846 97.7C452.512 97.2333 452.846 96.6333 452.846 95.9C452.846 94.7333 451.996 94 450.296 93.7L445.046 92.75C442.946 92.3833 441.346 91.6333 440.246 90.5C439.146 89.3667 438.596 87.8833 438.596 86.05C438.596 84.3833 439.062 82.95 439.996 81.75C440.929 80.55 442.212 79.6167 443.846 78.95C445.479 78.2833 447.362 77.95 449.496 77.95C451.262 77.95 452.979 78.1833 454.646 78.65C456.312 79.0833 457.746 79.7833 458.946 80.75L457.046 85.6C456.046 84.8667 454.846 84.2667 453.446 83.8C452.079 83.3333 450.796 83.1 449.596 83.1C448.096 83.1 447.012 83.35 446.346 83.85C445.679 84.3167 445.346 84.9167 445.346 85.65C445.346 86.8167 446.129 87.55 447.696 87.85L452.946 88.8C455.112 89.1667 456.762 89.9 457.896 91C459.029 92.0667 459.596 93.5333 459.596 95.4C459.596 97.9667 458.596 99.9667 456.596 101.4C454.596 102.833 451.962 103.55 448.696 103.55ZM463.605 73.7V66.65H471.755V73.7H463.605ZM463.905 103V78.45H471.455V103H463.905ZM477.284 103V78.45H484.684V82.05C485.517 80.7167 486.634 79.7 488.034 79C489.434 78.3 491 77.95 492.734 77.95C495.634 77.95 497.8 78.8 499.234 80.5C500.667 82.1667 501.384 84.75 501.384 88.25V103H493.834V88.6C493.834 86.9 493.517 85.6833 492.884 84.95C492.25 84.1833 491.317 83.8 490.084 83.8C488.484 83.8 487.2 84.3 486.234 85.3C485.3 86.3 484.834 87.6333 484.834 89.3V103H477.284ZM518.97 103.55C516.303 103.55 513.97 103.033 511.97 102C510.003 100.933 508.487 99.4333 507.42 97.5C506.353 95.5667 505.82 93.2833 505.82 90.65C505.82 88.0167 506.353 85.75 507.42 83.85C508.487 81.95 510.003 80.5 511.97 79.5C513.97 78.4667 516.303 77.95 518.97 77.95C520.537 77.95 522.12 78.1833 523.72 78.65C525.32 79.1167 526.62 79.7833 527.62 80.65L525.52 85.85C524.687 85.1833 523.753 84.6667 522.72 84.3C521.687 83.9 520.687 83.7 519.72 83.7C517.753 83.7 516.22 84.3167 515.12 85.55C514.053 86.75 513.52 88.4667 513.52 90.7C513.52 92.9 514.053 94.6333 515.12 95.9C516.22 97.1333 517.753 97.75 519.72 97.75C520.653 97.75 521.637 97.5667 522.67 97.2C523.737 96.8333 524.687 96.3 525.52 95.6L527.62 100.8C526.62 101.667 525.32 102.35 523.72 102.85C522.12 103.317 520.537 103.55 518.97 103.55ZM543.159 103.55C540.259 103.55 537.759 103.033 535.659 102C533.592 100.933 531.992 99.45 530.859 97.55C529.759 95.6167 529.209 93.35 529.209 90.75C529.209 88.2167 529.742 86 530.809 84.1C531.909 82.1667 533.392 80.6667 535.259 79.6C537.159 78.5 539.342 77.95 541.809 77.95C545.375 77.95 548.209 79.0833 550.309 81.35C552.409 83.5833 553.459 86.6167 553.459 90.45V92.35H536.409C536.675 94.2833 537.375 95.7 538.509 96.6C539.675 97.4667 541.275 97.9 543.309 97.9C544.642 97.9 545.992 97.7 547.359 97.3C548.725 96.9 549.959 96.2833 551.059 95.45L553.059 100.5C551.825 101.433 550.309 102.183 548.509 102.75C546.742 103.283 544.959 103.55 543.159 103.55ZM542.109 82.95C540.509 82.95 539.209 83.4333 538.209 84.4C537.242 85.3667 536.642 86.7167 536.409 88.45H547.209C547.009 84.7833 545.309 82.95 542.109 82.95ZM568.366 103L584.566 67.75H590.816L607.016 103H599.216L595.916 95.35H579.466L576.216 103H568.366ZM587.616 76L582.066 89.3H593.366L587.716 76H587.616ZM618.463 103.55C615.329 103.55 613.013 102.683 611.513 100.95C610.046 99.2167 609.313 96.6167 609.313 93.15V78.45H616.863V93.35C616.863 96.25 618.113 97.7 620.613 97.7C622.046 97.7 623.213 97.2 624.113 96.2C625.046 95.1667 625.513 93.8167 625.513 92.15V78.45H633.063V103H625.713V99.65C624.079 102.25 621.663 103.55 618.463 103.55ZM650.705 112.55C648.338 112.55 646.122 112.3 644.055 111.8C642.022 111.3 640.238 110.517 638.705 109.45L640.755 104.3C642.088 105.133 643.588 105.767 645.255 106.2C646.955 106.667 648.555 106.9 650.055 106.9C654.322 106.9 656.455 104.933 656.455 101V98.2C655.788 99.4667 654.738 100.483 653.305 101.25C651.872 102.017 650.305 102.4 648.605 102.4C646.405 102.4 644.488 101.9 642.855 100.9C641.222 99.8667 639.955 98.4333 639.055 96.6C638.155 94.7667 637.705 92.6167 637.705 90.15C637.705 87.7167 638.155 85.5833 639.055 83.75C639.955 81.9167 641.222 80.5 642.855 79.5C644.488 78.4667 646.405 77.95 648.605 77.95C650.372 77.95 651.955 78.3333 653.355 79.1C654.755 79.8667 655.788 80.8833 656.455 82.15V78.45H663.805V100.15C663.805 104.283 662.688 107.383 660.455 109.45C658.222 111.517 654.972 112.55 650.705 112.55ZM650.855 96.75C652.522 96.75 653.855 96.1667 654.855 95C655.888 93.8333 656.405 92.2167 656.405 90.15C656.405 88.0833 655.888 86.4833 654.855 85.35C653.855 84.1833 652.522 83.6 650.855 83.6C649.155 83.6 647.805 84.1833 646.805 85.35C645.805 86.4833 645.305 88.0833 645.305 90.15C645.305 92.2167 645.805 93.8333 646.805 95C647.805 96.1667 649.155 96.75 650.855 96.75ZM684.383 103V97.25L695.433 85.65C696.833 84.1167 697.833 82.7833 698.433 81.65C699.066 80.4833 699.383 79.3167 699.383 78.15C699.383 75.15 697.533 73.65 693.833 73.65C692.399 73.65 690.966 73.9333 689.533 74.5C688.099 75.0333 686.699 75.8667 685.333 77L682.833 71.3C684.299 70.0333 686.099 69.0333 688.233 68.3C690.399 67.5667 692.616 67.2 694.883 67.2C698.816 67.2 701.816 68.0833 703.883 69.85C705.983 71.5833 707.033 74.0667 707.033 77.3C707.033 79.4333 706.533 81.4833 705.533 83.45C704.566 85.3833 702.966 87.4833 700.733 89.75L693.933 96.65H708.333V103H684.383ZM725.663 103.55C721.396 103.55 718.13 101.967 715.863 98.8C713.63 95.6333 712.513 91.1167 712.513 85.25C712.513 79.3833 713.63 74.9167 715.863 71.85C718.13 68.75 721.396 67.2 725.663 67.2C729.93 67.2 733.18 68.75 735.413 71.85C737.68 74.9167 738.813 79.3833 738.813 85.25C738.813 91.1167 737.68 95.6333 735.413 98.8C733.18 101.967 729.93 103.55 725.663 103.55ZM725.663 97.25C727.596 97.25 729.03 96.3 729.963 94.4C730.896 92.4667 731.363 89.4167 731.363 85.25C731.363 81.0833 730.896 78.0833 729.963 76.25C729.03 74.4167 727.596 73.5 725.663 73.5C723.73 73.5 722.296 74.4167 721.363 76.25C720.43 78.0833 719.963 81.0833 719.963 85.25C719.963 89.4167 720.43 92.4667 721.363 94.4C722.296 96.3 723.73 97.25 725.663 97.25ZM745.644 103V96.65H753.544V76.4L747.494 79.95L744.544 74.3L755.794 67.75H761.294V96.65H768.694V103H745.644ZM782.724 103.55C780.824 103.55 778.941 103.217 777.074 102.55C775.241 101.883 773.624 100.933 772.224 99.7L774.724 93.95C775.924 94.9833 777.207 95.7667 778.574 96.3C779.974 96.8333 781.391 97.1 782.824 97.1C788.324 97.1 791.074 93.5167 791.074 86.35V85.4C790.374 87.0333 789.291 88.3167 787.824 89.25C786.357 90.1833 784.657 90.65 782.724 90.65C780.757 90.65 778.991 90.1667 777.424 89.2C775.857 88.2 774.624 86.85 773.724 85.15C772.824 83.4167 772.374 81.45 772.374 79.25C772.374 76.9167 772.874 74.85 773.874 73.05C774.907 71.2167 776.307 69.7833 778.074 68.75C779.874 67.7167 781.941 67.2 784.274 67.2C788.807 67.2 792.291 68.75 794.724 71.85C797.157 74.9167 798.374 79.2667 798.374 84.9C798.374 88.8333 797.741 92.1833 796.474 94.95C795.241 97.7167 793.457 99.85 791.124 101.35C788.791 102.817 785.991 103.55 782.724 103.55ZM784.724 84.6C786.257 84.6 787.507 84.0833 788.474 83.05C789.441 81.9833 789.924 80.6167 789.924 78.95C789.924 77.25 789.441 75.8667 788.474 74.8C787.507 73.7333 786.257 73.2 784.724 73.2C783.191 73.2 781.941 73.7333 780.974 74.8C780.007 75.8667 779.524 77.25 779.524 78.95C779.524 80.6167 780.007 81.9833 780.974 83.05C781.941 84.0833 783.191 84.6 784.724 84.6Z" fill="#3F3D56"/>
<path d="M561.243 724V720.55L567.873 713.59C568.713 712.67 569.313 711.87 569.673 711.19C570.053 710.49 570.243 709.79 570.243 709.09C570.243 707.29 569.133 706.39 566.913 706.39C566.053 706.39 565.193 706.56 564.333 706.9C563.473 707.22 562.633 707.72 561.813 708.4L560.313 704.98C561.193 704.22 562.273 703.62 563.553 703.18C564.853 702.74 566.183 702.52 567.543 702.52C569.903 702.52 571.703 703.05 572.943 704.11C574.203 705.15 574.833 706.64 574.833 708.58C574.833 709.86 574.533 711.09 573.933 712.27C573.353 713.43 572.393 714.69 571.053 716.05L566.973 720.19H575.613V724H561.243ZM586.012 724.33C583.452 724.33 581.492 723.38 580.132 721.48C578.792 719.58 578.122 716.87 578.122 713.35C578.122 709.83 578.792 707.15 580.132 705.31C581.492 703.45 583.452 702.52 586.012 702.52C588.572 702.52 590.522 703.45 591.862 705.31C593.222 707.15 593.902 709.83 593.902 713.35C593.902 716.87 593.222 719.58 591.862 721.48C590.522 723.38 588.572 724.33 586.012 724.33ZM586.012 720.55C587.172 720.55 588.032 719.98 588.592 718.84C589.152 717.68 589.432 715.85 589.432 713.35C589.432 710.85 589.152 709.05 588.592 707.95C588.032 706.85 587.172 706.3 586.012 706.3C584.852 706.3 583.992 706.85 583.432 707.95C582.872 709.05 582.592 710.85 582.592 713.35C582.592 715.85 582.872 717.68 583.432 718.84C583.992 719.98 584.852 720.55 586.012 720.55ZM597.22 724V720.55L603.85 713.59C604.69 712.67 605.29 711.87 605.65 711.19C606.03 710.49 606.22 709.79 606.22 709.09C606.22 707.29 605.11 706.39 602.89 706.39C602.03 706.39 601.17 706.56 600.31 706.9C599.45 707.22 598.61 707.72 597.79 708.4L596.29 704.98C597.17 704.22 598.25 703.62 599.53 703.18C600.83 702.74 602.16 702.52 603.52 702.52C605.88 702.52 607.68 703.05 608.92 704.11C610.18 705.15 610.81 706.64 610.81 708.58C610.81 709.86 610.51 711.09 609.91 712.27C609.33 713.43 608.37 714.69 607.03 716.05L602.95 720.19H611.59V724H597.22ZM622.978 724V720.22H614.068V716.89L623.758 702.85H627.538V716.56H630.418V720.22H627.538V724H622.978ZM622.978 716.56V709.66L618.298 716.56H622.978Z" fill="#0093EC"/>
<path d="M755.994 674.556L743.734 674.555L737.902 627.268H755.996L755.994 674.556Z" fill="#9E616A"/>
<path d="M759.121 686.44L719.59 686.438V685.938C719.59 681.858 721.211 677.944 724.097 675.059C726.982 672.174 730.896 670.552 734.976 670.552H734.977L759.121 670.553L759.121 686.44Z" fill="#2F2E41"/>
<path d="M708.994 674.556L696.734 674.555L690.902 627.268H708.996L708.994 674.556Z" fill="#9E616A"/>
<path d="M712.121 686.44L672.59 686.438V685.938C672.59 681.858 674.211 677.944 677.097 675.059C679.982 672.174 683.896 670.552 687.976 670.552H687.977L712.121 670.553L712.121 686.44Z" fill="#2F2E41"/>
<path d="M309 687.083V335.172C309 333.005 309.929 330.926 311.583 329.394C313.237 327.861 315.481 327 317.82 327H357.18C359.519 327 361.763 327.861 363.417 329.394C365.071 330.926 366 333.005 366 335.172V688L309 687.083Z" fill="#3F3D56"/>
<path d="M179 688V492.704C179 491.191 179.929 489.74 181.583 488.671C183.237 487.601 185.481 487 187.82 487H227.18C229.519 487 231.763 487.601 233.417 488.671C235.071 489.74 236 491.191 236 492.704V687.58L179 688Z" fill="#3F3D56"/>
<path d="M75.9992 528.619C75.4198 528.619 74.8529 528.451 74.3669 528.136C73.8809 527.82 73.4966 527.371 73.2605 526.842C73.0243 526.313 72.9465 525.727 73.0362 525.155C73.126 524.582 73.3796 524.048 73.7664 523.617L201.108 441.361L335.108 285.361L465.108 191.861L599.092 141.237C603.608 139.861 603.608 144.861 599.092 146.367L465.108 196.984L338.551 289.924L205.108 444.361L78.2337 527.622C77.9526 527.936 77.6082 528.187 77.2231 528.359C76.838 528.531 76.4209 528.62 75.9992 528.619Z" fill="#3F3D56"/>
<path d="M78 543C93.464 543 106 530.464 106 515C106 499.536 93.464 487 78 487C62.536 487 50 499.536 50 515C50 530.464 62.536 543 78 543Z" fill="#00B0FF"/>
<path d="M208 462C223.464 462 236 449.464 236 434C236 418.536 223.464 406 208 406C192.536 406 180 418.536 180 434C180 449.464 192.536 462 208 462Z" fill="#CCCCCC"/>
<path d="M338 305C353.464 305 366 292.464 366 277C366 261.536 353.464 249 338 249C322.536 249 310 261.536 310 277C310 292.464 322.536 305 338 305Z" fill="#E6E6E6"/>
<path d="M468 214C483.464 214 496 201.464 496 186C496 170.536 483.464 158 468 158C452.536 158 440 170.536 440 186C440 201.464 452.536 214 468 214Z" fill="#00B0FF"/>
<path d="M717.832 264.535C733.296 264.535 745.832 251.999 745.832 236.535C745.832 221.071 733.296 208.535 717.832 208.535C702.368 208.535 689.832 221.071 689.832 236.535C689.832 251.999 702.368 264.535 717.832 264.535Z" fill="#00B0FF"/>
<path d="M707.932 454.656C718.412 455.918 745.211 446.358 746.663 460.902C760.457 501.507 760.048 657.159 760.048 657.159L739.048 658.159C739.048 658.159 722.267 534.484 714.332 508.026C710.35 540.185 711.048 663.159 711.048 663.159L692.048 664.159C692.048 664.159 675.005 559.441 674.908 528.706C672.836 506.192 677.916 472.83 675.742 451.066C686.133 454.359 697.071 455.579 707.932 454.656L707.932 454.656Z" fill="#3F3D56"/>
<path d="M439 684.92V247.166C439 241.552 442.949 237 447.82 237H487.18C492.051 237 496 241.551 496 247.166V686.066L439 684.92Z" fill="#3F3D56"/>
<path d="M672.282 336.856C668.079 328.263 662.945 320.158 656.972 312.686C655.724 311.227 654.587 309.676 653.572 308.046C651.422 304.316 650.782 299.936 649.422 295.856C645.622 284.416 636.142 275.226 633.832 263.396C632.992 259.096 625.896 271.594 627.762 276.926C631.092 286.576 631.522 296.796 635.762 306.116C640.002 315.436 644.982 324.376 648.642 333.906C650.722 339.316 652.382 344.906 655.432 349.906C658.482 354.906 663.242 359.096 668.992 359.846C668.953 356.221 669.504 352.614 670.622 349.166C671.872 345.226 674.092 340.586 672.282 336.856Z" fill="#9E616A"/>
<path d="M735.192 343.336C734.935 336.265 736.038 329.211 738.442 322.556C739.362 320.006 740.442 317.416 740.352 314.706C740.222 312.186 739.022 309.876 737.932 307.596C734.172 299.746 731.532 291.426 728.932 283.126L723.932 267.476C722.302 266.281 731.822 265.866 733.852 268.676C740.492 277.896 745.522 288.486 750.782 298.556C752.124 300.956 753.267 303.461 754.202 306.046C755.487 310.236 756.094 314.604 756.002 318.986C756.002 327.176 754.922 335.336 753.802 343.456C753.092 348.546 752.162 354.086 748.312 357.456C744.312 352.336 740.292 347.336 735.192 343.336Z" fill="#9E616A"/>
<path d="M708.752 335.234C720.212 335.234 729.502 325.944 729.502 314.484C729.502 303.024 720.212 293.734 708.752 293.734C697.292 293.734 688.002 303.024 688.002 314.484C688.002 325.944 697.292 335.234 708.752 335.234Z" fill="#9E616A"/>
<path d="M691.884 293.782C691.651 293.152 691.599 292.47 691.733 291.812C691.867 291.154 692.183 290.547 692.644 290.059C693.162 289.65 693.85 289.498 694.405 289.108C695.195 288.444 695.841 287.627 696.305 286.705C697.722 284.722 699.797 283.304 702.16 282.704C704.523 282.104 707.022 282.361 709.214 283.428C712.643 285.223 714.713 288.817 717.763 291.237C719.311 292.491 721.107 293.421 722.665 294.675C725.785 297.37 728.003 300.958 729.019 304.953C730.031 308.922 730.621 312.986 730.781 317.078C730.943 318.306 730.895 319.552 730.639 320.764C730.323 321.78 729.853 322.741 729.243 323.614C726.108 328.363 721.977 332.676 716.799 335.127C711.622 337.577 705.325 337.976 700.219 335.412C699.705 335.204 699.263 334.851 698.946 334.395C698.656 333.702 698.587 332.936 698.747 332.201C699.024 329.298 698.45 326.377 697.094 323.795C696.144 321.895 694.719 320.261 693.96 318.295C693.253 316.095 692.95 313.784 693.066 311.476C692.976 305.494 693.382 299.539 691.884 293.782Z" fill="#2D293D"/>
<path d="M49 685.695V568.717C49 567.217 52.949 566 57.82 566H97.18C102.051 566 106 567.218 106 568.717V686L49 685.695Z" fill="#3F3D56"/>
<path d="M820.169 687.802H1C0.734784 687.802 0.480429 687.697 0.292892 687.509C0.105356 687.322 0 687.067 0 686.802C0 686.537 0.105356 686.282 0.292892 686.095C0.480429 685.907 0.734784 685.802 1 685.802H820.168C820.433 685.802 820.688 685.907 820.875 686.095C821.063 686.282 821.168 686.537 821.168 686.802C821.168 687.067 821.063 687.322 820.875 687.509C820.688 687.697 820.433 687.802 820.168 687.802H820.169Z" fill="#E6E6E6"/>
<path d="M566 687.671V177.839C566 171.301 569.949 166 574.82 166H614.18C619.051 166 623 171.301 623 177.839V689L566 687.671Z" fill="#00B0FF"/>
<path d="M627.183 274.365C632.153 274.365 636.183 270.336 636.183 265.365C636.183 260.395 632.153 256.365 627.183 256.365C622.212 256.365 618.183 260.395 618.183 265.365C618.183 270.336 622.212 274.365 627.183 274.365Z" fill="#A0616A"/>
<path d="M727.183 270.365C732.153 270.365 736.183 266.336 736.183 261.365C736.183 256.395 732.153 252.365 727.183 252.365C722.212 252.365 718.183 256.395 718.183 261.365C718.183 266.336 722.212 270.365 727.183 270.365Z" fill="#A0616A"/>
<path d="M749.052 372.776C749.93 371.972 757.09 330.102 757.048 329.159C756.937 324 741.198 318.109 738.048 320.159C735.076 322.093 729.901 344.283 726.571 348.324L723.048 342.159H695.048L693.351 345.31C689.677 343.097 686.372 341.056 685.193 340.381C684.788 340.107 684.347 339.89 683.882 339.736C680.972 339.085 678.24 337.802 675.882 335.976C673.582 334.206 662.908 315.669 660.048 316.159C656.818 316.699 645.923 326.119 646.048 335.159C647.419 335.129 665.262 370.806 665.512 372.136C666.882 377.756 671.406 459.716 672.866 463.536C679.592 462.886 674.282 461.726 680.792 463.536C687.802 465.486 695.202 463.376 702.432 462.596C705.442 462.298 708.467 462.164 711.492 462.196C722.492 462.246 738.192 462.856 748.842 465.586C748.902 458.606 742.772 443.506 740.502 436.916C740.205 434.946 740.215 432.943 740.532 430.976C740.822 428.566 746.678 375.441 749.052 372.776Z" fill="#E6E6E6"/>
</svg>
