<svg width="945" height="733" viewBox="0 0 945 733" fill="none" xmlns="http://www.w3.org/2000/svg">
<path d="M250.667 53.55C247.2 53.55 244.15 52.8 241.517 51.3C238.917 49.7667 236.883 47.65 235.417 44.95C233.983 42.2167 233.267 39.0167 233.267 35.35C233.267 31.6833 233.983 28.5 235.417 25.8C236.883 23.0667 238.917 20.95 241.517 19.45C244.117 17.95 247.167 17.2 250.667 17.2C254.167 17.2 257.217 17.95 259.817 19.45C262.45 20.95 264.483 23.0667 265.917 25.8C267.383 28.5 268.117 31.6667 268.117 35.3C268.117 38.9667 267.383 42.1667 265.917 44.9C264.483 47.6333 262.45 49.7667 259.817 51.3C257.217 52.8 254.167 53.55 250.667 53.55ZM250.667 46.95C253.6 46.95 255.883 45.9333 257.517 43.9C259.183 41.8333 260.017 38.9833 260.017 35.35C260.017 31.6833 259.2 28.85 257.567 26.85C255.933 24.8167 253.633 23.8 250.667 23.8C247.767 23.8 245.483 24.8167 243.817 26.85C242.183 28.85 241.367 31.6833 241.367 35.35C241.367 38.9833 242.183 41.8333 243.817 43.9C245.483 45.9333 247.767 46.95 250.667 46.95ZM280.712 53L270.012 28.45H277.962L284.112 44.05L290.462 28.45H297.912L287.062 53H280.712ZM312.335 53.55C309.435 53.55 306.935 53.0333 304.835 52C302.768 50.9333 301.168 49.45 300.035 47.55C298.935 45.6167 298.385 43.35 298.385 40.75C298.385 38.2167 298.918 36 299.985 34.1C301.085 32.1667 302.568 30.6667 304.435 29.6C306.335 28.5 308.518 27.95 310.985 27.95C314.551 27.95 317.385 29.0833 319.485 31.35C321.585 33.5833 322.635 36.6167 322.635 40.45V42.35H305.585C305.851 44.2833 306.551 45.7 307.685 46.6C308.851 47.4667 310.451 47.9 312.485 47.9C313.818 47.9 315.168 47.7 316.535 47.3C317.901 46.9 319.135 46.2833 320.235 45.45L322.235 50.5C321.001 51.4333 319.485 52.1833 317.685 52.75C315.918 53.2833 314.135 53.55 312.335 53.55ZM311.285 32.95C309.685 32.95 308.385 33.4333 307.385 34.4C306.418 35.3667 305.818 36.7167 305.585 38.45H316.385C316.185 34.7833 314.485 32.95 311.285 32.95ZM327.026 53V28.45H334.426V32.7C335.593 29.8333 338.093 28.25 341.926 27.95L344.126 27.8L344.576 34.15L340.326 34.6C336.593 34.9667 334.726 36.8667 334.726 40.3V53H327.026ZM363.647 53V46.65H371.547V26.4L365.497 29.95L362.547 24.3L373.797 17.75H379.297V46.65H386.697V53H363.647ZM391.078 53V45H399.178V53H391.078ZM415.766 53.55C413.3 53.55 410.95 53.2 408.716 52.5C406.483 51.8 404.65 50.85 403.216 49.65L405.666 43.8C408.633 46 411.9 47.1 415.466 47.1C419.533 47.1 421.566 45.5833 421.566 42.55C421.566 39.75 419.666 38.35 415.866 38.35H409.966V32.1H415.116C416.783 32.1 418.1 31.7167 419.066 30.95C420.033 30.1833 420.516 29.1167 420.516 27.75C420.516 25.0167 418.733 23.65 415.166 23.65C411.833 23.65 408.866 24.7667 406.266 27L403.816 21.3C405.283 20 407.083 19 409.216 18.3C411.35 17.5667 413.566 17.2 415.866 17.2C419.666 17.2 422.633 18.05 424.766 19.75C426.9 21.45 427.966 23.7833 427.966 26.75C427.966 28.5833 427.5 30.2 426.566 31.6C425.633 33 424.333 34.0167 422.666 34.65C424.666 35.2167 426.216 36.2667 427.316 37.8C428.45 39.3 429.016 41.1167 429.016 43.25C429.016 46.45 427.833 48.9667 425.466 50.8C423.1 52.6333 419.866 53.55 415.766 53.55ZM448.513 53V28.45H455.913V32C456.646 30.7333 457.646 29.75 458.913 29.05C460.213 28.3167 461.713 27.95 463.413 27.95C465.146 27.95 466.613 28.3333 467.813 29.1C469.046 29.8667 469.979 31.0333 470.613 32.6C471.379 31.1333 472.479 30 473.913 29.2C475.379 28.3667 476.996 27.95 478.763 27.95C481.563 27.95 483.646 28.8 485.013 30.5C486.379 32.1667 487.063 34.75 487.063 38.25V53H479.513V38.5C479.513 36.8667 479.246 35.6833 478.713 34.95C478.213 34.1833 477.346 33.8 476.113 33.8C474.679 33.8 473.563 34.3 472.763 35.3C471.963 36.3 471.563 37.7167 471.563 39.55V53H464.013V38.5C464.013 36.8667 463.746 35.6833 463.213 34.95C462.679 34.1833 461.813 33.8 460.613 33.8C459.179 33.8 458.063 34.3 457.263 35.3C456.463 36.3 456.063 37.7167 456.063 39.55V53H448.513ZM492.546 23.7V16.65H500.696V23.7H492.546ZM492.846 53V28.45H500.396V53H492.846ZM515.375 53.55C512.209 53.55 509.892 52.7333 508.425 51.1C506.959 49.4333 506.225 46.9667 506.225 43.7V17.75H513.775V43.4C513.775 46.0667 514.959 47.4 517.325 47.4C517.692 47.4 518.042 47.3833 518.375 47.35C518.742 47.3167 519.092 47.25 519.425 47.15L519.325 53C518.059 53.3667 516.742 53.55 515.375 53.55ZM532.026 53.55C528.859 53.55 526.542 52.7333 525.076 51.1C523.609 49.4333 522.876 46.9667 522.876 43.7V17.75H530.426V43.4C530.426 46.0667 531.609 47.4 533.976 47.4C534.342 47.4 534.692 47.3833 535.026 47.35C535.392 47.3167 535.742 47.25 536.076 47.15L535.976 53C534.709 53.3667 533.392 53.55 532.026 53.55ZM539.226 23.7V16.65H547.376V23.7H539.226ZM539.526 53V28.45H547.076V53H539.526ZM564.705 53.55C562.072 53.55 559.772 53.0333 557.805 52C555.872 50.9333 554.372 49.45 553.305 47.55C552.238 45.6167 551.705 43.3333 551.705 40.7C551.705 38.1 552.238 35.85 553.305 33.95C554.372 32.0167 555.872 30.5333 557.805 29.5C559.772 28.4667 562.072 27.95 564.705 27.95C567.338 27.95 569.622 28.4667 571.555 29.5C573.522 30.5333 575.038 32.0167 576.105 33.95C577.205 35.85 577.755 38.1 577.755 40.7C577.755 43.3333 577.205 45.6167 576.105 47.55C575.038 49.45 573.522 50.9333 571.555 52C569.622 53.0333 567.338 53.55 564.705 53.55ZM564.705 47.9C566.305 47.9 567.605 47.3167 568.605 46.15C569.638 44.9833 570.155 43.1667 570.155 40.7C570.155 38.2667 569.638 36.4833 568.605 35.35C567.605 34.1833 566.305 33.6 564.705 33.6C563.105 33.6 561.805 34.1833 560.805 35.35C559.805 36.4833 559.305 38.2667 559.305 40.7C559.305 43.1667 559.805 44.9833 560.805 46.15C561.805 47.3167 563.105 47.9 564.705 47.9ZM582.348 53V28.45H589.748V32.05C590.582 30.7167 591.698 29.7 593.098 29C594.498 28.3 596.065 27.95 597.798 27.95C600.698 27.95 602.865 28.8 604.298 30.5C605.732 32.1667 606.448 34.75 606.448 38.25V53H598.898V38.6C598.898 36.9 598.582 35.6833 597.948 34.95C597.315 34.1833 596.382 33.8 595.148 33.8C593.548 33.8 592.265 34.3 591.298 35.3C590.365 36.3 589.898 37.6333 589.898 39.3V53H582.348ZM638.051 53.55C631.151 53.55 627.701 50.2 627.701 43.5V34.1H623.051V28.45H627.701V21.25H635.251V28.45H642.501V34.1H635.251V43.2C635.251 44.6 635.567 45.65 636.201 46.35C636.867 47.05 637.917 47.4 639.351 47.4C639.784 47.4 640.234 47.35 640.701 47.25C641.201 47.15 641.734 47.0167 642.301 46.85L643.401 52.35C642.701 52.7167 641.867 53 640.901 53.2C639.934 53.4333 638.984 53.55 638.051 53.55ZM657.771 53.55C655.138 53.55 652.838 53.0333 650.871 52C648.938 50.9333 647.438 49.45 646.371 47.55C645.305 45.6167 644.771 43.3333 644.771 40.7C644.771 38.1 645.305 35.85 646.371 33.95C647.438 32.0167 648.938 30.5333 650.871 29.5C652.838 28.4667 655.138 27.95 657.771 27.95C660.405 27.95 662.688 28.4667 664.621 29.5C666.588 30.5333 668.105 32.0167 669.171 33.95C670.271 35.85 670.821 38.1 670.821 40.7C670.821 43.3333 670.271 45.6167 669.171 47.55C668.105 49.45 666.588 50.9333 664.621 52C662.688 53.0333 660.405 53.55 657.771 53.55ZM657.771 47.9C659.371 47.9 660.671 47.3167 661.671 46.15C662.705 44.9833 663.221 43.1667 663.221 40.7C663.221 38.2667 662.705 36.4833 661.671 35.35C660.671 34.1833 659.371 33.6 657.771 33.6C656.171 33.6 654.871 34.1833 653.871 35.35C652.871 36.4833 652.371 38.2667 652.371 40.7C652.371 43.1667 652.871 44.9833 653.871 46.15C654.871 47.3167 656.171 47.9 657.771 47.9ZM687.221 53.55C680.321 53.55 676.871 50.2 676.871 43.5V34.1H672.221V28.45H676.871V21.25H684.421V28.45H691.671V34.1H684.421V43.2C684.421 44.6 684.737 45.65 685.371 46.35C686.037 47.05 687.087 47.4 688.521 47.4C688.954 47.4 689.404 47.35 689.871 47.25C690.371 47.15 690.904 47.0167 691.471 46.85L692.571 52.35C691.871 52.7167 691.037 53 690.071 53.2C689.104 53.4333 688.154 53.55 687.221 53.55ZM703.685 53.55C701.852 53.55 700.235 53.2 698.835 52.5C697.435 51.8 696.319 50.85 695.485 49.65C694.685 48.45 694.285 47.1 694.285 45.6C694.285 43.8333 694.752 42.4167 695.685 41.35C696.619 40.2833 698.135 39.5333 700.235 39.1C702.335 38.6333 705.119 38.4 708.585 38.4H710.385V37.55C710.385 36.0833 710.052 35.05 709.385 34.45C708.719 33.8167 707.585 33.5 705.985 33.5C704.652 33.5 703.235 33.7167 701.735 34.15C700.269 34.55 698.802 35.1667 697.335 36L695.285 30.95C696.152 30.3833 697.202 29.8667 698.435 29.4C699.702 28.9333 701.019 28.5833 702.385 28.35C703.752 28.0833 705.052 27.95 706.285 27.95C710.085 27.95 712.919 28.8167 714.785 30.55C716.652 32.25 717.585 34.9 717.585 38.5V53H710.535V49.3C710.035 50.6 709.185 51.6333 707.985 52.4C706.819 53.1667 705.385 53.55 703.685 53.55ZM705.385 48.5C706.785 48.5 707.969 48.0167 708.935 47.05C709.902 46.0833 710.385 44.8333 710.385 43.3V42.3H708.635C706.069 42.3 704.252 42.5333 703.185 43C702.119 43.4333 701.585 44.2 701.585 45.3C701.585 46.2333 701.902 47 702.535 47.6C703.202 48.2 704.152 48.5 705.385 48.5ZM732.367 53.55C729.201 53.55 726.884 52.7333 725.417 51.1C723.951 49.4333 723.217 46.9667 723.217 43.7V17.75H730.767V43.4C730.767 46.0667 731.951 47.4 734.317 47.4C734.684 47.4 735.034 47.3833 735.367 47.35C735.734 47.3167 736.084 47.25 736.417 47.15L736.317 53C735.051 53.3667 733.734 53.55 732.367 53.55ZM762.934 53.55C759.767 53.55 757.45 52.7333 755.984 51.1C754.517 49.4333 753.784 46.9667 753.784 43.7V17.75H761.334V43.4C761.334 46.0667 762.517 47.4 764.884 47.4C765.25 47.4 765.6 47.3833 765.934 47.35C766.3 47.3167 766.65 47.25 766.984 47.15L766.884 53C765.617 53.3667 764.3 53.55 762.934 53.55ZM782.94 53.55C780.04 53.55 777.54 53.0333 775.44 52C773.373 50.9333 771.773 49.45 770.64 47.55C769.54 45.6167 768.99 43.35 768.99 40.75C768.99 38.2167 769.523 36 770.59 34.1C771.69 32.1667 773.173 30.6667 775.04 29.6C776.94 28.5 779.123 27.95 781.59 27.95C785.157 27.95 787.99 29.0833 790.09 31.35C792.19 33.5833 793.24 36.6167 793.24 40.45V42.35H776.19C776.457 44.2833 777.157 45.7 778.29 46.6C779.457 47.4667 781.057 47.9 783.09 47.9C784.423 47.9 785.773 47.7 787.14 47.3C788.507 46.9 789.74 46.2833 790.84 45.45L792.84 50.5C791.607 51.4333 790.09 52.1833 788.29 52.75C786.523 53.2833 784.74 53.55 782.94 53.55ZM781.89 32.95C780.29 32.95 778.99 33.4333 777.99 34.4C777.023 35.3667 776.423 36.7167 776.19 38.45H786.99C786.79 34.7833 785.09 32.95 781.89 32.95ZM805.931 53.55C804.098 53.55 802.481 53.2 801.081 52.5C799.681 51.8 798.565 50.85 797.731 49.65C796.931 48.45 796.531 47.1 796.531 45.6C796.531 43.8333 796.998 42.4167 797.931 41.35C798.865 40.2833 800.381 39.5333 802.481 39.1C804.581 38.6333 807.365 38.4 810.831 38.4H812.631V37.55C812.631 36.0833 812.298 35.05 811.631 34.45C810.965 33.8167 809.831 33.5 808.231 33.5C806.898 33.5 805.481 33.7167 803.981 34.15C802.515 34.55 801.048 35.1667 799.581 36L797.531 30.95C798.398 30.3833 799.448 29.8667 800.681 29.4C801.948 28.9333 803.265 28.5833 804.631 28.35C805.998 28.0833 807.298 27.95 808.531 27.95C812.331 27.95 815.165 28.8167 817.031 30.55C818.898 32.25 819.831 34.9 819.831 38.5V53H812.781V49.3C812.281 50.6 811.431 51.6333 810.231 52.4C809.065 53.1667 807.631 53.55 805.931 53.55ZM807.631 48.5C809.031 48.5 810.215 48.0167 811.181 47.05C812.148 46.0833 812.631 44.8333 812.631 43.3V42.3H810.881C808.315 42.3 806.498 42.5333 805.431 43C804.365 43.4333 803.831 44.2 803.831 45.3C803.831 46.2333 804.148 47 804.781 47.6C805.448 48.2 806.398 48.5 807.631 48.5ZM825.463 53V28.45H832.863V32.7C834.03 29.8333 836.53 28.25 840.363 27.95L842.563 27.8L843.013 34.15L838.763 34.6C835.03 34.9667 833.163 36.8667 833.163 40.3V53H825.463ZM846.069 53V28.45H853.469V32.05C854.302 30.7167 855.419 29.7 856.819 29C858.219 28.3 859.786 27.95 861.519 27.95C864.419 27.95 866.586 28.8 868.019 30.5C869.452 32.1667 870.169 34.75 870.169 38.25V53H862.619V38.6C862.619 36.9 862.302 35.6833 861.669 34.95C861.036 34.1833 860.102 33.8 858.869 33.8C857.269 33.8 855.986 34.3 855.019 35.3C854.086 36.3 853.619 37.6333 853.619 39.3V53H846.069ZM888.555 53.55C885.655 53.55 883.155 53.0333 881.055 52C878.989 50.9333 877.389 49.45 876.255 47.55C875.155 45.6167 874.605 43.35 874.605 40.75C874.605 38.2167 875.139 36 876.205 34.1C877.305 32.1667 878.789 30.6667 880.655 29.6C882.555 28.5 884.739 27.95 887.205 27.95C890.772 27.95 893.605 29.0833 895.705 31.35C897.805 33.5833 898.855 36.6167 898.855 40.45V42.35H881.805C882.072 44.2833 882.772 45.7 883.905 46.6C885.072 47.4667 886.672 47.9 888.705 47.9C890.039 47.9 891.389 47.7 892.755 47.3C894.122 46.9 895.355 46.2833 896.455 45.45L898.455 50.5C897.222 51.4333 895.705 52.1833 893.905 52.75C892.139 53.2833 890.355 53.55 888.555 53.55ZM887.505 32.95C885.905 32.95 884.605 33.4333 883.605 34.4C882.639 35.3667 882.039 36.7167 881.805 38.45H892.605C892.405 34.7833 890.705 32.95 887.505 32.95ZM903.247 53V28.45H910.647V32.7C911.813 29.8333 914.313 28.25 918.147 27.95L920.347 27.8L920.797 34.15L916.547 34.6C912.813 34.9667 910.947 36.8667 910.947 40.3V53H903.247ZM933.008 53.55C930.841 53.55 928.825 53.3 926.958 52.8C925.091 52.3 923.541 51.6167 922.308 50.75L924.108 45.85C925.341 46.6167 926.741 47.2333 928.308 47.7C929.908 48.1333 931.491 48.35 933.058 48.35C934.458 48.35 935.491 48.1333 936.158 47.7C936.825 47.2333 937.158 46.6333 937.158 45.9C937.158 44.7333 936.308 44 934.608 43.7L929.358 42.75C927.258 42.3833 925.658 41.6333 924.558 40.5C923.458 39.3667 922.908 37.8833 922.908 36.05C922.908 34.3833 923.375 32.95 924.308 31.75C925.241 30.55 926.525 29.6167 928.158 28.95C929.791 28.2833 931.675 27.95 933.808 27.95C935.575 27.95 937.291 28.1833 938.958 28.65C940.625 29.0833 942.058 29.7833 943.258 30.75L941.358 35.6C940.358 34.8667 939.158 34.2667 937.758 33.8C936.391 33.3333 935.108 33.1 933.908 33.1C932.408 33.1 931.325 33.35 930.658 33.85C929.991 34.3167 929.658 34.9167 929.658 35.65C929.658 36.8167 930.441 37.55 932.008 37.85L937.258 38.8C939.425 39.1667 941.075 39.9 942.208 41C943.341 42.0667 943.908 43.5333 943.908 45.4C943.908 47.9667 942.908 49.9667 940.908 51.4C938.908 52.8333 936.275 53.55 933.008 53.55Z" fill="#0093EC"/>
<path d="M425.196 103.55C423.029 103.55 421.012 103.3 419.146 102.8C417.279 102.3 415.729 101.617 414.496 100.75L416.296 95.85C417.529 96.6167 418.929 97.2333 420.496 97.7C422.096 98.1333 423.679 98.35 425.246 98.35C426.646 98.35 427.679 98.1333 428.346 97.7C429.012 97.2333 429.346 96.6333 429.346 95.9C429.346 94.7333 428.496 94 426.796 93.7L421.546 92.75C419.446 92.3833 417.846 91.6333 416.746 90.5C415.646 89.3667 415.096 87.8833 415.096 86.05C415.096 84.3833 415.562 82.95 416.496 81.75C417.429 80.55 418.712 79.6167 420.346 78.95C421.979 78.2833 423.862 77.95 425.996 77.95C427.762 77.95 429.479 78.1833 431.146 78.65C432.812 79.0833 434.246 79.7833 435.446 80.75L433.546 85.6C432.546 84.8667 431.346 84.2667 429.946 83.8C428.579 83.3333 427.296 83.1 426.096 83.1C424.596 83.1 423.512 83.35 422.846 83.85C422.179 84.3167 421.846 84.9167 421.846 85.65C421.846 86.8167 422.629 87.55 424.196 87.85L429.446 88.8C431.612 89.1667 433.262 89.9 434.396 91C435.529 92.0667 436.096 93.5333 436.096 95.4C436.096 97.9667 435.096 99.9667 433.096 101.4C431.096 102.833 428.462 103.55 425.196 103.55ZM440.105 73.7V66.65H448.255V73.7H440.105ZM440.405 103V78.45H447.955V103H440.405ZM453.784 103V78.45H461.184V82.05C462.017 80.7167 463.134 79.7 464.534 79C465.934 78.3 467.5 77.95 469.234 77.95C472.134 77.95 474.3 78.8 475.734 80.5C477.167 82.1667 477.884 84.75 477.884 88.25V103H470.334V88.6C470.334 86.9 470.017 85.6833 469.384 84.95C468.75 84.1833 467.817 83.8 466.584 83.8C464.984 83.8 463.7 84.3 462.734 85.3C461.8 86.3 461.334 87.6333 461.334 89.3V103H453.784ZM495.47 103.55C492.803 103.55 490.47 103.033 488.47 102C486.503 100.933 484.987 99.4333 483.92 97.5C482.853 95.5667 482.32 93.2833 482.32 90.65C482.32 88.0167 482.853 85.75 483.92 83.85C484.987 81.95 486.503 80.5 488.47 79.5C490.47 78.4667 492.803 77.95 495.47 77.95C497.037 77.95 498.62 78.1833 500.22 78.65C501.82 79.1167 503.12 79.7833 504.12 80.65L502.02 85.85C501.187 85.1833 500.253 84.6667 499.22 84.3C498.187 83.9 497.187 83.7 496.22 83.7C494.253 83.7 492.72 84.3167 491.62 85.55C490.553 86.75 490.02 88.4667 490.02 90.7C490.02 92.9 490.553 94.6333 491.62 95.9C492.72 97.1333 494.253 97.75 496.22 97.75C497.153 97.75 498.137 97.5667 499.17 97.2C500.237 96.8333 501.187 96.3 502.02 95.6L504.12 100.8C503.12 101.667 501.82 102.35 500.22 102.85C498.62 103.317 497.037 103.55 495.47 103.55ZM519.659 103.55C516.759 103.55 514.259 103.033 512.159 102C510.092 100.933 508.492 99.45 507.359 97.55C506.259 95.6167 505.709 93.35 505.709 90.75C505.709 88.2167 506.242 86 507.309 84.1C508.409 82.1667 509.892 80.6667 511.759 79.6C513.659 78.5 515.842 77.95 518.309 77.95C521.875 77.95 524.709 79.0833 526.809 81.35C528.909 83.5833 529.959 86.6167 529.959 90.45V92.35H512.909C513.175 94.2833 513.875 95.7 515.009 96.6C516.175 97.4667 517.775 97.9 519.809 97.9C521.142 97.9 522.492 97.7 523.859 97.3C525.225 96.9 526.459 96.2833 527.559 95.45L529.559 100.5C528.325 101.433 526.809 102.183 525.009 102.75C523.242 103.283 521.459 103.55 519.659 103.55ZM518.609 82.95C517.009 82.95 515.709 83.4333 514.709 84.4C513.742 85.3667 513.142 86.7167 512.909 88.45H523.709C523.509 84.7833 521.809 82.95 518.609 82.95ZM544.866 103L561.066 67.75H567.316L583.516 103H575.716L572.416 95.35H555.966L552.716 103H544.866ZM564.116 76L558.566 89.3H569.866L564.216 76H564.116ZM594.963 103.55C591.829 103.55 589.513 102.683 588.013 100.95C586.546 99.2167 585.813 96.6167 585.813 93.15V78.45H593.363V93.35C593.363 96.25 594.613 97.7 597.113 97.7C598.546 97.7 599.713 97.2 600.613 96.2C601.546 95.1667 602.013 93.8167 602.013 92.15V78.45H609.563V103H602.213V99.65C600.579 102.25 598.163 103.55 594.963 103.55ZM627.205 112.55C624.838 112.55 622.622 112.3 620.555 111.8C618.522 111.3 616.738 110.517 615.205 109.45L617.255 104.3C618.588 105.133 620.088 105.767 621.755 106.2C623.455 106.667 625.055 106.9 626.555 106.9C630.822 106.9 632.955 104.933 632.955 101V98.2C632.288 99.4667 631.238 100.483 629.805 101.25C628.372 102.017 626.805 102.4 625.105 102.4C622.905 102.4 620.988 101.9 619.355 100.9C617.722 99.8667 616.455 98.4333 615.555 96.6C614.655 94.7667 614.205 92.6167 614.205 90.15C614.205 87.7167 614.655 85.5833 615.555 83.75C616.455 81.9167 617.722 80.5 619.355 79.5C620.988 78.4667 622.905 77.95 625.105 77.95C626.872 77.95 628.455 78.3333 629.855 79.1C631.255 79.8667 632.288 80.8833 632.955 82.15V78.45H640.305V100.15C640.305 104.283 639.188 107.383 636.955 109.45C634.722 111.517 631.472 112.55 627.205 112.55ZM627.355 96.75C629.022 96.75 630.355 96.1667 631.355 95C632.388 93.8333 632.905 92.2167 632.905 90.15C632.905 88.0833 632.388 86.4833 631.355 85.35C630.355 84.1833 629.022 83.6 627.355 83.6C625.655 83.6 624.305 84.1833 623.305 85.35C622.305 86.4833 621.805 88.0833 621.805 90.15C621.805 92.2167 622.305 93.8333 623.305 95C624.305 96.1667 625.655 96.75 627.355 96.75ZM660.883 103V97.25L671.933 85.65C673.333 84.1167 674.333 82.7833 674.933 81.65C675.566 80.4833 675.883 79.3167 675.883 78.15C675.883 75.15 674.033 73.65 670.333 73.65C668.899 73.65 667.466 73.9333 666.033 74.5C664.599 75.0333 663.199 75.8667 661.833 77L659.333 71.3C660.799 70.0333 662.599 69.0333 664.733 68.3C666.899 67.5667 669.116 67.2 671.383 67.2C675.316 67.2 678.316 68.0833 680.383 69.85C682.483 71.5833 683.533 74.0667 683.533 77.3C683.533 79.4333 683.033 81.4833 682.033 83.45C681.066 85.3833 679.466 87.4833 677.233 89.75L670.433 96.65H684.833V103H660.883ZM702.163 103.55C697.896 103.55 694.63 101.967 692.363 98.8C690.13 95.6333 689.013 91.1167 689.013 85.25C689.013 79.3833 690.13 74.9167 692.363 71.85C694.63 68.75 697.896 67.2 702.163 67.2C706.43 67.2 709.68 68.75 711.913 71.85C714.18 74.9167 715.313 79.3833 715.313 85.25C715.313 91.1167 714.18 95.6333 711.913 98.8C709.68 101.967 706.43 103.55 702.163 103.55ZM702.163 97.25C704.096 97.25 705.53 96.3 706.463 94.4C707.396 92.4667 707.863 89.4167 707.863 85.25C707.863 81.0833 707.396 78.0833 706.463 76.25C705.53 74.4167 704.096 73.5 702.163 73.5C700.23 73.5 698.796 74.4167 697.863 76.25C696.93 78.0833 696.463 81.0833 696.463 85.25C696.463 89.4167 696.93 92.4667 697.863 94.4C698.796 96.3 700.23 97.25 702.163 97.25ZM722.144 103V96.65H730.044V76.4L723.994 79.95L721.044 74.3L732.294 67.75H737.794V96.65H745.194V103H722.144ZM759.224 103.55C757.324 103.55 755.441 103.217 753.574 102.55C751.741 101.883 750.124 100.933 748.724 99.7L751.224 93.95C752.424 94.9833 753.707 95.7667 755.074 96.3C756.474 96.8333 757.891 97.1 759.324 97.1C764.824 97.1 767.574 93.5167 767.574 86.35V85.4C766.874 87.0333 765.791 88.3167 764.324 89.25C762.857 90.1833 761.157 90.65 759.224 90.65C757.257 90.65 755.491 90.1667 753.924 89.2C752.357 88.2 751.124 86.85 750.224 85.15C749.324 83.4167 748.874 81.45 748.874 79.25C748.874 76.9167 749.374 74.85 750.374 73.05C751.407 71.2167 752.807 69.7833 754.574 68.75C756.374 67.7167 758.441 67.2 760.774 67.2C765.307 67.2 768.791 68.75 771.224 71.85C773.657 74.9167 774.874 79.2667 774.874 84.9C774.874 88.8333 774.241 92.1833 772.974 94.95C771.741 97.7167 769.957 99.85 767.624 101.35C765.291 102.817 762.491 103.55 759.224 103.55ZM761.224 84.6C762.757 84.6 764.007 84.0833 764.974 83.05C765.941 81.9833 766.424 80.6167 766.424 78.95C766.424 77.25 765.941 75.8667 764.974 74.8C764.007 73.7333 762.757 73.2 761.224 73.2C759.691 73.2 758.441 73.7333 757.474 74.8C756.507 75.8667 756.024 77.25 756.024 78.95C756.024 80.6167 756.507 81.9833 757.474 83.05C758.441 84.0833 759.691 84.6 761.224 84.6Z" fill="#3F3D56"/>
<path d="M561.243 724V720.55L567.873 713.59C568.713 712.67 569.313 711.87 569.673 711.19C570.053 710.49 570.243 709.79 570.243 709.09C570.243 707.29 569.133 706.39 566.913 706.39C566.053 706.39 565.193 706.56 564.333 706.9C563.473 707.22 562.633 707.72 561.813 708.4L560.313 704.98C561.193 704.22 562.273 703.62 563.553 703.18C564.853 702.74 566.183 702.52 567.543 702.52C569.903 702.52 571.703 703.05 572.943 704.11C574.203 705.15 574.833 706.64 574.833 708.58C574.833 709.86 574.533 711.09 573.933 712.27C573.353 713.43 572.393 714.69 571.053 716.05L566.973 720.19H575.613V724H561.243ZM586.012 724.33C583.452 724.33 581.492 723.38 580.132 721.48C578.792 719.58 578.122 716.87 578.122 713.35C578.122 709.83 578.792 707.15 580.132 705.31C581.492 703.45 583.452 702.52 586.012 702.52C588.572 702.52 590.522 703.45 591.862 705.31C593.222 707.15 593.902 709.83 593.902 713.35C593.902 716.87 593.222 719.58 591.862 721.48C590.522 723.38 588.572 724.33 586.012 724.33ZM586.012 720.55C587.172 720.55 588.032 719.98 588.592 718.84C589.152 717.68 589.432 715.85 589.432 713.35C589.432 710.85 589.152 709.05 588.592 707.95C588.032 706.85 587.172 706.3 586.012 706.3C584.852 706.3 583.992 706.85 583.432 707.95C582.872 709.05 582.592 710.85 582.592 713.35C582.592 715.85 582.872 717.68 583.432 718.84C583.992 719.98 584.852 720.55 586.012 720.55ZM597.22 724V720.55L603.85 713.59C604.69 712.67 605.29 711.87 605.65 711.19C606.03 710.49 606.22 709.79 606.22 709.09C606.22 707.29 605.11 706.39 602.89 706.39C602.03 706.39 601.17 706.56 600.31 706.9C599.45 707.22 598.61 707.72 597.79 708.4L596.29 704.98C597.17 704.22 598.25 703.62 599.53 703.18C600.83 702.74 602.16 702.52 603.52 702.52C605.88 702.52 607.68 703.05 608.92 704.11C610.18 705.15 610.81 706.64 610.81 708.58C610.81 709.86 610.51 711.09 609.91 712.27C609.33 713.43 608.37 714.69 607.03 716.05L602.95 720.19H611.59V724H597.22ZM622.978 724V720.22H614.068V716.89L623.758 702.85H627.538V716.56H630.418V720.22H627.538V724H622.978ZM622.978 716.56V709.66L618.298 716.56H622.978Z" fill="#0093EC"/>
<path d="M755.994 674.556L743.734 674.555L737.902 627.268H755.996L755.994 674.556Z" fill="#9E616A"/>
<path d="M759.121 686.44L719.59 686.438V685.938C719.59 681.858 721.211 677.944 724.097 675.059C726.982 672.174 730.896 670.552 734.976 670.552H734.977L759.121 670.553L759.121 686.44Z" fill="#2F2E41"/>
<path d="M708.994 674.556L696.734 674.555L690.902 627.268H708.996L708.994 674.556Z" fill="#9E616A"/>
<path d="M712.121 686.44L672.59 686.438V685.938C672.59 681.858 674.211 677.944 677.097 675.059C679.982 672.174 683.896 670.552 687.976 670.552H687.977L712.121 670.553L712.121 686.44Z" fill="#2F2E41"/>
<path d="M309 687.083V335.172C309 333.005 309.929 330.926 311.583 329.394C313.237 327.861 315.481 327 317.82 327H357.18C359.519 327 361.763 327.861 363.417 329.394C365.071 330.926 366 333.005 366 335.172V688L309 687.083Z" fill="#3F3D56"/>
<path d="M179 688V492.704C179 491.191 179.929 489.74 181.583 488.671C183.237 487.601 185.481 487 187.82 487H227.18C229.519 487 231.763 487.601 233.417 488.671C235.071 489.74 236 491.191 236 492.704V687.58L179 688Z" fill="#3F3D56"/>
<path d="M75.9992 528.619C75.4198 528.619 74.8529 528.451 74.3669 528.136C73.8809 527.82 73.4966 527.371 73.2605 526.842C73.0243 526.313 72.9465 525.727 73.0362 525.155C73.126 524.582 73.3796 524.048 73.7664 523.617L201.108 441.361L335.108 285.361L465.108 191.861L599.092 141.237C603.608 139.861 603.608 144.861 599.092 146.367L465.108 196.984L338.551 289.924L205.108 444.361L78.2337 527.622C77.9526 527.936 77.6082 528.187 77.2231 528.359C76.838 528.531 76.4209 528.62 75.9992 528.619Z" fill="#3F3D56"/>
<path d="M78 543C93.464 543 106 530.464 106 515C106 499.536 93.464 487 78 487C62.536 487 50 499.536 50 515C50 530.464 62.536 543 78 543Z" fill="#00B0FF"/>
<path d="M208 462C223.464 462 236 449.464 236 434C236 418.536 223.464 406 208 406C192.536 406 180 418.536 180 434C180 449.464 192.536 462 208 462Z" fill="#CCCCCC"/>
<path d="M338 305C353.464 305 366 292.464 366 277C366 261.536 353.464 249 338 249C322.536 249 310 261.536 310 277C310 292.464 322.536 305 338 305Z" fill="#E6E6E6"/>
<path d="M468 214C483.464 214 496 201.464 496 186C496 170.536 483.464 158 468 158C452.536 158 440 170.536 440 186C440 201.464 452.536 214 468 214Z" fill="#00B0FF"/>
<path d="M717.832 264.535C733.296 264.535 745.832 251.999 745.832 236.535C745.832 221.071 733.296 208.535 717.832 208.535C702.368 208.535 689.832 221.071 689.832 236.535C689.832 251.999 702.368 264.535 717.832 264.535Z" fill="#00B0FF"/>
<path d="M707.932 454.656C718.412 455.918 745.211 446.358 746.663 460.902C760.457 501.507 760.048 657.159 760.048 657.159L739.048 658.159C739.048 658.159 722.267 534.484 714.332 508.026C710.35 540.185 711.048 663.159 711.048 663.159L692.048 664.159C692.048 664.159 675.005 559.441 674.908 528.706C672.836 506.192 677.916 472.83 675.742 451.066C686.133 454.359 697.071 455.579 707.932 454.656L707.932 454.656Z" fill="#3F3D56"/>
<path d="M439 684.92V247.166C439 241.552 442.949 237 447.82 237H487.18C492.051 237 496 241.551 496 247.166V686.066L439 684.92Z" fill="#3F3D56"/>
<path d="M672.282 336.856C668.079 328.263 662.945 320.158 656.972 312.686C655.724 311.227 654.587 309.676 653.572 308.046C651.422 304.316 650.782 299.936 649.422 295.856C645.622 284.416 636.142 275.226 633.832 263.396C632.992 259.096 625.896 271.594 627.762 276.926C631.092 286.576 631.522 296.796 635.762 306.116C640.002 315.436 644.982 324.376 648.642 333.906C650.722 339.316 652.382 344.906 655.432 349.906C658.482 354.906 663.242 359.096 668.992 359.846C668.953 356.221 669.504 352.614 670.622 349.166C671.872 345.226 674.092 340.586 672.282 336.856Z" fill="#9E616A"/>
<path d="M735.192 343.336C734.935 336.265 736.038 329.211 738.442 322.556C739.362 320.006 740.442 317.416 740.352 314.706C740.222 312.186 739.022 309.876 737.932 307.596C734.172 299.746 731.532 291.426 728.932 283.126L723.932 267.476C722.302 266.281 731.822 265.866 733.852 268.676C740.492 277.896 745.522 288.486 750.782 298.556C752.124 300.956 753.267 303.461 754.202 306.046C755.487 310.236 756.094 314.604 756.002 318.986C756.002 327.176 754.922 335.336 753.802 343.456C753.092 348.546 752.162 354.086 748.312 357.456C744.312 352.336 740.292 347.336 735.192 343.336Z" fill="#9E616A"/>
<path d="M708.752 335.234C720.212 335.234 729.502 325.944 729.502 314.484C729.502 303.024 720.212 293.734 708.752 293.734C697.292 293.734 688.002 303.024 688.002 314.484C688.002 325.944 697.292 335.234 708.752 335.234Z" fill="#9E616A"/>
<path d="M691.884 293.782C691.651 293.152 691.599 292.47 691.733 291.812C691.867 291.154 692.183 290.547 692.644 290.059C693.162 289.65 693.85 289.498 694.405 289.108C695.195 288.444 695.841 287.627 696.305 286.705C697.722 284.722 699.797 283.304 702.16 282.704C704.523 282.104 707.022 282.361 709.214 283.428C712.643 285.223 714.713 288.817 717.763 291.237C719.311 292.491 721.107 293.421 722.665 294.675C725.785 297.37 728.003 300.958 729.019 304.953C730.031 308.922 730.621 312.986 730.781 317.078C730.943 318.306 730.895 319.552 730.639 320.764C730.323 321.78 729.853 322.741 729.243 323.614C726.108 328.363 721.977 332.676 716.799 335.127C711.622 337.577 705.325 337.976 700.219 335.412C699.705 335.204 699.263 334.851 698.946 334.395C698.656 333.702 698.587 332.936 698.747 332.201C699.024 329.298 698.45 326.377 697.094 323.795C696.144 321.895 694.719 320.261 693.96 318.295C693.253 316.095 692.95 313.784 693.066 311.476C692.976 305.494 693.382 299.539 691.884 293.782Z" fill="#2D293D"/>
<path d="M49 685.695V568.717C49 567.217 52.949 566 57.82 566H97.18C102.051 566 106 567.218 106 568.717V686L49 685.695Z" fill="#3F3D56"/>
<path d="M820.169 687.802H1C0.734784 687.802 0.480429 687.697 0.292892 687.509C0.105356 687.322 0 687.067 0 686.802C0 686.537 0.105356 686.282 0.292892 686.095C0.480429 685.907 0.734784 685.802 1 685.802H820.168C820.433 685.802 820.688 685.907 820.875 686.095C821.063 686.282 821.168 686.537 821.168 686.802C821.168 687.067 821.063 687.322 820.875 687.509C820.688 687.697 820.433 687.802 820.168 687.802H820.169Z" fill="#E6E6E6"/>
<path d="M566 687.671V177.839C566 171.301 569.949 166 574.82 166H614.18C619.051 166 623 171.301 623 177.839V689L566 687.671Z" fill="#00B0FF"/>
<path d="M627.183 274.365C632.153 274.365 636.183 270.336 636.183 265.365C636.183 260.395 632.153 256.365 627.183 256.365C622.212 256.365 618.183 260.395 618.183 265.365C618.183 270.336 622.212 274.365 627.183 274.365Z" fill="#A0616A"/>
<path d="M727.183 270.365C732.153 270.365 736.183 266.336 736.183 261.365C736.183 256.395 732.153 252.365 727.183 252.365C722.212 252.365 718.183 256.395 718.183 261.365C718.183 266.336 722.212 270.365 727.183 270.365Z" fill="#A0616A"/>
<path d="M749.052 372.776C749.93 371.972 757.09 330.102 757.048 329.159C756.937 324 741.198 318.109 738.048 320.159C735.076 322.093 729.901 344.283 726.571 348.324L723.048 342.159H695.048L693.351 345.31C689.677 343.097 686.372 341.056 685.193 340.381C684.788 340.107 684.347 339.89 683.882 339.736C680.972 339.085 678.24 337.802 675.882 335.976C673.582 334.206 662.908 315.669 660.048 316.159C656.818 316.699 645.923 326.119 646.048 335.159C647.419 335.129 665.262 370.806 665.512 372.136C666.882 377.756 671.406 459.716 672.866 463.536C679.592 462.886 674.282 461.726 680.792 463.536C687.802 465.486 695.202 463.376 702.432 462.596C705.442 462.298 708.467 462.164 711.492 462.196C722.492 462.246 738.192 462.856 748.842 465.586C748.902 458.606 742.772 443.506 740.502 436.916C740.205 434.946 740.215 432.943 740.532 430.976C740.822 428.566 746.678 375.441 749.052 372.776Z" fill="#E6E6E6"/>
</svg>
