<svg width="760" height="584" viewBox="0 0 760 584" fill="none" xmlns="http://www.w3.org/2000/svg">
<path d="M759.177 300.39C759.177 387.634 707.312 418.096 643.333 418.096C579.354 418.096 527.489 387.634 527.489 300.39C527.489 213.146 643.333 102.158 643.333 102.158C643.333 102.158 759.177 213.146 759.177 300.39Z" fill="#F2F2F2"/>
<path d="M639.113 404.75L640.299 331.735L689.675 241.405L640.485 320.281L641.018 287.45L675.048 222.097L641.159 278.762V278.763L642.119 219.714L678.558 167.685L642.269 210.43L642.869 102.158L639.102 245.49L639.412 239.577L602.364 182.869L638.817 250.928L635.366 316.874L635.263 315.124L592.552 255.446L635.133 321.307L634.702 329.554L634.624 329.678L634.66 330.355L625.902 497.665H637.603L639.007 411.246L681.484 345.547L639.113 404.75Z" fill="#3F3D56"/>
<path d="M125.654 444.927C125.654 468.52 111.628 476.758 94.3269 476.758C77.0256 476.758 63 468.52 63 444.927C63 421.335 94.3269 391.321 94.3269 391.321C94.3269 391.321 125.654 421.334 125.654 444.927Z" fill="#F2F2F2"/>
<path d="M93.1861 473.149L93.5064 453.404L106.859 428.977L93.5569 450.306L93.701 441.428L102.903 423.755L93.7394 439.079L93.9986 423.111L103.853 409.041L94.0398 420.6L94.2017 391.321L93.1833 430.081L93.2664 428.482L83.2479 413.147L93.1059 431.552L92.1726 449.385L92.1449 448.912L80.5952 432.773L92.1094 450.584L91.9929 452.814L91.9723 452.847L91.9816 453.031L89.613 498.276H92.7777L93.157 474.906L104.644 457.139L93.1861 473.149Z" fill="#3F3D56"/>
<path d="M67.4153 498.357H698.097" stroke="#3F3D56" stroke-width="2"/>
<path d="M698.433 477.129C698.433 493.087 688.947 498.659 677.245 498.659C676.973 498.659 676.703 498.656 676.432 498.65C675.89 498.638 675.353 498.612 674.823 498.576C664.261 497.829 656.056 491.97 656.056 477.129C656.056 461.771 675.682 442.39 677.157 440.956L677.159 440.953C677.216 440.898 677.245 440.871 677.245 440.871C677.245 440.871 698.433 461.172 698.433 477.129Z" fill="#0093EC"/>
<path d="M676.472 496.218L684.222 485.389L676.453 497.407L676.432 498.65C675.89 498.638 675.353 498.613 674.823 498.576L675.658 482.611L675.651 482.487L675.666 482.464L675.744 480.956L667.956 468.908L675.769 479.825L675.787 480.145L676.418 468.082L669.75 455.633L676.5 465.965L677.157 440.956L677.159 440.871V440.953L677.049 460.674L683.688 452.856L677.022 462.373L676.847 473.174L683.045 462.808L676.821 474.763L676.723 480.767L685.721 466.341L676.689 482.862L676.472 496.218Z" fill="#3F3D56"/>
<path d="M471.849 112.999H469.109C467.843 112.999 466.817 114.025 466.817 115.291V171.091C466.817 172.357 467.843 173.383 469.109 173.383H471.849C473.115 173.383 474.141 172.357 474.141 171.091V115.291C474.141 114.025 473.115 112.999 471.849 112.999Z" fill="#3F3D56"/>
<path d="M225.946 65.6936H224.843C224.012 65.6936 223.339 66.3666 223.339 67.1969V84.0691C223.339 84.8993 224.012 85.5724 224.843 85.5724H225.946C226.777 85.5724 227.45 84.8993 227.45 84.0691V67.1969C227.45 66.3666 226.777 65.6936 225.946 65.6936Z" fill="#3F3D56"/>
<path d="M226.129 102.088H224.885C223.949 102.088 223.19 102.847 223.19 103.783V134.995C223.19 135.931 223.949 136.689 224.885 136.689H226.129C227.065 136.689 227.823 135.931 227.823 134.995V103.783C227.823 102.847 227.065 102.088 226.129 102.088Z" fill="#3F3D56"/>
<path d="M226.061 148.796H224.877C223.987 148.796 223.265 149.518 223.265 150.408V182.083C223.265 182.974 223.987 183.696 224.877 183.696H226.061C226.952 183.696 227.674 182.974 227.674 182.083V150.408C227.674 149.518 226.952 148.796 226.061 148.796Z" fill="#3F3D56"/>
<path d="M435.076 0H261.361C241.648 0 225.667 15.9807 225.667 35.694V462.441C225.667 482.154 241.648 498.135 261.361 498.135H435.076C454.789 498.135 470.77 482.154 470.77 462.441V35.694C470.77 15.9807 454.789 0 435.076 0Z" fill="#3F3D56"/>
<path d="M356.261 14.8757H327.117C325.713 14.8757 324.575 16.0138 324.575 17.4176V19.2839C324.575 20.6878 325.713 21.8258 327.117 21.8258H356.261C357.665 21.8258 358.803 20.6878 358.803 19.2839V17.4176C358.803 16.0138 357.665 14.8757 356.261 14.8757Z" fill="#E6E8EC"/>
<path d="M367.92 22.2929C370.097 22.2929 371.862 20.5279 371.862 18.3508C371.862 16.1736 370.097 14.4086 367.92 14.4086C365.743 14.4086 363.978 16.1736 363.978 18.3508C363.978 20.5279 365.743 22.2929 367.92 22.2929Z" fill="#E6E8EC"/>
<path d="M455.634 32.4432V465.696C455.632 476.445 446.916 485.156 436.166 485.156H260.272C249.522 485.156 240.806 476.445 240.804 465.696V32.4432C240.804 27.28 242.855 22.3281 246.506 18.6772C250.156 15.0263 255.108 12.9758 260.272 12.9758H286.593V16.3565C286.595 25.2085 293.77 32.3838 302.622 32.3863H392.076C400.929 32.3863 408.105 25.2095 408.105 16.3565V12.9758H436.166C441.33 12.9758 446.281 15.0263 449.932 18.6772C453.583 22.3281 455.634 27.28 455.634 32.4432Z" fill="white"/>
<path d="M455.755 113.414H240.556V360.573H455.755V113.414Z" fill="#F2F2F2"/>
<path d="M256.181 394.773L255.048 393.751C251.024 390.057 248.368 387.66 248.368 384.673C248.348 383.525 248.793 382.418 249.603 381.603C250.412 380.789 251.517 380.337 252.665 380.35C254.022 380.357 255.308 380.961 256.181 382.001C257.053 380.961 258.339 380.357 259.696 380.35C260.844 380.337 261.949 380.789 262.758 381.603C263.568 382.418 264.013 383.525 263.993 384.673C263.993 387.66 261.337 390.057 257.314 393.751L256.181 394.773Z" fill="#FF6584"/>
<path d="M297.255 390.994L299.445 391.62C300.239 389.318 302.116 387.555 304.463 386.906C306.811 386.258 309.327 386.809 311.189 388.378L307.845 391.62H316.195V383.503L312.83 386.729C310.386 384.586 307.03 383.813 303.895 384.671C300.76 385.53 298.266 387.905 297.255 390.995V390.994Z" fill="#F2F2F2"/>
<path d="M253.943 105.886C259.435 105.886 263.886 101.435 263.886 95.9432C263.886 90.4517 259.435 86 253.943 86C248.452 86 244 90.4517 244 95.9432C244 101.435 248.452 105.886 253.943 105.886Z" fill="#0093EC"/>
<path d="M364.029 90.2614H271.699V101.625H364.029V90.2614Z" fill="#0093EC"/>
<path d="M340.698 411.709H248.368V423.073H340.698V411.709Z" fill="#F2F2F2"/>
<path d="M443.681 436.482H248.368V447.846H443.681V436.482Z" fill="#F2F2F2"/>
<path d="M288.141 394.055L285.694 389.773C286.904 386.868 285.791 383.516 283.085 381.912C280.378 380.307 276.903 380.939 274.935 383.394C272.967 385.849 273.106 389.378 275.261 391.671C277.416 393.963 280.929 394.32 283.501 392.508L288.141 394.055Z" fill="#F2F2F2"/>
<path d="M329.947 171.38H329.947C322.565 172.89 316.086 177.271 311.935 183.559C307.783 189.847 306.299 197.526 307.81 204.908L313.673 233.559L320.238 232.215L320.701 229.179L322.076 231.839L361.986 223.672L362.45 220.636L363.824 223.296L369.338 222.167L363.475 193.517C361.964 186.135 357.583 179.656 351.295 175.504C345.008 171.353 337.328 169.869 329.947 171.38Z" fill="#2F2E41"/>
<path d="M379.405 259.281L413.496 279.877L409.234 289.82L377.274 274.906L379.405 259.281Z" fill="#9F616A"/>
<path d="M336.081 282.718C336.081 282.718 267.189 282.718 255.825 300.474C244.462 318.229 253.695 343.087 289.206 348.769C324.717 354.451 432.672 357.292 441.195 335.985C449.717 314.678 443.325 302.604 443.325 302.604C443.325 302.604 406.394 277.036 336.081 282.718Z" fill="#0093EC"/>
<path d="M397.161 299.763L434.803 313.968C434.803 313.968 450.428 302.604 442.615 289.82C434.803 277.036 399.291 203.173 399.291 203.173C399.291 203.173 389.348 188.968 402.132 181.156C414.916 173.343 419.888 186.127 419.888 186.127C419.888 186.127 419.178 188.968 424.149 186.837C429.121 184.707 438.354 191.809 433.382 203.173C428.411 214.536 424.86 217.377 435.513 216.667C439.36 216.41 442.744 213.653 445.498 210.235C450.776 203.683 448.419 198.406 448.02 190.003C447.336 175.606 446.218 166.22 442.615 160.559C437.644 152.746 430.541 146.354 412.076 149.906C393.61 153.457 366.621 171.212 373.013 196.781C379.405 222.349 393.61 250.758 393.61 250.758C393.61 250.758 403.553 290.531 397.161 299.763Z" fill="#0093EC"/>
<path opacity="0.1" d="M397.161 299.764C391.024 301.454 383.318 302.278 375.023 302.533C360.549 302.981 344.256 301.702 331.245 300.254C317.189 298.684 306.962 296.923 306.962 296.923C311.713 292.491 319.014 290.737 327.594 290.097C338.247 289.302 350.875 290.211 363.07 289.82C367.565 289.663 372.065 290.001 376.486 290.829C389.938 293.393 397.161 299.764 397.161 299.764Z" fill="black"/>
<path d="M335.726 223.414C346.709 223.414 355.612 214.511 355.612 203.528C355.612 192.545 346.709 183.641 335.726 183.641C324.743 183.641 315.84 192.545 315.84 203.528C315.84 214.511 324.743 223.414 335.726 223.414Z" fill="#9F616A"/>
<path d="M333.24 219.508C333.24 219.508 336.791 233.002 333.24 233.712C329.689 234.423 321.166 237.974 321.166 237.974L331.82 242.235L351.706 260.701L368.751 269.224L377.274 266.383V250.758L364.49 230.871C364.49 230.871 355.967 233.712 353.837 224.479C351.706 215.246 347.445 211.695 347.445 211.695L333.24 219.508Z" fill="#9F616A"/>
<path d="M328.269 238.684H319.746C319.746 238.684 304.831 243.656 296.308 255.019C287.786 266.383 274.291 277.746 274.291 277.746C274.291 277.746 265.058 290.531 270.03 308.286C275.002 326.042 282.104 338.826 288.496 335.275C294.888 331.724 279.263 306.156 279.263 306.156L283.524 290.531C283.524 290.531 305.541 264.962 314.774 265.673C324.007 266.383 324.718 274.195 324.718 274.195L344.604 279.877L350.996 266.383L347.445 252.178L328.269 238.684Z" fill="#9F616A"/>
<path d="M379.405 283.428C378.062 285.733 377.078 288.228 376.486 290.829C375.599 294.67 375.109 298.592 375.023 302.533C360.548 302.981 344.256 301.702 331.244 300.254C330.094 297.185 328.83 293.656 327.594 290.097C324.263 280.481 321.166 270.665 321.166 269.224C321.166 266.383 336.081 271.354 339.632 270.644C343.183 269.934 344.604 258.57 339.632 252.889C334.661 247.207 320.101 237.619 320.101 237.619L325.073 236.198C325.073 236.198 336.081 244.366 358.808 257.86C381.536 271.354 372.303 250.048 372.303 250.048L359.164 229.806H364.845C364.845 229.806 375.854 248.627 381.536 257.15C387.218 265.673 385.087 274.195 379.405 283.428Z" fill="#3F3D56"/>
<path d="M313.78 184.07L349.799 176.699L354.322 198.801L318.303 206.172L313.78 184.07Z" fill="#2F2E41"/>
<path d="M427.345 179.38C433.229 179.38 437.999 174.61 437.999 168.727C437.999 162.843 433.229 158.073 427.345 158.073C421.462 158.073 416.692 162.843 416.692 168.727C416.692 174.61 421.462 179.38 427.345 179.38Z" fill="#3F3D56"/>
<path d="M427.345 174.408C430.483 174.408 433.027 171.865 433.027 168.727C433.027 165.589 430.483 163.045 427.345 163.045C424.207 163.045 421.664 165.589 421.664 168.727C421.664 171.865 424.207 174.408 427.345 174.408Z" fill="white"/>
<path d="M114.659 291.699L113.933 297.303C113.687 299.201 113.441 301.1 113.309 303.008C112.869 309.357 113.689 315.732 113.474 322.093C113.307 326.99 112.527 331.884 112.904 336.769C113.237 341.09 114.467 345.286 115.69 349.443L117.438 355.387C117.467 355.747 117.662 356.072 117.966 356.268C118.27 356.463 118.647 356.506 118.987 356.383L126.723 355.682C126.227 353.411 125.676 351.043 125.41 348.734C125.199 346.907 125.073 345.072 124.941 343.239C124.529 337.522 124.063 331.81 123.597 326.098L122.778 316.064C122.423 311.711 122.064 307.333 120.968 303.105C119.876 298.826 117.704 294.898 114.659 291.699Z" fill="#0093EC"/>
<path opacity="0.1" d="M114.659 291.699L113.933 297.303C113.687 299.201 113.441 301.1 113.309 303.008C112.869 309.357 113.689 315.732 113.474 322.093C113.307 326.99 112.527 331.884 112.904 336.769C113.237 341.09 114.467 345.286 115.69 349.443L117.438 355.387C117.467 355.747 117.662 356.072 117.966 356.268C118.27 356.463 118.647 356.506 118.987 356.383L126.723 355.682C126.227 353.411 125.676 351.043 125.41 348.734C125.199 346.907 125.073 345.072 124.941 343.239C124.529 337.522 124.063 331.81 123.597 326.098L122.778 316.064C122.423 311.711 122.064 307.333 120.968 303.105C119.876 298.826 117.704 294.898 114.659 291.699Z" fill="black"/>
<path d="M128.44 483.878C127.984 484.771 127.588 485.692 127.253 486.636C126.365 489.244 126.231 492.038 126.104 494.79C126.044 495.321 126.093 495.859 126.249 496.37C126.629 497.359 127.723 497.86 128.746 498.135C133.03 499.287 137.548 498.203 141.967 497.808C146.304 497.42 150.723 497.7 154.971 496.744C155.599 496.625 156.206 496.414 156.772 496.118C157.849 495.418 158.652 494.369 159.047 493.146C159.176 492.834 159.263 492.505 159.306 492.17C159.446 490.722 158.184 489.464 156.81 488.988C155.435 488.513 153.941 488.591 152.494 488.442C146.375 487.814 141.439 483.158 140.454 477.086C140.403 476.77 133.3 476.957 132.553 477.367C131.678 477.847 131.148 479.045 130.655 479.855C129.858 481.163 129.12 482.504 128.44 483.878Z" fill="#3F3D56"/>
<path opacity="0.1" d="M128.44 483.878C127.984 484.771 127.588 485.692 127.253 486.636C126.365 489.244 126.231 492.038 126.104 494.79C126.044 495.321 126.093 495.859 126.249 496.37C126.629 497.359 127.723 497.86 128.746 498.135C133.03 499.287 137.548 498.203 141.967 497.808C146.304 497.42 150.723 497.7 154.971 496.744C155.599 496.625 156.206 496.414 156.772 496.118C157.849 495.418 158.652 494.369 159.047 493.146C159.176 492.834 159.263 492.505 159.306 492.17C159.446 490.722 158.184 489.464 156.81 488.988C155.435 488.513 153.941 488.591 152.494 488.442C146.375 487.814 141.439 483.158 140.454 477.086C140.403 476.77 133.3 476.957 132.553 477.367C131.678 477.847 131.148 479.045 130.655 479.855C129.858 481.163 129.12 482.504 128.44 483.878Z" fill="black"/>
<path d="M140.216 484.551C139.761 485.444 139.364 486.365 139.03 487.31C138.141 489.917 138.007 492.712 137.881 495.463C137.82 495.994 137.869 496.532 138.026 497.043C138.405 498.032 139.5 498.533 140.523 498.808C144.807 499.96 149.325 498.876 153.744 498.481C158.081 498.093 162.499 498.373 166.748 497.417C167.375 497.298 167.982 497.088 168.548 496.791C169.625 496.091 170.429 495.042 170.824 493.82C170.953 493.507 171.04 493.179 171.082 492.843C171.222 491.395 169.961 490.137 168.586 489.662C167.212 489.186 165.718 489.264 164.271 489.116C158.152 488.487 153.216 483.831 152.231 477.759C152.18 477.443 145.077 477.63 144.329 478.04C143.454 478.52 142.925 479.718 142.432 480.528C141.635 481.836 140.897 483.177 140.216 484.551Z" fill="#3F3D56"/>
<path d="M170.933 414.441C171.024 428.704 166.876 442.645 162.011 456.052C160.085 461.359 158.041 466.621 155.88 471.835C154.6 474.926 153.158 478.354 154.529 481.406C150.583 479.904 146.542 479.017 142.376 479.71C143.962 476.478 143.812 472.715 143.883 469.116C144.021 464.23 144.547 459.363 145.456 454.56C146.852 447.253 149.246 440.172 152.572 433.517C153.246 432.114 153.711 430.619 153.951 429.081C154.383 425.66 154.184 422.19 153.365 418.841C151.844 411.422 148.959 404.35 144.854 397.986C144.841 398.127 144.828 398.271 144.812 398.412C144.564 400.533 144.207 402.64 143.742 404.724C142.81 409.142 141.724 413.562 141.886 418.003C142.061 422.714 141.769 427.43 141.015 432.083C140.775 433.911 140.299 435.7 139.599 437.406C139.144 438.426 138.55 439.387 138.191 440.444C137.835 441.666 137.65 442.932 137.639 444.205C137.108 454.945 137.631 468.689 139.827 479.217C136.127 479.047 132.45 479.884 129.189 481.64C126.535 474.153 124.844 463.518 123.58 455.633C122.149 446.319 122.44 436.82 124.439 427.61C125.06 424.537 125.293 421.399 125.132 418.268C124.85 412.031 123.316 405.931 121.793 399.878C121.018 396.805 120.244 393.732 119.469 390.658C118.367 386.28 117.264 381.9 116.158 377.52C115.426 374.608 114.685 371.632 114.915 368.636C115.077 366.993 115.422 365.373 115.944 363.807C117.592 358.478 120.057 353.436 123.251 348.861C135.967 349.576 148.837 348.385 161.535 347.409C162.152 347.287 162.793 347.396 163.335 347.715C163.767 348.155 164.023 348.736 164.058 349.351C165.649 358.361 167.239 367.372 168.829 376.382C169.603 380.145 170.057 383.966 170.187 387.805C170.21 391.631 169.59 395.444 169.734 399.268C169.928 404.418 170.901 409.289 170.933 414.441Z" fill="#2F2E41"/>
<path opacity="0.1" d="M144.812 398.412C144.564 400.533 144.207 402.64 143.742 404.724C140.976 399.941 137.995 395.277 135.448 390.373C134.792 389.109 134.166 387.829 133.538 386.552C132.913 385.275 132.287 383.998 131.662 382.721C131.311 382.003 130.958 381.284 130.641 380.548C130.124 379.489 129.727 378.375 129.458 377.227C130.384 377.057 132.666 379.554 133.352 380.206C134.759 381.592 136.087 383.057 137.33 384.592C138.834 386.294 140.215 388.102 141.462 390.001C143.056 392.59 144.189 395.436 144.812 398.412Z" fill="black"/>
<path d="M155.408 267.127C155.408 267.127 148.342 278.38 149.651 280.735C150.959 283.09 127.406 278.642 127.406 278.642C127.406 278.642 140.23 267.388 138.921 262.678C137.613 257.967 155.408 267.127 155.408 267.127Z" fill="#EFB7B9"/>
<path d="M149.128 270.529C157.944 270.529 165.092 263.381 165.092 254.565C165.092 245.748 157.944 238.601 149.128 238.601C140.311 238.601 133.164 245.748 133.164 254.565C133.164 263.381 140.311 270.529 149.128 270.529Z" fill="#EFB7B9"/>
<path d="M155.645 278.926C153.936 276.549 151.617 274.677 148.932 273.51C147.386 272.956 145.788 272.562 144.162 272.333L137.793 271.213C136.232 270.939 134.562 270.676 133.114 271.32C132.373 271.694 131.7 272.186 131.119 272.778C128.905 274.828 126.76 277.083 123.984 278.266C123.225 278.59 122.43 278.827 121.671 279.154C118.566 280.491 116.244 283.283 114.925 286.396C113.541 289.662 113.501 293.202 113.61 296.747C113.607 297.971 113.727 299.191 113.969 300.39C114.29 301.532 114.694 302.648 115.177 303.731C116.057 306.043 116.793 308.408 117.383 310.811C119.033 317.127 120.405 323.507 121.498 329.952C121.593 330.878 121.866 331.778 122.301 332.601C122.915 333.421 123.659 334.135 124.503 334.716C125.171 335.27 125.788 335.882 126.348 336.545C126.621 336.828 126.821 337.173 126.931 337.55C127.137 338.503 126.295 339.319 125.612 340.015C124.192 341.463 123.166 343.25 122.631 345.206C122.297 345.607 122.128 346.12 122.157 346.641C122.294 347.001 122.345 347.389 122.306 347.773C122.175 348.123 121.97 348.441 121.706 348.706C121.09 349.508 120.848 350.536 121.043 351.528C125.992 353.678 131.287 354.918 136.676 355.188C137.995 355.249 139.32 355.25 140.631 355.411C141.566 355.526 142.49 355.723 143.425 355.832C144.786 355.96 146.155 355.995 147.521 355.937C154.626 355.796 161.94 355.612 168.465 352.795C169.079 349.449 167.755 346.039 166.925 342.739C165.604 337.492 165.271 332.05 164.288 326.729C163.615 323.087 162.638 319.503 162.078 315.842C161.518 312.181 161.387 308.385 162.393 304.821C163.285 301.662 163.554 298.447 164.478 295.298C165.403 292.149 166.051 288.735 165.007 285.623C163.713 281.765 159.709 278.713 155.645 278.926Z" fill="#0093EC"/>
<path d="M163.485 246.102C164.261 243.267 162.734 240.317 160.908 238.014C158.946 235.54 156.41 233.307 153.314 232.686C150.798 232.181 148.19 232.791 145.632 232.588C143.364 232.408 141.191 231.595 138.935 231.303C136.895 231.084 134.833 231.162 132.815 231.535C130.896 231.815 129.021 232.339 127.235 233.094C120.44 236.105 116.458 243.541 115.534 250.916C114.61 258.291 116.23 265.722 117.841 272.978L119.297 279.537C120.812 286.364 122.332 293.226 122.737 300.208C123.143 307.189 122.386 314.356 119.515 320.732C128.8 315.745 135.994 307.599 139.797 297.769C140.829 295.069 141.594 292.268 142.738 289.614C143.722 287.33 144.982 285.166 145.854 282.837C146.838 280.206 147.31 277.412 147.246 274.603C147.196 272.493 146.843 270.393 146.904 268.282C146.966 266.172 147.503 263.97 148.961 262.444C150.258 261.088 152.101 260.436 153.771 259.582C156.399 258.233 158.695 256.317 160.493 253.974C161.545 252.603 161.601 252.017 161.868 250.436C162.129 248.898 163.076 247.595 163.485 246.102Z" fill="#2F2E41"/>
<path d="M163.507 366.03C163.669 367.671 163.37 369.354 163.729 370.963C163.999 372.173 164.626 373.272 164.994 374.456C165.36 375.827 165.549 377.24 165.555 378.659C165.608 379.849 165.517 381.297 164.464 381.854C164.001 382.1 163.447 382.104 162.965 382.31C162.484 382.515 162.071 383.099 162.347 383.544C162.579 383.918 163.105 383.922 163.536 384.011C163.967 384.099 164.441 384.546 164.191 384.908C164.09 385.026 163.957 385.111 163.807 385.152C163.366 385.285 162.949 385.485 162.57 385.747C162.187 386.02 161.991 386.485 162.061 386.949C162.114 387.171 162.265 387.357 162.473 387.453C162.68 387.548 162.92 387.543 163.123 387.439C162.93 387.851 162.825 388.299 162.813 388.755C164.498 389.479 166.394 388.532 167.979 387.611C168.667 387.229 169.331 386.807 169.967 386.345C172.559 384.344 173.993 381.19 173.798 377.921C173.725 377.111 173.6 376.306 173.426 375.511C173.18 374.129 172.856 372.762 172.454 371.417C172.001 369.998 171.378 368.64 170.844 367.25C169.705 364.288 168.973 361.186 167.948 358.182C167.918 357.892 167.769 357.628 167.536 357.452C167.303 357.277 167.007 357.206 166.72 357.258C165.565 357.198 164.407 357.304 163.283 357.574C162.603 357.773 161.488 358.209 161.183 358.921C160.909 359.563 161.369 360.137 161.661 360.687C162.617 362.331 163.244 364.146 163.507 366.03Z" fill="#EFB7B9"/>
<path opacity="0.1" d="M162.427 285.831C162.768 286.177 163.053 286.574 163.273 287.007C165.541 291.129 165.569 296.064 165.676 300.767C165.796 306.062 166.086 311.352 166.376 316.64L167.242 332.456C167.325 333.967 167.408 335.48 167.62 336.979C168.639 337.236 168.681 338.553 168.563 339.598C167.834 346.052 166.018 352.696 167.919 358.907C167.992 359.227 168.145 359.523 168.364 359.767C167.406 359.465 166.379 359.451 165.413 359.728C164.465 359.927 163.554 360.274 162.61 360.489C161.408 360.763 160.045 360.88 159.225 361.8C158.299 359.009 157.561 356.159 157.017 353.269C156.567 350.643 156.444 347.912 155.374 345.472C154.942 344.487 154.365 343.573 153.838 342.635C151.067 337.699 149.71 332.115 148.384 326.612C147.788 324.002 147.645 321.31 147.962 318.652C148.15 317.439 148.261 316.215 148.293 314.989C148.208 313.694 148.039 312.407 147.785 311.135C147.225 307.404 147.487 303.596 148.553 299.976C149.546 296.615 150.417 293.08 152.494 290.257C154.571 287.434 158.923 285.878 162.427 285.831Z" fill="black"/>
<path d="M163.212 285.307C163.553 285.654 163.838 286.05 164.058 286.484C166.326 290.606 166.355 295.54 166.461 300.244C166.581 305.539 166.871 310.829 167.161 316.117L168.027 331.933C168.11 333.444 168.193 334.957 168.405 336.455C169.424 336.713 169.467 338.03 169.349 339.074C168.619 345.529 166.803 352.173 168.705 358.384C168.777 358.704 168.93 359 169.149 359.244C168.191 358.942 167.165 358.928 166.198 359.204C165.251 359.404 164.339 359.751 163.395 359.966C162.193 360.239 160.83 360.357 160.01 361.277C159.084 358.486 158.346 355.636 157.802 352.746C157.352 350.12 157.229 347.389 156.159 344.949C155.727 343.963 155.15 343.05 154.623 342.111C151.852 337.175 150.495 331.592 149.169 326.088C148.573 323.479 148.431 320.786 148.747 318.128C148.935 316.916 149.046 315.692 149.078 314.465C148.993 313.171 148.824 311.884 148.57 310.612C148.01 306.88 148.273 303.072 149.338 299.453C150.332 296.092 151.202 292.556 153.279 289.733C155.356 286.91 159.708 285.355 163.212 285.307Z" fill="#0093EC"/>
<g opacity="0.1">
<path opacity="0.1" d="M160.908 238.014C158.946 235.54 156.41 233.307 153.314 232.686C150.798 232.181 148.19 232.791 145.632 232.588C143.364 232.408 141.192 231.595 138.936 231.303C136.895 231.084 134.833 231.162 132.815 231.535C130.896 231.815 129.021 232.339 127.235 233.094C126.27 233.523 125.349 234.046 124.485 234.653C126.077 234.051 127.729 233.62 129.413 233.367C131.431 232.994 133.493 232.916 135.533 233.135C137.789 233.427 139.962 234.24 142.23 234.42C144.788 234.623 147.395 234.013 149.912 234.518C153.008 235.139 155.544 237.372 157.506 239.846C159.332 242.149 160.859 245.099 160.083 247.934C159.674 249.427 158.727 250.73 158.466 252.268C158.199 253.849 158.143 254.435 157.091 255.805C155.737 257.568 154.099 259.094 152.244 260.319C152.756 260.075 153.271 259.838 153.772 259.582C156.399 258.233 158.695 256.317 160.493 253.973C161.545 252.603 161.601 252.017 161.868 250.436C162.129 248.898 163.076 247.595 163.485 246.102C164.261 243.267 162.735 240.317 160.908 238.014Z" fill="black"/>
<path opacity="0.1" d="M148.962 262.444C149.236 262.16 149.535 261.901 149.854 261.669C148.329 262.408 146.724 263.058 145.559 264.276C144.101 265.802 143.564 268.004 143.502 270.114C143.441 272.224 143.794 274.325 143.844 276.435C143.908 279.244 143.436 282.038 142.452 284.669C141.58 286.998 140.32 289.162 139.336 291.445C138.192 294.1 137.427 296.901 136.395 299.601C133.096 308.122 127.239 315.411 119.628 320.467C119.589 320.555 119.554 320.645 119.515 320.732C128.8 315.745 135.994 307.599 139.797 297.769C140.83 295.069 141.594 292.268 142.738 289.614C143.722 287.33 144.982 285.166 145.854 282.837C146.838 280.206 147.31 277.412 147.246 274.603C147.196 272.493 146.843 270.392 146.905 268.282C146.966 266.172 147.503 263.97 148.962 262.444Z" fill="black"/>
</g>
<path d="M499.552 497.079C498.792 497.996 497.491 498.18 496.314 498.301C494.793 498.522 493.25 498.551 491.722 498.389C489.906 498.119 488.819 499.151 487.16 498.357C486.156 497.877 484.612 498.837 483.609 498.357C482.233 497.699 477.484 497.563 476.646 496.278C475.809 494.993 475.894 492.963 477.218 492.205C477.594 492.027 477.981 491.875 478.378 491.751C480.595 490.869 485.085 484.215 487.443 483.874C488.613 483.82 489.775 484.094 490.798 484.665C493.123 485.697 497.229 486.512 498.243 489.132C499.034 491.173 501.196 495.084 499.552 497.079Z" fill="#2F2E41"/>
<path d="M516.256 496.552C517.016 497.469 518.317 497.654 519.495 497.775C521.016 497.995 522.558 498.025 524.086 497.863C525.902 497.592 528.114 499.151 529.773 498.357C530.776 497.877 532.321 498.127 533.324 497.647C534.7 496.989 541.166 498.457 542.003 497.172C542.84 495.887 542.755 493.857 541.431 493.099C541.056 492.921 540.668 492.769 540.271 492.645C538.055 491.763 530.724 483.689 528.366 483.348C527.195 483.293 526.034 483.567 525.011 484.138C522.686 485.17 518.58 485.986 517.565 488.605C516.775 490.646 514.612 494.557 516.256 496.552Z" fill="#2F2E41"/>
<path d="M523.6 351.527C524.327 352.923 524.962 354.365 525.5 355.844C531.948 372.9 532.488 391.539 532.754 409.771C532.732 412.736 532.901 415.699 533.261 418.641C533.531 420.507 533.958 422.393 533.682 424.259C533.444 425.871 532.685 427.462 532.988 429.064C533.124 429.782 533.468 430.449 533.604 431.167C533.709 431.955 533.687 432.754 533.54 433.535L532.675 439.967C532.183 443.631 531.046 447.16 531.108 450.856C531.15 453.377 531.193 455.903 531.474 458.409C531.759 460.953 532.289 463.478 532.317 466.038C532.337 467.955 532.074 469.863 531.905 471.772C531.665 474.47 531.611 477.18 531.742 479.884C531.843 481.968 532.082 484.132 533.187 485.902C531.949 487.677 530.724 489.268 528.741 490.137C524.713 491.903 520.091 491.304 515.738 490.672C515.979 489.869 516.353 488.959 516.005 488.195C515.8 487.826 515.548 487.484 515.257 487.178C514.307 485.827 513.647 484.293 513.32 482.674C512.793 480.754 512.266 478.687 513.348 476.844C513.721 476.188 513.885 475.434 513.82 474.682C512.918 462.591 510.228 450.081 512.706 438.215C512.97 436.948 513.285 435.689 513.433 434.403C513.566 432.554 513.588 430.699 513.499 428.847L513.447 426.27C513.318 423.519 513.43 420.7 512.878 417.98C512.483 416.031 511.746 414.074 512.655 412.088C513.057 411.166 513.007 410.108 512.52 409.227C510.608 405.877 509.07 402.327 507.934 398.641C507.698 397.611 507.375 396.603 506.968 395.627C506.414 394.599 505.776 393.618 505.062 392.694C502.905 389.566 501.615 385.936 500.349 382.354C500.484 382.025 500.38 381.568 500.028 381.615C499.68 381.704 499.381 381.927 499.197 382.236C497.462 384.568 497.317 387.679 497.239 390.584C497.107 393.284 497.153 395.989 497.377 398.682C497.525 400.093 497.771 401.494 497.898 402.907C498.064 405.544 498.022 408.19 497.773 410.82L496.887 423.763C496.767 424.833 496.831 425.916 497.077 426.964C497.646 428.778 497.923 430.671 497.898 432.571C497.665 440.39 498.341 448.209 499.912 455.871C500.345 457.987 500.845 460.089 501.212 462.217C502.077 467.232 502.196 472.341 502.312 477.428C502.384 480.557 502.435 483.797 501.203 486.673C500.721 487.56 500.368 488.51 500.153 489.496C500.148 490.004 500.081 490.51 499.951 491.001C499.59 491.932 498.504 492.329 497.529 492.541C495.695 492.94 493.814 493.074 491.943 492.939C491.503 492.932 491.07 492.836 490.669 492.656C489.971 492.295 489.6 491.528 489.069 490.948C487.924 489.698 486.021 489.315 484.977 487.978C483.673 486.306 484.221 483.884 484.997 481.911C485.774 479.938 486.735 477.795 486.066 475.783C485.279 473.411 482.486 472.134 481.736 469.75C483.876 460.135 478.622 450.191 479.072 440.351C479.177 438.059 479.575 435.784 479.583 433.49C479.603 427.58 477.043 421.829 477.464 415.935C478.535 400.954 473.432 385.999 471.271 371.137C470.861 368.919 470.708 366.66 470.815 364.407C471.136 360.687 472.863 357.225 474.94 354.122C476.428 351.898 478.217 349.722 480.682 348.682C482.712 347.826 484.987 347.829 487.19 347.846C492.687 347.889 498.184 347.932 503.68 348.03C507.42 347.978 511.155 348.312 514.827 349.028C517.8 349.708 520.581 351.094 523.6 351.527Z" fill="#2F2E41"/>
<path d="M434.789 283.234C434.257 280.628 435.263 277.841 434.476 275.3C434.192 274.384 433.495 273.432 432.537 273.459C431.605 273.484 430.975 274.396 430.149 274.828C428.818 275.524 427.201 274.892 425.871 274.194C424.541 273.497 423.058 272.707 421.615 273.125C421.445 274.029 422.055 274.891 422.719 275.527C423.455 276.082 424.063 276.788 424.505 277.597C424.721 278.472 424.803 279.374 424.749 280.273C424.9 282.337 426.207 284.115 427.513 285.72C429.618 288.307 431.853 290.785 434.209 293.145C434.205 293.141 437.784 288.713 437.715 287.939C437.65 287.209 436.446 286.527 436.009 285.938C435.41 285.137 434.994 284.214 434.789 283.234Z" fill="#A1616A"/>
<path d="M541.367 337.779C541.686 338.607 541.925 339.464 542.081 340.337C543.004 344.812 543.586 349.349 544.16 353.882C544.313 355.092 544.466 356.304 544.513 357.522C544.675 360.415 544.08 363.301 542.786 365.894C541.47 368.493 539.233 370.509 536.511 371.548C535.673 371.846 534.501 371.9 534.135 371.089C534.005 370.714 534.007 370.306 534.143 369.932C534.474 368.725 535.147 367.642 535.584 366.469C536.233 364.717 536.341 362.81 535.895 360.996C535.723 360.302 535.36 359.528 534.659 359.39C535.008 360.99 534.714 362.663 533.838 364.047C533.639 364.433 533.295 364.724 532.882 364.858C532.285 364.917 531.726 364.556 531.535 363.988C531.363 363.43 531.326 362.84 531.426 362.265C531.651 359.357 532.093 356.47 532.75 353.629C533.532 350.51 534.771 347.432 534.692 344.218C534.619 341.305 533.459 338.445 533.784 335.549C533.788 335.37 533.846 335.197 533.95 335.051C534.052 334.949 534.176 334.872 534.313 334.827C535.126 334.491 535.962 334.214 536.816 333.999C537.32 333.871 539.042 333.273 539.525 333.541C539.916 333.757 540.037 335.055 540.232 335.494C540.578 336.272 541.039 336.993 541.367 337.779Z" fill="#A1616A"/>
<path d="M483.886 251.488C490.455 251.488 495.78 246.162 495.78 239.593C495.78 233.024 490.455 227.699 483.886 227.699C477.317 227.699 471.992 233.024 471.992 239.593C471.992 246.162 477.317 251.488 483.886 251.488Z" fill="#A1616A"/>
<path d="M494.544 248.201C494.542 248.959 494.602 249.716 494.724 250.464C494.888 251.221 495.12 251.962 495.417 252.677C495.815 253.84 496.376 254.94 497.083 255.945C497.802 256.956 498.877 257.657 500.093 257.906C491.963 261.716 483.284 264.225 474.375 265.339C475.779 264.405 476.947 263.158 477.787 261.696C478.232 260.758 478.537 259.758 478.69 258.731C479.449 254.431 479.063 250.007 477.573 245.903C477.425 245.499 477.28 245.002 477.56 244.674C477.679 244.553 477.823 244.459 477.982 244.4C481.515 242.904 485.33 242.193 489.164 242.314C490.144 242.321 491.123 242.365 492.101 242.435C492.626 242.473 493.787 242.362 494.205 242.747C494.704 243.207 494.454 244.633 494.47 245.256L494.544 248.201Z" fill="#A1616A"/>
<path d="M500.837 256.854C497.237 252.24 490.955 250.675 485.611 253.061C479.949 255.763 477.161 262.253 472.182 266.07C471.049 266.917 469.843 267.66 468.576 268.291C467.829 268.704 467.032 269.019 466.204 269.229C465.273 269.435 464.302 269.406 463.375 269.629C461.609 270.148 460.105 271.315 459.165 272.897C458.699 273.724 458.182 274.521 457.618 275.284C457.097 275.902 456.451 276.401 455.901 276.992C453.921 279.12 453.383 282.175 452.932 285.046C451.382 286.677 449.692 288.168 447.88 289.501C447.31 289.94 446.678 290.29 446.004 290.539C444.261 291.104 442.341 290.386 440.856 289.313C439.371 288.241 438.162 286.828 436.698 285.727C435.353 287.649 433.948 289.578 432.514 291.436C432.298 291.789 431.968 292.06 431.579 292.203C431.31 293.108 431.955 294.046 432.439 294.858L435.032 299.217C435.89 300.803 436.941 302.277 438.163 303.603C439.402 304.937 441.095 305.76 442.909 305.911C444.054 305.901 445.188 305.684 446.257 305.271C451.199 303.608 455.736 300.955 460.438 298.701C461.29 298.214 462.244 297.934 463.223 297.884C464.23 297.857 465.13 298.505 465.424 299.468C465.964 302.191 466.499 304.904 467.24 307.578C467.94 310.101 468.589 312.636 469.189 315.185C469.589 316.745 469.875 318.331 470.045 319.932C470.122 320.842 470.131 321.755 470.139 322.667L470.239 333.694C470.25 334.881 469.573 335.622 469.052 336.689C468.254 338.344 468.134 340.246 468.717 341.988C469.009 342.848 469.467 343.643 469.791 344.492C470.575 346.543 470.545 348.803 470.504 350.999L470.41 356.031C470.387 356.239 470.424 356.45 470.519 356.637C470.826 357.117 471.566 356.836 472.034 356.511L474.387 354.881C477.535 355.315 480.715 355.468 483.89 355.34C492.92 355.209 501.952 355.568 510.961 356.199C513.967 356.409 517.074 356.637 519.916 355.635C521.357 355.126 522.686 354.312 524.159 353.905C524.768 353.81 525.345 353.572 525.843 353.211C526.668 352.448 526.449 351.109 526.113 350.038C525.818 349.1 525.484 348.176 525.11 347.266C524.725 346.429 524.412 345.561 524.172 344.672C523.721 342.665 524.16 340.346 522.91 338.712C520.113 335.053 522.093 329.425 520.919 324.972C520.54 323.531 519.978 322.142 519.622 320.695C519.399 319.787 519.258 318.86 519.117 317.936C518.749 315.936 518.566 313.906 518.571 311.872C518.605 310.854 518.733 309.843 518.861 308.832L519.75 301.818C520.861 303.892 521.633 306.131 522.037 308.449C522.845 311.911 523.841 315.327 525.02 318.682C525.69 320.705 526.36 322.728 527.083 324.732C527.541 325.873 527.894 327.054 528.137 328.259C528.297 329.231 528.302 330.222 528.414 331.201C528.658 333.299 529.392 335.311 530.558 337.073C530.774 337.482 531.13 337.798 531.561 337.964C531.853 338.018 532.152 338.006 532.438 337.928C535.578 337.308 538.617 336.257 541.469 334.804C542.077 334.553 542.604 334.141 542.994 333.613C543.762 332.365 542.904 330.805 542.531 329.389C542.131 327.87 542.224 326.042 541.028 325.025C536.862 321.48 538.93 314.283 536.845 309.227C536.479 308.339 536.053 307.476 535.737 306.569C535.496 305.876 535.321 305.162 535.145 304.449C533.69 298.56 532.132 292.697 530.473 286.861C528.751 280.809 528.936 274.506 526.769 268.6C526.362 267.362 525.83 266.168 525.182 265.037C524.448 263.856 523.469 262.847 522.31 262.079C519.165 260 515.991 258.23 512.298 257.475C508.605 256.721 504.606 256.838 500.837 256.854Z" fill="#D0CDE1"/>
<path d="M473.077 242.504C471.478 241.643 471.899 239.305 471.628 237.509C471.069 233.815 466.894 231.623 465.914 228.017C467.04 228.156 468.182 227.994 469.225 227.548C469.427 226.351 469.19 225.122 468.558 224.085C471.991 222.69 474.77 219.953 478.257 218.696C482.641 217.115 487.524 218.085 491.947 219.555C494.153 220.288 496.45 221.24 497.784 223.145C499.249 225.237 499.227 227.99 499.148 230.543C499.025 234.547 498.867 238.695 497.084 242.282C494.814 246.849 488.389 251.08 483.079 249.843C480.871 249.328 480.221 247.942 479.291 246.023C478.711 244.828 478.494 243.442 477.189 242.821C475.915 242.214 474.371 243.201 473.077 242.504Z" fill="#2F2E41"/>
<g opacity="0.1">
<path opacity="0.1" d="M521.309 327.786C521.324 328.102 521.332 328.419 521.335 328.739C521.32 328.424 521.312 328.106 521.309 327.786Z" fill="black"/>
<path opacity="0.1" d="M469.791 339.734C470.575 341.786 470.545 344.045 470.504 346.241C470.493 346.814 470.483 347.388 470.472 347.961C470.422 346.777 470.193 345.607 469.791 344.492C469.467 343.643 469.01 342.848 468.717 341.988C468.215 340.485 468.233 338.857 468.769 337.365C469.062 338.173 469.484 338.93 469.791 339.734Z" fill="black"/>
</g>
<g opacity="0.1">
<path opacity="0.1" d="M469.225 225.818L469.214 225.823C469.105 225.208 468.883 224.618 468.558 224.085C468.76 224.003 468.958 223.916 469.156 223.825C469.312 224.478 469.336 225.156 469.225 225.818V225.818Z" fill="black"/>
</g>
<path d="M94.4039 201.571L91.6005 199.042C81.6451 189.902 75.0727 183.969 75.0727 176.579C75.0228 173.738 76.1249 170.998 78.1278 168.983C80.1307 166.968 82.8639 165.85 85.7048 165.882C89.0636 165.9 92.2447 167.394 94.4039 169.967C96.563 167.394 99.7442 165.9 103.103 165.882C105.944 165.85 108.677 166.968 110.68 168.983C112.683 170.998 113.785 173.738 113.735 176.579C113.735 183.969 107.163 189.902 97.2073 199.042L94.4039 201.571Z" fill="#FF6584"/>
<path fill-rule="evenodd" clip-rule="evenodd" d="M99.3754 195.179L96.572 192.65C86.6165 183.51 80.0441 177.577 80.0441 170.187C79.9943 167.346 81.0963 164.606 83.0992 162.591C85.1021 160.576 87.8353 159.458 90.6763 159.49C94.0351 159.508 97.2162 161.002 99.3753 163.575C101.534 161.002 104.716 159.508 108.074 159.49C110.915 159.458 113.649 160.576 115.651 162.591C117.654 164.606 118.756 167.346 118.707 170.187C118.707 177.577 112.134 183.51 102.179 192.65L99.3754 195.179Z" stroke="#3F3D56" stroke-width="2"/>
<path d="M376.732 40.665H435.568C439.355 40.665 442.452 44.0042 442.452 48.0848V74.008C442.452 78.0914 439.354 81.4292 435.568 81.4292H376.732C372.945 81.4292 369.847 78.0914 369.847 74.008V48.0844C369.847 44.0039 372.945 40.665 376.732 40.665ZM426.83 43.5813H379.331C378.895 43.5813 378.537 43.9584 378.537 44.4223V77.8136C378.537 78.2747 378.895 78.6532 379.331 78.6532H426.83C427.267 78.6532 427.624 78.2747 427.624 77.8136V44.4223C427.624 43.9584 427.266 43.5813 426.83 43.5813ZM435.203 57.3688C433.205 57.3688 431.584 59.0799 431.584 61.1917C431.584 63.3039 433.205 65.0181 435.203 65.0181C437.202 65.0181 438.823 63.3035 438.823 61.1917C438.823 59.0799 437.202 57.3688 435.203 57.3688Z" fill="black"/>
<path d="M431.584 61.1913C431.584 63.3035 433.205 65.0177 435.203 65.0177C437.202 65.0177 438.823 63.3031 438.823 61.1913C438.823 59.0795 437.202 57.3684 435.203 57.3684C433.205 57.3688 431.584 59.0799 431.584 61.1913Z" fill="white"/>
<path d="M379.331 43.5813C378.895 43.5813 378.537 43.9584 378.537 44.4223V77.8136C378.537 78.2747 378.895 78.6532 379.331 78.6532H426.83C427.267 78.6532 427.624 78.2747 427.624 77.8136V44.4223C427.624 43.9584 427.267 43.5813 426.83 43.5813H379.331Z" fill="white"/>
<path d="M393.14 67.1903C393.14 66.5187 393.614 66.0667 394.279 66.0667H396.735C400.048 66.0667 401.941 68.1687 401.941 71.4094C401.941 74.4743 399.929 76.4597 396.882 76.4597H394.309C393.821 76.4597 393.14 76.1965 393.14 75.3649V67.1903H393.14ZM395.359 74.4451H396.853C398.761 74.4451 399.633 73.0587 399.633 71.3069C399.633 69.4385 398.746 68.0809 396.704 68.0809H395.359V74.4451Z" fill="#00AEEF"/>
<path d="M402.975 69.6576C402.975 68.9569 403.537 68.6066 404.069 68.6066C404.631 68.6066 405.105 68.8111 405.105 69.4823H405.134C405.534 68.8982 405.962 68.6066 406.628 68.6066C407.146 68.6066 407.664 68.9715 407.664 69.7305C407.664 70.4166 407.027 70.4604 406.392 70.7521C405.756 71.0441 405.105 71.3215 405.105 72.1531V75.3791C405.105 76.0798 404.661 76.5468 404.04 76.5468C403.419 76.5468 402.975 76.0795 402.975 75.3791V69.6576Z" fill="#00AEEF"/>
<path d="M408.31 69.7743C408.31 69.0736 408.753 68.6066 409.374 68.6066C409.995 68.6066 410.439 69.0739 410.439 69.7743V75.3795C410.439 76.0802 409.995 76.5472 409.374 76.5472C408.753 76.5472 408.31 76.0798 408.31 75.3795V69.7743Z" fill="#00AEEF"/>
<path d="M411.193 70.2413C411.089 69.9781 411.059 69.8177 411.059 69.6281C411.059 68.9566 411.592 68.6063 412.168 68.6063C412.76 68.6063 413.011 69.0295 413.115 69.3511L414.476 73.4962H414.505L415.866 69.3511C415.97 69.0295 416.221 68.6063 416.813 68.6063C417.389 68.6063 417.922 68.957 417.922 69.6281C417.922 69.8177 417.892 69.9781 417.788 70.2413L415.644 75.6712C415.437 76.2115 415.215 76.5469 414.491 76.5469C413.765 76.5469 413.544 76.2111 413.337 75.6712L411.193 70.2413Z" fill="#00AEEF"/>
<path d="M419.935 73.2774C420.084 74.3136 420.956 74.7951 421.947 74.7951C423.041 74.7951 423.796 73.9486 424.358 73.9486C424.817 73.9486 425.231 74.4011 425.231 74.8531C425.231 75.758 423.338 76.634 421.755 76.634C419.358 76.634 417.761 74.9115 417.761 72.5906C417.761 70.4594 419.329 68.5181 421.578 68.5181C423.885 68.5181 425.408 70.5906 425.408 72.3424C425.408 72.9705 425.127 73.2767 424.477 73.2767H419.935V73.2774ZM423.278 71.8761C423.16 70.9566 422.568 70.2705 421.578 70.2705C420.631 70.2705 419.995 70.9858 419.891 71.8761H423.278Z" fill="#00AEEF"/>
<path d="M395.855 54.4409H393.819C392.923 54.4409 392.549 53.7962 392.549 53.1694C392.549 52.5246 393.016 51.8979 393.819 51.8979H400.69C401.493 51.8979 401.96 52.5246 401.96 53.1694C401.96 53.7958 401.586 54.4409 400.69 54.4409H398.655V63.6913C398.655 64.6125 398.058 65.1288 397.255 65.1288C396.452 65.1288 395.855 64.6128 395.855 63.6913V54.4409Z" fill="#00AEEF"/>
<path d="M403.613 61.001C403.8 62.3097 404.902 62.9177 406.153 62.9177C407.534 62.9177 408.487 61.8489 409.197 61.8489C409.776 61.8489 410.299 62.4205 410.299 62.9913C410.299 64.134 407.909 65.2396 405.91 65.2396C402.885 65.2396 400.869 63.0653 400.869 60.1354C400.869 57.4448 402.848 54.9941 405.686 54.9941C408.599 54.9941 410.523 57.6107 410.523 59.8219C410.523 60.6142 410.168 61.001 409.346 61.001H403.613V61.001ZM407.834 59.2319C407.684 58.0712 406.937 57.2048 405.686 57.2048C404.491 57.2048 403.688 58.108 403.558 59.2319H407.834Z" fill="#00AEEF"/>
<path d="M417.488 58.0896C416.984 58.0896 415.957 57.3156 415.079 57.3156C414.594 57.3156 414.164 57.5368 414.164 58.0528C414.164 59.2875 418.833 59.1031 418.833 62.1253C418.833 63.8944 417.32 65.2396 415.005 65.2396C413.492 65.2396 411.251 64.392 411.251 63.1941C411.251 62.7885 411.662 62.0149 412.409 62.0149C413.455 62.0149 413.922 62.918 415.191 62.918C416.013 62.918 416.256 62.66 416.256 62.1621C416.256 60.9462 411.587 61.1305 411.587 58.0899C411.587 56.2472 413.1 54.9941 415.229 54.9941C416.555 54.9941 418.59 55.6021 418.59 56.9107C418.59 57.5184 418.123 58.0896 417.488 58.0896Z" fill="#00AEEF"/>
<path d="M421.15 57.5368H420.552C419.824 57.5368 419.375 57.0944 419.375 56.376C419.375 55.7125 419.88 55.2149 420.552 55.2149H421.15V53.6302C421.15 52.7458 421.71 52.1559 422.494 52.1559C423.278 52.1559 423.838 52.7455 423.838 53.6302V55.2149H424.604C425.295 55.2149 425.892 55.5281 425.892 56.376C425.892 57.2052 425.295 57.5368 424.604 57.5368H423.838V63.6545C423.838 64.5392 423.278 65.1288 422.494 65.1288C421.71 65.1288 421.15 64.5392 421.15 63.6545V57.5368Z" fill="#00AEEF"/>
<path d="M384.1 45.9705C384.1 46.2618 383.903 46.5229 383.593 46.5229C383.283 46.5229 383.041 46.299 382.587 46.299C382.262 46.299 381.967 46.4709 381.967 46.784C381.967 47.5528 384.494 47.0601 384.494 48.9861C384.494 50.0538 383.601 50.7181 382.557 50.7181C381.975 50.7181 380.719 50.5837 380.719 49.882C380.719 49.591 380.916 49.3521 381.225 49.3521C381.581 49.3521 382.005 49.6431 382.496 49.6431C382.995 49.6431 383.268 49.367 383.268 49.0011C383.268 48.1202 380.741 48.6504 380.741 46.9181C380.741 45.8729 381.611 45.2236 382.617 45.2236C383.041 45.224 384.1 45.3809 384.1 45.9705Z" fill="#2B3990"/>
<path d="M388.994 48.6507C388.994 49.7705 388.215 50.7184 387.042 50.7184C385.87 50.7184 385.091 49.7705 385.091 48.6507C385.091 47.5607 385.892 46.5677 387.042 46.5677C388.193 46.5677 388.994 47.5604 388.994 48.6507ZM386.18 48.6507C386.18 49.1656 386.452 49.733 387.042 49.733C387.633 49.733 387.905 49.1656 387.905 48.6507C387.905 48.1357 387.64 47.5531 387.042 47.5531C386.445 47.5531 386.18 48.1354 386.18 48.6507Z" fill="#2B3990"/>
<path d="M392.466 47.7622C392.195 47.7622 391.952 47.5531 391.604 47.5531C390.984 47.5531 390.689 48.0979 390.689 48.6507C390.689 49.1806 391.014 49.733 391.604 49.733C391.876 49.733 392.285 49.509 392.414 49.509C392.671 49.509 392.883 49.7257 392.883 49.9792C392.883 50.5316 391.945 50.7181 391.551 50.7181C390.379 50.7181 389.6 49.7702 389.6 48.6504C389.6 47.5604 390.401 46.5674 391.551 46.5674C391.983 46.5674 392.883 46.7243 392.883 47.2469C392.882 47.4712 392.724 47.7622 392.466 47.7622Z" fill="#2B3990"/>
<path d="M394.706 45.5899C394.706 45.9257 394.433 46.2097 394.093 46.2097C393.768 46.2097 393.48 45.9184 393.48 45.5899C393.48 45.284 393.768 45 394.093 45C394.418 45 394.706 45.2764 394.706 45.5899ZM393.548 47.2097C393.548 46.8514 393.775 46.6125 394.093 46.6125C394.411 46.6125 394.638 46.8514 394.638 47.2097V50.0764C394.638 50.4347 394.411 50.6736 394.093 50.6736C393.775 50.6736 393.548 50.4347 393.548 50.0764V47.2097Z" fill="#2B3990"/>
<path d="M399.267 49.9719C399.267 50.2479 399.267 50.6736 398.745 50.6736C398.428 50.6736 398.299 50.5018 398.224 50.2181C397.944 50.5466 397.603 50.7181 397.187 50.7181C396.166 50.7181 395.387 49.8597 395.387 48.6504C395.387 47.4709 396.189 46.5674 397.187 46.5674C397.589 46.5674 397.982 46.7243 398.224 47.0601C398.254 46.799 398.481 46.6122 398.745 46.6122C399.267 46.6122 399.267 47.0379 399.267 47.3139V49.9719ZM397.338 49.733C397.906 49.733 398.178 49.1656 398.178 48.6507C398.178 48.1358 397.913 47.5531 397.338 47.5531C396.741 47.5531 396.476 48.1354 396.476 48.6507C396.476 49.166 396.748 49.733 397.338 49.733Z" fill="#2B3990"/>
<path d="M400.175 45.4778C400.175 45.1194 400.402 44.8806 400.719 44.8806C401.037 44.8806 401.264 45.1194 401.264 45.4778V50.0764C401.264 50.4347 401.037 50.6736 400.719 50.6736C400.402 50.6736 400.175 50.4347 400.175 50.0764V45.4778Z" fill="#2B3990"/>
<path d="M405.015 45.8438C405.06 45.575 405.355 45.2691 405.756 45.2691C406.134 45.2691 406.43 45.5379 406.513 45.8066L407.405 48.7629H407.42L408.313 45.8066C408.396 45.5379 408.691 45.2691 409.069 45.2691C409.47 45.2691 409.765 45.575 409.81 45.8438L410.514 50.0094C410.521 50.0542 410.521 50.099 410.521 50.1365C410.521 50.4649 410.279 50.674 409.976 50.674C409.591 50.674 409.44 50.5021 409.387 50.1514L408.94 47.1132H408.925L408.017 50.241C407.964 50.4201 407.82 50.674 407.412 50.674C407.003 50.674 406.86 50.4201 406.806 50.241L405.899 47.1132H405.884L405.437 50.1514C405.384 50.5021 405.233 50.674 404.847 50.674C404.544 50.674 404.302 50.4649 404.302 50.1365C404.302 50.0993 404.302 50.0545 404.309 50.0094L405.015 45.8438Z" fill="#2B3990"/>
<path d="M412.194 49.0014C412.27 49.5312 412.716 49.7778 413.223 49.7778C413.783 49.7778 414.169 49.3448 414.456 49.3448C414.691 49.3448 414.903 49.5764 414.903 49.8076C414.903 50.2705 413.934 50.7184 413.125 50.7184C411.9 50.7184 411.082 49.8375 411.082 48.6507C411.082 47.5607 411.884 46.5677 413.034 46.5677C414.214 46.5677 414.993 47.6278 414.993 48.5236C414.993 48.8448 414.85 49.0014 414.516 49.0014H412.194V49.0014ZM413.904 48.2847C413.843 47.8146 413.54 47.4635 413.034 47.4635C412.549 47.4635 412.224 47.8291 412.171 48.2847H413.904Z" fill="#2B3990"/>
<path d="M419.403 50.0764C419.403 50.4347 419.176 50.6736 418.859 50.6736C418.556 50.6736 418.382 50.5094 418.314 50.2257C418.11 50.5542 417.686 50.7184 417.315 50.7184C416.218 50.7184 415.522 49.7108 415.522 48.6955C415.522 47.6504 416.105 46.5681 417.277 46.5681C417.656 46.5681 418.026 46.6952 418.313 46.9413V45.4781C418.313 45.1198 418.541 44.8809 418.858 44.8809C419.176 44.8809 419.403 45.1198 419.403 45.4781V50.0764H419.403ZM417.459 47.5531C416.892 47.5531 416.612 48.1431 416.612 48.6507C416.612 49.1507 416.892 49.733 417.459 49.733C418.056 49.733 418.314 49.1358 418.314 48.6132C418.314 48.0906 418.042 47.5531 417.459 47.5531Z" fill="#2B3990"/>
<path d="M421.468 45.5899C421.468 45.9257 421.196 46.2097 420.856 46.2097C420.53 46.2097 420.243 45.9184 420.243 45.5899C420.243 45.284 420.53 45 420.856 45C421.181 45 421.468 45.2764 421.468 45.5899ZM420.311 47.2097C420.311 46.8514 420.538 46.6125 420.856 46.6125C421.173 46.6125 421.4 46.8514 421.4 47.2097V50.0764C421.4 50.4347 421.173 50.6736 420.856 50.6736C420.538 50.6736 420.311 50.4347 420.311 50.0764V47.2097Z" fill="#2B3990"/>
<path d="M426.03 49.9719C426.03 50.2479 426.03 50.6736 425.507 50.6736C425.19 50.6736 425.061 50.5018 424.986 50.2181C424.706 50.5466 424.365 50.7181 423.95 50.7181C422.929 50.7181 422.149 49.8597 422.149 48.6504C422.149 47.4709 422.951 46.5674 423.95 46.5674C424.351 46.5674 424.744 46.7243 424.986 47.0601C425.016 46.799 425.243 46.6122 425.507 46.6122C426.03 46.6122 426.03 47.0379 426.03 47.3139V49.9719ZM424.1 49.733C424.668 49.733 424.94 49.1656 424.94 48.6507C424.94 48.1358 424.676 47.5531 424.1 47.5531C423.503 47.5531 423.238 48.1354 423.238 48.6507C423.238 49.166 423.51 49.733 424.1 49.733Z" fill="#2B3990"/>
<path d="M389.485 68.6038C389.485 70.0611 388.311 71.334 386.864 71.334C385.493 71.3653 384.256 70.1305 384.239 68.6038C384.239 67.1465 385.414 66.1257 386.864 66.1257C388.311 66.126 389.485 67.1465 389.485 68.6038Z" fill="#00AEEF"/>
<path d="M391.465 75.5632C391.462 75.6427 391.389 76.2507 391.318 76.2507H382.406C382.322 76.2507 382.267 75.6292 382.265 75.5347C382.257 75.2514 382.247 74.6906 382.27 74.4733C382.299 74.1767 382.451 73.9163 382.451 73.9163C382.621 73.5257 383.03 73.1913 383.457 72.933C383.958 72.5403 384.662 72.2413 385.484 72.0792C385.917 71.9958 386.378 72.0111 386.863 72.0111C387.349 72.0111 387.819 71.9958 388.253 72.0819C388.961 72.2215 389.582 72.467 390.058 72.7812C390.193 72.8573 390.337 72.9406 390.49 73.0368C391.375 73.5941 391.465 74.3111 391.465 74.3111C391.465 74.3111 391.472 75.3347 391.465 75.5632Z" fill="#00AEEF"/>
<path d="M387.726 68.6038C387.726 70.0611 386.551 71.334 385.104 71.334C383.734 71.3653 382.496 70.1305 382.479 68.6038C382.479 67.1465 383.654 66.1257 385.104 66.1257C386.551 66.126 387.726 67.1465 387.726 68.6038Z" fill="#2B3990"/>
<path d="M389.706 75.5632C389.702 75.6427 389.629 76.2507 389.559 76.2507H380.647C380.563 76.2507 380.508 75.6292 380.506 75.5347C380.498 75.2514 380.487 74.6906 380.511 74.4733C380.54 74.1767 380.691 73.9163 380.691 73.9163C380.862 73.5257 381.271 73.1913 381.698 72.933C382.198 72.5403 382.903 72.2413 383.725 72.0792C384.157 71.9958 384.619 72.0111 385.103 72.0111C385.59 72.0111 386.06 71.9958 386.493 72.0819C387.201 72.2215 387.822 72.467 388.298 72.7812C388.434 72.8573 388.577 72.9406 388.731 73.0368C389.616 73.5941 389.706 74.3111 389.706 74.3111C389.706 74.3111 389.713 75.3347 389.706 75.5632Z" fill="#2B3990"/>
<path d="M382.756 58.0104H380.358C380.752 60.0028 380.934 63.715 380.934 63.715C381.639 63.6716 382.238 63.6368 382.757 63.608V58.0104H382.756Z" fill="#2B3990"/>
<path d="M389.238 56.7479L387.053 56.8399L387.241 54.9062C387.386 53.5524 386.697 53.0868 385.822 53.1524C385.727 53.159 385.514 53.4528 385.495 53.5864C385.278 55.2153 384.768 56.642 383.066 57.9694V63.1628C385.934 63.0115 385.891 63.108 389.229 63.1281C390.164 63.1337 390.562 62.9917 390.647 62.2552C390.706 61.749 391.232 61.6274 391.06 60.7795C390.982 60.3958 390.808 60.3924 391.215 59.7278C391.636 59.0406 391.249 58.116 391.249 58.116C391.644 56.6743 391.266 56.6062 389.238 56.7479Z" fill="#2B3990"/>
<path d="M327.892 534.44C326.025 534.44 324.198 534.16 322.412 533.6C320.652 533.013 319.225 532.253 318.132 531.32L320.092 526.64C322.492 528.4 325.052 529.28 327.772 529.28C329.292 529.28 330.465 528.907 331.292 528.16C332.145 527.413 332.572 526.413 332.572 525.16C332.572 523.88 332.158 522.853 331.332 522.08C330.532 521.307 329.438 520.92 328.052 520.92C326.052 520.92 324.345 521.68 322.932 523.2H318.932V505.8H336.772V510.88H324.892V517.2C326.198 516.347 327.772 515.92 329.612 515.92C331.398 515.92 332.958 516.307 334.292 517.08C335.625 517.827 336.665 518.88 337.412 520.24C338.158 521.6 338.532 523.173 338.532 524.96C338.532 526.853 338.105 528.507 337.252 529.92C336.398 531.333 335.172 532.44 333.572 533.24C331.972 534.04 330.078 534.44 327.892 534.44ZM351.836 534.44C348.423 534.44 345.809 533.173 343.996 530.64C342.209 528.107 341.316 524.493 341.316 519.8C341.316 515.107 342.209 511.533 343.996 509.08C345.809 506.6 348.423 505.36 351.836 505.36C355.249 505.36 357.849 506.6 359.636 509.08C361.449 511.533 362.356 515.107 362.356 519.8C362.356 524.493 361.449 528.107 359.636 530.64C357.849 533.173 355.249 534.44 351.836 534.44ZM351.836 529.4C353.383 529.4 354.529 528.64 355.276 527.12C356.023 525.573 356.396 523.133 356.396 519.8C356.396 516.467 356.023 514.067 355.276 512.6C354.529 511.133 353.383 510.4 351.836 510.4C350.289 510.4 349.143 511.133 348.396 512.6C347.649 514.067 347.276 516.467 347.276 519.8C347.276 523.133 347.649 525.573 348.396 527.12C349.143 528.64 350.289 529.4 351.836 529.4ZM375.82 534.44C372.407 534.44 369.794 533.173 367.98 530.64C366.194 528.107 365.3 524.493 365.3 519.8C365.3 515.107 366.194 511.533 367.98 509.08C369.794 506.6 372.407 505.36 375.82 505.36C379.234 505.36 381.834 506.6 383.62 509.08C385.434 511.533 386.34 515.107 386.34 519.8C386.34 524.493 385.434 528.107 383.62 530.64C381.834 533.173 379.234 534.44 375.82 534.44ZM375.82 529.4C377.367 529.4 378.514 528.64 379.26 527.12C380.007 525.573 380.38 523.133 380.38 519.8C380.38 516.467 380.007 514.067 379.26 512.6C378.514 511.133 377.367 510.4 375.82 510.4C374.274 510.4 373.127 511.133 372.38 512.6C371.634 514.067 371.26 516.467 371.26 519.8C371.26 523.133 371.634 525.573 372.38 527.12C373.127 528.64 374.274 529.4 375.82 529.4ZM390.125 534V505.8H396.165V522.48H396.245L403.485 514.36H410.645L402.325 523.76L411.045 534H403.765L396.245 525.52H396.165V534H390.125ZM419.949 532.4V524.6H412.349V520.44H419.949V512.88H424.269V520.44H431.869V524.6H424.269V532.4H419.949ZM457.187 534.44C451.667 534.44 448.907 531.76 448.907 526.4V518.88H445.187V514.36H448.907V508.6H454.947V514.36H460.747V518.88H454.947V526.16C454.947 527.28 455.2 528.12 455.707 528.68C456.24 529.24 457.08 529.52 458.227 529.52C458.573 529.52 458.933 529.48 459.307 529.4C459.707 529.32 460.133 529.213 460.587 529.08L461.467 533.48C460.907 533.773 460.24 534 459.467 534.16C458.693 534.347 457.933 534.44 457.187 534.44ZM472.963 534.44C470.856 534.44 469.016 534.027 467.443 533.2C465.896 532.347 464.696 531.16 463.843 529.64C462.99 528.093 462.563 526.267 462.563 524.16C462.563 522.08 462.99 520.28 463.843 518.76C464.696 517.213 465.896 516.027 467.443 515.2C469.016 514.373 470.856 513.96 472.963 513.96C475.07 513.96 476.896 514.373 478.443 515.2C480.016 516.027 481.23 517.213 482.083 518.76C482.963 520.28 483.403 522.08 483.403 524.16C483.403 526.267 482.963 528.093 482.083 529.64C481.23 531.16 480.016 532.347 478.443 533.2C476.896 534.027 475.07 534.44 472.963 534.44ZM472.963 529.92C474.243 529.92 475.283 529.453 476.083 528.52C476.91 527.587 477.323 526.133 477.323 524.16C477.323 522.213 476.91 520.787 476.083 519.88C475.283 518.947 474.243 518.48 472.963 518.48C471.683 518.48 470.643 518.947 469.843 519.88C469.043 520.787 468.643 522.213 468.643 524.16C468.643 526.133 469.043 527.587 469.843 528.52C470.643 529.453 471.683 529.92 472.963 529.92ZM496.523 534.44C491.003 534.44 488.243 531.76 488.243 526.4V518.88H484.522V514.36H488.243V508.6H494.283V514.36H500.083V518.88H494.283V526.16C494.283 527.28 494.536 528.12 495.043 528.68C495.576 529.24 496.416 529.52 497.563 529.52C497.909 529.52 498.269 529.48 498.643 529.4C499.043 529.32 499.469 529.213 499.923 529.08L500.803 533.48C500.243 533.773 499.576 534 498.803 534.16C498.029 534.347 497.269 534.44 496.523 534.44ZM509.694 534.44C508.228 534.44 506.934 534.16 505.814 533.6C504.694 533.04 503.801 532.28 503.134 531.32C502.494 530.36 502.174 529.28 502.174 528.08C502.174 526.667 502.548 525.533 503.294 524.68C504.041 523.827 505.254 523.227 506.934 522.88C508.614 522.507 510.841 522.32 513.614 522.32H515.054V521.64C515.054 520.467 514.788 519.64 514.254 519.16C513.721 518.653 512.814 518.4 511.534 518.4C510.468 518.4 509.334 518.573 508.134 518.92C506.961 519.24 505.788 519.733 504.614 520.4L502.974 516.36C503.668 515.907 504.508 515.493 505.494 515.12C506.508 514.747 507.561 514.467 508.654 514.28C509.748 514.067 510.788 513.96 511.774 513.96C514.814 513.96 517.081 514.653 518.574 516.04C520.068 517.4 520.814 519.52 520.814 522.4V534H515.174V531.04C514.774 532.08 514.094 532.907 513.134 533.52C512.201 534.133 511.054 534.44 509.694 534.44ZM511.054 530.4C512.174 530.4 513.121 530.013 513.894 529.24C514.668 528.467 515.054 527.467 515.054 526.24V525.44H513.654C511.601 525.44 510.148 525.627 509.294 526C508.441 526.347 508.014 526.96 508.014 527.84C508.014 528.587 508.268 529.2 508.774 529.68C509.308 530.16 510.068 530.4 511.054 530.4ZM532.64 534.44C530.107 534.44 528.253 533.787 527.08 532.48C525.907 531.147 525.32 529.173 525.32 526.56V505.8H531.36V526.32C531.36 528.453 532.307 529.52 534.2 529.52C534.493 529.52 534.773 529.507 535.04 529.48C535.333 529.453 535.613 529.4 535.88 529.32L535.8 534C534.787 534.293 533.733 534.44 532.64 534.44ZM557.093 534.44C554.56 534.44 552.706 533.787 551.533 532.48C550.36 531.147 549.773 529.173 549.773 526.56V505.8H555.813V526.32C555.813 528.453 556.76 529.52 558.653 529.52C558.946 529.52 559.226 529.507 559.493 529.48C559.786 529.453 560.066 529.4 560.333 529.32L560.253 534C559.24 534.293 558.186 534.44 557.093 534.44ZM573.098 534.44C570.778 534.44 568.778 534.027 567.098 533.2C565.445 532.347 564.165 531.16 563.258 529.64C562.378 528.093 561.938 526.28 561.938 524.2C561.938 522.173 562.365 520.4 563.218 518.88C564.098 517.333 565.285 516.133 566.778 515.28C568.298 514.4 570.045 513.96 572.018 513.96C574.871 513.96 577.138 514.867 578.818 516.68C580.498 518.467 581.338 520.893 581.338 523.96V525.48H567.698C567.911 527.027 568.471 528.16 569.378 528.88C570.311 529.573 571.591 529.92 573.218 529.92C574.285 529.92 575.365 529.76 576.458 529.44C577.551 529.12 578.538 528.627 579.418 527.96L581.018 532C580.031 532.747 578.818 533.347 577.378 533.8C575.965 534.227 574.538 534.44 573.098 534.44ZM572.258 517.96C570.978 517.96 569.938 518.347 569.138 519.12C568.365 519.893 567.885 520.973 567.698 522.36H576.338C576.178 519.427 574.818 517.96 572.258 517.96ZM591.491 534.44C590.025 534.44 588.731 534.16 587.611 533.6C586.491 533.04 585.598 532.28 584.931 531.32C584.291 530.36 583.971 529.28 583.971 528.08C583.971 526.667 584.345 525.533 585.091 524.68C585.838 523.827 587.051 523.227 588.731 522.88C590.411 522.507 592.638 522.32 595.411 522.32H596.851V521.64C596.851 520.467 596.585 519.64 596.051 519.16C595.518 518.653 594.611 518.4 593.331 518.4C592.265 518.4 591.131 518.573 589.931 518.92C588.758 519.24 587.585 519.733 586.411 520.4L584.771 516.36C585.465 515.907 586.305 515.493 587.291 515.12C588.305 514.747 589.358 514.467 590.451 514.28C591.545 514.067 592.585 513.96 593.571 513.96C596.611 513.96 598.878 514.653 600.371 516.04C601.865 517.4 602.611 519.52 602.611 522.4V534H596.971V531.04C596.571 532.08 595.891 532.907 594.931 533.52C593.998 534.133 592.851 534.44 591.491 534.44ZM592.851 530.4C593.971 530.4 594.918 530.013 595.691 529.24C596.465 528.467 596.851 527.467 596.851 526.24V525.44H595.451C593.398 525.44 591.945 525.627 591.091 526C590.238 526.347 589.811 526.96 589.811 527.84C589.811 528.587 590.065 529.2 590.571 529.68C591.105 530.16 591.865 530.4 592.851 530.4ZM607.117 534V514.36H613.037V517.76C613.97 515.467 615.97 514.2 619.037 513.96L620.797 513.84L621.157 518.92L617.757 519.28C614.77 519.573 613.277 521.093 613.277 523.84V534H607.117ZM623.601 534V514.36H629.521V517.24C630.188 516.173 631.081 515.36 632.201 514.8C633.321 514.24 634.575 513.96 635.961 513.96C638.281 513.96 640.015 514.64 641.161 516C642.308 517.333 642.881 519.4 642.881 522.2V534H636.841V522.48C636.841 521.12 636.588 520.147 636.081 519.56C635.575 518.947 634.828 518.64 633.841 518.64C632.561 518.64 631.535 519.04 630.761 519.84C630.015 520.64 629.641 521.707 629.641 523.04V534H623.601ZM657.59 534.44C655.27 534.44 653.27 534.027 651.59 533.2C649.937 532.347 648.657 531.16 647.75 529.64C646.87 528.093 646.43 526.28 646.43 524.2C646.43 522.173 646.857 520.4 647.71 518.88C648.59 517.333 649.777 516.133 651.27 515.28C652.79 514.4 654.537 513.96 656.51 513.96C659.364 513.96 661.63 514.867 663.31 516.68C664.99 518.467 665.83 520.893 665.83 523.96V525.48H652.19C652.404 527.027 652.964 528.16 653.87 528.88C654.804 529.573 656.084 529.92 657.71 529.92C658.777 529.92 659.857 529.76 660.95 529.44C662.044 529.12 663.03 528.627 663.91 527.96L665.51 532C664.524 532.747 663.31 533.347 661.87 533.8C660.457 534.227 659.03 534.44 657.59 534.44ZM656.75 517.96C655.47 517.96 654.43 518.347 653.63 519.12C652.857 519.893 652.377 520.973 652.19 522.36H660.83C660.67 519.427 659.31 517.96 656.75 517.96ZM669.343 534V514.36H675.263V517.76C676.197 515.467 678.197 514.2 681.263 513.96L683.023 513.84L683.383 518.92L679.983 519.28C676.997 519.573 675.503 521.093 675.503 523.84V534H669.343ZM693.153 534.44C691.419 534.44 689.806 534.24 688.312 533.84C686.819 533.44 685.579 532.893 684.593 532.2L686.033 528.28C687.019 528.893 688.139 529.387 689.393 529.76C690.673 530.107 691.939 530.28 693.193 530.28C694.313 530.28 695.139 530.107 695.673 529.76C696.206 529.387 696.473 528.907 696.473 528.32C696.473 527.387 695.793 526.8 694.433 526.56L690.233 525.8C688.553 525.507 687.273 524.907 686.393 524C685.513 523.093 685.073 521.907 685.073 520.44C685.073 519.107 685.446 517.96 686.193 517C686.939 516.04 687.966 515.293 689.273 514.76C690.579 514.227 692.086 513.96 693.793 513.96C695.206 513.96 696.579 514.147 697.913 514.52C699.246 514.867 700.393 515.427 701.353 516.2L699.833 520.08C699.033 519.493 698.073 519.013 696.953 518.64C695.859 518.267 694.833 518.08 693.872 518.08C692.673 518.08 691.806 518.28 691.273 518.68C690.739 519.053 690.473 519.533 690.473 520.12C690.473 521.053 691.099 521.64 692.353 521.88L696.553 522.64C698.286 522.933 699.606 523.52 700.513 524.4C701.419 525.253 701.873 526.427 701.873 527.92C701.873 529.973 701.073 531.573 699.473 532.72C697.873 533.867 695.766 534.44 693.153 534.44Z" fill="#0093EC"/>
<path d="M421.473 576.44C419.739 576.44 418.126 576.24 416.633 575.84C415.139 575.44 413.899 574.893 412.913 574.2L414.353 570.28C415.339 570.893 416.459 571.387 417.713 571.76C418.993 572.107 420.259 572.28 421.513 572.28C422.633 572.28 423.459 572.107 423.993 571.76C424.526 571.387 424.793 570.907 424.793 570.32C424.793 569.387 424.113 568.8 422.753 568.56L418.553 567.8C416.873 567.507 415.593 566.907 414.713 566C413.833 565.093 413.393 563.907 413.393 562.44C413.393 561.107 413.766 559.96 414.513 559C415.259 558.04 416.286 557.293 417.593 556.76C418.899 556.227 420.406 555.96 422.113 555.96C423.526 555.96 424.899 556.147 426.233 556.52C427.566 556.867 428.713 557.427 429.673 558.2L428.153 562.08C427.353 561.493 426.393 561.013 425.273 560.64C424.179 560.267 423.153 560.08 422.193 560.08C420.993 560.08 420.126 560.28 419.593 560.68C419.059 561.053 418.793 561.533 418.793 562.12C418.793 563.053 419.419 563.64 420.673 563.88L424.873 564.64C426.606 564.933 427.926 565.52 428.833 566.4C429.739 567.253 430.193 568.427 430.193 569.92C430.193 571.973 429.393 573.573 427.793 574.72C426.193 575.867 424.086 576.44 421.473 576.44ZM433.4 552.56V546.92H439.92V552.56H433.4ZM433.64 576V556.36H439.68V576H433.64ZM444.343 576V556.36H450.263V559.24C450.93 558.173 451.823 557.36 452.943 556.8C454.063 556.24 455.317 555.96 456.703 555.96C459.023 555.96 460.757 556.64 461.903 558C463.05 559.333 463.623 561.4 463.623 564.2V576H457.583V564.48C457.583 563.12 457.33 562.147 456.823 561.56C456.317 560.947 455.57 560.64 454.583 560.64C453.303 560.64 452.277 561.04 451.503 561.84C450.757 562.64 450.383 563.707 450.383 565.04V576H444.343ZM477.693 576.44C475.559 576.44 473.693 576.027 472.093 575.2C470.519 574.347 469.306 573.147 468.452 571.6C467.599 570.053 467.173 568.227 467.173 566.12C467.173 564.013 467.599 562.2 468.452 560.68C469.306 559.16 470.519 558 472.093 557.2C473.693 556.373 475.559 555.96 477.693 555.96C478.946 555.96 480.213 556.147 481.493 556.52C482.773 556.893 483.813 557.427 484.613 558.12L482.933 562.28C482.266 561.747 481.519 561.333 480.693 561.04C479.866 560.72 479.066 560.56 478.293 560.56C476.719 560.56 475.493 561.053 474.613 562.04C473.759 563 473.333 564.373 473.333 566.16C473.333 567.92 473.759 569.307 474.613 570.32C475.493 571.307 476.719 571.8 478.293 571.8C479.039 571.8 479.826 571.653 480.653 571.36C481.506 571.067 482.266 570.64 482.933 570.08L484.613 574.24C483.813 574.933 482.773 575.48 481.493 575.88C480.213 576.253 478.946 576.44 477.693 576.44ZM497.043 576.44C494.723 576.44 492.723 576.027 491.043 575.2C489.39 574.347 488.11 573.16 487.203 571.64C486.323 570.093 485.883 568.28 485.883 566.2C485.883 564.173 486.31 562.4 487.163 560.88C488.043 559.333 489.23 558.133 490.723 557.28C492.243 556.4 493.99 555.96 495.963 555.96C498.817 555.96 501.083 556.867 502.763 558.68C504.443 560.467 505.283 562.893 505.283 565.96V567.48H491.643C491.857 569.027 492.417 570.16 493.323 570.88C494.257 571.573 495.537 571.92 497.163 571.92C498.23 571.92 499.31 571.76 500.403 571.44C501.497 571.12 502.483 570.627 503.363 569.96L504.963 574C503.977 574.747 502.763 575.347 501.323 575.8C499.91 576.227 498.483 576.44 497.043 576.44ZM496.203 559.96C494.923 559.96 493.883 560.347 493.083 561.12C492.31 561.893 491.83 562.973 491.643 564.36H500.283C500.123 561.427 498.763 559.96 496.203 559.96ZM517.209 576L530.169 547.8H535.169L548.129 576H541.889L539.249 569.88H526.089L523.489 576H517.209ZM532.609 554.4L528.169 565.04H537.209L532.689 554.4H532.609ZM557.287 576.44C554.78 576.44 552.927 575.747 551.727 574.36C550.553 572.973 549.967 570.893 549.967 568.12V556.36H556.007V568.28C556.007 570.6 557.007 571.76 559.007 571.76C560.153 571.76 561.087 571.36 561.807 570.56C562.553 569.733 562.927 568.653 562.927 567.32V556.36H568.967V576H563.087V573.32C561.78 575.4 559.847 576.44 557.287 576.44ZM583.08 583.64C581.187 583.64 579.414 583.44 577.76 583.04C576.134 582.64 574.707 582.013 573.48 581.16L575.12 577.04C576.187 577.707 577.387 578.213 578.72 578.56C580.08 578.933 581.36 579.12 582.56 579.12C585.974 579.12 587.68 577.547 587.68 574.4V572.16C587.147 573.173 586.307 573.987 585.16 574.6C584.014 575.213 582.76 575.52 581.4 575.52C579.64 575.52 578.107 575.12 576.8 574.32C575.494 573.493 574.48 572.347 573.76 570.88C573.04 569.413 572.68 567.693 572.68 565.72C572.68 563.773 573.04 562.067 573.76 560.6C574.48 559.133 575.494 558 576.8 557.2C578.107 556.373 579.64 555.96 581.4 555.96C582.814 555.96 584.08 556.267 585.2 556.88C586.32 557.493 587.147 558.307 587.68 559.32V556.36H593.56V573.72C593.56 577.027 592.667 579.507 590.88 581.16C589.094 582.813 586.494 583.64 583.08 583.64ZM583.2 571C584.534 571 585.6 570.533 586.4 569.6C587.227 568.667 587.64 567.373 587.64 565.72C587.64 564.067 587.227 562.787 586.4 561.88C585.6 560.947 584.534 560.48 583.2 560.48C581.84 560.48 580.76 560.947 579.96 561.88C579.16 562.787 578.76 564.067 578.76 565.72C578.76 567.373 579.16 568.667 579.96 569.6C580.76 570.533 581.84 571 583.2 571ZM610.023 576V571.4L618.863 562.12C619.983 560.893 620.783 559.827 621.263 558.92C621.769 557.987 622.023 557.053 622.023 556.12C622.023 553.72 620.543 552.52 617.583 552.52C616.436 552.52 615.289 552.747 614.143 553.2C612.996 553.627 611.876 554.293 610.783 555.2L608.783 550.64C609.956 549.627 611.396 548.827 613.103 548.24C614.836 547.653 616.609 547.36 618.423 547.36C621.569 547.36 623.969 548.067 625.623 549.48C627.303 550.867 628.143 552.853 628.143 555.44C628.143 557.147 627.743 558.787 626.943 560.36C626.169 561.907 624.889 563.587 623.103 565.4L617.663 570.92H629.183V576H610.023ZM643.047 576.44C639.634 576.44 637.02 575.173 635.207 572.64C633.42 570.107 632.527 566.493 632.527 561.8C632.527 557.107 633.42 553.533 635.207 551.08C637.02 548.6 639.634 547.36 643.047 547.36C646.46 547.36 649.06 548.6 650.847 551.08C652.66 553.533 653.567 557.107 653.567 561.8C653.567 566.493 652.66 570.107 650.847 572.64C649.06 575.173 646.46 576.44 643.047 576.44ZM643.047 571.4C644.594 571.4 645.74 570.64 646.487 569.12C647.234 567.573 647.607 565.133 647.607 561.8C647.607 558.467 647.234 556.067 646.487 554.6C645.74 553.133 644.594 552.4 643.047 552.4C641.5 552.4 640.354 553.133 639.607 554.6C638.86 556.067 638.487 558.467 638.487 561.8C638.487 565.133 638.86 567.573 639.607 569.12C640.354 570.64 641.5 571.4 643.047 571.4ZM659.031 576V570.92H665.351V554.72L660.511 557.56L658.151 553.04L667.151 547.8H671.551V570.92H677.471V576H659.031ZM688.696 576.44C687.176 576.44 685.669 576.173 684.176 575.64C682.709 575.107 681.416 574.347 680.296 573.36L682.296 568.76C683.256 569.587 684.282 570.213 685.376 570.64C686.496 571.067 687.629 571.28 688.776 571.28C693.176 571.28 695.376 568.413 695.376 562.68V561.92C694.816 563.227 693.949 564.253 692.776 565C691.602 565.747 690.242 566.12 688.696 566.12C687.122 566.12 685.709 565.733 684.456 564.96C683.202 564.16 682.216 563.08 681.496 561.72C680.776 560.333 680.416 558.76 680.416 557C680.416 555.133 680.816 553.48 681.616 552.04C682.442 550.573 683.562 549.427 684.976 548.6C686.416 547.773 688.069 547.36 689.936 547.36C693.562 547.36 696.349 548.6 698.296 551.08C700.242 553.533 701.216 557.013 701.216 561.52C701.216 564.667 700.709 567.347 699.696 569.56C698.709 571.773 697.282 573.48 695.416 574.68C693.549 575.853 691.309 576.44 688.696 576.44ZM690.296 561.28C691.522 561.28 692.522 560.867 693.296 560.04C694.069 559.187 694.456 558.093 694.456 556.76C694.456 555.4 694.069 554.293 693.296 553.44C692.522 552.587 691.522 552.16 690.296 552.16C689.069 552.16 688.069 552.587 687.296 553.44C686.522 554.293 686.136 555.4 686.136 556.76C686.136 558.093 686.522 559.187 687.296 560.04C688.069 560.867 689.069 561.28 690.296 561.28Z" fill="#3F3D56"/>
</svg>
