<?xml version="1.0" encoding="UTF-8"?>
<svg id="Layer_1" xmlns="http://www.w3.org/2000/svg" version="1.1" viewBox="0 0 1920 1382">
  <!-- Generator: Adobe Illustrator 29.5.1, SVG Export Plug-In . SVG Version: 2.1.0 Build 141)  -->
  <defs>
    <style>
      .st0 {
        fill: #2d293d;
      }

      .st1 {
        fill: #2f2e41;
      }

      .st2 {
        fill: #e6e6e6;
      }

      .st3 {
        fill: #3f3d56;
      }

      .st4 {
        fill: #0093ec;
      }

      .st5 {
        fill: #ccc;
      }

      .st6 {
        fill: #00b0ff;
      }

      .st7 {
        fill: #9e616a;
      }

      .st8 {
        fill: #9d6069;
      }

      .st9 {
        display: none;
      }
    </style>
  </defs>
  <path class="st9" d="M139.5,1306V1c414.03,0,828.06,0,1242.75.44.66,5.32.66,10.21.66,15.33h16.6V1c25.03,0,50.06,0,75.75.44.66,5.32.66,10.21.66,15.33h16.6V1h290c0,434.7,0,869.39-.4,1304.85-2.17.56-3.94.18-5.72.17-39.28-.07-78.57-.1-117.86-.6-.01-9.94-.01-19.42-.01-29.44-2.81,0-4.91,0-7.01-.47.02-8.81.04-17.15.51-25.5,3.02,0,5.6,0,8.93,0-.52-8.05-1.27-15.13-1.39-22.23-.46-26.12-.66-52.24-1.07-78.35-.2-12.95-.57-25.91-.99-38.86-.6-18.41-1.25-36.81-2.01-55.21-.54-13.08-1.3-26.14-1.97-39.22-.66-12.91-1.3-25.81-2.03-38.71-.27-4.79-.63-9.58-1.14-14.35-1.22-11.49-2.45-22.97-3.86-34.43-1.39-11.29-2.84-22.58-4.61-33.82-1.51-9.6-3.52-19.11-4.95-28.89.43-2.04.96-4,.48-5.67-3.59-12.33-7.45-24.59-11.1-36.91-2.05-6.9-4.78-13.77-5.52-20.83-.65-6.19,1.04-12.63,1.73-18.96,1-9.25,1.88-18.51,3.07-27.73,1.5-11.6,3.16-23.18,4.95-34.74,1.79-11.52,3.54-23.05,5.82-34.48,2.77-13.89,6.33-27.63,9.08-41.52,2.95-14.91,5.59-29.9,7.87-44.93.61-4.01,1.98-8.69-1.74-12.8-.03-6.61-.22-12.77-.02-18.92.36-11.11-2.32-21.44-7.4-31.24-6.41-12.39-12.5-24.96-19.23-37.17-4.97-9.01-10.84-17.51-16.09-26.37-.72-1.22-.9-3.65-.16-4.71,3.84-5.54,4.79-11.35,3.1-17.88,17.18-15.48,23.65-34.79,18.25-56.52-7.67-30.89-35.99-47.96-67.57-41.44-15.08,3.12-26.91,11.55-35.03,25.02-7.25,12.03-10.45,24.68-7.95,38.69,3.6,20.27,14.4,35.14,33.47,42.93,7.32,2.99,15.67,3.46,23.86,5.25,2.47,2.79,4.16,6.21,6.92,7.8,3.71,2.15,5.56,4.75,6.9,8.73,7.43,21.94,14.9,43.89,22.99,65.59,3.27,8.77,8.16,16.93,4.49,26.81-2.09,1.59-4.6,2.8-5.4,4.72-3.35,8.14-6.19,16.49-9.2,24.77-3.22,8.86-6.41,17.73-10.12,28-1.87-3.24-3.07-5.06-4.02-7.02-1.81-3.75-4.04-5.74-8.87-5.59-14.96.45-29.94.37-44.91.05-4.85-.1-8.37.65-9.26,5.44-8.28-4.14-16.1-8.63-24.38-12.01-6.07-2.48-11.15-5.59-14.8-11.1-5.52-8.34-10.88-16.85-17.05-24.69-3.01-3.83-5.03-9.67-11.6-9.88-.45-1.04-.79-1.8-1.31-2.4-6.98-8.13-12.82-16.78-15.78-27.36-2.41-8.6-5.34-17.19-9.23-25.2-4.56-9.39-10.45-18.13-15.7-27.19-3.12-5.38-6.57-10.65-4.12-17.48.54-1.5-.1-3.58-.62-5.27-3.76-12.3-12.92-16.74-26.17-13.21-.07-53.29-.03-106.11-.19-158.93-.01-4.14-.56-8.74-2.43-12.29-2.88-5.47-6.91-10.36-14.3-10.33-27.16.08-54.32-.01-81.48.12-2.11.01-4.62.82-6.24,2.13-6.28,5.09-9.5,11.65-9.5,20.01.06,336.76.05,673.52.05,1010.28,0,2.16-.1,4.32-.62,6.49-46.76-.02-93.07-.03-139.38-.52,0-292.41,0-584.36,0-876.3,0-1.17.03-2.33,0-3.5-.23-8.77-8.32-16.67-17.11-16.68-25.83-.01-51.66,0-77.49,0-12.08,0-19.4,7.31-19.4,19.45,0,290.28,0,580.56,0,870.84,0,1.77.16,3.54.23,5.16,3.92.51,7.3.96,10.22,1.47-52.46.06-104.46.04-156.46-.44,0-233.27-.06-466.08.21-698.88.01-9.49-8.14-17.93-17.72-17.76-26.16.47-52.32.16-78.49.16-12,0-18.01,6.02-18.01,18.03,0,232.97,0,465.95-.47,698.94-48.82,0-97.17,0-145.53-.49,0-127.79,0-255.12,0-382.45,0-8.72-5.24-14-14.18-14.02-28.5-.05-57-.04-85.5,0-9.23.01-14.33,5.25-14.33,14.45,0,127.49,0,254.99-.47,382.5-48.82,0-97.17,0-145.53-.49,0-76.1,0-151.74,0-227.38,0-8.53-.66-9.38-9-10.93-1.46-.27-2.99-.17-4.48-.17-10.5-.01-20.99,0-31.49,0-19.33,0-38.65-.05-57.98.02-8.69.03-11.05,2.48-11.05,10.99-.01,75.97-.03,151.94-.5,227.95-32.81.04-65.15.04-97.5.04M1524.27,537.76c-7.55,8.74-9.57,19.08-8.78,30.25,1.04,14.59,8.37,25.05,20.98,32.85,1.04,1.72,1.68,4.19,3.2,5.03,6.54,3.6,13.56,4.78,21.11,3.55,12.63-2.05,22.33-8.76,30.75-17.95,6.36-6.94,11.43-14.27,9.98-24.38-.47-3.27-.64-6.58-1.03-9.86-1.62-13.58-5.94-25.79-17.06-34.78-6.69-5.41-13.59-10.69-19.56-16.83-9.44-9.71-25.84-7.85-32.69,3.15-1.01,1.63-2.37,3.43-4.01,4.2-4.81,2.26-5.07,6.04-4.39,10.45.7,4.57,1.25,9.16,1.49,14.3M871.18,475.12c20.19-14.64,40.43-29.2,60.55-43.94,30.11-22.06,60.16-44.21,90.17-66.4,6.08-4.5,11.9-9.36,18.4-13.64,11.22,8.86,23.92,12.45,38.22,11.97,18.3-.61,32.2-9.17,42.84-23.16,7.47-9.82,10.9-21.38,11.01-34.01,1.52-.64,3.02-1.34,4.57-1.92,27.1-10.15,54.24-20.23,81.32-30.43,36.68-13.83,73.33-27.73,109.96-41.66,4.62-1.76,9.38-3.45,13.52-6.06,1.65-1.04,1.77-4.49,2.59-6.84-2.03-.66-4.02-1.69-6.09-1.86-1.53-.13-3.18.76-4.73,1.34-12.69,4.78-25.36,9.61-38.05,14.4-23.83,8.98-47.67,17.94-71.51,26.92-31.1,11.71-62.2,23.43-93.44,34.36-2.67-6.22-4.39-13.1-8.19-18.53-11.13-15.95-26.36-24.53-46.43-24.81-19.19-.27-34.35,7.57-45.51,22.11-15.71,20.45-15.38,50.27,1.91,71.62-.85.78-1.64,1.66-2.57,2.33-15.71,11.23-31.48,22.38-47.16,33.64-38.75,27.83-77.46,55.71-116.83,83.23-3.48-8.92-10.19-15.23-17.58-20.72-10.57-7.84-22.65-10.63-35.83-10.15-18.24.66-32.13,9.18-42.72,23.19-7.75,10.26-10.64,22.23-10.26,35.29.55,19.23,9.79,33.25,23.73,44.75-9.03,10.32-18.12,20.59-27.08,30.98-9.38,10.88-18.61,21.91-27.96,32.81-7,8.16-14.14,16.19-21.14,24.34-9.25,10.78-18.39,21.66-27.63,32.44-8.72,10.16-17.55,20.23-26.26,30.4-11.28,13.17-22.47,26.43-33.74,39.61-9.23,10.8-18.52,21.55-28.45,32.11-21.77-17.38-53.6-14.89-72.36,1.47-23.97,20.91-24.28,56.8-8.21,77.64-3.96,2.37-7.99,4.63-11.87,7.13-42.38,27.32-84.73,54.68-127.1,82.01-7.9,5.09-15.89,10.04-24.48,14.71-3.78-9.67-10.62-16.87-18.81-22.85-10.57-7.71-22.5-10.47-35.56-10.03-18.31.62-32.21,9.16-42.84,23.25-7.92,10.5-10.72,22.73-10.2,36,.72,18.29,9.21,32.17,23.33,42.78,10.38,7.81,22.41,10.61,35.5,10.18,18.49-.6,32.46-9.12,43.25-23.38,9.77-12.91,11.34-27.9,10.37-43.8,13.34-8.61,26.74-17.14,40.02-25.85,29.05-19.04,58.07-38.14,87.05-57.29,12.94-8.56,25.76-17.31,39.27-25.72,1.46,1.31,2.79,2.81,4.4,3.9,10.54,7.11,22.01,10.38,34.91,10.18,18.57-.3,33.13-8.53,43.56-22.71,15.32-20.84,14.5-48.54-1.38-69.97,8.11-9.2,16.28-18.34,24.32-27.6,9.98-11.5,19.82-23.11,29.77-34.63,7.04-8.15,14.19-16.19,21.22-24.34,9.72-11.28,19.33-22.65,29.06-33.92,7.25-8.4,14.67-16.66,21.92-25.06,9.73-11.27,19.38-22.61,29.05-33.94,7.3-8.55,14.49-17.21,21.9-25.67,5.77-6.59,11.79-12.95,18.51-19.33,7.5,2.6,15.22,3.21,23.13,3.06,18.29-.33,32.23-9.07,42.81-23.04,10.53-13.91,12.12-30.15,9.84-46.9M864.56,50.07c2.66,5.15,4.49,11.01,8.15,15.31,7.96,9.34,18.62,12.12,30.84,10.76,10.28-1.14,18.38-5.23,24.19-13.78,7.19-10.58,8.17-22.25,5.23-34.26-1.67-6.81-5.12-12.68-10.88-17.37-8.41-6.86-18.02-8.88-28.15-7.57-13.1,1.69-22.95,8.35-27.72,21.43-2.96,8.12-3.32,16.26-1.66,25.49M1372.5,46.66c-.43-6.81-.26-14.14-6.46-18.54-3.22-2.29-7.84-4.04-11.65-3.75-5.94.45-11.95,2.43-15.48,8.3-4.66-8.83-18.03-12.03-29.27-2.08-.1-1.89-.2-3.6-.29-5.25h-14.49v49.44h15.64c0-1.68,0-3.13,0-4.58,0-8.16-.09-16.32.04-24.48.08-4.73,3.78-8.5,8.14-8.71,3.81-.18,6.22,2.54,6.79,7.87.18,1.65.04,3.33.04,4.99,0,8.27,0,16.53,0,24.79h16c0-2.14,0-3.96,0-5.77,0-7.66-.09-15.32.03-22.98.08-5,3.91-8.9,8.44-8.91,3.68-.01,6.1,2.92,6.5,8.17.18,2.32.03,4.66.03,6.99,0,7.58,0,15.15,0,22.58h16v-28.08M1227.13,63c-6.2-1.89-12.4-3.77-18.87-5.74-1.39,3.19-3.12,7.16-5.02,11.52,11.98,7.55,24.62,9.85,37.87,6.08,11.68-3.33,16.1-11.72,14.51-23.48-.89-6.62-5.3-9.97-10.28-13.24,12.96-8.56,10.62-27.71-2.06-32.62-13.67-5.29-26.82-3.13-38.7,5.87,1.79,4.09,3.46,7.9,5.27,12.03,6.31-4.39,12.57-7.01,20.03-6.54,4.71.3,7.67,2.28,8.3,6.65.6,4.12-1.55,7.5-5.78,8.34-4.76.95-9.68,1.14-14.6,1.68v12.46c4.61,0,8.92-.14,13.21.04,4.96.2,9.2,3.6,9.42,7.66.27,4.91-2.54,7.53-7.19,8.39-1.74.32-3.49.61-6.12.91M1126.02,25.02c.75,1.37,1.5,2.74,2.47,4.54,4.04-2.32,7.75-4.45,11.76-6.76v39.27h-15.42v12.57h46.44v-12.68h-14.88V4.39c-14.57-2.98-23.06,7.97-34.23,12.76,1.34,2.85,2.37,5.05,3.85,7.87M1533.71,75.99c3.94-1.84,8.45-2.98,11.71-5.65,8.11-6.63,10.6-20.5,6.27-30.68-4.03-9.48-14.56-16.07-24.93-15.61-14.35.64-22.59,7.09-25.83,21.19-2.11,9.2,1.31,23.84,12.98,28.55,6.14,2.48,12.39,3.58,19.8,2.21M1318.89,175c1.44-.09,2.88-.17,4.61-.28,0-10.28.3-20.25-.08-30.19-.41-10.85-5.39-17.58-14.6-19.26-10.94-1.99-21.56-.58-31.37,5.4,1.54,3.56,3.01,6.95,4.34,10.02,5.83-1.46,11.28-2.89,16.75-4.18,5.77-1.37,9.57,2.48,8.32,8.02-6.74.83-13.41,1.55-20.04,2.49-9.34,1.32-12.51,10.48-10.78,17.11,3.19,12.21,22.89,17.27,32.28,6.32.16,1.58.29,2.94.45,4.55,3.21,0,6.19,0,10.13,0M972.51,144.98c0,6.7-.62,13.43,3.06,19.62,6.96,11.71,19.56,13.68,32.17,10.7,13.2-3.12,20.71-18.67,16.3-33.27-4.82-15.92-19.76-19.97-34.59-16.42-9.6,2.3-14.3,9.55-16.93,19.37M1610.5,61.49c0-7.16.04-14.32,0-21.48-.07-9.91-9.79-17.69-19.33-15.24-4.69,1.2-9.2,3.1-13.6,4.61-.04-.71-.12-2.35-.21-3.96q-15.85-1.96-15.85,13.4v35.87h16c0-5.61-.13-10.92.04-16.22.16-4.92.33-9.87,1.06-14.72.62-4.11,5.98-7.39,10.18-6.72,4.71.75,5.81,3.98,5.76,8.26-.12,9.77-.04,19.54-.04,29.41h16v-13.21M1415.98,175h7.52c0-12.31.3-23.96-.09-35.58-.33-9.95-9.87-16.99-19.36-14.59-4.65,1.18-9.11,3.08-13.49,4.59-.05-.86-.14-2.48-.23-4.14h-15.52v49.36h15.69c0-9.17-.11-17.99.04-26.8.11-6.12,5.02-11.06,10.37-10.84,5.12.21,6.59,2.52,6.59,10.41,0,9.1,0,18.19,0,27.59h8.48M1094.34,145.07c-4.92.96-9.86,1.84-14.76,2.9-4.92,1.06-7.42,4.59-8.01,9.23-1,7.86,2.01,13.72,8.29,16.88,6.88,3.46,17.89,3.95,22.1-1.97.24-.33.8-.42,1.27-.66.22,1.22.41,2.29.57,3.22h14.7c0-10.63.02-20.93,0-31.23-.02-8.84-4.19-15.23-12.88-17.26-5.84-1.36-12.29-1.84-18.18-.91-13.9,2.21-14.46,3.53-10.8,15.05.08.25.48.4.46.38,5.68-1.48,11.11-3.01,16.6-4.29,5.81-1.36,9.65,2.05,9.47,8.6-2.62,0-5.26,0-8.82.06M1471.46,128.44c-5.65-3.88-11.76-4.46-18.48-3.55-9.44,1.28-15.85,6.47-19.18,14.81-3.82,9.57-2.93,19.06,3.53,27.66,8.41,11.2,32.6,12.22,43.2,2.57-1.4-3.31-2.82-6.68-4.24-10.04-17.1,7.25-26.93,5.29-28.64-5.98h33.81c.25-10.05-1.37-18.74-10.01-25.48M1038.06,32.08c-7.25-8.13-19.81-9.82-29.59-5.41-8.23,3.71-13.21,10.2-14.04,19.66-.69,7.81.07,14.91,5.18,21.4,8.32,10.56,31.98,11.89,43.14,2.15-1.4-3.24-2.85-6.6-4.29-9.94-17.76,6.96-27.6,4.94-28.69-5.97h33.54c.69-7.9-.57-14.9-5.24-21.89M1241.06,162.12c-3.5-1.45-4.88-4.06-4.29-8.2h33c-.33-4.67-.2-8.97-1.01-13.08-2-10.08-13.22-17.84-25.9-16-13.77,2-19.97,9.11-21.99,21.08-1.97,11.69.75,20.24,12.36,27.1,7.4,4.37,15.85,4.45,24.05,2.51,4.27-1.01,8.25-3.26,12.33-4.94-1.31-3.13-2.3-5.17-3.03-7.29-1.09-3.18-2.01-3.75-5.5-1.8-5.98,3.33-12.76,3.78-20.02.63M929.27,125.12c-.34,4.17-.68,8.33-1.06,13.05h10.29c0,7.65-.46,14.84.19,21.92.33,3.64,1.84,7.78,4.19,10.5,6.51,7.51,15.23,6.38,23.89,4.75,3.19-.6,4.07-1.69,2.84-4.92-.96-2.53-.99-5.41-1.41-7.95-2.58.18-4.97.37-7.36.52-3.52.22-6.03-1.57-6.23-4.88-.39-6.58-.11-13.2-.11-20.3h13.6v-13.01h-13.72v-13.46h-16.01v13.67c-2.93,0-5.56,0-9.12.1M1052.5,141.68c-.38-2.66.44-3.96,3.45-3.74,3.41.25,6.86.06,10.2.06v-13.29h-13.83v-13.42h-15.97v13.96h-8.61v12.79h8.77c0,6.44,0,12.4,0,18.35,0,15.93,16.04,25.82,30.1,18.44.98-.51,1.9-2.44,1.74-3.55-.44-3.13-1.46-6.18-2.25-9.27-10.04,2.62-14.3.8-13.62-9.4.22-3.31.03-6.65.04-10.94M1548.99,177c3.83-.68,7.78-.98,11.47-2.12,6.62-2.04,11.16-8.83,11.04-15.67-.11-6.27-3.21-9.79-11.24-12.24-3.08-.94-6.36-1.19-9.47-2.02-3.22-.86-7.57-.14-8.17-5.21,4.94-5.77,10.42-5.56,23.48.94.82-2.26,1.39-4.66,2.52-6.75,1.83-3.37.62-4.75-2.59-6.18-8.69-3.89-17.57-4.31-26.5-1.64-7.4,2.21-11.64,9.06-11.02,16.55.54,6.55,5.61,11.15,13.45,12.36,3.53.55,7.01,1.37,10.53,1.96,2.48.41,4.99,1.24,3.84,4.18-.64,1.64-2.95,3.46-4.71,3.69-7.36.95-14.24-1.07-20.7-4.61-.61,1.9-.83,3.99-1.86,5.55-2.52,3.81-1.63,6.12,2.61,7.22,5.46,1.41,10.96,2.66,17.34,3.99M963.42,49.54c-2.66-6.95-5.2-13.95-8.1-20.81-.64-1.52-2.47-3.41-3.91-3.56-4.53-.46-9.13-.17-14.06-.17.31,1.44.35,2.26.66,2.98,5.42,12.49,11.44,24.77,16.1,37.53,2.74,7.52,6.44,10.89,14.5,9.63,2.58-.4,3.96-.91,5.04-3.39,4.4-10.12,9.13-20.11,13.6-30.2,2.33-5.26,4.38-10.64,6.79-16.55-4.18,0-7.5.21-10.79-.06-3.93-.32-5.61,1.12-6.95,5.01-2.9,8.43-6.7,16.54-10.44,25.5-1-2.26-1.65-3.71-2.43-5.92M1458.5,40.5V4.39h-16c0,1.38,0,2.38,0,3.37,0,15.99-.17,31.99.05,47.98.19,13.51,3.55,17.41,16.6,20.56,8.74,2.11,11.39.09,11.34-8.66,0-1.45-.15-2.9-.25-4.64-1.27,0-2.28-.18-3.21.03-5.53,1.25-7.66-2.25-8.2-6.58-.61-4.92-.26-9.96-.33-15.95M1146.41,176.41c9.74.81,12.1-2.53,9.31-13.41-.79,0-1.62,0-2.45,0-6.67-.09-7.75-1.16-7.77-7.71-.01-4.5,0-9,0-13.49,0-12.45,0-24.89,0-37.51h-16c0,18.57,0,36.86,0,55.15,0,10.75,5.49,16.41,16.91,16.98M1213.97,176c1.17-1.02,3.19-1.92,3.36-3.09.47-3.19.16-6.5.16-9.72q-10.99-.56-10.99-10.83c0-14.48,0-28.96,0-43.44v-4.7h-16v5.08c0,15.98.16,31.96-.04,47.93-.21,16.28,9.47,20.44,23.52,18.75M1409.5,39.5c0,5.82,0,11.65,0,17.47.01,11.65,4.44,17.15,15.85,18.99,3.52.57,7.22.09,10.84.09v-12.79c-10.31-.73-10.7-1.17-10.7-11.65V4.32h-16v35.18M1368.59,128.31c-.14-1.41-.27-2.83-.54-5.54-6.68,2.35-12.64,4.45-18.12,6.38-.71-.88-1.84-3.67-3.36-3.91-4.17-.65-8.5-.22-12.75-.22v49.62h15.67c0-8.35-.08-16.33.02-24.32.08-6.67,3.66-10.71,9.6-11.33,3.38-.36,6.73-.91,10.5-1.44-.19-2.93-.38-5.7-1.04-9.23M1051.5,28.68v46.05h16c0-8.54-.05-16.83.02-25.12.05-6.5,2.81-9.67,9.07-10.61,3.54-.53,7.08-.99,10.76-1.49-.4-4.4-.8-8.75-1.23-13.37-7.54-.35-14.07,1.67-19.42,8.08-.18-2.91-.3-4.95-.44-7.22-4.22,0-8.05-.19-11.84.12-1.04.09-1.95,1.69-2.92,3.56M1489.5,137.51v37.13h16c0-8.99-.03-17.63.01-26.27.02-4.43,1.92-7.55,6.53-8.49,4.42-.9,8.85-1.76,13.29-2.63-.27-1.95-.67-4.03-.8-6.13-.14-2.27-.03-4.56-.03-6.77-6.72-.79-15.03,1.53-19.86,7.37-.11-2.34-.2-4.37-.29-6.42h-14.85v12.2M1487.74,25h-11.01v49.74h15.76c0-15.66.08-31.07-.16-46.47-.02-1.11-2.38-2.18-4.59-3.27M1398.5,52.5v-27.49c-4.66,0-8.67-.25-12.62.15-1.22.12-3.22,2-3.23,3.09-.21,15.44-.14,30.89-.14,46.46h15.99v-22.2M1179.52,73.24c.45.57.9,1.61,1.37,1.62,5.1.12,10.2.07,15.27.07v-15.54h-16.65c0,4.56,0,8.73.02,13.84Z"/>
  <path class="st2" d="M1304.86,1309.83c-1.83.06-3.66.16-5.49.16-240.65,0-481.3,0-721.95,0-134.65,0-269.3,0-404.42,0-.47-1.39-.47-2.78-.47-4.58,32.34-.42,64.69-.42,97.91-.25,37.71.3,74.54.43,111.38.51.91,0,1.81-.48,2.72-.73,48.35.02,96.71.03,145.82.32,37.82.33,74.89.39,111.95.4.74,0,1.49-.47,2.23-.73,48.35.02,96.71.03,145.82.32,37.82.33,74.89.39,111.95.4.74,0,1.49-.47,2.23-.73,52,.01,104,.03,156.93.03,33.23.24,65.53.5,97.84.7,1.74.01,3.49-.48,5.23-.73,46.31.02,92.61.03,139.44.45.64,1.75.76,3.09.88,4.43Z"/>
  <path class="st2" d="M1815.53,1309.58c-131.97.42-263.95.42-396.44,0-.48-1.8-.44-3.2.07-4.59,33.1-.02,65.74-.04,98.68.23,25.84.34,51.37.4,76.9.41.94,0,1.89-.49,3.29-.7,4.81.03,9.16.02,13.82.29,25.83.34,51.36.4,76.89.41.94,0,1.88-.49,2.83-.75,39.28.04,78.57.06,117.85.13,1.77,0,3.55.39,5.72.28.4,1.08.4,2.47.4,4.27Z"/>
  <path class="st4" d="M1405,1382c-1.21-1.3-1.96-2.61-3.15-4.7.62-1.45,1.68-3.91,2.53-5.91,4.21.97,7.76,1.93,11.37,2.57,3.17.56,6.27-.05,6.96-3.71.34-1.76-.29-5.12-1.27-5.46-2.68-.92-5.84-1.07-8.7-.7-3.2.41-6.29,1.72-9.97,2.79v-27.66h27.38v8.62h-17.34v7.25c3.54,0,7.36-.6,10.89.16,3.88.83,7.3,3.3,8.15,7.64,1.18,5.98,2.5,12.74-5.62,18.83-6.72.29-13.74.29-21.23.29Z"/>
  <path class="st4" d="M1336,1382c-.49-.51-.3-1.21-.57-1.49-9.8-10.5-8.51-22.32-3.87-34.35,2.88-7.47,9.53-7.63,16.1-7.11,5.39.42,9.27,3.56,10.77,8.52,3.64,12.07,4.51,23.93-5.2,34.17-5.39.27-11.07.27-17.23.27M1338.54,1354.09c.3,5.23.16,10.55,1.12,15.66.37,1.96,3.07,4.44,5.06,4.8,1.3.24,4.39-2.73,4.64-4.54.82-5.81,1.13-11.78.7-17.62-.14-1.89-2.93-4.61-4.91-5.03-1.55-.33-3.79,2.24-5.59,3.69-.56.45-.68,1.44-1.03,3.05Z"/>
  <path class="st4" d="M1295,1382c-1.45-5.43.66-9.35,4.78-12.94,3.95-3.44,7.54-7.45,10.6-11.71,1.35-1.88,2.14-5.6,1.17-7.41-1.58-2.95-4.96-4.03-8.55-2.1-2.1,1.13-4.41,1.88-7.2,3.04-1-2.11-2.13-4.5-3.27-6.9,6.13-6.22,13.93-5.77,21.26-4.66,7.51,1.14,11.56,10.56,7.63,17.5-3.36,5.92-7.96,11.13-12.22,16.93h15.33c0,2.82,0,5.08,0,7.79-9.69.45-19.38.45-29.53.45Z"/>
  <path class="st4" d="M1367,1382c-1.45-5.43.66-9.35,4.78-12.94,3.95-3.44,7.54-7.45,10.6-11.71,1.35-1.88,2.09-5.52,1.18-7.42-1.38-2.87-4.75-3.86-8.15-2.36-2.34,1.04-4.68,2.08-7.59,3.36-1.02-2.16-2.15-4.55-3.37-7.11,7.04-5.84,15-6.14,23.11-3.74,7.26,2.15,8.73,10.36,5.94,16.27-2.1,4.47-5.91,8.13-8.98,12.14-1.24,1.62-2.54,3.19-4.38,5.5h16.39c0,2.57,0,4.83,0,7.55-9.69.45-19.37.45-29.53.45Z"/>
  <path class="st4" d="M1432.07,0c.47,5.19.47,10.37.47,15.76h-16.6c0-5.12,0-10.01-.2-15.33,5.15-.44,10.51-.44,16.33-.44Z"/>
  <path class="st4" d="M1525.07,0c.47,5.19.47,10.37.47,15.76h-16.6c0-5.12,0-10.01-.2-15.33,5.15-.44,10.51-.44,16.33-.44Z"/>
  <path class="st6" d="M1418.7,1305c-.05,1.39-.09,2.78-.07,4.59-.81,1.08-1.69,2.31-2.58,2.32-11.64.13-23.28.21-34.92.05-9.58-.14-19.15-.7-28.72-.94-15.56-.4-31.12-.69-47.12-1.11-.56-1.42-.67-2.77-.86-4.51-.01-2.56.09-4.73.09-6.89,0-336.76.02-673.52-.05-1010.28,0-8.36,3.22-14.92,9.5-20.01,1.62-1.31,4.13-2.12,6.24-2.13,27.16-.14,54.32-.04,81.48-.12,7.39-.02,11.42,4.86,14.3,10.33,1.87,3.56,2.42,8.16,2.43,12.29.16,52.82.11,105.64.03,159.24-9.96,8.39-12.52,15.99-7.5,24.98,1.78,3.18,5.07,5.53,7.63,8.71-.05,273.47-.05,546.48-.05,819.49,0,1.33.1,2.66.16,3.99Z"/>
  <path class="st3" d="M1164.53,1304.48c-1.74.72-3.49,1.21-5.23,1.2-32.3-.2-64.61-.46-97.38-.77-3.85-.51-7.23-.95-11.15-1.46-.08-1.63-.23-3.39-.23-5.16-.01-290.28-.01-580.56,0-870.84,0-12.13,7.32-19.45,19.4-19.45,25.83,0,51.66,0,77.49,0,8.79,0,16.88,7.91,17.11,16.68.03,1.17,0,2.33,0,3.5,0,291.95,0,583.89,0,876.3Z"/>
  <path class="st3" d="M904.53,1304.48c-.74.72-1.48,1.19-2.23,1.19-37.06-.02-74.13-.07-111.48-.43-.29-233.27-.29-466.25-.29-699.22,0-12.01,6.01-18.03,18.01-18.03,26.16,0,52.33.31,78.49-.16,9.57-.17,17.73,8.27,17.72,17.76-.27,232.81-.21,465.61-.21,698.88Z"/>
  <path class="st3" d="M1669.59,865.15c1.79,9.55,3.8,19.07,5.31,28.67,1.77,11.24,3.21,22.53,4.61,33.82,1.42,11.46,2.64,22.95,3.86,34.43.51,4.77.87,9.56,1.14,14.35.72,12.9,1.36,25.81,2.03,38.71.67,13.07,1.43,26.14,1.97,39.22.76,18.4,1.41,36.81,2.01,55.21.42,12.95.79,25.9.99,38.86.41,26.12.61,52.24,1.07,78.35.13,7.09.87,14.18,1.39,22.23-3.33,0-5.91,0-9.4-.02-5.21.02-9.51-.16-13.76.18-5.15.41-10.27,1.26-15.8,1.9-4.14.41-5.14-1.61-5.54-4.99-1.56-13.1-3.28-26.18-5.14-39.23-1.79-12.56-3.93-25.06-5.77-37.61-2.17-14.84-4.07-29.73-6.3-44.56-2.45-16.29-5.1-32.55-7.75-48.81-2.51-15.45-5.06-30.89-7.69-46.32-2.36-13.81-4.71-27.62-7.37-41.37-2.11-10.9-4.69-21.7-7.06-32.55-1.27.75-1.74,1.45-1.8,2.18-.72,9.56-1.56,19.12-2.03,28.69-.81,16.55-1.49,33.11-2,49.68-.49,15.77-.83,31.54-1.01,47.32-.41,34.59-.76,69.18-1,103.78-.14,20.15-.09,40.3.03,60.45.03,4.22.74,8.43,1.17,12.97-2.22.14-3.68.24-5.61.29-9.52.32-18.58.69-27.99,1.2-2.97.97-5.87,2.03-6.54-2.02-2.11-12.68-4.15-25.38-6.02-38.1-2.49-16.97-4.76-33.97-7.2-50.95-2.89-20.07-6.12-40.09-8.76-60.19-2.66-20.28-4.97-40.62-7.08-60.97-1.91-18.4-3.86-36.82-4.86-55.27-.79-14.69-.42-29.47-.09-44.19.34-14.91,1.39-29.8,1.89-44.71.5-14.94.7-29.89,1.15-45.18,2.63-.25,5.32-.72,7.61.02,7.07,2.3,14.26,2.94,21.56,2.21,14.24-1.42,28.43-3.98,42.68-4.29,14.5-.31,29.08,1.24,43.57,2.52,9.88.87,19.69,2.68,29.52,4.08Z"/>
  <path class="st3" d="M644.53,1304.48c-.74.72-1.48,1.19-2.23,1.19-37.06-.02-74.13-.07-111.49-.43-.29-127.79-.29-255.29-.29-382.78,0-9.21,5.1-14.44,14.33-14.45,28.5-.04,57-.05,85.5,0,8.94.02,14.18,5.3,14.18,14.02,0,127.33,0,254.65,0,382.45Z"/>
  <path class="st2" d="M1669.95,864.93c-10.2-1.17-20-2.98-29.89-3.86-14.5-1.28-29.07-2.83-43.57-2.52-14.25.3-28.45,2.86-42.68,4.29-7.3.73-14.49.09-21.56-2.21-2.29-.75-4.98-.27-8.06,0-2.52.36-4.47.36-6.62.36-1.05-9.52-2.22-18.58-3-27.67-1.16-13.59-2.14-27.19-3.01-40.8-.81-12.67-1.35-25.35-2.04-38.03-.3-5.42-.59-10.85-1.03-16.26-1.28-15.69-2.76-31.37-3.9-47.06-.5-6.86-1.32-13.4-4.75-19.64-5.11-9.32-9.46-19.05-14.33-28.51-5.55-10.76-10.96-21.62-17.12-32.02-3.3-5.56-4.96-10.79-2.4-17.09,6.14-11.78,14.48-21.12,25.6-27.93,6.54-.15,8.55,5.7,11.56,9.52,6.17,7.85,11.52,16.35,17.05,24.69,3.65,5.52,8.73,8.62,14.8,11.1,8.28,3.38,16.1,7.87,24.38,12.01.88-4.79,4.4-5.54,9.26-5.44,14.96.32,29.95.4,44.91-.05,4.82-.14,7.05,1.84,8.87,5.59.94,1.96,2.15,3.79,4.02,7.02,3.71-10.27,6.9-19.14,10.12-28,3.01-8.28,5.85-16.63,9.2-24.77.79-1.92,3.3-3.14,5.71-4.48,12.97,1.15,23.57,6.17,33.16,13.63,3.7,3.65,2.34,8.33,1.73,12.34-2.28,15.03-4.92,30.02-7.87,44.93-2.75,13.89-6.31,27.63-9.08,41.52-2.28,11.43-4.03,22.96-5.82,34.48-1.79,11.56-3.45,23.14-4.95,34.74-1.19,9.22-2.07,18.49-3.07,27.73-.68,6.33-2.38,12.77-1.73,18.96.74,7.06,3.47,13.93,5.52,20.83,3.66,12.32,7.51,24.57,11.1,36.91.48,1.66-.05,3.62-.48,5.67Z"/>
  <path class="st3" d="M384.53,1304.48c-.91.72-1.81,1.2-2.72,1.2-36.83-.09-73.67-.22-110.91-.55-.4-76.18-.38-152.15-.37-228.12,0-8.51,2.36-10.96,11.05-10.99,19.33-.07,38.65-.02,57.98-.02,10.5,0,20.99,0,31.49,0,1.5,0,3.03-.1,4.48.17,8.34,1.55,9,2.4,9,10.93,0,75.64,0,151.27,0,227.38Z"/>
  <path class="st5" d="M632.43,766.1c16.16,20.81,16.98,48.5,1.66,69.34-10.43,14.19-24.99,22.42-43.56,22.71-12.9.21-24.37-3.07-34.91-10.18-1.61-1.09-2.94-2.59-4.81-4.35-2.52-2.54-4.63-4.64-6.74-6.74-16.86-20.8-16.55-56.69,7.42-77.6,18.76-16.36,50.59-18.85,72.75-1.03,2.99,2.9,5.59,5.37,8.18,7.84Z"/>
  <path class="st6" d="M384.2,953.24c1.65,15.59.09,30.58-9.68,43.49-10.79,14.26-24.76,22.78-43.25,23.38-13.09.43-25.13-2.38-35.5-10.18-14.11-10.62-22.61-24.49-23.33-42.78-.52-13.27,2.28-25.5,10.2-36,10.63-14.08,24.53-22.63,42.84-23.25,13.06-.44,24.99,2.32,35.56,10.03,8.19,5.97,15.04,13.18,19.14,23.41,1.56,4.34,2.8,8.12,4.03,11.9Z"/>
  <path class="st6" d="M1164.69,305.04c.61,12.53-2.82,24.09-10.29,33.91-10.65,13.99-24.54,22.54-42.84,23.16-14.3.48-27.01-3.1-38.62-12.48-2.69-2.57-4.98-4.62-7.27-6.68-17.62-20.73-17.94-50.55-2.23-71,11.16-14.53,26.31-22.37,45.51-22.11,20.06.28,35.3,8.86,46.43,24.81,3.79,5.44,5.52,12.31,8.2,19.34.38,4.22.75,7.63,1.12,11.05Z"/>
  <path class="st2" d="M816.8,534.92c-14.62-11.29-23.86-25.31-24.41-44.54-.37-13.06,2.51-25.04,10.26-35.29,10.59-14.02,24.47-22.53,42.72-23.19,13.18-.48,25.26,2.31,35.83,10.15,7.39,5.48,14.1,11.8,17.93,21.26,1.69,3.94,3.02,7.33,4.35,10.72,3,16.84,1.42,33.08-9.12,46.98-10.57,13.96-24.52,22.7-42.81,23.04-7.91.14-15.63-.46-23.67-3.42-4.06-2.14-7.58-3.93-11.09-5.71Z"/>
  <path class="st6" d="M1609.53,463.84c-7.88-1.62-16.23-2.08-23.56-5.07-19.07-7.79-29.87-22.66-33.47-42.93-2.49-14.01.7-26.66,7.95-38.69,8.12-13.47,19.95-21.9,35.03-25.02,31.58-6.53,59.89,10.55,67.57,41.44,5.4,21.73-1.07,41.04-18.56,56.36-1.07-.69-1.54-1.37-1.98-2.07-4.04-6.55-9.85-9.69-17.55-8.9-7.51.77-12.88,4.9-14.95,11.98-1.17,4-.39,8.58-.48,12.9Z"/>
  <path class="st0" d="M1557.68,536.2c-.62-4.58-1.16-9.17-1.87-13.74-.68-4.42-.42-8.2,4.39-10.45,1.64-.77,3-2.57,4.01-4.2,6.85-11,23.25-12.86,32.69-3.15,5.97,6.14,12.87,11.42,19.56,16.83,11.11,8.99,15.44,21.2,17.06,34.78.39,3.28.56,6.59,1.03,9.86,1.45,10.11-3.62,17.44-9.98,24.38-8.42,9.19-18.12,15.89-30.75,17.95-7.55,1.23-14.57.04-21.11-3.55-1.53-.84-2.16-3.31-2.97-5.73,1.25-7.21-.02-13.54-3.75-18.67-6.69-9.19-7.87-19.34-7.49-30.15.16-4.7-.52-9.43-.83-14.15Z"/>
  <path class="st7" d="M1491.55,565.63c-11.09,7.17-19.43,16.51-25.63,27.91-4.92-10.06-9.21-20.01-14.05-29.68-6.62-13.23-12.71-26.61-15.97-41.12-2.19-9.73-4.6-19.41-6.47-29.2-1.23-6.47-3.48-11.53-10.8-12.48-2.6-2.73-5.89-5.07-7.67-8.25-5.02-8.99-2.46-16.59,7.57-24.52,13.33-4.31,22.5.13,26.26,12.44.51,1.69,1.16,3.77.62,5.27-2.45,6.83,1,12.09,4.12,17.48,5.26,9.06,11.14,17.8,15.7,27.19,3.89,8.01,6.82,16.6,9.23,25.2,2.96,10.58,8.8,19.23,15.78,27.36.52.6.86,1.36,1.31,2.4Z"/>
  <path class="st7" d="M1609.83,464.02c-.21-4.5-.99-9.08.18-13.08,2.07-7.08,7.44-11.21,14.95-11.98,7.7-.79,13.52,2.35,17.55,8.9.43.7.91,1.38,1.67,2.23,2.3,6.53,1.35,12.34-2.49,17.88-.74,1.06-.56,3.49.16,4.71,5.25,8.86,11.12,17.37,16.09,26.37,6.74,12.21,12.82,24.78,19.23,37.17,5.07,9.81,7.76,20.13,7.4,31.24-.2,6.15-.01,12.31.02,18.92-9.58-7-20.18-12.02-32.77-13.22,2.98-10.08-1.91-18.24-5.18-27.01-8.09-21.71-15.56-43.65-22.99-65.59-1.35-3.97-3.19-6.58-6.9-8.73-2.75-1.59-4.45-5.02-6.92-7.8Z"/>
  <path class="st3" d="M816.47,535.03c3.86,1.68,7.37,3.46,11.03,5.56-5.77,6.78-11.79,13.14-17.56,19.73-7.41,8.46-14.59,17.12-21.9,25.67-9.67,11.32-19.32,22.67-29.05,33.94-7.25,8.4-14.67,16.66-21.92,25.06-9.73,11.27-19.34,22.64-29.06,33.92-7.03,8.15-14.18,16.2-21.22,24.34-9.95,11.52-19.79,23.13-29.77,34.63-8.04,9.26-16.21,18.4-24.46,27.91-2.74-2.15-5.33-4.62-7.99-7.42,9.2-11.1,18.49-21.85,27.72-32.66,11.27-13.18,22.46-26.44,33.74-39.61,8.71-10.17,17.55-20.23,26.26-30.4,9.25-10.78,18.38-21.66,27.63-32.44,7-8.16,14.15-16.19,21.14-24.34,9.36-10.91,18.58-21.93,27.96-32.81,8.96-10.39,18.05-20.66,27.42-31.09Z"/>
  <path class="st4" d="M897.57,48.64c-1.63-8.79-1.27-16.93,1.69-25.05,4.77-13.08,14.62-19.74,27.72-21.43,10.13-1.31,19.74.72,28.15,7.57,5.76,4.69,9.21,10.56,10.88,17.37,2.94,12.01,1.96,23.67-5.23,34.26-5.81,8.55-13.91,12.64-24.19,13.78-12.23,1.36-22.88-1.42-30.84-10.76-3.66-4.3-5.49-10.16-8.17-15.74M916.56,24.87c-2.77,7.14-3.82,14.38-2.02,21.99,1.68,7.09,7.08,13.6,12.74,14.06,7.34.6,14.88.79,19.21-6.87,5.13-9.1,5.15-18.69,1.32-28.19-1.73-4.3-5.14-7.33-9.73-8.88-8.93-3-15.64.35-21.5,7.89Z"/>
  <path class="st4" d="M1405.53,46.14v27.6h-16c0-7.42,0-15,0-22.58,0-2.33.14-4.67-.03-6.99-.4-5.25-2.82-8.18-6.5-8.17-4.53.02-8.36,3.91-8.44,8.91-.12,7.66-.03,15.32-.03,22.98,0,1.81,0,3.63,0,5.77h-16c0-8.26,0-16.53,0-24.79,0-1.67.14-3.35-.04-4.99-.57-5.33-2.98-8.05-6.79-7.87-4.36.21-8.06,3.97-8.14,8.71-.13,8.16-.04,16.32-.04,24.48,0,1.45,0,2.91,0,4.58h-15.64V24.33h14.49c.09,1.65.18,3.36.29,5.25,11.24-9.95,24.61-6.74,29.27,2.08,3.54-5.87,9.55-7.85,15.48-8.3,3.81-.29,8.43,1.46,11.65,3.75,6.2,4.4,6.03,11.74,6.46,19.03Z"/>
  <path class="st3" d="M1165.05,304.99c-.73-3.36-1.1-6.77-1.41-10.61,31.15-12.14,62.25-23.85,93.35-35.56,23.83-8.98,47.67-17.94,71.51-26.92,12.69-4.78,25.36-9.62,38.05-14.4,1.54-.58,3.2-1.47,4.73-1.34,2.07.18,4.06,1.2,6.09,1.86-.82,2.35-.94,5.8-2.59,6.84-4.14,2.61-8.9,4.3-13.52,6.06-36.64,13.93-73.29,27.84-109.96,41.66-27.08,10.21-54.21,20.29-81.32,30.43-1.55.58-3.05,1.28-4.93,1.97Z"/>
  <path class="st1" d="M1691.56,1304.43c-.93.72-1.87,1.21-2.82,1.21-25.53-.01-51.06-.07-76.9-.84-.08-13.81,9.28-26.32,22.06-28.64,8.02-1.46,16.42-.86,25.12-1.17,8.82,0,17.17,0,25.53-.01h7.01c0,10.03,0,19.5.01,29.44Z"/>
  <path class="st3" d="M384.54,953.09c-1.57-3.62-2.81-7.4-4.05-11.57,7.94-5.4,15.93-10.35,23.83-15.44,42.38-27.32,84.72-54.69,127.1-82.01,3.88-2.5,7.91-4.76,12.26-7.15,2.5,2.07,4.61,4.17,6.81,6.58-12.79,8.98-25.6,17.74-38.55,26.3-28.98,19.16-58,38.25-87.05,57.29-13.28,8.71-26.68,17.24-40.36,26Z"/>
  <path class="st3" d="M903.85,474.08c-1.69-3.44-3.02-6.83-4.4-10.6,38.69-28.24,77.4-56.12,116.15-83.94,15.68-11.26,31.45-22.42,47.16-33.64.93-.67,1.72-1.55,2.73-2.64,2.45,1.75,4.74,3.8,7.16,6.16-5.82,5-11.64,9.86-17.72,14.36-30.01,22.19-60.06,44.34-90.17,66.4-20.12,14.74-40.36,29.3-60.91,43.9Z"/>
  <path class="st4" d="M1260.6,62c2.19-.3,3.94-.59,5.68-.91,4.65-.86,7.45-3.49,7.19-8.39-.22-4.06-4.46-7.45-9.42-7.66-4.3-.18-8.6-.04-13.21-.04v-12.46c4.92-.53,9.83-.73,14.6-1.68,4.23-.84,6.38-4.22,5.78-8.34-.63-4.37-3.6-6.35-8.3-6.65-7.46-.47-13.72,2.15-20.03,6.54-1.81-4.13-3.48-7.94-5.27-12.03,11.88-9.01,25.03-11.17,38.7-5.87,12.69,4.91,15.03,24.06,2.06,32.62,4.98,3.26,9.39,6.62,10.28,13.24,1.59,11.76-2.83,20.16-14.51,23.48-13.25,3.78-25.9,1.47-37.87-6.08,1.9-4.36,3.63-8.33,5.02-11.52,6.47,1.97,12.67,3.86,19.31,5.74Z"/>
  <path class="st4" d="M1158.83,23.71c-1.26-2.51-2.29-4.71-3.63-7.56,11.17-4.79,19.66-15.73,34.23-12.76v57.57h14.88v12.68h-46.44v-12.57h15.42V21.8c-4.02,2.31-7.72,4.43-11.76,6.76-.98-1.79-1.72-3.16-2.69-4.84Z"/>
  <path class="st4" d="M1566.32,75c-6.99,1.37-13.23.27-19.37-2.21-11.67-4.71-15.09-19.35-12.98-28.55,3.24-14.11,11.48-20.55,25.83-21.19,10.37-.46,20.9,6.13,24.93,15.61,4.33,10.18,1.84,24.05-6.27,30.68-3.26,2.67-7.77,3.81-12.14,5.66M1550.54,55.18c2.39,6.56,4.68,8.18,11.14,7.82,5.36-.3,7.67-4.27,8.45-8.53.68-3.72.18-7.87-.71-11.61-.93-3.91-3.45-6.7-8.16-6.92-5.16-.24-8.99,1.91-10.3,6.55-1.04,3.7-.36,7.89-.43,12.7Z"/>
  <path class="st4" d="M1351.44,174c-3.46,0-6.44,0-9.65,0-.16-1.61-.29-2.96-.45-4.55-9.39,10.96-29.09,5.9-32.28-6.32-1.73-6.63,1.44-15.79,10.78-17.11,6.64-.94,13.3-1.66,20.04-2.49,1.25-5.54-2.54-9.38-8.32-8.02-5.48,1.3-10.92,2.72-16.75,4.18-1.33-3.07-2.8-6.46-4.34-10.02,9.81-5.99,20.43-7.39,31.37-5.4,9.21,1.67,14.19,8.41,14.6,19.26.37,9.94.08,19.91.08,30.19-1.73.11-3.17.19-5.09.28M1340.37,153.6c-4.15.23-8.4.03-12.41.91-1.43.31-3.25,3.27-3.15,4.91.1,1.6,2.17,3.94,3.82,4.43,7.07,2.12,11.79-1.8,11.74-10.25Z"/>
  <path class="st4" d="M1005.56,143.54c2.62-9.38,7.31-16.63,16.92-18.93,14.83-3.55,29.78.5,34.59,16.42,4.42,14.6-3.1,30.16-16.3,33.27-12.62,2.98-25.22,1-32.17-10.7-3.68-6.19-3.06-12.92-3.04-20.06M1021.53,151.26c0,.66-.09,1.35.03,1.99,1.38,7.17,4.04,9.75,9.97,9.75,6.02,0,8.91-2.6,9.95-9.59.43-2.93.25-6,0-8.98-.38-4.66-3.25-7.56-7.65-8.32-4.61-.8-9.15-.05-10.9,5.17-.96,2.87-.97,6.05-1.41,9.99Z"/>
  <path class="st4" d="M1643.53,60.99v12.71h-16c0-9.87-.08-19.64.04-29.41.05-4.27-1.05-7.5-5.76-8.26-4.2-.67-9.56,2.6-10.18,6.72-.73,4.85-.91,9.8-1.06,14.72-.17,5.3-.04,10.61-.04,16.22h-16v-35.87q0-15.36,15.85-13.4c.08,1.61.17,3.25.21,3.96,4.4-1.51,8.91-3.41,13.6-4.61,9.54-2.45,19.26,5.34,19.33,15.24.05,7.16,0,14.32,0,21.98Z"/>
  <path class="st4" d="M1448.53,174h-8c0-9.4,0-18.49,0-27.59,0-7.88-1.46-10.2-6.59-10.41-5.36-.22-10.27,4.72-10.37,10.84-.15,8.81-.04,17.63-.04,26.8h-15.69v-49.36h15.52c.09,1.66.18,3.28.23,4.14,4.38-1.51,8.84-3.41,13.49-4.59,9.48-2.4,19.02,4.63,19.36,14.59.39,11.62.09,23.27.09,35.58h-8Z"/>
  <path class="st4" d="M1127.83,144.04c3.1-.03,5.74-.03,8.36-.03.18-6.55-3.66-9.96-9.47-8.6-5.49,1.29-10.92,2.81-16.6,4.29.02.02-.38-.13-.46-.38-3.66-11.52-3.1-12.84,10.8-15.05,5.89-.94,12.34-.45,18.18.91,8.69,2.02,12.86,8.42,12.88,17.26.03,10.3,0,20.6,0,31.23h-14.7c-.17-.93-.36-2-.57-3.22-.47.23-1.04.33-1.27.66-4.21,5.92-15.22,5.44-22.1,1.97-6.27-3.16-9.29-9.02-8.29-16.88.59-4.64,3.09-8.17,8.01-9.23,4.9-1.05,9.84-1.94,15.22-2.93M1135.52,159.09c.4-1.91.8-3.82,1.39-6.63-4.96.6-8.93.64-12.6,1.7-1.86.54-4.69,3.3-4.42,4.41.49,2.07,2.62,4.31,4.65,5.33,4.7,2.37,7.76-.97,10.98-4.82Z"/>
  <path class="st4" d="M1504.75,127.71c8.38,6.47,9.99,15.15,9.75,25.2h-33.81c1.71,11.27,11.54,13.23,28.64,5.98,1.42,3.36,2.84,6.73,4.24,10.04-10.6,9.65-34.79,8.62-43.2-2.57-6.46-8.6-7.35-18.1-3.53-27.66,3.33-8.34,9.74-13.53,19.18-14.81,6.72-.91,12.83-.33,18.74,3.82M1499.12,139.09c-1.77-4.09-5.62-5.22-9.18-4.63-4.7.78-8.86,3.22-9.39,9.28h20.21c-.51-1.56-.89-2.74-1.65-4.65Z"/>
  <path class="st4" d="M1071.29,31.4c4.47,6.66,5.73,13.67,5.05,21.57h-33.54c1.1,10.91,10.93,12.93,28.69,5.97,1.44,3.34,2.89,6.7,4.29,9.94-11.16,9.74-34.83,8.42-43.14-2.15-5.11-6.49-5.87-13.59-5.18-21.4.83-9.46,5.82-15.95,14.04-19.66,9.78-4.41,22.34-2.71,29.79,5.73M1059.67,44c3.57.28,3.28-1.68,2.34-4.03-1.59-3.96-4.82-5.85-8.78-5.88-5.5-.04-8.99,3.46-10.42,9.9,5.36,0,10.64,0,16.86,0Z"/>
  <path class="st4" d="M1274.4,161.39c6.96,2.88,13.73,2.43,19.71-.9,3.49-1.95,4.42-1.37,5.5,1.8.73,2.12,1.71,4.16,3.03,7.29-4.08,1.68-8.06,3.93-12.33,4.94-8.2,1.94-16.65,1.86-24.05-2.51-11.61-6.86-14.33-15.41-12.36-27.1,2.02-11.98,8.21-19.08,21.99-21.08,12.68-1.84,23.9,5.92,25.9,16,.82,4.11.68,8.41,1.01,13.08h-33c-.59,4.14.79,6.74,4.59,8.47M1277.03,134.9c-4.6,1.01-6.58,4.22-7.65,8.83h19.96c-1.12-7.01-4.8-9.87-12.31-8.83Z"/>
  <path class="st4" d="M962.77,124.07c3.09-.05,5.71-.05,8.65-.05v-13.67h16.01v13.46h13.72v13.01h-13.6c0,7.1-.27,13.72.11,20.3.19,3.31,2.7,5.1,6.23,4.88,2.39-.15,4.78-.34,7.36-.52.41,2.54.45,5.42,1.41,7.95,1.23,3.23.35,4.32-2.84,4.92-8.67,1.63-17.39,2.76-23.89-4.75-2.36-2.72-3.86-6.87-4.19-10.5-.65-7.09-.19-14.27-.19-21.92h-10.29c.38-4.71.72-8.88,1.53-13.1Z"/>
  <path class="st4" d="M1085.53,141.16c0,3.81.19,7.15-.03,10.46-.68,10.2,3.58,12.02,13.62,9.4.79,3.08,1.81,6.14,2.25,9.27.16,1.11-.76,3.04-1.74,3.55-14.06,7.39-30.1-2.5-30.1-18.44,0-5.96,0-11.91,0-18.35h-8.77v-12.79h8.61v-13.96h15.97v13.42h13.83v13.29c-3.34,0-6.78.19-10.2-.06-3.01-.22-3.83,1.08-3.45,4.22Z"/>
  <path class="st4" d="M1581.58,175.99c-5.93-1.32-11.43-2.57-16.89-3.99-4.24-1.1-5.13-3.41-2.61-7.22,1.03-1.56,1.26-3.65,1.86-5.55,6.46,3.54,13.35,5.56,20.7,4.61,1.76-.23,4.07-2.05,4.71-3.69,1.16-2.94-1.35-3.77-3.84-4.18-3.52-.58-7-1.41-10.53-1.96-7.84-1.21-12.91-5.81-13.45-12.36-.62-7.49,3.62-14.33,11.02-16.55,8.93-2.67,17.8-2.25,26.5,1.64,3.21,1.44,4.42,2.82,2.59,6.18-1.13,2.09-1.7,4.49-2.52,6.75-13.06-6.5-18.54-6.71-23.48-.94.6,5.07,4.95,4.35,8.17,5.21,3.12.83,6.4,1.08,9.47,2.02,8.03,2.45,11.13,5.97,11.24,12.24.12,6.83-4.42,13.63-11.04,15.67-3.69,1.14-7.64,1.44-11.92,2.11Z"/>
  <path class="st4" d="M996.52,48.92c.71,1.83,1.36,3.28,2.36,5.54,3.74-8.96,7.54-17.08,10.44-25.5,1.34-3.9,3.03-5.33,6.95-5.01,3.29.27,6.61.06,10.79.06-2.41,5.91-4.46,11.29-6.79,16.55-4.47,10.09-9.2,20.07-13.6,30.2-1.08,2.48-2.46,2.99-5.04,3.39-8.06,1.26-11.76-2.11-14.5-9.63-4.66-12.77-10.68-25.04-16.1-37.53-.31-.71-.35-1.54-.66-2.98,4.93,0,9.53-.29,14.06.17,1.44.15,3.27,2.04,3.91,3.56,2.9,6.85,5.43,13.86,8.17,21.19Z"/>
  <path class="st4" d="M1491.53,40c.07,5.49-.28,10.53.33,15.45.54,4.33,2.67,7.83,8.2,6.58.93-.21,1.94-.03,3.21-.03.1,1.75.24,3.19.25,4.64.05,8.75-2.6,10.77-11.34,8.66-13.05-3.15-16.41-7.04-16.6-20.56-.23-15.99-.05-31.99-.05-47.98,0-.99,0-1.99,0-3.37h16v36.61Z"/>
  <path class="st4" d="M1179.05,175.24c-11.02-.39-16.51-6.05-16.52-16.81,0-18.29,0-36.58,0-55.15h16c0,12.62,0,25.07,0,37.51,0,4.5,0,9,0,13.49.02,6.55,1.1,7.63,7.77,7.71.83.01,1.66,0,2.45,0,2.79,10.88.44,14.22-9.7,13.23Z"/>
  <path class="st4" d="M1246.57,175c-13.61,1.69-23.28-2.47-23.08-18.75.2-15.98.04-31.96.04-47.93v-5.08h16v4.7c0,14.48,0,28.96,0,43.44q0,10.27,10.99,10.83c0,3.21.31,6.52-.16,9.72-.17,1.17-2.19,2.07-3.8,3.09Z"/>
  <path class="st4" d="M1442.53,38V3.32h16v47.28c0,10.49.39,10.92,10.7,11.65v12.79c-3.63,0-7.32.48-10.84-.09-11.41-1.84-15.83-7.35-15.85-18.99,0-5.82,0-11.65,0-17.97Z"/>
  <path class="st4" d="M1401.87,127.69c.42,3.15.61,5.92.8,8.85-3.77.52-7.13,1.08-10.5,1.44-5.94.63-9.52,4.66-9.6,11.33-.1,7.98-.02,15.96-.02,24.32h-15.67v-49.62c4.24,0,8.58-.43,12.75.22,1.52.24,2.65,3.03,3.36,3.91,5.49-1.93,11.45-4.03,18.12-6.38.26,2.72.4,4.13.78,5.92Z"/>
  <path class="st4" d="M1084.53,27.2c.97-1.39,1.88-2.99,2.92-3.08,3.79-.32,7.62-.12,11.84-.12.14,2.27.26,4.31.44,7.22,5.35-6.41,11.88-8.43,19.42-8.08.42,4.62.82,8.97,1.23,13.37-3.68.51-7.23.96-10.76,1.49-6.26.94-9.02,4.11-9.07,10.61-.06,8.29-.02,16.57-.02,25.12h-16c0-15.26,0-30.66,0-46.54Z"/>
  <path class="st4" d="M1522.53,136.02v-11.7h14.85c.09,2.05.18,4.08.29,6.42,4.83-5.84,13.14-8.16,19.86-7.37,0,2.21-.11,4.5.03,6.77.13,2.09.53,4.17.8,6.13-4.44.88-8.87,1.73-13.29,2.63-4.61.94-6.5,4.06-6.53,8.49-.05,8.64-.01,17.27-.01,26.27h-16v-37.63Z"/>
  <path class="st4" d="M1521.24,24c1.74,1.09,4.1,2.16,4.12,3.27.24,15.4.16,30.81.16,46.47h-15.76V24c3.8,0,7.41,0,11.48,0Z"/>
  <path class="st4" d="M1431.53,52v21.7h-15.99c0-15.57-.07-31.02.14-46.46.02-1.09,2.02-2.97,3.23-3.09,3.94-.4,7.95-.15,12.62-.15v27.99Z"/>
  <path class="st7" d="M1684.54,1274.52c-8.35.48-16.7.49-25.53.05-1.52-8.12-2.56-15.8-3.6-23.49,5.13-.66,10.25-1.52,15.4-1.93,4.26-.34,8.56-.15,13.31-.17.45,8.37.43,16.72.42,25.53Z"/>
  <path class="st8" d="M1557.49,536.48c.49,4.44,1.18,9.17,1.01,13.87-.38,10.82.8,20.96,7.49,30.15,3.73,5.13,5,11.46,3.74,18.29-12.84-6.73-20.16-17.19-21.21-31.78-.8-11.17,1.23-21.51,8.96-30.53Z"/>
  <path class="st4" d="M1212.54,71.76c0-4.64,0-8.8,0-13.37h16.65v15.54c-5.06,0-10.17.04-15.27-.07-.47-.01-.91-1.06-1.37-2.1Z"/>
  <path class="st1" d="M1590.54,1274.99h7.01c0,10.03,0,19.5.01,29.44-.93.72-1.88,1.21-2.82,1.21-25.53-.01-51.06-.07-76.9-.41-.22-17.02,13.03-30.21,29.78-30.23,5.33,0,10.66,0,16.93,0,9.29,0,17.64,0,25.99-.02Z"/>
  <path class="st9" d="M1305.51,1354.66c.33-1.17.46-2.16,1.01-2.61,1.8-1.45,4.04-4.01,5.59-3.69,1.98.42,4.77,3.14,4.91,5.03.43,5.84.12,11.81-.7,17.62-.26,1.82-3.35,4.78-4.64,4.54-1.99-.37-4.69-2.84-5.06-4.8-.96-5.11-.82-10.43-1.11-16.09Z"/>
  <path class="st7" d="M1590.54,1274.52c-8.35.47-16.7.48-25.52.48-1.04-4.08-1.61-8.15-2.34-12.59,8.9-.74,17.95-1.11,27.47-1.43.44,4.39.42,8.74.39,13.55Z"/>
  <path class="st9" d="M883.68,25.52c5.71-7.19,12.41-10.54,21.35-7.54,4.6,1.54,8,4.57,9.73,8.88,3.83,9.5,3.81,19.09-1.32,28.19-4.33,7.67-11.86,7.47-19.21,6.87-5.65-.46-11.06-6.97-12.74-14.06-1.8-7.61-.75-14.85,2.18-22.34Z"/>
  <path class="st9" d="M1517.49,55.76c.08-4.39-.6-8.57.44-12.28,1.3-4.64,5.14-6.8,10.3-6.55,4.71.22,7.23,3.01,8.16,6.92.89,3.74,1.39,7.89.71,11.61-.78,4.27-3.09,8.24-8.45,8.53-6.47.36-8.75-1.26-11.15-8.24Z"/>
  <path class="st9" d="M1307.41,155.03c-.03,8.01-4.74,11.93-11.81,9.81-1.66-.5-3.72-2.83-3.82-4.43-.1-1.64,1.72-4.6,3.15-4.91,4.01-.87,8.26-.68,12.48-.47Z"/>
  <path class="st9" d="M988.5,151.81c.44-3.49.45-6.67,1.41-9.54,1.74-5.21,6.29-5.96,10.9-5.17,4.4.76,7.27,3.66,7.65,8.32.24,2.98.43,6.05,0,8.98-1.04,7-3.93,9.59-9.95,9.59-5.93,0-8.59-2.58-9.97-9.75-.12-.64-.03-1.32-.03-2.44Z"/>
  <path class="st9" d="M1102.33,160.45c-3.06,3.48-6.12,6.83-10.82,4.46-2.03-1.02-4.15-3.26-4.65-5.33-.27-1.12,2.56-3.87,4.42-4.41,3.67-1.07,7.63-1.1,12.6-1.7-.59,2.81-.99,4.72-1.55,6.99Z"/>
  <path class="st9" d="M1466.28,140.45c.57,1.54.96,2.73,1.46,4.29h-20.21c.52-6.06,4.69-8.5,9.39-9.28,3.55-.59,7.41.54,9.36,4.99Z"/>
  <path class="st9" d="M1026.17,45c-5.75,0-11.04,0-16.39,0,1.43-6.44,4.92-9.95,10.42-9.9,3.96.03,7.19,1.92,8.78,5.88.94,2.35,1.23,4.3-2.8,4.03Z"/>
  <path class="st9" d="M1244.3,135.65c7.21-.79,10.89,2.08,12,9.08h-19.96c1.07-4.61,3.06-7.82,7.96-9.08Z"/>
</svg>