<svg width="945" height="733" viewBox="0 0 945 733" fill="none" xmlns="http://www.w3.org/2000/svg">
<path d="M207.667 62.55C205.067 62.55 202.683 62.1167 200.517 61.25C198.383 60.3833 196.55 59.15 195.017 57.55C193.483 55.95 192.3 54.0333 191.467 51.8C190.667 49.5667 190.267 47.0833 190.267 44.35C190.267 41.5833 190.667 39.1 191.467 36.9C192.3 34.6667 193.483 32.7667 195.017 31.2C196.55 29.6 198.383 28.3667 200.517 27.5C202.683 26.6333 205.067 26.2 207.667 26.2C210.3 26.2 212.683 26.6333 214.817 27.5C216.95 28.3667 218.783 29.5833 220.317 31.15C221.85 32.7167 223.033 34.6167 223.867 36.85C224.7 39.0833 225.117 41.5667 225.117 44.3C225.117 47.0667 224.7 49.5667 223.867 51.8C223.033 54.0333 221.85 55.95 220.317 57.55C218.783 59.15 216.95 60.3833 214.817 61.25C212.683 62.1167 210.3 62.55 207.667 62.55ZM207.667 55.95C209.667 55.95 211.35 55.5 212.717 54.6C214.083 53.6667 215.133 52.3333 215.867 50.6C216.633 48.8333 217.017 46.75 217.017 44.35C217.017 41.9167 216.65 39.8333 215.917 38.1C215.183 36.3667 214.117 35.05 212.717 34.15C211.317 33.25 209.633 32.8 207.667 32.8C205.733 32.8 204.067 33.25 202.667 34.15C201.267 35.05 200.2 36.3667 199.467 38.1C198.733 39.8333 198.367 41.9167 198.367 44.35C198.367 46.75 198.733 48.8333 199.467 50.6C200.2 52.3333 201.267 53.6667 202.667 54.6C204.067 55.5 205.733 55.95 207.667 55.95ZM237.712 62L227.012 37.45H234.962L241.862 55.05H240.262L247.462 37.45H254.912L244.062 62H237.712ZM269.335 62.55C266.435 62.55 263.935 62.0333 261.835 61C259.768 59.9333 258.168 58.45 257.035 56.55C255.935 54.6167 255.385 52.35 255.385 49.75C255.385 47.2167 255.918 45 256.985 43.1C258.051 41.1667 259.535 39.6667 261.435 38.6C263.368 37.5 265.551 36.95 267.985 36.95C270.385 36.95 272.451 37.4667 274.185 38.5C275.918 39.5 277.251 40.9333 278.185 42.8C279.151 44.6667 279.635 46.8833 279.635 49.45V51.35H261.585V47.45H274.185L273.385 48.15C273.385 46.1167 272.935 44.5833 272.035 43.55C271.168 42.4833 269.918 41.95 268.285 41.95C267.051 41.95 266.001 42.2333 265.135 42.8C264.268 43.3667 263.601 44.1833 263.135 45.25C262.668 46.3167 262.435 47.6 262.435 49.1V49.5C262.435 51.2 262.685 52.6 263.185 53.7C263.718 54.7667 264.501 55.5667 265.535 56.1C266.601 56.6333 267.918 56.9 269.485 56.9C270.818 56.9 272.168 56.7 273.535 56.3C274.901 55.9 276.135 55.2833 277.235 54.45L279.235 59.5C278.001 60.4333 276.485 61.1833 274.685 61.75C272.918 62.2833 271.135 62.55 269.335 62.55ZM284.026 62V37.45H291.426V43.45H290.926C291.326 41.45 292.193 39.9167 293.526 38.85C294.893 37.75 296.693 37.1167 298.926 36.95L301.126 36.8L301.576 43.15L297.326 43.6C295.426 43.7667 294.009 44.3167 293.076 45.25C292.176 46.1833 291.726 47.5333 291.726 49.3V62H284.026ZM320.647 62V55.65H328.547V33.25H332.197L322.497 38.95L319.547 33.3L330.797 26.75H336.297V55.65H343.697V62H320.647ZM348.078 62V54H356.178V62H348.078ZM363.616 62V55.65H371.516V33.25H375.166L365.466 38.95L362.516 33.3L373.766 26.75H379.266V55.65H386.666V62H363.616ZM405.513 62V37.45H412.913V42.05H412.363C412.796 41.0167 413.396 40.1167 414.163 39.35C414.929 38.5833 415.846 38 416.913 37.6C417.979 37.1667 419.146 36.95 420.413 36.95C422.313 36.95 423.896 37.4 425.163 38.3C426.429 39.2 427.329 40.5833 427.863 42.45H427.163C427.896 40.75 429.013 39.4167 430.513 38.45C432.046 37.45 433.796 36.95 435.763 36.95C437.663 36.95 439.213 37.3333 440.413 38.1C441.646 38.8333 442.563 39.9667 443.163 41.5C443.763 43 444.063 44.9167 444.063 47.25V62H436.513V47.5C436.513 45.8667 436.246 44.6833 435.713 43.95C435.213 43.1833 434.346 42.8 433.113 42.8C432.179 42.8 431.363 43.0333 430.663 43.5C429.963 43.9333 429.429 44.5833 429.063 45.45C428.729 46.2833 428.563 47.3167 428.563 48.55V62H421.013V47.5C421.013 45.8667 420.746 44.6833 420.213 43.95C419.713 43.1833 418.846 42.8 417.613 42.8C416.646 42.8 415.829 43.0333 415.163 43.5C414.496 43.9333 413.979 44.5833 413.613 45.45C413.246 46.2833 413.063 47.3167 413.063 48.55V62H405.513ZM449.546 32.7V25.65H457.696V32.7H449.546ZM449.846 62V37.45H457.396V62H449.846ZM472.375 62.55C469.209 62.55 466.892 61.7333 465.425 60.1C463.959 58.4333 463.225 55.9667 463.225 52.7V26.75H470.775V52.4C470.775 53.2333 470.909 53.9667 471.175 54.6C471.442 55.2 471.825 55.65 472.325 55.95C472.859 56.25 473.525 56.4 474.325 56.4C474.659 56.4 475.009 56.3833 475.375 56.35C475.742 56.3167 476.092 56.25 476.425 56.15L476.325 62C475.692 62.1667 475.042 62.3 474.375 62.4C473.742 62.5 473.075 62.55 472.375 62.55ZM489.026 62.55C485.859 62.55 483.542 61.7333 482.076 60.1C480.609 58.4333 479.876 55.9667 479.876 52.7V26.75H487.426V52.4C487.426 53.2333 487.559 53.9667 487.826 54.6C488.092 55.2 488.476 55.65 488.976 55.95C489.509 56.25 490.176 56.4 490.976 56.4C491.309 56.4 491.659 56.3833 492.026 56.35C492.392 56.3167 492.742 56.25 493.076 56.15L492.976 62C492.342 62.1667 491.692 62.3 491.026 62.4C490.392 62.5 489.726 62.55 489.026 62.55ZM496.226 32.7V25.65H504.376V32.7H496.226ZM496.526 62V37.45H504.076V62H496.526ZM521.705 62.55C519.072 62.55 516.772 62.0333 514.805 61C512.872 59.9667 511.372 58.4833 510.305 56.55C509.238 54.6167 508.705 52.3333 508.705 49.7C508.705 47.0667 509.238 44.8 510.305 42.9C511.372 41 512.872 39.5333 514.805 38.5C516.772 37.4667 519.072 36.95 521.705 36.95C524.338 36.95 526.622 37.4667 528.555 38.5C530.522 39.5333 532.038 41.0167 533.105 42.95C534.205 44.85 534.755 47.1 534.755 49.7C534.755 52.3333 534.205 54.6167 533.105 56.55C532.038 58.4833 530.522 59.9667 528.555 61C526.622 62.0333 524.338 62.55 521.705 62.55ZM521.705 56.9C523.338 56.9 524.655 56.3167 525.655 55.15C526.655 53.95 527.155 52.1333 527.155 49.7C527.155 47.2667 526.655 45.4833 525.655 44.35C524.655 43.1833 523.338 42.6 521.705 42.6C520.105 42.6 518.805 43.1833 517.805 44.35C516.805 45.4833 516.305 47.2667 516.305 49.7C516.305 52.1333 516.805 53.95 517.805 55.15C518.805 56.3167 520.105 56.9 521.705 56.9ZM539.348 62V37.45H546.748V42.05H546.198C546.965 40.4167 548.098 39.1667 549.598 38.3C551.132 37.4 552.865 36.95 554.798 36.95C556.765 36.95 558.382 37.3333 559.648 38.1C560.915 38.8333 561.865 39.9667 562.498 41.5C563.132 43 563.448 44.9167 563.448 47.25V62H555.898V47.6C555.898 46.4667 555.748 45.55 555.448 44.85C555.182 44.1167 554.765 43.6 554.198 43.3C553.665 42.9667 552.982 42.8 552.148 42.8C551.082 42.8 550.148 43.0333 549.348 43.5C548.582 43.9333 547.982 44.5667 547.548 45.4C547.115 46.2333 546.898 47.2 546.898 48.3V62H539.348ZM595.051 62.55C591.551 62.55 588.951 61.7 587.251 60C585.551 58.3 584.701 55.8 584.701 52.5V43.1H580.051V37.45H584.701V30.25H592.251V37.45H599.501V43.1H592.251V52.2C592.251 53.6 592.567 54.65 593.201 55.35C593.867 56.05 594.917 56.4 596.351 56.4C596.784 56.4 597.234 56.35 597.701 56.25C598.201 56.15 598.734 56.0167 599.301 55.85L600.401 61.35C599.701 61.7167 598.867 62 597.901 62.2C596.934 62.4333 595.984 62.55 595.051 62.55ZM614.771 62.55C612.138 62.55 609.838 62.0333 607.871 61C605.938 59.9667 604.438 58.4833 603.371 56.55C602.305 54.6167 601.771 52.3333 601.771 49.7C601.771 47.0667 602.305 44.8 603.371 42.9C604.438 41 605.938 39.5333 607.871 38.5C609.838 37.4667 612.138 36.95 614.771 36.95C617.405 36.95 619.688 37.4667 621.621 38.5C623.588 39.5333 625.105 41.0167 626.171 42.95C627.271 44.85 627.821 47.1 627.821 49.7C627.821 52.3333 627.271 54.6167 626.171 56.55C625.105 58.4833 623.588 59.9667 621.621 61C619.688 62.0333 617.405 62.55 614.771 62.55ZM614.771 56.9C616.405 56.9 617.721 56.3167 618.721 55.15C619.721 53.95 620.221 52.1333 620.221 49.7C620.221 47.2667 619.721 45.4833 618.721 44.35C617.721 43.1833 616.405 42.6 614.771 42.6C613.171 42.6 611.871 43.1833 610.871 44.35C609.871 45.4833 609.371 47.2667 609.371 49.7C609.371 52.1333 609.871 53.95 610.871 55.15C611.871 56.3167 613.171 56.9 614.771 56.9ZM644.221 62.55C640.721 62.55 638.121 61.7 636.421 60C634.721 58.3 633.871 55.8 633.871 52.5V43.1H629.221V37.45H633.871V30.25H641.421V37.45H648.671V43.1H641.421V52.2C641.421 53.6 641.737 54.65 642.371 55.35C643.037 56.05 644.087 56.4 645.521 56.4C645.954 56.4 646.404 56.35 646.871 56.25C647.371 56.15 647.904 56.0167 648.471 55.85L649.571 61.35C648.871 61.7167 648.037 62 647.071 62.2C646.104 62.4333 645.154 62.55 644.221 62.55ZM660.685 62.55C658.885 62.55 657.269 62.2 655.835 61.5C654.402 60.8 653.285 59.85 652.485 58.65C651.685 57.45 651.285 56.1 651.285 54.6C651.285 52.8 651.752 51.3833 652.685 50.35C653.619 49.2833 655.135 48.5333 657.235 48.1C659.335 47.6333 662.119 47.4 665.585 47.4H668.235V51.3H665.635C664.335 51.3 663.235 51.35 662.335 51.45C661.469 51.55 660.752 51.7333 660.185 52C659.619 52.2333 659.202 52.5333 658.935 52.9C658.702 53.2667 658.585 53.7333 658.585 54.3C658.585 55.2333 658.902 56 659.535 56.6C660.202 57.2 661.152 57.5 662.385 57.5C663.352 57.5 664.202 57.2833 664.935 56.85C665.702 56.3833 666.302 55.7667 666.735 55C667.169 54.2 667.385 53.3 667.385 52.3V46.55C667.385 45.0833 667.052 44.05 666.385 43.45C665.719 42.8167 664.585 42.5 662.985 42.5C661.652 42.5 660.235 42.7167 658.735 43.15C657.269 43.55 655.802 44.1667 654.335 45L652.285 39.95C653.152 39.35 654.202 38.8333 655.435 38.4C656.702 37.9333 658.019 37.5833 659.385 37.35C660.752 37.0833 662.052 36.95 663.285 36.95C665.852 36.95 667.952 37.3333 669.585 38.1C671.252 38.8333 672.502 39.9833 673.335 41.55C674.169 43.0833 674.585 45.0667 674.585 47.5V62H667.535V57.05H667.885C667.685 58.1833 667.252 59.1667 666.585 60C665.952 60.8 665.135 61.4333 664.135 61.9C663.135 62.3333 661.985 62.55 660.685 62.55ZM689.367 62.55C686.201 62.55 683.884 61.7333 682.417 60.1C680.951 58.4333 680.217 55.9667 680.217 52.7V26.75H687.767V52.4C687.767 53.2333 687.901 53.9667 688.167 54.6C688.434 55.2 688.817 55.65 689.317 55.95C689.851 56.25 690.517 56.4 691.317 56.4C691.651 56.4 692.001 56.3833 692.367 56.35C692.734 56.3167 693.084 56.25 693.417 56.15L693.317 62C692.684 62.1667 692.034 62.3 691.367 62.4C690.734 62.5 690.067 62.55 689.367 62.55ZM719.934 62.55C716.767 62.55 714.45 61.7333 712.984 60.1C711.517 58.4333 710.784 55.9667 710.784 52.7V26.75H718.334V52.4C718.334 53.2333 718.467 53.9667 718.734 54.6C719 55.2 719.384 55.65 719.884 55.95C720.417 56.25 721.084 56.4 721.884 56.4C722.217 56.4 722.567 56.3833 722.934 56.35C723.3 56.3167 723.65 56.25 723.984 56.15L723.884 62C723.25 62.1667 722.6 62.3 721.934 62.4C721.3 62.5 720.634 62.55 719.934 62.55ZM739.94 62.55C737.04 62.55 734.54 62.0333 732.44 61C730.373 59.9333 728.773 58.45 727.64 56.55C726.54 54.6167 725.99 52.35 725.99 49.75C725.99 47.2167 726.523 45 727.59 43.1C728.657 41.1667 730.14 39.6667 732.04 38.6C733.973 37.5 736.157 36.95 738.59 36.95C740.99 36.95 743.057 37.4667 744.79 38.5C746.523 39.5 747.857 40.9333 748.79 42.8C749.757 44.6667 750.24 46.8833 750.24 49.45V51.35H732.19V47.45H744.79L743.99 48.15C743.99 46.1167 743.54 44.5833 742.64 43.55C741.773 42.4833 740.523 41.95 738.89 41.95C737.657 41.95 736.607 42.2333 735.74 42.8C734.873 43.3667 734.207 44.1833 733.74 45.25C733.273 46.3167 733.04 47.6 733.04 49.1V49.5C733.04 51.2 733.29 52.6 733.79 53.7C734.323 54.7667 735.107 55.5667 736.14 56.1C737.207 56.6333 738.523 56.9 740.09 56.9C741.423 56.9 742.773 56.7 744.14 56.3C745.507 55.9 746.74 55.2833 747.84 54.45L749.84 59.5C748.607 60.4333 747.09 61.1833 745.29 61.75C743.523 62.2833 741.74 62.55 739.94 62.55ZM762.931 62.55C761.131 62.55 759.515 62.2 758.081 61.5C756.648 60.8 755.531 59.85 754.731 58.65C753.931 57.45 753.531 56.1 753.531 54.6C753.531 52.8 753.998 51.3833 754.931 50.35C755.865 49.2833 757.381 48.5333 759.481 48.1C761.581 47.6333 764.365 47.4 767.831 47.4H770.481V51.3H767.881C766.581 51.3 765.481 51.35 764.581 51.45C763.715 51.55 762.998 51.7333 762.431 52C761.865 52.2333 761.448 52.5333 761.181 52.9C760.948 53.2667 760.831 53.7333 760.831 54.3C760.831 55.2333 761.148 56 761.781 56.6C762.448 57.2 763.398 57.5 764.631 57.5C765.598 57.5 766.448 57.2833 767.181 56.85C767.948 56.3833 768.548 55.7667 768.981 55C769.415 54.2 769.631 53.3 769.631 52.3V46.55C769.631 45.0833 769.298 44.05 768.631 43.45C767.965 42.8167 766.831 42.5 765.231 42.5C763.898 42.5 762.481 42.7167 760.981 43.15C759.515 43.55 758.048 44.1667 756.581 45L754.531 39.95C755.398 39.35 756.448 38.8333 757.681 38.4C758.948 37.9333 760.265 37.5833 761.631 37.35C762.998 37.0833 764.298 36.95 765.531 36.95C768.098 36.95 770.198 37.3333 771.831 38.1C773.498 38.8333 774.748 39.9833 775.581 41.55C776.415 43.0833 776.831 45.0667 776.831 47.5V62H769.781V57.05H770.131C769.931 58.1833 769.498 59.1667 768.831 60C768.198 60.8 767.381 61.4333 766.381 61.9C765.381 62.3333 764.231 62.55 762.931 62.55ZM782.463 62V37.45H789.863V43.45H789.363C789.763 41.45 790.63 39.9167 791.963 38.85C793.33 37.75 795.13 37.1167 797.363 36.95L799.563 36.8L800.013 43.15L795.763 43.6C793.863 43.7667 792.447 44.3167 791.513 45.25C790.613 46.1833 790.163 47.5333 790.163 49.3V62H782.463ZM803.069 62V37.45H810.469V42.05H809.919C810.686 40.4167 811.819 39.1667 813.319 38.3C814.852 37.4 816.586 36.95 818.519 36.95C820.486 36.95 822.102 37.3333 823.369 38.1C824.636 38.8333 825.586 39.9667 826.219 41.5C826.852 43 827.169 44.9167 827.169 47.25V62H819.619V47.6C819.619 46.4667 819.469 45.55 819.169 44.85C818.902 44.1167 818.486 43.6 817.919 43.3C817.386 42.9667 816.702 42.8 815.869 42.8C814.802 42.8 813.869 43.0333 813.069 43.5C812.302 43.9333 811.702 44.5667 811.269 45.4C810.836 46.2333 810.619 47.2 810.619 48.3V62H803.069ZM845.555 62.55C842.655 62.55 840.155 62.0333 838.055 61C835.989 59.9333 834.389 58.45 833.255 56.55C832.155 54.6167 831.605 52.35 831.605 49.75C831.605 47.2167 832.139 45 833.205 43.1C834.272 41.1667 835.755 39.6667 837.655 38.6C839.589 37.5 841.772 36.95 844.205 36.95C846.605 36.95 848.672 37.4667 850.405 38.5C852.139 39.5 853.472 40.9333 854.405 42.8C855.372 44.6667 855.855 46.8833 855.855 49.45V51.35H837.805V47.45H850.405L849.605 48.15C849.605 46.1167 849.155 44.5833 848.255 43.55C847.389 42.4833 846.139 41.95 844.505 41.95C843.272 41.95 842.222 42.2333 841.355 42.8C840.489 43.3667 839.822 44.1833 839.355 45.25C838.889 46.3167 838.655 47.6 838.655 49.1V49.5C838.655 51.2 838.905 52.6 839.405 53.7C839.939 54.7667 840.722 55.5667 841.755 56.1C842.822 56.6333 844.139 56.9 845.705 56.9C847.039 56.9 848.389 56.7 849.755 56.3C851.122 55.9 852.355 55.2833 853.455 54.45L855.455 59.5C854.222 60.4333 852.705 61.1833 850.905 61.75C849.139 62.2833 847.355 62.55 845.555 62.55ZM860.247 62V37.45H867.647V43.45H867.147C867.547 41.45 868.413 39.9167 869.747 38.85C871.113 37.75 872.913 37.1167 875.147 36.95L877.347 36.8L877.797 43.15L873.547 43.6C871.647 43.7667 870.23 44.3167 869.297 45.25C868.397 46.1833 867.947 47.5333 867.947 49.3V62H860.247ZM890.008 62.55C888.575 62.55 887.191 62.4333 885.858 62.2C884.525 61.9667 883.308 61.65 882.208 61.25C881.108 60.85 880.141 60.35 879.308 59.75L881.108 54.85C881.941 55.35 882.841 55.8 883.808 56.2C884.808 56.5667 885.841 56.85 886.908 57.05C887.975 57.25 889.025 57.35 890.058 57.35C891.491 57.35 892.525 57.1333 893.158 56.7C893.825 56.2333 894.158 55.6333 894.158 54.9C894.158 54.2333 893.941 53.7333 893.508 53.4C893.075 53.0667 892.441 52.8333 891.608 52.7L886.358 51.75C884.291 51.3833 882.691 50.6333 881.558 49.5C880.458 48.3333 879.908 46.85 879.908 45.05C879.908 43.3833 880.375 41.95 881.308 40.75C882.241 39.5167 883.525 38.5833 885.158 37.95C886.825 37.2833 888.708 36.95 890.808 36.95C892.008 36.95 893.175 37.05 894.308 37.25C895.441 37.45 896.508 37.75 897.508 38.15C898.541 38.55 899.458 39.0833 900.258 39.75L898.358 44.6C897.725 44.1 896.975 43.6667 896.108 43.3C895.241 42.9333 894.358 42.65 893.458 42.45C892.558 42.2167 891.708 42.1 890.908 42.1C889.408 42.1 888.325 42.35 887.658 42.85C886.991 43.3167 886.658 43.9167 886.658 44.65C886.658 45.2167 886.841 45.7 887.208 46.1C887.608 46.4667 888.208 46.7167 889.008 46.85L894.258 47.8C896.425 48.1667 898.075 48.9 899.208 50C900.341 51.0667 900.908 52.5333 900.908 54.4C900.908 56.1 900.458 57.5667 899.558 58.8C898.658 60 897.391 60.9333 895.758 61.6C894.125 62.2333 892.208 62.55 890.008 62.55Z" fill="#0093EC"/>
<path d="M382.196 112.55C380.762 112.55 379.379 112.433 378.046 112.2C376.712 111.967 375.496 111.65 374.396 111.25C373.296 110.85 372.329 110.35 371.496 109.75L373.296 104.85C374.129 105.35 375.029 105.8 375.996 106.2C376.996 106.567 378.029 106.85 379.096 107.05C380.162 107.25 381.212 107.35 382.246 107.35C383.679 107.35 384.712 107.133 385.346 106.7C386.012 106.233 386.346 105.633 386.346 104.9C386.346 104.233 386.129 103.733 385.696 103.4C385.262 103.067 384.629 102.833 383.796 102.7L378.546 101.75C376.479 101.383 374.879 100.633 373.746 99.5C372.646 98.3333 372.096 96.85 372.096 95.05C372.096 93.3833 372.562 91.95 373.496 90.75C374.429 89.5167 375.712 88.5833 377.346 87.95C379.012 87.2833 380.896 86.95 382.996 86.95C384.196 86.95 385.362 87.05 386.496 87.25C387.629 87.45 388.696 87.75 389.696 88.15C390.729 88.55 391.646 89.0833 392.446 89.75L390.546 94.6C389.912 94.1 389.162 93.6667 388.296 93.3C387.429 92.9333 386.546 92.65 385.646 92.45C384.746 92.2167 383.896 92.1 383.096 92.1C381.596 92.1 380.512 92.35 379.846 92.85C379.179 93.3167 378.846 93.9167 378.846 94.65C378.846 95.2167 379.029 95.7 379.396 96.1C379.796 96.4667 380.396 96.7167 381.196 96.85L386.446 97.8C388.612 98.1667 390.262 98.9 391.396 100C392.529 101.067 393.096 102.533 393.096 104.4C393.096 106.1 392.646 107.567 391.746 108.8C390.846 110 389.579 110.933 387.946 111.6C386.312 112.233 384.396 112.55 382.196 112.55ZM397.105 82.7V75.65H405.255V82.7H397.105ZM397.405 112V87.45H404.955V112H397.405ZM410.784 112V87.45H418.184V92.05H417.634C418.4 90.4167 419.534 89.1667 421.034 88.3C422.567 87.4 424.3 86.95 426.234 86.95C428.2 86.95 429.817 87.3333 431.084 88.1C432.35 88.8333 433.3 89.9667 433.934 91.5C434.567 93 434.884 94.9167 434.884 97.25V112H427.334V97.6C427.334 96.4667 427.184 95.55 426.884 94.85C426.617 94.1167 426.2 93.6 425.634 93.3C425.1 92.9667 424.417 92.8 423.584 92.8C422.517 92.8 421.584 93.0333 420.784 93.5C420.017 93.9333 419.417 94.5667 418.984 95.4C418.55 96.2333 418.334 97.2 418.334 98.3V112H410.784ZM452.47 112.55C449.803 112.55 447.47 112.033 445.47 111C443.503 109.933 441.987 108.433 440.92 106.5C439.853 104.567 439.32 102.283 439.32 99.65C439.32 97.0167 439.853 94.75 440.92 92.85C441.987 90.95 443.503 89.5 445.47 88.5C447.47 87.4667 449.803 86.95 452.47 86.95C454.07 86.95 455.653 87.1833 457.22 87.65C458.82 88.1167 460.12 88.7833 461.12 89.65L459.02 94.85C458.22 94.1833 457.287 93.6667 456.22 93.3C455.153 92.9 454.153 92.7 453.22 92.7C451.253 92.7 449.72 93.3167 448.62 94.55C447.553 95.75 447.02 97.4667 447.02 99.7C447.02 101.9 447.553 103.633 448.62 104.9C449.72 106.133 451.253 106.75 453.22 106.75C454.153 106.75 455.153 106.567 456.22 106.2C457.287 105.833 458.22 105.3 459.02 104.6L461.12 109.8C460.12 110.633 458.82 111.3 457.22 111.8C455.62 112.3 454.037 112.55 452.47 112.55ZM476.659 112.55C473.759 112.55 471.259 112.033 469.159 111C467.092 109.933 465.492 108.45 464.359 106.55C463.259 104.617 462.709 102.35 462.709 99.75C462.709 97.2167 463.242 95 464.309 93.1C465.375 91.1667 466.859 89.6667 468.759 88.6C470.692 87.5 472.875 86.95 475.309 86.95C477.709 86.95 479.775 87.4667 481.509 88.5C483.242 89.5 484.575 90.9333 485.509 92.8C486.475 94.6667 486.959 96.8833 486.959 99.45V101.35H468.909V97.45H481.509L480.709 98.15C480.709 96.1167 480.259 94.5833 479.359 93.55C478.492 92.4833 477.242 91.95 475.609 91.95C474.375 91.95 473.325 92.2333 472.459 92.8C471.592 93.3667 470.925 94.1833 470.459 95.25C469.992 96.3167 469.759 97.6 469.759 99.1V99.5C469.759 101.2 470.009 102.6 470.509 103.7C471.042 104.767 471.825 105.567 472.859 106.1C473.925 106.633 475.242 106.9 476.809 106.9C478.142 106.9 479.492 106.7 480.859 106.3C482.225 105.9 483.459 105.283 484.559 104.45L486.559 109.5C485.325 110.433 483.809 111.183 482.009 111.75C480.242 112.283 478.459 112.55 476.659 112.55ZM501.866 112L518.066 76.75H524.316L540.516 112H532.716L528.516 102.2L531.616 104.35H510.766L513.866 102.2L509.716 112H501.866ZM521.116 85L514.716 100.25L513.366 98.3H529.016L527.666 100.25L521.216 85H521.116ZM551.963 112.55C549.896 112.55 548.179 112.167 546.813 111.4C545.446 110.633 544.429 109.483 543.763 107.95C543.129 106.383 542.813 104.45 542.813 102.15V87.45H550.363V102.35C550.363 103.317 550.496 104.133 550.763 104.8C551.029 105.433 551.429 105.917 551.963 106.25C552.529 106.55 553.246 106.7 554.113 106.7C555.079 106.7 555.929 106.483 556.663 106.05C557.396 105.583 557.963 104.933 558.363 104.1C558.796 103.267 559.013 102.283 559.013 101.15V87.45H566.563V112H559.213V107.2H559.963C559.229 108.9 558.179 110.217 556.813 111.15C555.446 112.083 553.829 112.55 551.963 112.55ZM584.205 121.55C581.872 121.55 579.672 121.3 577.605 120.8C575.538 120.3 573.738 119.517 572.205 118.45L574.255 113.3C575.155 113.833 576.122 114.3 577.155 114.7C578.222 115.1 579.305 115.4 580.405 115.6C581.505 115.8 582.555 115.9 583.555 115.9C585.688 115.9 587.288 115.417 588.355 114.45C589.422 113.483 589.955 112 589.955 110V106.2H590.405C589.905 107.733 588.872 108.983 587.305 109.95C585.738 110.917 584.005 111.4 582.105 111.4C579.905 111.4 577.988 110.9 576.355 109.9C574.722 108.867 573.455 107.433 572.555 105.6C571.655 103.733 571.205 101.583 571.205 99.15C571.205 96.6833 571.655 94.55 572.555 92.75C573.455 90.9167 574.722 89.5 576.355 88.5C577.988 87.4667 579.905 86.95 582.105 86.95C584.072 86.95 585.805 87.4333 587.305 88.4C588.838 89.3333 589.855 90.5667 590.355 92.1H589.955V87.45H597.305V109.15C597.305 111.883 596.805 114.167 595.805 116C594.805 117.867 593.322 119.25 591.355 120.15C589.422 121.083 587.038 121.55 584.205 121.55ZM584.355 105.75C586.022 105.75 587.355 105.167 588.355 104C589.388 102.833 589.905 101.217 589.905 99.15C589.905 97.0833 589.388 95.4833 588.355 94.35C587.355 93.1833 586.022 92.6 584.355 92.6C582.655 92.6 581.305 93.1833 580.305 94.35C579.305 95.4833 578.805 97.0833 578.805 99.15C578.805 101.217 579.305 102.833 580.305 104C581.305 105.167 582.655 105.75 584.355 105.75ZM617.883 112V106.25L628.933 94.65C629.866 93.6167 630.616 92.6833 631.183 91.85C631.783 91.0167 632.216 90.2167 632.483 89.45C632.749 88.6833 632.883 87.9167 632.883 87.15C632.883 85.6833 632.399 84.5667 631.433 83.8C630.499 83.0333 629.133 82.65 627.333 82.65C625.899 82.65 624.466 82.9333 623.033 83.5C621.599 84.0333 620.199 84.8667 618.833 86L616.333 80.3C617.799 79.0333 619.599 78.0333 621.733 77.3C623.899 76.5667 626.116 76.2 628.383 76.2C631.016 76.2 633.233 76.6 635.033 77.4C636.833 78.1667 638.199 79.3 639.133 80.8C640.066 82.3 640.533 84.1333 640.533 86.3C640.533 87.3667 640.416 88.4167 640.183 89.45C639.949 90.45 639.566 91.45 639.033 92.45C638.533 93.4167 637.883 94.4333 637.083 95.5C636.316 96.5333 635.366 97.6167 634.233 98.75L625.483 107.65V105.65H641.833V112H617.883ZM659.163 112.55C656.33 112.55 653.93 111.833 651.963 110.4C650.03 108.967 648.546 106.9 647.513 104.2C646.513 101.5 646.013 98.1833 646.013 94.25C646.013 90.35 646.513 87.0667 647.513 84.4C648.513 81.7 649.996 79.6667 651.963 78.3C653.93 76.9 656.33 76.2 659.163 76.2C662.03 76.2 664.43 76.9 666.363 78.3C668.33 79.6667 669.813 81.6833 670.813 84.35C671.813 87.0167 672.313 90.3167 672.313 94.25C672.313 98.15 671.796 101.467 670.763 104.2C669.763 106.9 668.296 108.967 666.363 110.4C664.43 111.833 662.03 112.55 659.163 112.55ZM659.163 106.25C661.096 106.25 662.53 105.3 663.463 103.4C664.396 101.467 664.863 98.4167 664.863 94.25C664.863 90.0833 664.396 87.0833 663.463 85.25C662.563 83.4167 661.13 82.5 659.163 82.5C657.23 82.5 655.796 83.4167 654.863 85.25C653.93 87.0833 653.463 90.0833 653.463 94.25C653.463 98.4167 653.93 101.467 654.863 103.4C655.796 105.3 657.23 106.25 659.163 106.25ZM679.144 112V105.65H687.044V83.25H690.694L680.994 88.95L678.044 83.3L689.294 76.75H694.794V105.65H702.194V112H679.144ZM716.224 112.55C714.991 112.55 713.741 112.4 712.474 112.1C711.207 111.8 710.007 111.367 708.874 110.8C707.741 110.2 706.691 109.5 705.724 108.7L708.224 102.95C709.424 103.983 710.707 104.767 712.074 105.3C713.474 105.833 714.891 106.1 716.324 106.1C717.657 106.1 718.841 105.867 719.874 105.4C720.907 104.933 721.774 104.25 722.474 103.35C723.174 102.45 723.691 101.333 724.024 100C724.391 98.6667 724.574 97.1167 724.574 95.35V92.1H725.224C724.957 93.6667 724.407 95.0167 723.574 96.15C722.741 97.2833 721.691 98.15 720.424 98.75C719.191 99.35 717.791 99.65 716.224 99.65C714.257 99.65 712.491 99.1667 710.924 98.2C709.357 97.2 708.124 95.8333 707.224 94.1C706.324 92.3667 705.874 90.4167 705.874 88.25C705.874 85.9167 706.374 83.85 707.374 82.05C708.407 80.2167 709.807 78.7833 711.574 77.75C713.374 76.7167 715.441 76.2 717.774 76.2C720.807 76.2 723.357 76.9 725.424 78.3C727.524 79.7 729.124 81.7167 730.224 84.35C731.324 86.9833 731.874 90.1667 731.874 93.9C731.874 97.8333 731.241 101.2 729.974 104C728.741 106.767 726.957 108.883 724.624 110.35C722.324 111.817 719.524 112.55 716.224 112.55ZM718.224 93.6C719.257 93.6 720.157 93.3667 720.924 92.9C721.724 92.4333 722.341 91.7667 722.774 90.9C723.207 90.0333 723.424 89.0333 723.424 87.9C723.424 86.7667 723.207 85.7833 722.774 84.95C722.341 84.0833 721.724 83.4167 720.924 82.95C720.157 82.45 719.257 82.2 718.224 82.2C717.191 82.2 716.274 82.45 715.474 82.95C714.707 83.4167 714.107 84.0833 713.674 84.95C713.241 85.7833 713.024 86.7667 713.024 87.9C713.024 89.0333 713.241 90.0333 713.674 90.9C714.141 91.7667 714.757 92.4333 715.524 92.9C716.291 93.3667 717.191 93.6 718.224 93.6Z" fill="#3F3D56"/>
<path d="M561.243 724V720.55L567.873 713.59C568.713 712.67 569.313 711.87 569.673 711.19C570.053 710.49 570.243 709.79 570.243 709.09C570.243 707.29 569.133 706.39 566.913 706.39C566.053 706.39 565.193 706.56 564.333 706.9C563.473 707.22 562.633 707.72 561.813 708.4L560.313 704.98C561.193 704.22 562.273 703.62 563.553 703.18C564.853 702.74 566.183 702.52 567.543 702.52C569.903 702.52 571.703 703.05 572.943 704.11C574.203 705.15 574.833 706.64 574.833 708.58C574.833 709.86 574.533 711.09 573.933 712.27C573.353 713.43 572.393 714.69 571.053 716.05L566.973 720.19H575.613V724H561.243ZM586.012 724.33C583.452 724.33 581.492 723.38 580.132 721.48C578.792 719.58 578.122 716.87 578.122 713.35C578.122 709.83 578.792 707.15 580.132 705.31C581.492 703.45 583.452 702.52 586.012 702.52C588.572 702.52 590.522 703.45 591.862 705.31C593.222 707.15 593.902 709.83 593.902 713.35C593.902 716.87 593.222 719.58 591.862 721.48C590.522 723.38 588.572 724.33 586.012 724.33ZM586.012 720.55C587.172 720.55 588.032 719.98 588.592 718.84C589.152 717.68 589.432 715.85 589.432 713.35C589.432 710.85 589.152 709.05 588.592 707.95C588.032 706.85 587.172 706.3 586.012 706.3C584.852 706.3 583.992 706.85 583.432 707.95C582.872 709.05 582.592 710.85 582.592 713.35C582.592 715.85 582.872 717.68 583.432 718.84C583.992 719.98 584.852 720.55 586.012 720.55ZM597.22 724V720.55L603.85 713.59C604.69 712.67 605.29 711.87 605.65 711.19C606.03 710.49 606.22 709.79 606.22 709.09C606.22 707.29 605.11 706.39 602.89 706.39C602.03 706.39 601.17 706.56 600.31 706.9C599.45 707.22 598.61 707.72 597.79 708.4L596.29 704.98C597.17 704.22 598.25 703.62 599.53 703.18C600.83 702.74 602.16 702.52 603.52 702.52C605.88 702.52 607.68 703.05 608.92 704.11C610.18 705.15 610.81 706.64 610.81 708.58C610.81 709.86 610.51 711.09 609.91 712.27C609.33 713.43 608.37 714.69 607.03 716.05L602.95 720.19H611.59V724H597.22ZM622.978 724V720.22H614.068V716.89L623.758 702.85H627.538V716.56H630.418V720.22H627.538V724H622.978ZM622.978 716.56V709.66L618.298 716.56H622.978Z" fill="#0093EC"/>
<path d="M755.994 674.556L743.734 674.555L737.902 627.268H755.996L755.994 674.556Z" fill="#9E616A"/>
<path d="M759.121 686.44L719.59 686.438V685.938C719.59 681.858 721.211 677.944 724.097 675.059C726.982 672.174 730.896 670.552 734.976 670.552H734.977L759.121 670.553L759.121 686.44Z" fill="#2F2E41"/>
<path d="M708.994 674.556L696.734 674.555L690.902 627.268H708.996L708.994 674.556Z" fill="#9E616A"/>
<path d="M712.121 686.44L672.59 686.438V685.938C672.59 681.858 674.211 677.944 677.097 675.059C679.982 672.174 683.896 670.552 687.976 670.552H687.977L712.121 670.553L712.121 686.44Z" fill="#2F2E41"/>
<path d="M309 687.083V335.172C309 333.005 309.929 330.926 311.583 329.394C313.237 327.861 315.481 327 317.82 327H357.18C359.519 327 361.763 327.861 363.417 329.394C365.071 330.926 366 333.005 366 335.172V688L309 687.083Z" fill="#3F3D56"/>
<path d="M179 688V492.704C179 491.191 179.929 489.74 181.583 488.671C183.237 487.601 185.481 487 187.82 487H227.18C229.519 487 231.763 487.601 233.417 488.671C235.071 489.74 236 491.191 236 492.704V687.58L179 688Z" fill="#3F3D56"/>
<path d="M75.9992 528.619C75.4198 528.619 74.8529 528.451 74.3669 528.136C73.8809 527.82 73.4966 527.371 73.2605 526.842C73.0243 526.313 72.9465 525.727 73.0362 525.155C73.126 524.582 73.3796 524.048 73.7664 523.617L201.108 441.361L335.108 285.361L465.108 191.861L599.092 141.237C603.608 139.861 603.608 144.861 599.092 146.367L465.108 196.984L338.551 289.924L205.108 444.361L78.2337 527.622C77.9526 527.936 77.6082 528.187 77.2231 528.359C76.838 528.531 76.4209 528.62 75.9992 528.619Z" fill="#3F3D56"/>
<path d="M78 543C93.464 543 106 530.464 106 515C106 499.536 93.464 487 78 487C62.536 487 50 499.536 50 515C50 530.464 62.536 543 78 543Z" fill="#00B0FF"/>
<path d="M208 462C223.464 462 236 449.464 236 434C236 418.536 223.464 406 208 406C192.536 406 180 418.536 180 434C180 449.464 192.536 462 208 462Z" fill="#CCCCCC"/>
<path d="M338 305C353.464 305 366 292.464 366 277C366 261.536 353.464 249 338 249C322.536 249 310 261.536 310 277C310 292.464 322.536 305 338 305Z" fill="#E6E6E6"/>
<path d="M468 214C483.464 214 496 201.464 496 186C496 170.536 483.464 158 468 158C452.536 158 440 170.536 440 186C440 201.464 452.536 214 468 214Z" fill="#00B0FF"/>
<path d="M717.832 264.535C733.296 264.535 745.832 251.999 745.832 236.535C745.832 221.071 733.296 208.535 717.832 208.535C702.368 208.535 689.832 221.071 689.832 236.535C689.832 251.999 702.368 264.535 717.832 264.535Z" fill="#00B0FF"/>
<path d="M707.932 454.656C718.412 455.918 745.211 446.358 746.663 460.902C760.457 501.507 760.048 657.159 760.048 657.159L739.048 658.159C739.048 658.159 722.267 534.484 714.332 508.026C710.35 540.185 711.048 663.159 711.048 663.159L692.048 664.159C692.048 664.159 675.005 559.441 674.908 528.706C672.836 506.192 677.916 472.83 675.742 451.066C686.133 454.359 697.071 455.579 707.932 454.656L707.932 454.656Z" fill="#3F3D56"/>
<path d="M439 684.92V247.166C439 241.552 442.949 237 447.82 237H487.18C492.051 237 496 241.551 496 247.166V686.066L439 684.92Z" fill="#3F3D56"/>
<path d="M672.282 336.856C668.079 328.263 662.945 320.158 656.972 312.686C655.724 311.227 654.587 309.676 653.572 308.046C651.422 304.316 650.782 299.936 649.422 295.856C645.622 284.416 636.142 275.226 633.832 263.396C632.992 259.096 625.896 271.594 627.762 276.926C631.092 286.576 631.522 296.796 635.762 306.116C640.002 315.436 644.982 324.376 648.642 333.906C650.722 339.316 652.382 344.906 655.432 349.906C658.482 354.906 663.242 359.096 668.992 359.846C668.953 356.221 669.504 352.614 670.622 349.166C671.872 345.226 674.092 340.586 672.282 336.856Z" fill="#9E616A"/>
<path d="M735.192 343.336C734.935 336.265 736.038 329.211 738.442 322.556C739.362 320.006 740.442 317.416 740.352 314.706C740.222 312.186 739.022 309.876 737.932 307.596C734.172 299.746 731.532 291.426 728.932 283.126L723.932 267.476C722.302 266.281 731.822 265.866 733.852 268.676C740.492 277.896 745.522 288.486 750.782 298.556C752.124 300.956 753.267 303.461 754.202 306.046C755.487 310.236 756.094 314.604 756.002 318.986C756.002 327.176 754.922 335.336 753.802 343.456C753.092 348.546 752.162 354.086 748.312 357.456C744.312 352.336 740.292 347.336 735.192 343.336Z" fill="#9E616A"/>
<path d="M708.752 335.234C720.212 335.234 729.502 325.944 729.502 314.484C729.502 303.024 720.212 293.734 708.752 293.734C697.292 293.734 688.002 303.024 688.002 314.484C688.002 325.944 697.292 335.234 708.752 335.234Z" fill="#9E616A"/>
<path d="M691.884 293.782C691.651 293.152 691.599 292.47 691.733 291.812C691.867 291.154 692.183 290.547 692.644 290.059C693.162 289.65 693.85 289.498 694.405 289.108C695.195 288.444 695.841 287.627 696.305 286.705C697.722 284.722 699.797 283.304 702.16 282.704C704.523 282.104 707.022 282.361 709.214 283.428C712.643 285.223 714.713 288.817 717.763 291.237C719.311 292.491 721.107 293.421 722.665 294.675C725.785 297.37 728.003 300.958 729.019 304.953C730.031 308.922 730.621 312.986 730.781 317.078C730.943 318.306 730.895 319.552 730.639 320.764C730.323 321.78 729.853 322.741 729.243 323.614C726.108 328.363 721.977 332.676 716.799 335.127C711.622 337.577 705.325 337.976 700.219 335.412C699.705 335.204 699.263 334.851 698.946 334.395C698.656 333.702 698.587 332.936 698.747 332.201C699.024 329.298 698.45 326.377 697.094 323.795C696.144 321.895 694.719 320.261 693.96 318.295C693.253 316.095 692.95 313.784 693.066 311.476C692.976 305.494 693.382 299.539 691.884 293.782Z" fill="#2D293D"/>
<path d="M49 685.695V568.717C49 567.217 52.949 566 57.82 566H97.18C102.051 566 106 567.218 106 568.717V686L49 685.695Z" fill="#3F3D56"/>
<path d="M820.169 687.802H1C0.734784 687.802 0.480429 687.697 0.292892 687.509C0.105356 687.322 0 687.067 0 686.802C0 686.537 0.105356 686.282 0.292892 686.095C0.480429 685.907 0.734784 685.802 1 685.802H820.168C820.433 685.802 820.688 685.907 820.875 686.095C821.063 686.282 821.168 686.537 821.168 686.802C821.168 687.067 821.063 687.322 820.875 687.509C820.688 687.697 820.433 687.802 820.168 687.802H820.169Z" fill="#E6E6E6"/>
<path d="M566 687.671V177.839C566 171.301 569.949 166 574.82 166H614.18C619.051 166 623 171.301 623 177.839V689L566 687.671Z" fill="#00B0FF"/>
<path d="M627.183 274.365C632.153 274.365 636.183 270.336 636.183 265.365C636.183 260.395 632.153 256.365 627.183 256.365C622.212 256.365 618.183 260.395 618.183 265.365C618.183 270.336 622.212 274.365 627.183 274.365Z" fill="#A0616A"/>
<path d="M727.183 270.365C732.153 270.365 736.183 266.336 736.183 261.365C736.183 256.395 732.153 252.365 727.183 252.365C722.212 252.365 718.183 256.395 718.183 261.365C718.183 266.336 722.212 270.365 727.183 270.365Z" fill="#A0616A"/>
<path d="M749.052 372.776C749.93 371.972 757.09 330.102 757.048 329.159C756.937 324 741.198 318.109 738.048 320.159C735.076 322.093 729.901 344.283 726.571 348.324L723.048 342.159H695.048L693.351 345.31C689.677 343.097 686.372 341.056 685.193 340.381C684.788 340.107 684.347 339.89 683.882 339.736C680.972 339.085 678.24 337.802 675.882 335.976C673.582 334.206 662.908 315.669 660.048 316.159C656.818 316.699 645.923 326.119 646.048 335.159C647.419 335.129 665.262 370.806 665.512 372.136C666.882 377.756 671.406 459.716 672.866 463.536C679.592 462.886 674.282 461.726 680.792 463.536C687.802 465.486 695.202 463.376 702.432 462.596C705.442 462.298 708.467 462.164 711.492 462.196C722.492 462.246 738.192 462.856 748.842 465.586C748.902 458.606 742.772 443.506 740.502 436.916C740.205 434.946 740.215 432.943 740.532 430.976C740.822 428.566 746.678 375.441 749.052 372.776Z" fill="#E6E6E6"/>
</svg>
