<svg width="945" height="733" viewBox="0 0 945 733" fill="none" xmlns="http://www.w3.org/2000/svg">
<path d="M460.624 41.55C458.291 41.55 456.008 41.2 453.774 40.5C451.574 39.7667 449.791 38.8167 448.424 37.65L450.874 31.8C453.874 34 457.074 35.1 460.474 35.1C462.374 35.1 463.841 34.6333 464.874 33.7C465.941 32.7667 466.474 31.5167 466.474 29.95C466.474 28.35 465.958 27.0667 464.924 26.1C463.924 25.1333 462.558 24.65 460.824 24.65C458.324 24.65 456.191 25.6 454.424 27.5H449.424V5.75H471.724V12.1H456.874V20C458.508 18.9333 460.474 18.4 462.774 18.4C465.008 18.4 466.958 18.8833 468.624 19.85C470.291 20.7833 471.591 22.1 472.524 23.8C473.458 25.5 473.924 27.4667 473.924 29.7C473.924 32.0667 473.391 34.1333 472.324 35.9C471.258 37.6667 469.724 39.05 467.724 40.05C465.724 41.05 463.358 41.55 460.624 41.55ZM487.655 41.55C485.755 41.55 483.871 41.2167 482.005 40.55C480.171 39.8833 478.555 38.9333 477.155 37.7L479.655 31.95C480.855 32.9833 482.138 33.7667 483.505 34.3C484.905 34.8333 486.321 35.1 487.755 35.1C493.255 35.1 496.005 31.5167 496.005 24.35V23.4C495.305 25.0333 494.221 26.3167 492.755 27.25C491.288 28.1833 489.588 28.65 487.655 28.65C485.688 28.65 483.921 28.1667 482.355 27.2C480.788 26.2 479.555 24.85 478.655 23.15C477.755 21.4167 477.305 19.45 477.305 17.25C477.305 14.9167 477.805 12.85 478.805 11.05C479.838 9.21666 481.238 7.78333 483.005 6.75C484.805 5.71666 486.871 5.2 489.205 5.2C493.738 5.2 497.221 6.75 499.655 9.85C502.088 12.9167 503.305 17.2667 503.305 22.9C503.305 26.8333 502.671 30.1833 501.405 32.95C500.171 35.7167 498.388 37.85 496.055 39.35C493.721 40.8167 490.921 41.55 487.655 41.55ZM489.655 22.6C491.188 22.6 492.438 22.0833 493.405 21.05C494.371 19.9833 494.855 18.6167 494.855 16.95C494.855 15.25 494.371 13.8667 493.405 12.8C492.438 11.7333 491.188 11.2 489.655 11.2C488.121 11.2 486.871 11.7333 485.905 12.8C484.938 13.8667 484.455 15.25 484.455 16.95C484.455 18.6167 484.938 19.9833 485.905 21.05C486.871 22.0833 488.121 22.6 489.655 22.6ZM520.535 41.55C516.268 41.55 513.002 39.9667 510.735 36.8C508.502 33.6333 507.385 29.1167 507.385 23.25C507.385 17.3833 508.502 12.9167 510.735 9.85C513.002 6.75 516.268 5.2 520.535 5.2C524.802 5.2 528.052 6.75 530.285 9.85C532.552 12.9167 533.685 17.3833 533.685 23.25C533.685 29.1167 532.552 33.6333 530.285 36.8C528.052 39.9667 524.802 41.55 520.535 41.55ZM520.535 35.25C522.468 35.25 523.902 34.3 524.835 32.4C525.768 30.4667 526.235 27.4167 526.235 23.25C526.235 19.0833 525.768 16.0833 524.835 14.25C523.902 12.4167 522.468 11.5 520.535 11.5C518.602 11.5 517.168 12.4167 516.235 14.25C515.302 16.0833 514.835 19.0833 514.835 23.25C514.835 27.4167 515.302 30.4667 516.235 32.4C517.168 34.3 518.602 35.25 520.535 35.25ZM538.416 41V5.75H545.966V26.6H546.066L555.116 16.45H564.066L553.666 28.2L564.566 41H555.466L546.066 30.4H545.966V41H538.416ZM575.696 39V29.25H566.196V24.05H575.696V14.6H581.096V24.05H590.596V29.25H581.096V39H575.696ZM622.243 41.55C615.343 41.55 611.893 38.2 611.893 31.5V22.1H607.243V16.45H611.893V9.25H619.443V16.45H626.693V22.1H619.443V31.2C619.443 32.6 619.76 33.65 620.393 34.35C621.06 35.05 622.11 35.4 623.543 35.4C623.976 35.4 624.426 35.35 624.893 35.25C625.393 35.15 625.926 35.0167 626.493 34.85L627.593 40.35C626.893 40.7167 626.06 41 625.093 41.2C624.126 41.4333 623.176 41.55 622.243 41.55ZM641.964 41.55C639.33 41.55 637.03 41.0333 635.064 40C633.13 38.9333 631.63 37.45 630.564 35.55C629.497 33.6167 628.964 31.3333 628.964 28.7C628.964 26.1 629.497 23.85 630.564 21.95C631.63 20.0167 633.13 18.5333 635.064 17.5C637.03 16.4667 639.33 15.95 641.964 15.95C644.597 15.95 646.88 16.4667 648.814 17.5C650.78 18.5333 652.297 20.0167 653.364 21.95C654.464 23.85 655.014 26.1 655.014 28.7C655.014 31.3333 654.464 33.6167 653.364 35.55C652.297 37.45 650.78 38.9333 648.814 40C646.88 41.0333 644.597 41.55 641.964 41.55ZM641.964 35.9C643.564 35.9 644.864 35.3167 645.864 34.15C646.897 32.9833 647.414 31.1667 647.414 28.7C647.414 26.2667 646.897 24.4833 645.864 23.35C644.864 22.1833 643.564 21.6 641.964 21.6C640.364 21.6 639.064 22.1833 638.064 23.35C637.064 24.4833 636.564 26.2667 636.564 28.7C636.564 31.1667 637.064 32.9833 638.064 34.15C639.064 35.3167 640.364 35.9 641.964 35.9ZM671.413 41.55C664.513 41.55 661.063 38.2 661.063 31.5V22.1H656.413V16.45H661.063V9.25H668.613V16.45H675.863V22.1H668.613V31.2C668.613 32.6 668.93 33.65 669.563 34.35C670.23 35.05 671.28 35.4 672.713 35.4C673.146 35.4 673.596 35.35 674.063 35.25C674.563 35.15 675.096 35.0167 675.663 34.85L676.763 40.35C676.063 40.7167 675.23 41 674.263 41.2C673.296 41.4333 672.346 41.55 671.413 41.55ZM687.878 41.55C686.044 41.55 684.428 41.2 683.028 40.5C681.628 39.8 680.511 38.85 679.678 37.65C678.878 36.45 678.478 35.1 678.478 33.6C678.478 31.8333 678.944 30.4167 679.878 29.35C680.811 28.2833 682.328 27.5333 684.428 27.1C686.528 26.6333 689.311 26.4 692.778 26.4H694.578V25.55C694.578 24.0833 694.244 23.05 693.578 22.45C692.911 21.8167 691.778 21.5 690.178 21.5C688.844 21.5 687.428 21.7167 685.928 22.15C684.461 22.55 682.994 23.1667 681.528 24L679.478 18.95C680.344 18.3833 681.394 17.8667 682.628 17.4C683.894 16.9333 685.211 16.5833 686.578 16.35C687.944 16.0833 689.244 15.95 690.478 15.95C694.278 15.95 697.111 16.8167 698.978 18.55C700.844 20.25 701.778 22.9 701.778 26.5V41H694.728V37.3C694.228 38.6 693.378 39.6333 692.178 40.4C691.011 41.1667 689.578 41.55 687.878 41.55ZM689.578 36.5C690.978 36.5 692.161 36.0167 693.128 35.05C694.094 34.0833 694.578 32.8333 694.578 31.3V30.3H692.828C690.261 30.3 688.444 30.5333 687.378 31C686.311 31.4333 685.778 32.2 685.778 33.3C685.778 34.2333 686.094 35 686.728 35.6C687.394 36.2 688.344 36.5 689.578 36.5ZM716.56 41.55C713.393 41.55 711.076 40.7333 709.61 39.1C708.143 37.4333 707.41 34.9667 707.41 31.7V5.75H714.96V31.4C714.96 34.0667 716.143 35.4 718.51 35.4C718.876 35.4 719.226 35.3833 719.56 35.35C719.926 35.3167 720.276 35.25 720.61 35.15L720.51 41C719.243 41.3667 717.926 41.55 716.56 41.55ZM747.126 41.55C743.96 41.55 741.643 40.7333 740.176 39.1C738.71 37.4333 737.976 34.9667 737.976 31.7V5.75H745.526V31.4C745.526 34.0667 746.71 35.4 749.076 35.4C749.443 35.4 749.793 35.3833 750.126 35.35C750.493 35.3167 750.843 35.25 751.176 35.15L751.076 41C749.81 41.3667 748.493 41.55 747.126 41.55ZM767.132 41.55C764.232 41.55 761.732 41.0333 759.632 40C757.566 38.9333 755.966 37.45 754.832 35.55C753.732 33.6167 753.182 31.35 753.182 28.75C753.182 26.2167 753.716 24 754.782 22.1C755.882 20.1667 757.366 18.6667 759.232 17.6C761.132 16.5 763.316 15.95 765.782 15.95C769.349 15.95 772.182 17.0833 774.282 19.35C776.382 21.5833 777.432 24.6167 777.432 28.45V30.35H760.382C760.649 32.2833 761.349 33.7 762.482 34.6C763.649 35.4667 765.249 35.9 767.282 35.9C768.616 35.9 769.966 35.7 771.332 35.3C772.699 34.9 773.932 34.2833 775.032 33.45L777.032 38.5C775.799 39.4333 774.282 40.1833 772.482 40.75C770.716 41.2833 768.932 41.55 767.132 41.55ZM766.082 20.95C764.482 20.95 763.182 21.4333 762.182 22.4C761.216 23.3667 760.616 24.7167 760.382 26.45H771.182C770.982 22.7833 769.282 20.95 766.082 20.95ZM790.124 41.55C788.29 41.55 786.674 41.2 785.274 40.5C783.874 39.8 782.757 38.85 781.924 37.65C781.124 36.45 780.724 35.1 780.724 33.6C780.724 31.8333 781.19 30.4167 782.124 29.35C783.057 28.2833 784.574 27.5333 786.674 27.1C788.774 26.6333 791.557 26.4 795.024 26.4H796.824V25.55C796.824 24.0833 796.49 23.05 795.824 22.45C795.157 21.8167 794.024 21.5 792.424 21.5C791.09 21.5 789.674 21.7167 788.174 22.15C786.707 22.55 785.24 23.1667 783.774 24L781.724 18.95C782.59 18.3833 783.64 17.8667 784.874 17.4C786.14 16.9333 787.457 16.5833 788.824 16.35C790.19 16.0833 791.49 15.95 792.724 15.95C796.524 15.95 799.357 16.8167 801.224 18.55C803.09 20.25 804.024 22.9 804.024 26.5V41H796.974V37.3C796.474 38.6 795.624 39.6333 794.424 40.4C793.257 41.1667 791.824 41.55 790.124 41.55ZM791.824 36.5C793.224 36.5 794.407 36.0167 795.374 35.05C796.34 34.0833 796.824 32.8333 796.824 31.3V30.3H795.074C792.507 30.3 790.69 30.5333 789.624 31C788.557 31.4333 788.024 32.2 788.024 33.3C788.024 34.2333 788.34 35 788.974 35.6C789.64 36.2 790.59 36.5 791.824 36.5ZM809.656 41V16.45H817.056V20.7C818.223 17.8333 820.723 16.25 824.556 15.95L826.756 15.8L827.206 22.15L822.956 22.6C819.223 22.9667 817.356 24.8667 817.356 28.3V41H809.656ZM830.261 41V16.45H837.661V20.05C838.495 18.7167 839.611 17.7 841.011 17C842.411 16.3 843.978 15.95 845.711 15.95C848.611 15.95 850.778 16.8 852.211 18.5C853.645 20.1667 854.361 22.75 854.361 26.25V41H846.811V26.6C846.811 24.9 846.495 23.6833 845.861 22.95C845.228 22.1833 844.295 21.8 843.061 21.8C841.461 21.8 840.178 22.3 839.211 23.3C838.278 24.3 837.811 25.6333 837.811 27.3V41H830.261ZM872.748 41.55C869.848 41.55 867.348 41.0333 865.248 40C863.181 38.9333 861.581 37.45 860.448 35.55C859.348 33.6167 858.798 31.35 858.798 28.75C858.798 26.2167 859.331 24 860.398 22.1C861.498 20.1667 862.981 18.6667 864.848 17.6C866.748 16.5 868.931 15.95 871.398 15.95C874.964 15.95 877.798 17.0833 879.898 19.35C881.998 21.5833 883.048 24.6167 883.048 28.45V30.35H865.998C866.264 32.2833 866.964 33.7 868.098 34.6C869.264 35.4667 870.864 35.9 872.898 35.9C874.231 35.9 875.581 35.7 876.948 35.3C878.314 34.9 879.548 34.2833 880.648 33.45L882.648 38.5C881.414 39.4333 879.898 40.1833 878.098 40.75C876.331 41.2833 874.548 41.55 872.748 41.55ZM871.698 20.95C870.098 20.95 868.798 21.4333 867.798 22.4C866.831 23.3667 866.231 24.7167 865.998 26.45H876.798C876.598 22.7833 874.898 20.95 871.698 20.95ZM887.439 41V16.45H894.839V20.7C896.006 17.8333 898.506 16.25 902.339 15.95L904.539 15.8L904.989 22.15L900.739 22.6C897.006 22.9667 895.139 24.8667 895.139 28.3V41H887.439ZM917.2 41.55C915.034 41.55 913.017 41.3 911.15 40.8C909.284 40.3 907.734 39.6167 906.5 38.75L908.3 33.85C909.534 34.6167 910.934 35.2333 912.5 35.7C914.1 36.1333 915.684 36.35 917.25 36.35C918.65 36.35 919.684 36.1333 920.35 35.7C921.017 35.2333 921.35 34.6333 921.35 33.9C921.35 32.7333 920.5 32 918.8 31.7L913.55 30.75C911.45 30.3833 909.85 29.6333 908.75 28.5C907.65 27.3667 907.1 25.8833 907.1 24.05C907.1 22.3833 907.567 20.95 908.5 19.75C909.434 18.55 910.717 17.6167 912.35 16.95C913.984 16.2833 915.867 15.95 918 15.95C919.767 15.95 921.484 16.1833 923.15 16.65C924.817 17.0833 926.25 17.7833 927.45 18.75L925.55 23.6C924.55 22.8667 923.35 22.2667 921.95 21.8C920.584 21.3333 919.3 21.1 918.1 21.1C916.6 21.1 915.517 21.35 914.85 21.85C914.184 22.3167 913.85 22.9167 913.85 23.65C913.85 24.8167 914.634 25.55 916.2 25.85L921.45 26.8C923.617 27.1667 925.267 27.9 926.4 29C927.534 30.0667 928.1 31.5333 928.1 33.4C928.1 35.9667 927.1 37.9667 925.1 39.4C923.1 40.8333 920.467 41.55 917.2 41.55Z" fill="#0093EC"/>
<path d="M524.696 91.55C522.529 91.55 520.512 91.3 518.646 90.8C516.779 90.3 515.229 89.6167 513.996 88.75L515.796 83.85C517.029 84.6167 518.429 85.2333 519.996 85.7C521.596 86.1333 523.179 86.35 524.746 86.35C526.146 86.35 527.179 86.1333 527.846 85.7C528.512 85.2333 528.846 84.6333 528.846 83.9C528.846 82.7333 527.996 82 526.296 81.7L521.046 80.75C518.946 80.3833 517.346 79.6333 516.246 78.5C515.146 77.3667 514.596 75.8833 514.596 74.05C514.596 72.3833 515.062 70.95 515.996 69.75C516.929 68.55 518.212 67.6167 519.846 66.95C521.479 66.2833 523.362 65.95 525.496 65.95C527.262 65.95 528.979 66.1833 530.646 66.65C532.312 67.0833 533.746 67.7833 534.946 68.75L533.046 73.6C532.046 72.8667 530.846 72.2667 529.446 71.8C528.079 71.3333 526.796 71.1 525.596 71.1C524.096 71.1 523.012 71.35 522.346 71.85C521.679 72.3167 521.346 72.9167 521.346 73.65C521.346 74.8167 522.129 75.55 523.696 75.85L528.946 76.8C531.112 77.1667 532.762 77.9 533.896 79C535.029 80.0667 535.596 81.5333 535.596 83.4C535.596 85.9667 534.596 87.9667 532.596 89.4C530.596 90.8333 527.962 91.55 524.696 91.55ZM539.605 61.7V54.65H547.755V61.7H539.605ZM539.905 91V66.45H547.455V91H539.905ZM553.284 91V66.45H560.684V70.05C561.517 68.7167 562.634 67.7 564.034 67C565.434 66.3 567 65.95 568.734 65.95C571.634 65.95 573.8 66.8 575.234 68.5C576.667 70.1667 577.384 72.75 577.384 76.25V91H569.834V76.6C569.834 74.9 569.517 73.6833 568.884 72.95C568.25 72.1833 567.317 71.8 566.084 71.8C564.484 71.8 563.2 72.3 562.234 73.3C561.3 74.3 560.834 75.6333 560.834 77.3V91H553.284ZM594.97 91.55C592.303 91.55 589.97 91.0333 587.97 90C586.003 88.9333 584.487 87.4333 583.42 85.5C582.353 83.5667 581.82 81.2833 581.82 78.65C581.82 76.0167 582.353 73.75 583.42 71.85C584.487 69.95 586.003 68.5 587.97 67.5C589.97 66.4667 592.303 65.95 594.97 65.95C596.537 65.95 598.12 66.1833 599.72 66.65C601.32 67.1167 602.62 67.7833 603.62 68.65L601.52 73.85C600.687 73.1833 599.753 72.6667 598.72 72.3C597.687 71.9 596.687 71.7 595.72 71.7C593.753 71.7 592.22 72.3167 591.12 73.55C590.053 74.75 589.52 76.4667 589.52 78.7C589.52 80.9 590.053 82.6333 591.12 83.9C592.22 85.1333 593.753 85.75 595.72 85.75C596.653 85.75 597.637 85.5667 598.67 85.2C599.737 84.8333 600.687 84.3 601.52 83.6L603.62 88.8C602.62 89.6667 601.32 90.35 599.72 90.85C598.12 91.3167 596.537 91.55 594.97 91.55ZM619.159 91.55C616.259 91.55 613.759 91.0333 611.659 90C609.592 88.9333 607.992 87.45 606.859 85.55C605.759 83.6167 605.209 81.35 605.209 78.75C605.209 76.2167 605.742 74 606.809 72.1C607.909 70.1667 609.392 68.6667 611.259 67.6C613.159 66.5 615.342 65.95 617.809 65.95C621.375 65.95 624.209 67.0833 626.309 69.35C628.409 71.5833 629.459 74.6167 629.459 78.45V80.35H612.409C612.675 82.2833 613.375 83.7 614.509 84.6C615.675 85.4667 617.275 85.9 619.309 85.9C620.642 85.9 621.992 85.7 623.359 85.3C624.725 84.9 625.959 84.2833 627.059 83.45L629.059 88.5C627.825 89.4333 626.309 90.1833 624.509 90.75C622.742 91.2833 620.959 91.55 619.159 91.55ZM618.109 70.95C616.509 70.95 615.209 71.4333 614.209 72.4C613.242 73.3667 612.642 74.7167 612.409 76.45H623.209C623.009 72.7833 621.309 70.95 618.109 70.95ZM644.366 91L660.566 55.75H666.816L683.016 91H675.216L671.916 83.35H655.466L652.216 91H644.366ZM663.616 64L658.066 77.3H669.366L663.716 64H663.616ZM694.463 91.55C691.329 91.55 689.013 90.6833 687.513 88.95C686.046 87.2167 685.313 84.6167 685.313 81.15V66.45H692.863V81.35C692.863 84.25 694.113 85.7 696.613 85.7C698.046 85.7 699.213 85.2 700.113 84.2C701.046 83.1667 701.513 81.8167 701.513 80.15V66.45H709.063V91H701.713V87.65C700.079 90.25 697.663 91.55 694.463 91.55ZM726.705 100.55C724.338 100.55 722.122 100.3 720.055 99.8C718.022 99.3 716.238 98.5167 714.705 97.45L716.755 92.3C718.088 93.1333 719.588 93.7667 721.255 94.2C722.955 94.6667 724.555 94.9 726.055 94.9C730.322 94.9 732.455 92.9333 732.455 89V86.2C731.788 87.4667 730.738 88.4833 729.305 89.25C727.872 90.0167 726.305 90.4 724.605 90.4C722.405 90.4 720.488 89.9 718.855 88.9C717.222 87.8667 715.955 86.4333 715.055 84.6C714.155 82.7667 713.705 80.6167 713.705 78.15C713.705 75.7167 714.155 73.5833 715.055 71.75C715.955 69.9167 717.222 68.5 718.855 67.5C720.488 66.4667 722.405 65.95 724.605 65.95C726.372 65.95 727.955 66.3333 729.355 67.1C730.755 67.8667 731.788 68.8833 732.455 70.15V66.45H739.805V88.15C739.805 92.2833 738.688 95.3833 736.455 97.45C734.222 99.5167 730.972 100.55 726.705 100.55ZM726.855 84.75C728.522 84.75 729.855 84.1667 730.855 83C731.888 81.8333 732.405 80.2167 732.405 78.15C732.405 76.0833 731.888 74.4833 730.855 73.35C729.855 72.1833 728.522 71.6 726.855 71.6C725.155 71.6 723.805 72.1833 722.805 73.35C721.805 74.4833 721.305 76.0833 721.305 78.15C721.305 80.2167 721.805 81.8333 722.805 83C723.805 84.1667 725.155 84.75 726.855 84.75ZM760.383 91V85.25L771.433 73.65C772.833 72.1167 773.833 70.7833 774.433 69.65C775.066 68.4833 775.383 67.3167 775.383 66.15C775.383 63.15 773.533 61.65 769.833 61.65C768.399 61.65 766.966 61.9333 765.533 62.5C764.099 63.0333 762.699 63.8667 761.333 65L758.833 59.3C760.299 58.0333 762.099 57.0333 764.233 56.3C766.399 55.5667 768.616 55.2 770.883 55.2C774.816 55.2 777.816 56.0833 779.883 57.85C781.983 59.5833 783.033 62.0667 783.033 65.3C783.033 67.4333 782.533 69.4833 781.533 71.45C780.566 73.3833 778.966 75.4833 776.733 77.75L769.933 84.65H784.333V91H760.383ZM801.663 91.55C797.396 91.55 794.13 89.9667 791.863 86.8C789.63 83.6333 788.513 79.1167 788.513 73.25C788.513 67.3833 789.63 62.9167 791.863 59.85C794.13 56.75 797.396 55.2 801.663 55.2C805.93 55.2 809.18 56.75 811.413 59.85C813.68 62.9167 814.813 67.3833 814.813 73.25C814.813 79.1167 813.68 83.6333 811.413 86.8C809.18 89.9667 805.93 91.55 801.663 91.55ZM801.663 85.25C803.596 85.25 805.03 84.3 805.963 82.4C806.896 80.4667 807.363 77.4167 807.363 73.25C807.363 69.0833 806.896 66.0833 805.963 64.25C805.03 62.4167 803.596 61.5 801.663 61.5C799.73 61.5 798.296 62.4167 797.363 64.25C796.43 66.0833 795.963 69.0833 795.963 73.25C795.963 77.4167 796.43 80.4667 797.363 82.4C798.296 84.3 799.73 85.25 801.663 85.25ZM821.644 91V84.65H829.544V64.4L823.494 67.95L820.544 62.3L831.794 55.75H837.294V84.65H844.694V91H821.644ZM858.724 91.55C856.824 91.55 854.941 91.2167 853.074 90.55C851.241 89.8833 849.624 88.9333 848.224 87.7L850.724 81.95C851.924 82.9833 853.207 83.7667 854.574 84.3C855.974 84.8333 857.391 85.1 858.824 85.1C864.324 85.1 867.074 81.5167 867.074 74.35V73.4C866.374 75.0333 865.291 76.3167 863.824 77.25C862.357 78.1833 860.657 78.65 858.724 78.65C856.757 78.65 854.991 78.1667 853.424 77.2C851.857 76.2 850.624 74.85 849.724 73.15C848.824 71.4167 848.374 69.45 848.374 67.25C848.374 64.9167 848.874 62.85 849.874 61.05C850.907 59.2167 852.307 57.7833 854.074 56.75C855.874 55.7167 857.941 55.2 860.274 55.2C864.807 55.2 868.291 56.75 870.724 59.85C873.157 62.9167 874.374 67.2667 874.374 72.9C874.374 76.8333 873.741 80.1833 872.474 82.95C871.241 85.7167 869.457 87.85 867.124 89.35C864.791 90.8167 861.991 91.55 858.724 91.55ZM860.724 72.6C862.257 72.6 863.507 72.0833 864.474 71.05C865.441 69.9833 865.924 68.6167 865.924 66.95C865.924 65.25 865.441 63.8667 864.474 62.8C863.507 61.7333 862.257 61.2 860.724 61.2C859.191 61.2 857.941 61.7333 856.974 62.8C856.007 63.8667 855.524 65.25 855.524 66.95C855.524 68.6167 856.007 69.9833 856.974 71.05C857.941 72.0833 859.191 72.6 860.724 72.6Z" fill="#3F3D56"/>
<path d="M561.243 724V720.55L567.873 713.59C568.713 712.67 569.313 711.87 569.673 711.19C570.053 710.49 570.243 709.79 570.243 709.09C570.243 707.29 569.133 706.39 566.913 706.39C566.053 706.39 565.193 706.56 564.333 706.9C563.473 707.22 562.633 707.72 561.813 708.4L560.313 704.98C561.193 704.22 562.273 703.62 563.553 703.18C564.853 702.74 566.183 702.52 567.543 702.52C569.903 702.52 571.703 703.05 572.943 704.11C574.203 705.15 574.833 706.64 574.833 708.58C574.833 709.86 574.533 711.09 573.933 712.27C573.353 713.43 572.393 714.69 571.053 716.05L566.973 720.19H575.613V724H561.243ZM586.012 724.33C583.452 724.33 581.492 723.38 580.132 721.48C578.792 719.58 578.122 716.87 578.122 713.35C578.122 709.83 578.792 707.15 580.132 705.31C581.492 703.45 583.452 702.52 586.012 702.52C588.572 702.52 590.522 703.45 591.862 705.31C593.222 707.15 593.902 709.83 593.902 713.35C593.902 716.87 593.222 719.58 591.862 721.48C590.522 723.38 588.572 724.33 586.012 724.33ZM586.012 720.55C587.172 720.55 588.032 719.98 588.592 718.84C589.152 717.68 589.432 715.85 589.432 713.35C589.432 710.85 589.152 709.05 588.592 707.95C588.032 706.85 587.172 706.3 586.012 706.3C584.852 706.3 583.992 706.85 583.432 707.95C582.872 709.05 582.592 710.85 582.592 713.35C582.592 715.85 582.872 717.68 583.432 718.84C583.992 719.98 584.852 720.55 586.012 720.55ZM597.22 724V720.55L603.85 713.59C604.69 712.67 605.29 711.87 605.65 711.19C606.03 710.49 606.22 709.79 606.22 709.09C606.22 707.29 605.11 706.39 602.89 706.39C602.03 706.39 601.17 706.56 600.31 706.9C599.45 707.22 598.61 707.72 597.79 708.4L596.29 704.98C597.17 704.22 598.25 703.62 599.53 703.18C600.83 702.74 602.16 702.52 603.52 702.52C605.88 702.52 607.68 703.05 608.92 704.11C610.18 705.15 610.81 706.64 610.81 708.58C610.81 709.86 610.51 711.09 609.91 712.27C609.33 713.43 608.37 714.69 607.03 716.05L602.95 720.19H611.59V724H597.22ZM615.208 724V720.55L621.838 713.59C622.678 712.67 623.278 711.87 623.638 711.19C624.018 710.49 624.208 709.79 624.208 709.09C624.208 707.29 623.098 706.39 620.878 706.39C620.018 706.39 619.158 706.56 618.298 706.9C617.438 707.22 616.598 707.72 615.778 708.4L614.278 704.98C615.158 704.22 616.238 703.62 617.518 703.18C618.818 702.74 620.148 702.52 621.508 702.52C623.868 702.52 625.668 703.05 626.908 704.11C628.168 705.15 628.798 706.64 628.798 708.58C628.798 709.86 628.498 711.09 627.898 712.27C627.318 713.43 626.358 714.69 625.018 716.05L620.938 720.19H629.578V724H615.208Z" fill="#0093EC"/>
<path d="M755.994 674.556L743.734 674.555L737.902 627.268H755.996L755.994 674.556Z" fill="#9E616A"/>
<path d="M759.121 686.44L719.59 686.438V685.938C719.59 681.858 721.211 677.944 724.097 675.059C726.982 672.174 730.896 670.552 734.976 670.552H734.977L759.121 670.553L759.121 686.44Z" fill="#2F2E41"/>
<path d="M708.994 674.556L696.734 674.555L690.902 627.268H708.996L708.994 674.556Z" fill="#9E616A"/>
<path d="M712.121 686.44L672.59 686.438V685.938C672.59 681.858 674.211 677.944 677.097 675.059C679.982 672.174 683.896 670.552 687.976 670.552H687.977L712.121 670.553L712.121 686.44Z" fill="#2F2E41"/>
<path d="M309 686.63V306.82C309 304.481 309.929 302.237 311.583 300.583C313.237 298.929 315.481 298 317.82 298H357.18C359.519 298 361.763 298.929 363.417 300.583C365.071 302.237 366 304.481 366 306.82V687.62L309 686.63Z" fill="#3F3D56"/>
<path d="M179 687.82V385.82C179 383.481 179.929 381.237 181.583 379.583C183.237 377.929 185.481 377 187.82 377H227.18C229.519 377 231.763 377.929 233.417 379.583C235.071 381.237 236 383.481 236 385.82V687.17L179 687.82Z" fill="#3F3D56"/>
<path d="M80.3908 327.259C79.8114 327.258 79.2445 327.091 78.7585 326.775C78.2725 326.46 77.8882 326.01 77.6521 325.481C77.4159 324.952 77.3381 324.366 77.4278 323.794C77.5176 323.222 77.7712 322.687 78.158 322.256L220.06 263.259L338.06 251.759L477.702 179.259L601.484 130.877C606 129.5 606 134.5 601.484 136.006L477.702 184.382L341.502 256.323L220.06 269.259L82.6253 326.261C82.3442 326.575 81.9998 326.827 81.6147 326.999C81.2296 327.171 80.8125 327.259 80.3908 327.259Z" fill="#3F3D56"/>
<path d="M77.832 352C93.296 352 105.832 339.464 105.832 324C105.832 308.536 93.296 296 77.832 296C62.3681 296 49.832 308.536 49.832 324C49.832 339.464 62.3681 352 77.832 352Z" fill="#00B0FF"/>
<path d="M215 293C230.464 293 243 280.464 243 265C243 249.536 230.464 237 215 237C199.536 237 187 249.536 187 265C187 280.464 199.536 293 215 293Z" fill="#CCCCCC"/>
<path d="M337.832 280C353.296 280 365.832 267.464 365.832 252C365.832 236.536 353.296 224 337.832 224C322.368 224 309.832 236.536 309.832 252C309.832 267.464 322.368 280 337.832 280Z" fill="#E6E6E6"/>
<path d="M474 207C489.464 207 502 194.464 502 179C502 163.536 489.464 151 474 151C458.536 151 446 163.536 446 179C446 194.464 458.536 207 474 207Z" fill="#00B0FF"/>
<path d="M717.832 264.535C733.296 264.535 745.832 251.999 745.832 236.535C745.832 221.071 733.296 208.535 717.832 208.535C702.368 208.535 689.832 221.071 689.832 236.535C689.832 251.999 702.368 264.535 717.832 264.535Z" fill="#00B0FF"/>
<path d="M707.932 454.656C718.412 455.918 745.211 446.358 746.663 460.902C760.457 501.507 760.048 657.159 760.048 657.159L739.048 658.159C739.048 658.159 722.267 534.484 714.332 508.026C710.35 540.185 711.048 663.159 711.048 663.159L692.048 664.159C692.048 664.159 675.005 559.441 674.908 528.706C672.836 506.192 677.916 472.83 675.742 451.066C686.133 454.359 697.071 455.579 707.932 454.656L707.932 454.656Z" fill="#3F3D56"/>
<path d="M439 684.92V247.166C439 241.552 442.949 237 447.82 237H487.18C492.051 237 496 241.551 496 247.166V686.066L439 684.92Z" fill="#3F3D56"/>
<path d="M672.282 336.856C668.079 328.263 662.945 320.158 656.972 312.686C655.724 311.227 654.587 309.676 653.572 308.046C651.422 304.316 650.782 299.936 649.422 295.856C645.622 284.416 636.142 275.226 633.832 263.396C632.992 259.096 625.896 271.594 627.762 276.926C631.092 286.576 631.522 296.796 635.762 306.116C640.002 315.436 644.982 324.376 648.642 333.906C650.722 339.316 652.382 344.906 655.432 349.906C658.482 354.906 663.242 359.096 668.992 359.846C668.953 356.221 669.504 352.614 670.622 349.166C671.872 345.226 674.092 340.586 672.282 336.856Z" fill="#9E616A"/>
<path d="M735.192 343.336C734.935 336.265 736.038 329.211 738.442 322.556C739.362 320.006 740.442 317.416 740.352 314.706C740.222 312.186 739.022 309.876 737.932 307.596C734.172 299.746 731.532 291.426 728.932 283.126L723.932 267.476C722.302 266.281 731.822 265.866 733.852 268.676C740.492 277.896 745.522 288.486 750.782 298.556C752.124 300.956 753.267 303.461 754.202 306.046C755.487 310.236 756.094 314.604 756.002 318.986C756.002 327.176 754.922 335.336 753.802 343.456C753.092 348.546 752.162 354.086 748.312 357.456C744.312 352.336 740.292 347.336 735.192 343.336Z" fill="#9E616A"/>
<path d="M708.752 335.234C720.212 335.234 729.502 325.944 729.502 314.484C729.502 303.024 720.212 293.734 708.752 293.734C697.292 293.734 688.002 303.024 688.002 314.484C688.002 325.944 697.292 335.234 708.752 335.234Z" fill="#9E616A"/>
<path d="M691.884 293.782C691.651 293.152 691.598 292.47 691.733 291.812C691.867 291.154 692.182 290.547 692.643 290.059C693.162 289.65 693.85 289.498 694.405 289.108C695.195 288.444 695.841 287.627 696.305 286.705C697.722 284.722 699.796 283.304 702.159 282.704C704.522 282.104 707.022 282.361 709.214 283.428C712.643 285.223 714.713 288.817 717.763 291.237C719.311 292.491 721.107 293.421 722.665 294.675C725.784 297.37 728.002 300.958 729.019 304.953C730.03 308.922 730.621 312.986 730.781 317.078C730.943 318.306 730.895 319.552 730.639 320.764C730.323 321.78 729.852 322.741 729.243 323.614C726.108 328.363 721.976 332.676 716.799 335.127C711.622 337.577 705.324 337.976 700.219 335.412C699.705 335.204 699.262 334.851 698.946 334.395C698.656 333.702 698.586 332.936 698.747 332.201C699.024 329.298 698.45 326.377 697.094 323.795C696.144 321.895 694.719 320.261 693.959 318.295C693.253 316.095 692.95 313.784 693.066 311.476C692.976 305.494 693.382 299.539 691.884 293.782Z" fill="#2D293D"/>
<path d="M49.3311 685.05V473.709C49.3311 470.999 53.2801 468.801 58.1511 468.801H97.5111C102.382 468.801 106.331 471.001 106.331 473.709V685.601L49.3311 685.05Z" fill="#3F3D56"/>
<path d="M820.169 687.802H1C0.734784 687.802 0.480429 687.697 0.292892 687.509C0.105356 687.322 0 687.067 0 686.802C0 686.537 0.105356 686.282 0.292892 686.095C0.480429 685.907 0.734784 685.802 1 685.802H820.168C820.433 685.802 820.688 685.907 820.875 686.095C821.063 686.282 821.168 686.537 821.168 686.802C821.168 687.067 821.063 687.322 820.875 687.509C820.688 687.697 820.433 687.802 820.168 687.802H820.169Z" fill="#E6E6E6"/>
<path d="M566 687.306V190.536C566 184.165 569.949 179 574.82 179H614.18C619.051 179 623 184.165 623 190.536V688.601L566 687.306Z" fill="#00B0FF"/>
<path d="M627.182 274.365C632.153 274.365 636.182 270.336 636.182 265.365C636.182 260.395 632.153 256.365 627.182 256.365C622.212 256.365 618.182 260.395 618.182 265.365C618.182 270.336 622.212 274.365 627.182 274.365Z" fill="#A0616A"/>
<path d="M727.182 270.365C732.153 270.365 736.182 266.336 736.182 261.365C736.182 256.395 732.153 252.365 727.182 252.365C722.212 252.365 718.182 256.395 718.182 261.365C718.182 266.336 722.212 270.365 727.182 270.365Z" fill="#A0616A"/>
<path d="M749.052 372.776C749.93 371.972 757.09 330.102 757.048 329.159C756.937 324 741.198 318.109 738.048 320.159C735.076 322.093 729.901 344.283 726.571 348.324L723.048 342.159H695.048L693.351 345.31C689.677 343.097 686.372 341.056 685.193 340.381C684.788 340.107 684.347 339.89 683.882 339.736C680.972 339.085 678.24 337.802 675.882 335.976C673.582 334.206 662.908 315.669 660.048 316.159C656.818 316.699 645.923 326.119 646.048 335.159C647.419 335.129 665.262 370.806 665.512 372.136C666.882 377.756 671.406 459.716 672.866 463.536C679.592 462.886 674.282 461.726 680.792 463.536C687.802 465.486 695.202 463.376 702.432 462.596C705.442 462.298 708.467 462.164 711.492 462.196C722.492 462.246 738.192 462.856 748.842 465.586C748.902 458.606 742.772 443.506 740.502 436.916C740.205 434.946 740.215 432.943 740.532 430.976C740.822 428.566 746.678 375.441 749.052 372.776Z" fill="#E6E6E6"/>
</svg>
