<svg width="945" height="747" viewBox="0 0 945 747" fill="none" xmlns="http://www.w3.org/2000/svg">
<path d="M480.784 37.55C477.317 37.55 474.267 36.8 471.634 35.3C469.034 33.7667 467 31.65 465.534 28.95C464.1 26.2167 463.384 23.0167 463.384 19.35C463.384 15.6833 464.1 12.5 465.534 9.8C467 7.06666 469.034 4.95 471.634 3.45C474.234 1.95 477.284 1.2 480.784 1.2C484.284 1.2 487.334 1.95 489.934 3.45C492.567 4.95 494.6 7.06666 496.034 9.8C497.5 12.5 498.234 15.6667 498.234 19.3C498.234 22.9667 497.5 26.1667 496.034 28.9C494.6 31.6333 492.567 33.7667 489.934 35.3C487.334 36.8 484.284 37.55 480.784 37.55ZM480.784 30.95C483.717 30.95 486 29.9333 487.634 27.9C489.3 25.8333 490.134 22.9833 490.134 19.35C490.134 15.6833 489.317 12.85 487.684 10.85C486.05 8.81666 483.75 7.8 480.784 7.8C477.884 7.8 475.6 8.81666 473.934 10.85C472.3 12.85 471.484 15.6833 471.484 19.35C471.484 22.9833 472.3 25.8333 473.934 27.9C475.6 29.9333 477.884 30.95 480.784 30.95ZM510.829 37L500.129 12.45H508.079L514.229 28.05L520.579 12.45H528.029L517.179 37H510.829ZM542.452 37.55C539.552 37.55 537.052 37.0333 534.952 36C532.885 34.9333 531.285 33.45 530.152 31.55C529.052 29.6167 528.502 27.35 528.502 24.75C528.502 22.2167 529.035 20 530.102 18.1C531.202 16.1667 532.685 14.6667 534.552 13.6C536.452 12.5 538.635 11.95 541.102 11.95C544.668 11.95 547.502 13.0833 549.602 15.35C551.702 17.5833 552.752 20.6167 552.752 24.45V26.35H535.702C535.968 28.2833 536.668 29.7 537.802 30.6C538.968 31.4667 540.568 31.9 542.602 31.9C543.935 31.9 545.285 31.7 546.652 31.3C548.018 30.9 549.252 30.2833 550.352 29.45L552.352 34.5C551.118 35.4333 549.602 36.1833 547.802 36.75C546.035 37.2833 544.252 37.55 542.452 37.55ZM541.402 16.95C539.802 16.95 538.502 17.4333 537.502 18.4C536.535 19.3667 535.935 20.7167 535.702 22.45H546.502C546.302 18.7833 544.602 16.95 541.402 16.95ZM557.143 37V12.45H564.543V16.7C565.71 13.8333 568.21 12.25 572.043 11.95L574.243 11.8L574.693 18.15L570.443 18.6C566.71 18.9667 564.843 20.8667 564.843 24.3V37H557.143ZM593.765 37V30.65H601.665V10.4L595.615 13.95L592.665 8.3L603.915 1.75H609.415V30.65H616.815V37H593.765ZM635.661 37V12.45H643.061V16C643.794 14.7333 644.794 13.75 646.061 13.05C647.361 12.3167 648.861 11.95 650.561 11.95C652.294 11.95 653.761 12.3333 654.961 13.1C656.194 13.8667 657.128 15.0333 657.761 16.6C658.528 15.1333 659.628 14 661.061 13.2C662.528 12.3667 664.144 11.95 665.911 11.95C668.711 11.95 670.794 12.8 672.161 14.5C673.528 16.1667 674.211 18.75 674.211 22.25V37H666.661V22.5C666.661 20.8667 666.394 19.6833 665.861 18.95C665.361 18.1833 664.494 17.8 663.261 17.8C661.828 17.8 660.711 18.3 659.911 19.3C659.111 20.3 658.711 21.7167 658.711 23.55V37H651.161V22.5C651.161 20.8667 650.894 19.6833 650.361 18.95C649.828 18.1833 648.961 17.8 647.761 17.8C646.328 17.8 645.211 18.3 644.411 19.3C643.611 20.3 643.211 21.7167 643.211 23.55V37H635.661ZM679.695 7.7V0.649997H687.845V7.7H679.695ZM679.995 37V12.45H687.545V37H679.995ZM702.524 37.55C699.357 37.55 697.04 36.7333 695.574 35.1C694.107 33.4333 693.374 30.9667 693.374 27.7V1.75H700.924V27.4C700.924 30.0667 702.107 31.4 704.474 31.4C704.84 31.4 705.19 31.3833 705.524 31.35C705.89 31.3167 706.24 31.25 706.574 31.15L706.474 37C705.207 37.3667 703.89 37.55 702.524 37.55ZM719.174 37.55C716.007 37.55 713.691 36.7333 712.224 35.1C710.757 33.4333 710.024 30.9667 710.024 27.7V1.75H717.574V27.4C717.574 30.0667 718.757 31.4 721.124 31.4C721.491 31.4 721.841 31.3833 722.174 31.35C722.541 31.3167 722.891 31.25 723.224 31.15L723.124 37C721.857 37.3667 720.541 37.55 719.174 37.55ZM726.374 7.7V0.649997H734.524V7.7H726.374ZM726.674 37V12.45H734.224V37H726.674ZM751.853 37.55C749.22 37.55 746.92 37.0333 744.953 36C743.02 34.9333 741.52 33.45 740.453 31.55C739.387 29.6167 738.853 27.3333 738.853 24.7C738.853 22.1 739.387 19.85 740.453 17.95C741.52 16.0167 743.02 14.5333 744.953 13.5C746.92 12.4667 749.22 11.95 751.853 11.95C754.487 11.95 756.77 12.4667 758.703 13.5C760.67 14.5333 762.187 16.0167 763.253 17.95C764.353 19.85 764.903 22.1 764.903 24.7C764.903 27.3333 764.353 29.6167 763.253 31.55C762.187 33.45 760.67 34.9333 758.703 36C756.77 37.0333 754.487 37.55 751.853 37.55ZM751.853 31.9C753.453 31.9 754.753 31.3167 755.753 30.15C756.787 28.9833 757.303 27.1667 757.303 24.7C757.303 22.2667 756.787 20.4833 755.753 19.35C754.753 18.1833 753.453 17.6 751.853 17.6C750.253 17.6 748.953 18.1833 747.953 19.35C746.953 20.4833 746.453 22.2667 746.453 24.7C746.453 27.1667 746.953 28.9833 747.953 30.15C748.953 31.3167 750.253 31.9 751.853 31.9ZM769.497 37V12.45H776.897V16.05C777.73 14.7167 778.847 13.7 780.247 13C781.647 12.3 783.213 11.95 784.947 11.95C787.847 11.95 790.013 12.8 791.447 14.5C792.88 16.1667 793.597 18.75 793.597 22.25V37H786.047V22.6C786.047 20.9 785.73 19.6833 785.097 18.95C784.463 18.1833 783.53 17.8 782.297 17.8C780.697 17.8 779.413 18.3 778.447 19.3C777.513 20.3 777.047 21.6333 777.047 23.3V37H769.497ZM825.199 37.55C818.299 37.55 814.849 34.2 814.849 27.5V18.1H810.199V12.45H814.849V5.25H822.399V12.45H829.649V18.1H822.399V27.2C822.399 28.6 822.716 29.65 823.349 30.35C824.016 31.05 825.066 31.4 826.499 31.4C826.932 31.4 827.382 31.35 827.849 31.25C828.349 31.15 828.882 31.0167 829.449 30.85L830.549 36.35C829.849 36.7167 829.016 37 828.049 37.2C827.082 37.4333 826.132 37.55 825.199 37.55ZM844.92 37.55C842.286 37.55 839.986 37.0333 838.02 36C836.086 34.9333 834.586 33.45 833.52 31.55C832.453 29.6167 831.92 27.3333 831.92 24.7C831.92 22.1 832.453 19.85 833.52 17.95C834.586 16.0167 836.086 14.5333 838.02 13.5C839.986 12.4667 842.286 11.95 844.92 11.95C847.553 11.95 849.836 12.4667 851.77 13.5C853.736 14.5333 855.253 16.0167 856.32 17.95C857.42 19.85 857.97 22.1 857.97 24.7C857.97 27.3333 857.42 29.6167 856.32 31.55C855.253 33.45 853.736 34.9333 851.77 36C849.836 37.0333 847.553 37.55 844.92 37.55ZM844.92 31.9C846.52 31.9 847.82 31.3167 848.82 30.15C849.853 28.9833 850.37 27.1667 850.37 24.7C850.37 22.2667 849.853 20.4833 848.82 19.35C847.82 18.1833 846.52 17.6 844.92 17.6C843.32 17.6 842.02 18.1833 841.02 19.35C840.02 20.4833 839.52 22.2667 839.52 24.7C839.52 27.1667 840.02 28.9833 841.02 30.15C842.02 31.3167 843.32 31.9 844.92 31.9ZM874.369 37.55C867.469 37.55 864.019 34.2 864.019 27.5V18.1H859.369V12.45H864.019V5.25H871.569V12.45H878.819V18.1H871.569V27.2C871.569 28.6 871.886 29.65 872.519 30.35C873.186 31.05 874.236 31.4 875.669 31.4C876.102 31.4 876.552 31.35 877.019 31.25C877.519 31.15 878.052 31.0167 878.619 30.85L879.719 36.35C879.019 36.7167 878.186 37 877.219 37.2C876.252 37.4333 875.302 37.55 874.369 37.55ZM890.834 37.55C889 37.55 887.384 37.2 885.984 36.5C884.584 35.8 883.467 34.85 882.634 33.65C881.834 32.45 881.434 31.1 881.434 29.6C881.434 27.8333 881.9 26.4167 882.834 25.35C883.767 24.2833 885.284 23.5333 887.384 23.1C889.484 22.6333 892.267 22.4 895.734 22.4H897.534V21.55C897.534 20.0833 897.2 19.05 896.534 18.45C895.867 17.8167 894.734 17.5 893.134 17.5C891.8 17.5 890.384 17.7167 888.884 18.15C887.417 18.55 885.95 19.1667 884.484 20L882.434 14.95C883.3 14.3833 884.35 13.8667 885.584 13.4C886.85 12.9333 888.167 12.5833 889.534 12.35C890.9 12.0833 892.2 11.95 893.434 11.95C897.234 11.95 900.067 12.8167 901.934 14.55C903.8 16.25 904.734 18.9 904.734 22.5V37H897.684V33.3C897.184 34.6 896.334 35.6333 895.134 36.4C893.967 37.1667 892.534 37.55 890.834 37.55ZM892.534 32.5C893.934 32.5 895.117 32.0167 896.084 31.05C897.05 30.0833 897.534 28.8333 897.534 27.3V26.3H895.784C893.217 26.3 891.4 26.5333 890.334 27C889.267 27.4333 888.734 28.2 888.734 29.3C888.734 30.2333 889.05 31 889.684 31.6C890.35 32.2 891.3 32.5 892.534 32.5ZM919.516 37.55C916.349 37.55 914.032 36.7333 912.566 35.1C911.099 33.4333 910.366 30.9667 910.366 27.7V1.75H917.916V27.4C917.916 30.0667 919.099 31.4 921.466 31.4C921.832 31.4 922.182 31.3833 922.516 31.35C922.882 31.3167 923.232 31.25 923.566 31.15L923.466 37C922.199 37.3667 920.882 37.55 919.516 37.55ZM600.375 87.55C597.209 87.55 594.892 86.7333 593.425 85.1C591.959 83.4333 591.225 80.9667 591.225 77.7V51.75H598.775V77.4C598.775 80.0667 599.959 81.4 602.325 81.4C602.692 81.4 603.042 81.3833 603.375 81.35C603.742 81.3167 604.092 81.25 604.425 81.15L604.325 87C603.059 87.3667 601.742 87.55 600.375 87.55ZM620.381 87.55C617.481 87.55 614.981 87.0333 612.881 86C610.815 84.9333 609.215 83.45 608.081 81.55C606.981 79.6167 606.431 77.35 606.431 74.75C606.431 72.2167 606.965 70 608.031 68.1C609.131 66.1667 610.615 64.6667 612.481 63.6C614.381 62.5 616.565 61.95 619.031 61.95C622.598 61.95 625.431 63.0833 627.531 65.35C629.631 67.5833 630.681 70.6167 630.681 74.45V76.35H613.631C613.898 78.2833 614.598 79.7 615.731 80.6C616.898 81.4667 618.498 81.9 620.531 81.9C621.865 81.9 623.215 81.7 624.581 81.3C625.948 80.9 627.181 80.2833 628.281 79.45L630.281 84.5C629.048 85.4333 627.531 86.1833 625.731 86.75C623.965 87.2833 622.181 87.55 620.381 87.55ZM619.331 66.95C617.731 66.95 616.431 67.4333 615.431 68.4C614.465 69.3667 613.865 70.7167 613.631 72.45H624.431C624.231 68.7833 622.531 66.95 619.331 66.95ZM643.373 87.55C641.54 87.55 639.923 87.2 638.523 86.5C637.123 85.8 636.006 84.85 635.173 83.65C634.373 82.45 633.973 81.1 633.973 79.6C633.973 77.8333 634.44 76.4167 635.373 75.35C636.306 74.2833 637.823 73.5333 639.923 73.1C642.023 72.6333 644.806 72.4 648.273 72.4H650.073V71.55C650.073 70.0833 649.74 69.05 649.073 68.45C648.406 67.8167 647.273 67.5 645.673 67.5C644.34 67.5 642.923 67.7167 641.423 68.15C639.956 68.55 638.49 69.1667 637.023 70L634.973 64.95C635.84 64.3833 636.89 63.8667 638.123 63.4C639.39 62.9333 640.706 62.5833 642.073 62.35C643.44 62.0833 644.74 61.95 645.973 61.95C649.773 61.95 652.606 62.8167 654.473 64.55C656.34 66.25 657.273 68.9 657.273 72.5V87H650.223V83.3C649.723 84.6 648.873 85.6333 647.673 86.4C646.506 87.1667 645.073 87.55 643.373 87.55ZM645.073 82.5C646.473 82.5 647.656 82.0167 648.623 81.05C649.59 80.0833 650.073 78.8333 650.073 77.3V76.3H648.323C645.756 76.3 643.94 76.5333 642.873 77C641.806 77.4333 641.273 78.2 641.273 79.3C641.273 80.2333 641.59 81 642.223 81.6C642.89 82.2 643.84 82.5 645.073 82.5ZM662.905 87V62.45H670.305V66.7C671.472 63.8333 673.972 62.25 677.805 61.95L680.005 61.8L680.455 68.15L676.205 68.6C672.472 68.9667 670.605 70.8667 670.605 74.3V87H662.905ZM683.51 87V62.45H690.91V66.05C691.744 64.7167 692.86 63.7 694.26 63C695.66 62.3 697.227 61.95 698.96 61.95C701.86 61.95 704.027 62.8 705.46 64.5C706.894 66.1667 707.61 68.75 707.61 72.25V87H700.06V72.6C700.06 70.9 699.744 69.6833 699.11 68.95C698.477 68.1833 697.544 67.8 696.31 67.8C694.71 67.8 693.427 68.3 692.46 69.3C691.527 70.3 691.06 71.6333 691.06 73.3V87H683.51ZM725.997 87.55C723.097 87.55 720.597 87.0333 718.497 86C716.43 84.9333 714.83 83.45 713.697 81.55C712.597 79.6167 712.047 77.35 712.047 74.75C712.047 72.2167 712.58 70 713.647 68.1C714.747 66.1667 716.23 64.6667 718.097 63.6C719.997 62.5 722.18 61.95 724.647 61.95C728.213 61.95 731.047 63.0833 733.147 65.35C735.247 67.5833 736.297 70.6167 736.297 74.45V76.35H719.247C719.513 78.2833 720.213 79.7 721.347 80.6C722.513 81.4667 724.113 81.9 726.147 81.9C727.48 81.9 728.83 81.7 730.197 81.3C731.563 80.9 732.797 80.2833 733.897 79.45L735.897 84.5C734.663 85.4333 733.147 86.1833 731.347 86.75C729.58 87.2833 727.797 87.55 725.997 87.55ZM724.947 66.95C723.347 66.95 722.047 67.4333 721.047 68.4C720.08 69.3667 719.48 70.7167 719.247 72.45H730.047C729.847 68.7833 728.147 66.95 724.947 66.95ZM740.688 87V62.45H748.088V66.7C749.255 63.8333 751.755 62.25 755.588 61.95L757.788 61.8L758.238 68.15L753.988 68.6C750.255 68.9667 748.388 70.8667 748.388 74.3V87H740.688ZM770.449 87.55C768.283 87.55 766.266 87.3 764.399 86.8C762.533 86.3 760.983 85.6167 759.749 84.75L761.549 79.85C762.783 80.6167 764.183 81.2333 765.749 81.7C767.349 82.1333 768.933 82.35 770.499 82.35C771.899 82.35 772.933 82.1333 773.599 81.7C774.266 81.2333 774.599 80.6333 774.599 79.9C774.599 78.7333 773.749 78 772.049 77.7L766.799 76.75C764.699 76.3833 763.099 75.6333 761.999 74.5C760.899 73.3667 760.349 71.8833 760.349 70.05C760.349 68.3833 760.816 66.95 761.749 65.75C762.683 64.55 763.966 63.6167 765.599 62.95C767.233 62.2833 769.116 61.95 771.249 61.95C773.016 61.95 774.733 62.1833 776.399 62.65C778.066 63.0833 779.499 63.7833 780.699 64.75L778.799 69.6C777.799 68.8667 776.599 68.2667 775.199 67.8C773.833 67.3333 772.549 67.1 771.349 67.1C769.849 67.1 768.766 67.35 768.099 67.85C767.433 68.3167 767.099 68.9167 767.099 69.65C767.099 70.8167 767.883 71.55 769.449 71.85L774.699 72.8C776.866 73.1667 778.516 73.9 779.649 75C780.783 76.0667 781.349 77.5333 781.349 79.4C781.349 81.9667 780.349 83.9667 778.349 85.4C776.349 86.8333 773.716 87.55 770.449 87.55Z" fill="#0093EC"/>
<path d="M522.696 137.55C520.529 137.55 518.512 137.3 516.646 136.8C514.779 136.3 513.229 135.617 511.996 134.75L513.796 129.85C515.029 130.617 516.429 131.233 517.996 131.7C519.596 132.133 521.179 132.35 522.746 132.35C524.146 132.35 525.179 132.133 525.846 131.7C526.512 131.233 526.846 130.633 526.846 129.9C526.846 128.733 525.996 128 524.296 127.7L519.046 126.75C516.946 126.383 515.346 125.633 514.246 124.5C513.146 123.367 512.596 121.883 512.596 120.05C512.596 118.383 513.062 116.95 513.996 115.75C514.929 114.55 516.212 113.617 517.846 112.95C519.479 112.283 521.362 111.95 523.496 111.95C525.262 111.95 526.979 112.183 528.646 112.65C530.312 113.083 531.746 113.783 532.946 114.75L531.046 119.6C530.046 118.867 528.846 118.267 527.446 117.8C526.079 117.333 524.796 117.1 523.596 117.1C522.096 117.1 521.012 117.35 520.346 117.85C519.679 118.317 519.346 118.917 519.346 119.65C519.346 120.817 520.129 121.55 521.696 121.85L526.946 122.8C529.112 123.167 530.762 123.9 531.896 125C533.029 126.067 533.596 127.533 533.596 129.4C533.596 131.967 532.596 133.967 530.596 135.4C528.596 136.833 525.962 137.55 522.696 137.55ZM537.605 107.7V100.65H545.755V107.7H537.605ZM537.905 137V112.45H545.455V137H537.905ZM551.284 137V112.45H558.684V116.05C559.517 114.717 560.634 113.7 562.034 113C563.434 112.3 565 111.95 566.734 111.95C569.634 111.95 571.8 112.8 573.234 114.5C574.667 116.167 575.384 118.75 575.384 122.25V137H567.834V122.6C567.834 120.9 567.517 119.683 566.884 118.95C566.25 118.183 565.317 117.8 564.084 117.8C562.484 117.8 561.2 118.3 560.234 119.3C559.3 120.3 558.834 121.633 558.834 123.3V137H551.284ZM592.97 137.55C590.303 137.55 587.97 137.033 585.97 136C584.003 134.933 582.487 133.433 581.42 131.5C580.353 129.567 579.82 127.283 579.82 124.65C579.82 122.017 580.353 119.75 581.42 117.85C582.487 115.95 584.003 114.5 585.97 113.5C587.97 112.467 590.303 111.95 592.97 111.95C594.537 111.95 596.12 112.183 597.72 112.65C599.32 113.117 600.62 113.783 601.62 114.65L599.52 119.85C598.687 119.183 597.753 118.667 596.72 118.3C595.687 117.9 594.687 117.7 593.72 117.7C591.753 117.7 590.22 118.317 589.12 119.55C588.053 120.75 587.52 122.467 587.52 124.7C587.52 126.9 588.053 128.633 589.12 129.9C590.22 131.133 591.753 131.75 593.72 131.75C594.653 131.75 595.637 131.567 596.67 131.2C597.737 130.833 598.687 130.3 599.52 129.6L601.62 134.8C600.62 135.667 599.32 136.35 597.72 136.85C596.12 137.317 594.537 137.55 592.97 137.55ZM617.159 137.55C614.259 137.55 611.759 137.033 609.659 136C607.592 134.933 605.992 133.45 604.859 131.55C603.759 129.617 603.209 127.35 603.209 124.75C603.209 122.217 603.742 120 604.809 118.1C605.909 116.167 607.392 114.667 609.259 113.6C611.159 112.5 613.342 111.95 615.809 111.95C619.375 111.95 622.209 113.083 624.309 115.35C626.409 117.583 627.459 120.617 627.459 124.45V126.35H610.409C610.675 128.283 611.375 129.7 612.509 130.6C613.675 131.467 615.275 131.9 617.309 131.9C618.642 131.9 619.992 131.7 621.359 131.3C622.725 130.9 623.959 130.283 625.059 129.45L627.059 134.5C625.825 135.433 624.309 136.183 622.509 136.75C620.742 137.283 618.959 137.55 617.159 137.55ZM616.109 116.95C614.509 116.95 613.209 117.433 612.209 118.4C611.242 119.367 610.642 120.717 610.409 122.45H621.209C621.009 118.783 619.309 116.95 616.109 116.95ZM642.366 137L658.566 101.75H664.816L681.016 137H673.216L669.916 129.35H653.466L650.216 137H642.366ZM661.616 110L656.066 123.3H667.366L661.716 110H661.616ZM692.463 137.55C689.329 137.55 687.013 136.683 685.513 134.95C684.046 133.217 683.313 130.617 683.313 127.15V112.45H690.863V127.35C690.863 130.25 692.113 131.7 694.613 131.7C696.046 131.7 697.213 131.2 698.113 130.2C699.046 129.167 699.513 127.817 699.513 126.15V112.45H707.063V137H699.713V133.65C698.079 136.25 695.663 137.55 692.463 137.55ZM724.705 146.55C722.338 146.55 720.122 146.3 718.055 145.8C716.022 145.3 714.238 144.517 712.705 143.45L714.755 138.3C716.088 139.133 717.588 139.767 719.255 140.2C720.955 140.667 722.555 140.9 724.055 140.9C728.322 140.9 730.455 138.933 730.455 135V132.2C729.788 133.467 728.738 134.483 727.305 135.25C725.872 136.017 724.305 136.4 722.605 136.4C720.405 136.4 718.488 135.9 716.855 134.9C715.222 133.867 713.955 132.433 713.055 130.6C712.155 128.767 711.705 126.617 711.705 124.15C711.705 121.717 712.155 119.583 713.055 117.75C713.955 115.917 715.222 114.5 716.855 113.5C718.488 112.467 720.405 111.95 722.605 111.95C724.372 111.95 725.955 112.333 727.355 113.1C728.755 113.867 729.788 114.883 730.455 116.15V112.45H737.805V134.15C737.805 138.283 736.688 141.383 734.455 143.45C732.222 145.517 728.972 146.55 724.705 146.55ZM724.855 130.75C726.522 130.75 727.855 130.167 728.855 129C729.888 127.833 730.405 126.217 730.405 124.15C730.405 122.083 729.888 120.483 728.855 119.35C727.855 118.183 726.522 117.6 724.855 117.6C723.155 117.6 721.805 118.183 720.805 119.35C719.805 120.483 719.305 122.083 719.305 124.15C719.305 126.217 719.805 127.833 720.805 129C721.805 130.167 723.155 130.75 724.855 130.75ZM758.383 137V131.25L769.433 119.65C770.833 118.117 771.833 116.783 772.433 115.65C773.066 114.483 773.383 113.317 773.383 112.15C773.383 109.15 771.533 107.65 767.833 107.65C766.399 107.65 764.966 107.933 763.533 108.5C762.099 109.033 760.699 109.867 759.333 111L756.833 105.3C758.299 104.033 760.099 103.033 762.233 102.3C764.399 101.567 766.616 101.2 768.883 101.2C772.816 101.2 775.816 102.083 777.883 103.85C779.983 105.583 781.033 108.067 781.033 111.3C781.033 113.433 780.533 115.483 779.533 117.45C778.566 119.383 776.966 121.483 774.733 123.75L767.933 130.65H782.333V137H758.383ZM799.663 137.55C795.396 137.55 792.13 135.967 789.863 132.8C787.63 129.633 786.513 125.117 786.513 119.25C786.513 113.383 787.63 108.917 789.863 105.85C792.13 102.75 795.396 101.2 799.663 101.2C803.93 101.2 807.18 102.75 809.413 105.85C811.68 108.917 812.813 113.383 812.813 119.25C812.813 125.117 811.68 129.633 809.413 132.8C807.18 135.967 803.93 137.55 799.663 137.55ZM799.663 131.25C801.596 131.25 803.03 130.3 803.963 128.4C804.896 126.467 805.363 123.417 805.363 119.25C805.363 115.083 804.896 112.083 803.963 110.25C803.03 108.417 801.596 107.5 799.663 107.5C797.73 107.5 796.296 108.417 795.363 110.25C794.43 112.083 793.963 115.083 793.963 119.25C793.963 123.417 794.43 126.467 795.363 128.4C796.296 130.3 797.73 131.25 799.663 131.25ZM819.644 137V130.65H827.544V110.4L821.494 113.95L818.544 108.3L829.794 101.75H835.294V130.65H842.694V137H819.644ZM856.724 137.55C854.824 137.55 852.941 137.217 851.074 136.55C849.241 135.883 847.624 134.933 846.224 133.7L848.724 127.95C849.924 128.983 851.207 129.767 852.574 130.3C853.974 130.833 855.391 131.1 856.824 131.1C862.324 131.1 865.074 127.517 865.074 120.35V119.4C864.374 121.033 863.291 122.317 861.824 123.25C860.357 124.183 858.657 124.65 856.724 124.65C854.757 124.65 852.991 124.167 851.424 123.2C849.857 122.2 848.624 120.85 847.724 119.15C846.824 117.417 846.374 115.45 846.374 113.25C846.374 110.917 846.874 108.85 847.874 107.05C848.907 105.217 850.307 103.783 852.074 102.75C853.874 101.717 855.941 101.2 858.274 101.2C862.807 101.2 866.291 102.75 868.724 105.85C871.157 108.917 872.374 113.267 872.374 118.9C872.374 122.833 871.741 126.183 870.474 128.95C869.241 131.717 867.457 133.85 865.124 135.35C862.791 136.817 859.991 137.55 856.724 137.55ZM858.724 118.6C860.257 118.6 861.507 118.083 862.474 117.05C863.441 115.983 863.924 114.617 863.924 112.95C863.924 111.25 863.441 109.867 862.474 108.8C861.507 107.733 860.257 107.2 858.724 107.2C857.191 107.2 855.941 107.733 854.974 108.8C854.007 109.867 853.524 111.25 853.524 112.95C853.524 114.617 854.007 115.983 854.974 117.05C855.941 118.083 857.191 118.6 858.724 118.6Z" fill="#3F3D56"/>
<path d="M561.243 738V734.55L567.873 727.59C568.713 726.67 569.313 725.87 569.673 725.19C570.053 724.49 570.243 723.79 570.243 723.09C570.243 721.29 569.133 720.39 566.913 720.39C566.053 720.39 565.193 720.56 564.333 720.9C563.473 721.22 562.633 721.72 561.813 722.4L560.313 718.98C561.193 718.22 562.273 717.62 563.553 717.18C564.853 716.74 566.183 716.52 567.543 716.52C569.903 716.52 571.703 717.05 572.943 718.11C574.203 719.15 574.833 720.64 574.833 722.58C574.833 723.86 574.533 725.09 573.933 726.27C573.353 727.43 572.393 728.69 571.053 730.05L566.973 734.19H575.613V738H561.243ZM586.012 738.33C583.452 738.33 581.492 737.38 580.132 735.48C578.792 733.58 578.122 730.87 578.122 727.35C578.122 723.83 578.792 721.15 580.132 719.31C581.492 717.45 583.452 716.52 586.012 716.52C588.572 716.52 590.522 717.45 591.862 719.31C593.222 721.15 593.902 723.83 593.902 727.35C593.902 730.87 593.222 733.58 591.862 735.48C590.522 737.38 588.572 738.33 586.012 738.33ZM586.012 734.55C587.172 734.55 588.032 733.98 588.592 732.84C589.152 731.68 589.432 729.85 589.432 727.35C589.432 724.85 589.152 723.05 588.592 721.95C588.032 720.85 587.172 720.3 586.012 720.3C584.852 720.3 583.992 720.85 583.432 721.95C582.872 723.05 582.592 724.85 582.592 727.35C582.592 729.85 582.872 731.68 583.432 732.84C583.992 733.98 584.852 734.55 586.012 734.55ZM597.22 738V734.55L603.85 727.59C604.69 726.67 605.29 725.87 605.65 725.19C606.03 724.49 606.22 723.79 606.22 723.09C606.22 721.29 605.11 720.39 602.89 720.39C602.03 720.39 601.17 720.56 600.31 720.9C599.45 721.22 598.61 721.72 597.79 722.4L596.29 718.98C597.17 718.22 598.25 717.62 599.53 717.18C600.83 716.74 602.16 716.52 603.52 716.52C605.88 716.52 607.68 717.05 608.92 718.11C610.18 719.15 610.81 720.64 610.81 722.58C610.81 723.86 610.51 725.09 609.91 726.27C609.33 727.43 608.37 728.69 607.03 730.05L602.95 734.19H611.59V738H597.22ZM622.978 738V734.22H614.068V730.89L623.758 716.85H627.538V730.56H630.418V734.22H627.538V738H622.978ZM622.978 730.56V723.66L618.298 730.56H622.978Z" fill="#0093EC"/>
<path d="M755.994 688.556L743.734 688.555L737.902 641.268H755.996L755.994 688.556Z" fill="#9E616A"/>
<path d="M759.121 700.44L719.59 700.438V699.938C719.59 695.858 721.211 691.944 724.097 689.059C726.982 686.174 730.896 684.552 734.976 684.552H734.977L759.121 684.553L759.121 700.44Z" fill="#2F2E41"/>
<path d="M708.994 688.556L696.734 688.555L690.902 641.268H708.996L708.994 688.556Z" fill="#9E616A"/>
<path d="M712.121 700.44L672.59 700.438V699.938C672.59 695.858 674.211 691.944 677.097 689.059C679.982 686.174 683.896 684.552 687.976 684.552H687.977L712.121 684.553L712.121 700.44Z" fill="#2F2E41"/>
<path d="M309 701.083V349.172C309 347.005 309.929 344.926 311.583 343.394C313.237 341.861 315.481 341 317.82 341H357.18C359.519 341 361.763 341.861 363.417 343.394C365.071 344.926 366 347.005 366 349.172V702L309 701.083Z" fill="#3F3D56"/>
<path d="M179 702V506.704C179 505.191 179.929 503.74 181.583 502.671C183.237 501.601 185.481 501 187.82 501H227.18C229.519 501 231.763 501.601 233.417 502.671C235.071 503.74 236 505.191 236 506.704V701.58L179 702Z" fill="#3F3D56"/>
<path d="M75.9992 542.619C75.4198 542.619 74.8529 542.451 74.3669 542.136C73.8809 541.82 73.4966 541.371 73.2605 540.842C73.0243 540.313 72.9465 539.727 73.0362 539.155C73.126 538.582 73.3796 538.048 73.7664 537.617L201.108 455.361L335.108 299.361L465.108 205.861L599.092 155.237C603.608 153.861 603.608 158.861 599.092 160.367L465.108 210.984L338.551 303.924L205.108 458.361L78.2337 541.622C77.9526 541.936 77.6082 542.187 77.2231 542.359C76.838 542.531 76.4209 542.62 75.9992 542.619Z" fill="#3F3D56"/>
<path d="M78 557C93.464 557 106 544.464 106 529C106 513.536 93.464 501 78 501C62.536 501 50 513.536 50 529C50 544.464 62.536 557 78 557Z" fill="#00B0FF"/>
<path d="M208 476C223.464 476 236 463.464 236 448C236 432.536 223.464 420 208 420C192.536 420 180 432.536 180 448C180 463.464 192.536 476 208 476Z" fill="#CCCCCC"/>
<path d="M338 319C353.464 319 366 306.464 366 291C366 275.536 353.464 263 338 263C322.536 263 310 275.536 310 291C310 306.464 322.536 319 338 319Z" fill="#E6E6E6"/>
<path d="M468 228C483.464 228 496 215.464 496 200C496 184.536 483.464 172 468 172C452.536 172 440 184.536 440 200C440 215.464 452.536 228 468 228Z" fill="#00B0FF"/>
<path d="M717.832 278.535C733.296 278.535 745.832 265.999 745.832 250.535C745.832 235.071 733.296 222.535 717.832 222.535C702.368 222.535 689.832 235.071 689.832 250.535C689.832 265.999 702.368 278.535 717.832 278.535Z" fill="#00B0FF"/>
<path d="M707.932 468.656C718.412 469.918 745.211 460.358 746.663 474.902C760.457 515.507 760.048 671.159 760.048 671.159L739.048 672.159C739.048 672.159 722.267 548.484 714.332 522.026C710.35 554.185 711.048 677.159 711.048 677.159L692.048 678.159C692.048 678.159 675.005 573.441 674.908 542.706C672.836 520.192 677.916 486.83 675.742 465.066C686.133 468.359 697.071 469.579 707.932 468.656L707.932 468.656Z" fill="#3F3D56"/>
<path d="M439 698.92V261.166C439 255.552 442.949 251 447.82 251H487.18C492.051 251 496 255.551 496 261.166V700.066L439 698.92Z" fill="#3F3D56"/>
<path d="M672.282 350.856C668.079 342.263 662.945 334.158 656.972 326.686C655.724 325.227 654.587 323.676 653.572 322.046C651.422 318.316 650.782 313.936 649.422 309.856C645.622 298.416 636.142 289.226 633.832 277.396C632.992 273.096 625.896 285.594 627.762 290.926C631.092 300.576 631.522 310.796 635.762 320.116C640.002 329.436 644.982 338.376 648.642 347.906C650.722 353.316 652.382 358.906 655.432 363.906C658.482 368.906 663.242 373.096 668.992 373.846C668.953 370.221 669.504 366.614 670.622 363.166C671.872 359.226 674.092 354.586 672.282 350.856Z" fill="#9E616A"/>
<path d="M735.192 357.336C734.935 350.265 736.038 343.211 738.442 336.556C739.362 334.006 740.442 331.416 740.352 328.706C740.222 326.186 739.022 323.876 737.932 321.596C734.172 313.746 731.532 305.426 728.932 297.126L723.932 281.476C722.302 280.281 731.822 279.866 733.852 282.676C740.492 291.896 745.522 302.486 750.782 312.556C752.124 314.956 753.267 317.461 754.202 320.046C755.487 324.236 756.094 328.604 756.002 332.986C756.002 341.176 754.922 349.336 753.802 357.456C753.092 362.546 752.162 368.086 748.312 371.456C744.312 366.336 740.292 361.336 735.192 357.336Z" fill="#9E616A"/>
<path d="M708.752 349.234C720.212 349.234 729.502 339.944 729.502 328.484C729.502 317.024 720.212 307.734 708.752 307.734C697.292 307.734 688.002 317.024 688.002 328.484C688.002 339.944 697.292 349.234 708.752 349.234Z" fill="#9E616A"/>
<path d="M691.884 307.782C691.651 307.152 691.599 306.47 691.733 305.812C691.867 305.154 692.183 304.547 692.644 304.059C693.162 303.65 693.85 303.498 694.405 303.108C695.195 302.444 695.841 301.627 696.305 300.705C697.722 298.722 699.797 297.304 702.16 296.704C704.523 296.104 707.022 296.361 709.214 297.428C712.643 299.223 714.713 302.817 717.763 305.237C719.311 306.491 721.107 307.421 722.665 308.675C725.785 311.37 728.003 314.958 729.019 318.953C730.031 322.922 730.621 326.986 730.781 331.078C730.943 332.306 730.895 333.552 730.639 334.764C730.323 335.78 729.853 336.741 729.243 337.614C726.108 342.363 721.977 346.676 716.799 349.127C711.622 351.577 705.325 351.976 700.219 349.412C699.705 349.204 699.263 348.851 698.946 348.395C698.656 347.702 698.587 346.936 698.747 346.201C699.024 343.298 698.45 340.377 697.094 337.795C696.144 335.895 694.719 334.261 693.96 332.295C693.253 330.095 692.95 327.784 693.066 325.476C692.976 319.494 693.382 313.539 691.884 307.782Z" fill="#2D293D"/>
<path d="M49 699.695V582.717C49 581.217 52.949 580 57.82 580H97.18C102.051 580 106 581.218 106 582.717V700L49 699.695Z" fill="#3F3D56"/>
<path d="M820.169 701.802H1C0.734784 701.802 0.480429 701.697 0.292892 701.509C0.105356 701.322 0 701.067 0 700.802C0 700.537 0.105356 700.282 0.292892 700.095C0.480429 699.907 0.734784 699.802 1 699.802H820.168C820.433 699.802 820.688 699.907 820.875 700.095C821.063 700.282 821.168 700.537 821.168 700.802C821.168 701.067 821.063 701.322 820.875 701.509C820.688 701.697 820.433 701.802 820.168 701.802H820.169Z" fill="#E6E6E6"/>
<path d="M566 701.671V191.839C566 185.301 569.949 180 574.82 180H614.18C619.051 180 623 185.301 623 191.839V703L566 701.671Z" fill="#00B0FF"/>
<path d="M627.183 288.365C632.153 288.365 636.183 284.336 636.183 279.365C636.183 274.395 632.153 270.365 627.183 270.365C622.212 270.365 618.183 274.395 618.183 279.365C618.183 284.336 622.212 288.365 627.183 288.365Z" fill="#A0616A"/>
<path d="M727.183 284.365C732.153 284.365 736.183 280.336 736.183 275.365C736.183 270.395 732.153 266.365 727.183 266.365C722.212 266.365 718.183 270.395 718.183 275.365C718.183 280.336 722.212 284.365 727.183 284.365Z" fill="#A0616A"/>
<path d="M749.052 386.776C749.93 385.972 757.09 344.102 757.048 343.159C756.937 338 741.198 332.109 738.048 334.159C735.076 336.093 729.901 358.283 726.571 362.324L723.048 356.159H695.048L693.351 359.31C689.677 357.097 686.372 355.056 685.193 354.381C684.788 354.107 684.347 353.89 683.882 353.736C680.972 353.085 678.24 351.802 675.882 349.976C673.582 348.206 662.908 329.669 660.048 330.159C656.818 330.699 645.923 340.119 646.048 349.159C647.419 349.129 665.262 384.806 665.512 386.136C666.882 391.756 671.406 473.716 672.866 477.536C679.592 476.886 674.282 475.726 680.792 477.536C687.802 479.486 695.202 477.376 702.432 476.596C705.442 476.298 708.467 476.164 711.492 476.196C722.492 476.246 738.192 476.856 748.842 479.586C748.902 472.606 742.772 457.506 740.502 450.916C740.205 448.946 740.215 446.943 740.532 444.976C740.822 442.566 746.678 389.441 749.052 386.776Z" fill="#E6E6E6"/>
</svg>
