<svg width="945" height="733" viewBox="0 0 945 733" fill="none" xmlns="http://www.w3.org/2000/svg">
<path d="M379.733 70.55C377.133 70.55 374.75 70.1167 372.583 69.25C370.45 68.3833 368.616 67.15 367.083 65.55C365.55 63.95 364.366 62.0333 363.533 59.8C362.733 57.5667 362.333 55.0833 362.333 52.35C362.333 49.5833 362.733 47.1 363.533 44.9C364.366 42.6667 365.55 40.7667 367.083 39.2C368.616 37.6 370.45 36.3667 372.583 35.5C374.75 34.6333 377.133 34.2 379.733 34.2C382.366 34.2 384.75 34.6333 386.883 35.5C389.016 36.3667 390.85 37.5833 392.383 39.15C393.916 40.7167 395.1 42.6167 395.933 44.85C396.766 47.0833 397.183 49.5667 397.183 52.3C397.183 55.0667 396.766 57.5667 395.933 59.8C395.1 62.0333 393.916 63.95 392.383 65.55C390.85 67.15 389.016 68.3833 386.883 69.25C384.75 70.1167 382.366 70.55 379.733 70.55ZM379.733 63.95C381.733 63.95 383.416 63.5 384.783 62.6C386.15 61.6667 387.2 60.3333 387.933 58.6C388.7 56.8333 389.083 54.75 389.083 52.35C389.083 49.9167 388.716 47.8333 387.983 46.1C387.25 44.3667 386.183 43.05 384.783 42.15C383.383 41.25 381.7 40.8 379.733 40.8C377.8 40.8 376.133 41.25 374.733 42.15C373.333 43.05 372.266 44.3667 371.533 46.1C370.8 47.8333 370.433 49.9167 370.433 52.35C370.433 54.75 370.8 56.8333 371.533 58.6C372.266 60.3333 373.333 61.6667 374.733 62.6C376.133 63.5 377.8 63.95 379.733 63.95ZM409.778 70L399.078 45.45H407.028L413.928 63.05H412.328L419.528 45.45H426.978L416.128 70H409.778ZM441.401 70.55C438.501 70.55 436.001 70.0333 433.901 69C431.834 67.9333 430.234 66.45 429.101 64.55C428.001 62.6167 427.451 60.35 427.451 57.75C427.451 55.2167 427.984 53 429.051 51.1C430.118 49.1667 431.601 47.6667 433.501 46.6C435.434 45.5 437.618 44.95 440.051 44.95C442.451 44.95 444.518 45.4667 446.251 46.5C447.984 47.5 449.318 48.9333 450.251 50.8C451.218 52.6667 451.701 54.8833 451.701 57.45V59.35H433.651V55.45H446.251L445.451 56.15C445.451 54.1167 445.001 52.5833 444.101 51.55C443.234 50.4833 441.984 49.95 440.351 49.95C439.118 49.95 438.068 50.2333 437.201 50.8C436.334 51.3667 435.668 52.1833 435.201 53.25C434.734 54.3167 434.501 55.6 434.501 57.1V57.5C434.501 59.2 434.751 60.6 435.251 61.7C435.784 62.7667 436.568 63.5667 437.601 64.1C438.668 64.6333 439.984 64.9 441.551 64.9C442.884 64.9 444.234 64.7 445.601 64.3C446.968 63.9 448.201 63.2833 449.301 62.45L451.301 67.5C450.068 68.4333 448.551 69.1833 446.751 69.75C444.984 70.2833 443.201 70.55 441.401 70.55ZM456.092 70V45.45H463.492V51.45H462.992C463.392 49.45 464.259 47.9167 465.592 46.85C466.959 45.75 468.759 45.1167 470.992 44.95L473.192 44.8L473.642 51.15L469.392 51.6C467.492 51.7667 466.076 52.3167 465.142 53.25C464.242 54.1833 463.792 55.5333 463.792 57.3V70H456.092ZM492.714 70V63.65H500.614V41.25H504.264L494.564 46.95L491.614 41.3L502.864 34.75H508.364V63.65H515.764V70H492.714ZM520.144 70V62H528.244V70H520.144ZM535.683 70V63.65H543.583V41.25H547.233L537.533 46.95L534.583 41.3L545.833 34.75H551.333V63.65H558.733V70H535.683ZM577.579 70V45.45H584.979V50.05H584.429C584.862 49.0167 585.462 48.1167 586.229 47.35C586.996 46.5833 587.912 46 588.979 45.6C590.046 45.1667 591.212 44.95 592.479 44.95C594.379 44.95 595.962 45.4 597.229 46.3C598.496 47.2 599.396 48.5833 599.929 50.45H599.229C599.962 48.75 601.079 47.4167 602.579 46.45C604.112 45.45 605.862 44.95 607.829 44.95C609.729 44.95 611.279 45.3333 612.479 46.1C613.712 46.8333 614.629 47.9667 615.229 49.5C615.829 51 616.129 52.9167 616.129 55.25V70H608.579V55.5C608.579 53.8667 608.312 52.6833 607.779 51.95C607.279 51.1833 606.412 50.8 605.179 50.8C604.246 50.8 603.429 51.0333 602.729 51.5C602.029 51.9333 601.496 52.5833 601.129 53.45C600.796 54.2833 600.629 55.3167 600.629 56.55V70H593.079V55.5C593.079 53.8667 592.812 52.6833 592.279 51.95C591.779 51.1833 590.912 50.8 589.679 50.8C588.712 50.8 587.896 51.0333 587.229 51.5C586.562 51.9333 586.046 52.5833 585.679 53.45C585.312 54.2833 585.129 55.3167 585.129 56.55V70H577.579ZM621.613 40.7V33.65H629.763V40.7H621.613ZM621.913 70V45.45H629.463V70H621.913ZM644.442 70.55C641.275 70.55 638.958 69.7333 637.492 68.1C636.025 66.4333 635.292 63.9667 635.292 60.7V34.75H642.842V60.4C642.842 61.2333 642.975 61.9667 643.242 62.6C643.508 63.2 643.892 63.65 644.392 63.95C644.925 64.25 645.592 64.4 646.392 64.4C646.725 64.4 647.075 64.3833 647.442 64.35C647.808 64.3167 648.158 64.25 648.492 64.15L648.392 70C647.758 70.1667 647.108 70.3 646.442 70.4C645.808 70.5 645.142 70.55 644.442 70.55ZM661.092 70.55C657.925 70.55 655.609 69.7333 654.142 68.1C652.675 66.4333 651.942 63.9667 651.942 60.7V34.75H659.492V60.4C659.492 61.2333 659.625 61.9667 659.892 62.6C660.159 63.2 660.542 63.65 661.042 63.95C661.575 64.25 662.242 64.4 663.042 64.4C663.375 64.4 663.725 64.3833 664.092 64.35C664.459 64.3167 664.809 64.25 665.142 64.15L665.042 70C664.409 70.1667 663.759 70.3 663.092 70.4C662.459 70.5 661.792 70.55 661.092 70.55ZM668.292 40.7V33.65H676.442V40.7H668.292ZM668.592 70V45.45H676.142V70H668.592ZM693.771 70.55C691.138 70.55 688.838 70.0333 686.871 69C684.938 67.9667 683.438 66.4833 682.371 64.55C681.305 62.6167 680.771 60.3333 680.771 57.7C680.771 55.0667 681.305 52.8 682.371 50.9C683.438 49 684.938 47.5333 686.871 46.5C688.838 45.4667 691.138 44.95 693.771 44.95C696.405 44.95 698.688 45.4667 700.621 46.5C702.588 47.5333 704.105 49.0167 705.171 50.95C706.271 52.85 706.821 55.1 706.821 57.7C706.821 60.3333 706.271 62.6167 705.171 64.55C704.105 66.4833 702.588 67.9667 700.621 69C698.688 70.0333 696.405 70.55 693.771 70.55ZM693.771 64.9C695.405 64.9 696.721 64.3167 697.721 63.15C698.721 61.95 699.221 60.1333 699.221 57.7C699.221 55.2667 698.721 53.4833 697.721 52.35C696.721 51.1833 695.405 50.6 693.771 50.6C692.171 50.6 690.871 51.1833 689.871 52.35C688.871 53.4833 688.371 55.2667 688.371 57.7C688.371 60.1333 688.871 61.95 689.871 63.15C690.871 64.3167 692.171 64.9 693.771 64.9ZM711.415 70V45.45H718.815V50.05H718.265C719.031 48.4167 720.165 47.1667 721.665 46.3C723.198 45.4 724.931 44.95 726.865 44.95C728.831 44.95 730.448 45.3333 731.715 46.1C732.981 46.8333 733.931 47.9667 734.565 49.5C735.198 51 735.515 52.9167 735.515 55.25V70H727.965V55.6C727.965 54.4667 727.815 53.55 727.515 52.85C727.248 52.1167 726.831 51.6 726.265 51.3C725.731 50.9667 725.048 50.8 724.215 50.8C723.148 50.8 722.215 51.0333 721.415 51.5C720.648 51.9333 720.048 52.5667 719.615 53.4C719.181 54.2333 718.965 55.2 718.965 56.3V70H711.415ZM409.842 120.55C406.342 120.55 403.742 119.7 402.042 118C400.342 116.3 399.492 113.8 399.492 110.5V101.1H394.842V95.45H399.492V88.25H407.042V95.45H414.292V101.1H407.042V110.2C407.042 111.6 407.358 112.65 407.992 113.35C408.658 114.05 409.708 114.4 411.142 114.4C411.575 114.4 412.025 114.35 412.492 114.25C412.992 114.15 413.525 114.017 414.092 113.85L415.192 119.35C414.492 119.717 413.658 120 412.692 120.2C411.725 120.433 410.775 120.55 409.842 120.55ZM429.562 120.55C426.929 120.55 424.629 120.033 422.662 119C420.729 117.967 419.229 116.483 418.162 114.55C417.096 112.617 416.562 110.333 416.562 107.7C416.562 105.067 417.096 102.8 418.162 100.9C419.229 99 420.729 97.5333 422.662 96.5C424.629 95.4667 426.929 94.95 429.562 94.95C432.196 94.95 434.479 95.4667 436.412 96.5C438.379 97.5333 439.896 99.0167 440.962 100.95C442.062 102.85 442.612 105.1 442.612 107.7C442.612 110.333 442.062 112.617 440.962 114.55C439.896 116.483 438.379 117.967 436.412 119C434.479 120.033 432.196 120.55 429.562 120.55ZM429.562 114.9C431.196 114.9 432.512 114.317 433.512 113.15C434.512 111.95 435.012 110.133 435.012 107.7C435.012 105.267 434.512 103.483 433.512 102.35C432.512 101.183 431.196 100.6 429.562 100.6C427.962 100.6 426.662 101.183 425.662 102.35C424.662 103.483 424.162 105.267 424.162 107.7C424.162 110.133 424.662 111.95 425.662 113.15C426.662 114.317 427.962 114.9 429.562 114.9ZM459.012 120.55C455.512 120.55 452.912 119.7 451.212 118C449.512 116.3 448.662 113.8 448.662 110.5V101.1H444.012V95.45H448.662V88.25H456.212V95.45H463.462V101.1H456.212V110.2C456.212 111.6 456.528 112.65 457.162 113.35C457.828 114.05 458.878 114.4 460.312 114.4C460.745 114.4 461.195 114.35 461.662 114.25C462.162 114.15 462.695 114.017 463.262 113.85L464.362 119.35C463.662 119.717 462.828 120 461.862 120.2C460.895 120.433 459.945 120.55 459.012 120.55ZM475.476 120.55C473.676 120.55 472.06 120.2 470.626 119.5C469.193 118.8 468.076 117.85 467.276 116.65C466.476 115.45 466.076 114.1 466.076 112.6C466.076 110.8 466.543 109.383 467.476 108.35C468.41 107.283 469.926 106.533 472.026 106.1C474.126 105.633 476.91 105.4 480.376 105.4H483.026V109.3H480.426C479.126 109.3 478.026 109.35 477.126 109.45C476.26 109.55 475.543 109.733 474.976 110C474.41 110.233 473.993 110.533 473.726 110.9C473.493 111.267 473.376 111.733 473.376 112.3C473.376 113.233 473.693 114 474.326 114.6C474.993 115.2 475.943 115.5 477.176 115.5C478.143 115.5 478.993 115.283 479.726 114.85C480.493 114.383 481.093 113.767 481.526 113C481.96 112.2 482.176 111.3 482.176 110.3V104.55C482.176 103.083 481.843 102.05 481.176 101.45C480.51 100.817 479.376 100.5 477.776 100.5C476.443 100.5 475.026 100.717 473.526 101.15C472.06 101.55 470.593 102.167 469.126 103L467.076 97.95C467.943 97.35 468.993 96.8333 470.226 96.4C471.493 95.9333 472.81 95.5833 474.176 95.35C475.543 95.0833 476.843 94.95 478.076 94.95C480.643 94.95 482.743 95.3333 484.376 96.1C486.043 96.8333 487.293 97.9833 488.126 99.55C488.96 101.083 489.376 103.067 489.376 105.5V120H482.326V115.05H482.676C482.476 116.183 482.043 117.167 481.376 118C480.743 118.8 479.926 119.433 478.926 119.9C477.926 120.333 476.776 120.55 475.476 120.55ZM504.158 120.55C500.992 120.55 498.675 119.733 497.208 118.1C495.742 116.433 495.008 113.967 495.008 110.7V84.75H502.558V110.4C502.558 111.233 502.692 111.967 502.958 112.6C503.225 113.2 503.608 113.65 504.108 113.95C504.642 114.25 505.308 114.4 506.108 114.4C506.442 114.4 506.792 114.383 507.158 114.35C507.525 114.317 507.875 114.25 508.208 114.15L508.108 120C507.475 120.167 506.825 120.3 506.158 120.4C505.525 120.5 504.858 120.55 504.158 120.55ZM534.725 120.55C531.558 120.55 529.241 119.733 527.775 118.1C526.308 116.433 525.575 113.967 525.575 110.7V84.75H533.125V110.4C533.125 111.233 533.258 111.967 533.525 112.6C533.791 113.2 534.175 113.65 534.675 113.95C535.208 114.25 535.875 114.4 536.675 114.4C537.008 114.4 537.358 114.383 537.725 114.35C538.091 114.317 538.441 114.25 538.775 114.15L538.675 120C538.041 120.167 537.391 120.3 536.725 120.4C536.091 120.5 535.425 120.55 534.725 120.55ZM554.731 120.55C551.831 120.55 549.331 120.033 547.231 119C545.164 117.933 543.564 116.45 542.431 114.55C541.331 112.617 540.781 110.35 540.781 107.75C540.781 105.217 541.314 103 542.381 101.1C543.448 99.1667 544.931 97.6667 546.831 96.6C548.764 95.5 550.948 94.95 553.381 94.95C555.781 94.95 557.848 95.4667 559.581 96.5C561.314 97.5 562.648 98.9333 563.581 100.8C564.548 102.667 565.031 104.883 565.031 107.45V109.35H546.981V105.45H559.581L558.781 106.15C558.781 104.117 558.331 102.583 557.431 101.55C556.564 100.483 555.314 99.95 553.681 99.95C552.448 99.95 551.398 100.233 550.531 100.8C549.664 101.367 548.998 102.183 548.531 103.25C548.064 104.317 547.831 105.6 547.831 107.1V107.5C547.831 109.2 548.081 110.6 548.581 111.7C549.114 112.767 549.898 113.567 550.931 114.1C551.998 114.633 553.314 114.9 554.881 114.9C556.214 114.9 557.564 114.7 558.931 114.3C560.298 113.9 561.531 113.283 562.631 112.45L564.631 117.5C563.398 118.433 561.881 119.183 560.081 119.75C558.314 120.283 556.531 120.55 554.731 120.55ZM577.722 120.55C575.922 120.55 574.306 120.2 572.872 119.5C571.439 118.8 570.322 117.85 569.522 116.65C568.722 115.45 568.322 114.1 568.322 112.6C568.322 110.8 568.789 109.383 569.722 108.35C570.656 107.283 572.172 106.533 574.272 106.1C576.372 105.633 579.156 105.4 582.622 105.4H585.272V109.3H582.672C581.372 109.3 580.272 109.35 579.372 109.45C578.506 109.55 577.789 109.733 577.222 110C576.656 110.233 576.239 110.533 575.972 110.9C575.739 111.267 575.622 111.733 575.622 112.3C575.622 113.233 575.939 114 576.572 114.6C577.239 115.2 578.189 115.5 579.422 115.5C580.389 115.5 581.239 115.283 581.972 114.85C582.739 114.383 583.339 113.767 583.772 113C584.206 112.2 584.422 111.3 584.422 110.3V104.55C584.422 103.083 584.089 102.05 583.422 101.45C582.756 100.817 581.622 100.5 580.022 100.5C578.689 100.5 577.272 100.717 575.772 101.15C574.306 101.55 572.839 102.167 571.372 103L569.322 97.95C570.189 97.35 571.239 96.8333 572.472 96.4C573.739 95.9333 575.056 95.5833 576.422 95.35C577.789 95.0833 579.089 94.95 580.322 94.95C582.889 94.95 584.989 95.3333 586.622 96.1C588.289 96.8333 589.539 97.9833 590.372 99.55C591.206 101.083 591.622 103.067 591.622 105.5V120H584.572V115.05H584.922C584.722 116.183 584.289 117.167 583.622 118C582.989 118.8 582.172 119.433 581.172 119.9C580.172 120.333 579.022 120.55 577.722 120.55ZM597.254 120V95.45H604.654V101.45H604.154C604.554 99.45 605.421 97.9167 606.754 96.85C608.121 95.75 609.921 95.1167 612.154 94.95L614.354 94.8L614.804 101.15L610.554 101.6C608.654 101.767 607.238 102.317 606.304 103.25C605.404 104.183 604.954 105.533 604.954 107.3V120H597.254ZM617.86 120V95.45H625.26V100.05H624.71C625.477 98.4167 626.61 97.1667 628.11 96.3C629.643 95.4 631.377 94.95 633.31 94.95C635.277 94.95 636.893 95.3333 638.16 96.1C639.427 96.8333 640.377 97.9667 641.01 99.5C641.643 101 641.96 102.917 641.96 105.25V120H634.41V105.6C634.41 104.467 634.26 103.55 633.96 102.85C633.693 102.117 633.277 101.6 632.71 101.3C632.177 100.967 631.493 100.8 630.66 100.8C629.593 100.8 628.66 101.033 627.86 101.5C627.093 101.933 626.493 102.567 626.06 103.4C625.627 104.233 625.41 105.2 625.41 106.3V120H617.86ZM660.346 120.55C657.446 120.55 654.946 120.033 652.846 119C650.78 117.933 649.18 116.45 648.046 114.55C646.946 112.617 646.396 110.35 646.396 107.75C646.396 105.217 646.93 103 647.996 101.1C649.063 99.1667 650.546 97.6667 652.446 96.6C654.38 95.5 656.563 94.95 658.996 94.95C661.396 94.95 663.463 95.4667 665.196 96.5C666.93 97.5 668.263 98.9333 669.196 100.8C670.163 102.667 670.646 104.883 670.646 107.45V109.35H652.596V105.45H665.196L664.396 106.15C664.396 104.117 663.946 102.583 663.046 101.55C662.18 100.483 660.93 99.95 659.296 99.95C658.063 99.95 657.013 100.233 656.146 100.8C655.28 101.367 654.613 102.183 654.146 103.25C653.68 104.317 653.446 105.6 653.446 107.1V107.5C653.446 109.2 653.696 110.6 654.196 111.7C654.73 112.767 655.513 113.567 656.546 114.1C657.613 114.633 658.93 114.9 660.496 114.9C661.83 114.9 663.18 114.7 664.546 114.3C665.913 113.9 667.146 113.283 668.246 112.45L670.246 117.5C669.013 118.433 667.496 119.183 665.696 119.75C663.93 120.283 662.146 120.55 660.346 120.55ZM675.038 120V95.45H682.438V101.45H681.938C682.338 99.45 683.204 97.9167 684.538 96.85C685.904 95.75 687.704 95.1167 689.938 94.95L692.138 94.8L692.588 101.15L688.338 101.6C686.438 101.767 685.021 102.317 684.088 103.25C683.188 104.183 682.738 105.533 682.738 107.3V120H675.038ZM704.799 120.55C703.366 120.55 701.982 120.433 700.649 120.2C699.316 119.967 698.099 119.65 696.999 119.25C695.899 118.85 694.932 118.35 694.099 117.75L695.899 112.85C696.732 113.35 697.632 113.8 698.599 114.2C699.599 114.567 700.632 114.85 701.699 115.05C702.766 115.25 703.816 115.35 704.849 115.35C706.282 115.35 707.316 115.133 707.949 114.7C708.616 114.233 708.949 113.633 708.949 112.9C708.949 112.233 708.732 111.733 708.299 111.4C707.866 111.067 707.232 110.833 706.399 110.7L701.149 109.75C699.082 109.383 697.482 108.633 696.349 107.5C695.249 106.333 694.699 104.85 694.699 103.05C694.699 101.383 695.166 99.95 696.099 98.75C697.032 97.5167 698.316 96.5833 699.949 95.95C701.616 95.2833 703.499 94.95 705.599 94.95C706.799 94.95 707.966 95.05 709.099 95.25C710.232 95.45 711.299 95.75 712.299 96.15C713.332 96.55 714.249 97.0833 715.049 97.75L713.149 102.6C712.516 102.1 711.766 101.667 710.899 101.3C710.032 100.933 709.149 100.65 708.249 100.45C707.349 100.217 706.499 100.1 705.699 100.1C704.199 100.1 703.116 100.35 702.449 100.85C701.782 101.317 701.449 101.917 701.449 102.65C701.449 103.217 701.632 103.7 701.999 104.1C702.399 104.467 702.999 104.717 703.799 104.85L709.049 105.8C711.216 106.167 712.866 106.9 713.999 108C715.132 109.067 715.699 110.533 715.699 112.4C715.699 114.1 715.249 115.567 714.349 116.8C713.449 118 712.182 118.933 710.549 119.6C708.916 120.233 706.999 120.55 704.799 120.55Z" fill="#0093EC"/>
<path d="M561.243 724V720.55L567.873 713.59C568.433 712.97 568.883 712.41 569.223 711.91C569.583 711.41 569.843 710.93 570.003 710.47C570.163 710.01 570.243 709.55 570.243 709.09C570.243 708.21 569.953 707.54 569.373 707.08C568.813 706.62 567.993 706.39 566.913 706.39C566.053 706.39 565.193 706.56 564.333 706.9C563.473 707.22 562.633 707.72 561.813 708.4L560.313 704.98C561.193 704.22 562.273 703.62 563.553 703.18C564.853 702.74 566.183 702.52 567.543 702.52C569.123 702.52 570.453 702.76 571.533 703.24C572.613 703.7 573.433 704.38 573.993 705.28C574.553 706.18 574.833 707.28 574.833 708.58C574.833 709.22 574.763 709.85 574.623 710.47C574.483 711.07 574.253 711.67 573.933 712.27C573.633 712.85 573.243 713.46 572.763 714.1C572.303 714.72 571.733 715.37 571.053 716.05L565.803 721.39V720.19H575.613V724H561.243ZM586.012 724.33C584.312 724.33 582.872 723.9 581.692 723.04C580.532 722.18 579.642 720.94 579.022 719.32C578.422 717.7 578.122 715.71 578.122 713.35C578.122 711.01 578.422 709.04 579.022 707.44C579.622 705.82 580.512 704.6 581.692 703.78C582.872 702.94 584.312 702.52 586.012 702.52C587.732 702.52 589.172 702.94 590.332 703.78C591.512 704.6 592.402 705.81 593.002 707.41C593.602 709.01 593.902 710.99 593.902 713.35C593.902 715.69 593.592 717.68 592.972 719.32C592.372 720.94 591.492 722.18 590.332 723.04C589.172 723.9 587.732 724.33 586.012 724.33ZM586.012 720.55C587.172 720.55 588.032 719.98 588.592 718.84C589.152 717.68 589.432 715.85 589.432 713.35C589.432 710.85 589.152 709.05 588.592 707.95C588.052 706.85 587.192 706.3 586.012 706.3C584.852 706.3 583.992 706.85 583.432 707.95C582.872 709.05 582.592 710.85 582.592 713.35C582.592 715.85 582.872 717.68 583.432 718.84C583.992 719.98 584.852 720.55 586.012 720.55ZM597.22 724V720.55L603.85 713.59C604.41 712.97 604.86 712.41 605.2 711.91C605.56 711.41 605.82 710.93 605.98 710.47C606.14 710.01 606.22 709.55 606.22 709.09C606.22 708.21 605.93 707.54 605.35 707.08C604.79 706.62 603.97 706.39 602.89 706.39C602.03 706.39 601.17 706.56 600.31 706.9C599.45 707.22 598.61 707.72 597.79 708.4L596.29 704.98C597.17 704.22 598.25 703.62 599.53 703.18C600.83 702.74 602.16 702.52 603.52 702.52C605.1 702.52 606.43 702.76 607.51 703.24C608.59 703.7 609.41 704.38 609.97 705.28C610.53 706.18 610.81 707.28 610.81 708.58C610.81 709.22 610.74 709.85 610.6 710.47C610.46 711.07 610.23 711.67 609.91 712.27C609.61 712.85 609.22 713.46 608.74 714.1C608.28 714.72 607.71 715.37 607.03 716.05L601.78 721.39V720.19H611.59V724H597.22ZM622.978 724V720.22H614.068V716.89L623.758 702.85H627.538V716.56H630.418V720.22H627.538V724H622.978ZM622.978 716.56V708.4H623.848L617.518 717.7V716.56H622.978Z" fill="#0093EC"/>
<path d="M755.994 674.556L743.734 674.555L737.902 627.268H755.996L755.994 674.556Z" fill="#9E616A"/>
<path d="M759.121 686.44L719.59 686.438V685.938C719.59 681.858 721.211 677.944 724.097 675.059C726.982 672.174 730.896 670.552 734.976 670.552H734.977L759.121 670.553L759.121 686.44Z" fill="#2F2E41"/>
<path d="M708.994 674.556L696.734 674.555L690.902 627.268H708.996L708.994 674.556Z" fill="#9E616A"/>
<path d="M712.121 686.44L672.59 686.438V685.938C672.59 681.858 674.211 677.944 677.097 675.059C679.982 672.174 683.896 670.552 687.976 670.552H687.977L712.121 670.553L712.121 686.44Z" fill="#2F2E41"/>
<path d="M309 687.083V335.172C309 333.005 309.929 330.926 311.583 329.394C313.237 327.861 315.481 327 317.82 327H357.18C359.519 327 361.763 327.861 363.417 329.394C365.071 330.926 366 333.005 366 335.172V688L309 687.083Z" fill="#3F3D56"/>
<path d="M179 688V492.704C179 491.191 179.929 489.74 181.583 488.671C183.237 487.601 185.481 487 187.82 487H227.18C229.519 487 231.763 487.601 233.417 488.671C235.071 489.74 236 491.191 236 492.704V687.58L179 688Z" fill="#3F3D56"/>
<path d="M75.9992 528.619C75.4198 528.619 74.8529 528.451 74.3669 528.136C73.8809 527.82 73.4966 527.371 73.2605 526.842C73.0243 526.313 72.9465 525.727 73.0362 525.155C73.126 524.582 73.3796 524.048 73.7664 523.617L201.108 441.361L335.108 285.361L465.108 191.861L599.092 141.237C603.608 139.861 603.608 144.861 599.092 146.367L465.108 196.984L338.551 289.924L205.108 444.361L78.2337 527.622C77.9526 527.936 77.6082 528.187 77.2231 528.359C76.838 528.531 76.4209 528.62 75.9992 528.619Z" fill="#3F3D56"/>
<path d="M78 543C93.464 543 106 530.464 106 515C106 499.536 93.464 487 78 487C62.536 487 50 499.536 50 515C50 530.464 62.536 543 78 543Z" fill="#00B0FF"/>
<path d="M208 462C223.464 462 236 449.464 236 434C236 418.536 223.464 406 208 406C192.536 406 180 418.536 180 434C180 449.464 192.536 462 208 462Z" fill="#CCCCCC"/>
<path d="M338 305C353.464 305 366 292.464 366 277C366 261.536 353.464 249 338 249C322.536 249 310 261.536 310 277C310 292.464 322.536 305 338 305Z" fill="#E6E6E6"/>
<path d="M468 214C483.464 214 496 201.464 496 186C496 170.536 483.464 158 468 158C452.536 158 440 170.536 440 186C440 201.464 452.536 214 468 214Z" fill="#00B0FF"/>
<path d="M717.832 264.535C733.296 264.535 745.832 251.999 745.832 236.535C745.832 221.071 733.296 208.535 717.832 208.535C702.368 208.535 689.832 221.071 689.832 236.535C689.832 251.999 702.368 264.535 717.832 264.535Z" fill="#00B0FF"/>
<path d="M707.932 454.656C718.412 455.918 745.211 446.358 746.663 460.902C760.457 501.507 760.048 657.159 760.048 657.159L739.048 658.159C739.048 658.159 722.267 534.484 714.332 508.026C710.35 540.185 711.048 663.159 711.048 663.159L692.048 664.159C692.048 664.159 675.005 559.441 674.908 528.706C672.836 506.192 677.916 472.83 675.742 451.066C686.133 454.359 697.071 455.579 707.932 454.656L707.932 454.656Z" fill="#3F3D56"/>
<path d="M439 684.92V247.166C439 241.552 442.949 237 447.82 237H487.18C492.051 237 496 241.551 496 247.166V686.066L439 684.92Z" fill="#3F3D56"/>
<path d="M672.282 336.856C668.079 328.263 662.945 320.158 656.972 312.686C655.724 311.227 654.587 309.676 653.572 308.046C651.422 304.316 650.782 299.936 649.422 295.856C645.622 284.416 636.142 275.226 633.832 263.396C632.992 259.096 625.896 271.594 627.762 276.926C631.092 286.576 631.522 296.796 635.762 306.116C640.002 315.436 644.982 324.376 648.642 333.906C650.722 339.316 652.382 344.906 655.432 349.906C658.482 354.906 663.242 359.096 668.992 359.846C668.953 356.221 669.504 352.614 670.622 349.166C671.872 345.226 674.092 340.586 672.282 336.856Z" fill="#9E616A"/>
<path d="M735.192 343.336C734.935 336.265 736.038 329.211 738.442 322.556C739.362 320.006 740.442 317.416 740.352 314.706C740.222 312.186 739.022 309.876 737.932 307.596C734.172 299.746 731.532 291.426 728.932 283.126L723.932 267.476C722.302 266.281 731.822 265.866 733.852 268.676C740.492 277.896 745.522 288.486 750.782 298.556C752.124 300.956 753.267 303.461 754.202 306.046C755.487 310.236 756.094 314.604 756.002 318.986C756.002 327.176 754.922 335.336 753.802 343.456C753.092 348.546 752.162 354.086 748.312 357.456C744.312 352.336 740.292 347.336 735.192 343.336Z" fill="#9E616A"/>
<path d="M708.752 335.234C720.212 335.234 729.502 325.944 729.502 314.484C729.502 303.024 720.212 293.734 708.752 293.734C697.292 293.734 688.002 303.024 688.002 314.484C688.002 325.944 697.292 335.234 708.752 335.234Z" fill="#9E616A"/>
<path d="M691.884 293.782C691.651 293.152 691.599 292.47 691.733 291.812C691.867 291.154 692.183 290.547 692.644 290.059C693.162 289.65 693.85 289.498 694.405 289.108C695.195 288.444 695.841 287.627 696.305 286.705C697.722 284.722 699.797 283.304 702.16 282.704C704.523 282.104 707.022 282.361 709.214 283.428C712.643 285.223 714.713 288.817 717.763 291.237C719.311 292.491 721.107 293.421 722.665 294.675C725.785 297.37 728.003 300.958 729.019 304.953C730.031 308.922 730.621 312.986 730.781 317.078C730.943 318.306 730.895 319.552 730.639 320.764C730.323 321.78 729.853 322.741 729.243 323.614C726.108 328.363 721.977 332.676 716.799 335.127C711.622 337.577 705.325 337.976 700.219 335.412C699.705 335.204 699.263 334.851 698.946 334.395C698.656 333.702 698.587 332.936 698.747 332.201C699.024 329.298 698.45 326.377 697.094 323.795C696.144 321.895 694.719 320.261 693.96 318.295C693.253 316.095 692.95 313.784 693.066 311.476C692.976 305.494 693.382 299.539 691.884 293.782Z" fill="#2D293D"/>
<path d="M49 685.695V568.717C49 567.217 52.949 566 57.82 566H97.18C102.051 566 106 567.218 106 568.717V686L49 685.695Z" fill="#3F3D56"/>
<path d="M820.169 687.802H1C0.734784 687.802 0.480429 687.697 0.292892 687.509C0.105356 687.322 0 687.067 0 686.802C0 686.537 0.105356 686.282 0.292892 686.095C0.480429 685.907 0.734784 685.802 1 685.802H820.168C820.433 685.802 820.688 685.907 820.875 686.095C821.063 686.282 821.168 686.537 821.168 686.802C821.168 687.067 821.063 687.322 820.875 687.509C820.688 687.697 820.433 687.802 820.168 687.802H820.169Z" fill="#E6E6E6"/>
<path d="M566 687.671V177.839C566 171.301 569.949 166 574.82 166H614.18C619.051 166 623 171.301 623 177.839V689L566 687.671Z" fill="#00B0FF"/>
<path d="M627.183 274.365C632.153 274.365 636.183 270.336 636.183 265.365C636.183 260.395 632.153 256.365 627.183 256.365C622.212 256.365 618.183 260.395 618.183 265.365C618.183 270.336 622.212 274.365 627.183 274.365Z" fill="#A0616A"/>
<path d="M727.183 270.365C732.153 270.365 736.183 266.336 736.183 261.365C736.183 256.395 732.153 252.365 727.183 252.365C722.212 252.365 718.183 256.395 718.183 261.365C718.183 266.336 722.212 270.365 727.183 270.365Z" fill="#A0616A"/>
<path d="M749.052 372.776C749.93 371.972 757.09 330.102 757.048 329.159C756.937 324 741.198 318.109 738.048 320.159C735.076 322.093 729.901 344.283 726.571 348.324L723.048 342.159H695.048L693.351 345.31C689.677 343.097 686.372 341.056 685.193 340.381C684.788 340.107 684.347 339.89 683.882 339.736C680.972 339.085 678.24 337.802 675.882 335.976C673.582 334.206 662.908 315.669 660.048 316.159C656.818 316.699 645.923 326.119 646.048 335.159C647.419 335.129 665.262 370.806 665.512 372.136C666.882 377.756 671.406 459.716 672.866 463.536C679.592 462.886 674.282 461.726 680.792 463.536C687.802 465.486 695.202 463.376 702.432 462.596C705.442 462.298 708.467 462.164 711.492 462.196C722.492 462.246 738.192 462.856 748.842 465.586C748.902 458.606 742.772 443.506 740.502 436.916C740.205 434.946 740.215 432.943 740.532 430.976C740.822 428.566 746.678 375.441 749.052 372.776Z" fill="#E6E6E6"/>
</svg>
